<svg id="Layer_1" data-name="Layer 1" xmlns="http://www.w3.org/2000/svg" viewBox="0 0 159.97 148.39"><defs><style>.cls-1,.cls-10,.cls-11,.cls-2,.cls-3,.cls-4,.cls-5,.cls-6,.cls-7,.cls-8{isolation:isolate;font-family:BravAda-Arma, BravAda Arma;}.cls-1{font-size:8.34px;}.cls-1,.cls-10,.cls-11,.cls-2,.cls-3,.cls-4,.cls-5,.cls-6,.cls-7,.cls-8,.cls-9{fill:#9b9b9b;}.cls-2{font-size:8.37px;}.cls-3{font-size:8.36px;}.cls-4{font-size:8.39px;}.cls-5{font-size:8.38px;}.cls-6{font-size:8.35px;}.cls-7{font-size:8.42px;}.cls-8{font-size:8.37px;}.cls-10{font-size:21.61px;}.cls-11{font-size:21.64px;}</style></defs><title>The-Wolf-Pack_ bw</title><text class="cls-1" transform="translate(17.6 95.94) rotate(76.66)">R</text><text class="cls-2" transform="translate(19.36 102.73) rotate(70.33)">E</text><text class="cls-2" transform="matrix(0.44, 0.9, -0.9, 0.44, 21.79, 109.09)">S</text><text class="cls-3" transform="matrix(0.54, 0.84, -0.84, 0.54, 25.01, 115.34)">P</text><text class="cls-2" transform="matrix(0.63, 0.78, -0.78, 0.63, 28.89, 121.15)">E</text><text class="cls-2" transform="matrix(0.71, 0.71, -0.71, 0.71, 33.27, 126.37)">C</text><text class="cls-4" transform="translate(38.21 131.1) rotate(38.93)">T</text><text class="cls-2" transform="translate(59.38 143.04) rotate(16.16)">R</text><text class="cls-2" transform="translate(66.13 144.84) rotate(9.79)">E</text><text class="cls-2" transform="matrix(1, 0.06, -0.06, 1, 72.9, 145.86)">P</text><text class="cls-5" transform="translate(79.86 146.14) rotate(-2.86)">R</text><text class="cls-2" transform="translate(86.84 145.63) rotate(-9.18)">E</text><text class="cls-2" transform="translate(93.57 144.4) rotate(-15.56)">S</text><text class="cls-2" transform="matrix(0.93, -0.37, 0.37, 0.93, 100.27, 142.37)">E</text><text class="cls-6" transform="translate(106.56 139.68) rotate(-28.11)">N</text><text class="cls-2" transform="matrix(0.82, -0.57, 0.57, 0.82, 112.64, 136.23)">T</text><text class="cls-3" transform="matrix(0.54, -0.84, 0.84, 0.54, 130.13, 119.38)">R</text><text class="cls-7" transform="translate(133.82 113.41) rotate(-63.43)">O</text><text class="cls-8" transform="matrix(0.34, -0.94, 0.94, 0.34, 136.81, 107.07)">A</text><text class="cls-2" transform="translate(139.12 100.25) rotate(-76.64)">R</text><path class="cls-9" d="M86.09,87.74C85.6,86,84.67,85.29,83,85.38h-.37a4.45,4.45,0,0,0-1.25.18h0a6.57,6.57,0,0,0-.77.16,4.22,4.22,0,0,1-2.44,0,16.09,16.09,0,0,0-2.77-.31A2.37,2.37,0,0,0,73.07,87a6.28,6.28,0,0,0,1.79,7.44A7.21,7.21,0,0,0,79.79,96a6.52,6.52,0,0,0,6.53-6.51A6.74,6.74,0,0,0,86.09,87.74Zm-9.13,6a1.13,1.13,0,0,1-1.28-.94,3.51,3.51,0,0,0-1.42-2.16c-.54-.41-.5-.75.07-1.1a.55.55,0,0,1,.5,0,9.08,9.08,0,0,1,2.68,3.37c.23.56,0,.89-.55.89Zm7.75-3.21c-.14.13-.29.25-.44.37a2.7,2.7,0,0,0-1,1.57c-.2.91-.64,1.28-1.41,1.27-.5,0-.68-.2-.58-.69a1.91,1.91,0,0,1,.29-.69c.75-.93,1.51-1.85,2.3-2.75.31-.34.52-.28.89.11a.51.51,0,0,1,.1.7.47.47,0,0,1-.15.13Z" transform="translate(-0.01 0.2)"/><path class="cls-9" d="M41.27,43.22c1.28.25,2.57.43,3.83.75,4.4,1.11,8.82,2.17,13.17,3.45a16,16,0,0,0,8.81-.15c3.9-1,7.89-1.61,11.84-2.37a7.84,7.84,0,0,1,1.37,0l.16.29a9,9,0,0,1-1,1,14.25,14.25,0,0,1-6.22,2.48,24.13,24.13,0,0,0-7.6,2.61A10.87,10.87,0,0,0,62,54.76c-1.67,2.59-3,3-5.78,1.77l-.46-.2-7.88-2.82a1.17,1.17,0,0,1-.61-.41h11.2v-.34L47,50.17l6.76-.51v-.34a22.53,22.53,0,0,0-3.06-.43,14.34,14.34,0,0,1-10-3.7,1.68,1.68,0,0,1-.36-.06,10,10,0,0,0,.38,1.43c.72,1.7,1.45,3.39,2.23,5.07.9,2,1.6,3.91,1,6.13-.2.76.4,1.23,1,1.4,1.78.48,3.59.86,5.38,1.28.92.21,1.84.37,2.75.61.26.06.69.35.67.49a1,1,0,0,1-.52.75c-2,.74-4,1.47-6.07,2.11a16.08,16.08,0,0,1-2.59.32,27.19,27.19,0,0,0,5.48,3.73H46.37c-1.23,0-2.5-.15-3.73-.07s-2.51.34-3.87.41c.72-.46,1.45-.9,2.14-1.41.31-.23.72-.55.76-.88.31-2.38,1.08-4.44,3.82-5.47l-3-1a1.92,1.92,0,0,1-1.34-1.74A58.31,58.31,0,0,0,38.5,46.41c-.7-2.26-.7-2.26,1.39-3.18Z" transform="translate(-0.01 0.2)"/><path class="cls-9" d="M118.5,43.22a.06.06,0,0,0,.07.06c1.83.49,2.1.69,1.36,3a55,55,0,0,0-2.68,11.88,2.19,2.19,0,0,1-1.7,2l-2.68.82a5.6,5.6,0,0,1,3.67,4.41,3.76,3.76,0,0,0,.14.88,3.4,3.4,0,0,0,.83,1.09c.64.51,1.36.91,2,1.49-3.75-1.08-7.55-.14-11.05-.43L113.69,65l-.12-.29a13.15,13.15,0,0,1-2.34-.3c-2-.59-3.89-1.25-5.8-2-.34-.12-.55-.6-.82-.91a3.58,3.58,0,0,1,1-.58c1.91-.41,3.83-.73,5.74-1.13a14.22,14.22,0,0,0,2.29-.74,1.17,1.17,0,0,0,.83-1.43h0c-.55-2,.09-3.91.9-5.75.89-2,1.74-4.08,2.59-6.12a1.22,1.22,0,0,0,0-.6c-3.43,4-8.53,4.7-13,6.76,2.32,1,4.73.81,6.91,1.07-3.49,1.29-7.12,2.67-10.78,4a2.94,2.94,0,0,1-3.48-.88c-1.64-2-3.28-3.91-4.87-5.9-.69-.86-.49-1.41.58-1.67.65-.15,1.34-.13,2-.23,1.45-.22,2.93-.35,4.35-.7,5.32-1.31,10.61-2.69,15.92-4,.61-.15,1.24-.24,1.87-.35Z" transform="translate(-0.01 0.2)"/><path class="cls-9" d="M63.43,89.34Zm-.57-1h.07c0-.14-.11-.28-.17-.42,0,.08.07.22.13.37Zm-4.6,3Z" transform="translate(-0.01 0.2)"/><path class="cls-9" d="M78.12,133a9.69,9.69,0,0,1-5.38-2.32A12.21,12.21,0,0,1,69,122c-.27-4-.44-7.92-.67-11.89-.15-2.59-.28-5.2-1.4-7.59a47.83,47.83,0,0,1-3.09-10.2c-.22-1-.47-2-.71-3l-.27-1.09h0a1.75,1.75,0,0,0-.1-.44c.06.14.12.28.17.42.15.37.31.73.46,1.1l3.56,3.12L66.42,90c-.27-2.66.84-5,1.58-7.51a7,7,0,0,1-5.55-1.74c-1.65-1.61-2.19-1.67-4.28-.65-.31.15-.59.33-.9.47-2.35,1.08-4.68,2.2-7.06,3.19a12.3,12.3,0,0,1-2.55.46,2.45,2.45,0,0,0-.08-.29,49.3,49.3,0,0,0,9.85-6.35L44.55,80.61a1.18,1.18,0,0,0-.1-.3l10-4.42v-.18H45.6c3.36-1.24,7-1.21,10.13-2.48.09-.72.16-1.24.25-1.9a11.21,11.21,0,0,0,2.39,1.45,9.36,9.36,0,0,0,2.59,0,4.24,4.24,0,0,1-.06,1c-.09,2.68,2.38,5.24,4.92,4.58,1.81-.48,2.54.38,3.5,1.35a1.17,1.17,0,0,0,.27.15,4,4,0,0,0,1.78-2.74,30.79,30.79,0,0,1-3.64-2.33,13.91,13.91,0,0,0-4.29-2.58l-2.27-.86-7.86-3,.95,1L44,70.09a1,1,0,0,1,0,.25l6.1,1.11a1.22,1.22,0,0,1,0,.27c-4.87.64-9.79,1-14.62,2.94l4.72,2.41-.09.25L35.33,78l3.52.87v.26l-3.46,1.18,3.43,1.25v.25l-4,.85,4,1.77-3.6,1.22,3.37,1.77-2.14,1.12a12,12,0,0,0,4.35,4.58c3.24,2,6.66,3.67,9.87,5.69,1.82,1.14,3.18,1.37,4.86-.26,1.3-1.25,3.19-1.46,4.95-1.76-.79.7-1.65,1.27-2.47,1.88-2.52,1.88-2.67,2.87-.87,5.42l.75,1.08,1,1.4-.17.19L54,105.08a9,9,0,0,0,1.69,1.64c2.1,1.52,4.24,3,6.32,4.52a2.64,2.64,0,0,1,.87,1.26c.7,2.21,1.25,4.47,2,6.67,1.32,4,2.87,7.91,5.59,11.22A9,9,0,0,0,76.91,134a4,4,0,0,0,2.9-.66A8.82,8.82,0,0,0,78.12,133Zm-13-59.31c.2.55.24,1.13.49,1.24s.79-.11,1.39-.22c.73.41.79.85,0,1.58a2,2,0,0,1-2.33.36,1.93,1.93,0,0,1-1.19-1.92c0-1.3.47-1.55,1.62-1ZM58.29,91.3Zm3.55-3Zm1.61,1Z" transform="translate(-0.01 0.2)"/><path class="cls-9" d="M66.1,93.8l1.27,1.56A5.66,5.66,0,0,0,71,97.57c.91.15,1.75.71,2.66.93a24.79,24.79,0,0,0,3.73.61,26.7,26.7,0,0,0,4,0,26.17,26.17,0,0,0,3.83-.64c.71-.3,1.43-.57,2.16-.8,2.29-.23,3.65-1.7,4.93-3.36a.92.92,0,0,1,.57-.41c-.48,1.71-1,3.41-1.44,5.12-.75,2.89-1.57,5.76-2.12,8.69a27,27,0,0,0-.16,5,39.43,39.43,0,0,1-1,10.21c-.65,2.47-1.72,4.74-4.28,5.77a11.61,11.61,0,0,1-9,0,6.5,6.5,0,0,1-3.39-3.58,20.09,20.09,0,0,1-1.58-7c-.17-2.42-.25-4.85-.21-7.27a29.58,29.58,0,0,0-1.68-10c-.75-2.29-1.39-4.62-2.09-6.93Zm13.32,15.92h-.14v-1c-.08-2.27-.3-2.53-2.58-3a2.87,2.87,0,0,0-3.61,1.88.56.56,0,0,0,0,.12,18,18,0,0,0-.76,4.24c-.1,2.24.86,3.69,3.06,3.93a36.65,36.65,0,0,0,8.11,0,3.11,3.11,0,0,0,3-3.19,2.07,2.07,0,0,0,0-.35,17.08,17.08,0,0,0-.94-5,2.69,2.69,0,0,0-3.37-1.7c-.49.09-1,.27-1.46.39a1.24,1.24,0,0,0-1.11,1.36v0A15.66,15.66,0,0,1,79.42,109.72ZM89.61,98.26c-1.61-.37-2.67.44-3.93,1a12.9,12.9,0,0,1-9.59,1,14.09,14.09,0,0,1-3.44-1.33,5.06,5.06,0,0,0-2.6-.88c-.68,0-1,.21-.91.93a33.25,33.25,0,0,0,.72,4.87A39.88,39.88,0,0,0,72,108.73l.45-.1a18.16,18.16,0,0,1,.51-7.37c.52.48.91,1.09,1.41,1.21.35.08.85-.54,1.31-.86,1.82,1.73,2.24,1.75,3.71.1.65.32.7,1.66,1.83,1.14.73-.35,1.41-.82,1.86-1.08.57.28,1.09.76,1.46.66a7.18,7.18,0,0,0,1.57-1.3l.45,7.56a16,16,0,0,0,3-10.43Zm-6.7,26.91a2.19,2.19,0,0,0-1.94.21,6.93,6.93,0,0,1-3.17.07,7.7,7.7,0,0,1-1.86-.63l.22-1c.31-.11.69-.34.68-.53a3.23,3.23,0,0,0-.47-1.74,1.7,1.7,0,0,0-2.07-.17l.55,1c-1.95-.9-2.54-2.62-3.1-4.42-1,1.38-.68,6,.5,7.24a1.9,1.9,0,0,0,1.94.69,9.9,9.9,0,0,0,1.64.79,2.39,2.39,0,0,1,.56.32,2.3,2.3,0,0,0,2.45.3,1.74,1.74,0,0,1,1.15,0,2.3,2.3,0,0,0,2.5-.43.6.6,0,0,1,.43-.22,1.18,1.18,0,0,0,1.49-.73s0-.11,0-.17c1.42.23,2.38-.25,2.66-1.69a35,35,0,0,0,.42-5,3.55,3.55,0,0,0-.29-1.06H87c-.47,1.78-1.09,3.45-3,4.31l.48-1c-1.38-.42-2.37-.08-2.53.9-.1.61-.4,1.48.69,1.56Z" transform="translate(-0.01 0.2)"/><path class="cls-9" d="M89.1,70.06c3.43-3.74,7.25-6.81,12.23-8l.3.27-3.91,6,.07.24,4.31-1.26.13.33-6.62,2.64L95.42,70l2.07-3.4-.21-.24a16.91,16.91,0,0,0-2.56,1.81c-1.42,1.42-2.71,3-4,4.49-.6.68-1.14,1.43-1.79,2-1.23,1.18-2.29,1.13-3.52-.06l-.5-.47c-1.8,1.52-4.74,6.58-4.49,7.87,1.84-.64,2.93-2.2,4.55-3.54l-2.78,3.94c.87.28.87.28,3.26-1-1.23,2-2,2.31-4.28,1.87a8.69,8.69,0,0,0-3.37,0c-2.37.47-3,.28-4.3-1.74l3,1.34.24-.35L74,78.7c1.18,1,2.15,1.9,3.14,2.74a2,2,0,0,0,.87.47c.16,0,.41-.26.57-.44s0-.26-.09-.38a36.31,36.31,0,0,0-4.39-6.9c-.19.06-.28.06-.31.1-1.74,2.07-3.1,1.44-4.57-.26S66.42,70.61,64.94,69a7.27,7.27,0,0,0-3.6-2.32L63.41,70a16.78,16.78,0,0,1-7.16-2.87c1.46.44,3,.9,4.54,1.34a.63.63,0,0,0,.35-.09l-3.93-6.07.29-.28c5,1.22,8.83,4.3,12.28,8l-2.9-.68a13,13,0,0,0,4.42,3.69c1.29.6,1.93.1,1.85-1.31A9.72,9.72,0,0,0,71.28,67a17.21,17.21,0,0,1-1.66-3c1.75,1.56,3.59,3,5.24,4.7,1.26,1.27,1.19,2,.33,3.51a.93.93,0,0,0,0,.8c.74,1.24,1.51,2.47,2.33,3.66.17.26.59.35.89.52a3,3,0,0,0,.41-.86c.24-2,.44-3.94.67-6.15.17,1.88.27,3.54.48,5.18a8.88,8.88,0,0,0,.62,1.82A8.53,8.53,0,0,0,81.94,76a33.66,33.66,0,0,0,1.8-2.92,1.1,1.1,0,0,0,0-.87c-.81-1.35-.84-2.19.24-3.37a38.31,38.31,0,0,1,3.17-2.94,22.15,22.15,0,0,1,2.45-1.85c-.65,1-1.31,1.92-1.93,2.9a9.44,9.44,0,0,0-1.87,4.83c0,1.38.57,1.81,1.83,1.24a10.57,10.57,0,0,0,4.14-3.65Z" transform="translate(-0.01 0.2)"/><path class="cls-9" d="M69.8,59.74c2.39,1.47,4.79,2.92,7.16,4.43.53.34.93.58,1.51.15a1.36,1.36,0,0,1,1.83,0c.55.45,1,.24,1.52-.11,2.28-1.48,4.6-2.88,6.91-4.31l.17.25c-.93.66-1.9,1.27-2.78,2a48.24,48.24,0,0,0-4.2,3.62c-.79.8-1.29.72-2,0-.17-.15-.34-.29-.52-.42-1.69,1.17-1.63,1.1-3.29-.32-2.08-1.78-4.26-3.44-6.4-5.15Z" transform="translate(-0.01 0.2)"/><polygon class="cls-9" points="63.42 89.54 63.41 89.54 63.41 89.53 63.41 89.54 63.42 89.54"/><polygon class="cls-9" points="58.25 91.5 58.25 91.5 58.25 91.5 58.25 91.5 58.25 91.5 58.25 91.5"/><polygon class="cls-9" points="58.25 91.5 58.25 91.5 58.25 91.5 58.25 91.5 58.25 91.5 58.25 91.5"/><path class="cls-9" d="M61.82,88.33Z" transform="translate(-0.01 0.2)"/><path class="cls-9" d="M62.89,88.29c.08.35.16.71.23,1.1l-.27-1.09Z" transform="translate(-0.01 0.2)"/><polygon class="cls-9" points="63.42 89.54 63.41 89.54 63.41 89.53 63.41 89.54 63.42 89.54"/><path class="cls-9" d="M119.89,84.59a2,2,0,0,0,0-.24l3.7-1.59-4-.87v-.25L123,80.4l-3.47-1.2V79l3.51-.87-4.76-.69v-.28L123,74.73c-4.87-1.89-9.78-2.31-14.65-2.92v-.28l6.11-1.11v-.26l-10.28-.72.92-1c-3.65,1.4-7.29,2.77-10.9,4.2A8.8,8.8,0,0,0,91.84,74c-1.46,1.19-2.81,2.52-4.77,2.93a4.06,4.06,0,0,0,2.08,3.23c.37-.47.76-.93,1.1-1.43s.86-.56,1.54-.39a5,5,0,0,0,2.55,0c2.24-.66,3.18-2.33,3.21-5.43a4.86,4.86,0,0,0,4.72-1.62l.23.21c.06.57.12,1.14.19,1.93l10.11,2.07,0,.35h-9l10.1,4.46-.1.31-12.5-3-.16.33,9.65,6.17a2.76,2.76,0,0,0-.08.27q-2.5-.64-4.93-1.53c-1.89-.79-3.67-1.85-5.5-2.77-2.12-1.06-2.6-1-4.28.64a6.34,6.34,0,0,1-4.29,1.74H90.49c.06.23.11.44.17.66h0c.06.52.38,1.53.6,2.58a14.48,14.48,0,0,1,.36,3.83,11,11,0,0,1-.53,2.85l4.57-5.1-.77,5.54C94.54,94,94,96,93.66,97.28a24,24,0,0,1-.76,2.31c-.28.76-.61,1.54-1.2,2.92a16.45,16.45,0,0,0-1.24,5.07c-.39,4.69-.57,9.4-.85,14.1a14.92,14.92,0,0,1-3.25,8.84c-.49.61-.93,1.25-1.39,1.88l.19.2a5.32,5.32,0,0,0,1.33-.81,28.22,28.22,0,0,0,3.06-3.58,36.12,36.12,0,0,0,4.92-12.1,10.11,10.11,0,0,1,5.34-7.26,42,42,0,0,0,4.84-3.55l-.13-.2-5.06,1.82c1-1.52,1.88-2.75,2.63-4a2.2,2.2,0,0,0-.34-3.09l-.28-.19c-1-.81-2-1.53-3.08-2.27a2.7,2.7,0,0,0-.61-.25c.09-.1.19-.2.28-.31a12.71,12.71,0,0,1,6.38,2.94,1.07,1.07,0,0,0,1.51.13h0c.91-.56,1.92-1,2.85-1.51,3.17-1.83,6.37-3.62,9.46-5.58A10.88,10.88,0,0,0,122,88.62l-2.13-1.15,3.34-1.75ZM95,75.09a3,3,0,0,1-1.3,1.61,1.81,1.81,0,0,1-2.21-.47c-.71-.74-.68-1,.1-1.57.55.16,1,.44,1.3.33s.33-.67.48-1l-.18-.23c.46-.1,1.21-.42,1.32-.27a2.17,2.17,0,0,1,.52,1.6Z" transform="translate(-0.01 0.2)"/><path class="cls-9" d="M44.61,124.17a50.6,50.6,0,0,1-4.7-4.79c-.31-.33,0,0-1.63-1.93-3.06-3.59-3.16-3.64-3.52-4.27-.75-1.3-.81-1.93-1.83-3.58a13.22,13.22,0,0,1-.69-1.22,15.89,15.89,0,0,1-.83-2.21c-.09-.31-.19-.61-.31-.91s-.51-1.1-.61-1.07a11.6,11.6,0,0,0,1,3.83c.33.87.41.9,1.45,3.07,1.47,3.06,1.43,3.27,2.09,4.22.27.4.86,1.1,2,2.52.82,1,1.32,1.56,2,2.28,1.27,1.38,1.45,1.4,2.75,2.74,0,0,3.54,3.67,5.17,4.42a.51.51,0,0,0,.38.07c.1,0,.23,0,.24-.21a.41.41,0,0,0-.22-.39C46.38,126,45.55,124.93,44.61,124.17Z" transform="translate(-0.01 0.2)"/><path class="cls-9" d="M39.69,40.19c.1,0,.26-.25.3-.43.22-1,1-1.17,1.53-1.65,1.29-1.1,2.42-2.51,3.78-3.45,3.18-2.19,6.4-4.36,10.08-5.31.8-.21,1.43-1.25,2.48-.43.21.17.57-.24.5-.65a2.32,2.32,0,0,1,0-1.17l1.9-.29a12.06,12.06,0,0,0-1.8.09,1.65,1.65,0,0,1,1.06-.78c-.44-.42-.74-.37-1-.18a13.83,13.83,0,0,1-2.11,1.14,21.73,21.73,0,0,0-2.28.4h-.24a.61.61,0,0,0-.51.19,14.35,14.35,0,0,0-2.11.76,1.54,1.54,0,0,0-1.56.86,9.68,9.68,0,0,0-1,.67c.28-.15.56-.28.84-.41,0,.15-.07.31-.1.46a1.65,1.65,0,0,1-1.2,1.4,6.28,6.28,0,0,0-1.32.78,23.31,23.31,0,0,1-2.6,1.53,9.41,9.41,0,0,0-4,2.75c-.44.5-1.2.5-1.37,1.26a7.08,7.08,0,0,1-2.21,3.39,1.62,1.62,0,0,0-.41,1C37.61,41.8,38.24,40,39.69,40.19Z" transform="translate(-0.01 0.2)"/><path class="cls-9" d="M101.74,134.1c.08.27.31.12.44.09a27,27,0,0,0,5.78-2.4,31.91,31.91,0,0,0,3-2,39.18,39.18,0,0,0,5.54-4.66,2.38,2.38,0,0,0-.58.16c-1.44,1-2.66,2.25-4.14,3.19a7,7,0,0,0-1.18.76,21.09,21.09,0,0,1-8.46,4.54C102,133.8,101.63,133.8,101.74,134.1Z" transform="translate(-0.01 0.2)"/><path class="cls-9" d="M79.5,21.8c-1.25.37-2.51.7-3.94,1.09.76-.08,1.42.25,1.93-.06.81-.49,1-.13,1.12.56,0,.18,0,.47.33.37a3.46,3.46,0,0,0,1.88-.83c.1-.11.29-.17.2-.42A1.48,1.48,0,0,0,79.5,21.8Z" transform="translate(-0.01 0.2)"/><path class="cls-9" d="M59.25,134a26.61,26.61,0,0,0,4.42,2c-.91-.36-1.74-.82-2.6-1.25A6,6,0,0,0,59.25,134Z" transform="translate(-0.01 0.2)"/><path class="cls-9" d="M56.56,132.51a23.27,23.27,0,0,0-2.46-1.2A14,14,0,0,0,56.56,132.51Z" transform="translate(-0.01 0.2)"/><path class="cls-9" d="M63.13,136.32c.86.22,1.75.57,2.58.69-1.14-.42-2.28-.77-3.43-1.17a52.26,52.26,0,0,1-5.72-2.44c-1.06-.52-2-1.1-3-1.67s-1.87-1.11-2.72-1.69a2.31,2.31,0,0,0-1.49-.65c-.1,0-.31-.09-.32,0s.14.15.26.23A13.87,13.87,0,0,0,52,131.15a2.87,2.87,0,0,1,.48.28,27,27,0,0,0,3.46,2A36.22,36.22,0,0,0,59.23,135,35.71,35.71,0,0,0,63.13,136.32Z" transform="translate(-0.01 0.2)"/><path class="cls-9" d="M65.19,132.87a5.36,5.36,0,0,0,2.29.58C66.79,133,65.89,133.2,65.19,132.87Z" transform="translate(-0.01 0.2)"/><path class="cls-9" d="M66.38,131.94a.19.19,0,0,0,0,.18.42.42,0,0,0,.4.28c.14,0,.25-.16.4-.11l.09.17c0-.08.09-.18.06-.23S67,132,66.84,132,66.53,131.8,66.38,131.94Z" transform="translate(-0.01 0.2)"/><path class="cls-9" d="M111.89,34.8c-.16.21-2.28-1.69-6.93-4.38a46.42,46.42,0,0,0-7.5-3.74c-1.78-.67-3.83-1.23-7.94-2.35-3-.81-4.79-1.24-4.76-1.41a19,19,0,0,1,3.27.23,48.14,48.14,0,0,1,8.47,1.94,37.4,37.4,0,0,1,7.84,3.06C109,30.8,112.09,34.48,111.89,34.8Z" transform="translate(-0.01 0.2)"/><path class="cls-9" d="M119.72,116.36l-.32.26c-.8.59-1,1.84-2.16,2-.14,0,0,.21.08.31.28.21.13.37-.11.39a2,2,0,0,0-1,.64c-1.39,1.2-2.2,2.94-3.73,4a.71.71,0,0,0-.1.66c.19.24.51.13.76,0A4.29,4.29,0,0,0,115.2,122c.1-.39.2-.7.67-.8,1.49-.29,2.08-1.72,3.13-2.56a4.79,4.79,0,0,0,1-1.47.61.61,0,0,0-.23-.82Z" transform="translate(-0.01 0.2)"/><path class="cls-9" d="M113.41,118.49c-.84.69-1.51,1.53-2.3,2.19a12.25,12.25,0,0,0,4.5-3.33c.46-.26.58-.74.43-1.39-.64.18-.28,1-.58,1.39a5.48,5.48,0,0,0-1.11.48c0-.16-1.18.64-1,.64" transform="translate(-0.01 0.2)"/><path class="cls-9" d="M111.29,122.44c-.76.63-1.37,1.39-2.09,2a11,11,0,0,0,4.09-3c.41-.24.52-.67.38-1.26-.58.17-.25.91-.53,1.26a5.24,5.24,0,0,0-1,.44c0-.14-.8.86-.87.63" transform="translate(-0.01 0.2)"/><path class="cls-9" d="M75.29,25.14c-1-.66-2.08.77-4.73,1.12-.62.08-.71,0-3.63.26h-.61c-1,.68-2.24,1.53-2.13,1.74s1.26-.23,1.63-.36a53.75,53.75,0,0,1,9.94-2.24A1.38,1.38,0,0,0,75.29,25.14Z" transform="translate(-0.01 0.2)"/><path class="cls-9" d="M68.14,24.31h0A6.91,6.91,0,0,0,69.7,24a5.46,5.46,0,0,0,.77-.28,1.14,1.14,0,0,0-.58,0,13.55,13.55,0,0,1-1.88.36l.07.1Z" transform="translate(-0.01 0.2)"/><path class="cls-9" d="M69.5,25.11l-.18.13a24.36,24.36,0,0,0,3.19-.38,7.88,7.88,0,0,0,1.65-.44h-.38a2.76,2.76,0,0,0-.76.07c-.4.09-1.74.27-3.84.5" transform="translate(-0.01 0.2)"/><path class="cls-9" d="M32.64,51.56c-.14.34-.25.69-.41,1a27.92,27.92,0,0,0-3,12.77,15.26,15.26,0,0,1-.16,1.79,6,6,0,0,1-.23,1.1c-.44-6.14.42-11.86,3.59-16.82Z" transform="translate(-0.01 0.2)"/><path class="cls-9" d="M32.22,56c-.34,1.09-.74,2.15-1,3.27a12.54,12.54,0,0,0-.1,2.21c-.88-2.65.35-6.28,2.2-8.64l-.66,2.35Z" transform="translate(-0.01 0.2)"/><path class="cls-9" d="M113.81,34.87a16.36,16.36,0,0,0,2.16,2c.89.63,1.81,1.23,2.72,1.86a13.84,13.84,0,0,0-2.89-2.88,4.62,4.62,0,0,1-1.75-1.25c-.08-.13,0-.45-.33-.27S113.67,34.72,113.81,34.87Z" transform="translate(-0.01 0.2)"/><path class="cls-9" d="M108.89,35.8a34.58,34.58,0,0,0,4.59,2.41C112,37.32,111,35.8,108.89,35.8Z" transform="translate(-0.01 0.2)"/><path class="cls-9" d="M119.61,45c-.08-.35-.51-.54-1-.51a4.63,4.63,0,0,1,.48.68C119.37,45.59,119.69,45.32,119.61,45Z" transform="translate(-0.01 0.2)"/><path class="cls-9" d="M104.22,35.34c-.48-.28-.75-.6-1.2-.49a.25.25,0,0,0,0,.19C103.22,35.46,103.62,35.44,104.22,35.34Z" transform="translate(-0.01 0.2)"/><path class="cls-9" d="M123.68,117.8l3.9-4.25a2.27,2.27,0,0,1,.44-1.18l.43.23.25-.27,1.47-4.49-.22-.12.91-2,2.89-8.82h0l.88-2.67h0c.55-3,1.11-5.65,1.51-8.37a66.41,66.41,0,0,0,.29-9.25,48.42,48.42,0,0,0-.39-6.37c-1.06-9.06-5.51-16.81-9.54-24.72-.13-.26-.74-.27-1.53-.52.61,1.38,1.08,2.34,1.47,3.34,1.88,4.8,5.05,9.37,6.4,14.32a57.33,57.33,0,0,1,2,11.56c.18,2.79-.39,6.42,0,9.17.91,6.47-1.75,12.33-3.92,18.33-1.8,5-3.59,10-7.21,14.1a2,2,0,0,0,0,1.94Z" transform="translate(-0.01 0.2)"/><text class="cls-10" transform="translate(21.14 73.62) rotate(-78.05)">T</text><text class="cls-10" transform="matrix(0.43, -0.9, 0.9, 0.43, 24.45, 59.91)">H</text><text class="cls-11" transform="matrix(0.64, -0.77, 0.77, 0.64, 30.94, 47.4)">E</text><text class="cls-10" transform="translate(47.09 31.12) rotate(-26.21)">W</text><text class="cls-10" transform="translate(63.7 23.73) rotate(-10.28)">O</text><text class="cls-10" transform="translate(78.01 21.57) rotate(3.49)">L</text><text class="cls-10" transform="translate(92.04 22.81) rotate(17.26)">F</text><text class="cls-10" transform="translate(113.26 31.94) rotate(40.02)">P</text><text class="cls-10" transform="matrix(0.6, 0.8, -0.8, 0.6, 123.12, 40.45)">A</text><text class="cls-10" transform="translate(131.73 52.53) rotate(66.88)">C</text><text class="cls-10" transform="matrix(0.16, 0.99, -0.99, 0.16, 136.89, 65.65)">K</text><path class="cls-9" d="M86.09,87.74C85.6,86,84.67,85.29,83,85.38h-.37a4.45,4.45,0,0,0-1.25.18h0a6.57,6.57,0,0,0-.77.16,4.22,4.22,0,0,1-2.44,0,16.09,16.09,0,0,0-2.77-.31A2.37,2.37,0,0,0,73.07,87a6.28,6.28,0,0,0,1.79,7.44A7.21,7.21,0,0,0,79.79,96a6.52,6.52,0,0,0,6.53-6.51A6.74,6.74,0,0,0,86.09,87.74Zm-9.13,6a1.13,1.13,0,0,1-1.28-.94,3.51,3.51,0,0,0-1.42-2.16c-.54-.41-.5-.75.07-1.1a.55.55,0,0,1,.5,0,9.08,9.08,0,0,1,2.68,3.37c.23.56,0,.89-.55.89Zm7.75-3.21c-.14.13-.29.25-.44.37a2.7,2.7,0,0,0-1,1.57c-.2.91-.64,1.28-1.41,1.27-.5,0-.68-.2-.58-.69a1.91,1.91,0,0,1,.29-.69c.75-.93,1.51-1.85,2.3-2.75.31-.34.52-.28.89.11a.51.51,0,0,1,.1.7.47.47,0,0,1-.15.13Z" transform="translate(-0.01 0.2)"/><path class="cls-9" d="M41.27,43.22c1.28.25,2.57.43,3.83.75,4.4,1.11,8.82,2.17,13.17,3.45a16,16,0,0,0,8.81-.15c3.9-1,7.89-1.61,11.84-2.37a7.84,7.84,0,0,1,1.37,0l.16.29a9,9,0,0,1-1,1,14.25,14.25,0,0,1-6.22,2.48,24.13,24.13,0,0,0-7.6,2.61A10.87,10.87,0,0,0,62,54.76c-1.67,2.59-3,3-5.78,1.77l-.46-.2-7.88-2.82a1.17,1.17,0,0,1-.61-.41h11.2v-.34L47,50.17l6.76-.51v-.34a22.53,22.53,0,0,0-3.06-.43,14.34,14.34,0,0,1-10-3.7,1.68,1.68,0,0,1-.36-.06,10,10,0,0,0,.38,1.43c.72,1.7,1.45,3.39,2.23,5.07.9,2,1.6,3.91,1,6.13-.2.76.4,1.23,1,1.4,1.78.48,3.59.86,5.38,1.28.92.21,1.84.37,2.75.61.26.06.69.35.67.49a1,1,0,0,1-.52.75c-2,.74-4,1.47-6.07,2.11a16.08,16.08,0,0,1-2.59.32,27.19,27.19,0,0,0,5.48,3.73H46.37c-1.23,0-2.5-.15-3.73-.07s-2.51.34-3.87.41c.72-.46,1.45-.9,2.14-1.41.31-.23.72-.55.76-.88.31-2.38,1.08-4.44,3.82-5.47l-3-1a1.92,1.92,0,0,1-1.34-1.74A58.31,58.31,0,0,0,38.5,46.41c-.7-2.26-.7-2.26,1.39-3.18Z" transform="translate(-0.01 0.2)"/><path class="cls-9" d="M118.5,43.22a.06.06,0,0,0,.07.06c1.83.49,2.1.69,1.36,3a55,55,0,0,0-2.68,11.88,2.19,2.19,0,0,1-1.7,2l-2.68.82a5.6,5.6,0,0,1,3.67,4.41,3.76,3.76,0,0,0,.14.88,3.4,3.4,0,0,0,.83,1.09c.64.51,1.36.91,2,1.49-3.75-1.08-7.55-.14-11.05-.43L113.69,65l-.12-.29a13.15,13.15,0,0,1-2.34-.3c-2-.59-3.89-1.25-5.8-2-.34-.12-.55-.6-.82-.91a3.58,3.58,0,0,1,1-.58c1.91-.41,3.83-.73,5.74-1.13a14.22,14.22,0,0,0,2.29-.74,1.17,1.17,0,0,0,.83-1.43h0c-.55-2,.09-3.91.9-5.75.89-2,1.74-4.08,2.59-6.12a1.22,1.22,0,0,0,0-.6c-3.43,4-8.53,4.7-13,6.76,2.32,1,4.73.81,6.91,1.07-3.49,1.29-7.12,2.67-10.78,4a2.94,2.94,0,0,1-3.48-.88c-1.64-2-3.28-3.91-4.87-5.9-.69-.86-.49-1.41.58-1.67.65-.15,1.34-.13,2-.23,1.45-.22,2.93-.35,4.35-.7,5.32-1.31,10.61-2.69,15.92-4,.61-.15,1.24-.24,1.87-.35Z" transform="translate(-0.01 0.2)"/><path class="cls-9" d="M63.43,89.34Zm-.57-1h.07c0-.14-.11-.28-.17-.42,0,.08.07.22.13.37Zm-4.6,3Z" transform="translate(-0.01 0.2)"/><path class="cls-9" d="M78.12,133a9.69,9.69,0,0,1-5.38-2.32A12.21,12.21,0,0,1,69,122c-.27-4-.44-7.92-.67-11.89-.15-2.59-.28-5.2-1.4-7.59a47.83,47.83,0,0,1-3.09-10.2c-.22-1-.47-2-.71-3l-.27-1.09h0a1.75,1.75,0,0,0-.1-.44c.06.14.12.28.17.42.15.37.31.73.46,1.1l3.56,3.12L66.42,90c-.27-2.66.84-5,1.58-7.51a7,7,0,0,1-5.55-1.74c-1.65-1.61-2.19-1.67-4.28-.65-.31.15-.59.33-.9.47-2.35,1.08-4.68,2.2-7.06,3.19a12.3,12.3,0,0,1-2.55.46,2.45,2.45,0,0,0-.08-.29,49.3,49.3,0,0,0,9.85-6.35L44.55,80.61a1.18,1.18,0,0,0-.1-.3l10-4.42v-.18H45.6c3.36-1.24,7-1.21,10.13-2.48.09-.72.16-1.24.25-1.9a11.21,11.21,0,0,0,2.39,1.45,9.36,9.36,0,0,0,2.59,0,4.24,4.24,0,0,1-.06,1c-.09,2.68,2.38,5.24,4.92,4.58,1.81-.48,2.54.38,3.5,1.35a1.17,1.17,0,0,0,.27.15,4,4,0,0,0,1.78-2.74,30.79,30.79,0,0,1-3.64-2.33,13.91,13.91,0,0,0-4.29-2.58l-2.27-.86-7.86-3,.95,1L44,70.09a1,1,0,0,1,0,.25l6.1,1.11a1.22,1.22,0,0,1,0,.27c-4.87.64-9.79,1-14.62,2.94l4.72,2.41-.09.25L35.33,78l3.52.87v.26l-3.46,1.18,3.43,1.25v.25l-4,.85,4,1.77-3.6,1.22,3.37,1.77-2.14,1.12a12,12,0,0,0,4.35,4.58c3.24,2,6.66,3.67,9.87,5.69,1.82,1.14,3.18,1.37,4.86-.26,1.3-1.25,3.19-1.46,4.95-1.76-.79.7-1.65,1.27-2.47,1.88-2.52,1.88-2.67,2.87-.87,5.42l.75,1.08,1,1.4-.17.19L54,105.08a9,9,0,0,0,1.69,1.64c2.1,1.52,4.24,3,6.32,4.52a2.64,2.64,0,0,1,.87,1.26c.7,2.21,1.25,4.47,2,6.67,1.32,4,2.87,7.91,5.59,11.22A9,9,0,0,0,76.91,134a4,4,0,0,0,2.9-.66A8.82,8.82,0,0,0,78.12,133Zm-13-59.31c.2.55.24,1.13.49,1.24s.79-.11,1.39-.22c.73.41.79.85,0,1.58a2,2,0,0,1-2.33.36,1.93,1.93,0,0,1-1.19-1.92c0-1.3.47-1.55,1.62-1ZM58.29,91.3Zm3.55-3Zm1.61,1Z" transform="translate(-0.01 0.2)"/><path class="cls-9" d="M66.1,93.8l1.27,1.56A5.66,5.66,0,0,0,71,97.57c.91.15,1.75.71,2.66.93a24.79,24.79,0,0,0,3.73.61,26.7,26.7,0,0,0,4,0,26.17,26.17,0,0,0,3.83-.64c.71-.3,1.43-.57,2.16-.8,2.29-.23,3.65-1.7,4.93-3.36a.92.92,0,0,1,.57-.41c-.48,1.71-1,3.41-1.44,5.12-.75,2.89-1.57,5.76-2.12,8.69a27,27,0,0,0-.16,5,39.43,39.43,0,0,1-1,10.21c-.65,2.47-1.72,4.74-4.28,5.77a11.61,11.61,0,0,1-9,0,6.5,6.5,0,0,1-3.39-3.58,20.09,20.09,0,0,1-1.58-7c-.17-2.42-.25-4.85-.21-7.27a29.58,29.58,0,0,0-1.68-10c-.75-2.29-1.39-4.62-2.09-6.93Zm13.32,15.92h-.14v-1c-.08-2.27-.3-2.53-2.58-3a2.87,2.87,0,0,0-3.61,1.88.56.56,0,0,0,0,.12,18,18,0,0,0-.76,4.24c-.1,2.24.86,3.69,3.06,3.93a36.65,36.65,0,0,0,8.11,0,3.11,3.11,0,0,0,3-3.19,2.07,2.07,0,0,0,0-.35,17.08,17.08,0,0,0-.94-5,2.69,2.69,0,0,0-3.37-1.7c-.49.09-1,.27-1.46.39a1.24,1.24,0,0,0-1.11,1.36v0A15.66,15.66,0,0,1,79.42,109.72ZM89.61,98.26c-1.61-.37-2.67.44-3.93,1a12.9,12.9,0,0,1-9.59,1,14.09,14.09,0,0,1-3.44-1.33,5.06,5.06,0,0,0-2.6-.88c-.68,0-1,.21-.91.93a33.25,33.25,0,0,0,.72,4.87A39.88,39.88,0,0,0,72,108.73l.45-.1a18.16,18.16,0,0,1,.51-7.37c.52.48.91,1.09,1.41,1.21.35.08.85-.54,1.31-.86,1.82,1.73,2.24,1.75,3.71.1.65.32.7,1.66,1.83,1.14.73-.35,1.41-.82,1.86-1.08.57.28,1.09.76,1.46.66a7.18,7.18,0,0,0,1.57-1.3l.45,7.56a16,16,0,0,0,3-10.43Zm-6.7,26.91a2.19,2.19,0,0,0-1.94.21,6.93,6.93,0,0,1-3.17.07,7.7,7.7,0,0,1-1.86-.63l.22-1c.31-.11.69-.34.68-.53a3.23,3.23,0,0,0-.47-1.74,1.7,1.7,0,0,0-2.07-.17l.55,1c-1.95-.9-2.54-2.62-3.1-4.42-1,1.38-.68,6,.5,7.24a1.9,1.9,0,0,0,1.94.69,9.9,9.9,0,0,0,1.64.79,2.39,2.39,0,0,1,.56.32,2.3,2.3,0,0,0,2.45.3,1.74,1.74,0,0,1,1.15,0,2.3,2.3,0,0,0,2.5-.43.6.6,0,0,1,.43-.22,1.18,1.18,0,0,0,1.49-.73s0-.11,0-.17c1.42.23,2.38-.25,2.66-1.69a35,35,0,0,0,.42-5,3.55,3.55,0,0,0-.29-1.06H87c-.47,1.78-1.09,3.45-3,4.31l.48-1c-1.38-.42-2.37-.08-2.53.9-.1.61-.4,1.48.69,1.56Z" transform="translate(-0.01 0.2)"/><path class="cls-9" d="M89.1,70.06c3.43-3.74,7.25-6.81,12.23-8l.3.27-3.91,6,.07.24,4.31-1.26.13.33-6.62,2.64L95.42,70l2.07-3.4-.21-.24a16.91,16.91,0,0,0-2.56,1.81c-1.42,1.42-2.71,3-4,4.49-.6.68-1.14,1.43-1.79,2-1.23,1.18-2.29,1.13-3.52-.06l-.5-.47c-1.8,1.52-4.74,6.58-4.49,7.87,1.84-.64,2.93-2.2,4.55-3.54l-2.78,3.94c.87.28.87.28,3.26-1-1.23,2-2,2.31-4.28,1.87a8.69,8.69,0,0,0-3.37,0c-2.37.47-3,.28-4.3-1.74l3,1.34.24-.35L74,78.7c1.18,1,2.15,1.9,3.14,2.74a2,2,0,0,0,.87.47c.16,0,.41-.26.57-.44s0-.26-.09-.38a36.31,36.31,0,0,0-4.39-6.9c-.19.06-.28.06-.31.1-1.74,2.07-3.1,1.44-4.57-.26S66.42,70.61,64.94,69a7.27,7.27,0,0,0-3.6-2.32L63.41,70a16.78,16.78,0,0,1-7.16-2.87c1.46.44,3,.9,4.54,1.34a.63.63,0,0,0,.35-.09l-3.93-6.07.29-.28c5,1.22,8.83,4.3,12.28,8l-2.9-.68a13,13,0,0,0,4.42,3.69c1.29.6,1.93.1,1.85-1.31A9.72,9.72,0,0,0,71.28,67a17.21,17.21,0,0,1-1.66-3c1.75,1.56,3.59,3,5.24,4.7,1.26,1.27,1.19,2,.33,3.51a.93.93,0,0,0,0,.8c.74,1.24,1.51,2.47,2.33,3.66.17.26.59.35.89.52a3,3,0,0,0,.41-.86c.24-2,.44-3.94.67-6.15.17,1.88.27,3.54.48,5.18a8.88,8.88,0,0,0,.62,1.82A8.53,8.53,0,0,0,81.94,76a33.66,33.66,0,0,0,1.8-2.92,1.1,1.1,0,0,0,0-.87c-.81-1.35-.84-2.19.24-3.37a38.31,38.31,0,0,1,3.17-2.94,22.15,22.15,0,0,1,2.45-1.85c-.65,1-1.31,1.92-1.93,2.9a9.44,9.44,0,0,0-1.87,4.83c0,1.38.57,1.81,1.83,1.24a10.57,10.57,0,0,0,4.14-3.65Z" transform="translate(-0.01 0.2)"/><path class="cls-9" d="M69.8,59.74c2.39,1.47,4.79,2.92,7.16,4.43.53.34.93.58,1.51.15a1.36,1.36,0,0,1,1.83,0c.55.45,1,.24,1.52-.11,2.28-1.48,4.6-2.88,6.91-4.31l.17.25c-.93.66-1.9,1.27-2.78,2a48.24,48.24,0,0,0-4.2,3.62c-.79.8-1.29.72-2,0-.17-.15-.34-.29-.52-.42-1.69,1.17-1.63,1.1-3.29-.32-2.08-1.78-4.26-3.44-6.4-5.15Z" transform="translate(-0.01 0.2)"/><polygon class="cls-9" points="63.42 89.54 63.41 89.54 63.41 89.53 63.41 89.54 63.42 89.54"/><polygon class="cls-9" points="58.25 91.5 58.25 91.5 58.25 91.5 58.25 91.5 58.25 91.5 58.25 91.5"/><polygon class="cls-9" points="58.25 91.5 58.25 91.5 58.25 91.5 58.25 91.5 58.25 91.5 58.25 91.5"/><path class="cls-9" d="M61.82,88.33Z" transform="translate(-0.01 0.2)"/><path class="cls-9" d="M62.89,88.29c.08.35.16.71.23,1.1l-.27-1.09Z" transform="translate(-0.01 0.2)"/><polygon class="cls-9" points="63.42 89.54 63.41 89.54 63.41 89.53 63.41 89.54 63.42 89.54"/><path class="cls-9" d="M119.89,84.59a2,2,0,0,0,0-.24l3.7-1.59-4-.87v-.25L123,80.4l-3.47-1.2V79l3.51-.87-4.76-.69v-.28L123,74.73c-4.87-1.89-9.78-2.31-14.65-2.92v-.28l6.11-1.11v-.26l-10.28-.72.92-1c-3.65,1.4-7.29,2.77-10.9,4.2A8.8,8.8,0,0,0,91.84,74c-1.46,1.19-2.81,2.52-4.77,2.93a4.06,4.06,0,0,0,2.08,3.23c.37-.47.76-.93,1.1-1.43s.86-.56,1.54-.39a5,5,0,0,0,2.55,0c2.24-.66,3.18-2.33,3.21-5.43a4.86,4.86,0,0,0,4.72-1.62l.23.21c.06.57.12,1.14.19,1.93l10.11,2.07,0,.35h-9l10.1,4.46-.1.31-12.5-3-.16.33,9.65,6.17a2.76,2.76,0,0,0-.08.27q-2.5-.64-4.93-1.53c-1.89-.79-3.67-1.85-5.5-2.77-2.12-1.06-2.6-1-4.28.64a6.34,6.34,0,0,1-4.29,1.74H90.49c.06.23.11.44.17.66h0c.06.52.38,1.53.6,2.58a14.48,14.48,0,0,1,.36,3.83,11,11,0,0,1-.53,2.85l4.57-5.1-.77,5.54C94.54,94,94,96,93.66,97.28a24,24,0,0,1-.76,2.31c-.28.76-.61,1.54-1.2,2.92a16.45,16.45,0,0,0-1.24,5.07c-.39,4.69-.57,9.4-.85,14.1a14.92,14.92,0,0,1-3.25,8.84c-.49.61-.93,1.25-1.39,1.88l.19.2a5.32,5.32,0,0,0,1.33-.81,28.22,28.22,0,0,0,3.06-3.58,36.12,36.12,0,0,0,4.92-12.1,10.11,10.11,0,0,1,5.34-7.26,42,42,0,0,0,4.84-3.55l-.13-.2-5.06,1.82c1-1.52,1.88-2.75,2.63-4a2.2,2.2,0,0,0-.34-3.09l-.28-.19c-1-.81-2-1.53-3.08-2.27a2.7,2.7,0,0,0-.61-.25c.09-.1.19-.2.28-.31a12.71,12.71,0,0,1,6.38,2.94,1.07,1.07,0,0,0,1.51.13h0c.91-.56,1.92-1,2.85-1.51,3.17-1.83,6.37-3.62,9.46-5.58A10.88,10.88,0,0,0,122,88.62l-2.13-1.15,3.34-1.75ZM95,75.09a3,3,0,0,1-1.3,1.61,1.81,1.81,0,0,1-2.21-.47c-.71-.74-.68-1,.1-1.57.55.16,1,.44,1.3.33s.33-.67.48-1l-.18-.23c.46-.1,1.21-.42,1.32-.27a2.17,2.17,0,0,1,.52,1.6Z" transform="translate(-0.01 0.2)"/><path class="cls-9" d="M44.61,124.17a50.6,50.6,0,0,1-4.7-4.79c-.31-.33,0,0-1.63-1.93-3.06-3.59-3.16-3.64-3.52-4.27-.75-1.3-.81-1.93-1.83-3.58a13.22,13.22,0,0,1-.69-1.22,15.89,15.89,0,0,1-.83-2.21c-.09-.31-.19-.61-.31-.91s-.51-1.1-.61-1.07a11.6,11.6,0,0,0,1,3.83c.33.87.41.9,1.45,3.07,1.47,3.06,1.43,3.27,2.09,4.22.27.4.86,1.1,2,2.52.82,1,1.32,1.56,2,2.28,1.27,1.38,1.45,1.4,2.75,2.74,0,0,3.54,3.67,5.17,4.42a.51.51,0,0,0,.38.07c.1,0,.23,0,.24-.21a.41.41,0,0,0-.22-.39C46.38,126,45.55,124.93,44.61,124.17Z" transform="translate(-0.01 0.2)"/><path class="cls-9" d="M39.69,40.19c.1,0,.26-.25.3-.43.22-1,1-1.17,1.53-1.65,1.29-1.1,2.42-2.51,3.78-3.45,3.18-2.19,6.4-4.36,10.08-5.31.8-.21,1.43-1.25,2.48-.43.21.17.57-.24.5-.65a2.32,2.32,0,0,1,0-1.17l1.9-.29a12.06,12.06,0,0,0-1.8.09,1.65,1.65,0,0,1,1.06-.78c-.44-.42-.74-.37-1-.18a13.83,13.83,0,0,1-2.11,1.14,21.73,21.73,0,0,0-2.28.4h-.24a.61.61,0,0,0-.51.19,14.35,14.35,0,0,0-2.11.76,1.54,1.54,0,0,0-1.56.86,9.68,9.68,0,0,0-1,.67c.28-.15.56-.28.84-.41,0,.15-.07.31-.1.46a1.65,1.65,0,0,1-1.2,1.4,6.28,6.28,0,0,0-1.32.78,23.31,23.31,0,0,1-2.6,1.53,9.41,9.41,0,0,0-4,2.75c-.44.5-1.2.5-1.37,1.26a7.08,7.08,0,0,1-2.21,3.39,1.62,1.62,0,0,0-.41,1C37.61,41.8,38.24,40,39.69,40.19Z" transform="translate(-0.01 0.2)"/><path class="cls-9" d="M101.74,134.1c.08.27.31.12.44.09a27,27,0,0,0,5.78-2.4,31.91,31.91,0,0,0,3-2,39.18,39.18,0,0,0,5.54-4.66,2.38,2.38,0,0,0-.58.16c-1.44,1-2.66,2.25-4.14,3.19a7,7,0,0,0-1.18.76,21.09,21.09,0,0,1-8.46,4.54C102,133.8,101.63,133.8,101.74,134.1Z" transform="translate(-0.01 0.2)"/><path class="cls-9" d="M79.5,21.8c-1.25.37-2.51.7-3.94,1.09.76-.08,1.42.25,1.93-.06.81-.49,1-.13,1.12.56,0,.18,0,.47.33.37a3.46,3.46,0,0,0,1.88-.83c.1-.11.29-.17.2-.42A1.48,1.48,0,0,0,79.5,21.8Z" transform="translate(-0.01 0.2)"/><path class="cls-9" d="M59.25,134a26.61,26.61,0,0,0,4.42,2c-.91-.36-1.74-.82-2.6-1.25A6,6,0,0,0,59.25,134Z" transform="translate(-0.01 0.2)"/><path class="cls-9" d="M56.56,132.51a23.27,23.27,0,0,0-2.46-1.2A14,14,0,0,0,56.56,132.51Z" transform="translate(-0.01 0.2)"/><path class="cls-9" d="M63.13,136.32c.86.22,1.75.57,2.58.69-1.14-.42-2.28-.77-3.43-1.17a52.26,52.26,0,0,1-5.72-2.44c-1.06-.52-2-1.1-3-1.67s-1.87-1.11-2.72-1.69a2.31,2.31,0,0,0-1.49-.65c-.1,0-.31-.09-.32,0s.14.15.26.23A13.87,13.87,0,0,0,52,131.15a2.87,2.87,0,0,1,.48.28,27,27,0,0,0,3.46,2A36.22,36.22,0,0,0,59.23,135,35.71,35.71,0,0,0,63.13,136.32Z" transform="translate(-0.01 0.2)"/><path class="cls-9" d="M65.19,132.87a5.36,5.36,0,0,0,2.29.58C66.79,133,65.89,133.2,65.19,132.87Z" transform="translate(-0.01 0.2)"/><path class="cls-9" d="M66.38,131.94a.19.19,0,0,0,0,.18.42.42,0,0,0,.4.28c.14,0,.25-.16.4-.11l.09.17c0-.08.09-.18.06-.23S67,132,66.84,132,66.53,131.8,66.38,131.94Z" transform="translate(-0.01 0.2)"/><path class="cls-9" d="M111.89,34.8c-.16.21-2.28-1.69-6.93-4.38a46.42,46.42,0,0,0-7.5-3.74c-1.78-.67-3.83-1.23-7.94-2.35-3-.81-4.79-1.24-4.76-1.41a19,19,0,0,1,3.27.23,48.14,48.14,0,0,1,8.47,1.94,37.4,37.4,0,0,1,7.84,3.06C109,30.8,112.09,34.48,111.89,34.8Z" transform="translate(-0.01 0.2)"/><path class="cls-9" d="M119.72,116.36l-.32.26c-.8.59-1,1.84-2.16,2-.14,0,0,.21.08.31.28.21.13.37-.11.39a2,2,0,0,0-1,.64c-1.39,1.2-2.2,2.94-3.73,4a.71.71,0,0,0-.1.66c.19.24.51.13.76,0A4.29,4.29,0,0,0,115.2,122c.1-.39.2-.7.67-.8,1.49-.29,2.08-1.72,3.13-2.56a4.79,4.79,0,0,0,1-1.47.61.61,0,0,0-.23-.82Z" transform="translate(-0.01 0.2)"/><path class="cls-9" d="M113.41,118.49c-.84.69-1.51,1.53-2.3,2.19a12.25,12.25,0,0,0,4.5-3.33c.46-.26.58-.74.43-1.39-.64.18-.28,1-.58,1.39a5.48,5.48,0,0,0-1.11.48c0-.16-1.18.64-1,.64" transform="translate(-0.01 0.2)"/><path class="cls-9" d="M111.29,122.44c-.76.63-1.37,1.39-2.09,2a11,11,0,0,0,4.09-3c.41-.24.52-.67.38-1.26-.58.17-.25.91-.53,1.26a5.24,5.24,0,0,0-1,.44c0-.14-.8.86-.87.63" transform="translate(-0.01 0.2)"/><path class="cls-9" d="M75.29,25.14c-1-.66-2.08.77-4.73,1.12-.62.08-.71,0-3.63.26h-.61c-1,.68-2.24,1.53-2.13,1.74s1.26-.23,1.63-.36a53.75,53.75,0,0,1,9.94-2.24A1.38,1.38,0,0,0,75.29,25.14Z" transform="translate(-0.01 0.2)"/><path class="cls-9" d="M68.14,24.31h0A6.91,6.91,0,0,0,69.7,24a5.46,5.46,0,0,0,.77-.28,1.14,1.14,0,0,0-.58,0,13.55,13.55,0,0,1-1.88.36l.07.1Z" transform="translate(-0.01 0.2)"/><path class="cls-9" d="M69.5,25.11l-.18.13a24.36,24.36,0,0,0,3.19-.38,7.88,7.88,0,0,0,1.65-.44h-.38a2.76,2.76,0,0,0-.76.07c-.4.09-1.74.27-3.84.5" transform="translate(-0.01 0.2)"/><path class="cls-9" d="M32.64,51.56c-.14.34-.25.69-.41,1a27.92,27.92,0,0,0-3,12.77,15.26,15.26,0,0,1-.16,1.79,6,6,0,0,1-.23,1.1c-.44-6.14.42-11.86,3.59-16.82Z" transform="translate(-0.01 0.2)"/><path class="cls-9" d="M32.22,56c-.34,1.09-.74,2.15-1,3.27a12.54,12.54,0,0,0-.1,2.21c-.88-2.65.35-6.28,2.2-8.64l-.66,2.35Z" transform="translate(-0.01 0.2)"/><path class="cls-9" d="M113.81,34.87a16.36,16.36,0,0,0,2.16,2c.89.63,1.81,1.23,2.72,1.86a13.84,13.84,0,0,0-2.89-2.88,4.62,4.62,0,0,1-1.75-1.25c-.08-.13,0-.45-.33-.27S113.67,34.72,113.81,34.87Z" transform="translate(-0.01 0.2)"/><path class="cls-9" d="M108.89,35.8a34.58,34.58,0,0,0,4.59,2.41C112,37.32,111,35.8,108.89,35.8Z" transform="translate(-0.01 0.2)"/><path class="cls-9" d="M119.61,45c-.08-.35-.51-.54-1-.51a4.63,4.63,0,0,1,.48.68C119.37,45.59,119.69,45.32,119.61,45Z" transform="translate(-0.01 0.2)"/><path class="cls-9" d="M104.22,35.34c-.48-.28-.75-.6-1.2-.49a.25.25,0,0,0,0,.19C103.22,35.46,103.62,35.44,104.22,35.34Z" transform="translate(-0.01 0.2)"/><path class="cls-9" d="M123.68,117.8l3.9-4.25a2.27,2.27,0,0,1,.44-1.18l.43.23.25-.27,1.47-4.49-.22-.12.91-2,2.89-8.82h0l.88-2.67h0c.55-3,1.11-5.65,1.51-8.37a66.41,66.41,0,0,0,.29-9.25,48.42,48.42,0,0,0-.39-6.37c-1.06-9.06-5.51-16.81-9.54-24.72-.13-.26-.74-.27-1.53-.52.61,1.38,1.08,2.34,1.47,3.34,1.88,4.8,5.05,9.37,6.4,14.32a57.33,57.33,0,0,1,2,11.56c.18,2.79-.39,6.42,0,9.17.91,6.47-1.75,12.33-3.92,18.33-1.8,5-3.59,10-7.21,14.1a2,2,0,0,0,0,1.94Z" transform="translate(-0.01 0.2)"/></svg>