<?xml version="1.0" encoding="utf-8"?>
<!-- Generator: Adobe Illustrator 24.0.1, SVG Export Plug-In . SVG Version: 6.00 Build 0)  -->
<svg version="1.1" id="Layer_1" xmlns="http://www.w3.org/2000/svg" xmlns:xlink="http://www.w3.org/1999/xlink" x="0px" y="0px"
	 viewBox="0 0 160 148.4" style="enable-background:new 0 0 160 148.4;" xml:space="preserve">
<style type="text/css">
	.st0{fill:#9B9B9B;}
	.st1{font-family:'BravAda-Arma';}
	.st2{font-size:8.34px;}
	.st3{font-size:8.37px;}
	.st4{font-size:8.3851px;}
	.st5{font-size:8.3483px;}
	.st6{font-size:8.3922px;}
	.st7{font-size:8.4042px;}
	.st8{font-size:8.39px;}
	.st9{font-size:8.38px;}
	.st10{font-size:8.3775px;}
	.st11{font-size:8.35px;}
	.st12{font-size:8.3587px;}
	.st13{font-size:8.42px;}
	.st14{font-size:8.3667px;}
	.st15{enable-background:new    ;}
	.st16{font-size:21.61px;}
	.st17{font-size:21.6715px;}
</style>
<title>The-Wolf-Pack_ bw</title>
<text transform="matrix(0.2307 0.973 -0.973 0.2307 17.6005 95.94)" class="st0 st1 st2">R</text>
<text transform="matrix(0.3366 0.9416 -0.9416 0.3366 19.36 102.7301)" class="st0 st1 st3">E</text>
<text transform="matrix(0.4392 0.8984 -0.8984 0.4392 21.7893 109.0896)" class="st0 st1 st4">S</text>
<text transform="matrix(0.5408 0.8412 -0.8412 0.5408 25.0099 115.3405)" class="st0 st1 st5">P</text>
<text transform="matrix(0.6283 0.7779 -0.7779 0.6283 28.8902 121.1492)" class="st0 st1 st6">E</text>
<text transform="matrix(0.7071 0.7071 -0.7071 0.7071 33.2699 126.3704)" class="st0 st1 st7">C</text>
<text transform="matrix(0.7779 0.6284 -0.6284 0.7779 38.2102 131.1)" class="st0 st1 st8">T</text>
<text transform="matrix(0.9605 0.2783 -0.2783 0.9605 59.38 143.0401)" class="st0 st1 st3">R</text>
<text transform="matrix(0.9854 0.17 -0.17 0.9854 66.1301 144.84)" class="st0 st1 st3">E</text>
<text transform="matrix(0.9982 5.989229e-02 -5.989229e-02 0.9982 72.8993 145.8601)" class="st0 st1 st4">P</text>
<text transform="matrix(0.9988 -4.989569e-02 4.989569e-02 0.9988 79.86 146.14)" class="st0 st1 st9">R</text>
<text transform="matrix(0.9872 -0.1595 0.1595 0.9872 86.84 145.63)" class="st0 st1 st3">E</text>
<text transform="matrix(0.9634 -0.2682 0.2682 0.9634 93.57 144.4)" class="st0 st1 st3">S</text>
<text transform="matrix(0.9292 -0.3697 0.3697 0.9292 100.2696 142.3697)" class="st0 st1 st10">E</text>
<text transform="matrix(0.882 -0.4712 0.4712 0.882 106.5599 139.6799)" class="st0 st1 st11">N</text>
<text transform="matrix(0.8211 -0.5708 0.5708 0.8211 112.639 136.2297)" class="st0 st1 st12">T</text>
<text transform="matrix(0.5408 -0.8412 0.8412 0.5408 130.1302 119.3792)" class="st0 st1 st5">R</text>
<text transform="matrix(0.4473 -0.8944 0.8944 0.4473 133.8201 113.4095)" class="st0 st1 st13">O</text>
<text transform="matrix(0.3401 -0.9404 0.9404 0.3401 136.8099 107.0689)" class="st0 st1 st14">A</text>
<text transform="matrix(0.2311 -0.9729 0.9729 0.2311 139.1199 100.2496)" class="st0 st1 st3">R</text>
<path class="st0" d="M86.1,87.9c-0.5-1.7-1.4-2.4-3.1-2.4h-0.4c-0.4,0-0.8,0.1-1.3,0.2l0,0c-0.3,0-0.5,0.1-0.8,0.2
	c-0.8,0.2-1.6,0.2-2.4,0c-0.9-0.2-1.8-0.3-2.8-0.3c-1,0-2,0.6-2.3,1.6c-1.2,2.6-0.4,5.7,1.8,7.4c1.4,1.1,3.2,1.7,4.9,1.6
	c3.6,0,6.5-2.9,6.5-6.5c0,0,0,0,0,0C86.3,89.1,86.2,88.5,86.1,87.9z M76.9,93.9c-0.6,0.1-1.2-0.3-1.3-0.9c-0.2-0.9-0.7-1.6-1.4-2.2
	c-0.5-0.4-0.5-0.8,0.1-1.1c0.2-0.1,0.3-0.1,0.5,0c1.2,0.9,2.1,2,2.7,3.4C77.7,93.7,77.5,94,76.9,93.9L76.9,93.9z M84.7,90.7
	c-0.1,0.1-0.3,0.3-0.4,0.4c-0.5,0.4-0.9,0.9-1,1.6c-0.2,0.9-0.6,1.3-1.4,1.3c-0.5,0-0.7-0.2-0.6-0.7c0.1-0.2,0.1-0.5,0.3-0.7
	c0.8-0.9,1.5-1.8,2.3-2.8c0.3-0.3,0.5-0.3,0.9,0.1c0.2,0.2,0.3,0.5,0.1,0.7C84.8,90.7,84.8,90.7,84.7,90.7L84.7,90.7z"/>
<path class="st0" d="M41.3,43.4c1.3,0.3,2.6,0.4,3.8,0.8c4.4,1.1,8.8,2.2,13.2,3.5c2.9,0.8,5.9,0.7,8.8-0.2c3.9-1,7.9-1.6,11.8-2.4
	c0.5,0,0.9,0,1.4,0l0.2,0.3c-0.3,0.4-0.6,0.7-1,1c-1.8,1.3-4,2.2-6.2,2.5c-2.7,0.4-5.2,1.3-7.6,2.6c-1.5,0.9-2.7,2.1-3.6,3.5
	c-1.7,2.6-3,3-5.8,1.8l-0.5-0.2l-7.9-2.8c-0.2-0.1-0.5-0.2-0.6-0.4h11.2V53L47,50.4l6.8-0.5v-0.3c-1-0.2-2-0.4-3.1-0.4
	c-3.7,0.1-7.3-1.2-10-3.7c-0.1,0-0.2,0-0.4-0.1c0.1,0.5,0.2,1,0.4,1.4c0.7,1.7,1.5,3.4,2.2,5.1c0.9,2,1.6,3.9,1,6.1
	c-0.2,0.8,0.4,1.2,1,1.4c1.8,0.5,3.6,0.9,5.4,1.3c0.9,0.2,1.8,0.4,2.8,0.6c0.3,0.1,0.7,0.3,0.7,0.5c0,0.3-0.2,0.6-0.5,0.8
	c-2,0.7-4,1.5-6.1,2.1c-0.9,0.2-1.7,0.3-2.6,0.3c1.7,1.5,3.5,2.7,5.5,3.7h-3.7c-1.2,0-2.5-0.2-3.7-0.1s-2.5,0.3-3.9,0.4
	c0.7-0.5,1.5-0.9,2.1-1.4c0.3-0.2,0.7-0.6,0.8-0.9c0.3-2.4,1.1-4.4,3.8-5.5l-3-1c-0.8-0.2-1.3-0.9-1.3-1.7c-0.5-4-1.4-8-2.6-11.9
	c-0.7-2.3-0.7-2.3,1.4-3.2L41.3,43.4z"/>
<path class="st0" d="M118.5,43.4C118.5,43.5,118.5,43.5,118.5,43.4C118.6,43.5,118.6,43.5,118.5,43.4c1.9,0.6,2.2,0.8,1.4,3.1
	c-1.3,3.8-2.2,7.8-2.7,11.9c-0.1,1-0.8,1.8-1.7,2l-2.7,0.8c1.9,0.7,3.3,2.4,3.7,4.4c0,0.3,0.1,0.6,0.1,0.9c0.2,0.4,0.5,0.8,0.8,1.1
	c0.6,0.5,1.4,0.9,2,1.5c-3.8-1.1-7.6-0.1-11.1-0.4l5.2-3.4l-0.1-0.3c-0.8,0-1.6-0.1-2.3-0.3c-2-0.6-3.9-1.2-5.8-2
	c-0.3-0.1-0.6-0.6-0.8-0.9c0.3-0.2,0.6-0.4,1-0.6c1.9-0.4,3.8-0.7,5.7-1.1c0.8-0.2,1.5-0.4,2.3-0.7c0.6-0.2,1-0.8,0.8-1.4l0,0
	c-0.6-2,0.1-3.9,0.9-5.8c0.9-2,1.7-4.1,2.6-6.1c0-0.2,0-0.4,0-0.6c-3.4,4-8.5,4.7-13,6.8c2.3,1,4.7,0.8,6.9,1.1
	c-3.5,1.3-7.1,2.7-10.8,4c-1.2,0.5-2.7,0.2-3.5-0.9c-1.6-2-3.3-3.9-4.9-5.9c-0.7-0.9-0.5-1.4,0.6-1.7c0.7-0.2,1.3-0.1,2-0.2
	c1.4-0.2,2.9-0.3,4.3-0.7c5.3-1.3,10.6-2.7,15.9-4c0.6-0.2,1.2-0.2,1.9-0.3L118.5,43.4z"/>
<path class="st0" d="M62.9,88.5L62.9,88.5c0.1-0.1,0-0.3-0.1-0.4C62.8,88.2,62.8,88.3,62.9,88.5L62.9,88.5z"/>
<path class="st0" d="M78.1,133.2c-2-0.2-3.9-1-5.4-2.3c-2.4-2.3-3.7-5.4-3.7-8.7c-0.3-4-0.4-7.9-0.7-11.9c-0.2-2.6-0.3-5.2-1.4-7.6
	c-1.4-3.3-2.4-6.7-3.1-10.2c-0.2-1-0.5-2-0.7-3l-0.3-1.1l0,0c0-0.2,0-0.3-0.1-0.4c0.1,0.1,0.1,0.3,0.2,0.4c0.2,0.4,0.3,0.7,0.5,1.1
	l3.6,3.1l-0.5-2.4c-0.3-2.7,0.8-5,1.6-7.5c-2,0.3-4-0.4-5.5-1.7c-1.7-1.6-2.2-1.7-4.3-0.7c-0.3,0.2-0.6,0.3-0.9,0.5
	c-2.3,1.1-4.7,2.2-7.1,3.2c-0.8,0.2-1.7,0.4-2.5,0.5c0-0.1,0-0.2-0.1-0.3c3.5-1.7,6.8-3.8,9.9-6.3l-12.9,3c0-0.1-0.1-0.2-0.1-0.3
	l10-4.4v-0.2h-8.9c3.4-1.2,7-1.2,10.1-2.5c0.1-0.7,0.2-1.2,0.3-1.9c0.7,0.6,1.5,1.1,2.4,1.4c0.9,0.1,1.7,0.1,2.6,0
	c0,0.3,0,0.7-0.1,1c-0.1,2.7,2.4,5.2,4.9,4.6c1.8-0.5,2.5,0.4,3.5,1.3c0.1,0.1,0.2,0.1,0.3,0.2c1-0.6,1.6-1.6,1.8-2.7
	c-1.3-0.7-2.5-1.5-3.6-2.3c-1.3-1.1-2.7-2-4.3-2.6l-2.3-0.9l-7.9-3l1,1L44,70.3c0,0.1,0,0.2,0,0.3l6.1,1.1c0,0.1,0,0.2,0,0.3
	c-4.9,0.6-9.8,1-14.6,2.9l4.7,2.4l-0.1,0.3l-4.8,0.7l3.5,0.9v0.3l-3.5,1.2l3.4,1.3V82l-4,0.8l4,1.8l-3.6,1.2l3.4,1.8l-2.1,1.1
	c1,1.9,2.5,3.5,4.3,4.6c3.2,2,6.7,3.7,9.9,5.7c1.8,1.1,3.2,1.4,4.9-0.3c1.3-1.3,3.2-1.5,5-1.8c-0.8,0.7-1.7,1.3-2.5,1.9
	c-2.5,1.9-2.7,2.9-0.9,5.4l0.8,1.1l1,1.4l-0.2,0.2l-4.7-1.7c0.5,0.6,1.1,1.2,1.7,1.6c2.1,1.5,4.2,3,6.3,4.5c0.4,0.3,0.7,0.8,0.9,1.3
	c0.7,2.2,1.2,4.5,2,6.7c1.3,4,2.9,7.9,5.6,11.2c1.5,2.1,3.9,3.4,6.4,3.6c1,0.2,2.1-0.1,2.9-0.7C79.2,133.4,78.7,133.3,78.1,133.2z
	 M65.1,73.9c0.2,0.6,0.2,1.1,0.5,1.2s0.8-0.1,1.4-0.2c0.7,0.4,0.8,0.8,0,1.6c-0.6,0.6-1.6,0.8-2.3,0.4c-0.8-0.3-1.2-1.1-1.2-1.9
	C63.5,73.6,63.9,73.4,65.1,73.9L65.1,73.9z"/>
<path class="st0" d="M66.1,94l1.3,1.6c0.9,1.2,2.2,2,3.6,2.2c0.9,0.2,1.8,0.7,2.7,0.9c1.2,0.3,2.5,0.5,3.7,0.6c1.3,0.1,2.7,0.1,4,0
	c1.3-0.1,2.6-0.3,3.8-0.6c0.7-0.3,1.4-0.6,2.2-0.8c2.3-0.2,3.7-1.7,4.9-3.4c0.1-0.2,0.3-0.4,0.6-0.4c-0.5,1.7-1,3.4-1.4,5.1
	c-0.8,2.9-1.6,5.8-2.1,8.7c-0.2,1.7-0.3,3.3-0.2,5c0.1,3.4-0.2,6.9-1,10.2c-0.7,2.5-1.7,4.7-4.3,5.8c-2.9,1.2-6.1,1.2-9,0
	c-1.6-0.7-2.8-2-3.4-3.6c-0.9-2.2-1.5-4.6-1.6-7c-0.2-2.4-0.3-4.8-0.2-7.3c0-3.4-0.5-6.8-1.7-10c-0.8-2.3-1.4-4.6-2.1-6.9L66.1,94z
	 M79.4,109.9h-0.1v-1c-0.1-2.3-0.3-2.5-2.6-3c-1.5-0.5-3.1,0.4-3.6,1.9c0,0,0,0,0,0c0,0,0,0.1,0,0.1c-0.4,1.4-0.7,2.8-0.8,4.2
	c-0.1,2.2,0.9,3.7,3.1,3.9c2.7,0.3,5.4,0.3,8.1,0c1.7-0.1,3-1.5,3-3.2c0-0.1,0-0.2,0-0.3c-0.1-1.7-0.4-3.4-0.9-5
	c-0.5-1.4-2-2.1-3.4-1.7c-0.5,0.1-1,0.3-1.5,0.4c-0.7,0.1-1.2,0.7-1.1,1.4c0,0,0,0,0,0l0,0C79.6,108.4,79.5,109.2,79.4,109.9z
	 M89.6,98.5c-1.6-0.4-2.7,0.4-3.9,1c-2.9,1.6-6.4,1.9-9.6,1c-1.2-0.3-2.4-0.7-3.4-1.3c-0.8-0.5-1.7-0.8-2.6-0.9
	c-0.7,0-1,0.2-0.9,0.9c0.1,1.6,0.4,3.3,0.7,4.9c0.6,1.7,1.3,3.3,2.1,4.9l0.4-0.1c-0.3-2.5-0.2-5,0.5-7.4c0.5,0.5,0.9,1.1,1.4,1.2
	c0.3,0.1,0.8-0.5,1.3-0.9c1.8,1.7,2.2,1.8,3.7,0.1c0.7,0.3,0.7,1.7,1.8,1.1c0.7-0.3,1.4-0.8,1.9-1.1c0.6,0.3,1.1,0.8,1.5,0.7
	c0.6-0.4,1.1-0.8,1.6-1.3l0.4,7.6C88.7,105.9,89.8,102.2,89.6,98.5L89.6,98.5z M82.9,125.4c-0.6-0.2-1.4-0.2-1.9,0.2
	c-1,0.3-2.1,0.3-3.2,0.1c-0.6-0.1-1.3-0.3-1.9-0.6l0.2-1c0.3-0.1,0.7-0.3,0.7-0.5c0-0.6-0.2-1.2-0.5-1.7c-0.6-0.5-1.4-0.6-2.1-0.2
	l0.6,1c-1.9-0.9-2.5-2.6-3.1-4.4c-1,1.4-0.7,6,0.5,7.2c0.5,0.6,1.2,0.9,1.9,0.7c0.5,0.3,1.1,0.6,1.6,0.8c0.2,0.1,0.4,0.2,0.6,0.3
	c0.7,0.6,1.6,0.7,2.4,0.3c0.4-0.1,0.8-0.1,1.2,0c0.8,0.4,1.8,0.2,2.5-0.4c0.1-0.1,0.3-0.2,0.4-0.2c0.6,0.2,1.3-0.1,1.5-0.7
	c0,0,0-0.1,0-0.2c1.4,0.2,2.4-0.3,2.7-1.7c0.3-1.7,0.4-3.3,0.4-5c0-0.4-0.1-0.7-0.3-1.1H87c-0.5,1.8-1.1,3.4-3,4.3l0.5-1
	c-1.4-0.4-2.4-0.1-2.5,0.9c-0.1,0.6-0.4,1.5,0.7,1.6L82.9,125.4z"/>
<path class="st0" d="M89.1,70.3c3.4-3.7,7.3-6.8,12.2-8l0.3,0.3l-3.9,6l0.1,0.2l4.3-1.3l0.1,0.3l-6.6,2.6l-0.2-0.3l2.1-3.4l-0.2-0.2
	c-0.9,0.5-1.8,1.1-2.6,1.8c-1.4,1.4-2.7,3-4,4.5c-0.6,0.7-1.1,1.4-1.8,2c-1.2,1.2-2.3,1.1-3.5-0.1l-0.5-0.5
	c-1.8,1.5-4.7,6.6-4.5,7.9c1.8-0.6,2.9-2.2,4.6-3.5l-2.8,3.9c0.9,0.3,0.9,0.3,3.3-1c-1.2,2-2,2.3-4.3,1.9c-1.1-0.2-2.3-0.2-3.4,0
	c-2.4,0.5-3,0.3-4.3-1.7l3,1.3l0.2-0.3L74,78.9c1.2,1,2.2,1.9,3.1,2.7c0.2,0.2,0.5,0.4,0.9,0.5c0.2,0,0.4-0.3,0.6-0.4s0-0.3-0.1-0.4
	c-1.2-2.5-2.7-4.8-4.4-6.9c-0.2,0.1-0.3,0.1-0.3,0.1c-1.7,2.1-3.1,1.4-4.6-0.3s-2.8-3.4-4.3-5c-0.9-1.1-2.2-1.9-3.6-2.3l2.1,3.3
	c-2.6-0.4-5-1.4-7.2-2.9c1.5,0.4,3,0.9,4.5,1.3c0.1,0,0.2,0,0.3-0.1l-3.9-6.1l0.3-0.3c5,1.2,8.8,4.3,12.3,8l-2.9-0.7
	c1.2,1.5,2.7,2.8,4.4,3.7c1.3,0.6,1.9,0.1,1.8-1.3c-0.2-1.7-0.8-3.3-1.9-4.7c-0.7-0.9-1.2-1.9-1.7-3c1.8,1.6,3.6,3,5.2,4.7
	c1.3,1.3,1.2,2,0.3,3.5c-0.1,0.3-0.1,0.5,0,0.8c0.7,1.2,1.5,2.5,2.3,3.7c0.2,0.3,0.6,0.3,0.9,0.5c0.2-0.3,0.3-0.6,0.4-0.9
	c0.2-2,0.4-3.9,0.7-6.2c0.2,1.9,0.3,3.5,0.5,5.2c0.1,0.6,0.3,1.2,0.6,1.8c0.5-0.3,0.9-0.7,1.3-1.2c0.6-0.9,1.3-1.9,1.8-2.9
	c0.1-0.3,0.1-0.6,0-0.9c-0.8-1.3-0.8-2.2,0.2-3.4c1-1,2.1-2,3.2-2.9c0.8-0.7,1.6-1.3,2.4-1.8c-0.7,1-1.3,1.9-1.9,2.9
	c-1.1,1.4-1.7,3.1-1.9,4.8c0,1.4,0.6,1.8,1.8,1.2c1.7-0.8,3.1-2.1,4.1-3.7L89.1,70.3z"/>
<path class="st0" d="M69.8,59.9c2.4,1.5,4.8,2.9,7.2,4.4c0.5,0.3,0.9,0.6,1.5,0.2c0.5-0.5,1.3-0.5,1.8,0c0.6,0.4,1,0.2,1.5-0.1
	c2.3-1.5,4.6-2.9,6.9-4.3l0.2,0.3c-0.9,0.7-1.9,1.3-2.8,2c-1.5,1.1-2.9,2.3-4.2,3.6c-0.8,0.8-1.3,0.7-2,0c-0.2-0.2-0.3-0.3-0.5-0.4
	c-1.7,1.2-1.6,1.1-3.3-0.3c-2.1-1.8-4.3-3.4-6.4-5.1L69.8,59.9z"/>
<polygon class="st0" points="63.4,89.5 63.4,89.5 63.4,89.5 63.4,89.5 "/>
<polygon class="st0" points="58.3,91.5 58.3,91.5 58.3,91.5 58.3,91.5 58.3,91.5 "/>
<polygon class="st0" points="58.3,91.5 58.3,91.5 58.3,91.5 58.3,91.5 58.3,91.5 "/>
<path class="st0" d="M61.8,88.5"/>
<path class="st0" d="M62.9,88.5c0.1,0.3,0.2,0.7,0.2,1.1L62.9,88.5L62.9,88.5z"/>
<polygon class="st0" points="63.4,89.5 63.4,89.5 63.4,89.5 63.4,89.5 "/>
<path class="st0" d="M119.9,84.8c0-0.1,0-0.2,0-0.2l3.7-1.6l-4-0.9v-0.3l3.4-1.2l-3.5-1.2v-0.2l3.5-0.9l-4.8-0.7v-0.3l4.7-2.4
	c-4.9-1.9-9.8-2.3-14.7-2.9v-0.3l6.1-1.1v-0.3l-10.3-0.7l0.9-1c-3.7,1.4-7.3,2.8-10.9,4.2c-0.9,0.3-1.6,0.8-2.4,1.4
	c-1.5,1.2-2.8,2.5-4.8,2.9c0.1,1.4,0.9,2.6,2.1,3.2c0.4-0.5,0.8-0.9,1.1-1.4s0.9-0.6,1.5-0.4c0.8,0.2,1.7,0.2,2.6,0
	c2.2-0.7,3.2-2.3,3.2-5.4c1.8,0.4,3.6-0.3,4.7-1.6l0.2,0.2c0.1,0.6,0.1,1.1,0.2,1.9l10.1,2.1V76h-9l10.1,4.5l-0.1,0.3l-12.5-3
	l-0.2,0.3l9.7,6.2c0,0.1-0.1,0.2-0.1,0.3c-1.7-0.4-3.3-0.9-4.9-1.5c-1.9-0.8-3.7-1.8-5.5-2.8c-2.1-1.1-2.6-1-4.3,0.6
	c-1.2,1.1-2.7,1.7-4.3,1.7h-1.2c0.1,0.2,0.1,0.4,0.2,0.7l0,0c0.1,0.5,0.4,1.5,0.6,2.6c0.3,1.3,0.4,2.5,0.4,3.8
	c-0.1,1-0.2,1.9-0.5,2.8l4.6-5.1L94.9,93c-0.3,1.2-0.9,3.2-1.2,4.4c-0.2,0.8-0.5,1.6-0.8,2.3c-0.3,0.8-0.6,1.5-1.2,2.9
	c-0.7,1.6-1.1,3.3-1.2,5.1c-0.4,4.7-0.6,9.4-0.8,14.1c-0.1,3.2-1.2,6.3-3.3,8.8c-0.5,0.6-0.9,1.3-1.4,1.9l0.2,0.2
	c0.5-0.2,0.9-0.5,1.3-0.8c1.1-1.1,2.1-2.3,3.1-3.6c2.4-3.7,4-7.8,4.9-12.1c0.5-3.1,2.5-5.8,5.3-7.3c1.7-1.1,3.3-2.3,4.8-3.6
	l-0.1-0.2l-5.1,1.8c1-1.5,1.9-2.8,2.6-4c0.8-0.9,0.6-2.3-0.3-3.1l-0.3-0.2c-1-0.8-2-1.5-3.1-2.3c-0.2-0.1-0.4-0.2-0.6-0.3
	c0.1-0.1,0.2-0.2,0.3-0.3c2.4,0.4,4.6,1.4,6.4,2.9c0.4,0.5,1.1,0.5,1.5,0.1c0,0,0,0,0,0l0,0c0.9-0.6,1.9-1,2.8-1.5
	c3.2-1.8,6.4-3.6,9.5-5.6c1.6-1,2.9-2.5,3.7-4.2l-2.1-1.2l3.3-1.8L119.9,84.8z M95,75.3c-0.2,0.7-0.7,1.2-1.3,1.6
	c-0.8,0.4-1.7,0.2-2.2-0.5c-0.7-0.7-0.7-1,0.1-1.6c0.6,0.2,1,0.4,1.3,0.3s0.3-0.7,0.5-1L93.2,74c0.5-0.1,1.2-0.4,1.3-0.3
	C94.9,74.1,95.1,74.7,95,75.3L95,75.3z"/>
<path class="st0" d="M44.6,124.4c-1.7-1.5-3.2-3.1-4.7-4.8c-0.3-0.3,0,0-1.6-1.9c-3.1-3.6-3.2-3.6-3.5-4.3c-0.8-1.3-0.8-1.9-1.8-3.6
	c-0.3-0.4-0.5-0.8-0.7-1.2c-0.3-0.7-0.6-1.5-0.8-2.2c-0.1-0.3-0.2-0.6-0.3-0.9s-0.5-1.1-0.6-1.1c0.1,1.3,0.4,2.6,1,3.8
	c0.3,0.9,0.4,0.9,1.5,3.1c1.5,3.1,1.4,3.3,2.1,4.2c0.3,0.4,0.9,1.1,2,2.5c0.8,1,1.3,1.6,2,2.3c1.3,1.4,1.5,1.4,2.8,2.7
	c0,0,3.5,3.7,5.2,4.4c0.1,0.1,0.2,0.1,0.4,0.1c0.1,0,0.2,0,0.2-0.2c0-0.2-0.1-0.3-0.2-0.4C46.4,126.2,45.5,125.1,44.6,124.4z"/>
<path class="st0" d="M39.7,40.4c0.1,0,0.3-0.3,0.3-0.4c0.2-1,1-1.2,1.5-1.7c1.3-1.1,2.4-2.5,3.8-3.5c3.2-2.2,6.4-4.4,10.1-5.3
	c0.8-0.2,1.4-1.3,2.5-0.4c0.2,0.2,0.6-0.2,0.5-0.6c-0.1-0.4-0.1-0.8,0-1.2l1.9-0.3c-0.6,0-1.2,0-1.8,0.1c0.2-0.4,0.6-0.7,1.1-0.8
	c-0.4-0.4-0.7-0.4-1-0.2c-0.7,0.4-1.4,0.8-2.1,1.1c-0.8,0.1-1.5,0.2-2.3,0.4h-0.2c-0.2,0-0.4,0.1-0.5,0.2c-0.7,0.2-1.4,0.5-2.1,0.8
	c-0.6-0.1-1.3,0.3-1.6,0.9c-0.3,0.2-0.7,0.4-1,0.7c0.3-0.1,0.6-0.3,0.8-0.4c0,0.1-0.1,0.3-0.1,0.5c-0.1,0.7-0.6,1.2-1.2,1.4
	c-0.5,0.2-0.9,0.5-1.3,0.8c-0.8,0.6-1.7,1.1-2.6,1.5c-1.6,0.6-2.9,1.5-4,2.8c-0.4,0.5-1.2,0.5-1.4,1.3c-0.4,1.3-1.2,2.5-2.2,3.4
	c-0.2,0.3-0.4,0.6-0.4,1C37.6,42,38.2,40.2,39.7,40.4z"/>
<path class="st0" d="M101.7,134.3c0.1,0.3,0.3,0.1,0.4,0.1c2-0.6,4-1.4,5.8-2.4c1-0.6,2-1.3,3-2c2-1.4,3.8-2.9,5.5-4.7
	c-0.2,0-0.4,0.1-0.6,0.2c-1.4,1-2.7,2.3-4.1,3.2c-0.4,0.2-0.8,0.5-1.2,0.8c-2.4,2.1-5.3,3.7-8.5,4.5C102,134,101.6,134,101.7,134.3z
	"/>
<path class="st0" d="M79.5,22c-1.3,0.4-2.5,0.7-3.9,1.1c0.8-0.1,1.4,0.3,1.9-0.1c0.8-0.5,1-0.1,1.1,0.6c0,0.2,0,0.5,0.3,0.4
	c0.7-0.1,1.4-0.4,1.9-0.8c0.1-0.1,0.3-0.2,0.2-0.4C80.7,22.2,80.1,21.9,79.5,22z"/>
<path class="st0" d="M59.2,134.2c1.4,0.8,2.9,1.5,4.4,2c-0.9-0.4-1.7-0.8-2.6-1.3C60.5,134.6,59.9,134.3,59.2,134.2z"/>
<path class="st0" d="M56.6,132.7c-0.8-0.4-1.6-0.8-2.5-1.2C54.9,132,55.7,132.4,56.6,132.7z"/>
<path class="st0" d="M63.1,136.5c0.9,0.2,1.8,0.6,2.6,0.7c-1.1-0.4-2.3-0.8-3.4-1.2c-2-0.7-3.9-1.5-5.7-2.4c-1.1-0.5-2-1.1-3-1.7
	s-1.9-1.1-2.7-1.7c-0.4-0.4-0.9-0.6-1.5-0.6c-0.1,0-0.3-0.1-0.3,0s0.1,0.1,0.3,0.2c0.8,0.6,1.8,1.1,2.7,1.5c0.2,0.1,0.3,0.2,0.5,0.3
	c1.1,0.8,2.3,1.4,3.5,2c1.1,0.6,2.2,1.1,3.3,1.6C60.5,135.7,61.8,136.2,63.1,136.5z"/>
<path class="st0" d="M65.2,133.1c0.7,0.4,1.5,0.6,2.3,0.6C66.8,133.2,65.9,133.4,65.2,133.1z"/>
<path class="st0" d="M66.4,132.1c0,0.1,0,0.1,0,0.2c0.1,0.2,0.2,0.3,0.4,0.3c0.1,0,0.3-0.2,0.4-0.1l0.1,0.2c0-0.1,0.1-0.2,0.1-0.2
	s-0.3-0.2-0.5-0.2S66.5,132,66.4,132.1z"/>
<path class="st0" d="M111.9,35c-0.2,0.2-2.3-1.7-6.9-4.4c-2.4-1.5-4.9-2.7-7.5-3.7c-1.8-0.7-3.8-1.2-7.9-2.4c-3-0.8-4.8-1.2-4.8-1.4
	c1.1,0,2.2,0.1,3.3,0.2c2.9,0.4,5.7,1,8.5,1.9c2.7,0.7,5.4,1.7,7.8,3.1C109,31,112.1,34.7,111.9,35z"/>
<path class="st0" d="M119.7,116.6l-0.3,0.3c-0.8,0.6-1,1.8-2.2,2c-0.1,0,0,0.2,0.1,0.3c0.3,0.2,0.1,0.4-0.1,0.4
	c-0.4,0.1-0.7,0.3-1,0.6c-1.4,1.2-2.2,2.9-3.7,4c-0.1,0.2-0.2,0.4-0.1,0.7c0.2,0.2,0.5,0.1,0.8,0c1-0.6,1.8-1.5,2.1-2.6
	c0.1-0.4,0.2-0.7,0.7-0.8c1.5-0.3,2.1-1.7,3.1-2.6c0.4-0.4,0.8-0.9,1-1.5C120.1,117.1,120,116.7,119.7,116.6L119.7,116.6z"/>
<path class="st0" d="M113.4,118.7c-0.8,0.7-1.5,1.5-2.3,2.2c1.7-0.7,3.3-1.9,4.5-3.3c0.5-0.3,0.6-0.7,0.4-1.4
	c-0.6,0.2-0.3,1-0.6,1.4c-0.4,0.1-0.8,0.3-1.1,0.5C114.3,117.9,113.2,118.7,113.4,118.7"/>
<path class="st0" d="M111.3,122.6c-0.8,0.6-1.4,1.4-2.1,2c1.6-0.7,3-1.7,4.1-3c0.4-0.2,0.5-0.7,0.4-1.3c-0.6,0.2-0.3,0.9-0.5,1.3
	c-0.3,0.1-0.7,0.3-1,0.4C112.1,121.9,111.3,122.9,111.3,122.6"/>
<path class="st0" d="M75.3,25.3c-1-0.7-2.1,0.8-4.7,1.1c-0.6,0.1-0.7,0-3.6,0.3h-0.6c-1,0.7-2.2,1.5-2.1,1.7s1.3-0.2,1.6-0.4
	c3.2-1.1,6.6-1.8,9.9-2.2C75.6,25.6,75.5,25.5,75.3,25.3z"/>
<path class="st0" d="M68.1,24.5L68.1,24.5c0.5,0,1.1-0.1,1.6-0.3c0.3-0.1,0.5-0.2,0.8-0.3c-0.2-0.1-0.4-0.1-0.6,0
	c-0.6,0.2-1.2,0.3-1.9,0.4l0.1,0.1L68.1,24.5z"/>
<path class="st0" d="M69.5,25.3l-0.2,0.1c1.1-0.1,2.1-0.2,3.2-0.4c0.6-0.1,1.1-0.2,1.7-0.4h-0.4c-0.3,0-0.5,0-0.8,0.1
	c-0.4,0.1-1.7,0.3-3.8,0.5"/>
<path class="st0" d="M32.6,51.8c-0.1,0.3-0.3,0.7-0.4,1c-2,4-3,8.3-3,12.8c0,0.6-0.1,1.2-0.2,1.8c0,0.4-0.1,0.7-0.2,1.1
	c-0.4-6.1,0.4-11.9,3.6-16.8L32.6,51.8z"/>
<path class="st0" d="M32.2,56.2c-0.3,1.1-0.7,2.2-1,3.3c-0.1,0.7-0.1,1.5-0.1,2.2c-0.9-2.7,0.4-6.3,2.2-8.6l-0.7,2.3L32.2,56.2z"/>
<path class="st0" d="M113.8,35.1c0.7,0.7,1.4,1.4,2.2,2c0.9,0.6,1.8,1.2,2.7,1.9c-0.8-1.1-1.8-2.1-2.9-2.9c-0.7-0.3-1.3-0.7-1.8-1.3
	c-0.1-0.1,0-0.5-0.3-0.3S113.7,34.9,113.8,35.1z"/>
<path class="st0" d="M108.9,36c1.5,0.9,3,1.7,4.6,2.4C112,37.5,111,36,108.9,36z"/>
<path class="st0" d="M119.6,45.2c-0.1-0.3-0.5-0.5-1-0.5c0.2,0.2,0.3,0.4,0.5,0.7C119.4,45.8,119.7,45.5,119.6,45.2z"/>
<path class="st0" d="M104.2,35.5c-0.5-0.3-0.8-0.6-1.2-0.5c0,0.1,0,0.1,0,0.2C103.2,35.7,103.6,35.6,104.2,35.5z"/>
<path class="st0" d="M123.7,118l3.9-4.3c0-0.4,0.2-0.8,0.4-1.2l0.4,0.2l0.3-0.3l1.5-4.5l-0.2-0.1l0.9-2l2.9-8.8l0,0l0.9-2.7l0,0
	c0.6-3,1.1-5.7,1.5-8.4c0.3-3.1,0.4-6.2,0.3-9.3c0-2.1-0.1-4.3-0.4-6.4c-1.1-9.1-5.5-16.8-9.5-24.7c-0.1-0.3-0.7-0.3-1.5-0.5
	c0.6,1.4,1.1,2.3,1.5,3.3c1.9,4.8,5.1,9.4,6.4,14.3c1.1,3.8,1.7,7.6,2,11.6c0.2,2.8-0.4,6.4,0,9.2c0.9,6.5-1.8,12.3-3.9,18.3
	c-1.8,5-3.6,10-7.2,14.1C123.4,116.6,123.4,117.4,123.7,118L123.7,118z"/>
<g class="st15">
	<path class="st0" d="M22.9,70.8L14.2,69l-0.6,3l-2.3-0.5l2.2-10.2l1.3,5l-0.1,0.4l13.2,2.8L22.9,70.8z"/>
</g>
<g class="st15">
	<path class="st0" d="M15.4,55.6l1-2.1l3.5,1.7l2.2-4.5l-8.7-4.1l5.2-0.1l10.1,4.8l-1,2.1l-3.5-1.7L22,56.2l4.5,2.2l3.2,4.1
		L15.4,55.6z"/>
</g>
<g class="st15">
	<path class="st0" d="M30.9,47.4L23.2,41l6.7-8L28.7,38l-2.2,2.7l1.2,1l5.2-6.2l-1.2,5.1l-2.2,2.7l1.2,1l2.2-2.7l4.7-2.1L30.9,47.4z
		"/>
</g>
<text transform="matrix(0.8972 -0.4417 0.4417 0.8972 47.0899 31.1199)" class="st0 st1 st16">W</text>
<text transform="matrix(0.9839 -0.1785 0.1785 0.9839 63.7 23.73)" class="st0 st1 st16">O</text>
<text transform="matrix(0.9981 6.087433e-02 -6.087433e-02 0.9981 78.01 21.57)" class="st0 st1 st16">L</text>
<text transform="matrix(0.955 0.2967 -0.2967 0.955 92.04 22.8099)" class="st0 st1 st16">F</text>
<text transform="matrix(0.7658 0.6431 -0.6431 0.7658 113.2598 31.9399)" class="st0 st1 st16">P</text>
<text transform="matrix(0.6 0.8 -0.8 0.6 123.1196 40.45)" class="st0 st1 st16">A</text>
<text transform="matrix(0.3927 0.9197 -0.9197 0.3927 131.7303 52.5301)" class="st0 st1 st16">C</text>
<text transform="matrix(0.1595 0.9872 -0.9872 0.1595 136.8899 65.6505)" class="st0 st1 st17">K</text>
<path class="st0" d="M86.1,87.9c-0.5-1.7-1.4-2.4-3.1-2.4h-0.4c-0.4,0-0.8,0.1-1.3,0.2l0,0c-0.3,0-0.5,0.1-0.8,0.2
	c-0.8,0.2-1.6,0.2-2.4,0c-0.9-0.2-1.8-0.3-2.8-0.3c-1,0-2,0.6-2.3,1.6c-1.2,2.6-0.4,5.7,1.8,7.4c1.4,1.1,3.2,1.7,4.9,1.6
	c3.6,0,6.5-2.9,6.5-6.5c0,0,0,0,0,0C86.3,89.1,86.2,88.5,86.1,87.9z M76.9,93.9c-0.6,0.1-1.2-0.3-1.3-0.9c-0.2-0.9-0.7-1.6-1.4-2.2
	c-0.5-0.4-0.5-0.8,0.1-1.1c0.2-0.1,0.3-0.1,0.5,0c1.2,0.9,2.1,2,2.7,3.4C77.7,93.7,77.5,94,76.9,93.9L76.9,93.9z M84.7,90.7
	c-0.1,0.1-0.3,0.3-0.4,0.4c-0.5,0.4-0.9,0.9-1,1.6c-0.2,0.9-0.6,1.3-1.4,1.3c-0.5,0-0.7-0.2-0.6-0.7c0.1-0.2,0.1-0.5,0.3-0.7
	c0.8-0.9,1.5-1.8,2.3-2.8c0.3-0.3,0.5-0.3,0.9,0.1c0.2,0.2,0.3,0.5,0.1,0.7C84.8,90.7,84.8,90.7,84.7,90.7L84.7,90.7z"/>
<path class="st0" d="M41.3,43.4c1.3,0.3,2.6,0.4,3.8,0.8c4.4,1.1,8.8,2.2,13.2,3.5c2.9,0.8,5.9,0.7,8.8-0.2c3.9-1,7.9-1.6,11.8-2.4
	c0.5,0,0.9,0,1.4,0l0.2,0.3c-0.3,0.4-0.6,0.7-1,1c-1.8,1.3-4,2.2-6.2,2.5c-2.7,0.4-5.2,1.3-7.6,2.6c-1.5,0.9-2.7,2.1-3.6,3.5
	c-1.7,2.6-3,3-5.8,1.8l-0.5-0.2l-7.9-2.8c-0.2-0.1-0.5-0.2-0.6-0.4h11.2V53L47,50.4l6.8-0.5v-0.3c-1-0.2-2-0.4-3.1-0.4
	c-3.7,0.1-7.3-1.2-10-3.7c-0.1,0-0.2,0-0.4-0.1c0.1,0.5,0.2,1,0.4,1.4c0.7,1.7,1.5,3.4,2.2,5.1c0.9,2,1.6,3.9,1,6.1
	c-0.2,0.8,0.4,1.2,1,1.4c1.8,0.5,3.6,0.9,5.4,1.3c0.9,0.2,1.8,0.4,2.8,0.6c0.3,0.1,0.7,0.3,0.7,0.5c0,0.3-0.2,0.6-0.5,0.8
	c-2,0.7-4,1.5-6.1,2.1c-0.9,0.2-1.7,0.3-2.6,0.3c1.7,1.5,3.5,2.7,5.5,3.7h-3.7c-1.2,0-2.5-0.2-3.7-0.1s-2.5,0.3-3.9,0.4
	c0.7-0.5,1.5-0.9,2.1-1.4c0.3-0.2,0.7-0.6,0.8-0.9c0.3-2.4,1.1-4.4,3.8-5.5l-3-1c-0.8-0.2-1.3-0.9-1.3-1.7c-0.5-4-1.4-8-2.6-11.9
	c-0.7-2.3-0.7-2.3,1.4-3.2L41.3,43.4z"/>
<path class="st0" d="M118.5,43.4C118.5,43.5,118.5,43.5,118.5,43.4C118.6,43.5,118.6,43.5,118.5,43.4c1.9,0.6,2.2,0.8,1.4,3.1
	c-1.3,3.8-2.2,7.8-2.7,11.9c-0.1,1-0.8,1.8-1.7,2l-2.7,0.8c1.9,0.7,3.3,2.4,3.7,4.4c0,0.3,0.1,0.6,0.1,0.9c0.2,0.4,0.5,0.8,0.8,1.1
	c0.6,0.5,1.4,0.9,2,1.5c-3.8-1.1-7.6-0.1-11.1-0.4l5.2-3.4l-0.1-0.3c-0.8,0-1.6-0.1-2.3-0.3c-2-0.6-3.9-1.2-5.8-2
	c-0.3-0.1-0.6-0.6-0.8-0.9c0.3-0.2,0.6-0.4,1-0.6c1.9-0.4,3.8-0.7,5.7-1.1c0.8-0.2,1.5-0.4,2.3-0.7c0.6-0.2,1-0.8,0.8-1.4l0,0
	c-0.6-2,0.1-3.9,0.9-5.8c0.9-2,1.7-4.1,2.6-6.1c0-0.2,0-0.4,0-0.6c-3.4,4-8.5,4.7-13,6.8c2.3,1,4.7,0.8,6.9,1.1
	c-3.5,1.3-7.1,2.7-10.8,4c-1.2,0.5-2.7,0.2-3.5-0.9c-1.6-2-3.3-3.9-4.9-5.9c-0.7-0.9-0.5-1.4,0.6-1.7c0.7-0.2,1.3-0.1,2-0.2
	c1.4-0.2,2.9-0.3,4.3-0.7c5.3-1.3,10.6-2.7,15.9-4c0.6-0.2,1.2-0.2,1.9-0.3L118.5,43.4z"/>
<path class="st0" d="M62.9,88.5L62.9,88.5c0.1-0.1,0-0.3-0.1-0.4C62.8,88.2,62.8,88.3,62.9,88.5L62.9,88.5z"/>
<path class="st0" d="M78.1,133.2c-2-0.2-3.9-1-5.4-2.3c-2.4-2.3-3.7-5.4-3.7-8.7c-0.3-4-0.4-7.9-0.7-11.9c-0.2-2.6-0.3-5.2-1.4-7.6
	c-1.4-3.3-2.4-6.7-3.1-10.2c-0.2-1-0.5-2-0.7-3l-0.3-1.1l0,0c0-0.2,0-0.3-0.1-0.4c0.1,0.1,0.1,0.3,0.2,0.4c0.2,0.4,0.3,0.7,0.5,1.1
	l3.6,3.1l-0.5-2.4c-0.3-2.7,0.8-5,1.6-7.5c-2,0.3-4-0.4-5.5-1.7c-1.7-1.6-2.2-1.7-4.3-0.7c-0.3,0.2-0.6,0.3-0.9,0.5
	c-2.3,1.1-4.7,2.2-7.1,3.2c-0.8,0.2-1.7,0.4-2.5,0.5c0-0.1,0-0.2-0.1-0.3c3.5-1.7,6.8-3.8,9.9-6.3l-12.9,3c0-0.1-0.1-0.2-0.1-0.3
	l10-4.4v-0.2h-8.9c3.4-1.2,7-1.2,10.1-2.5c0.1-0.7,0.2-1.2,0.3-1.9c0.7,0.6,1.5,1.1,2.4,1.4c0.9,0.1,1.7,0.1,2.6,0
	c0,0.3,0,0.7-0.1,1c-0.1,2.7,2.4,5.2,4.9,4.6c1.8-0.5,2.5,0.4,3.5,1.3c0.1,0.1,0.2,0.1,0.3,0.2c1-0.6,1.6-1.6,1.8-2.7
	c-1.3-0.7-2.5-1.5-3.6-2.3c-1.3-1.1-2.7-2-4.3-2.6l-2.3-0.9l-7.9-3l1,1L44,70.3c0,0.1,0,0.2,0,0.3l6.1,1.1c0,0.1,0,0.2,0,0.3
	c-4.9,0.6-9.8,1-14.6,2.9l4.7,2.4l-0.1,0.3l-4.8,0.7l3.5,0.9v0.3l-3.5,1.2l3.4,1.3V82l-4,0.8l4,1.8l-3.6,1.2l3.4,1.8l-2.1,1.1
	c1,1.9,2.5,3.5,4.3,4.6c3.2,2,6.7,3.7,9.9,5.7c1.8,1.1,3.2,1.4,4.9-0.3c1.3-1.3,3.2-1.5,5-1.8c-0.8,0.7-1.7,1.3-2.5,1.9
	c-2.5,1.9-2.7,2.9-0.9,5.4l0.8,1.1l1,1.4l-0.2,0.2l-4.7-1.7c0.5,0.6,1.1,1.2,1.7,1.6c2.1,1.5,4.2,3,6.3,4.5c0.4,0.3,0.7,0.8,0.9,1.3
	c0.7,2.2,1.2,4.5,2,6.7c1.3,4,2.9,7.9,5.6,11.2c1.5,2.1,3.9,3.4,6.4,3.6c1,0.2,2.1-0.1,2.9-0.7C79.2,133.4,78.7,133.3,78.1,133.2z
	 M65.1,73.9c0.2,0.6,0.2,1.1,0.5,1.2s0.8-0.1,1.4-0.2c0.7,0.4,0.8,0.8,0,1.6c-0.6,0.6-1.6,0.8-2.3,0.4c-0.8-0.3-1.2-1.1-1.2-1.9
	C63.5,73.6,63.9,73.4,65.1,73.9L65.1,73.9z"/>
<path class="st0" d="M66.1,94l1.3,1.6c0.9,1.2,2.2,2,3.6,2.2c0.9,0.2,1.8,0.7,2.7,0.9c1.2,0.3,2.5,0.5,3.7,0.6c1.3,0.1,2.7,0.1,4,0
	c1.3-0.1,2.6-0.3,3.8-0.6c0.7-0.3,1.4-0.6,2.2-0.8c2.3-0.2,3.7-1.7,4.9-3.4c0.1-0.2,0.3-0.4,0.6-0.4c-0.5,1.7-1,3.4-1.4,5.1
	c-0.8,2.9-1.6,5.8-2.1,8.7c-0.2,1.7-0.3,3.3-0.2,5c0.1,3.4-0.2,6.9-1,10.2c-0.7,2.5-1.7,4.7-4.3,5.8c-2.9,1.2-6.1,1.2-9,0
	c-1.6-0.7-2.8-2-3.4-3.6c-0.9-2.2-1.5-4.6-1.6-7c-0.2-2.4-0.3-4.8-0.2-7.3c0-3.4-0.5-6.8-1.7-10c-0.8-2.3-1.4-4.6-2.1-6.9L66.1,94z
	 M79.4,109.9h-0.1v-1c-0.1-2.3-0.3-2.5-2.6-3c-1.5-0.5-3.1,0.4-3.6,1.9c0,0,0,0,0,0c0,0,0,0.1,0,0.1c-0.4,1.4-0.7,2.8-0.8,4.2
	c-0.1,2.2,0.9,3.7,3.1,3.9c2.7,0.3,5.4,0.3,8.1,0c1.7-0.1,3-1.5,3-3.2c0-0.1,0-0.2,0-0.3c-0.1-1.7-0.4-3.4-0.9-5
	c-0.5-1.4-2-2.1-3.4-1.7c-0.5,0.1-1,0.3-1.5,0.4c-0.7,0.1-1.2,0.7-1.1,1.4c0,0,0,0,0,0l0,0C79.6,108.4,79.5,109.2,79.4,109.9z
	 M89.6,98.5c-1.6-0.4-2.7,0.4-3.9,1c-2.9,1.6-6.4,1.9-9.6,1c-1.2-0.3-2.4-0.7-3.4-1.3c-0.8-0.5-1.7-0.8-2.6-0.9
	c-0.7,0-1,0.2-0.9,0.9c0.1,1.6,0.4,3.3,0.7,4.9c0.6,1.7,1.3,3.3,2.1,4.9l0.4-0.1c-0.3-2.5-0.2-5,0.5-7.4c0.5,0.5,0.9,1.1,1.4,1.2
	c0.3,0.1,0.8-0.5,1.3-0.9c1.8,1.7,2.2,1.8,3.7,0.1c0.7,0.3,0.7,1.7,1.8,1.1c0.7-0.3,1.4-0.8,1.9-1.1c0.6,0.3,1.1,0.8,1.5,0.7
	c0.6-0.4,1.1-0.8,1.6-1.3l0.4,7.6C88.7,105.9,89.8,102.2,89.6,98.5L89.6,98.5z M82.9,125.4c-0.6-0.2-1.4-0.2-1.9,0.2
	c-1,0.3-2.1,0.3-3.2,0.1c-0.6-0.1-1.3-0.3-1.9-0.6l0.2-1c0.3-0.1,0.7-0.3,0.7-0.5c0-0.6-0.2-1.2-0.5-1.7c-0.6-0.5-1.4-0.6-2.1-0.2
	l0.6,1c-1.9-0.9-2.5-2.6-3.1-4.4c-1,1.4-0.7,6,0.5,7.2c0.5,0.6,1.2,0.9,1.9,0.7c0.5,0.3,1.1,0.6,1.6,0.8c0.2,0.1,0.4,0.2,0.6,0.3
	c0.7,0.6,1.6,0.7,2.4,0.3c0.4-0.1,0.8-0.1,1.2,0c0.8,0.4,1.8,0.2,2.5-0.4c0.1-0.1,0.3-0.2,0.4-0.2c0.6,0.2,1.3-0.1,1.5-0.7
	c0,0,0-0.1,0-0.2c1.4,0.2,2.4-0.3,2.7-1.7c0.3-1.7,0.4-3.3,0.4-5c0-0.4-0.1-0.7-0.3-1.1H87c-0.5,1.8-1.1,3.4-3,4.3l0.5-1
	c-1.4-0.4-2.4-0.1-2.5,0.9c-0.1,0.6-0.4,1.5,0.7,1.6L82.9,125.4z"/>
<path class="st0" d="M89.1,70.3c3.4-3.7,7.3-6.8,12.2-8l0.3,0.3l-3.9,6l0.1,0.2l4.3-1.3l0.1,0.3l-6.6,2.6l-0.2-0.3l2.1-3.4l-0.2-0.2
	c-0.9,0.5-1.8,1.1-2.6,1.8c-1.4,1.4-2.7,3-4,4.5c-0.6,0.7-1.1,1.4-1.8,2c-1.2,1.2-2.3,1.1-3.5-0.1l-0.5-0.5
	c-1.8,1.5-4.7,6.6-4.5,7.9c1.8-0.6,2.9-2.2,4.6-3.5l-2.8,3.9c0.9,0.3,0.9,0.3,3.3-1c-1.2,2-2,2.3-4.3,1.9c-1.1-0.2-2.3-0.2-3.4,0
	c-2.4,0.5-3,0.3-4.3-1.7l3,1.3l0.2-0.3L74,78.9c1.2,1,2.2,1.9,3.1,2.7c0.2,0.2,0.5,0.4,0.9,0.5c0.2,0,0.4-0.3,0.6-0.4s0-0.3-0.1-0.4
	c-1.2-2.5-2.7-4.8-4.4-6.9c-0.2,0.1-0.3,0.1-0.3,0.1c-1.7,2.1-3.1,1.4-4.6-0.3s-2.8-3.4-4.3-5c-0.9-1.1-2.2-1.9-3.6-2.3l2.1,3.3
	c-2.6-0.4-5-1.4-7.2-2.9c1.5,0.4,3,0.9,4.5,1.3c0.1,0,0.2,0,0.3-0.1l-3.9-6.1l0.3-0.3c5,1.2,8.8,4.3,12.3,8l-2.9-0.7
	c1.2,1.5,2.7,2.8,4.4,3.7c1.3,0.6,1.9,0.1,1.8-1.3c-0.2-1.7-0.8-3.3-1.9-4.7c-0.7-0.9-1.2-1.9-1.7-3c1.8,1.6,3.6,3,5.2,4.7
	c1.3,1.3,1.2,2,0.3,3.5c-0.1,0.3-0.1,0.5,0,0.8c0.7,1.2,1.5,2.5,2.3,3.7c0.2,0.3,0.6,0.3,0.9,0.5c0.2-0.3,0.3-0.6,0.4-0.9
	c0.2-2,0.4-3.9,0.7-6.2c0.2,1.9,0.3,3.5,0.5,5.2c0.1,0.6,0.3,1.2,0.6,1.8c0.5-0.3,0.9-0.7,1.3-1.2c0.6-0.9,1.3-1.9,1.8-2.9
	c0.1-0.3,0.1-0.6,0-0.9c-0.8-1.3-0.8-2.2,0.2-3.4c1-1,2.1-2,3.2-2.9c0.8-0.7,1.6-1.3,2.4-1.8c-0.7,1-1.3,1.9-1.9,2.9
	c-1.1,1.4-1.7,3.1-1.9,4.8c0,1.4,0.6,1.8,1.8,1.2c1.7-0.8,3.1-2.1,4.1-3.7L89.1,70.3z"/>
<path class="st0" d="M69.8,59.9c2.4,1.5,4.8,2.9,7.2,4.4c0.5,0.3,0.9,0.6,1.5,0.2c0.5-0.5,1.3-0.5,1.8,0c0.6,0.4,1,0.2,1.5-0.1
	c2.3-1.5,4.6-2.9,6.9-4.3l0.2,0.3c-0.9,0.7-1.9,1.3-2.8,2c-1.5,1.1-2.9,2.3-4.2,3.6c-0.8,0.8-1.3,0.7-2,0c-0.2-0.2-0.3-0.3-0.5-0.4
	c-1.7,1.2-1.6,1.1-3.3-0.3c-2.1-1.8-4.3-3.4-6.4-5.1L69.8,59.9z"/>
<polygon class="st0" points="63.4,89.5 63.4,89.5 63.4,89.5 63.4,89.5 "/>
<polygon class="st0" points="58.3,91.5 58.3,91.5 58.3,91.5 58.3,91.5 58.3,91.5 "/>
<polygon class="st0" points="58.3,91.5 58.3,91.5 58.3,91.5 58.3,91.5 58.3,91.5 "/>
<path class="st0" d="M61.8,88.5"/>
<path class="st0" d="M62.9,88.5c0.1,0.3,0.2,0.7,0.2,1.1L62.9,88.5L62.9,88.5z"/>
<polygon class="st0" points="63.4,89.5 63.4,89.5 63.4,89.5 63.4,89.5 "/>
<path class="st0" d="M119.9,84.8c0-0.1,0-0.2,0-0.2l3.7-1.6l-4-0.9v-0.3l3.4-1.2l-3.5-1.2v-0.2l3.5-0.9l-4.8-0.7v-0.3l4.7-2.4
	c-4.9-1.9-9.8-2.3-14.7-2.9v-0.3l6.1-1.1v-0.3l-10.3-0.7l0.9-1c-3.7,1.4-7.3,2.8-10.9,4.2c-0.9,0.3-1.6,0.8-2.4,1.4
	c-1.5,1.2-2.8,2.5-4.8,2.9c0.1,1.4,0.9,2.6,2.1,3.2c0.4-0.5,0.8-0.9,1.1-1.4s0.9-0.6,1.5-0.4c0.8,0.2,1.7,0.2,2.6,0
	c2.2-0.7,3.2-2.3,3.2-5.4c1.8,0.4,3.6-0.3,4.7-1.6l0.2,0.2c0.1,0.6,0.1,1.1,0.2,1.9l10.1,2.1V76h-9l10.1,4.5l-0.1,0.3l-12.5-3
	l-0.2,0.3l9.7,6.2c0,0.1-0.1,0.2-0.1,0.3c-1.7-0.4-3.3-0.9-4.9-1.5c-1.9-0.8-3.7-1.8-5.5-2.8c-2.1-1.1-2.6-1-4.3,0.6
	c-1.2,1.1-2.7,1.7-4.3,1.7h-1.2c0.1,0.2,0.1,0.4,0.2,0.7l0,0c0.1,0.5,0.4,1.5,0.6,2.6c0.3,1.3,0.4,2.5,0.4,3.8
	c-0.1,1-0.2,1.9-0.5,2.8l4.6-5.1L94.9,93c-0.3,1.2-0.9,3.2-1.2,4.4c-0.2,0.8-0.5,1.6-0.8,2.3c-0.3,0.8-0.6,1.5-1.2,2.9
	c-0.7,1.6-1.1,3.3-1.2,5.1c-0.4,4.7-0.6,9.4-0.8,14.1c-0.1,3.2-1.2,6.3-3.3,8.8c-0.5,0.6-0.9,1.3-1.4,1.9l0.2,0.2
	c0.5-0.2,0.9-0.5,1.3-0.8c1.1-1.1,2.1-2.3,3.1-3.6c2.4-3.7,4-7.8,4.9-12.1c0.5-3.1,2.5-5.8,5.3-7.3c1.7-1.1,3.3-2.3,4.8-3.6
	l-0.1-0.2l-5.1,1.8c1-1.5,1.9-2.8,2.6-4c0.8-0.9,0.6-2.3-0.3-3.1l-0.3-0.2c-1-0.8-2-1.5-3.1-2.3c-0.2-0.1-0.4-0.2-0.6-0.3
	c0.1-0.1,0.2-0.2,0.3-0.3c2.4,0.4,4.6,1.4,6.4,2.9c0.4,0.5,1.1,0.5,1.5,0.1c0,0,0,0,0,0l0,0c0.9-0.6,1.9-1,2.8-1.5
	c3.2-1.8,6.4-3.6,9.5-5.6c1.6-1,2.9-2.5,3.7-4.2l-2.1-1.2l3.3-1.8L119.9,84.8z M95,75.3c-0.2,0.7-0.7,1.2-1.3,1.6
	c-0.8,0.4-1.7,0.2-2.2-0.5c-0.7-0.7-0.7-1,0.1-1.6c0.6,0.2,1,0.4,1.3,0.3s0.3-0.7,0.5-1L93.2,74c0.5-0.1,1.2-0.4,1.3-0.3
	C94.9,74.1,95.1,74.7,95,75.3L95,75.3z"/>
<path class="st0" d="M44.6,124.4c-1.7-1.5-3.2-3.1-4.7-4.8c-0.3-0.3,0,0-1.6-1.9c-3.1-3.6-3.2-3.6-3.5-4.3c-0.8-1.3-0.8-1.9-1.8-3.6
	c-0.3-0.4-0.5-0.8-0.7-1.2c-0.3-0.7-0.6-1.5-0.8-2.2c-0.1-0.3-0.2-0.6-0.3-0.9s-0.5-1.1-0.6-1.1c0.1,1.3,0.4,2.6,1,3.8
	c0.3,0.9,0.4,0.9,1.5,3.1c1.5,3.1,1.4,3.3,2.1,4.2c0.3,0.4,0.9,1.1,2,2.5c0.8,1,1.3,1.6,2,2.3c1.3,1.4,1.5,1.4,2.8,2.7
	c0,0,3.5,3.7,5.2,4.4c0.1,0.1,0.2,0.1,0.4,0.1c0.1,0,0.2,0,0.2-0.2c0-0.2-0.1-0.3-0.2-0.4C46.4,126.2,45.5,125.1,44.6,124.4z"/>
<path class="st0" d="M39.7,40.4c0.1,0,0.3-0.3,0.3-0.4c0.2-1,1-1.2,1.5-1.7c1.3-1.1,2.4-2.5,3.8-3.5c3.2-2.2,6.4-4.4,10.1-5.3
	c0.8-0.2,1.4-1.3,2.5-0.4c0.2,0.2,0.6-0.2,0.5-0.6c-0.1-0.4-0.1-0.8,0-1.2l1.9-0.3c-0.6,0-1.2,0-1.8,0.1c0.2-0.4,0.6-0.7,1.1-0.8
	c-0.4-0.4-0.7-0.4-1-0.2c-0.7,0.4-1.4,0.8-2.1,1.1c-0.8,0.1-1.5,0.2-2.3,0.4h-0.2c-0.2,0-0.4,0.1-0.5,0.2c-0.7,0.2-1.4,0.5-2.1,0.8
	c-0.6-0.1-1.3,0.3-1.6,0.9c-0.3,0.2-0.7,0.4-1,0.7c0.3-0.1,0.6-0.3,0.8-0.4c0,0.1-0.1,0.3-0.1,0.5c-0.1,0.7-0.6,1.2-1.2,1.4
	c-0.5,0.2-0.9,0.5-1.3,0.8c-0.8,0.6-1.7,1.1-2.6,1.5c-1.6,0.6-2.9,1.5-4,2.8c-0.4,0.5-1.2,0.5-1.4,1.3c-0.4,1.3-1.2,2.5-2.2,3.4
	c-0.2,0.3-0.4,0.6-0.4,1C37.6,42,38.2,40.2,39.7,40.4z"/>
<path class="st0" d="M101.7,134.3c0.1,0.3,0.3,0.1,0.4,0.1c2-0.6,4-1.4,5.8-2.4c1-0.6,2-1.3,3-2c2-1.4,3.8-2.9,5.5-4.7
	c-0.2,0-0.4,0.1-0.6,0.2c-1.4,1-2.7,2.3-4.1,3.2c-0.4,0.2-0.8,0.5-1.2,0.8c-2.4,2.1-5.3,3.7-8.5,4.5C102,134,101.6,134,101.7,134.3z
	"/>
<path class="st0" d="M79.5,22c-1.3,0.4-2.5,0.7-3.9,1.1c0.8-0.1,1.4,0.3,1.9-0.1c0.8-0.5,1-0.1,1.1,0.6c0,0.2,0,0.5,0.3,0.4
	c0.7-0.1,1.4-0.4,1.9-0.8c0.1-0.1,0.3-0.2,0.2-0.4C80.7,22.2,80.1,21.9,79.5,22z"/>
<path class="st0" d="M59.2,134.2c1.4,0.8,2.9,1.5,4.4,2c-0.9-0.4-1.7-0.8-2.6-1.3C60.5,134.6,59.9,134.3,59.2,134.2z"/>
<path class="st0" d="M56.6,132.7c-0.8-0.4-1.6-0.8-2.5-1.2C54.9,132,55.7,132.4,56.6,132.7z"/>
<path class="st0" d="M63.1,136.5c0.9,0.2,1.8,0.6,2.6,0.7c-1.1-0.4-2.3-0.8-3.4-1.2c-2-0.7-3.9-1.5-5.7-2.4c-1.1-0.5-2-1.1-3-1.7
	s-1.9-1.1-2.7-1.7c-0.4-0.4-0.9-0.6-1.5-0.6c-0.1,0-0.3-0.1-0.3,0s0.1,0.1,0.3,0.2c0.8,0.6,1.8,1.1,2.7,1.5c0.2,0.1,0.3,0.2,0.5,0.3
	c1.1,0.8,2.3,1.4,3.5,2c1.1,0.6,2.2,1.1,3.3,1.6C60.5,135.7,61.8,136.2,63.1,136.5z"/>
<path class="st0" d="M65.2,133.1c0.7,0.4,1.5,0.6,2.3,0.6C66.8,133.2,65.9,133.4,65.2,133.1z"/>
<path class="st0" d="M66.4,132.1c0,0.1,0,0.1,0,0.2c0.1,0.2,0.2,0.3,0.4,0.3c0.1,0,0.3-0.2,0.4-0.1l0.1,0.2c0-0.1,0.1-0.2,0.1-0.2
	s-0.3-0.2-0.5-0.2S66.5,132,66.4,132.1z"/>
<path class="st0" d="M111.9,35c-0.2,0.2-2.3-1.7-6.9-4.4c-2.4-1.5-4.9-2.7-7.5-3.7c-1.8-0.7-3.8-1.2-7.9-2.4c-3-0.8-4.8-1.2-4.8-1.4
	c1.1,0,2.2,0.1,3.3,0.2c2.9,0.4,5.7,1,8.5,1.9c2.7,0.7,5.4,1.7,7.8,3.1C109,31,112.1,34.7,111.9,35z"/>
<path class="st0" d="M119.7,116.6l-0.3,0.3c-0.8,0.6-1,1.8-2.2,2c-0.1,0,0,0.2,0.1,0.3c0.3,0.2,0.1,0.4-0.1,0.4
	c-0.4,0.1-0.7,0.3-1,0.6c-1.4,1.2-2.2,2.9-3.7,4c-0.1,0.2-0.2,0.4-0.1,0.7c0.2,0.2,0.5,0.1,0.8,0c1-0.6,1.8-1.5,2.1-2.6
	c0.1-0.4,0.2-0.7,0.7-0.8c1.5-0.3,2.1-1.7,3.1-2.6c0.4-0.4,0.8-0.9,1-1.5C120.1,117.1,120,116.7,119.7,116.6L119.7,116.6z"/>
<path class="st0" d="M113.4,118.7c-0.8,0.7-1.5,1.5-2.3,2.2c1.7-0.7,3.3-1.9,4.5-3.3c0.5-0.3,0.6-0.7,0.4-1.4
	c-0.6,0.2-0.3,1-0.6,1.4c-0.4,0.1-0.8,0.3-1.1,0.5C114.3,117.9,113.2,118.7,113.4,118.7"/>
<path class="st0" d="M111.3,122.6c-0.8,0.6-1.4,1.4-2.1,2c1.6-0.7,3-1.7,4.1-3c0.4-0.2,0.5-0.7,0.4-1.3c-0.6,0.2-0.3,0.9-0.5,1.3
	c-0.3,0.1-0.7,0.3-1,0.4C112.1,121.9,111.3,122.9,111.3,122.6"/>
<path class="st0" d="M75.3,25.3c-1-0.7-2.1,0.8-4.7,1.1c-0.6,0.1-0.7,0-3.6,0.3h-0.6c-1,0.7-2.2,1.5-2.1,1.7s1.3-0.2,1.6-0.4
	c3.2-1.1,6.6-1.8,9.9-2.2C75.6,25.6,75.5,25.5,75.3,25.3z"/>
<path class="st0" d="M68.1,24.5L68.1,24.5c0.5,0,1.1-0.1,1.6-0.3c0.3-0.1,0.5-0.2,0.8-0.3c-0.2-0.1-0.4-0.1-0.6,0
	c-0.6,0.2-1.2,0.3-1.9,0.4l0.1,0.1L68.1,24.5z"/>
<path class="st0" d="M69.5,25.3l-0.2,0.1c1.1-0.1,2.1-0.2,3.2-0.4c0.6-0.1,1.1-0.2,1.7-0.4h-0.4c-0.3,0-0.5,0-0.8,0.1
	c-0.4,0.1-1.7,0.3-3.8,0.5"/>
<path class="st0" d="M32.6,51.8c-0.1,0.3-0.3,0.7-0.4,1c-2,4-3,8.3-3,12.8c0,0.6-0.1,1.2-0.2,1.8c0,0.4-0.1,0.7-0.2,1.1
	c-0.4-6.1,0.4-11.9,3.6-16.8L32.6,51.8z"/>
<path class="st0" d="M32.2,56.2c-0.3,1.1-0.7,2.2-1,3.3c-0.1,0.7-0.1,1.5-0.1,2.2c-0.9-2.7,0.4-6.3,2.2-8.6l-0.7,2.3L32.2,56.2z"/>
<path class="st0" d="M113.8,35.1c0.7,0.7,1.4,1.4,2.2,2c0.9,0.6,1.8,1.2,2.7,1.9c-0.8-1.1-1.8-2.1-2.9-2.9c-0.7-0.3-1.3-0.7-1.8-1.3
	c-0.1-0.1,0-0.5-0.3-0.3S113.7,34.9,113.8,35.1z"/>
<path class="st0" d="M108.9,36c1.5,0.9,3,1.7,4.6,2.4C112,37.5,111,36,108.9,36z"/>
<path class="st0" d="M119.6,45.2c-0.1-0.3-0.5-0.5-1-0.5c0.2,0.2,0.3,0.4,0.5,0.7C119.4,45.8,119.7,45.5,119.6,45.2z"/>
<path class="st0" d="M104.2,35.5c-0.5-0.3-0.8-0.6-1.2-0.5c0,0.1,0,0.1,0,0.2C103.2,35.7,103.6,35.6,104.2,35.5z"/>
<path class="st0" d="M123.7,118l3.9-4.3c0-0.4,0.2-0.8,0.4-1.2l0.4,0.2l0.3-0.3l1.5-4.5l-0.2-0.1l0.9-2l2.9-8.8l0,0l0.9-2.7l0,0
	c0.6-3,1.1-5.7,1.5-8.4c0.3-3.1,0.4-6.2,0.3-9.3c0-2.1-0.1-4.3-0.4-6.4c-1.1-9.1-5.5-16.8-9.5-24.7c-0.1-0.3-0.7-0.3-1.5-0.5
	c0.6,1.4,1.1,2.3,1.5,3.3c1.9,4.8,5.1,9.4,6.4,14.3c1.1,3.8,1.7,7.6,2,11.6c0.2,2.8-0.4,6.4,0,9.2c0.9,6.5-1.8,12.3-3.9,18.3
	c-1.8,5-3.6,10-7.2,14.1C123.4,116.6,123.4,117.4,123.7,118L123.7,118z"/>
</svg>
