<?xml version="1.0" encoding="utf-8"?>
<!-- Generator: Adobe Illustrator 24.0.1, SVG Export Plug-In . SVG Version: 6.00 Build 0)  -->
<svg version="1.1" id="Layer_1" xmlns="http://www.w3.org/2000/svg" xmlns:xlink="http://www.w3.org/1999/xlink" x="0px" y="0px"
	 viewBox="0 0 1080 400" style="enable-background:new 0 0 1080 400;" xml:space="preserve">
<style type="text/css">
	.st0{enable-background:new    ;}
	.st1{fill:#1C0C93;}
	.st2{fill:none;stroke:#1C0C93;stroke-width:0.75;stroke-miterlimit:10;}
</style>
<g>
	<g class="st0">
		<path class="st1" d="M384.1,122.4h12.3l62.1,114.5V122.4H472l-0.2,144.8l-11.3,0.2l-63.1-116.2v116.4l-13.3-0.2V122.4z"/>
		<path class="st1" d="M529.9,166.6h55.5v9.1c-16.3,0-32.6,0-49,0l0.2,37.3c11.6,0,23.1,0,34.7,0v9.1h-34.7c0,12.1,0,24.2,0,36.3h49
			v9.1h-49h-0.2c-0.1,0-0.3,0-0.4,0c-0.7,0-1.7,0-3,0c-1.3,0-2.4,0-3,0h-3l0.2-100.8H529.9z"/>
		<path class="st1" d="M695.4,216.8c3.2,3.4,4.9,8.7,5,15.9c0,6,0,10.8,0,14.1c0.1,0.4,0.2,0.9,0.2,1.4c0,5.6-1.5,10.3-4.5,13.9
			c-3,3.6-7.4,5.4-13.2,5.4c-3.9,0-8.4,0-13.4,0c-5,0-9.7,0-14,0H649H640l0.2-100.8h8.7h33.9c5.8,0,10.2,1.7,13.2,5.1
			c3,3.4,4.5,7.9,4.5,13.4c0.1,2.7,0.1,7.9,0,15.7C700.5,208.2,698.8,213.4,695.4,216.8z M679.1,211.9c0.5,0,1.1,0,1.6,0
			c0.1,0,0.3,0,0.4,0h0.6h0.4h0.2c6,0,9.1-3.8,9.3-11.3c0-5.2-0.1-10.7-0.2-16.3c-0.4-5.1-3.6-7.7-9.7-7.7c-6.6,0-17.4,0.1-32.5,0.2
			c0,26.8,0,53.6,0,80.5c15.1,0.1,25.9,0.2,32.7,0.2c5.4,0,8.5-2.1,9.5-6.5c0-6.2,0-12.2,0-18.1c0-7.4-2.9-11.2-8.7-11.5
			c-0.5,0-1,0-1.4,0c-0.7,0-1.3,0-2,0c-2-0.1-3.2-0.2-3.4-0.2v-9.3H679.1z"/>
		<path class="st1" d="M760.3,166.6h9.1l0.2,80.5l-9.3-0.2V166.6z M812,249.2l0.2-82.7h8.5l0.4,82.7v0.2c0,5.2-1.5,9.6-4.5,13
			c-3,3.4-7.4,5.1-13.2,4.9c-3.9,0-8.5,0-13.8,0c-5.3,0-9.1,0-11.4,0c-2.2,0-4.1-0.3-5.9-1c-1.8-0.7-3.3-1.4-4.3-2.3
			c-1.1-0.9-2-1.8-2.8-2.7c-0.8-0.9-1.3-1.7-1.6-2.2l-0.6-1c19.6,0.1,32.8,0.2,39.5,0.2c6.5,0,9.7-2.7,9.7-8.1
			C812,249.8,812,249.5,812,249.2z"/>
		<path class="st1" d="M877.1,166.6l9.1,0.2v91.6c16.3,0,32.5,0,48.8,0v9.1h-48.8h-9.1V166.6z"/>
		<path class="st1" d="M962.6,233.7h1.2h3.4c3.1,0,6.5,0,10.1,0c3.6,0,7,0,10.1,0h7.3l-2.6,9.9h10.5l-7.9,24l-10.7,0.2l8.1-24.2
			h-1.2c-0.5,0-1.1,0-1.6,0c-0.5,0-1.1,0-1.8,0c-3.1,0-6.5,0-10.1,0c-1.9,0-3.7,0-5.3,0c-1.7,0-3.3,0-4.7,0c-0.8,0-1.5,0-2,0
			c-0.5,0-1,0-1.4,0h-1.2V233.7z M994.7,233.7l21.8-67h8.9l32.9,100.8h-10.5l-26.8-82.7l-16.1,49L994.7,233.7z"/>
	</g>
	<g class="st0">
		<path class="st2" d="M384.1,122.4h12.3l62.1,114.5V122.4H472l-0.2,144.8l-11.3,0.2l-63.1-116.2v116.4l-13.3-0.2V122.4z"/>
		<path class="st2" d="M529.9,166.6h55.5v9.1c-16.3,0-32.6,0-49,0l0.2,37.3c11.6,0,23.1,0,34.7,0v9.1h-34.7c0,12.1,0,24.2,0,36.3h49
			v9.1h-49h-0.2c-0.1,0-0.3,0-0.4,0c-0.7,0-1.7,0-3,0s-2.4,0-3,0h-3l0.2-100.8h2.7V166.6z"/>
		<path class="st2" d="M695.4,216.8c3.2,3.4,4.9,8.7,5,15.9c0,6,0,10.8,0,14.1c0.1,0.4,0.2,0.9,0.2,1.4c0,5.6-1.5,10.3-4.5,13.9
			s-7.4,5.4-13.2,5.4c-3.9,0-8.4,0-13.4,0s-9.7,0-14,0H649h-9l0.2-100.8h8.7h33.9c5.8,0,10.2,1.7,13.2,5.1c3,3.4,4.5,7.9,4.5,13.4
			c0.1,2.7,0.1,7.9,0,15.7C700.5,208.2,698.8,213.4,695.4,216.8z M679.1,211.9c0.5,0,1.1,0,1.6,0c0.1,0,0.3,0,0.4,0h0.6h0.4h0.2
			c6,0,9.1-3.8,9.3-11.3c0-5.2-0.1-10.7-0.2-16.3c-0.4-5.1-3.6-7.7-9.7-7.7c-6.6,0-17.4,0.1-32.5,0.2c0,26.8,0,53.6,0,80.5
			c15.1,0.1,25.9,0.2,32.7,0.2c5.4,0,8.5-2.1,9.5-6.5c0-6.2,0-12.2,0-18.1c0-7.4-2.9-11.2-8.7-11.5c-0.5,0-1,0-1.4,0
			c-0.7,0-1.3,0-2,0c-2-0.1-3.2-0.2-3.4-0.2v-9.3H679.1z"/>
		<path class="st2" d="M760.3,166.6h9.1l0.2,80.5l-9.3-0.2V166.6z M812,249.2l0.2-82.7h8.5l0.4,82.7v0.2c0,5.2-1.5,9.6-4.5,13
			s-7.4,5.1-13.2,4.9c-3.9,0-8.5,0-13.8,0s-9.1,0-11.4,0c-2.2,0-4.1-0.3-5.9-1c-1.8-0.7-3.3-1.4-4.3-2.3c-1.1-0.9-2-1.8-2.8-2.7
			c-0.8-0.9-1.3-1.7-1.6-2.2l-0.6-1c19.6,0.1,32.8,0.2,39.5,0.2c6.5,0,9.7-2.7,9.7-8.1C812,249.8,812,249.5,812,249.2z"/>
		<path class="st2" d="M877.1,166.6l9.1,0.2v91.6c16.3,0,32.5,0,48.8,0v9.1h-48.8h-9.1V166.6z"/>
		<path class="st2" d="M962.6,233.7h1.2h3.4c3.1,0,6.5,0,10.1,0s7,0,10.1,0h7.3l-2.6,9.9h10.5l-7.9,24l-10.7,0.2l8.1-24.2h-1.2
			c-0.5,0-1.1,0-1.6,0s-1.1,0-1.8,0c-3.1,0-6.5,0-10.1,0c-1.9,0-3.7,0-5.3,0c-1.7,0-3.3,0-4.7,0c-0.8,0-1.5,0-2,0s-1,0-1.4,0h-1.2
			v-9.9H962.6z M994.7,233.7l21.8-67h8.9l32.9,100.8h-10.5l-26.8-82.7l-16.1,49L994.7,233.7z"/>
	</g>
</g>
<path id="XMLID_19_" class="st1" d="M198.2,169.5c17.5-2.8,14,7.7,10.6,17.7c-3.4,9.9,9,20.2,40.4,4.4s26.3-51.9-20.4-65.5
	c-46.6-13.5-149.3,42.5-138.1,93.4c7.5,34.1,99.5,54,166.2,23.5c65.3-29.9,82.3-97,84.7-107c-2.6,31.6-12,77-48.5,110.1
	c-43,39-103.7,42.6-101.8,47.3c2.3,5.8,50.7-1,83.5-17.9c1.7-0.9,11.7-7,24-14.7c7.8-4.9,14.2-8.9,18.4-11.6
	c-13.7,14.1-41.1,39.7-72.7,50.7c-16,5.6-34.8,10-34.8,10c-21.1,4.5-32.5,3.9-33.9,7c-0.7,1.7,27,2.5,55.9-1.8
	c0.6-0.1,1.1-0.2,1.6-0.2c-15.9,6.4-40.7,13.7-70.3,11.5c0,0-65.2-1.7-100.3-48.1c-8.6-11.4,6.1,18.3,20.6,27.1
	c14.5,8.8-45.3-10.5-49.6-57.6c-4.4-47.1,17.2-99.3,54.5-123.3c37.2-24.1-22.4-3.3-45.8,34.9c-5.5,9-12.3,23.4-17,35.6
	c-2.8,7.2-4.7,13.3-6,17.6c-0.3,1-0.5,2-0.8,3c1.9-17.5,9.9-67.5,53-102.7c18.6-15.2,38-23.1,49.4-27.5c33.9-13.2,65-14.8,87.1-14.8
	c32.6,0,74.8,37.7,81.1,48.3c0.4,0.7,2.7,3.3,3.5,3c1.5-0.7-2.5-12.1-5.3-17.7c-3.3-6.7-11.9-20-36.6-30.3c-5.5-2.8-11-5.5-16.6-8.3
	c0.8,0,1.5,0,2.3,0c43.1,12.2,72.9,44.3,73.4,78.4c0.7,56.3-79.3,97.3-120.1,86.7C144.6,218.4,171.9,173.6,198.2,169.5z"/>
<path class="st1" d="M233.5,141.5c-7.8-4.2-9.5-5.9-9.2-6.5s2.8-0.3,4.4,0.3C232.8,136.8,233.5,141.2,233.5,141.5z"/>
<path class="st1" d="M216.7,136.6c0.9,0.5,1.7,0.9,2.2,1.2l-24.7-3.6c4.3-1.6,7.9-1.6,9.9-1.5C209.5,133,213.8,135.2,216.7,136.6z"
	/>
<path class="st1" d="M164.1,145.9c-25.5,12.1-43.2,30.4-46.7,47.5c-2.3,11.2-0.3,23.5-0.3,23.5c1.2,7.8,3.6,14.1,5.7,18.5
	c-16-23.8-14.6-52.6,2.3-70.9C138.7,149.7,158,146.7,164.1,145.9z"/>
<path id="XMLID_18_" class="st1" d="M13.1,240.2c0.9,6.2,2.2,9,2.9,10.4c1.6,3,3.4,5.1,4.9,6.6c-1.3-5.4-2.5-11.6-3.2-18.5
	c-0.4-4.2-0.7-8.2-0.8-12.1c-1.4-0.6-2.8-1.2-4.3-1.8C12.2,231.2,12.6,236.5,13.1,240.2z"/>
<path id="XMLID_17_" class="st1" d="M339.7,223.8c4.3-5.9,4.8-13.6,1.3-20.1c-0.3,3.7-1.3,10.4-5.7,17.5c-3.3,5.3-7.2,8.8-9.9,11
	C326.9,232,334.8,230.5,339.7,223.8z"/>
<path id="XMLID_16_" class="st1" d="M336.4,243c0.3-1.2,0.5-3.2,0-5.5c-0.4-1.9-1.2-3.3-1.8-4.2c-0.1,1.3-0.3,2.8-0.8,4.6
	c-0.3,0.9-0.7,2.4-1.6,4c-0.8,1.6-2.3,3.9-4.8,6.4c1.1-0.1,3.3-0.5,5.6-2C334.8,245.2,335.9,243.8,336.4,243z"/>
<path id="XMLID_5_" class="st1" d="M215.5,63.2c5.1,0.8,10.2,1.6,15.4,2.4c-2.9-1.8-8.3-4.5-15.9-5.6c-7.1-1-12.9,0-16.3,0.8
	C204.3,61.6,209.9,62.4,215.5,63.2z"/>
</svg>
