<svg width="76" height="76" viewBox="0 0 76 76" fill="none" xmlns="http://www.w3.org/2000/svg">
<path d="M71.0966 35.5484H73.5482V20.8387C73.5482 10.7001 65.2998 2.4516 55.1611 2.4516H40.4514V4.90322H55.1611C63.9477 4.90322 71.0966 12.0521 71.0966 20.8387V35.5484Z" fill="#5252CC"/>
<path d="M2.45144 35.5484H4.90306V20.8387C4.90306 12.0521 12.052 4.90322 20.8385 4.90322H35.5482V2.4516H20.8385C10.6999 2.4516 2.45144 10.7001 2.45144 20.8387V35.5484Z" fill="#5252CC"/>
<path d="M20.8385 73.5484H35.5482V71.0968H20.8385C12.052 71.0968 4.90306 63.9479 4.90306 55.1613V40.4516H2.45144V55.1613C2.45144 65.2999 10.6999 73.5484 20.8385 73.5484Z" fill="#5252CC"/>
<path d="M40.4514 73.5484H55.1611C65.2998 73.5484 73.5482 65.2999 73.5482 55.1613V40.4516H71.0966V55.1613C71.0966 63.9479 63.9477 71.0968 55.1611 71.0968H40.4514V73.5484Z" fill="#5252CC"/>
<path d="M9.83105 36.8245C10.4121 22.6431 21.5118 11.0691 35.649 9.90331L35.448 7.45905C20.0788 8.72776 8.01318 21.3082 7.38066 36.724L9.83105 36.8245Z" fill="#5252CC"/>
<path d="M36.7241 68.6194L36.8246 66.1703C22.2841 65.5745 10.4268 53.7173 9.8311 39.1768L7.38194 39.2773C8.02917 55.0829 20.9173 67.971 36.7241 68.6194Z" fill="#5252CC"/>
<path d="M39.276 68.6194C55.0828 67.9709 67.9709 55.0828 68.6194 39.276L66.1702 39.1755C65.5733 53.716 53.716 65.5733 39.1755 66.169L39.276 68.6194Z" fill="#5252CC"/>
<path d="M66.1692 36.8244L68.6183 36.7239C67.9711 20.9172 55.083 8.02903 39.2762 7.38058L39.1757 9.82974C53.7162 10.4267 65.5734 22.2839 66.1692 36.8244Z" fill="#5252CC"/>
<path d="M38.0001 58.8387C44.7702 58.8387 50.2582 53.3508 50.2582 46.5806V29.4193C50.2582 22.6492 44.7702 17.1613 38.0001 17.1613C31.23 17.1613 25.7421 22.6492 25.7421 29.4193V46.5806C25.7421 53.3508 31.23 58.8387 38.0001 58.8387Z" fill="#BABAF3"/>
<path d="M36.7743 13.4839H39.2259L40.4517 1.22584H35.5485L36.7743 13.4839Z" fill="#5252CC"/>
<path d="M39.2259 62.5162H36.7743L35.5485 74.7742H40.4517L39.2259 62.5162Z" fill="#5252CC"/>
<path d="M62.5162 36.7742V39.2258L74.7743 40.4516V35.5484L62.5162 36.7742Z" fill="#5252CC"/>
<path d="M13.4838 39.2258V36.7742L1.2257 35.5484V40.4516L13.4838 39.2258Z" fill="#5252CC"/>
<path d="M29.4194 31.871H31.871V29.4194C31.871 26.0398 34.6205 23.2903 38 23.2903H41.6774V20.8387H38C33.2696 20.8387 29.4194 24.689 29.4194 29.4194V31.871Z" fill="#5252CC"/>
<path d="M33.0968 50.258H38V47.8064H33.0968C32.4201 47.8064 31.871 47.2573 31.871 46.5806V34.3226H29.4194V46.5806C29.4194 48.6081 31.0693 50.258 33.0968 50.258Z" fill="#5252CC"/>
<path d="M41.6774 35.5484H39.2258V46.5807H41.6774V35.5484Z" fill="#5252CC"/>
<path d="M41.6774 30.6452H39.2258V33.0968H41.6774V30.6452Z" fill="#5252CC"/>
<path d="M34.3227 55.1613H38.0001C42.7305 55.1613 46.5807 51.311 46.5807 46.5806V42.9032H44.1291V46.5806C44.1291 49.9602 41.3797 52.7097 38.0001 52.7097H34.3227V55.1613Z" fill="#5252CC"/>
<path d="M34.3227 45.3549H36.7743V29.4194C36.7743 28.7428 37.3235 28.1936 38.0001 28.1936H42.9033C43.58 28.1936 44.1291 28.7428 44.1291 29.4194V40.4517H46.5807V29.4194C46.5807 27.3919 44.9308 25.742 42.9033 25.742H38.0001C35.9726 25.742 34.3227 27.3919 34.3227 29.4194V45.3549Z" fill="#5252CC"/>
<path d="M25.6389 51.9742L27.8846 50.9935C27.2766 49.5998 26.9677 48.1153 26.9677 46.5806V29.4193C26.9677 24.1925 30.6782 19.646 35.7922 18.6089L35.3044 16.2051C29.0527 17.4751 24.516 23.0317 24.516 29.4193V46.5806C24.516 48.4549 24.8936 50.2703 25.6389 51.9742Z" fill="#5252CC"/>
<path d="M49.0322 39.2258H51.4838V29.4193C51.4838 21.9848 45.4345 15.9354 38 15.9354V18.3871C44.0836 18.3871 49.0322 23.3356 49.0322 29.4193V39.2258Z" fill="#5252CC"/>
<path d="M51.4838 41.6774H49.0322V44.1291H51.4838V41.6774Z" fill="#5252CC"/>
<path d="M38 60.0645C45.4345 60.0645 51.4838 54.0152 51.4838 46.5806H49.0322C49.0322 52.6643 44.0836 57.6129 38 57.6129C37.2596 57.6129 36.5155 57.5381 35.7911 57.391L35.3056 59.7948C36.1894 59.9738 37.0965 60.0645 38 60.0645Z" fill="#5252CC"/>
<path d="M32.6064 58.9416L33.5871 56.696C31.844 55.9335 30.3179 54.7249 29.1717 53.1987L27.2105 54.6709C28.6115 56.5342 30.476 58.0113 32.6064 58.9416Z" fill="#5252CC"/>
<path d="M36.7743 14.7097H39.2259C39.856 14.7097 40.3831 14.2316 40.4456 13.6065L41.6714 1.34839C41.7057 1.00394 41.5929 0.659484 41.36 0.40329C41.1283 0.145871 40.7974 0 40.4517 0H35.5485C35.2028 0 34.8718 0.145871 34.6402 0.40329C34.4085 0.659484 34.2945 1.00271 34.3288 1.34839L35.5546 13.6065C35.6171 14.2316 36.1442 14.7097 36.7743 14.7097ZM38.1165 12.2581H37.8849L36.9042 2.45161H39.0972L38.1165 12.2581Z" fill="#BABAF3"/>
<path d="M35.5485 76H40.4517C40.7974 76 41.1284 75.8541 41.3601 75.5967C41.5917 75.3405 41.7057 74.9973 41.6714 74.6516L40.4456 62.3935C40.3831 61.7684 39.856 61.2903 39.2259 61.2903H36.7743C36.1443 61.2903 35.6172 61.7684 35.5547 62.3935L34.3288 74.6516C34.2945 74.9961 34.4073 75.3405 34.6402 75.5967C34.8719 75.8541 35.2028 76 35.5485 76ZM39.0972 73.5484H36.9043L37.8849 63.7419H38.1166L39.0972 73.5484Z" fill="#BABAF3"/>
<path d="M74.7742 41.6774C75.077 41.6774 75.3699 41.5646 75.5967 41.3599C75.8541 41.1282 76 40.7973 76 40.4516V35.5484C76 35.2027 75.8541 34.8717 75.5967 34.6401C75.3393 34.4084 74.9948 34.3005 74.6516 34.3287L62.3935 35.5545C61.7684 35.617 61.2903 36.1441 61.2903 36.7742V39.2258C61.2903 39.8559 61.7684 40.383 62.3935 40.4455L74.6516 41.6713C74.6933 41.675 74.7337 41.6774 74.7742 41.6774ZM73.5484 36.9029V39.0959L63.7419 38.1152V37.8835L73.5484 36.9029Z" fill="#BABAF3"/>
<path d="M1.22585 41.6775C1.2663 41.6775 1.30675 41.675 1.34842 41.6713L13.6065 40.4455C14.2317 40.383 14.7097 39.8559 14.7097 39.2259V36.7742C14.7097 36.1442 14.2317 35.6171 13.6065 35.5546L1.34842 34.3288C1.00397 34.3018 0.659521 34.4072 0.403328 34.6401C0.145908 34.8718 3.91006e-05 35.2028 3.91006e-05 35.5484V40.4517C3.91006e-05 40.7973 0.145908 41.1283 0.403328 41.36C0.630102 41.5647 0.923071 41.6775 1.22585 41.6775ZM12.2581 38.1165L2.45165 39.0971V36.9042L12.2581 37.8848V38.1165Z" fill="#BABAF3"/>
</svg>
