<svg width="82" height="82" viewBox="0 0 82 82" fill="none" xmlns="http://www.w3.org/2000/svg">
<path d="M22.813 36.223C21.7075 36.6046 20.4494 36.1698 19.8313 35.1238C19.125 33.9277 19.521 32.3855 20.7159 31.6792L32.1064 24.9451L35.2476 12.3616C35.5842 11.0141 36.9487 10.1951 38.2956 10.5317C39.6425 10.8689 40.4615 12.234 40.1255 13.5816L36.7297 27.1855C36.5664 27.8386 36.1491 28.3985 35.5698 28.7407L23.2747 36.0097C23.1252 36.0979 22.9706 36.1686 22.813 36.223Z" fill="#E6AF78"/>
<path d="M24.6409 64.8084C24.156 64.9755 23.6161 64.9961 23.0894 64.8353L17.6265 63.1662C16.2984 62.7608 15.5508 61.355 15.9555 60.0269C16.3609 58.6981 17.7654 57.9505 19.0936 58.3559L22.1897 59.3018L26.4983 45.9369C26.6654 45.4176 26.9963 44.9672 27.4424 44.6538L41.8276 34.5126C42.9631 33.7125 44.5303 33.9846 45.3304 35.1201C46.13 36.2556 45.8591 37.8246 44.7242 38.6241L31.0252 48.281L26.2149 63.2025C25.9628 63.9845 25.3635 64.5588 24.6409 64.8084Z" fill="#E6AF78"/>
<path d="M69.6592 64.8184C69.2382 64.9635 68.774 64.9992 68.306 64.8972C66.9516 64.6026 66.117 63.2319 66.3904 61.8743L66.9422 59.1385L50.4918 53.8371C49.8731 53.6375 49.355 53.2058 49.0472 52.6321L41.0613 37.7583C40.9581 37.5656 40.8799 37.3604 40.8299 37.1477L35.2407 13.5509C35.0304 12.6632 35.317 11.731 35.9895 11.1154C36.6627 10.4998 37.6161 10.2971 38.4807 10.5855L53.3846 15.5585C54.0603 15.7837 54.6083 16.2854 54.893 16.9373L60.7918 30.453C61.3474 31.7261 60.7662 33.2082 59.4937 33.7637C58.2231 34.3193 56.7391 33.7375 56.1842 32.4643L50.9028 20.3625C50.7952 20.116 50.5881 19.9271 50.3329 19.842L41.1727 16.7859L45.6458 35.6693L52.7584 48.9166C52.911 49.2013 53.1681 49.4153 53.4759 49.5147L70.6202 55.0401C71.8382 55.4324 72.5677 56.6773 72.3143 57.9317L71.3052 62.9384C71.1225 63.8443 70.4738 64.5375 69.6592 64.8184Z" fill="#F0C087"/>
<path d="M39.7531 6.65671C39.4484 9.34621 37.0223 11.2787 34.3334 10.9734C31.6452 10.6675 29.712 8.2395 30.0173 5.55C30.322 2.85988 32.7481 0.92737 35.437 1.23329C38.1252 1.53859 40.0577 3.96721 39.7531 6.65671Z" fill="#E6AF78"/>
<path d="M1.20117 69.5881H80.7988V80.799H1.20117V69.5881Z" fill="#8586EE"/>
<path d="M75.9941 69.5881H80.7988V80.799H75.9941V69.5881Z" fill="#6565E2"/>
<path d="M34.5105 69.6137C34.5105 70.9406 33.4351 72.0161 32.1082 72.0161C30.7812 72.0161 29.7058 70.9406 29.7058 69.6137C29.7058 68.2868 30.7812 67.2114 32.1082 67.2114C33.4351 67.2114 34.5105 68.2868 34.5105 69.6137Z" fill="white"/>
<path d="M67.0522 75.1935C67.0522 76.5205 65.9768 77.5959 64.6499 77.5959C63.3236 77.5959 62.2476 76.5205 62.2476 75.1935C62.2476 73.8666 63.3236 72.7912 64.6499 72.7912C65.9768 72.7912 67.0522 73.8666 67.0522 75.1935Z" fill="white"/>
<path d="M17.2756 64.3155L22.7378 65.984C23.0951 66.0928 23.4598 66.1473 23.8252 66.1473C24.2324 66.1473 24.6391 66.0791 25.0326 65.9439C26.1318 65.5642 27.0014 64.6777 27.3586 63.571L32.045 49.0318L41.9879 42.0231L47.9887 53.2009C48.4454 54.0517 49.2037 54.6836 50.1233 54.9801L65.5527 59.9525L65.213 61.6372C64.8064 63.653 66.0795 65.6424 68.0502 66.0709C70.1028 66.517 72.0785 65.1788 72.4826 63.1756L73.4924 58.1695C73.8658 56.3139 72.7898 54.4771 70.9887 53.8972L53.8444 48.3718C53.8326 48.368 53.8225 48.3593 53.8163 48.348L46.7788 35.2396L42.8387 18.6078L49.8468 20.9463L55.0831 32.9449C55.9033 34.8261 58.0917 35.6869 59.9742 34.8649C61.851 34.0453 62.7118 31.8507 61.8923 29.9726L60.4396 26.6443C60.1744 26.0363 59.4668 25.7591 58.8581 26.0237C58.2506 26.289 57.9728 26.9972 58.2381 27.6053L59.6908 30.9335C59.9804 31.5979 59.6764 32.3737 59.0126 32.6633C58.3507 32.9536 57.575 32.6496 57.2847 31.9839L52.0033 19.8821C51.7599 19.3253 51.2901 18.8955 50.7133 18.7029L41.5531 15.6467C41.1395 15.5085 40.6841 15.6055 40.3625 15.8995C40.0403 16.1935 39.904 16.639 40.0041 17.0631L44.4772 35.9465C44.501 36.0485 44.5385 36.1461 44.5873 36.2381L51.6998 49.4854C52.0014 50.0466 52.5013 50.4632 53.1075 50.6584L70.2517 56.1838C70.8892 56.389 71.2696 57.0384 71.1369 57.6946L70.1278 62.7008C69.9852 63.4046 69.292 63.8832 68.5613 63.7243C67.865 63.5729 67.4189 62.849 67.5678 62.1121L68.1196 59.3763C68.2404 58.7776 67.8919 58.1832 67.3107 57.9956L50.8603 52.6941C50.535 52.5897 50.2672 52.3657 50.1052 52.0648L42.1193 37.1903C42.0648 37.0895 42.0242 36.9826 41.9979 36.8718L36.4093 13.2744C36.2992 12.8109 36.4493 12.3235 36.8003 12.0019C37.1488 11.6835 37.6468 11.5746 38.101 11.7254L53.0042 16.6978C53.3565 16.8154 53.6442 17.0781 53.7925 17.4178L56.188 22.9076C56.4532 23.515 57.1614 23.7934 57.7695 23.5276C58.377 23.2623 58.6548 22.5547 58.3895 21.9466L55.994 16.4569C55.5743 15.4947 54.7616 14.7521 53.765 14.4193L39.7788 9.75287C40.4188 8.89641 40.823 7.88292 40.9469 6.79186C41.3254 3.44922 38.9149 0.420014 35.5722 0.0396432C33.9538 -0.143661 32.3591 0.313661 31.0847 1.32903C29.8097 2.34377 29.0071 3.79518 28.8238 5.41489C28.4497 8.71311 30.7913 11.7054 34.0639 12.1502C34.0432 12.2397 34.0264 12.3304 34.0126 12.4217C33.9331 12.6019 34.129 11.9106 31.0628 24.1676L20.1046 30.6451C18.3411 31.688 17.7549 33.9709 18.7971 35.7351C19.8331 37.4874 22.1135 38.0918 23.8858 37.0439L36.181 29.7749C36.7421 29.4427 37.2051 28.9647 37.5241 28.4029L39.0813 34.9787L26.7499 43.6716C26.0961 44.132 25.6006 44.8058 25.3541 45.5684L23.8001 50.39C23.5968 51.0213 23.9434 51.6982 24.5746 51.9021C24.6973 51.9415 24.8218 51.9603 24.9437 51.9603C25.4511 51.9603 25.9228 51.6362 26.0867 51.127L27.6408 46.3054C27.7277 46.0358 27.9029 45.798 28.1344 45.6354L39.6787 37.4968C39.8577 38.19 40.1198 38.494 40.843 39.8904L30.3328 47.2995C30.12 47.4496 29.9618 47.6649 29.8817 47.9126L25.072 62.834C24.9437 63.2307 24.6441 63.5366 24.2493 63.673C23.9866 63.7631 23.7069 63.7681 23.4398 63.6861L17.9776 62.0176C17.285 61.8062 16.8928 61.0698 17.1042 60.3773C17.7204 58.3559 20.5851 60.3397 21.8388 60.4505C22.4676 60.6425 23.1314 60.2953 23.3328 59.6703L24.5158 56.0011C24.7192 55.3699 24.3719 54.693 23.7407 54.4896C23.1101 54.2863 22.4325 54.6329 22.2292 55.2648L21.4097 57.8079L19.4446 57.2073C17.4802 56.6073 15.4063 57.7115 14.807 59.6766C14.2095 61.636 15.3169 63.7168 17.2756 64.3155ZM31.2105 5.68515C31.4257 3.78267 33.0366 2.40257 34.8766 2.40257C37.0912 2.40257 38.8079 4.3307 38.5595 6.52159C38.4013 7.92046 37.4897 9.03154 36.2973 9.52577C36.2854 9.53015 36.2736 9.53516 36.2617 9.54016C33.6823 10.5768 30.8952 8.46974 31.2105 5.68515ZM35.5641 26.8946C35.4797 27.233 35.2588 27.529 34.9591 27.7066L22.6634 34.9756C22.0278 35.3516 21.227 35.1239 20.8654 34.5126C20.4969 33.8889 20.704 33.0819 21.3271 32.7134L32.7176 25.9793C32.9941 25.816 33.1943 25.5483 33.2719 25.2361L35.0686 18.0372L36.3868 23.6001L35.5641 26.8946Z" fill="black"/>
<path d="M80.7988 68.3869H35.4965C34.9935 67.0024 33.6647 66.0102 32.1082 66.0102C30.5517 66.0102 29.2229 67.0024 28.7199 68.3869H1.20117C0.537399 68.3869 0 68.9249 0 69.5881V80.799C0 81.4628 0.537399 82.0002 1.20117 82.0002H80.7988C81.4626 82.0002 82 81.4628 82 80.799V69.5881C82 68.9249 81.4626 68.3869 80.7988 68.3869ZM32.1082 68.4125C32.7707 68.4125 33.3094 68.9512 33.3094 69.6137C33.3094 70.2762 32.7707 70.8149 32.1082 70.8149C31.4457 70.8149 30.907 70.2762 30.907 69.6137C30.907 68.9512 31.4457 68.4125 32.1082 68.4125ZM2.40234 79.5978V76.3947H10.3032C10.9669 76.3947 11.5043 75.8573 11.5043 75.1935C11.5043 74.5304 10.9669 73.9924 10.3032 73.9924H2.40234V70.7892H28.7017C29.1904 72.2006 30.5329 73.2172 32.1082 73.2172C33.6835 73.2172 35.026 72.2006 35.5146 70.7892H79.5977V73.9924H68.0476C67.5522 72.5941 66.2165 71.59 64.6499 71.59C63.084 71.59 61.7484 72.5941 61.2523 73.9924H15.375C14.7112 73.9924 14.1738 74.5304 14.1738 75.1935C14.1738 75.8573 14.7112 76.3947 15.375 76.3947H61.2523C61.7484 77.7929 63.084 78.797 64.6499 78.797C66.2165 78.797 67.5522 77.7929 68.0476 76.3947H79.5977V79.5978H2.40234ZM63.4488 75.1873C63.4525 74.5279 63.9899 73.9924 64.6499 73.9924C65.3125 73.9924 65.8511 74.5316 65.8511 75.1935C65.8511 75.856 65.3125 76.3947 64.6499 76.3947C63.9899 76.3947 63.4525 75.8598 63.4488 75.1998C63.4488 75.1979 63.4488 75.196 63.4488 75.1935C63.4488 75.1917 63.4488 75.1898 63.4488 75.1873Z" fill="black"/>
</svg>
