<svg width="74" height="74" viewBox="0 0 74 74" fill="none" xmlns="http://www.w3.org/2000/svg">
<path d="M34.6932 27.1336C34.0146 28.2701 32.82 28.9989 31.4994 29.0825C31.4994 29.0825 29.8464 35.1872 26.5289 36.7042C23.2109 38.2212 23.2109 38.2336 19.9059 38.2336C16.6004 38.2336 16.5885 38.2336 13.2705 36.7042C9.95308 35.1748 8.30001 29.0825 8.30001 29.0825C7.56663 29.0689 6.85696 28.8177 6.27771 28.3672H7.40008V20.9052H7.42436C7.4125 20.8685 7.4125 20.8437 7.40008 20.8064V18.5001C7.4125 18.932 7.43678 19.3267 7.46162 19.7337C10.4956 16.7985 13.6776 14.8129 17.4145 16.5021C18.8886 17.1683 20.5778 17.1683 22.0519 16.5021C25.7888 14.8129 28.9707 16.7985 32.0047 19.7337C32.0296 19.3391 32.0544 18.9693 32.0663 18.5498V27.1336H34.6932Z" fill="#FFD8AA"/>
<path d="M17.2668 32.0668C9.57836 32.0668 6.81645 29.5273 6.52795 29.2388C6.08137 28.7556 6.09322 28.0069 6.55448 27.5378C7.01518 27.068 7.76381 27.0438 8.25499 27.4813C8.33629 27.5502 10.6855 29.6002 17.2668 29.6002C17.9477 29.6002 18.5004 30.1523 18.5004 30.8338C18.5004 31.5147 17.9477 32.0668 17.2668 32.0668Z" fill="#94567C"/>
<path d="M32.0663 18.2783V18.5498C32.0545 18.9693 32.0296 19.3391 32.0048 19.7337C28.9708 16.7985 25.7888 14.8129 22.0519 16.5021C20.5778 17.1683 18.8886 17.1683 17.4145 16.5021C13.6776 14.8129 10.4957 16.7985 7.46168 19.7337C7.43684 19.3267 7.41257 18.932 7.40015 18.5001V18.2783C7.52153 11.8845 12.5033 6.64073 18.8824 6.19189L19.7332 6.16705C20.0172 6.16705 20.3006 6.17947 20.584 6.19189C26.9637 6.64073 31.9449 11.8845 32.0663 18.2783Z" fill="#8B685A"/>
<path d="M37.0001 18.5001H32.0663V18.2783C31.9449 11.8845 26.9637 6.64074 20.5841 6.1919C20.3006 6.17948 20.0172 6.16706 19.7332 6.16706L18.8824 6.1919C12.5033 6.64074 7.52154 11.8845 7.40015 18.2783V18.5001H2.46692C2.46692 8.96452 10.197 1.23383 19.7332 1.23383C29.2694 1.23383 37.0001 8.96452 37.0001 18.5001Z" fill="#9999FF"/>
<path d="M41.9576 56.672C41.3293 56.6698 40.8003 56.1995 40.7246 55.5756C40.5569 54.9473 40.9222 54.3003 41.5472 54.1202C42.2106 53.9316 42.9033 54.3042 43.1122 54.9614C43.1269 55.0082 43.1506 55.1042 43.1602 55.1522C43.2771 55.5147 43.2065 55.911 42.9716 56.2108C42.7283 56.5196 42.3506 56.6912 41.9576 56.672Z" fill="black"/>
<path d="M7.40014 18.5001V28.3673H2.77512C1.89889 28.3334 1.21236 27.6028 1.23325 26.7266V20.1408C1.21236 19.2646 1.89889 18.534 2.77512 18.5001H7.40014Z" fill="#7C7CE6"/>
<path d="M38.2332 19.9432V25.6906C38.2202 26.0864 38.0509 26.4612 37.7612 26.7317C37.4722 27.0027 37.0877 27.1472 36.6914 27.1337H32.0663V18.5001H36.7777C37.5699 18.5176 38.209 19.1516 38.2332 19.9432Z" fill="#7C7CE6"/>
<path d="M69.2264 61.6668C68.5478 62.8033 67.3532 63.5322 66.0321 63.6157C66.0321 63.6157 64.3796 69.7205 61.0621 71.2375C57.7441 72.7545 57.7441 72.7669 54.4391 72.7669C51.1336 72.7669 51.1211 72.7669 47.8037 71.2375C44.4863 69.708 42.8332 63.6157 42.8332 63.6157C42.0998 63.6022 41.3902 63.351 40.8109 62.9004H41.9333V55.4385H41.9576C41.9457 55.4018 41.9457 55.3769 41.9333 55.3397V53.0334C41.9457 53.4653 41.97 53.8599 41.9948 54.267C45.0288 51.3318 48.2108 49.3462 51.9477 51.0354C53.4218 51.7016 55.111 51.7016 56.5851 51.0354C60.322 49.3462 63.5039 51.3318 66.5379 54.267C66.5628 53.8724 66.587 53.502 66.5995 53.0831V61.6668H69.2264Z" fill="#F0C087"/>
<path d="M69.2264 61.6668C68.5478 62.8033 67.3532 63.5322 66.0321 63.6157C66.0321 63.6157 64.3796 69.7204 61.0622 71.2374C57.7442 72.7544 57.7442 72.7669 54.4392 72.7669H53.7114C54.9428 72.4513 56.1312 71.9872 57.2513 71.3854C60.5687 69.8684 62.2212 63.7636 62.2212 63.7636C63.8952 63.6502 65.4619 62.8998 66.5995 61.6668H69.2264Z" fill="#E6AF78"/>
<path d="M66.5995 52.8115V53.083C66.587 53.5019 66.5628 53.8723 66.5379 54.2669C63.5039 51.3317 60.322 49.3461 56.5851 51.0353C55.111 51.7015 53.4218 51.7015 51.9477 51.0353C48.2108 49.3461 45.0288 51.3317 41.9948 54.2669C41.97 53.8599 41.9457 53.4652 41.9333 53.0333V52.8115C42.0547 46.4177 47.0365 41.1739 53.4156 40.7251L54.2664 40.7003C54.5498 40.7003 54.8338 40.7127 55.1172 40.7251C61.4963 41.1739 66.4781 46.4177 66.5995 52.8115Z" fill="#5A4146"/>
<path d="M71.5328 53.0334H66.5995V52.8115C66.4781 46.4177 61.4964 41.174 55.1173 40.7251C54.8338 40.7127 54.5499 40.7003 54.2664 40.7003L53.4156 40.7251C47.0365 41.174 42.0547 46.4177 41.9334 52.8115V53.0334H37.0001C37.0001 46.8649 40.291 41.1644 45.633 38.0801C50.9756 34.9958 57.5573 34.9958 62.8999 38.0801C68.2419 41.1644 71.5328 46.8649 71.5328 53.0334Z" fill="#AAABFF"/>
<path d="M71.5327 53.0334H67.8331C67.8337 44.213 61.1858 36.8109 52.4163 35.8658C53.0311 35.8015 53.6482 35.7682 54.2664 35.767C63.8026 35.767 71.5327 43.4977 71.5327 53.0334Z" fill="#8586EE"/>
<path d="M41.9333 53.0334V62.9005H37.3083C36.4321 62.8666 35.7456 62.1361 35.7665 61.2599V54.6741C35.7456 53.7978 36.4321 53.0673 37.3083 53.0334H41.9333Z" fill="#8586EE"/>
<path d="M72.7664 54.4764V60.2239C72.7534 60.6196 72.584 60.9945 72.2944 61.2649C72.0053 61.5354 71.6203 61.6805 71.2245 61.6669H66.5995V53.0334H71.3109C72.103 53.0509 72.7421 53.6849 72.7664 54.4764Z" fill="#8586EE"/>
<path d="M69.0661 54.4764V60.2239C69.0537 60.6196 68.8838 60.9945 68.5947 61.2649C68.3056 61.5354 67.9206 61.6805 67.5248 61.6669H66.5995V53.0334H67.6112C68.4028 53.0509 69.0424 53.6849 69.0661 54.4764Z" fill="#8586EE"/>
<path d="M19.906 39.4666C16.418 39.4666 16.2171 39.4214 12.7528 37.8242C9.67818 36.4179 7.9647 32.0769 7.35327 30.2093C6.70006 30.054 6.0858 29.7655 5.55003 29.3607C5.19491 29.0999 5.00578 28.6697 5.05433 28.2316C5.10232 27.7935 5.38065 27.4146 5.78432 27.2374C6.18799 27.0606 6.65489 27.112 7.01001 27.3729C7.37755 27.6687 7.83146 27.8358 8.30288 27.8488C8.85955 27.8488 9.34734 28.222 9.493 28.7589C9.91474 30.303 11.5057 34.5395 13.786 35.5829C16.8595 36.9999 16.8595 36.9999 19.906 36.9999C22.9524 36.9999 22.9411 36.9999 26.0124 35.5846C28.2961 34.5395 29.8871 30.303 30.3088 28.7589C30.455 28.222 30.9428 27.8488 31.4995 27.8488C32.4118 27.7613 33.2237 27.234 33.6759 26.4368C34.0643 25.8841 34.8248 25.7469 35.382 26.1285C35.9393 26.5102 36.0855 27.2684 35.7112 27.8302C34.962 29.0067 33.7956 29.8558 32.4463 30.2081C31.8297 32.0757 30.1202 36.4179 27.0422 37.8253C23.5825 39.4214 23.3815 39.4666 19.906 39.4666Z" fill="black"/>
<path d="M7.42437 22.1388C6.796 22.1366 6.26699 21.6663 6.19133 21.0424C6.02366 20.4141 6.38894 19.7671 7.01393 19.587C7.6773 19.3973 8.37117 19.7699 8.57894 20.4282C8.59361 20.475 8.61733 20.571 8.62692 20.619C8.74379 20.9815 8.67322 21.3778 8.43836 21.6776C8.19502 21.9864 7.81732 22.158 7.42437 22.1388Z" fill="black"/>
<path d="M7.46163 20.9668C7.30751 20.9673 7.15451 20.9386 7.01167 20.8821C6.5617 20.7054 6.25684 20.2825 6.23087 19.8004C6.20094 19.2759 6.17892 18.853 6.1665 18.3957L7.18386 18.2992C9.93841 15.7626 13.5664 13.4077 17.9226 15.3786C19.076 15.9031 20.3994 15.9031 21.5522 15.3786C25.3829 13.6522 28.6529 15.2669 31.2612 17.41C31.4791 17.1954 31.7766 17.0803 32.0826 17.0921C32.4016 17.0865 32.7099 17.2084 32.9385 17.4314C33.1672 17.6544 33.297 17.9593 33.2999 18.2783C33.2874 18.853 33.2654 19.2759 33.2417 19.6993C33.2169 20.195 32.9131 20.6337 32.4575 20.8313C32.0172 21.0238 31.5051 20.9414 31.1477 20.6207C27.7055 17.2903 25.2152 16.4271 22.56 17.6262C20.7647 18.4324 18.7102 18.4324 16.9148 17.6262C14.2512 16.4237 11.7597 17.2869 8.31865 20.6167C8.08944 20.8403 7.78175 20.9662 7.46163 20.9668Z" fill="black"/>
<path d="M20.5857 7.42494H20.5298C20.2633 7.41252 19.9997 7.40066 19.7332 7.40066L18.9168 7.42494C18.2421 7.42663 17.6849 6.89988 17.6488 6.22634C17.6296 5.54546 18.1659 4.97806 18.8462 4.9583L19.6987 4.93402C20.0589 4.93402 20.3328 4.94588 20.6325 4.95943C21.3134 4.97241 21.8554 5.5353 21.8424 6.21618C21.8295 6.89762 21.2666 7.43905 20.5857 7.42607V7.42494Z" fill="black"/>
<path d="M7.40012 29.6004H2.7751C1.2163 29.5665 -0.0229507 28.2815 0.000196993 26.7233V20.1442C-0.0229507 18.586 1.2163 17.301 2.7751 17.2672H7.40012C8.081 17.2672 8.63316 17.8193 8.63316 18.5002V28.3673C8.63316 29.0482 8.081 29.6004 7.40012 29.6004ZM2.7751 19.7338C2.60742 19.7338 2.46684 19.9212 2.46684 20.1442V26.7233C2.46684 26.9463 2.60742 27.1337 2.7751 27.1337H6.16652V19.7338H2.7751Z" fill="black"/>
<path d="M36.6914 28.3673H32.0664C31.3855 28.3673 30.8333 27.8151 30.8333 27.1337V18.5002C30.8333 17.8193 31.3855 17.2671 32.0664 17.2671H36.6914C38.1948 17.2417 39.4358 18.4364 39.4668 19.9398V25.6946C39.4358 27.1975 38.1948 28.3927 36.6914 28.3673ZM33.3 25.9007H36.6914C36.8692 25.9007 37.0002 25.7917 37.0002 25.6946V19.9398C37.0002 19.8422 36.8692 19.7338 36.6914 19.7338H33.3V25.9007Z" fill="black"/>
<path d="M17.2668 32.0668C9.57836 32.0668 6.81645 29.5273 6.52795 29.2388C6.08137 28.7556 6.09322 28.0069 6.55448 27.5378C7.01518 27.068 7.76381 27.0438 8.25499 27.4813C8.33629 27.5502 10.6855 29.6002 17.2668 29.6002C17.9477 29.6002 18.5004 30.1523 18.5004 30.8338C18.5004 31.5147 17.9477 32.0668 17.2668 32.0668Z" fill="black"/>
<path d="M27.1331 72.7669C27.1331 73.4477 26.5809 73.9999 25.9 73.9999C25.2186 73.9999 24.6664 73.4477 24.6664 72.7669C24.6664 72.0854 25.2186 71.5333 25.9 71.5333C26.5809 71.5333 27.1331 72.0854 27.1331 72.7669Z" fill="black"/>
<path d="M32.0663 72.7669C32.0663 73.4477 31.5142 73.9999 30.8333 73.9999C30.1518 73.9999 29.5997 73.4477 29.5997 72.7669C29.5997 72.0854 30.1518 71.5333 30.8333 71.5333C31.5142 71.5333 32.0663 72.0854 32.0663 72.7669Z" fill="black"/>
<path d="M44.3999 9.86727C44.3999 10.5482 43.8478 11.1003 43.1663 11.1003C42.4854 11.1003 41.9333 10.5482 41.9333 9.86727C41.9333 9.18582 42.4854 8.63367 43.1663 8.63367C43.8478 8.63367 44.3999 9.18582 44.3999 9.86727Z" fill="black"/>
<path d="M49.3332 9.86727C49.3332 10.5482 48.7811 11.1003 48.0996 11.1003C47.4187 11.1003 46.8666 10.5482 46.8666 9.86727C46.8666 9.18582 47.4187 8.63367 48.0996 8.63367C48.7811 8.63367 49.3332 9.18582 49.3332 9.86727Z" fill="black"/>
<path d="M37.0001 19.7337H32.0663C31.3854 19.7337 30.8333 19.1816 30.8333 18.5002C30.8333 12.37 25.8633 7.40066 19.7332 7.40066C13.6031 7.40066 8.63313 12.37 8.63313 18.5002C8.63313 19.1816 8.08098 19.7337 7.4001 19.7337H2.46687C1.78543 19.7337 1.23328 19.1816 1.23328 18.5002C1.23328 8.28309 9.51612 0.000244141 19.7332 0.000244141C29.9503 0.000244141 38.2331 8.28309 38.2331 18.5002C38.2331 18.8276 38.1033 19.1409 37.8718 19.3724C37.6409 19.6039 37.327 19.7337 37.0001 19.7337ZM33.2445 17.2671H35.7196C35.0794 8.91202 28.1131 2.45896 19.7332 2.45896C11.3532 2.45896 4.38698 8.91202 3.74675 17.2671H6.2224C6.85642 10.2783 12.7156 4.92614 19.7332 4.92614C26.7508 4.92614 32.61 10.2783 33.2445 17.2671Z" fill="black"/>
<path d="M54.4391 73.9999C50.9512 73.9999 50.7502 73.9547 47.286 72.3575C44.2113 70.9512 42.4967 66.6102 41.8847 64.7426C41.2309 64.5879 40.6161 64.2988 40.0792 63.894C39.5304 63.4909 39.4124 62.7191 39.8156 62.1698C40.2187 61.621 40.9904 61.503 41.5398 61.9062C41.9062 62.202 42.3601 62.3691 42.8309 62.3821C43.387 62.3821 43.8748 62.7541 44.0211 63.2911C44.4428 64.8363 46.0349 69.0728 48.3158 70.1162C51.3927 71.5332 51.3927 71.5332 54.4391 71.5332C57.4855 71.5332 57.4743 71.5332 60.545 70.1173C62.8292 69.0728 64.4202 64.8363 64.8419 63.2922C64.9881 62.7553 65.4754 62.3821 66.032 62.3821C66.945 62.2946 67.7568 61.7673 68.209 60.9701C68.4558 60.6003 68.882 60.392 69.3246 60.4242C69.7678 60.4563 70.1596 60.7245 70.3499 61.1259C70.5402 61.5273 70.4995 62.0004 70.2443 62.3635C69.4951 63.5395 68.3287 64.3891 66.9794 64.7414C66.3629 66.6085 64.6534 70.9512 61.5753 72.3587C58.1156 73.9547 57.9146 73.9999 54.4391 73.9999Z" fill="black"/>
<path d="M41.9576 56.672C41.3293 56.6698 40.8003 56.1995 40.7246 55.5756C40.5569 54.9473 40.9222 54.3003 41.5472 54.1202C42.2106 53.9316 42.9033 54.3042 43.1122 54.9614C43.1269 55.0082 43.1506 55.1042 43.1602 55.1522C43.2771 55.5147 43.2065 55.911 42.9716 56.2108C42.7283 56.5196 42.3506 56.6912 41.9576 56.672Z" fill="black"/>
<path d="M41.9948 55.5C41.8407 55.5005 41.6877 55.4718 41.5449 55.4153C41.0949 55.2386 40.79 54.8157 40.7641 54.3336C40.7341 53.8091 40.7121 53.3862 40.6997 52.9289L41.7171 52.8324C44.4711 50.2958 48.0996 47.9398 52.4558 49.9118C53.6087 50.4375 54.9326 50.4375 56.0854 49.9118C59.9161 48.1792 63.1861 49.7995 65.7944 51.9432C66.0287 51.7552 66.3155 51.6439 66.6158 51.6253C66.9348 51.6197 67.2431 51.7416 67.4717 51.9646C67.7004 52.1871 67.8302 52.4925 67.8331 52.8115C67.8206 53.3862 67.7986 53.8091 67.7749 54.2325C67.7501 54.7282 67.4458 55.1669 66.9907 55.3645C66.5504 55.5553 66.0394 55.4729 65.6809 55.1539C62.2387 51.8235 59.7484 50.9603 57.0932 52.1588C55.2979 52.9656 53.2434 52.9656 51.448 52.1588C48.7844 50.9569 46.2929 51.8201 42.8519 55.1499C42.6226 55.3735 42.3149 55.4994 41.9948 55.5Z" fill="black"/>
<path d="M55.119 41.9582H55.0631C54.7966 41.9457 54.5329 41.9339 54.2664 41.9339L53.4501 41.9582C52.7754 41.9599 52.2182 41.4331 52.182 40.7596C52.1628 40.0787 52.6992 39.5113 53.3795 39.4915L54.232 39.4667C54.5549 39.5017 54.8672 39.4791 55.1658 39.4926C55.8467 39.5056 56.3881 40.0685 56.3757 40.7494C56.3627 41.4308 55.7998 41.9723 55.119 41.9593V41.9582Z" fill="black"/>
<path d="M41.9334 64.1336H37.3084C35.7496 64.0997 34.5103 62.8147 34.5329 61.2565V54.6774C34.5103 53.1192 35.7496 51.8342 37.3084 51.8004H41.9334C42.6143 51.8004 43.1664 52.3525 43.1664 53.0334V62.9005C43.1664 63.5814 42.6143 64.1336 41.9334 64.1336ZM37.3084 54.267C37.1407 54.267 37.0001 54.4544 37.0001 54.6774V61.2565C37.0001 61.4795 37.1407 61.6669 37.3084 61.6669H40.6998V54.267H37.3084Z" fill="black"/>
<path d="M71.2245 62.9005H66.5995C65.9186 62.9005 65.3665 62.3483 65.3665 61.6669V53.0334C65.3665 52.3525 65.9186 51.8003 66.5995 51.8003H71.2245C72.728 51.7749 73.9689 52.9696 74 54.473V60.2278C73.9689 61.7307 72.728 62.9259 71.2245 62.9005ZM67.8331 60.4339H71.2245C71.4024 60.4339 71.5328 60.3249 71.5328 60.2278V54.473C71.5328 54.3754 71.4024 54.267 71.2245 54.267H67.8331V60.4339Z" fill="black"/>
<path d="M51.7999 66.6001C44.1114 66.6001 41.3495 64.0606 41.061 63.7721C40.6144 63.2888 40.6263 62.5402 41.0876 62.071C41.5483 61.6013 42.2969 61.577 42.7881 62.0146C42.8694 62.0835 45.2186 64.1334 51.7999 64.1334C52.4808 64.1334 53.0329 64.6856 53.0329 65.367C53.0329 66.0479 52.4808 66.6001 51.7999 66.6001Z" fill="black"/>
<path d="M71.5327 54.267H66.5995C65.9186 54.267 65.3665 53.7148 65.3665 53.0334C65.3665 46.9032 60.3965 41.9339 54.2664 41.9339C48.1363 41.9339 43.1663 46.9032 43.1663 53.0334C43.1663 53.7148 42.6142 54.267 41.9333 54.267H37.0001C36.3186 54.267 35.7665 53.7148 35.7665 53.0334C35.7665 42.8163 44.0493 34.5334 54.2664 34.5334C64.4835 34.5334 72.7663 42.8163 72.7663 53.0334C72.7663 53.7148 72.2142 54.267 71.5327 54.267ZM67.7777 51.8003H70.2528C69.6126 43.4447 62.6463 36.9922 54.2664 36.9922C45.8864 36.9922 38.9202 43.4447 38.28 51.8003H40.755C41.3896 44.8115 47.2488 39.4593 54.2664 39.4593C61.284 39.4593 67.1432 44.8115 67.7777 51.8003Z" fill="black"/>
<path d="M1.23346 73.9999C0.730987 73.9999 0.278764 73.6951 0.0901968 73.2293C-0.0983705 72.763 0.0151086 72.2294 0.376435 71.88L35.1823 38.2337H33.3C32.7902 38.2337 32.3324 37.9204 32.1489 37.4444C31.9654 36.9685 32.0936 36.4288 32.4713 36.0866L71.9377 0.319836C72.4424 -0.138032 73.2227 -0.0996412 73.6805 0.405087C74.1384 0.909815 74.1 1.69005 73.5953 2.14792L36.4978 35.7671H38.2333C38.7369 35.7643 39.1919 36.0686 39.3816 36.5349C39.5719 37.0018 39.459 37.537 39.0965 37.8871L2.09669 73.6539C1.86521 73.8774 1.55526 74.0016 1.23346 73.9999Z" fill="black"/>
<path d="M43.1663 6.16713C42.4854 6.16713 41.9333 5.61497 41.9333 4.93409V1.23385C41.9333 0.552402 42.4854 0.000244141 43.1663 0.000244141C43.8478 0.000244141 44.3999 0.552402 44.3999 1.23385V4.93409C44.3999 5.61497 43.8478 6.16713 43.1663 6.16713Z" fill="black"/>
<path d="M48.0996 6.16713C47.4187 6.16713 46.8666 5.61497 46.8666 4.93409V1.23385C46.8666 0.552402 47.4187 0.000244141 48.0996 0.000244141C48.7811 0.000244141 49.3332 0.552402 49.3332 1.23385V4.93409C49.3332 5.61497 48.7811 6.16713 48.0996 6.16713Z" fill="black"/>
<path d="M25.9 69.0667C25.2186 69.0667 24.6664 68.5146 24.6664 67.8337V64.1334C24.6664 63.4525 25.2186 62.9004 25.9 62.9004C26.5809 62.9004 27.1331 63.4525 27.1331 64.1334V67.8337C27.1331 68.5146 26.5809 69.0667 25.9 69.0667Z" fill="black"/>
<path d="M30.8333 69.0667C30.1518 69.0667 29.5997 68.5146 29.5997 67.8337V64.1334C29.5997 63.4525 30.1518 62.9004 30.8333 62.9004C31.5142 62.9004 32.0663 63.4525 32.0663 64.1334V67.8337C32.0663 68.5146 31.5142 69.0667 30.8333 69.0667Z" fill="black"/>
</svg>
