<svg width="84" height="84" viewBox="0 0 84 84" fill="none" xmlns="http://www.w3.org/2000/svg">
<path d="M82.7703 72.5189C82.7703 75.8379 81.8548 78.7451 80.1929 80.6088C79.4169 81.48 78.4784 82.1248 77.3907 82.4759C76.0241 82.9172 74.5737 82.8483 73.1448 82.3512C70.5001 81.4341 67.9226 79.0585 66.0638 75.7559H50.1596C47.2951 80.8467 42.7243 83.7342 38.8311 82.4759C37.745 82.1248 36.8066 81.48 36.0305 80.6088C33.3727 77.6278 32.6246 71.9824 34.4736 66.2517C36.5605 59.7893 41.2609 55.3531 45.6118 55.3531H70.587C74.9445 55.3367 79.6597 59.7778 81.7498 66.2517C82.4422 68.3977 82.7703 70.5321 82.7703 72.5189Z" fill="#CBCBFF"/>
<path d="M81.7499 66.2517C82.4422 68.3977 82.7704 70.5321 82.7704 72.5189C82.7704 75.8379 81.8549 78.7451 80.1929 80.6088C79.4169 81.48 78.4785 82.1248 77.3908 82.4759C76.0241 82.9172 74.5738 82.8483 73.1448 82.3512C74.0865 81.9821 74.9069 81.3865 75.5992 80.6088C77.2611 78.7451 78.1766 75.8379 78.1766 72.5189C78.1766 70.5321 77.8485 68.3977 77.1561 66.2517C75.0693 59.7893 70.3689 55.3531 66.0179 55.3531H70.5871C74.9446 55.3367 79.6597 59.7778 81.7499 66.2517Z" fill="#B3B3FB"/>
<path d="M64.189 50.4318H70.0942V55.3537H64.189V50.4318Z" fill="#466175"/>
<path d="M30.1602 7.17281V44.622H5.23256C3.02264 44.622 1.23108 42.8288 1.23108 40.6189V1.23047H24.2179C27.4991 1.23047 30.1602 3.89156 30.1602 7.17281Z" fill="#CDCEFF"/>
<path d="M30.1602 7.17281V44.622H5.2342C3.0233 44.622 1.23108 42.8298 1.23108 40.6189V34.798H24.2179H24.239C25.3279 34.8018 26.2227 33.9457 26.2227 32.8568V7.17281C26.2227 3.89156 23.5616 1.23047 20.2804 1.23047H24.2179C27.4998 1.23047 30.1602 3.89091 30.1602 7.17281Z" fill="#BABAF3"/>
<path d="M59.0897 1.23047V40.6189C59.0897 42.8288 57.2981 44.622 55.0865 44.622H30.1605V7.17281C30.1605 3.89156 32.82 1.23047 36.1012 1.23047H59.0897Z" fill="#CDCEFF"/>
<path d="M59.0897 1.23047V40.6189C59.0897 42.8288 57.2981 44.622 55.0865 44.622H30.1605V40.7403C30.1605 37.4574 32.82 34.798 36.1012 34.798H53.5476C54.6206 34.798 55.4901 33.9284 55.4901 32.8555V1.23047H59.0897Z" fill="#BABAF3"/>
<path d="M30.1603 44.622H5.23269C3.02276 44.622 1.2312 42.8288 1.2312 40.6189V38.6797H24.218C27.4992 38.6797 30.1603 41.3391 30.1603 44.622Z" fill="#AAABFF"/>
<path d="M59.0898 38.6797V40.6189C59.0898 42.8288 57.2982 44.622 55.0867 44.622H30.1606C30.1606 41.3391 32.8201 38.6797 36.1013 38.6797H59.0898Z" fill="#AAABFF"/>
<path d="M82.9137 65.8726C80.7839 59.2746 76.0915 54.582 71.3193 54.1544V50.4312C71.3193 49.7515 70.7682 49.2007 70.0883 49.2007H68.5648C69.1181 46.9719 71.1386 45.3147 73.5399 45.3147C79.3045 45.3147 83.9943 40.6311 83.9943 34.8738C83.9943 29.1168 79.3045 24.433 73.5399 24.433H60.4009V16.4711C60.4009 15.7913 59.8498 15.2406 59.17 15.2406C58.4901 15.2406 57.939 15.7913 57.939 16.4711V37.4491H36.1505C34.3458 37.4491 32.6944 38.1175 31.4316 39.2195V7.17199C31.4316 4.57423 33.5485 2.46094 36.1505 2.46094H57.9392V10.7445C57.9392 11.4242 58.4902 11.9749 59.1701 11.9749C59.85 11.9749 60.4011 11.4242 60.4011 10.7445V1.23047C60.4011 0.550758 59.85 0 59.1701 0H36.1505C33.6779 0 31.4933 1.25459 30.2011 3.15984C28.9099 1.25459 26.7269 0 24.2565 0H1.23096C0.551086 0 0 0.550758 0 1.23047V40.6189C0 43.5043 2.34839 45.8517 5.23507 45.8517H55.1622C58.0511 45.8517 60.4011 43.5043 60.4011 40.6189V26.8939H73.54C77.9471 26.8939 81.5325 30.4736 81.5325 34.8738C81.5325 39.2739 77.9471 42.8538 73.54 42.8538C69.7759 42.8538 66.6433 45.6056 66.0532 49.2007H64.1808C63.5009 49.2007 62.9498 49.7515 62.9498 50.4312V54.1226H57.6212C56.9413 54.1226 56.3903 54.6733 56.3903 55.3531C56.3903 56.0328 56.9413 56.5835 57.6212 56.5835H70.5858C74.485 56.5645 78.6872 60.7925 80.5709 66.6282C82.2289 71.7652 81.7048 77.0544 79.267 79.7898C78.6161 80.5199 77.8555 81.0295 77.006 81.3038C73.8122 82.3381 69.7508 79.8072 67.1309 75.1513C66.9129 74.7639 66.5027 74.5241 66.058 74.5241H50.1554C49.7106 74.5241 49.3005 74.7639 49.0824 75.1513C46.4625 79.8072 42.401 82.3385 39.207 81.3036C38.3578 81.0293 37.5972 80.5199 36.9464 79.7898C34.5084 77.0544 33.9844 71.7652 35.6424 66.6282C37.5229 60.803 41.7101 56.5835 45.611 56.5835H51.8546C52.5345 56.5835 53.0855 56.0328 53.0855 55.3531C53.0855 54.6733 52.5345 54.1226 51.8546 54.1226H45.6063C40.5919 54.1226 35.5343 58.949 33.2993 65.8726C31.3525 71.9042 32.0626 78.0096 35.1081 81.4268C36.054 82.4882 37.1784 83.2345 38.4492 83.6451C42.6789 85.0129 47.5986 82.3469 50.8612 76.9848H65.352C68.0449 81.4108 71.8666 84.0002 75.4975 84C76.2656 84 77.0254 83.884 77.7637 83.6453C79.0347 83.2345 80.159 82.488 81.1051 81.4267C84.1506 78.0094 84.8605 71.9042 82.9137 65.8726ZM28.9695 39.2196C27.7065 38.1176 26.0553 37.4492 24.2506 37.4492H13.3258C12.6459 37.4492 12.0949 38 12.0949 38.6797C12.0949 39.3594 12.6459 39.9102 13.3258 39.9102H24.2506C26.4264 39.9102 28.2629 41.3879 28.8063 43.3908H5.23507C3.70601 43.3908 2.46192 42.1473 2.46192 40.6189V39.9102H7.63711C8.31698 39.9102 8.86807 39.3594 8.86807 38.6797C8.86807 38 8.31698 37.4492 7.63711 37.4492H2.46192V2.46094H24.2563C26.8551 2.46094 28.9695 4.57439 28.9695 7.17199V39.2196ZM57.9392 40.6189C57.9392 42.1473 56.6934 43.3908 55.1622 43.3908H31.5948C32.1382 41.3879 33.9747 39.9102 36.1505 39.9102H57.9392V40.6189ZM68.8574 54.1224H65.4116V51.6615H68.8574V54.1224Z" fill="black"/>
<path d="M46.3711 71.7656C47.051 71.7656 47.6021 71.2148 47.6021 70.5351V67.4581H50.6746C51.3545 67.4581 51.9056 66.9073 51.9056 66.2276C51.9056 65.5479 51.3545 64.9972 50.6746 64.9972H47.6021V61.9202C47.6021 61.2405 47.051 60.6897 46.3711 60.6897C45.6912 60.6897 45.1402 61.2405 45.1402 61.9202V64.9972H42.0678C41.3879 64.9972 40.8368 65.5479 40.8368 66.2276C40.8368 66.9073 41.3879 67.4581 42.0678 67.4581H45.1402V70.5351C45.1402 71.2148 45.6912 71.7656 46.3711 71.7656Z" fill="black"/>
<path d="M22.8358 7.95703H6.99439C6.31451 7.95703 5.76343 8.50779 5.76343 9.1875C5.76343 9.86721 6.31451 10.418 6.99439 10.418H22.8358C23.5156 10.418 24.0667 9.86721 24.0667 9.1875C24.0667 8.50779 23.5156 7.95703 22.8358 7.95703Z" fill="black"/>
<path d="M22.8358 15.2142H6.99439C6.31451 15.2142 5.76343 15.7649 5.76343 16.4446C5.76343 17.1244 6.31451 17.6751 6.99439 17.6751H22.8358C23.5156 17.6751 24.0667 17.1244 24.0667 16.4446C24.0667 15.7649 23.5156 15.2142 22.8358 15.2142Z" fill="black"/>
<path d="M22.8358 22.4711H6.99439C6.31451 22.4711 5.76343 23.0219 5.76343 23.7016C5.76343 24.3813 6.31451 24.9321 6.99439 24.9321H22.8358C23.5156 24.9321 24.0667 24.3813 24.0667 23.7016C24.0667 23.0219 23.5156 22.4711 22.8358 22.4711Z" fill="black"/>
<path d="M22.8358 29.7281H6.99439C6.31451 29.7281 5.76343 30.2788 5.76343 30.9586C5.76343 31.6383 6.31451 32.189 6.99439 32.189H22.8358C23.5156 32.189 24.0667 31.6383 24.0667 30.9586C24.0667 30.2788 23.5156 29.7281 22.8358 29.7281Z" fill="black"/>
<path d="M53.3996 7.95703H37.5582C36.8784 7.95703 36.3273 8.50779 36.3273 9.1875C36.3273 9.86721 36.8784 10.418 37.5582 10.418H53.3996C54.0795 10.418 54.6306 9.86721 54.6306 9.1875C54.6306 8.50779 54.0795 7.95703 53.3996 7.95703Z" fill="black"/>
<path d="M53.3996 15.2142H37.5582C36.8784 15.2142 36.3273 15.7649 36.3273 16.4446C36.3273 17.1244 36.8784 17.6751 37.5582 17.6751H53.3996C54.0795 17.6751 54.6306 17.1244 54.6306 16.4446C54.6306 15.7649 54.0795 15.2142 53.3996 15.2142Z" fill="black"/>
<path d="M53.3996 22.4711H37.5582C36.8784 22.4711 36.3273 23.0219 36.3273 23.7016C36.3273 24.3813 36.8784 24.9321 37.5582 24.9321H53.3996C54.0795 24.9321 54.6306 24.3813 54.6306 23.7016C54.6306 23.0219 54.0795 22.4711 53.3996 22.4711Z" fill="black"/>
<path d="M53.3996 29.7281H37.5582C36.8784 29.7281 36.3273 30.2788 36.3273 30.9586C36.3273 31.6383 36.8784 32.189 37.5582 32.189H53.3996C54.0795 32.189 54.6306 31.6383 54.6306 30.9586C54.6306 30.2788 54.0795 29.7281 53.3996 29.7281Z" fill="black"/>
<path d="M65.5382 67.4586C66.2181 67.4586 66.7692 66.9077 66.7692 66.2281C66.7692 65.5485 66.2181 64.9976 65.5382 64.9976C64.8584 64.9976 64.3073 65.5485 64.3073 66.2281C64.3073 66.9077 64.8584 67.4586 65.5382 67.4586Z" fill="black"/>
<path d="M74.1455 67.4582C74.8254 67.4582 75.3765 66.9073 75.3765 66.2277C75.3765 65.5482 74.8254 64.9973 74.1455 64.9973C73.4657 64.9973 72.9146 65.5482 72.9146 66.2277C72.9146 66.9073 73.4657 67.4582 74.1455 67.4582Z" fill="black"/>
<path d="M69.9071 63.2169C70.587 63.2169 71.1381 62.666 71.1381 61.9865C71.1381 61.3069 70.587 60.756 69.9071 60.756C69.2273 60.756 68.6761 61.3069 68.6761 61.9865C68.6761 62.666 69.2273 63.2169 69.9071 63.2169Z" fill="black"/>
<path d="M69.9071 71.6994C70.587 71.6994 71.1381 71.1485 71.1381 70.4689C71.1381 69.7894 70.587 69.2385 69.9071 69.2385C69.2273 69.2385 68.6761 69.7894 68.6761 70.4689C68.6761 71.1485 69.2273 71.6994 69.9071 71.6994Z" fill="black"/>
</svg>
