<svg width="90" height="90" viewBox="0 0 90 90" fill="none" xmlns="http://www.w3.org/2000/svg">
<path d="M7.67859 34.8392H30.7322V76.6964H7.67859V34.8392Z" fill="#7373E0" stroke="black" stroke-width="2.5"/>
<path d="M31.25 34.25H78.75V76.75H31.25V34.25Z" fill="#CDCEFF" stroke="black" stroke-width="2.5"/>
<path d="M7.20832 34.25H30.2442L26.6076 44.75H2.01311L7.20832 34.25Z" fill="#AAABFF" stroke="black" stroke-width="2.5"/>
<path d="M36.9435 45.75L32.7817 34.25H79.5433L87.5983 45.75H36.9435Z" fill="#AAABFF" stroke="black" stroke-width="2.5"/>
<path d="M75.6786 72.2571C75.6786 73.1881 74.9238 73.9428 73.9928 73.9428C73.0618 73.9428 72.3071 73.1881 72.3071 72.2571C72.3071 71.3261 73.0618 70.5714 73.9928 70.5714C74.9238 70.5714 75.6786 71.3261 75.6786 72.2571Z" fill="#8586EE" stroke="black"/>
<path d="M69.3785 72.3857C69.3785 73.0326 68.854 73.5571 68.2071 73.5571C67.5601 73.5571 67.0356 73.0326 67.0356 72.3857C67.0356 71.7387 67.5601 71.2142 68.2071 71.2142C68.854 71.2142 69.3785 71.7387 69.3785 72.3857Z" fill="#7373E0" stroke="black"/>
<path d="M64.5 72.5C64.5 73.0523 64.0523 73.5 63.5 73.5C62.9477 73.5 62.5 73.0523 62.5 72.5C62.5 71.9477 62.9477 71.5 63.5 71.5C64.0523 71.5 64.5 71.9477 64.5 72.5Z" fill="#CDCEFF" stroke="black"/>
<path d="M6.25 78.3333C6.25 77.8625 6.34695 77.4776 6.45404 77.25H30.75V83.75H6.45404C6.34695 83.5224 6.25 83.1375 6.25 82.6667V78.3333Z" fill="#7373E0" stroke="black" stroke-width="2.5"/>
<path d="M31.25 77.25H80.6489C80.7027 77.4034 80.75 77.6329 80.75 77.9191V83.0809C80.75 83.3671 80.7027 83.5966 80.6489 83.75H31.25V77.25Z" fill="#AAABFF" stroke="black" stroke-width="2.5"/>
<path d="M55.9355 25.7252L69.3856 16.8174L77.9653 33.75H43.2999L55.9154 25.7382L55.9255 25.7318L55.9355 25.7252Z" fill="#CECFFF" stroke="black" stroke-width="2.5"/>
<path d="M37.458 33.603L7.20537 32.6282L7.29121 17.9343L26.4046 26.6025L37.458 33.603Z" fill="#7373E0" stroke="black" stroke-width="2.5"/>
<path d="M44.1633 32.4579L37.6796 27.0543L50.0625 9.21937L59.2469 22.948L44.1633 32.4579Z" fill="#7373E0" stroke="black" stroke-width="2.5"/>
<path d="M15.3275 21.6039L17.9205 11.0522L43.3455 33.4469L37.3225 32.9541L15.3275 21.6039Z" fill="#AAABFF" stroke="black" stroke-width="2.5"/>
</svg>
