<svg width="82" height="83" viewBox="0 0 82 83" fill="none" xmlns="http://www.w3.org/2000/svg">
<path d="M61.4797 10.7144V31.7755C61.4812 36.1673 59.3706 40.2918 55.8078 42.8596L41.6486 53.0827C41.2483 53.3697 40.7095 53.3697 40.3092 53.0827L38.9288 52.085L26.15 42.8596C22.5872 40.2918 20.4767 36.1673 20.4781 31.7755V10.7144C20.4748 10.459 20.6259 10.2269 20.8608 10.1267L38.9288 2.19968L40.7192 1.42065C40.8856 1.3523 41.0722 1.3523 41.2386 1.42065L61.097 10.1267C61.3319 10.2269 61.483 10.459 61.4797 10.7144Z" fill="#E8EDFC"/>
<path d="M57.3796 10.7144V31.7756C57.381 36.1673 55.2704 40.2918 51.7077 42.8597L38.9288 52.085L26.15 42.8597C22.5872 40.2918 20.4767 36.1673 20.4781 31.7756V10.7144C20.4748 10.459 20.6259 10.2269 20.8608 10.1267L38.9288 2.19971L56.9969 10.1267C57.2318 10.2269 57.3829 10.459 57.3796 10.7144Z" fill="white"/>
<path d="M29.3795 38.0242C27.2259 36.4511 25.9505 33.9463 25.9449 31.2794V13.4738L40.9789 6.83289L56.0128 13.4738V31.2794C56.0086 33.9467 54.7329 36.452 52.5782 38.0242L40.9789 46.4678L29.3795 38.0242Z" fill="#8586EE"/>
<path d="M19.5432 57.0435L13.3 50.799C11.9609 49.4598 10.8894 47.8776 10.1429 46.1371L7.08416 39.0042C6.61282 37.9054 5.53261 37.1928 4.33705 37.1919C3.32084 37.1934 2.37486 37.7106 1.82514 38.5653C1.27542 39.4199 1.19714 40.4952 1.61727 41.4205L6.97346 53.2044C7.63032 54.6489 8.54137 55.9636 9.66316 57.0859L19.5432 66.9687H32.7785V63.0585C32.8231 60.1319 31.8729 57.2768 30.0833 54.9606C29.0832 53.6409 27.7208 52.6404 26.1622 52.081C23.1281 50.8004 20.3314 49.0178 17.8895 46.8081C15.9394 45.1803 13.0685 45.3132 11.2773 47.1143" fill="#E8EDFC"/>
<path d="M62.4118 57.0435L68.6564 50.799C69.9955 49.4598 71.067 47.8776 71.8135 46.1371L74.8736 39.0042C75.3453 37.9045 76.4269 37.1917 77.6234 37.1919C78.6391 37.1943 79.5843 37.7119 80.1333 38.5664C80.6824 39.4209 80.7604 40.4957 80.3405 41.4205L74.9843 53.2044C74.3274 54.6489 73.4164 55.9636 72.2946 57.0859L62.4118 66.9687H49.1792V63.0585C49.135 60.1317 50.0857 57.2766 51.8758 54.9606C52.8759 53.6409 54.2383 52.6404 55.7969 52.081C58.8306 50.8003 61.6268 49.0178 64.0683 46.8081C66.019 45.1807 68.8898 45.3136 70.6818 47.1143" fill="#E8EDFC"/>
<path d="M80.6137 40.1809C80.615 40.6105 80.5217 41.0351 80.3404 41.4246L74.9828 53.2058C74.3263 54.6511 73.4142 55.966 72.2904 57.0872L62.409 66.9686H58.3088L68.1902 57.0872C69.3141 55.966 70.2262 54.6511 70.8827 53.2058L76.2402 41.4246C76.4215 41.0351 76.5149 40.6105 76.5136 40.1809C76.5098 39.358 76.169 38.5726 75.5705 38.0078C76.1214 37.4785 76.8567 37.1844 77.6206 37.1878C79.2706 37.1953 80.6062 38.5309 80.6137 40.1809Z" fill="#CAD9FC"/>
<path d="M62.8465 66.9686H47.8125C47.0577 66.9686 46.4458 67.5805 46.4458 68.3353V79.2691C46.4458 80.0239 47.0577 80.6358 47.8125 80.6358H62.8465C63.6013 80.6358 64.2132 80.0239 64.2132 79.2691V68.3353C64.2132 67.5805 63.6013 66.9686 62.8465 66.9686Z" fill="#8586EE"/>
<path d="M58.7463 66.9686H47.8125C47.0577 66.9686 46.4458 67.5805 46.4458 68.3353V79.2691C46.4458 80.0239 47.0577 80.6358 47.8125 80.6358H58.7463C59.5011 80.6358 60.113 80.0239 60.113 79.2691V68.3353C60.113 67.5805 59.5011 66.9686 58.7463 66.9686Z" fill="#8586EE"/>
<path d="M34.1439 66.9686H19.11C18.3552 66.9686 17.7433 67.5805 17.7433 68.3353V79.2691C17.7433 80.0239 18.3552 80.6358 19.11 80.6358H34.1439C34.8988 80.6358 35.5107 80.0239 35.5107 79.2691V68.3353C35.5107 67.5805 34.8988 66.9686 34.1439 66.9686Z" fill="#8586EE"/>
<path d="M41.6486 53.0827L43.029 52.085L30.2501 42.8596C26.6874 40.2918 24.5768 36.1673 24.5782 31.7755V10.7144C24.5749 10.459 24.7261 10.2269 24.9609 10.1267L43.029 2.20241L41.2522 1.42065C41.0859 1.3523 40.8993 1.3523 40.7329 1.42065L38.9425 2.19968L20.8608 10.1267C20.6259 10.2269 20.4748 10.459 20.4781 10.7144V31.7755C20.4767 36.1673 22.5872 40.2918 26.15 42.8596L38.9288 52.085L40.3092 53.0827C40.7095 53.3697 41.2483 53.3697 41.6486 53.0827Z" fill="white"/>
<path d="M6.97068 53.2043C7.62755 54.6488 8.53859 55.9635 9.66039 57.0858L19.5431 66.9686H19.1113C18.3564 66.9686 17.7445 67.5805 17.7445 68.3353V79.2691C17.7445 80.0239 18.3564 80.6358 19.1113 80.6358H23.2114C22.4566 80.6358 21.8447 80.0239 21.8447 79.2691V68.3353C21.8447 67.5805 22.4566 66.9686 23.2114 66.9686H23.6447L13.7619 57.0858C12.6401 55.9635 11.7291 54.6488 11.0722 53.2043L5.7174 41.4204C5.18997 40.2658 5.45161 38.9039 6.36932 38.0269C5.33984 37.0305 3.74561 36.9116 2.5797 37.7442C1.41378 38.5768 1.00889 40.1233 1.61723 41.4204L6.97068 53.2043Z" fill="white"/>
<path d="M40.9789 54.6682C40.4521 54.6681 39.9389 54.5016 39.5124 54.1925L25.3436 43.9736C21.436 41.1478 19.1187 36.621 19.1113 31.7988V10.3399C19.1116 9.79673 19.4335 9.30527 19.9314 9.08799L40.4322 0.114101C40.7808 -0.0380335 41.177 -0.0380335 41.5256 0.114101L62.0264 9.08799C62.5242 9.30527 62.8461 9.79673 62.8464 10.3399V31.7974C62.839 36.6197 60.5217 41.1465 56.6142 43.9722L42.4454 54.1939C42.0184 54.502 41.5054 54.6679 40.9789 54.6682ZM21.8448 11.2337V31.7988C21.851 35.743 23.7465 39.4455 26.9426 41.7567L40.9789 51.88L55.0151 41.7567C58.2113 39.4455 60.1067 35.743 60.113 31.7988V11.2337L40.9789 2.85848L21.8448 11.2337Z" fill="#1C1953"/>
<path d="M40.9789 48.1926C40.6919 48.1926 40.4121 48.1022 40.1794 47.9343L28.5417 39.5399C26.0563 37.7438 24.5825 34.8652 24.5782 31.7987V13.9152C24.5785 13.372 24.9004 12.8805 25.3983 12.6633L40.4322 6.08114C40.7808 5.92901 41.177 5.92901 41.5256 6.08114L56.5595 12.6633C57.0574 12.8805 57.3793 13.372 57.3796 13.9152V31.7987C57.3753 34.8652 55.9015 37.7438 53.4161 39.5399L41.7784 47.9343C41.5457 48.1022 41.2659 48.1926 40.9789 48.1926ZM30.1408 37.323L40.9789 45.1407L51.817 37.323C53.5901 36.0408 54.6419 33.9869 54.6461 31.7987V14.8077L40.9789 8.82552L27.3117 14.8077V31.7987C27.3159 33.9869 28.3677 36.0408 30.1408 37.323Z" fill="#1C1953"/>
<path d="M8.69555 58.0522C7.54307 56.8969 6.59151 55.5573 5.8801 54.0887L4.0323 50.0391L0.37085 41.9864L2.85965 40.8547L6.51973 48.9075L8.3402 52.9024C8.91858 54.0946 9.69183 55.1819 10.6281 56.1197L8.69555 58.0522Z" fill="white"/>
<path d="M6.32152 51.7748C5.65102 52.0516 5.32895 52.8171 5.59989 53.49C6.33672 55.1913 7.38683 56.7389 8.69552 58.0521L10.6281 56.1196C9.55056 55.0389 8.68874 53.7629 8.08869 52.3597C7.76015 51.7126 6.97127 51.4515 6.32152 51.7748Z" fill="#1C1953"/>
<path d="M2.85965 40.8547L0.37085 41.9864L1.41776 44.2811C1.74575 44.928 2.53421 45.1892 3.18356 44.8661C3.85463 44.5898 4.17694 43.8237 3.90519 43.1508L2.85965 40.8547Z" fill="#1C1953"/>
<path d="M3.50882 48.8883C3.65667 49.1946 3.9202 49.4296 4.24138 49.5416L4.49013 49.5949C4.58087 49.6066 4.67273 49.6066 4.76347 49.5949C4.84938 49.5968 4.93508 49.5857 5.01768 49.5621C5.10616 49.5378 5.19292 49.5077 5.27736 49.4719C5.601 49.3218 5.86034 49.061 6.00856 48.7366C6.07117 48.5783 6.10183 48.4092 6.09876 48.2391C6.08928 47.7226 5.75605 47.2679 5.26643 47.1033C5.09814 47.0533 4.92208 47.0348 4.74707 47.0487C4.56926 47.0579 4.39463 47.0996 4.23182 47.1717C3.90808 47.322 3.64841 47.5827 3.49925 47.907C3.37201 48.2224 3.37546 48.5754 3.50882 48.8883Z" fill="#1C1953"/>
<path d="M32.7785 68.3353H19.5446C19.1821 68.3353 18.8346 68.1912 18.5783 67.9349L8.69554 58.0521C8.1776 57.5158 8.185 56.6634 8.71219 56.1362C9.23938 55.609 10.0918 55.6016 10.6281 56.1196L20.1104 65.6019H31.4118V63.0584C31.4531 60.4428 30.6087 57.89 29.016 55.8148C28.1799 54.7009 27.0378 53.8542 25.729 53.3779C22.517 52.0709 19.5642 50.2011 17.0093 47.8564C15.5989 46.6954 13.538 46.7929 12.2436 48.0819C11.7255 48.589 10.9017 48.6035 10.3662 48.1148C9.83066 47.6262 9.76987 46.8044 10.2276 46.2423C12.5191 43.8864 16.233 43.678 18.7737 45.7626C21.0724 47.8756 23.7197 49.5745 26.5982 50.7839C28.4082 51.4234 29.9917 52.5783 31.1535 54.1064C33.1338 56.6666 34.1883 59.8221 34.1453 63.0584V66.9686C34.1453 67.7234 33.5334 68.3353 32.7785 68.3353Z" fill="#1C1953"/>
<path d="M19.5446 58.4102C19.1821 58.4101 18.8346 58.2661 18.5783 58.0098L12.3351 51.7652C10.8703 50.3049 9.70012 48.5765 8.88826 46.6742L5.8309 39.544C5.57574 38.9462 4.98841 38.5584 4.33845 38.5586C3.78604 38.5588 3.27157 38.8396 2.97259 39.3041C2.67361 39.7686 2.63107 40.3532 2.85965 40.856C3.14473 41.5375 2.83673 42.3222 2.16421 42.6278C1.49168 42.9334 0.698045 42.6493 0.372219 41.9863C-0.599611 39.7849 0.397178 37.2125 2.59861 36.2406C4.80004 35.2688 7.37248 36.2656 8.34431 38.467L11.3989 45.5972C12.0761 47.1799 13.0504 48.6181 14.269 49.834L20.5122 56.0786C20.903 56.4695 21.0199 57.0572 20.8084 57.5678C20.5969 58.0785 20.0987 58.4115 19.546 58.4116L19.5446 58.4102Z" fill="#1C1953"/>
<path d="M34.1452 82.0026H19.1113C17.6016 82.0026 16.3778 80.7788 16.3778 79.2691V68.3354C16.3778 66.8257 17.6016 65.6019 19.1113 65.6019H34.1452C35.6548 65.6019 36.8786 66.8257 36.8786 68.3354V79.2691C36.8786 80.7788 35.6548 82.0026 34.1452 82.0026ZM19.1113 68.3354V79.2691H34.1452V68.3354H19.1113Z" fill="#1C1953"/>
<path d="M30.0451 75.169H28.6784C27.9235 75.169 27.3116 74.5571 27.3116 73.8023C27.3116 73.0474 27.9235 72.4355 28.6784 72.4355H30.0451C30.7999 72.4355 31.4118 73.0474 31.4118 73.8023C31.4118 74.5571 30.7999 75.169 30.0451 75.169Z" fill="#CAD9FC"/>
<path d="M62.4132 68.3353H49.1792C48.4244 68.3353 47.8125 67.7234 47.8125 66.9686V63.0584C47.7706 59.8216 48.8266 56.666 50.8083 54.1064C51.9702 52.5783 53.5536 51.4234 55.3636 50.7839C58.2422 49.5745 60.8894 47.8756 63.1881 45.7626C65.3204 43.9997 68.3531 43.8334 70.6654 45.3525L73.6148 38.4711C74.2271 37.0218 75.5731 36.0151 77.1364 35.8374C78.6997 35.6597 80.2374 36.3386 81.1593 37.6136C82.0812 38.8886 82.2441 40.5615 81.5855 41.9904L76.2293 53.7729C75.5067 55.368 74.5015 56.8191 73.2622 58.0562L63.3794 67.9349C63.1232 68.1912 62.7756 68.3353 62.4132 68.3353ZM50.5459 65.6019H61.8473L71.3297 56.1196C72.3367 55.1139 73.1539 53.9346 73.7419 52.6385L79.0981 40.856C79.3267 40.3531 79.2841 39.7686 78.9852 39.3041C78.6862 38.8396 78.1717 38.5588 77.6193 38.5586C76.9697 38.5582 76.3824 38.9454 76.1268 39.5426L73.0695 46.6742C72.2576 48.5765 71.0874 50.3049 69.6226 51.7652L63.3794 58.0098C62.8432 58.5277 61.9907 58.5203 61.4635 57.9931C60.9363 57.4659 60.9289 56.6135 61.4469 56.0772L67.6901 49.8327C68.3218 49.2028 68.8891 48.5115 69.3834 47.7689C68.0665 46.7581 66.2251 46.7938 64.9484 47.855C62.3933 50.2001 59.4399 52.0699 56.2274 53.3766C54.9212 53.8542 53.7817 54.7007 52.9473 55.8134C51.3522 57.8883 50.5059 60.4417 50.5459 63.0584V65.6019Z" fill="#1C1953"/>
<path d="M62.8464 82.0026H47.8124C46.3028 82.0026 45.079 80.7788 45.079 79.2691V68.3354C45.079 66.8257 46.3028 65.6019 47.8124 65.6019H62.8464C64.356 65.6019 65.5798 66.8257 65.5798 68.3354V79.2691C65.5798 80.7788 64.356 82.0026 62.8464 82.0026ZM47.8124 68.3354V79.2691H62.8464V68.3354H47.8124Z" fill="#1C1953"/>
<path d="M53.2793 75.169H51.9126C51.1578 75.169 50.5459 74.5571 50.5459 73.8023C50.5459 73.0474 51.1578 72.4355 51.9126 72.4355H53.2793C54.0342 72.4355 54.6461 73.0474 54.6461 73.8023C54.6461 74.5571 54.0342 75.169 53.2793 75.169Z" fill="#CAD9FC"/>
<path d="M38.2454 35.5341C37.9497 35.5341 37.662 35.4382 37.4254 35.2607L31.9585 31.1606C31.3547 30.7077 31.2323 29.851 31.6852 29.2472C32.1381 28.6433 32.9947 28.5209 33.5986 28.9738L37.9092 32.2075L48.0421 17.0082C48.461 16.3802 49.3097 16.2107 49.9377 16.6296C50.5657 17.0485 50.7352 17.8972 50.3163 18.5252L39.3825 34.9259C39.1743 35.2384 38.8466 35.4514 38.4764 35.5149C38.4 35.5274 38.3228 35.5338 38.2454 35.5341Z" fill="#1C1953"/>
</svg>
