<svg width="54" height="74" viewBox="0 0 54 74" fill="none" xmlns="http://www.w3.org/2000/svg">
<path d="M52.4062 24.7383C52.4062 31.0131 49.8744 39.6003 45.7254 46.9441C43.2275 51.3653 37.7812 57.0435 37.7812 62.1133H26.8125V1.17578C40.9476 1.17578 52.4062 11.3825 52.4062 24.7383Z" fill="#DBE6FD"/>
<path d="M26.8125 21.8945H37.7812V36.5195H26.8125V21.8945Z" fill="#8586EE"/>
<path d="M1.21875 24.7383C1.21875 31.0131 3.75057 39.6003 7.89963 46.9441C10.3975 51.3653 15.8438 57.0435 15.8438 62.1133H26.8125V1.17578C12.6774 1.17578 1.21875 11.3825 1.21875 24.7383Z" fill="#8586EE"/>
<path d="M36.8598 66.9882H16.7653C16.1188 66.9882 15.4988 66.7314 15.0417 66.2743C14.5846 65.8172 14.3278 65.1972 14.3278 64.5507V64.4652C14.3314 64.1539 14.3982 63.8467 14.5242 63.562C14.6501 63.2774 14.8326 63.0213 15.0606 62.8094C15.2885 62.5974 15.5572 62.434 15.8502 62.329C16.1433 62.2241 16.4546 62.1797 16.7653 62.1987H36.8598C37.1705 62.1797 37.4818 62.2241 37.7748 62.329C38.0678 62.434 38.3365 62.5974 38.5644 62.8094C38.7924 63.0213 38.9749 63.2774 39.1009 63.562C39.2268 63.8467 39.2937 64.1539 39.2973 64.4652V64.5507C39.2973 65.1972 39.0405 65.8172 38.5833 66.2743C38.1262 66.7314 37.5062 66.9882 36.8598 66.9882Z" fill="#5358A1"/>
<path d="M37.1719 66.9883H16.4531C15.1069 66.9883 14.0156 68.0796 14.0156 69.4258V69.5113C14.0156 70.8575 15.1069 71.9488 16.4531 71.9488H37.1719C38.5181 71.9488 39.6094 70.8575 39.6094 69.5113V69.4258C39.6094 68.0796 38.5181 66.9883 37.1719 66.9883Z" fill="#5358A1"/>
<path d="M24.7341 12.2836L24.1994 14.8281C23.4103 14.9719 22.6344 15.1809 21.8799 15.4531L20.1332 13.5035C18.8597 14.0524 17.6579 14.7549 16.5548 15.5954L17.3627 18.0552C16.7499 18.575 16.1809 19.1441 15.6611 19.7568L13.2012 18.9488C12.3607 20.052 11.6581 21.2537 11.1092 22.5274L13.0587 24.2741C12.7865 25.0287 12.5774 25.8045 12.4336 26.5937L9.88902 27.1285C9.70366 28.5079 9.70366 29.906 9.88902 31.2854L12.4336 31.8201C12.5773 32.6093 12.7863 33.3851 13.0586 34.1396L11.109 35.8863C11.6579 37.1598 12.3604 38.3616 13.2009 39.4647L15.6607 38.6569C16.1804 39.2696 16.7496 39.8387 17.3623 40.3584L16.5543 42.8183C17.6575 43.6589 18.8593 44.3615 20.1329 44.9104L21.8797 42.9608C22.6342 43.2331 23.4101 43.4422 24.1992 43.586L24.7341 46.1305C25.4234 46.2189 26.1175 46.2653 26.8125 46.2695V12.1445C26.1175 12.1487 25.4235 12.1952 24.7341 12.2836Z" fill="#302C8C"/>
<path d="M26.8125 38.957C24.2266 38.957 21.7467 37.9298 19.9182 36.1013C18.0897 34.2728 17.0625 31.7929 17.0625 29.207C17.0625 26.6212 18.0897 24.1412 19.9182 22.3127C21.7467 20.4843 24.2266 19.457 26.8125 19.457" fill="white"/>
<path d="M34.125 13.3633C35.4712 13.3633 36.5625 12.272 36.5625 10.9258C36.5625 9.57959 35.4712 8.48828 34.125 8.48828C32.7788 8.48828 31.6875 9.57959 31.6875 10.9258C31.6875 12.272 32.7788 13.3633 34.125 13.3633Z" fill="#8586EE"/>
<path d="M43.875 19.457C45.2212 19.457 46.3125 18.3657 46.3125 17.0195C46.3125 15.6733 45.2212 14.582 43.875 14.582C42.5288 14.582 41.4375 15.6733 41.4375 17.0195C41.4375 18.3657 42.5288 19.457 43.875 19.457Z" fill="#8586EE"/>
<path d="M49.9688 35.3008C51.3149 35.3008 52.4062 34.2095 52.4062 32.8633C52.4062 31.5171 51.3149 30.4258 49.9688 30.4258C48.6226 30.4258 47.5312 31.5171 47.5312 32.8633C47.5312 34.2095 48.6226 35.3008 49.9688 35.3008Z" fill="#8586EE"/>
<path d="M36.5625 49.9258C37.9087 49.9258 39 48.8345 39 47.4883C39 46.1421 37.9087 45.0508 36.5625 45.0508C35.2163 45.0508 34.125 46.1421 34.125 47.4883C34.125 48.8345 35.2163 49.9258 36.5625 49.9258Z" fill="#8586EE"/>
<path d="M39.6939 58.9879L37.4279 58.0905C37.7562 57.2735 38.1364 56.4785 38.5663 55.7101L40.7003 56.8884C40.3205 57.5661 39.9843 58.2673 39.6939 58.9879Z" fill="black"/>
<path d="M41.9397 54.8353L39.8938 53.5118C40.3508 52.8049 40.8287 52.105 41.3077 51.4171L43.3084 52.8096C42.8449 53.4761 42.3825 54.1522 41.9397 54.8353Z" fill="black"/>
<path d="M44.7325 50.7719L42.7306 49.3818C43.2108 48.6891 43.669 48.0143 44.0803 47.3621L46.1428 48.6594C45.7138 49.3425 45.2354 50.0483 44.7325 50.7719Z" fill="black"/>
<path d="M47.4212 46.4313L45.2717 45.2816C45.6526 44.5687 46.0178 43.8462 46.3673 43.1143L48.5668 44.164C48.202 44.9281 47.8201 45.6839 47.4212 46.4313Z" fill="black"/>
<path d="M49.6104 41.8527L47.3669 40.8982C47.6859 40.1496 47.9876 39.395 48.2709 38.6416L50.5525 39.4985C50.2573 40.2852 49.9433 41.07 49.6104 41.8527Z" fill="black"/>
<path d="M53.5221 27.1303L51.0929 26.9256C51.156 26.1829 51.1875 25.4605 51.1875 24.7809L51.1863 24.5571L53.6238 24.5381L53.625 24.7809C53.625 25.5295 53.5905 26.3198 53.5221 27.1303Z" fill="black"/>
<path d="M51.0357 22.2146C50.9434 21.4376 50.808 20.6664 50.6299 19.9045L53.0031 19.3499C53.2018 20.1997 53.3532 21.06 53.4566 21.9266L51.0357 22.2146Z" fill="black"/>
<path d="M49.9694 17.655C49.7063 16.9175 49.4027 16.1952 49.0601 15.4912L51.2512 14.4248C51.6338 15.2099 51.9724 16.0157 52.2652 16.8385L49.9694 17.655Z" fill="black"/>
<path d="M47.9168 13.4442C47.4968 12.7818 47.0419 12.1422 46.5541 11.528L48.4631 10.0117C49.0051 10.6945 49.5105 11.4057 49.9771 12.1421L47.9168 13.4442Z" fill="black"/>
<path d="M44.9944 9.76424C44.443 9.20372 43.8632 8.6718 43.2573 8.17057L44.8105 6.29248C45.4807 6.84691 46.122 7.43524 46.7321 8.05515L44.9944 9.76424Z" fill="black"/>
<path d="M41.3643 6.75544C40.7169 6.31982 40.0355 5.90802 39.3392 5.53193L40.4985 3.38721C41.2638 3.8014 42.0124 4.25367 42.7247 4.73212L41.3643 6.75544Z" fill="black"/>
<path d="M37.204 4.50828C36.4893 4.20481 35.7425 3.92866 34.9832 3.68823L35.7211 1.36499C36.5524 1.62922 37.3725 1.93153 38.1574 2.26596L37.204 4.50828Z" fill="black"/>
<path d="M32.6908 3.07284C31.9255 2.90264 31.1388 2.76577 30.3527 2.66456L30.6645 0.246094C31.5226 0.357975 32.3819 0.507942 33.218 0.692424L32.6908 3.07284Z" fill="black"/>
<path d="M49.9688 29.2071C49.2151 29.2095 48.4806 29.445 47.8662 29.8814C47.2518 30.3179 46.7875 30.9338 46.5371 31.6446H39V26.7696H43.875C44.0351 26.7697 44.1936 26.7382 44.3414 26.677C44.4893 26.6157 44.6237 26.526 44.7369 26.4128C44.8501 26.2996 44.9398 26.1652 45.0011 26.0173C45.0623 25.8695 45.0938 25.711 45.0938 25.5509V20.4513C45.907 20.1638 46.5924 19.5981 47.0288 18.8542C47.4653 18.1102 47.6247 17.2359 47.4789 16.3858C47.333 15.5357 46.8914 14.7645 46.2319 14.2086C45.5725 13.6526 44.7377 13.3476 43.8752 13.3476C43.0127 13.3476 42.1779 13.6525 41.5184 14.2084C40.859 14.7643 40.4173 15.5355 40.2714 16.3856C40.1255 17.2357 40.2849 18.11 40.7213 18.854C41.1577 19.598 41.8431 20.1637 42.6562 20.4512V24.3321H39V21.8946C39 21.7346 38.9685 21.5761 38.9073 21.4282C38.8461 21.2803 38.7563 21.1459 38.6431 21.0328C38.5299 20.9196 38.3956 20.8298 38.2477 20.7686C38.0998 20.7074 37.9413 20.6759 37.7812 20.6759H35.3438V14.3576C36.157 14.0701 36.8424 13.5044 37.2788 12.7604C37.7153 12.0165 37.8747 11.1422 37.7289 10.2921C37.583 9.44196 37.1414 8.67077 36.4819 8.1148C35.8225 7.55883 34.9877 7.25389 34.1252 7.25386C33.2627 7.25384 32.4279 7.55873 31.7684 8.11466C31.109 8.67059 30.6673 9.44175 30.5214 10.2919C30.3755 11.142 30.5349 12.0163 30.9713 12.7602C31.4077 13.5042 32.0931 14.07 32.9062 14.3575V20.6759H28.0312V1.21875C28.0313 1.05869 27.9998 0.900189 27.9386 0.752303C27.8773 0.604418 27.7876 0.470047 27.6744 0.356867C27.5612 0.243687 27.4268 0.153916 27.2789 0.0926837C27.1311 0.0314511 26.9726 -4.31894e-05 26.8125 4.44517e-08C11.7775 4.44517e-08 0 10.8854 0 24.7808C0 31.3816 2.62019 40.1212 6.83881 47.5872C7.59636 48.9273 8.58482 50.3365 9.63097 51.829C11.8431 54.9824 14.305 58.5284 14.5727 61.6153C14.1112 61.9415 13.7366 62.3756 13.4814 62.8798C13.2262 63.3841 13.0983 63.943 13.1087 64.508C13.1122 65.3321 13.3967 66.1303 13.9153 66.7707C13.5583 67.123 13.2753 67.5433 13.0832 68.0066C12.8911 68.47 12.7938 68.9671 12.7969 69.4688C12.7979 70.4381 13.1835 71.3675 13.8689 72.0529C14.5544 72.7384 15.4838 73.1239 16.4531 73.125H37.1719C37.6584 73.122 38.1395 73.0225 38.5874 72.8323C39.0352 72.6422 39.4409 72.365 39.7809 72.017C40.1209 71.669 40.3886 71.2571 40.5683 70.8049C40.7481 70.3528 40.8364 69.8695 40.8281 69.383C40.8277 68.8925 40.7282 68.407 40.5354 67.9559C40.3426 67.5048 40.0607 67.0973 39.7064 66.7579C40.2317 66.0928 40.5171 65.2698 40.5163 64.4223C40.5154 63.9503 40.4189 63.4834 40.2327 63.0497C40.0464 62.616 39.7742 62.2245 39.4326 61.8989C39.0909 61.5732 38.6868 61.3202 38.2447 61.1549C37.8026 60.9897 37.3315 60.9157 36.86 60.9375H28.0312V37.7384H30.4688V41.3946C30.4687 41.5547 30.5002 41.7132 30.5614 41.8611C30.6227 42.009 30.7124 42.1433 30.8256 42.2565C30.9388 42.3697 31.0732 42.4595 31.2211 42.5207C31.3689 42.5819 31.5274 42.6134 31.6875 42.6134H35.3438V44.0567C34.5306 44.3442 33.8452 44.9099 33.4088 45.6539C32.9724 46.3978 32.8131 47.2721 32.9589 48.1222C33.1048 48.9722 33.5464 49.7434 34.2059 50.2993C34.8653 50.8552 35.7 51.1601 36.5625 51.1601C37.425 51.1601 38.2597 50.8552 38.9191 50.2993C39.5786 49.7434 40.0202 48.9722 40.1661 48.1222C40.3119 47.2721 40.1526 46.3978 39.7162 45.6539C39.2798 44.9099 38.5944 44.3442 37.7812 44.0567V41.3946C37.7813 41.2346 37.7498 41.0761 37.6886 40.9282C37.6273 40.7803 37.5376 40.646 37.4244 40.5328C37.3112 40.4196 37.1768 40.3298 37.0289 40.2686C36.8811 40.2074 36.7226 40.1759 36.5625 40.1759H32.9062V37.7384H37.7812C37.9413 37.7384 38.0998 37.7069 38.2477 37.6457C38.3956 37.5845 38.5299 37.4947 38.6431 37.3815C38.7563 37.2683 38.8461 37.134 38.9073 36.9861C38.9685 36.8382 39 36.6797 39 36.5196V34.0821H46.5372C46.7617 34.7123 47.1552 35.2687 47.6746 35.6904C48.1939 36.1121 48.8192 36.3829 49.4821 36.4733C50.145 36.5637 50.82 36.4701 51.4333 36.2029C52.0466 35.9356 52.5746 35.5049 52.9597 34.9578C53.3448 34.4108 53.5721 33.7684 53.6168 33.1009C53.6615 32.4333 53.5219 31.7664 53.2132 31.1728C52.9045 30.5793 52.4386 30.082 51.8664 29.7354C51.2942 29.3887 50.6378 29.206 49.9688 29.2071ZM43.875 15.8009C44.116 15.8009 44.3517 15.8724 44.5521 16.0063C44.7525 16.1402 44.9087 16.3306 45.001 16.5533C45.0932 16.776 45.1174 17.021 45.0703 17.2574C45.0233 17.4938 44.9072 17.711 44.7368 17.8814C44.5663 18.0519 44.3492 18.168 44.1128 18.215C43.8764 18.262 43.6313 18.2379 43.4086 18.1456C43.1859 18.0534 42.9956 17.8972 42.8616 17.6968C42.7277 17.4963 42.6562 17.2607 42.6562 17.0196C42.6566 16.6965 42.7851 16.3867 43.0136 16.1582C43.2421 15.9297 43.5519 15.8012 43.875 15.8009ZM11.6269 50.4294C10.6152 48.9868 9.66009 47.6253 8.96086 46.3875C4.99818 39.3737 2.4375 30.8924 2.4375 24.7808C2.4375 12.6267 12.513 3.02663 25.5938 2.46368V10.9779C25.2702 11.0021 24.9401 11.0315 24.5869 11.0747C24.3345 11.1054 24.0981 11.2143 23.9107 11.3861C23.7233 11.5579 23.5943 11.7841 23.5419 12.0328L23.1705 13.7991C22.8647 13.8717 22.5596 13.9538 22.2553 14.0454L21.0407 12.691C20.871 12.5012 20.6461 12.3693 20.3976 12.314C20.149 12.2587 19.8894 12.2827 19.6553 12.3827C18.2913 12.9709 17.0038 13.7227 15.8211 14.6215C15.6181 14.7746 15.468 14.9874 15.3919 15.23C15.3158 15.4727 15.3175 15.7331 15.3968 15.9747L15.9562 17.6791C15.7259 17.8957 15.5016 18.1206 15.2843 18.3503L13.5817 17.7909C13.3401 17.7127 13.0801 17.7114 12.8377 17.7873C12.5952 17.8632 12.3824 18.0125 12.2285 18.2146C11.3286 19.3975 10.5762 20.6857 9.98799 22.0506C9.88816 22.2848 9.86421 22.5443 9.9195 22.7928C9.97479 23.0413 10.1065 23.2662 10.2962 23.436L11.6513 24.65C11.5602 24.9511 11.4787 25.253 11.4067 25.5557L9.51132 25.9342C9.23499 25.9893 8.98632 26.1385 8.80762 26.3564C8.62893 26.5742 8.53126 26.8473 8.53125 27.1291V31.2852C8.53126 31.567 8.62893 31.8401 8.80763 32.058C8.98633 32.2758 9.23503 32.425 9.51137 32.4802L11.4067 32.8586C11.4787 33.1609 11.5603 33.4629 11.6513 33.7644L10.2957 34.9784C10.1062 35.1483 9.97465 35.3732 9.91938 35.6216C9.8641 35.87 9.8879 36.1295 9.98744 36.3637C10.5757 37.7286 11.3281 39.0168 12.228 40.1997C12.3817 40.402 12.5945 40.5515 12.837 40.6274C13.0795 40.7033 13.3396 40.7019 13.5812 40.6234L15.2838 40.064C15.5016 40.2937 15.7253 40.5186 15.9557 40.7353L15.3962 42.4372C15.317 42.6788 15.3152 42.9391 15.3912 43.1818C15.4672 43.4244 15.6171 43.6372 15.82 43.7905C17.0027 44.6905 18.2906 45.4431 19.6554 46.0316C19.8896 46.131 20.1491 46.1547 20.3975 46.0995C20.6458 46.0442 20.8708 45.9127 21.0407 45.7233L22.2553 44.3689C22.5594 44.4606 22.8645 44.5427 23.1706 44.6153L23.5414 46.3803C23.5936 46.6293 23.7224 46.8557 23.9098 47.0277C24.0972 47.1998 24.3338 47.3088 24.5863 47.3396C24.9399 47.3829 25.2702 47.4122 25.5938 47.4365V60.9375H16.9574C16.4593 57.3458 13.9152 53.692 11.6269 50.4294ZM15.8438 29.2071C15.8475 31.9037 16.8433 34.5047 18.6414 36.5143C20.4395 38.5238 22.9142 39.8016 25.5938 40.104V44.2952L25.392 43.3359C25.3422 43.0983 25.2227 42.8811 25.0488 42.7119C24.8748 42.5427 24.6543 42.4292 24.4155 42.3861C23.693 42.2546 22.9828 42.0631 22.2922 41.8136C22.1598 41.7666 22.0203 41.7424 21.8798 41.7422C21.7085 41.7422 21.5391 41.7784 21.3827 41.8483C21.2263 41.9182 21.0865 42.0204 20.9723 42.1481L19.8261 43.4263C19.191 43.1089 18.5781 42.7491 17.9914 42.3492L18.5205 40.7389C18.5962 40.5082 18.6014 40.2601 18.5353 40.0265C18.4693 39.7928 18.335 39.5842 18.1497 39.4273C17.5877 38.9515 17.066 38.43 16.59 37.8681C16.4326 37.684 16.2242 37.5507 15.991 37.485C15.7579 37.4194 15.5105 37.4243 15.2802 37.4992L13.6705 38.0288C13.2705 37.4419 12.9104 36.8288 12.5928 36.1936L13.8722 35.0474C14.0526 34.8854 14.1806 34.6733 14.2401 34.4383C14.2996 34.2032 14.2877 33.9558 14.2061 33.7275C13.9567 33.0368 13.7653 32.3266 13.6336 31.6042C13.5901 31.3635 13.4752 31.1415 13.3038 30.967C13.1324 30.7925 12.9124 30.6736 12.6725 30.6259L10.9688 30.2855V28.1288L12.6726 27.7885C12.9125 27.7407 13.1324 27.6218 13.3038 27.4474C13.4752 27.2729 13.5902 27.0508 13.6336 26.8101C13.7654 26.0873 13.9569 25.3767 14.2061 24.6856C14.2879 24.4573 14.2998 24.2097 14.2402 23.9746C14.1806 23.7395 14.0523 23.5275 13.8716 23.3657L12.5933 22.2208C12.9113 21.5858 13.2711 20.9727 13.6705 20.3855L15.2808 20.9151C15.5111 20.9899 15.7585 20.9948 15.9916 20.9292C16.2247 20.8635 16.4332 20.7302 16.5906 20.5462C17.0678 19.9839 17.5898 19.4613 18.1515 18.9835C18.3361 18.8268 18.4697 18.6187 18.5355 18.3857C18.6012 18.1527 18.596 17.9054 18.5205 17.6754L17.992 16.0651C18.5786 15.6655 19.1914 15.3057 19.8261 14.988L20.9723 16.2663C21.1344 16.4465 21.3464 16.5745 21.5814 16.6341C21.8164 16.6936 22.0638 16.682 22.2922 16.6007C22.9827 16.3511 23.693 16.1596 24.4155 16.0282C24.6542 15.9853 24.8747 15.8721 25.0487 15.7031C25.2226 15.5341 25.3422 15.317 25.392 15.0796L25.5938 14.1204V18.3103C22.9142 18.6127 20.4395 19.8904 18.6414 21.9C16.8433 23.9096 15.8475 26.5106 15.8438 29.2071ZM25.5938 20.7732V37.641C23.564 37.3504 21.7071 36.3376 20.3639 34.7884C19.0207 33.2392 18.2813 31.2575 18.2813 29.2071C18.2813 27.1567 19.0207 25.175 20.3639 23.6258C21.7071 22.0766 23.564 21.0638 25.5938 20.7732ZM37.1719 70.6875H16.4531C16.2866 70.6847 16.1223 70.6484 15.97 70.5808C15.8178 70.5131 15.6808 70.4155 15.567 70.2938C15.4533 70.1721 15.3652 70.0287 15.3081 69.8723C15.2509 69.7158 15.2259 69.5494 15.2344 69.383C15.2347 69.0599 15.3632 68.7501 15.5917 68.5216C15.8202 68.2931 16.13 68.1646 16.4531 68.1643H37.1719C37.3384 68.1671 37.5027 68.2034 37.655 68.271C37.8072 68.3387 37.9442 68.4363 38.058 68.558C38.1717 68.6797 38.2598 68.8231 38.3169 68.9795C38.3741 69.136 38.3991 69.3024 38.3906 69.4688C38.3903 69.7919 38.2618 70.1017 38.0333 70.3302C37.8048 70.5587 37.495 70.6872 37.1719 70.6875ZM36.86 63.375C37.0164 63.3606 37.1741 63.3793 37.3228 63.43C37.4714 63.4807 37.6077 63.5621 37.7227 63.6691C37.8377 63.776 37.9289 63.906 37.9903 64.0506C38.0516 64.1951 38.0818 64.351 38.0788 64.508C38.0785 64.8312 37.95 65.141 37.7215 65.3695C37.493 65.598 37.1832 65.7265 36.86 65.7268H16.765C16.5984 65.724 16.4341 65.6877 16.2819 65.6201C16.1296 65.5524 15.9926 65.4548 15.8789 65.3331C15.7651 65.2114 15.6771 65.068 15.6199 64.9116C15.5628 64.7551 15.5377 64.5887 15.5462 64.4224C15.5527 64.2719 15.5899 64.1243 15.6557 63.9888C15.7215 63.8533 15.8144 63.7327 15.9286 63.6346C16.0428 63.5364 16.176 63.4627 16.3199 63.4181C16.4637 63.3734 16.6152 63.3588 16.765 63.375H36.86ZM36.5625 46.2696C36.8035 46.2696 37.0392 46.3411 37.2396 46.475C37.44 46.609 37.5962 46.7993 37.6885 47.022C37.7807 47.2447 37.8049 47.4897 37.7578 47.7262C37.7108 47.9626 37.5947 48.1797 37.4243 48.3502C37.2538 48.5206 37.0367 48.6367 36.8003 48.6837C36.5639 48.7308 36.3188 48.7066 36.0961 48.6144C35.8734 48.5221 35.6831 48.3659 35.5491 48.1655C35.4152 47.9651 35.3438 47.7294 35.3438 47.4884C35.3441 47.1653 35.4726 46.8555 35.7011 46.627C35.9296 46.3985 36.2394 46.27 36.5625 46.2696ZM34.125 9.70715C34.366 9.70715 34.6017 9.77863 34.8021 9.91255C35.0025 10.0465 35.1587 10.2368 35.251 10.4595C35.3432 10.6822 35.3674 10.9273 35.3203 11.1637C35.2733 11.4001 35.1572 11.6172 34.9868 11.7877C34.8163 11.9581 34.5992 12.0742 34.3628 12.1212C34.1264 12.1683 33.8813 12.1441 33.6586 12.0519C33.4359 11.9596 33.2456 11.8034 33.1116 11.603C32.9777 11.4026 32.9062 11.1669 32.9062 10.9259C32.9066 10.6028 33.0351 10.293 33.2636 10.0645C33.4921 9.83598 33.8019 9.70747 34.125 9.70715ZM36.5625 35.3009H28.0312V23.1134H36.5625V35.3009ZM49.9688 34.0821C49.7277 34.0821 49.4921 34.0107 49.2916 33.8768C49.0912 33.7428 48.935 33.5525 48.8428 33.3298C48.7505 33.1071 48.7264 32.862 48.7734 32.6256C48.8204 32.3892 48.9365 32.1721 49.107 32.0016C49.2774 31.8312 49.4946 31.7151 49.731 31.6681C49.9674 31.621 50.2124 31.6452 50.4351 31.7374C50.6578 31.8297 50.8482 31.9859 50.9821 32.1863C51.116 32.3867 51.1875 32.6224 51.1875 32.8634C51.1872 33.1865 51.0587 33.4963 50.8302 33.7248C50.6017 33.9533 50.2919 34.0818 49.9688 34.0821Z" fill="black"/>
</svg>
