<svg width="74" height="74" viewBox="0 0 74 74" fill="none" xmlns="http://www.w3.org/2000/svg">
<path d="M34.4375 60.5625C34.4375 61.8687 35.5062 62.9375 36.8125 62.9375H29.6875C30.9937 62.9375 32.0625 64.0063 32.0625 65.3125C32.0625 65.9656 31.8013 66.5594 31.3619 66.9869C30.9344 67.4263 30.3406 67.6875 29.6875 67.6875H27.3125C27.9656 67.6875 28.5594 67.9487 28.9869 68.3881C29.4263 68.8156 29.6875 69.4094 29.6875 70.0625C29.6875 71.3687 28.6187 72.4375 27.3125 72.4375H12.1244C10.4025 72.4375 8.72813 71.9744 7.25563 71.0838L3.5625 68.875H1.1875V52.25H3.5625L7.25563 50.0412C8.72813 49.1506 10.4025 48.6875 12.1244 48.6875H22.5625C23.2156 48.6875 23.75 49.2219 23.75 49.875C23.75 51.8463 22.1588 53.4375 20.1875 53.4375H29.9844L29.9963 53.4256C31.2669 54.4825 32.775 55.2306 34.4375 55.575V58.1875V60.5625Z" fill="#E6AF78"/>
<path d="M53.4375 5.9375C51.4663 5.9375 49.875 4.34625 49.875 2.375C49.875 1.72188 50.4094 1.1875 51.0625 1.1875H61.5006C63.2225 1.1875 64.8969 1.65063 66.3694 2.54125L70.0625 4.75H72.4375V21.375H70.0625L66.3694 23.5838C64.8969 24.4744 63.2225 24.9375 61.5006 24.9375H46.9419C45.7662 21.47 42.8094 18.8219 39.1875 18.05V15.4375V13.0625C39.1875 11.7563 38.1187 10.6875 36.8125 10.6875H43.9375C43.2844 10.6875 42.6906 10.4262 42.2631 9.98687C41.8238 9.55937 41.5625 8.96562 41.5625 8.3125C41.5625 7.00625 42.6312 5.9375 43.9375 5.9375H53.4375Z" fill="#E6AF78"/>
<path d="M47.5 28.31V28.5C47.5 29.8062 46.4312 30.875 45.125 30.875C43.8188 30.875 42.75 29.8062 42.75 28.5V28.31C42.75 25.1394 40.1731 22.5625 37.0025 22.5625H36.6225C33.4519 22.5625 30.875 25.1394 30.875 28.31C30.875 30.8631 32.585 33.1313 35.0431 33.8319L39.8881 35.2213C44.365 36.5037 47.5 40.6481 47.5 45.315C47.5 47.8325 46.6094 50.1481 45.125 51.9531C43.6287 53.77 41.5625 55.0762 39.1875 55.575V60.5625C39.1875 61.8688 38.1187 62.9375 36.8125 62.9375C35.5063 62.9375 34.4375 61.8688 34.4375 60.5625V58.1875V55.575C32.775 55.2306 31.2669 54.4825 29.9963 53.4256C27.6331 51.5138 26.125 48.5925 26.125 45.315V45.125C26.125 43.8187 27.1938 42.75 28.5 42.75C29.8063 42.75 30.875 43.8187 30.875 45.125V45.315C30.875 48.4856 33.4519 51.0625 36.6225 51.0625H37.0025C40.1731 51.0625 42.75 48.4856 42.75 45.315C42.75 42.7619 41.04 40.4937 38.5819 39.7931L33.7369 38.4037C29.26 37.1213 26.125 32.9769 26.125 28.31C26.125 25.7925 27.0156 23.4769 28.5 21.6719C29.9962 19.855 32.0625 18.5488 34.4375 18.05V13.0625C34.4375 11.7563 35.5063 10.6875 36.8125 10.6875C38.1187 10.6875 39.1875 11.7563 39.1875 13.0625V15.4375V18.05C42.8094 18.8219 45.7662 21.47 46.9419 24.9375C47.31 25.9944 47.5 27.1344 47.5 28.31Z" fill="#8586EE"/>
<path d="M70.3914 3.5625L66.9857 1.51881C65.3291 0.524875 63.4327 0 61.5018 0H51.0625C49.7527 0 48.6875 1.06519 48.6875 2.375C48.6875 3.24425 48.9393 4.04819 49.3477 4.75H43.9375C41.9734 4.75 40.375 6.34837 40.375 8.3125C40.375 8.7305 40.4605 9.12712 40.5935 9.5H36.8125C34.8484 9.5 33.25 11.0984 33.25 13.0625V17.1249C28.3789 18.5974 24.9375 23.1551 24.9375 28.31C24.9375 33.5006 28.4228 38.1199 33.4115 39.5449L38.2553 40.9284C40.2028 41.4853 41.5625 43.2891 41.5625 45.315C41.5625 47.8301 39.5164 49.875 37.0025 49.875H36.6225C34.1086 49.875 32.0625 47.8289 32.0625 45.315V45.125C32.0625 43.1609 30.4641 41.5625 28.5 41.5625C26.5359 41.5625 24.9375 43.1609 24.9375 45.125V45.315C24.9375 47.8764 25.7889 50.2894 27.2413 52.25H24.2773C24.6858 51.5482 24.9375 50.7443 24.9375 49.875C24.9375 48.5652 23.8723 47.5 22.5625 47.5H12.1232C10.1923 47.5 8.29588 48.0249 6.63813 49.0188L3.23356 51.0625H0V70.0625H3.23356L6.63931 72.1062C8.29588 73.1001 10.1923 73.625 12.1232 73.625H27.3125C29.2766 73.625 30.875 72.0266 30.875 70.0625C30.875 69.5934 30.7788 69.1481 30.6138 68.7373C32.1278 68.3264 33.25 66.9548 33.25 65.3125C33.25 64.8945 33.1645 64.4979 33.0315 64.125H36.8125C38.7766 64.125 40.375 62.5266 40.375 60.5625V56.5001C45.2461 55.0276 48.6875 50.4699 48.6875 45.315C48.6875 40.1244 45.2022 35.5051 40.2135 34.0801L35.3697 32.6966C33.4222 32.1397 32.0625 30.3359 32.0625 28.31C32.0625 25.7949 34.1086 23.75 36.6225 23.75H37.0013C39.5164 23.75 41.5613 25.7961 41.5613 28.31V28.5C41.5613 30.4641 43.1597 32.0625 45.1238 32.0625C47.0879 32.0625 48.6863 30.4641 48.6863 28.5V28.31C48.6863 27.5654 48.6068 26.8363 48.469 26.125H61.4994C63.4303 26.125 65.3268 25.6001 66.9845 24.6062L70.3914 22.5625H73.625V3.5625H70.3914ZM30.875 65.3125C30.875 65.9668 30.3418 66.5 29.6875 66.5H27.3125H15.4375V68.875H27.3125C27.9668 68.875 28.5 69.4082 28.5 70.0625C28.5 70.7168 27.9668 71.25 27.3125 71.25H12.1232C10.6222 71.25 9.1485 70.8415 7.86125 70.0696L3.89144 67.6875H2.375V53.4375H3.89144L7.86125 51.0554C9.1485 50.2835 10.6222 49.875 12.1232 49.875H22.5625C22.5625 51.1848 21.4973 52.25 20.1875 52.25H15.4375H14.9459L13.1219 54.074C12.0009 55.195 10.5094 55.8125 8.92406 55.8125H7.125V58.1875H8.92406C11.1447 58.1875 13.2311 57.323 14.8022 55.7531L15.9303 54.625H20.1875H29.5972C30.6803 55.4468 31.9081 56.0939 33.25 56.5001V57H15.4375V59.375H33.25V60.5625C33.25 60.9805 33.3355 61.3771 33.4685 61.75H29.6875H15.4375V64.125H29.6875C30.3418 64.125 30.875 64.6582 30.875 65.3125ZM46.3125 28.5C46.3125 29.1543 45.7793 29.6875 45.125 29.6875C44.4707 29.6875 43.9375 29.1543 43.9375 28.5V28.31C43.9375 24.4862 40.8262 21.375 37.0025 21.375H36.6225C32.7988 21.375 29.6875 24.4862 29.6875 28.31C29.6875 31.3904 31.7561 34.1335 34.7166 34.979L39.5604 36.3624C43.5361 37.4989 46.3125 41.1789 46.3125 45.315C46.3125 49.6814 43.2119 53.5099 38.9405 54.4196L38 54.6191V60.5625C38 61.2168 37.4668 61.75 36.8125 61.75C36.1582 61.75 35.625 61.2168 35.625 60.5625V54.6191L34.6845 54.4196C30.4131 53.5099 27.3125 49.6814 27.3125 45.315V45.125C27.3125 44.4707 27.8457 43.9375 28.5 43.9375C29.1543 43.9375 29.6875 44.4707 29.6875 45.125V45.315C29.6875 49.1387 32.7988 52.25 36.6225 52.25H37.0013C40.8251 52.25 43.9363 49.1387 43.9363 45.315C43.9363 42.2346 41.8677 39.4915 38.9072 38.646L34.0634 37.2626C30.0889 36.1261 27.3125 32.4461 27.3125 28.31C27.3125 23.9436 30.4131 20.1151 34.6845 19.2054L35.625 19.0059V13.0625C35.625 12.4082 36.1582 11.875 36.8125 11.875C37.4668 11.875 38 12.4082 38 13.0625V19.0059L38.9405 19.2054C43.2119 20.1151 46.3125 23.9436 46.3125 28.31V28.5ZM71.25 20.1875H69.7336L65.7637 22.5696C64.4765 23.3415 63.0028 23.75 61.5018 23.75H47.7494C47.3872 22.9057 46.9276 22.1089 46.3849 21.375H58.1875V19H44.0278C42.9448 18.1782 41.7169 17.5311 40.375 17.1249V16.625H58.1875V14.25H40.375V13.0625C40.375 12.6445 40.2895 12.2479 40.1565 11.875H43.9375H58.1875V9.5H43.9375C43.2832 9.5 42.75 8.96681 42.75 8.3125C42.75 7.65819 43.2832 7.125 43.9375 7.125H53.4375H57.6959L58.824 8.25313C60.3939 9.823 62.4815 10.6875 64.7021 10.6875H66.5V8.3125H64.7009C63.1156 8.3125 61.6241 7.695 60.5019 6.574L58.6791 4.75H58.1875H53.4375C52.1277 4.75 51.0625 3.68481 51.0625 2.375H61.5018C63.0028 2.375 64.4765 2.7835 65.7637 3.55537L69.7336 5.9375H71.25V20.1875Z" fill="black"/>
<path d="M51.0625 43.9375H62.9375V46.3125H51.0625V43.9375Z" fill="black"/>
<path d="M10.6875 27.3125H22.5625V29.6875H10.6875V27.3125Z" fill="black"/>
<path d="M11.7781 35.1326L22.7506 30.5844L23.6602 32.7789L12.6877 37.3271L11.7781 35.1326Z" fill="black"/>
<path d="M11.7772 21.8745L12.6868 19.68L23.6594 24.2281L22.7497 26.4226L11.7772 21.8745Z" fill="black"/>
<path d="M49.9922 40.8448L60.9647 36.2967L61.8743 38.4912L50.9018 43.0394L49.9922 40.8448Z" fill="black"/>
<path d="M49.9977 49.4087L50.9073 47.2142L61.8798 51.7623L60.9702 53.9568L49.9977 49.4087Z" fill="black"/>
</svg>
