<svg width="118" height="120" viewBox="0 0 118 120" fill="none" xmlns="http://www.w3.org/2000/svg">
<rect width="118" height="118" fill="white"/>
<path d="M74.5118 117.519H25.4779C22.7535 117.519 20.5449 115.311 20.5449 112.586V20.1012C20.5449 17.3768 22.7535 15.1682 25.4779 15.1682H74.5118C77.2362 15.1682 79.4448 17.3768 79.4448 20.1012V112.586C79.4448 115.311 77.2362 117.519 74.5118 117.519Z" fill="#CDCEFF"/>
<path d="M79.4448 20.1011V112.586C79.4448 115.311 77.2366 117.52 74.5114 117.52H70.0476C72.7728 117.52 74.981 115.311 74.981 112.586V20.1011C74.981 17.3758 72.7728 15.1676 70.0476 15.1676H74.5114C77.2366 15.1678 79.4448 17.376 79.4448 20.1011Z" fill="#7373E0"/>
<path d="M74.5118 117.519H25.4779C22.7535 117.519 20.5449 115.311 20.5449 112.586V104.04H79.445V112.586C79.4448 115.311 77.2362 117.519 74.5118 117.519Z" fill="#8586EE"/>
<path d="M74.5118 15.1682H25.4779C22.7535 15.1682 20.5449 17.3768 20.5449 20.1012V28.6477H79.445V20.1012C79.4448 17.3768 77.2362 15.1682 74.5118 15.1682Z" fill="#8586EE"/>
<path d="M79.4452 104.04V112.586C79.4452 115.311 77.237 117.519 74.5118 117.519H70.1819C72.9071 117.519 75.1153 115.311 75.1153 112.586V104.04H79.4452Z" fill="#302C8C"/>
<path d="M79.4452 20.1011V28.6476H75.1153V20.1011C75.1153 17.3758 72.9071 15.1676 70.1819 15.1676H74.5118C77.2368 15.1678 79.4452 17.376 79.4452 20.1011Z" fill="#302C8C"/>
<path d="M58.9389 59.986H41.0504C39.5617 59.986 38.3549 58.7792 38.3549 57.2905V55.2633C38.3549 48.8348 43.5662 43.6235 49.9947 43.6235C56.4232 43.6235 61.6345 48.8348 61.6345 55.2633V57.2905C61.6347 58.7792 60.4278 59.986 58.9389 59.986Z" fill="#8586EE"/>
<path d="M61.6352 55.2641V57.2911C61.6352 58.7783 60.4281 59.9854 58.9388 59.9854H54.7737C56.263 59.9854 57.4701 58.7783 57.4701 57.2911V55.2641C57.4701 52.0486 56.1662 49.1401 54.061 47.0328C52.4193 45.3911 50.2914 44.2396 47.9122 43.8091C48.5879 43.6875 49.2841 43.6237 49.9948 43.6237C53.2082 43.6237 56.1188 44.9255 58.2261 47.0328C60.3313 49.1401 61.6352 52.0486 61.6352 55.2641Z" fill="#5252CC"/>
<path d="M59.2609 80.401H40.7287C39.4178 80.401 38.3549 79.3383 38.3549 78.0272V67.1722C38.3549 65.8613 39.4176 64.7984 40.7287 64.7984H59.2609C60.5718 64.7984 61.6347 65.8611 61.6347 67.1722V78.0272C61.6347 79.3381 60.5718 80.401 59.2609 80.401Z" fill="#8586EE"/>
<path d="M57.4104 64.7981H59.2602C60.5723 64.7981 61.6352 65.861 61.6352 67.1711V78.0263C61.6352 79.3385 60.5723 80.4014 59.2602 80.4014H57.4104V64.7981Z" fill="#5252CC"/>
<path d="M44.2543 90.7952C42.6968 90.7952 41.4343 89.5327 41.4343 87.9752V80.401H47.0745V87.9752C47.0743 89.5327 45.8118 90.7952 44.2543 90.7952Z" fill="#8586EE"/>
<path d="M55.7354 90.7952C54.1779 90.7952 52.9154 89.5327 52.9154 87.9752V80.401H58.5556V87.9752C58.5554 89.5327 57.2929 90.7952 55.7354 90.7952Z" fill="#8586EE"/>
<path d="M47.0738 80.4014V87.9756C47.0738 89.5329 45.8111 90.7956 44.2538 90.7956C43.7677 90.7956 43.3104 90.672 42.9108 90.4557C43.7903 89.9778 44.3877 89.0468 44.3877 87.9756V80.4014H47.0738Z" fill="#5252CC"/>
<path d="M58.5556 80.4014V87.9756C58.5556 89.5329 57.2929 90.7956 55.7356 90.7956C55.2495 90.7956 54.7922 90.672 54.3926 90.4557C55.2722 89.9778 55.8675 89.0468 55.8675 87.9756V80.4014H58.5556Z" fill="#5252CC"/>
<path d="M69.6241 76.2286C68.0666 76.2286 66.8041 74.9661 66.8041 73.4086V67.6189C66.8041 66.0614 68.0666 64.7989 69.6241 64.7989C71.1816 64.7989 72.4441 66.0614 72.4441 67.6189V73.4084C72.4443 74.9659 71.1816 76.2286 69.6241 76.2286Z" fill="#8586EE"/>
<path d="M30.3656 76.2301C28.8082 76.2301 27.5457 74.9676 27.5457 73.4101V67.6204C27.5457 66.0629 28.8082 64.8004 30.3656 64.8004C31.9231 64.8004 33.1856 66.0629 33.1856 67.6204V73.4099C33.1856 74.9674 31.9231 76.2301 30.3656 76.2301Z" fill="#8586EE"/>
<path d="M72.4437 67.6183V73.4086C72.4437 74.9659 71.181 76.2286 69.6237 76.2286C69.0902 76.2286 68.5917 76.0803 68.1653 75.8228C68.981 75.3264 69.5248 74.4324 69.5248 73.4086V67.6183C69.5248 66.8396 69.2097 66.1352 68.6988 65.6243C68.5381 65.4636 68.3589 65.3236 68.1653 65.2041C68.5917 64.9466 69.0902 64.7983 69.6237 64.7983C70.4023 64.7983 71.1068 65.1134 71.6177 65.6243C72.1283 66.1352 72.4437 66.8396 72.4437 67.6183Z" fill="#5252CC"/>
<path d="M33.1862 67.6183V73.4087C33.1862 74.966 31.9235 76.2287 30.3662 76.2287C29.8327 76.2287 29.3322 76.0804 28.9058 75.8229C29.7215 75.3264 30.2653 74.4325 30.2653 73.4087V67.6183C30.2653 66.8397 29.9501 66.1352 29.4393 65.6244C29.2786 65.4637 29.0994 65.3236 28.9058 65.2041C29.3322 64.9467 29.8327 64.7983 30.3662 64.7983C31.1449 64.7983 31.8493 65.1135 32.3602 65.6244C32.871 66.1352 33.1862 66.8397 33.1862 67.6183Z" fill="#5252CC"/>
<path d="M41.0507 61.531H58.9392C61.2776 61.531 63.1797 59.6287 63.1797 57.2905V55.2634C63.1797 50.5882 60.7317 46.4769 57.0525 44.1352L57.8668 42.6247C58.2718 41.8736 57.9912 40.9366 57.2402 40.5316C56.4891 40.1267 55.5519 40.407 55.1471 41.1582L54.2661 42.7926C52.9255 42.3322 51.4898 42.0786 49.9949 42.0786C48.5001 42.0786 47.0643 42.3322 45.7237 42.7926L44.8427 41.1582C44.4377 40.4072 43.5007 40.1267 42.7497 40.5316C41.9986 40.9364 41.7181 41.8736 42.123 42.6247L42.9373 44.1352C39.2579 46.4769 36.8102 50.5884 36.8102 55.2634V57.2905C36.81 59.6287 38.7123 61.531 41.0507 61.531ZM39.8998 55.2634C39.8998 49.6971 44.4283 45.1684 49.9947 45.1684C55.5612 45.1684 60.0896 49.6969 60.0896 55.2634V57.2905C60.0896 57.9251 59.5734 58.4411 58.939 58.4411H41.0505C40.4158 58.4411 39.8998 57.9249 39.8998 57.2905V55.2634Z" fill="black"/>
<path d="M45.5312 55.3936C46.3845 55.3936 47.0762 54.7019 47.0762 53.8487V52.3645C47.0762 51.5113 46.3845 50.8196 45.5312 50.8196C44.678 50.8196 43.9863 51.5113 43.9863 52.3645V53.8487C43.9863 54.7019 44.678 55.3936 45.5312 55.3936Z" fill="black"/>
<path d="M54.4586 55.3936C55.3118 55.3936 56.0035 54.7019 56.0035 53.8487V52.3645C56.0035 51.5113 55.3118 50.8196 54.4586 50.8196C53.6054 50.8196 52.9137 51.5113 52.9137 52.3645V53.8487C52.9137 54.7019 53.6054 55.3936 54.4586 55.3936Z" fill="black"/>
<path d="M39.8891 81.8532V87.9754C39.8891 90.3824 41.8472 92.3403 44.254 92.3403C46.6608 92.3403 48.6189 90.3822 48.6189 87.9754V81.9459H51.3701V87.9754C51.3701 90.3824 53.3282 92.3403 55.735 92.3403C58.1418 92.3403 60.0999 90.3822 60.0999 87.9754V81.8532C61.8583 81.4674 63.1791 79.8998 63.1791 78.0273V77.5703C63.1791 76.717 62.4873 76.0253 61.6341 76.0253C60.7809 76.0253 60.0892 76.717 60.0892 77.5703V78.0273C60.0892 78.4844 59.7174 78.8562 59.2603 78.8562H58.555H41.4336H40.7283C40.2712 78.8562 39.8994 78.4844 39.8994 78.0273V67.1723C39.8994 66.7152 40.2712 66.3434 40.7283 66.3434H59.2605C59.7176 66.3434 60.0894 66.7152 60.0894 67.1723V70.3606C60.0894 71.2138 60.7811 71.9056 61.6343 71.9056C62.4876 71.9056 63.1793 71.2138 63.1793 70.3606V67.1723C63.1793 65.0115 61.4214 63.2536 59.2605 63.2536H40.7283C38.5675 63.2536 36.8096 65.0115 36.8096 67.1723V78.0273C36.81 79.8998 38.1308 81.4674 39.8891 81.8532ZM54.4604 81.9461H57.0107V87.9756C57.0107 88.6788 56.4387 89.2507 55.7356 89.2507C55.0326 89.2507 54.4606 88.6786 54.4606 87.9756V81.9461H54.4604ZM42.9789 81.9461H45.5293V87.9756C45.5293 88.6788 44.9573 89.2507 44.2542 89.2507C43.5512 89.2507 42.9792 88.6786 42.9792 87.9756V81.9461H42.9789Z" fill="black"/>
<path d="M65.2592 73.4085C65.2592 75.8155 67.2173 77.7734 69.6241 77.7734C72.0308 77.7734 73.989 75.8153 73.989 73.4085V67.619C73.989 65.212 72.0308 63.2541 69.6241 63.2541C67.2173 63.2541 65.2592 65.2122 65.2592 67.619V73.4085ZM68.349 67.619C68.349 66.9158 68.921 66.3439 69.6241 66.3439C70.3271 66.3439 70.8991 66.916 70.8991 67.619V73.4085C70.8991 74.1118 70.3271 74.6836 69.6241 74.6836C68.921 74.6836 68.349 74.1116 68.349 73.4085V67.619Z" fill="black"/>
<path d="M30.3656 77.7736C32.7726 77.7736 34.7306 75.8155 34.7306 73.4087V67.619C34.7306 65.212 32.7724 63.2541 30.3656 63.2541C27.9589 63.2541 26.0007 65.2122 26.0007 67.619V73.4085C26.0005 75.8155 27.9587 77.7736 30.3656 77.7736ZM29.0904 67.619C29.0904 66.9158 29.6624 66.3439 30.3654 66.3439C31.0685 66.3439 31.6405 66.916 31.6405 67.619V73.4085C31.6405 74.1118 31.0685 74.6836 30.3654 74.6836C29.6624 74.6836 29.0904 74.1116 29.0904 73.4085V67.619Z" fill="black"/>
<path d="M74.5118 13.6231H38.9058C38.0525 13.6231 37.3608 14.3148 37.3608 15.168C37.3608 16.0212 38.0525 16.7129 38.9058 16.7129H74.5118C76.3799 16.7129 77.8999 18.2327 77.8999 20.101V27.1026H22.0898V20.101C22.0898 18.2327 23.6098 16.7129 25.4779 16.7129H31.7649C32.6181 16.7129 33.3099 16.0212 33.3099 15.168C33.3099 14.3148 32.6181 13.6231 31.7649 13.6231H25.4779C21.9059 13.6231 19 16.529 19 20.101V112.586C19 116.158 21.9059 119.064 25.4779 119.064H74.5118C78.0839 119.064 80.9897 116.158 80.9897 112.586V20.101C80.9897 16.529 78.0839 13.6231 74.5118 13.6231V13.6231ZM77.8999 112.586C77.8999 114.455 76.3799 115.974 74.5118 115.974H25.4779C23.6098 115.974 22.0898 114.455 22.0898 112.586V105.585H77.9001V112.586H77.8999ZM77.8999 102.495H22.0898V30.1924H77.9001V102.495H77.8999Z" fill="black"/>
<path d="M47.5048 112.324H52.4852C53.3384 112.324 54.0301 111.633 54.0301 110.78C54.0301 109.926 53.3384 109.235 52.4852 109.235H47.5048C46.6516 109.235 45.9598 109.926 45.9598 110.78C45.9598 111.633 46.6516 112.324 47.5048 112.324Z" fill="black"/>
<path d="M43.4826 23.9563C44.614 23.9563 45.5312 23.0392 45.5312 21.9078C45.5312 20.7764 44.614 19.8592 43.4826 19.8592C42.3513 19.8592 41.4341 20.7764 41.4341 21.9078C41.4341 23.0392 42.3513 23.9563 43.4826 23.9563Z" fill="black"/>
<path d="M58.5557 23.4528C59.4089 23.4528 60.1006 22.761 60.1006 21.9078C60.1006 21.0546 59.4089 20.3629 58.5557 20.3629H49.995C49.1418 20.3629 48.4501 21.0546 48.4501 21.9078C48.4501 22.761 49.1418 23.4528 49.995 23.4528H58.5557Z" fill="black"/>
<path d="M97.6068 25.4428V20.3998L93.724 19.4325C93.2971 17.4382 92.5124 15.5768 91.4393 13.919L93.5006 10.4899L89.9342 6.92342L86.505 8.98475C84.8472 7.91171 82.9858 7.12691 80.9915 6.69998L80.0242 2.81711H74.9813L74.0139 6.6999C72.0196 7.12683 70.1581 7.91154 68.5004 8.98466L65.0712 6.92334L61.5048 10.4898L63.5661 13.9189C62.4931 15.5767 61.7083 17.4381 61.2814 19.4324L57.3986 20.3997V25.4427L61.2814 26.41C61.7083 28.4043 62.493 30.2657 63.5661 31.9235L61.5048 35.3526L65.0712 38.9191L68.5004 36.8577C70.1581 37.9308 72.0196 38.7156 74.0139 39.1425L74.9812 43.0254H80.0241L80.9914 39.1426C82.9857 38.7157 84.8472 37.9309 86.5049 36.8578L89.9341 38.9191L93.5005 35.3527L91.4392 31.9236C92.5122 30.2658 93.297 28.4044 93.724 26.41L97.6068 25.4428Z" fill="#8586EE"/>
<path d="M77.5027 34.3626C83.8216 34.3626 88.944 29.2401 88.944 22.9212C88.944 16.6023 83.8216 11.4798 77.5027 11.4798C71.1838 11.4798 66.0613 16.6023 66.0613 22.9212C66.0613 29.2401 71.1838 34.3626 77.5027 34.3626Z" fill="#7373E0"/>
<path d="M77.5027 27.9881C80.3011 27.9881 82.5696 25.7196 82.5696 22.9212C82.5696 20.1229 80.3011 17.8543 77.5027 17.8543C74.7043 17.8543 72.4358 20.1229 72.4358 22.9212C72.4358 25.7196 74.7043 27.9881 77.5027 27.9881Z" fill="white"/>
<path d="M97.8043 19.6069L94.4082 18.7608C93.9886 17.0479 93.3142 15.4204 92.3981 13.9101L94.201 10.9109C94.3944 10.5893 94.3438 10.1773 94.0784 9.91196L90.5119 6.34543C90.2467 6.08008 89.8346 6.02957 89.513 6.22285L86.5137 8.02576C85.0035 7.10972 83.3761 6.43533 81.6631 6.01568L80.8172 2.61971C80.7264 2.25555 80.3994 2 80.0242 2H74.9812C74.606 2 74.279 2.25555 74.1882 2.61971L73.3422 6.01584C71.6293 6.43549 70.0017 7.11005 68.4915 8.02601L65.4923 6.22301C65.1706 6.02965 64.7586 6.08016 64.4933 6.3456L60.9268 9.91204C60.6615 10.1774 60.611 10.5894 60.8042 10.911L62.6071 13.9102C61.6911 15.4205 61.0167 17.0479 60.5971 18.7609L57.201 19.6069C56.8369 19.6976 56.5813 20.0247 56.5813 20.3999V25.4428C56.5813 25.8181 56.8369 26.1451 57.201 26.2359L60.5971 27.0819C61.0168 28.7948 61.6912 30.4223 62.6073 31.9325L60.8043 34.9318C60.611 35.2535 60.6615 35.6654 60.9269 35.9307L64.4934 39.4972C64.7587 39.7626 65.1707 39.8131 65.4923 39.6198L68.4916 37.8168C70.002 38.7329 71.6293 39.4073 73.3423 39.827L74.1883 43.2231C74.279 43.5873 74.606 43.8428 74.9813 43.8428H80.0243C80.3995 43.8428 80.7265 43.5873 80.8173 43.2231L81.6634 39.827C83.3763 39.4073 85.0037 38.7329 86.5141 37.8168L89.5133 39.6198C89.8349 39.8131 90.2469 39.7626 90.5123 39.4972L94.0788 35.9307C94.3441 35.6653 94.3946 35.2534 94.2014 34.9318L92.3984 31.9325C93.3145 30.4223 93.9889 28.7948 94.4085 27.0819L97.8047 26.2359C98.1688 26.1451 98.4244 25.8181 98.4244 25.4428V20.3999C98.4241 20.0247 98.1685 19.6976 97.8043 19.6069ZM96.7896 24.8042L93.5264 25.6171C93.2235 25.6926 92.9901 25.9339 92.9248 26.239C92.5247 28.1084 91.794 29.8715 90.7532 31.4796C90.5836 31.7416 90.578 32.0773 90.7388 32.3447L92.4711 35.2265L89.8078 37.8898L86.926 36.1575C86.6585 35.9967 86.3228 36.0023 86.0609 36.1719C84.4527 37.2128 82.6895 37.9434 80.8203 38.3435C80.5152 38.4088 80.2739 38.6422 80.1984 38.9451L79.3855 42.2083H75.6198L74.8069 38.9451C74.7315 38.6422 74.4902 38.4088 74.185 38.3435C72.3157 37.9434 70.5526 37.2128 68.9444 36.1719C68.6824 36.0022 68.3467 35.9967 68.0794 36.1575L65.1976 37.8898L62.5342 35.2266L64.2666 32.3447C64.4273 32.0773 64.4217 31.7416 64.2522 31.4797C63.2112 29.8715 62.4806 28.1084 62.0804 26.2391C62.0151 25.934 61.7817 25.6926 61.4789 25.6172L58.2158 24.8042V21.0385L61.4789 20.2256C61.7818 20.1502 62.0152 19.9089 62.0805 19.6037C62.4806 17.7343 63.2113 15.9712 64.2522 14.3631C64.4217 14.1011 64.4273 13.7655 64.2666 13.4981L62.5342 10.6162L65.1975 7.95287L68.0793 9.68517C68.3468 9.84601 68.6824 9.84037 68.9444 9.67079C70.5524 8.62995 72.3156 7.89926 74.185 7.49913C74.4902 7.43384 74.7315 7.20043 74.8069 6.89756L75.6198 3.63448H79.3855L80.1984 6.89764C80.2739 7.20051 80.5152 7.43392 80.8203 7.49922C82.6897 7.89934 84.4528 8.63003 86.0609 9.67087C86.3228 9.84045 86.6586 9.84601 86.926 9.68525L89.8078 7.95295L92.4711 10.6163L90.7388 13.4981C90.578 13.7655 90.5836 14.1012 90.7532 14.3631C91.794 15.9712 92.5247 17.7343 92.9248 19.6037C92.9901 19.9089 93.2235 20.1502 93.5264 20.2256L96.7896 21.0385V24.8042Z" fill="black"/>
<path d="M77.5026 10.6626C75.5967 10.6626 73.77 11.0882 72.0732 11.9277C71.6687 12.1279 71.5029 12.618 71.7032 13.0226C71.9033 13.4271 72.3934 13.5929 72.798 13.3926C74.2674 12.6657 75.8503 12.2971 77.5026 12.2971C83.3608 12.2971 88.1268 17.0631 88.1268 22.9212C88.1268 28.7794 83.3608 33.5454 77.5026 33.5454C71.6445 33.5454 66.8785 28.7794 66.8785 22.9212C66.8785 21.0168 67.388 19.149 68.352 17.5198C68.5819 17.1313 68.4532 16.6301 68.0648 16.4002C67.6765 16.1705 67.1752 16.299 66.9453 16.6874C65.8323 18.5685 65.244 20.7242 65.244 22.9212C65.244 29.6806 70.7432 35.1799 77.5026 35.1799C84.262 35.1799 89.7613 29.6806 89.7613 22.9212C89.7613 16.1618 84.262 10.6626 77.5026 10.6626Z" fill="black"/>
<path d="M77.5027 17.0371C74.2581 17.0371 71.6185 19.6767 71.6185 22.9213C71.6185 26.1658 74.2581 28.8054 77.5027 28.8054C80.7472 28.8054 83.3868 26.1658 83.3868 22.9213C83.3868 19.6767 80.7472 17.0371 77.5027 17.0371ZM77.5027 27.1709C75.1594 27.1709 73.253 25.2646 73.253 22.9213C73.253 20.578 75.1594 18.6716 77.5027 18.6716C79.8459 18.6716 81.7523 20.578 81.7523 22.9213C81.7523 25.2646 79.8459 27.1709 77.5027 27.1709Z" fill="black"/>
<path d="M69.7054 15.3667C69.9204 15.3667 70.1312 15.2792 70.2832 15.1272C70.4352 14.9752 70.5227 14.7644 70.5227 14.5494C70.5227 14.3345 70.4352 14.1236 70.2832 13.9716C70.1312 13.8196 69.9204 13.7322 69.7054 13.7322C69.4905 13.7322 69.2796 13.8196 69.1276 13.9716C68.9756 14.1236 68.8882 14.3345 68.8882 14.5494C68.8882 14.7644 68.9756 14.9752 69.1276 15.1272C69.2796 15.2792 69.4905 15.3667 69.7054 15.3667Z" fill="black"/>
</svg>
