<svg width="125" height="108" viewBox="0 0 125 108" fill="none" xmlns="http://www.w3.org/2000/svg">
<path d="M92.4022 99.0835H27.6917V94.3427C27.6917 92.3878 29.2762 90.8032 31.2311 90.8032H88.8627C90.8176 90.8032 92.4022 92.3878 92.4022 94.3427V99.0835Z" fill="#AAABFF"/>
<path d="M88.8628 90.8027H84.8635C86.8184 90.8027 88.403 92.3873 88.403 94.3422V99.083H92.4023V94.3422C92.4023 92.3873 90.8177 90.8027 88.8628 90.8027Z" fill="#7373E0"/>
<path d="M31.2311 90.8027H35.2304C33.2755 90.8027 31.691 92.3873 31.691 94.3422V99.083H27.6917V94.3422C27.6917 92.3873 29.2762 90.8027 31.2311 90.8027Z" fill="#99CA6F"/>
<path d="M41.051 84.7415H79.0426V90.8029H41.051V84.7415Z" fill="#7373E0"/>
<path d="M92.4022 100.037H27.6917C27.1655 100.037 26.7385 99.6096 26.7385 99.0835V94.3427C26.7385 91.8655 28.7539 89.8501 31.2311 89.8501H88.8632C91.3404 89.8501 93.3558 91.8655 93.3558 94.3427V99.0835C93.3553 99.6096 92.9288 100.037 92.4022 100.037ZM28.6448 98.1304H91.4491V94.3427C91.4491 92.9168 90.2886 91.7563 88.8627 91.7563H31.2311C29.8052 91.7563 28.6448 92.9168 28.6448 94.3427V98.1304Z" fill="black"/>
<path d="M79.0426 91.7565H41.051C40.5249 91.7565 40.0979 91.3295 40.0979 90.8033V84.7419C40.0979 84.2158 40.5249 83.7888 41.051 83.7888H79.0426C79.5687 83.7888 79.9957 84.2158 79.9957 84.7419V90.8033C79.9957 91.3295 79.5687 91.7565 79.0426 91.7565ZM42.0042 89.8502H78.0895V85.6951H42.0042V89.8502Z" fill="black"/>
<path d="M106.099 84.7415H13.9943C12.0394 84.7415 10.4548 83.1569 10.4548 81.2021V24.4926C10.4548 22.5377 12.0394 20.9531 13.9943 20.9531H106.1C108.055 20.9531 109.639 22.5377 109.639 24.4926V81.2025C109.639 83.1569 108.054 84.7415 106.099 84.7415Z" fill="#DADAFF"/>
<path d="M54.8323 51.0876V40.5137L43.1937 41.9877V51.0876H54.8323Z" fill="#AAABFF"/>
<path d="M58.0763 51.0876H73.6489V38.3066L58.0763 40.2787V51.0876Z" fill="#AAABFF"/>
<path d="M54.8323 54.3315H43.1937V63.5583L54.8323 65.5002V54.3315Z" fill="#AAABFF"/>
<path d="M58.0763 54.3315V65.81L73.6489 68.4087V54.3315H58.0763Z" fill="#AAABFF"/>
<path d="M106.1 20.9531H102.1C104.055 20.9531 105.64 22.5377 105.64 24.4926V81.2025C105.64 83.1574 104.055 84.742 102.1 84.742H106.1C108.054 84.742 109.639 83.1574 109.639 81.2025V24.4926C109.639 22.5377 108.054 20.9531 106.1 20.9531Z" fill="#AAABFF"/>
<path d="M13.9943 84.7415H17.9936C16.0387 84.7415 14.4541 83.1569 14.4541 81.2021V24.4926C14.4541 22.5377 16.0387 20.9531 17.9936 20.9531H13.9943C12.0394 20.9531 10.4548 22.5377 10.4548 24.4926V81.2025C10.4548 83.1569 12.0394 84.7415 13.9943 84.7415Z" fill="white"/>
<path d="M106.099 85.6951H13.9943C11.5171 85.6951 9.50171 83.6797 9.50171 81.2021V24.4926C9.50171 22.0154 11.5171 20 13.9943 20H106.1C108.577 20 110.593 22.0154 110.593 24.4926V81.2021C110.592 83.6792 108.577 85.6951 106.099 85.6951ZM13.9943 21.9062C12.5679 21.9062 11.408 23.0667 11.408 24.4926V81.2021C11.408 82.6284 12.5684 83.7888 13.9943 83.7888H106.1C107.526 83.7888 108.686 82.6284 108.686 81.2021V24.4926C108.686 23.0667 107.526 21.9062 106.1 21.9062H13.9943Z" fill="black"/>
<path d="M13.6539 36.4457C13.1278 36.4457 12.7008 36.0187 12.7008 35.4926V29.7738C12.7008 29.2477 13.1278 28.8207 13.6539 28.8207C14.1801 28.8207 14.6071 29.2477 14.6071 29.7738V35.4926C14.6071 36.0187 14.1805 36.4457 13.6539 36.4457Z" fill="black"/>
<path d="M54.8323 52.0407H43.1937C42.6676 52.0407 42.2406 51.6137 42.2406 51.0876V41.9876C42.2406 41.5072 42.598 41.1026 43.0741 41.0421L54.7122 39.5681C54.9839 39.5338 55.257 39.6177 55.4624 39.7988C55.6677 39.9794 55.7855 40.2401 55.7855 40.5136V51.0876C55.7855 51.6137 55.3585 52.0407 54.8323 52.0407ZM44.1469 50.1345H53.8787V41.5954L44.1469 42.8278V50.1345Z" fill="black"/>
<path d="M73.6489 52.0407H58.0763C57.5502 52.0407 57.1232 51.6137 57.1232 51.0876V40.2787C57.1232 39.7983 57.4806 39.3937 57.9567 39.3332L73.5293 37.3612C73.8005 37.3264 74.074 37.4107 74.2794 37.5918C74.4848 37.7724 74.6025 38.0331 74.6025 38.3067V51.0871C74.602 51.6137 74.1755 52.0407 73.6489 52.0407ZM59.0294 50.1345H72.6958V39.3885L59.0294 41.1189V50.1345Z" fill="black"/>
<path d="M54.8323 66.4539C54.7804 66.4539 54.7275 66.4496 54.6756 66.441L43.0374 64.4986C42.578 64.4218 42.2411 64.0244 42.2411 63.5583V54.3321C42.2411 53.8059 42.6681 53.3789 43.1942 53.3789H54.8323C55.3585 53.3789 55.7855 53.8059 55.7855 54.3321V65.5013C55.7855 65.7815 55.662 66.0474 55.4481 66.2285C55.2746 66.3748 55.0559 66.4539 54.8323 66.4539ZM44.1469 62.7505L53.8787 64.3751V55.2847H44.1469V62.7505Z" fill="black"/>
<path d="M73.6489 69.3619C73.597 69.3619 73.5441 69.3576 73.4921 69.349L57.9195 66.7498C57.4601 66.6731 57.1232 66.2756 57.1232 65.8096V54.3315C57.1232 53.8054 57.5502 53.3784 58.0763 53.3784H73.6489C74.1751 53.3784 74.6021 53.8054 74.6021 54.3315V68.4087C74.6021 68.689 74.4786 68.9549 74.2647 69.136C74.0917 69.2827 73.8729 69.3619 73.6489 69.3619ZM59.0294 65.0023L72.6958 67.2836V55.2847H59.0294V65.0023Z" fill="black"/>
<path d="M30.8579 106.266H3.77152C2.21506 106.266 0.953125 105.004 0.953125 103.448V60.1604C0.953125 58.604 2.21506 57.342 3.77152 57.342H30.8584C32.4148 57.342 33.6768 58.604 33.6768 60.1604V103.448C33.6763 105.004 32.4144 106.266 30.8579 106.266Z" fill="#DADAFF"/>
<path d="M30.8579 57.3423H28.0396C29.596 57.3423 30.8579 58.6042 30.8579 60.1607V103.448C30.8579 105.005 29.596 106.267 28.0396 106.267H30.8579C32.4144 106.267 33.6763 105.005 33.6763 103.448V60.1607C33.6763 58.6042 32.4144 57.3423 30.8579 57.3423Z" fill="#AAABFF"/>
<path d="M3.77152 106.266H6.58991C5.03345 106.266 3.77152 105.004 3.77152 103.448V60.1604C3.77152 58.604 5.03345 57.342 6.58991 57.342H3.77152C2.21506 57.342 0.953125 58.604 0.953125 60.1604V103.448C0.953125 105.004 2.21506 106.266 3.77152 106.266Z" fill="white"/>
<path d="M23.5984 62.0002H11.0309C10.2389 62.0002 9.52356 61.5265 9.21427 60.7969L7.75122 57.3423H26.8781L25.415 60.7969C25.1057 61.526 24.3904 62.0002 23.5984 62.0002Z" fill="#AAABFF"/>
<path d="M30.8579 107.219H3.77152C1.6918 107.219 0 105.528 0 103.448V60.1607C0 58.081 1.6918 56.3892 3.77152 56.3892H30.8579C32.9376 56.3892 34.6294 58.081 34.6294 60.1607V103.448C34.6294 105.528 32.9376 107.219 30.8579 107.219ZM3.77152 58.2954C2.74309 58.2954 1.90625 59.1323 1.90625 60.1607V103.448C1.90625 104.476 2.74309 105.313 3.77152 105.313H30.8579C31.8863 105.313 32.7232 104.476 32.7232 103.448V60.1607C32.7232 59.1323 31.8863 58.2954 30.8579 58.2954H3.77152Z" fill="black"/>
<path d="M23.5984 62.9536H11.031C9.85339 62.9536 8.7959 62.2525 8.33697 61.1688L6.87393 57.7142C6.74954 57.4197 6.78052 57.0828 6.95685 56.8159C7.13365 56.549 7.43198 56.3889 7.75128 56.3889H26.8776C27.1974 56.3889 27.4957 56.549 27.6721 56.8159C27.8484 57.0828 27.8798 57.4197 27.755 57.7142L26.2919 61.1688C25.833 62.253 24.7755 62.9536 23.5984 62.9536ZM9.19002 58.2956L10.0922 60.4254C10.2518 60.8033 10.6207 61.0478 11.031 61.0478H23.5984C24.0087 61.0478 24.3771 60.8033 24.5377 60.4254L25.4394 58.2956H9.19002Z" fill="black"/>
<path d="M116.949 49.4624H79.1361C77.9261 49.4624 76.9448 50.4436 76.9448 51.6536V104.075C76.9448 105.285 77.9261 106.266 79.1361 106.266H116.949C118.159 106.266 119.141 105.285 119.141 104.075V51.6536C119.141 50.4436 118.159 49.4624 116.949 49.4624Z" fill="#AAABFF"/>
<path d="M116.949 49.4624H113.242C114.452 49.4624 115.433 50.4432 115.433 51.6536V104.075C115.433 105.285 114.452 106.266 113.242 106.266H116.949C118.159 106.266 119.141 105.285 119.141 104.075V51.6536C119.141 50.4432 118.159 49.4624 116.949 49.4624Z" fill="#7373E0"/>
<path d="M79.1361 49.4624H82.8437C81.6337 49.4624 80.6525 50.4432 80.6525 51.6536V104.075C80.6525 105.285 81.6337 106.266 82.8437 106.266H79.1361C77.9261 106.266 76.9448 105.285 76.9448 104.075V51.6536C76.9448 50.4432 77.9256 49.4624 79.1361 49.4624Z" fill="#7373E0"/>
<path d="M116.949 107.219H79.1361C77.4023 107.219 75.9917 105.809 75.9917 104.075V51.6536C75.9917 49.9199 77.4019 48.5093 79.1361 48.5093H116.949C118.683 48.5093 120.094 49.9199 120.094 51.6536V104.075C120.094 105.809 118.683 107.219 116.949 107.219ZM79.1361 50.4155C78.4536 50.4155 77.8979 50.9707 77.8979 51.6536V104.075C77.8979 104.758 78.4536 105.313 79.1361 105.313H116.949C117.632 105.313 118.188 104.758 118.188 104.075V51.6536C118.188 50.9707 117.632 50.4155 116.949 50.4155H79.1361Z" fill="black"/>
<path d="M81.1438 53.9836H114.942V97.8007H81.1438V53.9836Z" fill="#DADAFF"/>
<path d="M114.942 98.7538H81.1438C80.6177 98.7538 80.1907 98.3268 80.1907 97.8007V53.9841C80.1907 53.458 80.6177 53.031 81.1438 53.031H114.942C115.468 53.031 115.895 53.458 115.895 53.9841V97.8007C115.895 98.3273 115.468 98.7538 114.942 98.7538ZM82.0969 96.8476H113.988V54.9373H82.0969V96.8476Z" fill="black"/>
<path d="M99.7954 102.126C99.7954 103.094 99.0105 103.879 98.0426 103.879C97.0742 103.879 96.2898 103.094 96.2898 102.126C96.2898 101.158 97.0747 100.373 98.0426 100.373C99.0105 100.373 99.7954 101.158 99.7954 102.126Z" fill="black"/>
<path d="M107.117 84.3053H88.9685V80.4976C88.9685 75.486 93.0312 71.4233 98.0427 71.4233C103.054 71.4233 107.117 75.486 107.117 80.4976V84.3053Z" fill="#AAABFF"/>
<path d="M107.117 85.2584H88.9685C88.4424 85.2584 88.0154 84.8314 88.0154 84.3053V80.4981C88.0154 74.969 92.5137 70.4707 98.0427 70.4707C103.572 70.4707 108.07 74.969 108.07 80.4981V84.3053C108.07 84.8314 107.644 85.2584 107.117 85.2584ZM89.9216 83.3522H106.164V80.4981C106.164 76.0203 102.521 72.377 98.0427 72.377C93.565 72.377 89.9216 76.0203 89.9216 80.4981V83.3522Z" fill="black"/>
<path d="M92.1186 74.368C91.8746 74.368 91.6311 74.275 91.4447 74.0887L88.0459 70.6903C87.6737 70.3186 87.6737 69.7148 88.0459 69.3426C88.4181 68.9704 89.0214 68.9704 89.3941 69.3426L92.7929 72.741C93.1651 73.1127 93.1651 73.7165 92.7929 74.0887C92.6066 74.275 92.3626 74.368 92.1186 74.368Z" fill="black"/>
<path d="M103.966 74.368C103.722 74.368 103.478 74.275 103.292 74.0887C102.92 73.7165 102.92 73.1127 103.292 72.741L106.691 69.3426C107.063 68.9704 107.666 68.9704 108.039 69.3426C108.411 69.7148 108.411 70.3186 108.039 70.6903L104.64 74.0887C104.454 74.275 104.21 74.368 103.966 74.368Z" fill="black"/>
<path d="M94.0286 81.091C93.5024 81.091 93.0754 80.664 93.0754 80.1379V78.3384C93.0754 77.8123 93.5024 77.3853 94.0286 77.3853C94.5547 77.3853 94.9817 77.8123 94.9817 78.3384V80.1379C94.9817 80.664 94.5552 81.091 94.0286 81.091Z" fill="black"/>
<path d="M102.057 81.091C101.531 81.091 101.104 80.664 101.104 80.1379V78.3384C101.104 77.8123 101.531 77.3853 102.057 77.3853C102.583 77.3853 103.01 77.8123 103.01 78.3384V80.1379C103.01 80.664 102.583 81.091 102.057 81.091Z" fill="black"/>
<path d="M22.4456 83.6049C22.4456 81.9041 23.4902 80.4487 24.9718 79.8411C23.8357 77.9605 21.6516 77.1065 18.0193 78.6301C17.5694 78.8188 17.0576 78.8188 16.6077 78.6301C7.78461 74.9301 7.49152 85.2367 10.0616 90.2854C12.1037 94.2966 15.3319 93.1681 16.6844 92.4547C17.0781 92.2469 17.5479 92.2469 17.9416 92.4547C19.2941 93.1681 22.5223 94.2966 24.5644 90.2854C24.9733 89.4824 25.3088 88.5455 25.5499 87.5537C23.7695 87.1201 22.4456 85.5193 22.4456 83.6049Z" fill="#AAABFF"/>
<path d="M18.1027 71.9897C17.1181 72.9743 16.733 74.3278 16.9384 75.6049C18.2156 75.8103 19.5691 75.4253 20.5536 74.4407C21.5382 73.4561 21.9233 72.1027 21.7179 70.8255C20.4407 70.6201 19.0868 71.0052 18.1027 71.9897Z" fill="#AAABFF"/>
<path d="M20.5689 94.1164C19.2855 94.1164 18.1551 93.645 17.4974 93.2981C17.3821 93.2366 17.2444 93.2371 17.1295 93.2976C16.2288 93.7732 14.4412 94.4814 12.5898 93.8933C11.1963 93.4506 10.0597 92.3821 9.21238 90.7175C7.31471 86.9894 6.98111 81.1691 9.50975 78.4465C10.6773 77.1898 12.92 76.0508 16.9765 77.7507C17.191 77.8408 17.4364 77.8408 17.6514 77.7507C22.63 75.6624 24.8865 77.8546 25.7882 79.3482C25.9321 79.5864 25.965 79.8752 25.8773 80.1397C25.7901 80.4042 25.5914 80.6172 25.334 80.723C24.1588 81.2053 23.3992 82.3367 23.3992 83.6053C23.3992 85.0445 24.3766 86.2874 25.7758 86.6281C26.2871 86.753 26.6007 87.2681 26.4763 87.7795C26.2171 88.8465 25.8497 89.863 25.4141 90.718C24.5667 92.3831 23.4301 93.4515 22.0367 93.8938C21.5372 94.052 21.0426 94.1164 20.5689 94.1164ZM17.3135 91.3456C17.6819 91.3456 18.0507 91.4347 18.3867 91.6115C19.0234 91.948 20.2696 92.4546 21.46 92.0767C22.3493 91.7945 23.108 91.0463 23.7156 89.853C23.973 89.3479 24.2031 88.7712 24.3952 88.1555C22.6476 87.3468 21.4929 85.5916 21.4929 83.6048C21.4929 81.9807 22.2645 80.4967 23.5297 79.565C22.4146 78.5633 20.6904 78.5437 18.3876 79.5088C17.7038 79.7952 16.9203 79.7947 16.2383 79.5083C13.7964 78.4837 12.0017 78.5628 10.9061 79.7437C9.00508 81.7901 9.34058 86.7682 10.9108 89.8525C11.5185 91.0459 12.2772 91.7936 13.1664 92.0762C14.3573 92.4551 15.6036 91.9475 16.2402 91.6111C16.5762 91.4347 16.9446 91.3456 17.3135 91.3456Z" fill="black"/>
<path d="M17.6014 76.6108C17.3307 76.6108 17.0581 76.5894 16.7869 76.5456C16.3809 76.4798 16.0626 76.1619 15.9973 75.7559C15.7361 74.1332 16.2713 72.4728 17.4284 71.3157C18.586 70.1582 20.2482 69.6249 21.869 69.8846C22.275 69.9504 22.5934 70.2683 22.6587 70.6738C22.9198 72.2965 22.3851 73.9569 21.2275 75.1144C20.2635 76.0785 18.951 76.6108 17.6014 76.6108ZM18.7766 72.6635C18.2304 73.2096 17.9054 73.9354 17.8478 74.6955C18.6079 74.6383 19.3332 74.3129 19.8798 73.7672C20.426 73.221 20.751 72.4952 20.8086 71.7351C20.0481 71.7923 19.3227 72.1178 18.7766 72.6635Z" fill="black"/>
<path d="M123.281 23.017V18.0657L119.468 17.1159C119.049 15.1578 118.279 13.3302 117.225 11.7025L119.249 8.33563L115.747 4.83394L112.38 6.85784C110.753 5.80429 108.925 5.03374 106.967 4.61456L106.017 0.802185H101.066L100.116 4.61448C98.1579 5.03366 96.3303 5.80413 94.7026 6.85776L91.3357 4.83386L87.834 8.33555L89.8579 11.7024C88.8044 13.3301 88.0338 15.1577 87.6147 17.1158L83.8024 18.0656V23.017L87.6147 23.9667C88.0338 25.9248 88.8043 27.7524 89.8579 29.3801L87.834 32.747L91.3357 36.2487L94.7026 34.2248C96.3303 35.2783 98.1579 36.0489 100.116 36.4681L101.066 40.2804H106.017L106.967 36.4681C108.925 36.049 110.753 35.2785 112.38 34.2249L115.747 36.2488L119.249 32.7471L117.225 29.3802C118.279 27.7525 119.049 25.9249 119.468 23.9668L123.281 23.017Z" fill="#8586EE"/>
<path d="M103.542 31.7751C109.746 31.7751 114.775 26.7456 114.775 20.5414C114.775 14.3372 109.746 9.30777 103.542 9.30777C97.3373 9.30777 92.3079 14.3372 92.3079 20.5414C92.3079 26.7456 97.3373 31.7751 103.542 31.7751Z" fill="#7373E0"/>
<path d="M103.542 25.5162C106.289 25.5162 108.516 23.2889 108.516 20.5413C108.516 17.7937 106.289 15.5664 103.542 15.5664C100.794 15.5664 98.5667 17.7937 98.5667 20.5413C98.5667 23.2889 100.794 25.5162 103.542 25.5162Z" fill="white"/>
<path d="M123.475 17.2872L120.14 16.4565C119.728 14.7747 119.066 13.1767 118.167 11.6939L119.937 8.74909C120.127 8.43334 120.077 8.02885 119.816 7.76831L116.315 4.26654C116.054 4.006 115.65 3.95641 115.334 4.14618L112.389 5.91636C110.906 5.01695 109.308 4.3548 107.626 3.94277L106.796 0.608463C106.707 0.250912 106.386 0 106.017 0H101.066C100.697 0 100.376 0.250912 100.287 0.608463L99.4566 3.94293C97.7748 4.35496 96.1767 5.01727 94.694 5.9166L91.7492 4.14634C91.4333 3.95649 91.0288 4.00608 90.7684 4.2667L87.2666 7.76839C87.0061 8.02893 86.9565 8.43342 87.1463 8.74917L88.9164 11.694C88.017 13.1768 87.3549 14.7747 86.9428 16.4566L83.6085 17.2872C83.2509 17.3763 83 17.6974 83 18.0658V23.0172C83 23.3856 83.2509 23.7067 83.6085 23.7958L86.9429 24.6265C87.355 26.3083 88.0171 27.9062 88.9166 29.3891L87.1463 32.3339C86.9565 32.6497 87.0062 33.0542 87.2667 33.3147L90.7685 36.8164C91.0289 37.077 91.4335 37.1266 91.7492 36.9368L94.6941 35.1665C96.177 36.0659 97.7748 36.7281 99.4567 37.1402L100.287 40.4747C100.376 40.8322 100.697 41.0831 101.066 41.0831H106.017C106.386 41.0831 106.707 40.8322 106.796 40.4747L107.627 37.1402C109.308 36.7282 110.906 36.066 112.389 35.1665L115.334 36.9368C115.65 37.1266 116.054 37.077 116.315 36.8164L119.817 33.3147C120.077 33.0541 120.127 32.6496 119.937 32.3339L118.167 29.3891C119.066 27.9062 119.728 26.3083 120.14 24.6265L123.475 23.7958C123.832 23.7068 124.083 23.3856 124.083 23.0172V18.0658C124.083 17.6974 123.832 17.3763 123.475 17.2872ZM122.478 22.3902L119.274 23.1883C118.977 23.2624 118.748 23.4993 118.684 23.799C118.291 25.6344 117.573 27.3655 116.551 28.9444C116.385 29.2016 116.38 29.5312 116.537 29.7937L118.238 32.6232L115.623 35.2382L112.794 33.5373C112.531 33.3794 112.202 33.385 111.944 33.5515C110.365 34.5735 108.634 35.2908 106.799 35.6837C106.499 35.7478 106.262 35.977 106.188 36.2743L105.39 39.4782H101.693L100.895 36.2743C100.821 35.977 100.584 35.7478 100.284 35.6837C98.4488 35.2908 96.7176 34.5735 95.1387 33.5515C94.8813 33.3849 94.5518 33.3795 94.2893 33.5373L91.4598 35.2382L88.8448 32.6233L90.5457 29.7938C90.7036 29.5313 90.6981 29.2016 90.5316 28.9445C89.5096 27.3655 88.7921 25.6344 88.3993 23.799C88.3352 23.4994 88.106 23.2625 87.8086 23.1884L84.6048 22.3902V18.6929L87.8087 17.8947C88.1061 17.8207 88.3353 17.5837 88.3994 17.2841C88.7922 15.4487 89.5097 13.7176 90.5316 12.1387C90.6981 11.8814 90.7036 11.5519 90.5457 11.2893L88.8448 8.45974L91.4597 5.84479L94.2893 7.54564C94.5519 7.70355 94.8814 7.69802 95.1387 7.53152C96.7175 6.50958 98.4486 5.79215 100.284 5.39929C100.584 5.33518 100.821 5.10601 100.895 4.80864L101.693 1.60481H105.39L106.188 4.80872C106.262 5.10609 106.499 5.33526 106.799 5.39937C108.634 5.79223 110.365 6.50966 111.944 7.5316C112.202 7.6981 112.531 7.70355 112.794 7.54572L115.623 5.84487L118.238 8.45982L116.537 11.2893C116.38 11.5519 116.385 11.8815 116.551 12.1387C117.573 13.7176 118.291 15.4487 118.684 17.2841C118.748 17.5837 118.977 17.8207 119.274 17.8947L122.478 18.6929V22.3902Z" fill="black"/>
<path d="M103.542 8.50525C101.67 8.50525 99.8766 8.92314 98.2107 9.74737C97.8135 9.94388 97.6508 10.4252 97.8474 10.8223C98.0439 11.2195 98.5251 11.3823 98.9223 11.1857C100.365 10.4719 101.919 10.1101 103.542 10.1101C109.293 10.1101 113.973 14.7895 113.973 20.5413C113.973 26.2931 109.293 30.9725 103.542 30.9725C97.7898 30.9725 93.1103 26.2931 93.1103 20.5413C93.1103 18.6715 93.6105 16.8376 94.557 15.2379C94.7827 14.8565 94.6565 14.3644 94.2751 14.1387C93.8938 13.9131 93.4016 14.0393 93.1759 14.4206C92.0831 16.2676 91.5055 18.3841 91.5055 20.5413C91.5055 27.178 96.9049 32.5774 103.542 32.5774C110.178 32.5774 115.578 27.178 115.578 20.5413C115.578 13.9046 110.178 8.50525 103.542 8.50525Z" fill="black"/>
<path d="M103.542 14.764C100.356 14.764 97.7643 17.3557 97.7643 20.5413C97.7643 23.7269 100.356 26.3186 103.542 26.3186C106.727 26.3186 109.319 23.7269 109.319 20.5413C109.319 17.3557 106.727 14.764 103.542 14.764ZM103.542 24.7138C101.241 24.7138 99.3691 22.842 99.3691 20.5413C99.3691 18.2406 101.241 16.3688 103.542 16.3688C105.842 16.3688 107.714 18.2406 107.714 20.5413C107.714 22.842 105.842 24.7138 103.542 24.7138Z" fill="black"/>
<path d="M95.8858 13.1239C96.0968 13.1239 96.3038 13.0381 96.4531 12.8888C96.6023 12.7396 96.6882 12.5326 96.6882 12.3215C96.6882 12.1105 96.6023 11.9035 96.4531 11.7542C96.3038 11.605 96.0968 11.5191 95.8858 11.5191C95.6747 11.5191 95.4677 11.605 95.3185 11.7542C95.1692 11.9035 95.0834 12.1105 95.0834 12.3215C95.0834 12.5326 95.1692 12.7396 95.3185 12.8888C95.4677 13.0381 95.6747 13.1239 95.8858 13.1239Z" fill="black"/>
</svg>
