<svg width="112" height="111" viewBox="0 0 112 111" fill="none" xmlns="http://www.w3.org/2000/svg">
<g clip-path="url(#clip0)">
<path d="M18.3086 92.7575H11.3711C6.58183 92.7575 2.69922 88.9099 2.69922 84.1638V10.7482C2.69922 6.00212 6.58183 2.15448 11.3711 2.15448H100.691C105.481 2.15448 109.363 6.00212 109.363 10.7482V84.1638C109.363 88.9099 105.481 92.7575 100.691 92.7575H91.8027H18.3086Z" fill="#7373E0"/>
<path d="M100.691 2.15448H11.3711C6.58183 2.15448 2.69922 6.00212 2.69922 10.7482V17.6232H109.363V10.7482C109.363 6.00212 105.481 2.15448 100.691 2.15448Z" fill="#7373E0"/>
<path d="M26.5469 84.2248H12.6719V107.858H26.5469V84.2248Z" fill="#302C8C"/>
<path d="M75.1094 78.6389H61.2344V107.858H75.1094V78.6389Z" fill="#302C8C"/>
<path d="M50.8281 60.4695H36.9531V107.858H50.8281V60.4695Z" fill="#7373E0"/>
<path d="M99.3906 57.2619H85.5156V107.858H99.3906V57.2619Z" fill="#7373E0"/>
<path d="M42.67 42.5322C45.7831 42.5322 48.3068 40.0313 48.3068 36.9463C48.3068 33.8613 45.7831 31.3604 42.67 31.3604C39.557 31.3604 37.0333 33.8613 37.0333 36.9463C37.0333 40.0313 39.557 42.5322 42.67 42.5322Z" fill="white"/>
<path d="M67.9702 68.1115C71.0833 68.1115 73.6069 65.6106 73.6069 62.5256C73.6069 59.4405 71.0833 56.9396 67.9702 56.9396C64.8571 56.9396 62.3335 59.4405 62.3335 62.5256C62.3335 65.6106 64.8571 68.1115 67.9702 68.1115Z" fill="white"/>
<path d="M92.4531 42.5322C95.5662 42.5322 98.0898 40.0313 98.0898 36.9463C98.0898 33.8613 95.5662 31.3604 92.4531 31.3604C89.3401 31.3604 86.8164 33.8613 86.8164 36.9463C86.8164 40.0313 89.3401 42.5322 92.4531 42.5322Z" fill="white"/>
<path d="M19.4663 66.0555C22.5794 66.0555 25.103 63.5546 25.103 60.4695C25.103 57.3845 22.5794 54.8836 19.4663 54.8836C16.3532 54.8836 13.8296 57.3845 13.8296 60.4695C13.8296 63.5546 16.3532 66.0555 19.4663 66.0555Z" fill="white"/>
<path d="M103.961 94.6451C108.135 94.6451 111.531 91.2798 111.531 87.1432V10.7482C111.531 4.82499 106.668 0.00604248 100.691 0.00604248H11.3711C5.394 0.00604248 0.53125 4.82499 0.53125 10.7482V87.1432C0.53125 91.2798 3.92716 94.6451 8.10115 94.6451H10.5039V105.709H2.69922C1.50185 105.709 0.53125 106.671 0.53125 107.858C0.53125 109.044 1.50185 110.006 2.69922 110.006H109.363C110.561 110.006 111.531 109.044 111.531 107.858C111.531 106.671 110.561 105.709 109.363 105.709H101.559V94.6451H103.961ZM11.3711 4.30292H100.691C104.278 4.30292 107.195 7.19428 107.195 10.7482V15.4748H5.08485C5.01136 15.4748 4.93873 15.4787 4.86719 15.4858V10.7482C4.86719 7.19428 7.78484 4.30292 11.3711 4.30292ZM14.8398 105.709V86.3732H24.3789V105.709H14.8398ZM39.1211 105.709V62.6184H48.6602V105.709H39.1211ZM63.4023 105.709V80.7873H72.9414V105.709H63.4023ZM87.6836 105.709V82.5598C87.6836 81.3734 86.713 80.4113 85.5156 80.4113C84.3183 80.4113 83.3477 81.3734 83.3477 82.5598V105.709H77.2773V78.6389C77.2773 77.4525 76.3067 76.4904 75.1094 76.4904H61.2344C60.037 76.4904 59.0664 77.4525 59.0664 78.6389V105.709H52.9961V60.47C52.9961 59.2836 52.0255 58.3215 50.8281 58.3215H36.9531C35.7558 58.3215 34.7852 59.2836 34.7852 60.47V105.709H28.7148V84.2248C28.7148 83.0384 27.7442 82.0764 26.5469 82.0764H12.6719C11.4745 82.0764 10.5039 83.0384 10.5039 84.2248V90.3483H8.10115C6.31778 90.3483 4.86719 88.9105 4.86719 87.1432V19.7607C4.93873 19.7678 5.01136 19.7717 5.08485 19.7717H107.195V87.1432C107.195 88.9105 105.745 90.3483 103.961 90.3483H101.559V57.2619C101.559 56.0755 100.588 55.1135 99.3906 55.1135H85.5156C84.3183 55.1135 83.3477 56.0755 83.3477 57.2619V68.1113C83.3477 69.2977 84.3183 70.2597 85.5156 70.2597C86.713 70.2597 87.6836 69.2977 87.6836 68.1113V59.4103H97.2227V105.709H87.6836Z" fill="black"/>
<path d="M48.6742 12.0373H97.6562C98.8536 12.0373 99.8242 11.0752 99.8242 9.88885C99.8242 8.70249 98.8536 7.74042 97.6562 7.74042H48.6742C47.4768 7.74042 46.5062 8.70249 46.5062 9.88885C46.5062 11.0752 47.4768 12.0373 48.6742 12.0373Z" fill="black"/>
<path d="M23.0781 12.0373C23.6483 12.0373 24.2076 11.8074 24.6109 11.4076C25.0141 11.0082 25.2461 10.4539 25.2461 9.88885C25.2461 9.32382 25.0141 8.76952 24.6109 8.36991C24.2076 7.9703 23.6483 7.74042 23.0781 7.74042C22.5079 7.74042 21.9486 7.97009 21.5454 8.36991C21.1421 8.76952 20.9102 9.32382 20.9102 9.88885C20.9102 10.4539 21.1421 11.0082 21.5454 11.4076C21.9486 11.8074 22.5079 12.0373 23.0781 12.0373Z" fill="black"/>
<path d="M14.4062 12.0373C14.9764 12.0373 15.5358 11.8074 15.939 11.4076C16.3422 11.0082 16.5742 10.4539 16.5742 9.88885C16.5742 9.32382 16.3422 8.76952 15.939 8.36991C15.5358 7.9703 14.9764 7.74042 14.4062 7.74042C13.8361 7.74042 13.2767 7.97009 12.8735 8.36991C12.4703 8.76952 12.2383 9.32382 12.2383 9.88885C12.2383 10.4539 12.4703 11.0082 12.8735 11.4076C13.2767 11.8074 13.8361 12.0373 14.4062 12.0373Z" fill="black"/>
<path d="M31.75 12.0373C32.3202 12.0373 32.8795 11.8074 33.2828 11.4076C33.686 11.0082 33.918 10.4539 33.918 9.88885C33.918 9.32382 33.686 8.76952 33.2828 8.36991C32.8795 7.9703 32.3223 7.74042 31.75 7.74042C31.1798 7.74042 30.6205 7.97009 30.2172 8.36991C29.814 8.76952 29.582 9.32382 29.582 9.88885C29.582 10.4539 29.814 11.0082 30.2172 11.4076C30.6205 11.8074 31.1798 12.0373 31.75 12.0373Z" fill="black"/>
<path d="M85.5156 73.6201C84.9454 73.6201 84.3861 73.8481 83.9829 74.2496C83.5796 74.6492 83.3477 75.2035 83.3477 75.7686C83.3477 76.3336 83.5796 76.8879 83.9829 77.2875C84.3861 77.6869 84.9454 77.917 85.5156 77.917C86.0858 77.917 86.6451 77.6871 87.0484 77.2875C87.4516 76.8879 87.6836 76.3336 87.6836 75.7686C87.6836 75.2014 87.4516 74.6492 87.0484 74.2496C86.6451 73.8478 86.0858 73.6201 85.5156 73.6201Z" fill="black"/>
<path d="M92.4532 44.6804C96.7568 44.6804 100.258 41.2109 100.258 36.946C100.258 32.6812 96.7568 29.2117 92.4532 29.2117C88.1495 29.2117 84.6485 32.6812 84.6485 36.946C84.6485 38.6401 85.2024 40.2076 86.1381 41.4831L71.7373 55.7541C70.6198 55.1412 69.3359 54.791 67.9705 54.791C66.7402 54.791 65.576 55.0756 64.5399 55.5803L49.5031 40.679C50.1216 39.5714 50.475 38.2991 50.475 36.946C50.475 32.6812 46.9739 29.2117 42.6703 29.2117C38.3667 29.2117 34.8656 32.6812 34.8656 36.946C34.8656 38.4366 35.2944 39.8292 36.0346 41.0113L23.2321 53.6983C22.1145 53.0853 20.8306 52.7351 19.4655 52.7351C15.1618 52.7351 11.6608 56.2046 11.6608 60.4695C11.6608 64.7344 15.1618 68.2039 19.4655 68.2039C23.7691 68.2039 27.2701 64.7344 27.2701 60.4695C27.2701 59.1164 26.9168 57.8441 26.2982 56.7366L39.2536 43.898C40.2862 44.3983 41.4456 44.6802 42.6703 44.6802C44.0355 44.6802 45.3193 44.33 46.4369 43.7171L61.3265 58.4723C60.5914 59.6518 60.1658 61.0397 60.1658 62.5249C60.1658 66.7898 63.6669 70.2593 67.9705 70.2593C72.2741 70.2593 75.7752 66.7898 75.7752 62.5249C75.7752 61.1718 75.4218 59.8995 74.8033 58.792L89.5899 44.1386C90.4773 44.4871 91.4427 44.6804 92.4532 44.6804ZM92.4532 33.5085C94.3657 33.5085 95.9219 35.0507 95.9219 36.946C95.9219 38.8414 94.3657 40.3835 92.4532 40.3835C90.5406 40.3835 88.9844 38.8414 88.9844 36.946C88.9844 35.0507 90.5406 33.5085 92.4532 33.5085ZM19.4657 63.9074C17.5531 63.9074 15.9969 62.3653 15.9969 60.4699C15.9969 58.5746 17.5531 57.0324 19.4657 57.0324C21.3783 57.0324 22.9344 58.5746 22.9344 60.4699C22.9344 62.3653 21.3783 63.9074 19.4657 63.9074ZM42.6705 40.3835C40.7579 40.3835 39.2018 38.8414 39.2018 36.946C39.2018 35.0507 40.7579 33.5085 42.6705 33.5085C44.5831 33.5085 46.1393 35.0507 46.1393 36.946C46.1393 38.8414 44.5831 40.3835 42.6705 40.3835ZM67.9707 65.9628C66.0581 65.9628 64.502 64.4207 64.502 62.5253C64.502 60.63 66.0581 59.0878 67.9707 59.0878C69.8833 59.0878 71.4395 60.63 71.4395 62.5253C71.4395 64.4207 69.8833 65.9628 67.9707 65.9628Z" fill="black"/>
<path d="M31.156 31.3775C31.7262 31.3775 32.2834 31.1478 32.6888 30.748C33.092 30.3484 33.324 29.7941 33.324 29.2291C33.324 28.664 33.092 28.1097 32.6888 27.7103C32.2834 27.3107 31.7262 27.0806 31.156 27.0806C30.5837 27.0806 30.0243 27.3105 29.6211 27.7103C29.2178 28.1097 28.988 28.664 28.988 29.2291C28.988 29.7941 29.2178 30.3484 29.6211 30.748C30.0265 31.1476 30.5837 31.3775 31.156 31.3775Z" fill="black"/>
<path d="M12.6719 31.3777H23.0781C24.2755 31.3777 25.2461 30.4157 25.2461 29.2293C25.2461 28.0429 24.2755 27.0809 23.0781 27.0809H12.6719C11.4745 27.0809 10.5039 28.0429 10.5039 29.2293C10.5039 30.4157 11.4745 31.3777 12.6719 31.3777Z" fill="black"/>
<path d="M23.0781 41.6902C24.2755 41.6902 25.2461 40.7282 25.2461 39.5418C25.2461 38.3554 24.2755 37.3934 23.0781 37.3934H12.6719C11.4745 37.3934 10.5039 38.3554 10.5039 39.5418C10.5039 40.7282 11.4745 41.6902 12.6719 41.6902H23.0781Z" fill="black"/>
</g>
<defs>
<clipPath id="clip0">
<rect width="111" height="110" fill="white" transform="translate(0.53125 0.00604248)"/>
</clipPath>
</defs>
</svg>
