<svg width="106" height="106" viewBox="0 0 106 106" fill="none" xmlns="http://www.w3.org/2000/svg">
<g clip-path="url(#clip0)">
<path d="M103.48 4.15863H2.58203V25.2529H103.48V4.15863Z" fill="#7373E0"/>
<path d="M89.2702 18.4191C91.756 18.4191 93.7711 16.4041 93.7711 13.9183C93.7711 11.4326 91.756 9.41748 89.2702 9.41748C86.7845 9.41748 84.7694 11.4326 84.7694 13.9183C84.7694 16.4041 86.7845 18.4191 89.2702 18.4191Z" fill="#7373E0"/>
<path d="M72.0092 20.4689C71.8759 20.4689 71.7405 20.4563 71.6072 20.4299C71.478 20.4032 71.3488 20.3643 71.2237 20.313C71.1007 20.2617 70.9817 20.1981 70.871 20.1243C70.7582 20.0507 70.6536 19.9644 70.5572 19.87C70.4629 19.7757 70.3788 19.6693 70.3029 19.5583C70.2291 19.4455 70.1655 19.3266 70.1142 19.2035C70.063 19.0805 70.024 18.9515 69.9973 18.8202C69.9707 18.6869 69.9584 18.5534 69.9584 18.4203C69.9584 18.285 69.9707 18.1515 69.9973 18.0184C70.024 17.8869 70.063 17.7577 70.1142 17.6349C70.1655 17.5116 70.2291 17.3908 70.3029 17.2801C70.3788 17.1694 70.4629 17.0627 70.5572 16.9684C70.6536 16.874 70.7582 16.7879 70.871 16.7141C70.9817 16.6403 71.1007 16.5767 71.2237 16.5254C71.3468 16.4741 71.476 16.4352 71.6072 16.4085C71.8718 16.3552 72.1445 16.3552 72.4091 16.4085C72.5403 16.4352 72.6695 16.4741 72.7925 16.5254C72.9176 16.5767 73.0366 16.6403 73.1473 16.7141C73.2601 16.7879 73.3647 16.874 73.4591 16.9684C73.5534 17.0627 73.6395 17.1692 73.7134 17.2801C73.7872 17.3908 73.8508 17.5118 73.902 17.6349C73.9533 17.7579 73.9923 17.8869 74.0189 18.0184C74.0456 18.1515 74.0599 18.285 74.0599 18.4203C74.0599 18.9597 73.8405 19.4867 73.4591 19.87C73.3647 19.9644 73.2601 20.0507 73.1473 20.1243C73.0366 20.1981 72.9156 20.2617 72.7925 20.313C72.6695 20.3643 72.5403 20.4032 72.4091 20.4299C72.2778 20.4565 72.1425 20.4689 72.0092 20.4689Z" fill="black"/>
<path d="M64.234 20.4699H21.6119C20.4793 20.4699 19.5612 19.5516 19.5612 18.4191C19.5612 17.2867 20.4793 16.3683 21.6119 16.3683H64.2338C65.3664 16.3683 66.2845 17.2867 66.2845 18.4191C66.2845 19.5516 65.3666 20.4699 64.234 20.4699Z" fill="black"/>
<path d="M65.0939 32.277H2.82422V72.7183H65.0939V32.277Z" fill="#7373E0"/>
<path d="M28.7602 49.1329C31.6317 49.1329 33.9596 46.8051 33.9596 43.9336C33.9596 41.0621 31.6317 38.7343 28.7602 38.7343C25.8887 38.7343 23.5609 41.0621 23.5609 43.9336C23.5609 46.8051 25.8887 49.1329 28.7602 49.1329Z" fill="white"/>
<path d="M28.7597 51.1835C24.762 51.1835 21.5096 47.9312 21.5096 43.9334C21.5096 39.9356 24.762 36.6833 28.7597 36.6833C32.7575 36.6833 36.0098 39.9356 36.0098 43.9334C36.0098 47.9312 32.7575 51.1835 28.7597 51.1835ZM28.7597 40.785C27.0238 40.785 25.6112 42.1974 25.6112 43.9336C25.6112 45.6698 27.0236 47.0821 28.7597 47.0821C30.4959 47.0821 31.9083 45.6698 31.9083 43.9336C31.9083 42.1974 30.4959 40.785 28.7597 40.785Z" fill="black"/>
<path d="M45.4151 47.5471L37.9513 57.4988H52.8787L45.4151 47.5471Z" fill="white"/>
<path d="M37.9513 57.4988L26.5363 72.7187H64.2945L52.8787 57.4988H37.9513Z" fill="white"/>
<path d="M19.8272 53.957L3.6228 72.7187H26.5363L30.9485 66.8356L19.8272 53.957Z" fill="white"/>
<path d="M103.48 2.10785H2.58202C1.44938 2.10785 0.53125 3.02619 0.53125 4.15862V25.2527C0.53125 26.3851 1.44938 27.3035 2.58202 27.3035H103.48C104.613 27.3035 105.531 26.3851 105.531 25.2527V4.15862C105.531 3.02619 104.613 2.10785 103.48 2.10785ZM101.43 23.2019H4.6328V6.2094H101.43V23.2019Z" fill="black"/>
<path d="M89.2708 20.4699C90.3132 20.4699 91.3175 20.2263 92.2214 19.7693L93.8963 21.4442C94.2968 21.8445 94.8216 22.0449 95.3464 22.0449C95.8712 22.0449 96.3962 21.8445 96.7965 21.4442C97.5973 20.6434 97.5973 19.3448 96.7965 18.5438L95.1216 16.8689C95.5788 15.965 95.8222 14.9605 95.8222 13.9183C95.8222 12.1684 95.1407 10.5228 93.9033 9.28538C91.3488 6.73115 87.1925 6.73094 84.6379 9.28538C83.4005 10.5228 82.719 12.1684 82.719 13.9183C82.719 15.6682 83.4007 17.3138 84.6379 18.551C85.8755 19.7884 87.5209 20.4699 89.2708 20.4699ZM87.5383 12.1858C88.0159 11.7082 88.6435 11.4695 89.2708 11.4695C89.8981 11.4695 90.5257 11.7082 91.0033 12.1858C91.4659 12.6487 91.7211 13.2639 91.7211 13.9183C91.7211 14.5727 91.4661 15.1879 91.0033 15.6506C90.5406 16.1134 89.9254 16.3683 89.2708 16.3683C88.6162 16.3683 88.0012 16.1134 87.5383 15.6506C87.0757 15.1877 86.8205 14.5727 86.8205 13.9183C86.8205 13.2639 87.0757 12.6484 87.5383 12.1858Z" fill="black"/>
<path d="M65.0939 30.2271H2.82421C1.69157 30.2271 0.773438 31.1454 0.773438 32.2778V72.7189C0.773438 73.8513 1.69157 74.7696 2.82421 74.7696H65.0939C66.2265 74.7696 67.1447 73.8513 67.1447 72.7189V32.2778C67.1447 31.1454 66.2265 30.2271 65.0939 30.2271ZM25.5109 70.6679H8.10372L19.827 57.0946L28.3172 66.926L25.5109 70.6679ZM30.6378 70.6679L34.4617 65.5697H44.4057C45.5383 65.5697 46.4565 64.6513 46.4565 63.5189C46.4565 62.3865 45.5383 61.4681 44.4057 61.4681H37.5381L38.9769 59.5498H51.8535L60.1929 70.6681L30.6378 70.6679ZM42.0528 55.4481L45.4151 50.9653L48.7773 55.4481H42.0528ZM63.0431 67.6323L47.0557 46.3166C46.6683 45.8002 46.0605 45.4963 45.4151 45.4963C44.7697 45.4963 44.1618 45.8002 43.7745 46.3166L30.8361 63.5675L21.3792 52.6164C20.9898 52.1654 20.4231 51.906 19.8272 51.906C19.2312 51.906 18.6648 52.1654 18.2751 52.6164L4.87498 68.1311V34.3286H63.0431V67.6323Z" fill="black"/>
<path d="M103.48 32.277H71.9617V72.7183H103.48V32.277Z" fill="#7373E0"/>
<path d="M103.48 74.7696H71.9622C70.8295 74.7696 69.9114 73.8513 69.9114 72.7189V32.2778C69.9114 31.1454 70.8295 30.2271 71.9622 30.2271H103.48C104.613 30.2271 105.531 31.1454 105.531 32.2778V72.7189C105.531 73.8515 104.613 74.7696 103.48 74.7696ZM74.0129 70.6681H101.43V34.3286H74.0129V70.6681Z" fill="black"/>
<path d="M96.6549 41.808H78.7877C77.6551 41.808 76.7369 40.8896 76.7369 39.7572C76.7369 38.6248 77.6551 37.7064 78.7877 37.7064H96.6549C97.7875 37.7064 98.7056 38.6248 98.7056 39.7572C98.7056 40.8896 97.7875 41.808 96.6549 41.808Z" fill="black"/>
<path d="M96.6549 50.0386H78.7877C77.6551 50.0386 76.7369 49.1202 76.7369 47.9878C76.7369 46.8553 77.6551 45.937 78.7877 45.937H96.6549C97.7875 45.937 98.7056 46.8553 98.7056 47.9878C98.7056 49.1202 97.7875 50.0386 96.6549 50.0386Z" fill="black"/>
<path d="M96.6549 58.2692H78.7877C77.6551 58.2692 76.7369 57.3508 76.7369 56.2184C76.7369 55.0859 77.6551 54.1676 78.7877 54.1676H96.6549C97.7875 54.1676 98.7056 55.0859 98.7056 56.2184C98.7056 57.3508 97.7875 58.2692 96.6549 58.2692Z" fill="black"/>
<path d="M78.789 66.5005C78.6537 66.5005 78.5204 66.4861 78.3871 66.4595C78.2558 66.4328 78.1266 66.3938 78.0036 66.3426C77.8805 66.2913 77.7616 66.2277 77.6488 66.1539C77.5381 66.0801 77.4314 65.9939 77.3371 65.8996C77.2427 65.8053 77.1566 65.6988 77.0828 65.5879C77.009 65.4751 76.9454 65.3562 76.8941 65.2331C76.8428 65.1101 76.8039 64.9811 76.7772 64.8496C76.7506 64.7165 76.7362 64.583 76.7362 64.4477C76.7362 64.3146 76.7506 64.1811 76.7772 64.048C76.8039 63.9165 76.8428 63.7873 76.8941 63.6645C76.9454 63.5412 77.009 63.4223 77.0828 63.3097C77.1566 63.199 77.2427 63.0923 77.3371 62.998C77.4314 62.9036 77.5381 62.8175 77.6488 62.7437C77.7616 62.6699 77.8805 62.6063 78.0036 62.555C78.1266 62.5037 78.2558 62.4648 78.3871 62.4381C79.0536 62.3028 79.7611 62.5222 80.2369 62.998C80.3333 63.0923 80.4174 63.1988 80.4932 63.3097C80.5671 63.4225 80.6306 63.5414 80.6819 63.6645C80.7332 63.7875 80.7721 63.9165 80.7988 64.048C80.8255 64.1811 80.8378 64.3146 80.8378 64.4477C80.8378 64.583 80.8255 64.7165 80.7988 64.8496C80.7721 64.9811 80.7332 65.1103 80.6819 65.2331C80.6306 65.3564 80.5671 65.4753 80.4932 65.5879C80.4174 65.6986 80.3312 65.8053 80.2369 65.8996C79.8554 66.2811 79.3284 66.5005 78.789 66.5005Z" fill="black"/>
<path d="M96.6549 66.4995H86.5622C85.4296 66.4995 84.5115 65.5812 84.5115 64.4487C84.5115 63.3163 85.4296 62.3979 86.5622 62.3979H96.6549C97.7876 62.3979 98.7057 63.3163 98.7057 64.4487C98.7057 65.5812 97.7876 66.4995 96.6549 66.4995Z" fill="black"/>
<path d="M34.3425 79.7299H2.82422V100.853H34.3425V79.7299Z" fill="#7373E0"/>
<path d="M34.3425 102.904H2.82421C1.69157 102.904 0.773438 101.986 0.773438 100.853V79.73C0.773438 78.5976 1.69157 77.6793 2.82421 77.6793H34.3425C35.4752 77.6793 36.3933 78.5976 36.3933 79.73V100.853C36.3933 101.986 35.4752 102.904 34.3425 102.904ZM4.87498 98.8026H32.2918V81.7808H4.87498V98.8026Z" fill="black"/>
<path d="M103.48 79.7299H41.4913V100.853H103.48V79.7299Z" fill="#7373E0"/>
<path d="M103.48 102.904H41.4908C40.3582 102.904 39.4401 101.986 39.4401 100.853V79.73C39.4401 78.5976 40.3582 77.6793 41.4908 77.6793H103.48C104.613 77.6793 105.531 78.5976 105.531 79.73V100.853C105.531 101.986 104.613 102.904 103.48 102.904ZM43.5416 98.8026H101.43V81.7808H43.5416V98.8026Z" fill="black"/>
<path d="M50.8738 92.3423C50.3344 92.3423 49.8053 92.1229 49.4239 91.7412C49.3295 91.6469 49.2434 91.5423 49.1675 91.4295C49.0937 91.3188 49.0301 91.1998 48.9789 91.0768C48.9276 90.9517 48.8886 90.8225 48.862 90.6912C48.8353 90.5598 48.823 90.4244 48.823 90.2913C48.823 90.158 48.8353 90.0225 48.862 89.8914C48.8886 89.7604 48.9276 89.631 48.9789 89.508C49.0301 89.3829 49.0937 89.2641 49.1675 89.1534C49.2434 89.0404 49.3295 88.9358 49.4239 88.8414C49.5182 88.7471 49.6228 88.661 49.7356 88.5872C49.8463 88.5135 49.9653 88.4498 50.0883 88.3985C50.2134 88.3472 50.3426 88.3062 50.4718 88.2795C50.7364 88.2283 51.0091 88.2283 51.2737 88.2795C51.4049 88.3062 51.5341 88.3472 51.6572 88.3985C51.7823 88.4498 51.9012 88.5135 52.012 88.5872C52.1247 88.661 52.2293 88.7471 52.3237 88.8414C52.418 88.9358 52.5041 89.0404 52.578 89.1534C52.6518 89.2641 52.7154 89.3829 52.7666 89.508C52.8179 89.6312 52.8569 89.7602 52.8835 89.8914C52.9102 90.0227 52.9245 90.158 52.9245 90.2913C52.9245 90.4244 52.9102 90.56 52.8835 90.6912C52.8569 90.8225 52.8179 90.9517 52.7666 91.0768C52.7154 91.1998 52.6518 91.3188 52.578 91.4295C52.5041 91.5423 52.418 91.6469 52.3237 91.7412C52.2293 91.8358 52.1247 91.9219 52.012 91.9955C51.9012 92.0714 51.7823 92.1329 51.6572 92.1842C51.5341 92.2355 51.4049 92.2765 51.2737 92.3032C51.1424 92.3298 51.0071 92.3423 50.8738 92.3423Z" fill="black"/>
<path d="M93.0863 92.3425H58.6477C57.5151 92.3425 56.5969 91.4242 56.5969 90.2917C56.5969 89.1593 57.5151 88.241 58.6477 88.241H93.0863C94.219 88.241 95.1371 89.1593 95.1371 90.2917C95.1371 91.4242 94.219 92.3425 93.0863 92.3425Z" fill="black"/>
</g>
<defs>
<clipPath id="clip0">
<rect width="105" height="105" fill="white" transform="translate(0.53125 0.00604248)"/>
</clipPath>
</defs>
</svg>
