<svg width="121" height="120" viewBox="0 0 121 120" fill="none" xmlns="http://www.w3.org/2000/svg">
<path d="M26.7812 18.5998V7.44354C26.7812 5.39823 28.4688 3.72479 30.5312 3.72479H113.031C115.094 3.72479 116.781 5.39823 116.781 7.44354V18.5998H26.7812Z" fill="#302C8C"/>
<path d="M113.031 85.5373H26.7812V18.5998H116.781V81.8185C116.781 83.8732 115.103 85.5373 113.031 85.5373Z" fill="#7373E0"/>
<path d="M83.0312 48.3498H109.281V78.0998H83.0312V48.3498Z" fill="white"/>
<path d="M69.9062 111.569V115.287H17.4062V111.569C17.4062 109.523 19.0937 107.85 21.1562 107.85H28.6562H58.6562H66.1562C68.2188 107.85 69.9062 109.523 69.9062 111.569Z" fill="#8586EE"/>
<path d="M54.9062 96.6935L58.6562 107.85H28.6562L32.4062 96.6935H54.9062Z" fill="#302C8C"/>
<path d="M83.0312 85.5373V89.256C83.0312 93.3653 79.675 96.6935 75.5312 96.6935H54.9062H32.4062H11.7812C7.6375 96.6935 4.28125 93.3653 4.28125 89.256V81.8185H83.0312V85.5373Z" fill="#8586EE"/>
<path d="M83.0312 81.8185H4.28125V44.631C4.28125 40.5218 7.6375 37.1935 11.7812 37.1935H26.7812H75.5312C79.675 37.1935 83.0312 40.5218 83.0312 44.631V48.3498V78.0998V81.8185Z" fill="#8586EE"/>
<path d="M53.0312 44.631H38.0312H15.5312C13.4688 44.631 11.7812 46.3045 11.7812 48.3498V70.6623C11.7812 72.7076 13.4688 74.381 15.5312 74.381H30.5312H53.0312C55.0938 74.381 56.7812 72.7076 56.7812 70.6623V48.3498C56.7812 46.3045 55.0938 44.631 53.0312 44.631Z" fill="white"/>
<path d="M113.031 1.86542H30.5312C27.43 1.86542 24.9062 4.36814 24.9062 7.44354V35.3342H11.7812C6.61188 35.3342 2.40625 39.5047 2.40625 44.631V89.256C2.40625 94.3823 6.61188 98.5529 11.7812 98.5529H29.8038L27.3044 105.99H21.1562C18.055 105.99 15.5312 108.493 15.5312 111.569V117.147H71.7812V111.569C71.7812 108.493 69.2575 105.99 66.1562 105.99H60.0081L57.5088 98.5529H75.5312C80.7006 98.5529 84.9062 94.3823 84.9062 89.256V87.3967H113.031C116.132 87.3967 118.656 84.8939 118.656 81.8185V7.44354C118.656 4.36814 116.132 1.86542 113.031 1.86542ZM30.5312 5.58417H113.031C114.064 5.58417 114.906 6.41903 114.906 7.44354V16.7404H28.6562V7.44354C28.6562 6.41903 29.4981 5.58417 30.5312 5.58417ZM11.7812 39.0529H75.5312C78.6325 39.0529 81.1562 41.5556 81.1562 44.631V79.9592H6.15625V44.631C6.15625 41.5556 8.68 39.0529 11.7812 39.0529ZM84.9062 50.2092H107.406V76.2404H84.9062V50.2092ZM68.0312 111.569V113.428H19.2812V111.569C19.2812 110.544 20.1231 109.709 21.1562 109.709H66.1562C67.1894 109.709 68.0312 110.544 68.0312 111.569ZM56.0537 105.99H31.2588L33.7581 98.5529H53.5544L56.0537 105.99ZM75.5312 94.8342H11.7812C8.68 94.8342 6.15625 92.3314 6.15625 89.256V83.6779H81.1562V89.256C81.1562 92.3314 78.6325 94.8342 75.5312 94.8342ZM113.031 83.6779H84.9062V79.9592H111.156V46.4904H84.9062V44.631C84.9062 39.5047 80.7006 35.3342 75.5312 35.3342H28.6562V20.4592H114.906V81.8185C114.906 82.8431 114.064 83.6779 113.031 83.6779Z" fill="black"/>
<path d="M49.2812 87.3967H53.0312V91.1154H49.2812V87.3967Z" fill="black"/>
<path d="M41.7812 87.3967H45.5312V91.1154H41.7812V87.3967Z" fill="black"/>
<path d="M34.2812 87.3967H38.0312V91.1154H34.2812V87.3967Z" fill="black"/>
<path d="M32.4062 9.30292H36.1562V13.0217H32.4062V9.30292Z" fill="black"/>
<path d="M39.9062 9.30292H43.6562V13.0217H39.9062V9.30292Z" fill="black"/>
<path d="M47.4062 9.30292H51.1562V13.0217H47.4062V9.30292Z" fill="black"/>
<path d="M32.4062 24.1779H36.1562V27.8967H32.4062V24.1779Z" fill="black"/>
<path d="M39.9062 24.1779H111.156V27.8967H39.9062V24.1779Z" fill="black"/>
<path d="M88.6562 31.6154H111.156V35.3342H88.6562V31.6154Z" fill="black"/>
<path d="M88.6562 39.0529H111.156V42.7717H88.6562V39.0529Z" fill="black"/>
<path d="M15.5312 76.2404H53.0312C56.1325 76.2404 58.6562 73.7377 58.6562 70.6623V48.3498C58.6562 45.2744 56.1325 42.7717 53.0312 42.7717H15.5312C12.43 42.7717 9.90625 45.2744 9.90625 48.3498V70.6623C9.90625 73.7377 12.43 76.2404 15.5312 76.2404ZM13.6562 48.3498C13.6562 47.3253 14.4981 46.4904 15.5312 46.4904H53.0312C54.0644 46.4904 54.9062 47.3253 54.9062 48.3498V70.6623C54.9062 71.6868 54.0644 72.5217 53.0312 72.5217H15.5312C14.4981 72.5217 13.6562 71.6868 13.6562 70.6623V48.3498Z" fill="black"/>
<path d="M28.7637 70.0439L36.2582 47.7242L39.8169 48.8993L32.3224 71.2191L28.7637 70.0439Z" fill="black"/>
<path d="M43.1069 68.2581L51.9326 59.506L43.1069 50.754L40.4557 53.3831L46.6301 59.506L40.4557 65.629L43.1069 68.2581Z" fill="black"/>
<path d="M28.1069 65.629L21.9325 59.506L28.1069 53.3831L25.4556 50.754L16.63 59.506L25.4556 68.2581L28.1069 65.629Z" fill="black"/>
<path d="M62.4062 42.7717H77.4062V46.4904H62.4062V42.7717Z" fill="black"/>
<path d="M62.4062 50.2092H77.4062V53.9279H62.4062V50.2092Z" fill="black"/>
<path d="M62.4062 57.6467H77.4062V61.3654H62.4062V57.6467Z" fill="black"/>
<path d="M62.4062 65.0842H77.4062V68.8029H62.4062V65.0842Z" fill="black"/>
<path d="M66.1562 72.5217H69.9062V76.2404H66.1562V72.5217Z" fill="black"/>
<path d="M73.6562 72.5217H77.4062V76.2404H73.6562V72.5217Z" fill="black"/>
</svg>
