<svg width="119" height="119" viewBox="0 0 119 119" fill="none" xmlns="http://www.w3.org/2000/svg">
<path d="M83.7642 102.801V110.416C83.7642 113.577 69.2769 116.128 51.4008 116.128C33.5248 116.128 19.0374 113.577 19.0374 110.416V102.801C19.0374 105.962 33.5248 108.513 51.4008 108.513C69.2769 108.513 83.7642 105.962 83.7642 102.801Z" fill="#7373E0"/>
<path d="M68.5344 97.947C77.6723 98.9559 83.7642 100.764 83.7642 102.801C83.7642 105.962 69.2769 108.513 51.4008 108.513C33.5248 108.513 19.0374 105.962 19.0374 102.801C19.0374 100.764 25.1294 98.9559 34.2673 97.947V100.898H68.5344V97.947Z" fill="#8586EE"/>
<path d="M68.5343 97.9469V100.898H34.2672V97.9469V89.4753H68.5343V97.9469Z" fill="#302C8C"/>
<path d="M100.898 49.4209V81.8605C100.898 86.0677 97.4901 89.4754 93.2829 89.4754H68.5344H34.2672H9.51873C5.31149 89.4754 1.90381 86.0677 1.90381 81.8605V28.556C1.90381 24.3488 5.31149 20.9411 9.51873 20.9411H67.9442C67.8681 21.1505 67.7919 21.379 67.7158 21.6074L62.8232 22.8448V28.556H11.4225C10.3754 28.556 9.51873 29.4127 9.51873 30.4598V79.9567C9.51873 81.0038 10.3754 81.8605 11.4225 81.8605H91.3791C92.4262 81.8605 93.2829 81.0038 93.2829 79.9567V55.2082H95.1866L96.424 50.3157C97.6424 49.9349 98.8037 49.4209 99.9269 48.8498L100.898 49.4209Z" fill="#8586EE"/>
<path d="M89.4755 43.7859C81.061 43.7859 74.2456 36.9705 74.2456 28.556H11.4225C10.3755 28.556 9.5188 29.4127 9.5188 30.4598V79.9567C9.5188 81.0038 10.3755 81.8605 11.4225 81.8605H91.3792C92.4262 81.8605 93.2829 81.0038 93.2829 79.9567V43.2871C92.0645 43.6012 90.7928 43.7859 89.4755 43.7859Z" fill="#8586EE"/>
<path d="M36.171 74.2454C46.685 74.2454 55.2083 65.7221 55.2083 55.2081C55.2083 44.6941 46.685 36.1708 36.171 36.1708C25.657 36.1708 17.1337 44.6941 17.1337 55.2081C17.1337 65.7221 25.657 74.2454 36.171 74.2454Z" fill="#D9D9D9"/>
<path d="M116.128 22.8448V34.2672L111.235 35.5046C110.854 36.723 110.34 37.8842 109.769 39.0074L112.358 43.367L104.286 51.4388L100.898 49.4208L99.9269 48.8497C98.8037 49.4209 97.6424 49.9349 96.424 50.3156L95.1866 55.2082H93.2829H83.7642L82.5268 50.3156C81.3084 49.9349 80.1471 49.4209 79.0239 48.8497L74.6644 51.4388L66.5926 43.367L69.1816 39.0074C68.6105 37.8842 68.0965 36.723 67.7158 35.5046L62.8232 34.2672V28.556V22.8448L67.7158 21.6074C67.7919 21.3789 67.8681 21.1505 67.9442 20.941C68.2869 19.9511 68.7247 19.0183 69.1816 18.1045L66.5926 13.7449L74.6644 5.67313L79.0239 8.26221C80.1471 7.69109 81.3084 7.17708 82.5268 6.79633L83.7642 1.90375H95.1866L96.424 6.79633C97.6424 7.17708 98.8037 7.69109 99.9269 8.26221L104.286 5.67313L112.358 13.7449L109.769 18.1045C110.34 19.2277 110.854 20.389 111.235 21.6074L116.128 22.8448ZM104.705 28.556C104.705 20.1415 97.8899 13.3261 89.4754 13.3261C81.0609 13.3261 74.2456 20.1415 74.2456 28.556C74.2456 36.9705 81.0609 43.7858 89.4754 43.7858C97.8899 43.7858 104.705 36.9705 104.705 28.556Z" fill="#8586EE"/>
<path d="M89.4754 13.3261C97.8899 13.3261 104.705 20.1415 104.705 28.556C104.705 36.9704 97.8899 43.7858 89.4754 43.7858C81.0609 43.7858 74.2455 36.9704 74.2455 28.556C74.2455 20.1415 81.0609 13.3261 89.4754 13.3261ZM97.0903 28.556C97.0903 24.3487 93.6826 20.941 89.4754 20.941C85.2681 20.941 81.8605 24.3487 81.8605 28.556C81.8605 32.7632 85.2681 36.1709 89.4754 36.1709C93.6826 36.1709 97.0903 32.7632 97.0903 28.556Z" fill="#8586EE"/>
<path d="M118.031 35.7463V21.3637L112.697 20.0063C112.47 19.4009 112.217 18.7898 111.936 18.1863L114.753 13.448L104.583 3.27822L99.8449 6.09384C99.2414 5.81399 98.6323 5.55889 98.025 5.33235L96.6657 0H82.283L80.9276 5.33425C80.3203 5.5608 79.7111 5.8159 79.1076 6.09574L74.3692 3.28013L64.1995 13.4499L67.017 18.1882C66.8857 18.47 66.7809 18.7536 66.661 19.0373H9.51865C4.27007 19.0373 0 23.3074 0 28.556V81.8604C0 87.109 4.27007 91.379 9.51865 91.379H32.3634V96.2716C17.1812 98.183 17.1336 101.516 17.1336 102.801V110.416C17.1336 117.666 45.6781 118.031 51.4007 118.031C57.1233 118.031 85.6679 117.666 85.6679 110.416V102.801C85.6679 101.516 85.6203 98.183 70.438 96.2716V91.379H93.2828C98.5314 91.379 102.801 87.109 102.801 81.8604V52.7733L104.583 53.8318L114.753 43.662L111.936 38.9237C112.215 38.3202 112.47 37.7091 112.697 37.1037L118.031 35.7463ZM74.3673 53.8318L79.1057 51.0162C79.7092 51.296 80.3184 51.5511 80.9257 51.7777L82.2849 57.1119H91.379V79.9567H11.4224V30.4597H60.9194V35.7463L66.2536 37.1037C66.4802 37.7091 66.7334 38.3202 67.0151 38.9237L64.1976 43.662L74.3673 53.8318ZM51.4007 114.224C32.7384 114.224 22.4317 111.587 20.941 110.142V106.742C28.9062 110.194 46.9745 110.416 51.4007 110.416C55.8269 110.416 73.8952 110.194 81.8604 106.742V110.144C80.3698 111.587 70.063 114.224 51.4007 114.224ZM81.4777 102.811C79.0486 104.292 68.896 106.609 51.4007 106.609C33.9054 106.609 23.7528 104.292 21.3237 102.811C22.4545 102.139 25.6109 100.997 32.3634 100.11V102.801H70.438V100.11C77.1905 100.997 80.3488 102.139 81.4777 102.811ZM66.6306 98.994H36.1709V91.379H66.6306V98.994ZM93.2828 87.5716H9.51865C6.36988 87.5716 3.80746 85.0092 3.80746 81.8604V28.556C3.80746 25.4072 6.36988 22.8448 9.51865 22.8448H60.9194V26.6522H11.4224C9.32257 26.6522 7.61492 28.3599 7.61492 30.4597V79.9567C7.61492 82.0565 9.32257 83.7641 11.4224 83.7641H91.379C93.4789 83.7641 95.1865 82.0565 95.1865 79.9567V57.1119H96.6657L98.0231 51.7777C98.3467 51.6558 98.6703 51.5073 98.994 51.3703V81.8604C98.994 85.0092 96.4315 87.5716 93.2828 87.5716ZM109.967 43.0643L103.984 49.0477L99.9934 46.6757L99.0549 47.163C97.9926 47.7113 96.9151 48.1625 95.8509 48.5032L94.8457 48.8231L93.7073 53.3044H85.2452L84.1049 48.8231L83.0997 48.5032C82.0355 48.1625 80.958 47.7113 79.8957 47.163L78.9572 46.6757L74.967 49.0477L68.9836 43.0643L71.3556 39.076L70.8721 38.1393C70.3219 37.0732 69.8726 35.9957 69.5318 34.9296L69.2101 33.9245L64.7268 32.7879V24.3259L69.2082 23.1874L69.5299 22.1823C69.8707 21.1162 70.32 20.0387 70.8702 18.9726L71.3537 18.0359L68.9817 14.0476L74.9651 8.0642L78.9553 10.4362L79.8938 9.94889C80.9561 9.40062 82.0336 8.94944 83.0978 8.60867L84.103 8.28884L85.2433 3.80746H93.7054L94.8457 8.28884L95.8509 8.60867C96.9151 8.94944 97.9926 9.40062 99.0549 9.94889L99.9934 10.4362L103.984 8.0642L109.967 14.0476L107.595 18.0359L108.079 18.9726C108.629 20.0387 109.078 21.1162 109.419 22.1823L109.741 23.1874L114.224 24.324V32.786L109.742 33.9245L109.421 34.9296C109.08 35.9957 108.631 37.0732 108.08 38.1393L107.597 39.076L109.967 43.0643Z" fill="black"/>
<path d="M89.4753 11.4223C80.029 11.4223 72.3417 19.1077 72.3417 28.5559C72.3417 38.0041 80.029 45.6894 89.4753 45.6894C98.9216 45.6894 106.609 38.0041 106.609 28.5559C106.609 19.1077 98.9216 11.4223 89.4753 11.4223ZM89.4753 41.882C82.1269 41.882 76.1492 35.9024 76.1492 28.5559C76.1492 21.2094 82.1269 15.2298 89.4753 15.2298C96.8237 15.2298 102.801 21.2094 102.801 28.5559C102.801 35.9024 96.8237 41.882 89.4753 41.882Z" fill="black"/>
<path d="M89.4753 19.0374C84.2267 19.0374 79.9567 23.3074 79.9567 28.556C79.9567 33.8046 84.2267 38.0747 89.4753 38.0747C94.7239 38.0747 98.994 33.8046 98.994 28.556C98.994 23.3074 94.7239 19.0374 89.4753 19.0374ZM89.4753 34.2672C86.3265 34.2672 83.7641 31.7048 83.7641 28.556C83.7641 25.4072 86.3265 22.8448 89.4753 22.8448C92.6241 22.8448 95.1865 25.4072 95.1865 28.556C95.1865 31.7048 92.6241 34.2672 89.4753 34.2672Z" fill="black"/>
<path d="M36.1709 34.2671C24.6248 34.2671 15.2299 43.662 15.2299 55.2081C15.2299 66.7542 24.6248 76.1492 36.1709 76.1492C47.717 76.1492 57.1119 66.7542 57.1119 55.2081C57.1119 43.662 47.717 34.2671 36.1709 34.2671ZM36.1709 72.3417C34.8744 72.3417 33.2525 70.2685 32.0683 66.6305H40.2715C39.0893 70.2685 37.4673 72.3417 36.1709 72.3417ZM31.126 62.823C30.81 61.1078 30.5834 59.2021 30.4997 57.1118H41.8459C41.7621 59.2021 41.5356 61.1078 41.2196 62.823H31.126ZM19.1496 57.1118H26.6903C26.7684 59.0441 26.9683 60.9745 27.2805 62.823H20.8459C19.9682 61.0659 19.3762 59.145 19.1496 57.1118ZM36.1709 38.0745C37.4673 38.0745 39.0893 40.1477 40.2734 43.7857H32.0703C33.2525 40.1477 34.8744 38.0745 36.1709 38.0745ZM41.2158 47.5932C41.5318 49.3085 41.7583 51.2141 41.8421 53.3044H30.4959C30.5796 51.2141 30.8062 49.3085 31.1222 47.5932H41.2158ZM26.6903 53.3044H19.1496C19.3762 51.2712 19.9682 49.3503 20.8459 47.5932H27.2824C26.9683 49.4417 26.7703 51.3721 26.6903 53.3044ZM45.6515 57.1118H53.1921C52.9656 59.145 52.3735 61.0659 51.4959 62.823H45.0594C45.3735 60.9745 45.5715 59.0441 45.6515 57.1118ZM45.6515 53.3044C45.5734 51.3721 45.3735 49.4417 45.0613 47.5932H51.4978C52.3754 49.3503 52.9675 51.2712 53.194 53.3044H45.6515ZM48.9049 43.7857H44.2065C43.742 42.1352 43.1709 40.6179 42.4951 39.2986C44.9699 40.2867 47.1535 41.8344 48.9049 43.7857ZM29.8448 39.2986C29.169 40.6179 28.5978 42.1352 28.1333 43.7857H23.4349C25.1883 41.8344 27.3718 40.2867 29.8448 39.2986ZM23.4368 66.6305H28.1352C28.5998 68.281 29.1709 69.7983 29.8467 71.1176C27.3718 70.1296 25.1883 68.5818 23.4368 66.6305ZM42.497 71.1176C43.1728 69.7983 43.7439 68.281 44.2084 66.6305H48.9068C47.1535 68.5818 44.9699 70.1296 42.497 71.1176Z" fill="black"/>
<path d="M60.9194 72.3417H64.7268V76.1492H60.9194V72.3417Z" fill="black"/>
<path d="M68.5342 72.3417H87.5715V76.1492H68.5342V72.3417Z" fill="black"/>
<path d="M60.9194 64.7269H87.5716V68.5343H60.9194V64.7269Z" fill="black"/>
</svg>
