<svg width="121" height="108" viewBox="0 0 121 108" fill="none" xmlns="http://www.w3.org/2000/svg">
<path d="M46.8917 85.3187H73.0835V105.68H46.8917V85.3187Z" fill="#302C8C"/>
<path d="M65.5116 85.3187H73.0835V105.68H65.5116V85.3187Z" fill="#7373E0"/>
<path d="M4.11547 67.8254L1.76379 72.8679V83.8176C1.76379 86.3972 3.86948 88.4883 6.46714 88.4883H113.939C116.536 88.4883 118.642 86.3972 118.642 83.8176V72.8679L116.29 67.8254H4.11547Z" fill="#DAE7EF"/>
<path d="M116.29 67.8254H108.025V73.2747C108.025 75.8543 105.919 77.9454 103.322 77.9454H1.76379V83.8178C1.76379 86.3975 3.86948 88.4885 6.46714 88.4885H113.939C116.536 88.4885 118.642 86.3975 118.642 83.8178V72.8681L116.29 67.8254Z" fill="#7373E0"/>
<path d="M113.939 11.319H6.46714C3.86948 11.319 1.76379 13.41 1.76379 15.9897V72.8679H118.642V15.9897C118.642 13.41 116.536 11.319 113.939 11.319Z" fill="#7373E0"/>
<path d="M113.939 11.319H108.025V72.8679H118.642V15.9897C118.642 13.41 116.536 11.319 113.939 11.319Z" fill="#6363CC"/>
<path d="M59.9874 63.3635C76.8756 63.3635 90.5662 49.768 90.5662 32.997C90.5662 16.2261 76.8756 2.63055 59.9874 2.63055C43.0992 2.63055 29.4086 16.2261 29.4086 32.997C29.4086 49.768 43.0992 63.3635 59.9874 63.3635Z" fill="white"/>
<path d="M76.8923 7.69427C80.1117 12.5034 81.9914 18.2736 81.9914 24.4814C81.9914 41.2522 68.3009 54.8479 51.4126 54.8479C45.1614 54.8479 39.3509 52.9813 34.5078 49.7842C39.986 57.9672 49.3506 63.3633 59.9875 63.3633C76.8756 63.3633 90.5663 49.7678 90.5663 32.9968C90.5663 22.434 85.1325 13.1345 76.8923 7.69427Z" fill="#CCCCCC"/>
<path d="M113.939 9.56744H82.2115C82.1781 9.56744 82.1456 9.57048 82.1127 9.57234C80.95 8.48851 79.7008 7.48221 78.3686 6.56676C77.5672 6.01678 76.4689 6.21552 75.9144 7.01047C75.3604 7.80589 75.5602 8.89719 76.3612 9.44764C84.1516 14.7998 88.8023 23.6033 88.8023 32.9968C88.8023 48.7751 75.8758 61.6117 59.9872 61.6117C44.0988 61.6117 31.1724 48.7751 31.1724 32.9968C31.1724 17.2187 44.0988 4.38204 59.9872 4.38204C63.1413 4.38204 66.241 4.88438 69.2001 5.87526C70.1234 6.18516 71.124 5.69194 71.4349 4.77532C71.7463 3.85869 71.2503 2.865 70.3273 2.55604C67.0041 1.44325 63.5253 0.879028 59.9872 0.879028C42.1535 0.879028 27.6449 15.2869 27.6449 32.9968C27.6449 50.7066 42.1535 65.1147 59.9872 65.1147C77.8209 65.1147 92.3298 50.7066 92.3298 32.9968C92.3298 25.6764 89.8116 18.6769 85.3472 13.0705H113.939C115.56 13.0705 116.878 14.3799 116.878 15.9896V71.1163H102.928C101.953 71.1163 101.164 71.9003 101.164 72.8679C101.164 73.8354 101.953 74.6194 102.928 74.6194H116.878V83.8178C116.878 85.4276 115.56 86.737 113.939 86.737H6.4671C4.8461 86.737 3.52751 85.4276 3.52751 83.8178V74.6194H94.0449C95.0192 74.6194 95.8086 73.8354 95.8086 72.8679C95.8086 71.9003 95.0192 71.1163 94.0449 71.1163H3.52751V15.9896C3.52751 14.3799 4.8461 13.0705 6.4671 13.0705H27.5C28.4743 13.0705 29.2638 12.2865 29.2638 11.3189C29.2638 10.3514 28.4743 9.56744 27.5 9.56744H6.4671C2.90103 9.56744 0 12.4486 0 15.9896V83.8176C0 87.3587 2.90103 90.2398 6.4671 90.2398H45.1277V103.928H39.803C38.8287 103.928 38.0393 104.712 38.0393 105.68C38.0393 106.647 38.8287 107.431 39.803 107.431H80.1714C81.1457 107.431 81.9352 106.647 81.9352 105.68C81.9352 104.712 81.1457 103.928 80.1714 103.928H74.8467V90.2398H113.939C117.505 90.2398 120.406 87.3587 120.406 83.8176V15.9896C120.406 12.4486 117.505 9.56744 113.939 9.56744ZM71.3195 103.928H48.6552V90.24H71.3195V103.928Z" fill="black"/>
<path d="M47.4201 19.006C47.0438 17.0258 45.2979 15.5882 43.2685 15.5882H41.3824C40.4081 15.5882 39.6187 16.3722 39.6187 17.3397C39.6187 18.3072 40.4081 19.0912 41.3824 19.0912H43.2685C43.6036 19.0912 43.8916 19.3285 43.9537 19.6557L49.1735 47.1109C49.3308 47.9383 50.0589 48.5373 50.9067 48.5373H52.0966C51.5757 49.1155 51.2562 49.8766 51.2562 50.7136C51.2562 52.5188 52.7299 53.9824 54.5478 53.9824C56.3656 53.9824 57.8394 52.5188 57.8394 50.7136C57.8394 49.8766 57.5201 49.1155 56.9989 48.5373H64.2548C63.7339 49.1155 63.4143 49.8766 63.4143 50.7136C63.4143 52.5188 64.8881 53.9824 66.706 53.9824C68.5238 53.9824 69.9976 52.5188 69.9976 50.7136C69.9976 49.8766 69.6782 49.1155 69.1571 48.5373H70.7443C71.7186 48.5373 72.508 47.7533 72.508 46.7858C72.508 45.8183 71.7186 45.0343 70.7443 45.0343H52.368L51.6484 41.2494H71.3597C72.2072 41.2494 72.9346 40.6511 73.0926 39.8239L76.2232 23.4235C76.2251 23.413 76.2272 23.4025 76.2288 23.392C76.3339 22.779 76.163 22.1549 75.7592 21.6797C75.3554 21.2045 74.7647 20.9319 74.1384 20.9319H47.7863L47.4201 19.006ZM50.0507 32.8422H54.8627L55.2237 37.7464H50.9834L50.0507 32.8422ZM62.6458 32.8422L62.2848 37.7464H58.7606L58.3996 32.8422H62.6458ZM58.1419 29.3392L57.7809 24.4352H63.2645L62.9035 29.3392H58.1419ZM65.822 37.7464L66.1829 32.8422H70.8355L69.8993 37.7464H65.822ZM71.5043 29.3392H66.4409L66.8019 24.4352H72.4405L71.5043 29.3392ZM54.2437 24.4352L54.6047 29.3392H49.3847L48.4523 24.4352H54.2437Z" fill="black"/>
<path d="M11.4882 58.616H21.9205C22.8948 58.616 23.6843 57.832 23.6843 56.8645C23.6843 55.897 22.8948 55.113 21.9205 55.113H11.4882C10.5139 55.113 9.72449 55.897 9.72449 56.8645C9.72449 57.832 10.5139 58.616 11.4882 58.616Z" fill="black"/>
<path d="M11.4882 66.5163H30.954C31.9283 66.5163 32.7178 65.7323 32.7178 64.7648C32.7178 63.7972 31.9283 63.0132 30.954 63.0132H11.4882C10.5139 63.0132 9.72449 63.7972 9.72449 64.7648C9.72449 65.7323 10.5139 66.5163 11.4882 66.5163Z" fill="black"/>
<path d="M104.632 19.6785C103.658 19.6785 102.869 20.4625 102.869 21.43V25.8137H98.4542C97.4799 25.8137 96.6904 26.5977 96.6904 27.5652C96.6904 28.5327 97.4799 29.3167 98.4542 29.3167H102.869V33.7004C102.869 34.6679 103.658 35.4519 104.632 35.4519C105.607 35.4519 106.396 34.6679 106.396 33.7004V29.3167H110.81C111.784 29.3167 112.574 28.5327 112.574 27.5652C112.574 26.5977 111.784 25.8137 110.81 25.8137H106.396V21.43C106.396 20.4627 105.606 19.6785 104.632 19.6785Z" fill="black"/>
</svg>
