<svg id="Layer_1" data-name="Layer 1" xmlns="http://www.w3.org/2000/svg" viewBox="0 0 1987.5 1913.82"><defs><style>.cls-1{fill:#f5f5f5;}.cls-2{fill:#e0e0e0;}.cls-3{fill:#5956c7;}.cls-4{opacity:0.15;}.cls-10,.cls-26,.cls-5,.cls-7,.cls-9{fill:#fff;}.cls-6{opacity:0.2;}.cls-17,.cls-7{opacity:0.7;}.cls-8{opacity:0.05;}.cls-9{opacity:0.9;}.cls-10{opacity:0.75;}.cls-11{opacity:0.4;}.cls-12{opacity:0.3;}.cls-13{fill:#281f6f;}.cls-14{fill:#00014a;}.cls-15{fill:#ececec;}.cls-16{opacity:0.1;}.cls-18{fill:#fafafa;}.cls-19{fill:#ffaaa8;}.cls-20{fill:#1a2e35;}.cls-21{opacity:0.19;}.cls-22{fill:#2f2c8a;}.cls-23{fill:#c76668;}.cls-24{fill:#ff9090;}.cls-25{fill:#f0f0f0;}.cls-26{opacity:0.5;}.cls-27{isolation:isolate;}</style></defs><title>App</title><ellipse id="Floor" class="cls-1" cx="993.75" cy="1369.86" rx="993.75" ry="543.95"/><path id="Shadow" class="cls-2" d="M1760.19,1542.05l219-126.24c10.25-5.92,10.25-15.51,0-21.43L1492.6,1113.09c-10.25-5.92-26.88-5.92-37.13,0l-219,126.24c-10.25,5.92-10.25,15.51,0,21.43l486.64,281.29C1733.31,1548,1749.94,1548,1760.19,1542.05Z" transform="translate(-9 -44.75)"/><path id="Shadow-2" data-name="Shadow" class="cls-2" d="M1688.6,1578.77l-23.31,13.46a12.16,12.16,0,0,1-11,0L1219.8,1341.35c-3-1.75-3-4.58,0-6.33l23.31-13.46a12.16,12.16,0,0,1,11,0l434.53,250.88C1691.63,1574.19,1691.63,1577,1688.6,1578.77Z" transform="translate(-9 -44.75)"/><path id="Shadow-3" data-name="Shadow" class="cls-2" d="M943.93,1672.36l-23.31,13.46a12.1,12.1,0,0,1-11,0L666.24,1545.48c-3-1.75-3-4.58,0-6.33l23.31-13.46a12.16,12.16,0,0,1,11,0L943.93,1666C947,1667.78,947,1670.61,943.93,1672.36Z" transform="translate(-9 -44.75)"/><path id="Shadow-4" data-name="Shadow" class="cls-2" d="M448.64,1385.33l-23.31,13.46a12.1,12.1,0,0,1-11,0L171,1258.45c-3-1.74-3-4.58,0-6.32l23.31-13.46a12.1,12.1,0,0,1,11,0L448.64,1379C451.67,1380.75,451.67,1383.59,448.64,1385.33Z" transform="translate(-9 -44.75)"/><ellipse id="Shadow-5" data-name="Shadow" class="cls-2" cx="1194.93" cy="1661.55" rx="218.87" ry="126.36"/><g id="Plants"><path class="cls-3" d="M1767.76,1475.74c-11.51-130.54,12.9-195.71,40.85-243.47,21.69-37,59.16-70.42,80.37-82.83s50.24-13.7,68.47-.73c16.81,12,16,26.16,12,41.3-7.54,29.22-72.41,75.22-95.21,99.5-38.74,41.26-71,88.3-72.88,203.24Z" transform="translate(-9 -44.75)"/><path class="cls-4" d="M1767.76,1475.74c-11.51-130.54,12.9-195.71,40.85-243.47,21.69-37,59.16-70.42,80.37-82.83s50.24-13.7,68.47-.73c16.81,12,16,26.16,12,41.3-7.54,29.22-72.41,75.22-95.21,99.5-38.74,41.26-71,88.3-72.88,203.24Z" transform="translate(-9 -44.75)"/><path class="cls-5" d="M1785.32,1457.32h.11a2.26,2.26,0,0,0,2-2.5c-19-160.09,105.11-268.62,144.92-288.32a2.25,2.25,0,1,0-2-4c-40.55,20.07-166.67,130.21-147.39,292.88A2.26,2.26,0,0,0,1785.32,1457.32Z" transform="translate(-9 -44.75)"/><path class="cls-3" d="M1787.42,1502c1,.91,9.7,5.72,10.93,6.31,14,6.77,33.64,7.78,51.46,8.14,11.75.24,27.6.48,37.56-6.59,4.93-3.51,8.44-9.75,6.9-15.6-1.67-6.31-8.67-10.92-8.19-17.42,13.2-2,27.38,3.75,39.74-1.33,9.3-3.82,15.9-11.12,21.21-19.66,3.13-5,5.68-12.65,4-18.34-2-6.73-9.74-9.59-16.42-11.79a13.1,13.1,0,0,1-4.94-2.45,4.69,4.69,0,0,1-1.52-5c.85-2.11,3.43-2.83,5.68-3.15,4.82-.68,9.73-.75,14.51-1.7s9.57-2.93,12.7-6.67c3.71-4.45,4.49-10.59,4.94-16.37a246.86,246.86,0,0,0,.88-29.54c-.1-2.36,1.18-25.76,2-25.43-22.84-9.32-48.75-11.71-73.19-10.8-13.64.51-33.82,3.4-42,16.17a26.07,26.07,0,0,0-3.6,12.12,46.12,46.12,0,0,0,.35,5.87c.06,1.22.44,6-2,3.39a5.06,5.06,0,0,1-1-2.12l-6.13-20.09c-.61-2-1.29-4.11-2.85-5.51-3.33-3-13.59-2.84-25.54,3.73-7.91,4.35-13.5,12.37-16.89,20.67-5.46,13.37-5.57,28.22-5.61,42.66l-6.88-14.1c-8-16.47-19.12,9.22-20.54,14.94-3.72,15.06-4.64,39.24-.66,54.24C1766.92,1474,1773.92,1490,1787.42,1502Z" transform="translate(-9 -44.75)"/><path class="cls-5" d="M1792.08,1502.45a2,2,0,0,0,1.6-1.34c19.89-61.69,114.18-143.16,150.27-155.48a2,2,0,1,0-1.26-3.71c-36.69,12.52-132.54,95.31-152.74,158a2,2,0,0,0,1.26,2.46A1.86,1.86,0,0,0,1792.08,1502.45Z" transform="translate(-9 -44.75)"/><path class="cls-5" d="M1906.4,1446a1.84,1.84,0,0,0,.87-3.45c-.34-.18-33.91-18-76-6.75,4.09-30.77-2.66-55.24-6.74-70l-.15-.53a1.84,1.84,0,1,0-3.54,1l.15.53c4.13,15,11,40,6.25,71.3a1.82,1.82,0,0,0,.6,1.66,1.84,1.84,0,0,0,1.73.38c41.92-12.33,75.61,5.51,75.94,5.69A1.85,1.85,0,0,0,1906.4,1446Z" transform="translate(-9 -44.75)"/></g><g id="Plants-2" data-name="Plants"><path class="cls-3" d="M242.8,1151.57c0-47.14.23-94.62-24.58-161.31-20.82-56-74.83-108-109.63-105.15-32.41,2.67-39.06,42.62-9.42,77.69,13.68,16.18,37.74,35.08,58.67,60.07,24.43,29.19,43.59,70.25,47.55,91.46s5.68,54.84,5.68,54.84Z" transform="translate(-9 -44.75)"/><path class="cls-6" d="M242.8,1151.57c0-47.14.23-94.62-24.58-161.31-20.82-56-74.83-108-109.63-105.15-32.41,2.67-39.06,42.62-9.42,77.69,13.68,16.18,37.74,35.08,58.67,60.07,24.43,29.19,43.59,70.25,47.55,91.46s5.68,54.84,5.68,54.84Z" transform="translate(-9 -44.75)"/><path class="cls-5" d="M227.48,1137a2.09,2.09,0,0,1-1.56-2c-1.67-99.14-69.43-197-112.73-222.54a2.08,2.08,0,0,1,2.11-3.59c44.13,26,113.08,125.42,114.79,226.06a2.08,2.08,0,0,1-2.61,2Z" transform="translate(-9 -44.75)"/><path class="cls-3" d="M199.2,1176.09c-2.21-16.52-17.74-45.52-45.9-71.71-31.15-29-73.39-46.4-80.77-66.48-8.87-24.13,13.47-43.09,49-36,42.72,8.54,89.53,62.39,98.78,161.86Z" transform="translate(-9 -44.75)"/><path class="cls-5" d="M208.52,1160.46a2.07,2.07,0,0,1-1.57-1.62c-17.45-86.81-76.14-125-104.74-133a2.09,2.09,0,0,1-1.44-2.57,2.06,2.06,0,0,1,2.57-1.44C135,1030.71,193.22,1069.42,211,1158a2.09,2.09,0,0,1-1.63,2.45A2.17,2.17,0,0,1,208.52,1160.46Z" transform="translate(-9 -44.75)"/></g><g id="Gears"><path class="cls-3" d="M810,163.46a2.46,2.46,0,0,1,2.54.44l12,9.11a3.68,3.68,0,0,0,5.13-.78,25.89,25.89,0,0,1,2.66-2.85,6.25,6.25,0,0,0,1.86-5.89l-1-3.31-5.16-3.92a2.43,2.43,0,0,0-2.6-.39v0ZM861.23,256c12.59,11.32,25.43,11.14,31.2.64-4.87-.72-10.29-3.45-15.66-8.28-14.59-13.12-23.31-36.73-19.46-52.7a26.16,26.16,0,0,1,2.13-5.85c-8.38-1.26-15.2,3.41-17.64,13.49C837.94,219.29,846.64,242.89,861.23,256ZM830.61,141.85a3.85,3.85,0,0,1,1-.29l9.64-1.51a5.2,5.2,0,0,1,5.21,2.85l7.77,17.59a7.6,7.6,0,0,0,1.87,2.42,9.79,9.79,0,0,0,3.26,2,45.87,45.87,0,0,1,5.72,2.3,3.24,3.24,0,0,0,4.61-1.74l3.39-9.09a7.74,7.74,0,0,1-1.44-1.12h0a7.76,7.76,0,0,1-1.84-2.4l-7.8-17.59a5.12,5.12,0,0,0-5.2-2.84l-9.62,1.51a3.06,3.06,0,0,0-1,.33v0Zm46.47,151.22v0a2.69,2.69,0,0,0,1.32-1.56l.52-1.34a7.85,7.85,0,0,0-1.79-.89,43.81,43.81,0,0,1-5.72-2.3,3.2,3.2,0,0,0-4.61,1.74l-3.91,10.43a2.76,2.76,0,0,1-1,1.38Zm-2.22-139.63a2.43,2.43,0,0,1,2.78.59l13.46,12.1a7.71,7.71,0,0,1,2.12,3.86,6,6,0,0,1,.19,2.36l-1.74,13.44a10.58,10.58,0,0,0,1.78,6.69c2.13,2.94,4.15,6,6,9.16a7.15,7.15,0,0,0,3,2.62,6,6,0,0,0,2.6.7l9.18.15a5.82,5.82,0,0,1,3.69,1.62,5.33,5.33,0,0,1,1.34,2l7.3,19.81a3.69,3.69,0,0,1-2.23,4.75l-7.6,2.64a4.63,4.63,0,0,0-2.87,4.93,81.31,81.31,0,0,1,1,9.28,11.54,11.54,0,0,0,2.67,6.44l.14.14,11.67,12.26a7.45,7.45,0,0,1,1.73,3.71,6.49,6.49,0,0,1,0,2.64l-3.27,13.57a2.66,2.66,0,0,1-1.16,1.75l15.46-7.6a2.72,2.72,0,0,0,1.22-1.79l3.29-13.56a7.42,7.42,0,0,0-.64-4.67,3.43,3.43,0,0,0-.44-.85c0-.05-.05-.08-.07-.13a3.85,3.85,0,0,0-.55-.71L933.16,249l-.14-.13a11.43,11.43,0,0,1-2.65-6.45,88.65,88.65,0,0,0-1-9.28,4.59,4.59,0,0,1,.4-2.62l10.53-5.17a3.66,3.66,0,0,0,1.75-4.53l-7.31-19.81a5.81,5.81,0,0,0-1.34-2,6.82,6.82,0,0,0-1.27-.91,4.68,4.68,0,0,0-.72-.34.08.08,0,0,0-.07,0,3.22,3.22,0,0,0-.67-.2,4.57,4.57,0,0,0-.74-.12l-.22,0-9.15-.15a2.85,2.85,0,0,1-.82-.11,2.4,2.4,0,0,1-.59-.13,6.47,6.47,0,0,1-1.22-.46,7.18,7.18,0,0,1-3-2.62c-1.87-3.14-3.86-6.22-6-9.16a10.63,10.63,0,0,1-1.78-6.69l1.74-13.46a6.58,6.58,0,0,0-.23-2.32h0c0-.17-.1-.38-.14-.55a9.35,9.35,0,0,0-1.09-2.32,3.17,3.17,0,0,0-.35-.45,3.43,3.43,0,0,0-.51-.56l-13.48-12.1a2.74,2.74,0,0,0-1.7-.79,2.15,2.15,0,0,0-1.06.21Zm32.62,155a3.16,3.16,0,0,1-1.52,3.8l15.56-7.66,0,0a3.14,3.14,0,0,0,1.52-3.77l-4.29-14.46-6.87-5.2a3.65,3.65,0,0,0-5.12.81,24.71,24.71,0,0,1-2.64,2.84,6.35,6.35,0,0,0-1.89,5.9Z" transform="translate(-9 -44.75)"/><path class="cls-7" d="M810,163.46a2.46,2.46,0,0,1,2.54.44l12,9.11a3.68,3.68,0,0,0,5.13-.78,25.89,25.89,0,0,1,2.66-2.85,6.25,6.25,0,0,0,1.86-5.89l-1-3.31-5.16-3.92a2.43,2.43,0,0,0-2.6-.39v0ZM861.23,256c12.59,11.32,25.43,11.14,31.2.64-4.87-.72-10.29-3.45-15.66-8.28-14.59-13.12-23.31-36.73-19.46-52.7a26.16,26.16,0,0,1,2.13-5.85c-8.38-1.26-15.2,3.41-17.64,13.49C837.94,219.29,846.64,242.89,861.23,256ZM830.61,141.85a3.85,3.85,0,0,1,1-.29l9.64-1.51a5.2,5.2,0,0,1,5.21,2.85l7.77,17.59a7.6,7.6,0,0,0,1.87,2.42,9.79,9.79,0,0,0,3.26,2,45.87,45.87,0,0,1,5.72,2.3,3.24,3.24,0,0,0,4.61-1.74l3.39-9.09a7.74,7.74,0,0,1-1.44-1.12h0a7.76,7.76,0,0,1-1.84-2.4l-7.8-17.59a5.12,5.12,0,0,0-5.2-2.84l-9.62,1.51a3.06,3.06,0,0,0-1,.33v0Zm46.47,151.22v0a2.69,2.69,0,0,0,1.32-1.56l.52-1.34a7.85,7.85,0,0,0-1.79-.89,43.81,43.81,0,0,1-5.72-2.3,3.2,3.2,0,0,0-4.61,1.74l-3.91,10.43a2.76,2.76,0,0,1-1,1.38Zm-2.22-139.63a2.43,2.43,0,0,1,2.78.59l13.46,12.1a7.71,7.71,0,0,1,2.12,3.86,6,6,0,0,1,.19,2.36l-1.74,13.44a10.58,10.58,0,0,0,1.78,6.69c2.13,2.94,4.15,6,6,9.16a7.15,7.15,0,0,0,3,2.62,6,6,0,0,0,2.6.7l9.18.15a5.82,5.82,0,0,1,3.69,1.62,5.33,5.33,0,0,1,1.34,2l7.3,19.81a3.69,3.69,0,0,1-2.23,4.75l-7.6,2.64a4.63,4.63,0,0,0-2.87,4.93,81.31,81.31,0,0,1,1,9.28,11.54,11.54,0,0,0,2.67,6.44l.14.14,11.67,12.26a7.45,7.45,0,0,1,1.73,3.71,6.49,6.49,0,0,1,0,2.64l-3.27,13.57a2.66,2.66,0,0,1-1.16,1.75l15.46-7.6a2.72,2.72,0,0,0,1.22-1.79l3.29-13.56a7.42,7.42,0,0,0-.64-4.67,3.43,3.43,0,0,0-.44-.85c0-.05-.05-.08-.07-.13a3.85,3.85,0,0,0-.55-.71L933.16,249l-.14-.13a11.43,11.43,0,0,1-2.65-6.45,88.65,88.65,0,0,0-1-9.28,4.59,4.59,0,0,1,.4-2.62l10.53-5.17a3.66,3.66,0,0,0,1.75-4.53l-7.31-19.81a5.81,5.81,0,0,0-1.34-2,6.82,6.82,0,0,0-1.27-.91,4.68,4.68,0,0,0-.72-.34.08.08,0,0,0-.07,0,3.22,3.22,0,0,0-.67-.2,4.57,4.57,0,0,0-.74-.12l-.22,0-9.15-.15a2.85,2.85,0,0,1-.82-.11,2.4,2.4,0,0,1-.59-.13,6.47,6.47,0,0,1-1.22-.46,7.18,7.18,0,0,1-3-2.62c-1.87-3.14-3.86-6.22-6-9.16a10.63,10.63,0,0,1-1.78-6.69l1.74-13.46a6.58,6.58,0,0,0-.23-2.32h0c0-.17-.1-.38-.14-.55a9.35,9.35,0,0,0-1.09-2.32,3.17,3.17,0,0,0-.35-.45,3.43,3.43,0,0,0-.51-.56l-13.48-12.1a2.74,2.74,0,0,0-1.7-.79,2.15,2.15,0,0,0-1.06.21Zm32.62,155a3.16,3.16,0,0,1-1.52,3.8l15.56-7.66,0,0a3.14,3.14,0,0,0,1.52-3.77l-4.29-14.46-6.87-5.2a3.65,3.65,0,0,0-5.12.81,24.71,24.71,0,0,1-2.64,2.84,6.35,6.35,0,0,0-1.89,5.9Z" transform="translate(-9 -44.75)"/><path class="cls-8" d="M810,163.46a2.46,2.46,0,0,1,2.54.44l12,9.11a3.68,3.68,0,0,0,5.13-.78,25.89,25.89,0,0,1,2.66-2.85,6.25,6.25,0,0,0,1.86-5.89l-1-3.31-5.16-3.92a2.43,2.43,0,0,0-2.6-.39v0ZM861.23,256c12.59,11.32,25.43,11.14,31.2.64-4.87-.72-10.29-3.45-15.66-8.28-14.59-13.12-23.31-36.73-19.46-52.7a26.16,26.16,0,0,1,2.13-5.85c-8.38-1.26-15.2,3.41-17.64,13.49C837.94,219.29,846.64,242.89,861.23,256ZM830.61,141.85a3.85,3.85,0,0,1,1-.29l9.64-1.51a5.2,5.2,0,0,1,5.21,2.85l7.77,17.59a7.6,7.6,0,0,0,1.87,2.42,9.79,9.79,0,0,0,3.26,2,45.87,45.87,0,0,1,5.72,2.3,3.24,3.24,0,0,0,4.61-1.74l3.39-9.09a7.74,7.74,0,0,1-1.44-1.12h0a7.76,7.76,0,0,1-1.84-2.4l-7.8-17.59a5.12,5.12,0,0,0-5.2-2.84l-9.62,1.51a3.06,3.06,0,0,0-1,.33v0Zm46.47,151.22v0a2.69,2.69,0,0,0,1.32-1.56l.52-1.34a7.85,7.85,0,0,0-1.79-.89,43.81,43.81,0,0,1-5.72-2.3,3.2,3.2,0,0,0-4.61,1.74l-3.91,10.43a2.76,2.76,0,0,1-1,1.38Zm-2.22-139.63a2.43,2.43,0,0,1,2.78.59l13.46,12.1a7.71,7.71,0,0,1,2.12,3.86,6,6,0,0,1,.19,2.36l-1.74,13.44a10.58,10.58,0,0,0,1.78,6.69c2.13,2.94,4.15,6,6,9.16a7.15,7.15,0,0,0,3,2.62,6,6,0,0,0,2.6.7l9.18.15a5.82,5.82,0,0,1,3.69,1.62,5.33,5.33,0,0,1,1.34,2l7.3,19.81a3.69,3.69,0,0,1-2.23,4.75l-7.6,2.64a4.63,4.63,0,0,0-2.87,4.93,81.31,81.31,0,0,1,1,9.28,11.54,11.54,0,0,0,2.67,6.44l.14.14,11.67,12.26a7.45,7.45,0,0,1,1.73,3.71,6.49,6.49,0,0,1,0,2.64l-3.27,13.57a2.66,2.66,0,0,1-1.16,1.75l15.46-7.6a2.72,2.72,0,0,0,1.22-1.79l3.29-13.56a7.42,7.42,0,0,0-.64-4.67,3.43,3.43,0,0,0-.44-.85c0-.05-.05-.08-.07-.13a3.85,3.85,0,0,0-.55-.71L933.16,249l-.14-.13a11.43,11.43,0,0,1-2.65-6.45,88.65,88.65,0,0,0-1-9.28,4.59,4.59,0,0,1,.4-2.62l10.53-5.17a3.66,3.66,0,0,0,1.75-4.53l-7.31-19.81a5.81,5.81,0,0,0-1.34-2,6.82,6.82,0,0,0-1.27-.91,4.68,4.68,0,0,0-.72-.34.08.08,0,0,0-.07,0,3.22,3.22,0,0,0-.67-.2,4.57,4.57,0,0,0-.74-.12l-.22,0-9.15-.15a2.85,2.85,0,0,1-.82-.11,2.4,2.4,0,0,1-.59-.13,6.47,6.47,0,0,1-1.22-.46,7.18,7.18,0,0,1-3-2.62c-1.87-3.14-3.86-6.22-6-9.16a10.63,10.63,0,0,1-1.78-6.69l1.74-13.46a6.58,6.58,0,0,0-.23-2.32h0c0-.17-.1-.38-.14-.55a9.35,9.35,0,0,0-1.09-2.32,3.17,3.17,0,0,0-.35-.45,3.43,3.43,0,0,0-.51-.56l-13.48-12.1a2.74,2.74,0,0,0-1.7-.79,2.15,2.15,0,0,0-1.06.21Zm32.62,155a3.16,3.16,0,0,1-1.52,3.8l15.56-7.66,0,0a3.14,3.14,0,0,0,1.52-3.77l-4.29-14.46-6.87-5.2a3.65,3.65,0,0,0-5.12.81,24.71,24.71,0,0,1-2.64,2.84,6.35,6.35,0,0,0-1.89,5.9Z" transform="translate(-9 -44.75)"/><path class="cls-3" d="M917.65,256.68l11.67,12.26a7.45,7.45,0,0,1,1.73,3.71L946.53,265a9,9,0,0,0-.61-2,3.43,3.43,0,0,0-.44-.85c0-.05-.05-.08-.07-.13a3.85,3.85,0,0,0-.55-.71L933.16,249Z" transform="translate(-9 -44.75)"/><path class="cls-3" d="M902.44,204.26a6,6,0,0,0,2.6.7l9.18.15a5.82,5.82,0,0,1,3.69,1.62l15.51-7.64a6.82,6.82,0,0,0-1.27-.91,4.68,4.68,0,0,0-.72-.34.08.08,0,0,0-.07,0,3.22,3.22,0,0,0-.67-.2,4.57,4.57,0,0,0-.74-.12l-.22,0-9.15-.15a2.85,2.85,0,0,1-.82-.11,3.87,3.87,0,0,1-.59-.13c-.39-.13-.78-.31-1.17-.48l0,0Z" transform="translate(-9 -44.75)"/><path class="cls-3" d="M810,163.45a2.41,2.41,0,0,1,2.54.46l12,9.11a3.66,3.66,0,0,0,5.13-.81,24,24,0,0,1,2.66-2.84,6.26,6.26,0,0,0,1.86-5.9l-1-3.28-5.16-3.91a2.44,2.44,0,0,0-2.59-.43v0Z" transform="translate(-9 -44.75)"/><path class="cls-3" d="M830.61,141.85a3.85,3.85,0,0,1,1-.29l9.64-1.51a5.2,5.2,0,0,1,5.21,2.85l7.77,17.59a7.6,7.6,0,0,0,1.87,2.42l15.51-7.66a7.76,7.76,0,0,1-1.84-2.4l-7.8-17.59a5.12,5.12,0,0,0-5.2-2.84l-9.62,1.51a3.06,3.06,0,0,0-1,.33v0Z" transform="translate(-9 -44.75)"/><path class="cls-3" d="M874.86,153.44a2.43,2.43,0,0,1,2.78.59l13.46,12.1a7.71,7.71,0,0,1,2.12,3.86l15.51-7.62c0-.17-.1-.38-.14-.55a9.35,9.35,0,0,0-1.09-2.32,3.17,3.17,0,0,0-.35-.45,3.43,3.43,0,0,0-.51-.56l-13.48-12.1a2.74,2.74,0,0,0-1.7-.79,2.15,2.15,0,0,0-1.06.21Z" transform="translate(-9 -44.75)"/><path class="cls-9" d="M917.65,256.68l11.67,12.26a7.45,7.45,0,0,1,1.73,3.71L946.53,265a9,9,0,0,0-.61-2,3.43,3.43,0,0,0-.44-.85c0-.05-.05-.08-.07-.13a3.85,3.85,0,0,0-.55-.71L933.16,249Z" transform="translate(-9 -44.75)"/><path class="cls-9" d="M902.44,204.26a6,6,0,0,0,2.6.7l9.18.15a5.82,5.82,0,0,1,3.69,1.62l15.51-7.64a6.82,6.82,0,0,0-1.27-.91,4.68,4.68,0,0,0-.72-.34.08.08,0,0,0-.07,0,3.22,3.22,0,0,0-.67-.2,4.57,4.57,0,0,0-.74-.12l-.22,0-9.15-.15a2.85,2.85,0,0,1-.82-.11,3.87,3.87,0,0,1-.59-.13c-.39-.13-.78-.31-1.17-.48l0,0Z" transform="translate(-9 -44.75)"/><path class="cls-9" d="M810,163.45a2.41,2.41,0,0,1,2.54.46l12,9.11a3.66,3.66,0,0,0,5.13-.81,24,24,0,0,1,2.66-2.84,6.26,6.26,0,0,0,1.86-5.9l-1-3.28-5.16-3.91a2.44,2.44,0,0,0-2.59-.43v0Z" transform="translate(-9 -44.75)"/><path class="cls-9" d="M830.61,141.85a3.85,3.85,0,0,1,1-.29l9.64-1.51a5.2,5.2,0,0,1,5.21,2.85l7.77,17.59a7.6,7.6,0,0,0,1.87,2.42l15.51-7.66a7.76,7.76,0,0,1-1.84-2.4l-7.8-17.59a5.12,5.12,0,0,0-5.2-2.84l-9.62,1.51a3.06,3.06,0,0,0-1,.33v0Z" transform="translate(-9 -44.75)"/><path class="cls-9" d="M874.86,153.44a2.43,2.43,0,0,1,2.78.59l13.46,12.1a7.71,7.71,0,0,1,2.12,3.86l15.51-7.62c0-.17-.1-.38-.14-.55a9.35,9.35,0,0,0-1.09-2.32,3.17,3.17,0,0,0-.35-.45,3.43,3.43,0,0,0-.51-.56l-13.48-12.1a2.74,2.74,0,0,0-1.7-.79,2.15,2.15,0,0,0-1.06.21Z" transform="translate(-9 -44.75)"/><path class="cls-3" d="M807.12,185.2l11.82,12.41A11.43,11.43,0,0,1,821.6,204a86.22,86.22,0,0,0,1,9.29,4.59,4.59,0,0,1-2.87,4.92l-7.59,2.66a3.67,3.67,0,0,0-2.23,4.74l7.31,19.81a5.87,5.87,0,0,0,5,3.57l9.16.16A7.33,7.33,0,0,1,837,252.5a108.7,108.7,0,0,0,6,9.16,10.74,10.74,0,0,1,1.78,6.69L843,281.81a8,8,0,0,0,2.3,6.2l13.47,12.11a2.37,2.37,0,0,0,4.09-1l3.91-10.42a3.24,3.24,0,0,1,4.62-1.76,43.6,43.6,0,0,0,5.71,2.32,9.35,9.35,0,0,1,5.11,4.4L890,311.24a5.15,5.15,0,0,0,5.21,2.84l9.62-1.49a3.18,3.18,0,0,0,2.63-4.16l-5.27-17.77a6.26,6.26,0,0,1,1.88-5.89,26.55,26.55,0,0,0,2.64-2.84,3.66,3.66,0,0,1,5.13-.8l12,9.1a2.26,2.26,0,0,0,3.85-1.37L931,275.29a7.59,7.59,0,0,0-1.7-6.34L917.5,256.54a11.53,11.53,0,0,1-2.66-6.44,86.49,86.49,0,0,0-1-9.29,4.59,4.59,0,0,1,2.87-4.91l7.59-2.66a3.66,3.66,0,0,0,2.23-4.74l-7.31-19.82a5.91,5.91,0,0,0-5-3.57l-9.16-.15a7.38,7.38,0,0,1-5.59-3.31c-1.86-3.16-3.87-6.23-6-9.17a10.73,10.73,0,0,1-1.77-6.69l1.74-13.45a8,8,0,0,0-2.3-6.21L877.64,154a2.37,2.37,0,0,0-4.09,1l-3.91,10.43A3.24,3.24,0,0,1,865,167.2a44.94,44.94,0,0,0-5.71-2.31,9.33,9.33,0,0,1-5.11-4.41l-7.79-17.57a5.16,5.16,0,0,0-5.21-2.85l-9.62,1.5a3.17,3.17,0,0,0-2.63,4.15l5.27,17.77a6.27,6.27,0,0,1-1.87,5.9,24.78,24.78,0,0,0-2.65,2.84,3.67,3.67,0,0,1-5.13.8l-12-9.11a2.26,2.26,0,0,0-3.85,1.38l-3.27,13.57A7.64,7.64,0,0,0,807.12,185.2Zm34.68,18.11c3.85-16,18.8-18.3,33.4-5.18s23.3,36.72,19.45,52.7-18.81,18.31-33.41,5.19S837.94,219.3,841.8,203.31Z" transform="translate(-9 -44.75)"/><path class="cls-10" d="M807.12,185.2l11.82,12.41A11.43,11.43,0,0,1,821.6,204a86.22,86.22,0,0,0,1,9.29,4.59,4.59,0,0,1-2.87,4.92l-7.59,2.66a3.67,3.67,0,0,0-2.23,4.74l7.31,19.81a5.87,5.87,0,0,0,5,3.57l9.16.16A7.33,7.33,0,0,1,837,252.5a108.7,108.7,0,0,0,6,9.16,10.74,10.74,0,0,1,1.78,6.69L843,281.81a8,8,0,0,0,2.3,6.2l13.47,12.11a2.37,2.37,0,0,0,4.09-1l3.91-10.42a3.24,3.24,0,0,1,4.62-1.76,43.6,43.6,0,0,0,5.71,2.32,9.35,9.35,0,0,1,5.11,4.4L890,311.24a5.15,5.15,0,0,0,5.21,2.84l9.62-1.49a3.18,3.18,0,0,0,2.63-4.16l-5.27-17.77a6.26,6.26,0,0,1,1.88-5.89,26.55,26.55,0,0,0,2.64-2.84,3.66,3.66,0,0,1,5.13-.8l12,9.1a2.26,2.26,0,0,0,3.85-1.37L931,275.29a7.59,7.59,0,0,0-1.7-6.34L917.5,256.54a11.53,11.53,0,0,1-2.66-6.44,86.49,86.49,0,0,0-1-9.29,4.59,4.59,0,0,1,2.87-4.91l7.59-2.66a3.66,3.66,0,0,0,2.23-4.74l-7.31-19.82a5.91,5.91,0,0,0-5-3.57l-9.16-.15a7.38,7.38,0,0,1-5.59-3.31c-1.86-3.16-3.87-6.23-6-9.17a10.73,10.73,0,0,1-1.77-6.69l1.74-13.45a8,8,0,0,0-2.3-6.21L877.64,154a2.37,2.37,0,0,0-4.09,1l-3.91,10.43A3.24,3.24,0,0,1,865,167.2a44.94,44.94,0,0,0-5.71-2.31,9.33,9.33,0,0,1-5.11-4.41l-7.79-17.57a5.16,5.16,0,0,0-5.21-2.85l-9.62,1.5a3.17,3.17,0,0,0-2.63,4.15l5.27,17.77a6.27,6.27,0,0,1-1.87,5.9,24.78,24.78,0,0,0-2.65,2.84,3.67,3.67,0,0,1-5.13.8l-12-9.11a2.26,2.26,0,0,0-3.85,1.38l-3.27,13.57A7.64,7.64,0,0,0,807.12,185.2Zm34.68,18.11c3.85-16,18.8-18.3,33.4-5.18s23.3,36.72,19.45,52.7-18.81,18.31-33.41,5.19S837.94,219.3,841.8,203.31Z" transform="translate(-9 -44.75)"/><path class="cls-3" d="M970,209.77a3.43,3.43,0,0,1,3.51.61l16.57,12.55a5,5,0,0,0,7-1.08,39.38,39.38,0,0,1,3.67-3.92c2.09-1.92,3.38-5.38,2.57-8.12l-1.35-4.56-7.11-5.39a3.35,3.35,0,0,0-3.58-.54v0Zm70.58,127.5c17.33,15.59,35,15.35,43,.88-6.71-1-14.17-4.75-21.57-11.4-20.1-18.08-32.12-50.59-26.81-72.59a35.61,35.61,0,0,1,2.94-8.06c-11.54-1.73-20.95,4.7-24.31,18.58C1008.48,286.68,1020.47,319.19,1040.57,337.27ZM998.38,180a4.92,4.92,0,0,1,1.33-.4l13.28-2.08a7.15,7.15,0,0,1,7.17,3.92l10.71,24.23a10.31,10.31,0,0,0,2.57,3.34,13.76,13.76,0,0,0,4.49,2.74,62.38,62.38,0,0,1,7.88,3.17,4.47,4.47,0,0,0,6.35-2.4l4.68-12.52a10.71,10.71,0,0,1-2-1.55h0a10.54,10.54,0,0,1-2.54-3.3l-10.74-24.23a7.1,7.1,0,0,0-7.17-3.92l-13.25,2.08a4.52,4.52,0,0,0-1.4.46v0Zm64,208.3v0a3.7,3.7,0,0,0,1.83-2.15l.71-1.84a10.53,10.53,0,0,0-2.47-1.23,61.08,61.08,0,0,1-7.87-3.17,4.42,4.42,0,0,0-6.35,2.4l-5.39,14.36a3.74,3.74,0,0,1-1.36,1.91ZM1059.34,196a3.35,3.35,0,0,1,3.83.8l18.54,16.67a10.77,10.77,0,0,1,2.92,5.32,8.34,8.34,0,0,1,.26,3.25l-2.39,18.52a14.54,14.54,0,0,0,2.45,9.21c2.93,4,5.71,8.28,8.28,12.62a9.94,9.94,0,0,0,4.09,3.6,8.18,8.18,0,0,0,3.59,1l12.64.22a7.94,7.94,0,0,1,5.08,2.23,7.26,7.26,0,0,1,1.85,2.7l10.06,27.29a5.06,5.06,0,0,1-3.08,6.54L1117,309.55a6.35,6.35,0,0,0-4,6.79,111.63,111.63,0,0,1,1.35,12.78,16.1,16.1,0,0,0,3.68,8.88l.2.18,16.08,16.89a10.29,10.29,0,0,1,2.38,5.11,8.89,8.89,0,0,1,0,3.64l-4.5,18.69a3.72,3.72,0,0,1-1.61,2.41l21.3-10.46a3.75,3.75,0,0,0,1.67-2.47l4.54-18.69a10.13,10.13,0,0,0-.88-6.42,4.66,4.66,0,0,0-.61-1.17c0-.08-.06-.11-.09-.18a5.24,5.24,0,0,0-.76-1l-16.12-16.89-.19-.18a15.77,15.77,0,0,1-3.64-8.88,121.45,121.45,0,0,0-1.36-12.78,6.35,6.35,0,0,1,.55-3.61l14.5-7.12a5,5,0,0,0,2.41-6.24l-10.06-27.29a7.54,7.54,0,0,0-1.85-2.7,9,9,0,0,0-1.74-1.25,5.7,5.7,0,0,0-1-.48.11.11,0,0,0-.1,0,3.93,3.93,0,0,0-.91-.27,5.17,5.17,0,0,0-1-.17l-.31,0-12.61-.22a4.37,4.37,0,0,1-1.13-.14,3.4,3.4,0,0,1-.81-.19,8.21,8.21,0,0,1-1.68-.63,9.81,9.81,0,0,1-4.09-3.6c-2.57-4.34-5.32-8.58-8.28-12.63a14.74,14.74,0,0,1-2.45-9.2l2.39-18.56a9,9,0,0,0-.3-3.18h0c0-.24-.14-.52-.19-.77a12.51,12.51,0,0,0-1.51-3.19,3.61,3.61,0,0,0-.47-.62,4.77,4.77,0,0,0-.71-.77l-18.57-16.67a3.72,3.72,0,0,0-2.34-1.08,2.94,2.94,0,0,0-1.46.28Zm44.93,213.51a4.33,4.33,0,0,1-2.1,5.22l21.44-10.55,0,0a4.35,4.35,0,0,0,2.1-5.2L1119.77,379l-9.47-7.17a5.05,5.05,0,0,0-7,1.12,34,34,0,0,1-3.63,3.92c-2.09,1.93-3.39,5.38-2.6,8.12Z" transform="translate(-9 -44.75)"/><path class="cls-7" d="M970,209.77a3.43,3.43,0,0,1,3.51.61l16.57,12.55a5,5,0,0,0,7-1.08,39.38,39.38,0,0,1,3.67-3.92c2.09-1.92,3.38-5.38,2.57-8.12l-1.35-4.56-7.11-5.39a3.35,3.35,0,0,0-3.58-.54v0Zm70.58,127.5c17.33,15.59,35,15.35,43,.88-6.71-1-14.17-4.75-21.57-11.4-20.1-18.08-32.12-50.59-26.81-72.59a35.61,35.61,0,0,1,2.94-8.06c-11.54-1.73-20.95,4.7-24.31,18.58C1008.48,286.68,1020.47,319.19,1040.57,337.27ZM998.38,180a4.92,4.92,0,0,1,1.33-.4l13.28-2.08a7.15,7.15,0,0,1,7.17,3.92l10.71,24.23a10.31,10.31,0,0,0,2.57,3.34,13.76,13.76,0,0,0,4.49,2.74,62.38,62.38,0,0,1,7.88,3.17,4.47,4.47,0,0,0,6.35-2.4l4.68-12.52a10.71,10.71,0,0,1-2-1.55h0a10.54,10.54,0,0,1-2.54-3.3l-10.74-24.23a7.1,7.1,0,0,0-7.17-3.92l-13.25,2.08a4.52,4.52,0,0,0-1.4.46v0Zm64,208.3v0a3.7,3.7,0,0,0,1.83-2.15l.71-1.84a10.53,10.53,0,0,0-2.47-1.23,61.08,61.08,0,0,1-7.87-3.17,4.42,4.42,0,0,0-6.35,2.4l-5.39,14.36a3.74,3.74,0,0,1-1.36,1.91ZM1059.34,196a3.35,3.35,0,0,1,3.83.8l18.54,16.67a10.77,10.77,0,0,1,2.92,5.32,8.34,8.34,0,0,1,.26,3.25l-2.39,18.52a14.54,14.54,0,0,0,2.45,9.21c2.93,4,5.71,8.28,8.28,12.62a9.94,9.94,0,0,0,4.09,3.6,8.18,8.18,0,0,0,3.59,1l12.64.22a7.94,7.94,0,0,1,5.08,2.23,7.26,7.26,0,0,1,1.85,2.7l10.06,27.29a5.06,5.06,0,0,1-3.08,6.54L1117,309.55a6.35,6.35,0,0,0-4,6.79,111.63,111.63,0,0,1,1.35,12.78,16.1,16.1,0,0,0,3.68,8.88l.2.18,16.08,16.89a10.29,10.29,0,0,1,2.38,5.11,8.89,8.89,0,0,1,0,3.64l-4.5,18.69a3.72,3.72,0,0,1-1.61,2.41l21.3-10.46a3.75,3.75,0,0,0,1.67-2.47l4.54-18.69a10.13,10.13,0,0,0-.88-6.42,4.66,4.66,0,0,0-.61-1.17c0-.08-.06-.11-.09-.18a5.24,5.24,0,0,0-.76-1l-16.12-16.89-.19-.18a15.77,15.77,0,0,1-3.64-8.88,121.45,121.45,0,0,0-1.36-12.78,6.35,6.35,0,0,1,.55-3.61l14.5-7.12a5,5,0,0,0,2.41-6.24l-10.06-27.29a7.54,7.54,0,0,0-1.85-2.7,9,9,0,0,0-1.74-1.25,5.7,5.7,0,0,0-1-.48.11.11,0,0,0-.1,0,3.93,3.93,0,0,0-.91-.27,5.17,5.17,0,0,0-1-.17l-.31,0-12.61-.22a4.37,4.37,0,0,1-1.13-.14,3.4,3.4,0,0,1-.81-.19,8.21,8.21,0,0,1-1.68-.63,9.81,9.81,0,0,1-4.09-3.6c-2.57-4.34-5.32-8.58-8.28-12.63a14.74,14.74,0,0,1-2.45-9.2l2.39-18.56a9,9,0,0,0-.3-3.18h0c0-.24-.14-.52-.19-.77a12.51,12.51,0,0,0-1.51-3.19,3.61,3.61,0,0,0-.47-.62,4.77,4.77,0,0,0-.71-.77l-18.57-16.67a3.72,3.72,0,0,0-2.34-1.08,2.94,2.94,0,0,0-1.46.28Zm44.93,213.51a4.33,4.33,0,0,1-2.1,5.22l21.44-10.55,0,0a4.35,4.35,0,0,0,2.1-5.2L1119.77,379l-9.47-7.17a5.05,5.05,0,0,0-7,1.12,34,34,0,0,1-3.63,3.92c-2.09,1.93-3.39,5.38-2.6,8.12Z" transform="translate(-9 -44.75)"/><path class="cls-8" d="M970,209.77a3.43,3.43,0,0,1,3.51.61l16.57,12.55a5,5,0,0,0,7-1.08,39.38,39.38,0,0,1,3.67-3.92c2.09-1.92,3.38-5.38,2.57-8.12l-1.35-4.56-7.11-5.39a3.35,3.35,0,0,0-3.58-.54v0Zm70.58,127.5c17.33,15.59,35,15.35,43,.88-6.71-1-14.17-4.75-21.57-11.4-20.1-18.08-32.12-50.59-26.81-72.59a35.61,35.61,0,0,1,2.94-8.06c-11.54-1.73-20.95,4.7-24.31,18.58C1008.48,286.68,1020.47,319.19,1040.57,337.27ZM998.38,180a4.92,4.92,0,0,1,1.33-.4l13.28-2.08a7.15,7.15,0,0,1,7.17,3.92l10.71,24.23a10.31,10.31,0,0,0,2.57,3.34,13.76,13.76,0,0,0,4.49,2.74,62.38,62.38,0,0,1,7.88,3.17,4.47,4.47,0,0,0,6.35-2.4l4.68-12.52a10.71,10.71,0,0,1-2-1.55h0a10.54,10.54,0,0,1-2.54-3.3l-10.74-24.23a7.1,7.1,0,0,0-7.17-3.92l-13.25,2.08a4.52,4.52,0,0,0-1.4.46v0Zm64,208.3v0a3.7,3.7,0,0,0,1.83-2.15l.71-1.84a10.53,10.53,0,0,0-2.47-1.23,61.08,61.08,0,0,1-7.87-3.17,4.42,4.42,0,0,0-6.35,2.4l-5.39,14.36a3.74,3.74,0,0,1-1.36,1.91ZM1059.34,196a3.35,3.35,0,0,1,3.83.8l18.54,16.67a10.77,10.77,0,0,1,2.92,5.32,8.34,8.34,0,0,1,.26,3.25l-2.39,18.52a14.54,14.54,0,0,0,2.45,9.21c2.93,4,5.71,8.28,8.28,12.62a9.94,9.94,0,0,0,4.09,3.6,8.18,8.18,0,0,0,3.59,1l12.64.22a7.94,7.94,0,0,1,5.08,2.23,7.26,7.26,0,0,1,1.85,2.7l10.06,27.29a5.06,5.06,0,0,1-3.08,6.54L1117,309.55a6.35,6.35,0,0,0-4,6.79,111.63,111.63,0,0,1,1.35,12.78,16.1,16.1,0,0,0,3.68,8.88l.2.18,16.08,16.89a10.29,10.29,0,0,1,2.38,5.11,8.89,8.89,0,0,1,0,3.64l-4.5,18.69a3.72,3.72,0,0,1-1.61,2.41l21.3-10.46a3.75,3.75,0,0,0,1.67-2.47l4.54-18.69a10.13,10.13,0,0,0-.88-6.42,4.66,4.66,0,0,0-.61-1.17c0-.08-.06-.11-.09-.18a5.24,5.24,0,0,0-.76-1l-16.12-16.89-.19-.18a15.77,15.77,0,0,1-3.64-8.88,121.45,121.45,0,0,0-1.36-12.78,6.35,6.35,0,0,1,.55-3.61l14.5-7.12a5,5,0,0,0,2.41-6.24l-10.06-27.29a7.54,7.54,0,0,0-1.85-2.7,9,9,0,0,0-1.74-1.25,5.7,5.7,0,0,0-1-.48.11.11,0,0,0-.1,0,3.93,3.93,0,0,0-.91-.27,5.17,5.17,0,0,0-1-.17l-.31,0-12.61-.22a4.37,4.37,0,0,1-1.13-.14,3.4,3.4,0,0,1-.81-.19,8.21,8.21,0,0,1-1.68-.63,9.81,9.81,0,0,1-4.09-3.6c-2.57-4.34-5.32-8.58-8.28-12.63a14.74,14.74,0,0,1-2.45-9.2l2.39-18.56a9,9,0,0,0-.3-3.18h0c0-.24-.14-.52-.19-.77a12.51,12.51,0,0,0-1.51-3.19,3.61,3.61,0,0,0-.47-.62,4.77,4.77,0,0,0-.71-.77l-18.57-16.67a3.72,3.72,0,0,0-2.34-1.08,2.94,2.94,0,0,0-1.46.28Zm44.93,213.51a4.33,4.33,0,0,1-2.1,5.22l21.44-10.55,0,0a4.35,4.35,0,0,0,2.1-5.2L1119.77,379l-9.47-7.17a5.05,5.05,0,0,0-7,1.12,34,34,0,0,1-3.63,3.92c-2.09,1.93-3.39,5.38-2.6,8.12Z" transform="translate(-9 -44.75)"/><path class="cls-3" d="M1118.28,338.18l16.08,16.89a10.29,10.29,0,0,1,2.38,5.11l21.33-10.49a12.69,12.69,0,0,0-.85-2.81,4.66,4.66,0,0,0-.61-1.17c0-.08-.06-.11-.09-.18a5.24,5.24,0,0,0-.76-1l-16.12-16.89Z" transform="translate(-9 -44.75)"/><path class="cls-3" d="M1097.32,266a8.18,8.18,0,0,0,3.59,1l12.64.22a7.94,7.94,0,0,1,5.08,2.23L1140,258.86a9,9,0,0,0-1.74-1.25,5.7,5.7,0,0,0-1-.48.11.11,0,0,0-.1,0,3.93,3.93,0,0,0-.91-.27,5.17,5.17,0,0,0-1-.17l-.31,0-12.61-.22a4.37,4.37,0,0,1-1.13-.14,5.93,5.93,0,0,1-.81-.19,15.59,15.59,0,0,1-1.61-.66l-.07,0Z" transform="translate(-9 -44.75)"/><path class="cls-3" d="M970,209.75a3.35,3.35,0,0,1,3.5.65L990.07,223a5.06,5.06,0,0,0,7.06-1.12,34.2,34.2,0,0,1,3.66-3.92c2.09-1.92,3.38-5.38,2.57-8.11l-1.35-4.53-7.11-5.39a3.36,3.36,0,0,0-3.57-.58v0Z" transform="translate(-9 -44.75)"/><path class="cls-3" d="M998.38,180a4.92,4.92,0,0,1,1.33-.4l13.28-2.08a7.15,7.15,0,0,1,7.17,3.92l10.71,24.23a10.31,10.31,0,0,0,2.57,3.34l21.37-10.56a10.54,10.54,0,0,1-2.54-3.3l-10.74-24.23a7.1,7.1,0,0,0-7.17-3.92l-13.25,2.08a4.52,4.52,0,0,0-1.4.46v0Z" transform="translate(-9 -44.75)"/><path class="cls-3" d="M1059.34,196a3.35,3.35,0,0,1,3.83.8l18.54,16.67a10.77,10.77,0,0,1,2.92,5.32L1106,208.28c0-.24-.14-.52-.19-.77a12.51,12.51,0,0,0-1.51-3.19,3.61,3.61,0,0,0-.47-.62,4.77,4.77,0,0,0-.71-.77l-18.57-16.67a3.72,3.72,0,0,0-2.34-1.08,2.94,2.94,0,0,0-1.46.28Z" transform="translate(-9 -44.75)"/><path class="cls-9" d="M1118.28,338.18l16.08,16.89a10.29,10.29,0,0,1,2.38,5.11l21.33-10.49a12.69,12.69,0,0,0-.85-2.81,4.66,4.66,0,0,0-.61-1.17c0-.08-.06-.11-.09-.18a5.24,5.24,0,0,0-.76-1l-16.12-16.89Z" transform="translate(-9 -44.75)"/><path class="cls-9" d="M1097.32,266a8.18,8.18,0,0,0,3.59,1l12.64.22a7.94,7.94,0,0,1,5.08,2.23L1140,258.86a9,9,0,0,0-1.74-1.25,5.7,5.7,0,0,0-1-.48.11.11,0,0,0-.1,0,3.93,3.93,0,0,0-.91-.27,5.17,5.17,0,0,0-1-.17l-.31,0-12.61-.22a4.37,4.37,0,0,1-1.13-.14,5.93,5.93,0,0,1-.81-.19,15.59,15.59,0,0,1-1.61-.66l-.07,0Z" transform="translate(-9 -44.75)"/><path class="cls-9" d="M970,209.75a3.35,3.35,0,0,1,3.5.65L990.07,223a5.06,5.06,0,0,0,7.06-1.12,34.2,34.2,0,0,1,3.66-3.92c2.09-1.92,3.38-5.38,2.57-8.11l-1.35-4.53-7.11-5.39a3.36,3.36,0,0,0-3.57-.58v0Z" transform="translate(-9 -44.75)"/><path class="cls-9" d="M998.38,180a4.92,4.92,0,0,1,1.33-.4l13.28-2.08a7.15,7.15,0,0,1,7.17,3.92l10.71,24.23a10.31,10.31,0,0,0,2.57,3.34l21.37-10.56a10.54,10.54,0,0,1-2.54-3.3l-10.74-24.23a7.1,7.1,0,0,0-7.17-3.92l-13.25,2.08a4.52,4.52,0,0,0-1.4.46v0Z" transform="translate(-9 -44.75)"/><path class="cls-9" d="M1059.34,196a3.35,3.35,0,0,1,3.83.8l18.54,16.67a10.77,10.77,0,0,1,2.92,5.32L1106,208.28c0-.24-.14-.52-.19-.77a12.51,12.51,0,0,0-1.51-3.19,3.61,3.61,0,0,0-.47-.62,4.77,4.77,0,0,0-.71-.77l-18.57-16.67a3.72,3.72,0,0,0-2.34-1.08,2.94,2.94,0,0,0-1.46.28Z" transform="translate(-9 -44.75)"/><path class="cls-3" d="M966,239.72l16.28,17.09a15.88,15.88,0,0,1,3.67,8.87,116.68,116.68,0,0,0,1.34,12.79,6.3,6.3,0,0,1-4,6.77l-10.45,3.66a5.07,5.07,0,0,0-3.08,6.54l10.08,27.29a8.08,8.08,0,0,0,6.92,4.92l12.62.21a10.13,10.13,0,0,1,7.7,4.56q3.86,6.54,8.29,12.63a14.78,14.78,0,0,1,2.45,9.21l-2.4,18.54a11,11,0,0,0,3.17,8.55L1037.21,398c2.12,1.9,4.64,1.29,5.64-1.38l5.39-14.36a4.45,4.45,0,0,1,6.35-2.41,62.16,62.16,0,0,0,7.87,3.19,12.9,12.9,0,0,1,7,6.07l10.73,24.2a7.08,7.08,0,0,0,7.17,3.92l13.25-2.05a4.38,4.38,0,0,0,3.62-5.73L1097,385c-.81-2.72.49-6.19,2.58-8.11a37,37,0,0,0,3.65-3.92,5,5,0,0,1,7-1.1l16.57,12.54c2.27,1.72,4.65.87,5.32-1.9l4.5-18.69a10.52,10.52,0,0,0-2.34-8.73L1118.08,338a15.81,15.81,0,0,1-3.67-8.87,119.24,119.24,0,0,0-1.35-12.79,6.31,6.31,0,0,1,4-6.77l10.44-3.67a5,5,0,0,0,3.08-6.53l-10.07-27.29a8.11,8.11,0,0,0-6.93-4.92l-12.62-.21a10.15,10.15,0,0,1-7.7-4.56,150.9,150.9,0,0,0-8.29-12.63,14.77,14.77,0,0,1-2.44-9.21l2.4-18.54a11,11,0,0,0-3.17-8.55l-18.55-16.67c-2.12-1.9-4.64-1.29-5.64,1.38l-5.38,14.36a4.46,4.46,0,0,1-6.36,2.41,61.56,61.56,0,0,0-7.87-3.19,12.88,12.88,0,0,1-7-6.07l-10.73-24.21a7.09,7.09,0,0,0-7.18-3.91l-13.25,2a4.38,4.38,0,0,0-3.62,5.73l7.25,24.48c.81,2.72-.48,6.19-2.57,8.11a35,35,0,0,0-3.65,3.92,5,5,0,0,1-7.06,1.1L973.5,210.4c-2.27-1.72-4.64-.87-5.31,1.89L963.68,231A10.56,10.56,0,0,0,966,239.72Zm47.76,25c5.31-22,25.91-25.21,46-7.14s32.1,50.58,26.79,72.6-25.91,25.22-46,7.14S1008.48,286.69,1013.79,264.67Z" transform="translate(-9 -44.75)"/><path class="cls-10" d="M966,239.72l16.28,17.09a15.88,15.88,0,0,1,3.67,8.87,116.68,116.68,0,0,0,1.34,12.79,6.3,6.3,0,0,1-4,6.77l-10.45,3.66a5.07,5.07,0,0,0-3.08,6.54l10.08,27.29a8.08,8.08,0,0,0,6.92,4.92l12.62.21a10.13,10.13,0,0,1,7.7,4.56q3.86,6.54,8.29,12.63a14.78,14.78,0,0,1,2.45,9.21l-2.4,18.54a11,11,0,0,0,3.17,8.55L1037.21,398c2.12,1.9,4.64,1.29,5.64-1.38l5.39-14.36a4.45,4.45,0,0,1,6.35-2.41,62.16,62.16,0,0,0,7.87,3.19,12.9,12.9,0,0,1,7,6.07l10.73,24.2a7.08,7.08,0,0,0,7.17,3.92l13.25-2.05a4.38,4.38,0,0,0,3.62-5.73L1097,385c-.81-2.72.49-6.19,2.58-8.11a37,37,0,0,0,3.65-3.92,5,5,0,0,1,7-1.1l16.57,12.54c2.27,1.72,4.65.87,5.32-1.9l4.5-18.69a10.52,10.52,0,0,0-2.34-8.73L1118.08,338a15.81,15.81,0,0,1-3.67-8.87,119.24,119.24,0,0,0-1.35-12.79,6.31,6.31,0,0,1,4-6.77l10.44-3.67a5,5,0,0,0,3.08-6.53l-10.07-27.29a8.11,8.11,0,0,0-6.93-4.92l-12.62-.21a10.15,10.15,0,0,1-7.7-4.56,150.9,150.9,0,0,0-8.29-12.63,14.77,14.77,0,0,1-2.44-9.21l2.4-18.54a11,11,0,0,0-3.17-8.55l-18.55-16.67c-2.12-1.9-4.64-1.29-5.64,1.38l-5.38,14.36a4.46,4.46,0,0,1-6.36,2.41,61.56,61.56,0,0,0-7.87-3.19,12.88,12.88,0,0,1-7-6.07l-10.73-24.21a7.09,7.09,0,0,0-7.18-3.91l-13.25,2a4.38,4.38,0,0,0-3.62,5.73l7.25,24.48c.81,2.72-.48,6.19-2.57,8.11a35,35,0,0,0-3.65,3.92,5,5,0,0,1-7.06,1.1L973.5,210.4c-2.27-1.72-4.64-.87-5.31,1.89L963.68,231A10.56,10.56,0,0,0,966,239.72Zm47.76,25c5.31-22,25.91-25.21,46-7.14s32.1,50.58,26.79,72.6-25.91,25.22-46,7.14S1008.48,286.69,1013.79,264.67Z" transform="translate(-9 -44.75)"/></g><g id="Mobile"><path class="cls-3" d="M1346.43,195.19,1774,442.1c13.88,8,22.2,22.08,23,38.22l0,994.12c0,15.66-9.67,33.94-21.6,40.83s-32.59,6.12-46.15-1.71l-426-246c-13.51-7.8-24.56-26.94-24.56-42.54V234.3c0-15.66,13.06-26.36,25-33.24S1332.86,187.35,1346.43,195.19Z" transform="translate(-9 -44.75)"/><path class="cls-11" d="M1735.17,1516.37c13.11,5.1,29.95,4.85,40.27-1.1,11.91-6.88,21.58-25.17,21.58-40.84l0-994.11c-.14-6-1.55-12.69-6.2-21.05l-39.64,22.48c7.32,9.27,11.2,18.81,11.43,28.62v984C1762.64,1513.21,1750.73,1522.14,1735.17,1516.37Z" transform="translate(-9 -44.75)"/><path class="cls-12" d="M1278.76,232.25c.92-14.07,11.56-19.57,24.46-12.12L1741,472.87a40.25,40.25,0,0,1,10.22,8.88l39.64-22.48a44.07,44.07,0,0,0-14.72-15.95l-429.7-248.15c-13.58-7.83-30.85-1-42.76,5.88C1292.25,207.64,1279.54,217.08,1278.76,232.25Z" transform="translate(-9 -44.75)"/><path class="cls-3" d="M1278.67,234.3v990.76c0,15.61,11,34.72,24.55,42.52l426.12,246c18.3,10.59,33.32,1.94,33.32-19.19v-984c0-13.75-9.74-30.62-21.68-37.5L1303.22,220.13C1289.72,212.33,1278.67,218.7,1278.67,234.3Z" transform="translate(-9 -44.75)"/><path class="cls-6" d="M1278.67,234.3v990.76c0,15.61,11,34.72,24.55,42.52l426.12,246c18.3,10.59,33.32,1.94,33.32-19.19v-984c0-13.75-9.74-30.62-21.68-37.5L1303.22,220.13C1289.72,212.33,1278.67,218.7,1278.67,234.3Z" transform="translate(-9 -44.75)"/><path class="cls-13" d="M1300.82,300.17v892.31c0,14.85,10.5,33,23.32,40.41l394.65,227.87c12.87,7.46,23.33,1.43,23.33-13.46V547.82c0-12.06-6.88-26.28-16.37-35.18-.76-.67-1.47-1.35-2.23-2a38.66,38.66,0,0,0-4.73-3.25l-52.85-30.54-4.35-2.49-5.23-2.91-12.82-7.17c-9.15-5-19.07-2.32-19.07,8.44v33.32c0,10.93-8.18,15.06-18.26,9.24l-165.06-96.22c-10.08-5.82-18.26-19.4-18.26-30.32V351.17c0-7.38-4.3-17.42-11.26-21.43l-79-45.26-2.32-1.35C1314.1,273.77,1300.82,281.4,1300.82,300.17Z" transform="translate(-9 -44.75)"/><path class="cls-14" d="M1332.66,1170.59V284.48l79,45.26c7,4,11.26,14.05,11.26,21.43v37.59c0,10.92,8.18,24.5,18.26,30.32l165.06,96.22c5.52,3.19,10.47,3.39,13.82,1.13,2.77-1.87,28.8-19.62,32.15-22.08,2.61-1.91,4.18-5.39,4.18-10.18v-12.7l5.23,2.91,4.35,2.49,52.85,30.54a38.66,38.66,0,0,1,4.73,3.25c.76.63,1.47,1.31,2.23,2,9.49,8.9,16.37,23.12,16.37,35.18v886.11L1356,1211C1343.17,1203.62,1332.66,1185.44,1332.66,1170.59Z" transform="translate(-9 -44.75)"/><path class="cls-14" d="M1555,456l-59.31-34.23c-3.53-2.05-6.4-.59-6.4,3.24s2.87,8.59,6.4,10.64L1555,469.9c3.53,2.05,6.4.59,6.4-3.24S1558.49,458.07,1555,456Z" transform="translate(-9 -44.75)"/><path class="cls-14" d="M1465.23,404.12c-3.32-1.91-6-.36-6,3.47a13.28,13.28,0,0,0,6,10.41c3.32,1.92,6,.36,6-3.47A13.29,13.29,0,0,0,1465.23,404.12Z" transform="translate(-9 -44.75)"/><path class="cls-14" d="M1441.17,390.25c-3.32-1.91-6-.36-6,3.47a13.26,13.26,0,0,0,6,10.41c3.32,1.92,6,.37,6-3.47A13.29,13.29,0,0,0,1441.17,390.25Z" transform="translate(-9 -44.75)"/><path class="cls-14" d="M1609.44,487.42c-3.32-1.92-6-.37-6,3.47a13.26,13.26,0,0,0,6,10.4c3.32,1.92,6,.37,6-3.47A13.26,13.26,0,0,0,1609.44,487.42Z" transform="translate(-9 -44.75)"/><path class="cls-14" d="M1585.38,473.55c-3.32-1.92-6-.37-6,3.47a13.29,13.29,0,0,0,6,10.41c3.32,1.91,6,.36,6-3.47A13.26,13.26,0,0,0,1585.38,473.55Z" transform="translate(-9 -44.75)"/></g><g id="Window"><path class="cls-15" d="M1248.46,359.9c5.34-3.11,12.72-2.69,20.85,2h0l81.3,46.6c7,4,11.29,14,11.29,21.43V467.5c0,10.92,8.18,24.51,18.26,30.33l155.91,90.9V567.3c0-4.7,1.9-7.86,4.81-9.51,3.73-2.13,24.46-14.14,27.34-15.8,3.74-2.14,9.15-1.77,14.32,1.07l18,10.09,4.34,2.49,52.85,30.54a36.77,36.77,0,0,1,4.73,3.24c.76.64,1.47,1.31,2.23,2,9.5,8.9,16.37,23.11,16.37,35.18v899.47c0,7.4-2.58,12.62-6.76,15.07s-23.24,13.42-27.46,15.86-10.06,2.08-16.49-1.66l-394.66-227.85c-12.82-7.38-23.33-25.56-23.33-40.41V394.76c0-9.39,3.34-16,8.71-19.07C1226,372.89,1243.58,362.74,1248.46,359.9Z" transform="translate(-9 -44.75)"/><path class="cls-1" d="M1541.62,557.38c3.71-1.69,8.73-1.14,13.54,1.47l18,10.13,4.35,2.49L1630.37,602a37.48,37.48,0,0,1,4.73,3.24c.76.64,1.47,1.31,2.23,2a52.12,52.12,0,0,1,8.56,10.54L1673.27,602a52.29,52.29,0,0,0-8.52-10.54c-.76-.68-1.48-1.35-2.24-2a37.72,37.72,0,0,0-4.72-3.24l-52.85-30.54-4.35-2.49-18-10.08c-5.15-2.87-10.59-3.25-14.3-1.1C1565.5,543.58,1546.81,554.38,1541.62,557.38Z" transform="translate(-9 -44.75)"/><path class="cls-1" d="M1221.09,375.7c5.31-3.12,12.69-2.7,20.83,2l81.29,46.61c3.37,1.89,6.11,5.27,8,9.07l27.38-15.82a21.56,21.56,0,0,0-8-9.07l-81.32-46.61c-8.1-4.68-15.48-5.11-20.84-2C1243.57,362.75,1226,372.88,1221.09,375.7Z" transform="translate(-9 -44.75)"/><path class="cls-16" d="M1331.26,433.41a27.55,27.55,0,0,1,3.25,12.35v37.55c0,7.25,3.59,15.65,9,22.18l27.41-15.81c-5.35-6.58-9-14.94-9-22.19V430a27.55,27.55,0,0,0-3.25-12.36Z" transform="translate(-9 -44.75)"/><path class="cls-3" d="M1241.93,377.72h0l81.3,46.61c7,4,11.29,14,11.29,21.43v37.56c0,10.92,8.18,24.5,18.26,30.32l165,96.23c10.08,5.82,18.26,1.68,18.26-9.24V567.3c0-10.75,9.93-13.45,19.09-8.43l18,10.09,4.35,2.49L1630.39,602a37.81,37.81,0,0,1,4.72,3.25c.76.63,1.48,1.31,2.24,2,9.49,8.9,16.37,23.12,16.37,35.18v899.48c0,14.89-10.46,20.92-23.33,13.46l-394.66-227.86c-12.82-7.38-23.33-25.56-23.33-40.41V394.76C1212.4,376,1225.69,368.33,1241.93,377.72Z" transform="translate(-9 -44.75)"/><g class="cls-17"><path class="cls-5" d="M1241.93,377.72h0l81.3,46.61c7,4,11.29,14,11.29,21.43v37.56c0,10.92,8.18,24.5,18.26,30.32l165,96.23c10.08,5.82,18.26,1.68,18.26-9.24V567.3c0-10.75,9.93-13.45,19.09-8.43l18,10.09,4.35,2.49L1630.39,602a37.81,37.81,0,0,1,4.72,3.25c.76.63,1.48,1.31,2.24,2,9.49,8.9,16.37,23.12,16.37,35.18v899.48c0,14.89-10.46,20.92-23.33,13.46l-394.66-227.86c-12.82-7.38-23.33-25.56-23.33-40.41V394.76C1212.4,376,1225.69,368.33,1241.93,377.72Z" transform="translate(-9 -44.75)"/></g><polygon class="cls-3" points="1644.72 981.98 1493.99 784.13 1319.52 896.56 1360.05 853.38 1301.3 764.35 1202.71 830.52 1202.71 1031.44 1644.72 1286.64 1644.72 981.98"/><path class="cls-3" d="M1365.92,730c-14.19-8.19-25.7-1.55-25.7,14.84s11.5,36.32,25.7,44.52,25.7,1.55,25.7-14.84S1380.11,738.15,1365.92,730Z" transform="translate(-9 -44.75)"/><path class="cls-18" d="M1212.4,1287.07V1029.18c57.42-31.2,135.72-25.62,222,24.22,85,49.06,162.12,132,219.27,227.61v260.87c0,14.89-10.46,20.92-23.33,13.45l-394.66-227.85C1222.91,1320.1,1212.4,1301.92,1212.4,1287.07Z" transform="translate(-9 -44.75)"/><path class="cls-15" d="M1220.84,1024.92v262.15c0,11.78,8.92,27.24,19.11,33.11L1634.62,1548a13.3,13.3,0,0,0,6.2,2.06c3.88,0,4.46-5.15,4.46-8.22V1267.21q4.21,6.75,8.44,13.8v260.87c0,10.55-5.26,16.66-12.9,16.66a21.06,21.06,0,0,1-10.43-3.21l-394.66-227.85c-12.83-7.38-23.33-25.56-23.33-40.41V1029.18C1214.92,1027.81,1217.77,1026.38,1220.84,1024.92Z" transform="translate(-9 -44.75)"/><path class="cls-14" d="M1511,1229.2,1323.64,1121c-5-2.91-9.13-.84-9.13,4.62s4.1,12.26,9.14,15.17L1511,1249c5,2.91,9.13.84,9.14-4.63S1516,1232.11,1511,1229.2Z" transform="translate(-9 -44.75)"/><path class="cls-14" d="M1493.86,1268.77l-153.08-88.38c-5-2.91-9.13-.84-9.13,4.62s4.09,12.25,9.13,15.16l153.07,88.39c5.05,2.91,9.14.84,9.14-4.63S1498.9,1271.68,1493.86,1268.77Z" transform="translate(-9 -44.75)"/><path class="cls-14" d="M1493.86,1169.84l-153.08-88.38c-5-2.91-9.13-.84-9.13,4.62s4.09,12.26,9.13,15.17l153.07,88.38c5.05,2.91,9.14.84,9.14-4.62S1498.9,1172.75,1493.86,1169.84Z" transform="translate(-9 -44.75)"/><path class="cls-3" d="M1468.72,1368.47v7.28c0,11.64-8.18,16.37-18.26,10.54l-83.41-48.16c-10.09-5.82-18.27-20-18.27-31.63v-7.28c0-11.65,8.18-16.37,18.26-10.55l83.42,48.16C1460.54,1342.65,1468.72,1356.82,1468.72,1368.47Z" transform="translate(-9 -44.75)"/><path class="cls-13" d="M798.63,1048.29a13.45,13.45,0,0,1,3.31,2.72,21.67,21.67,0,0,1,2.61,3.56,19.85,19.85,0,0,1,1.71,3.76,11.37,11.37,0,0,1,.64,3.27.75.75,0,0,1-.18.56.33.33,0,0,1-.41,0l-3.7-2.14a2.13,2.13,0,0,1-.64-.53,6.15,6.15,0,0,1-.49-.81l-.26-.59a7.76,7.76,0,0,0-.52-.92,7.12,7.12,0,0,0-.85-1,5.37,5.37,0,0,0-1.24-1,7.31,7.31,0,0,0-1-.49,2.52,2.52,0,0,0-.87-.16.88.88,0,0,0-.63.32,1.45,1.45,0,0,0-.24.94,3.05,3.05,0,0,0,.26,1.23,5.51,5.51,0,0,0,.91,1.32,18.53,18.53,0,0,0,1.67,1.69c.69.63,1.56,1.4,2.6,2.31a25.88,25.88,0,0,1,2.7,2.78,15.49,15.49,0,0,1,1.93,3,14.6,14.6,0,0,1,1.15,3.25,17.6,17.6,0,0,1,.37,3.75,8.31,8.31,0,0,1-.66,3.56,3.9,3.9,0,0,1-1.83,1.9,4.51,4.51,0,0,1-2.77.29,10.74,10.74,0,0,1-3.49-1.36,15.23,15.23,0,0,1-3.5-2.8,20.91,20.91,0,0,1-2.71-3.63,20.36,20.36,0,0,1-1.79-3.91,12.38,12.38,0,0,1-.66-3.63.75.75,0,0,1,.18-.56.32.32,0,0,1,.41,0l3.7,2.13a2.3,2.3,0,0,1,.62.5,5,5,0,0,1,.45.72c.08.16.19.42.34.76a9.23,9.23,0,0,0,.6,1.15,8.83,8.83,0,0,0,1,1.27,6,6,0,0,0,1.42,1.12,6.41,6.41,0,0,0,2.5,1c.67,0,1-.35,1-1.22a2.63,2.63,0,0,0-.36-1.29,8.11,8.11,0,0,0-1.11-1.44,25.89,25.89,0,0,0-1.87-1.8c-.76-.67-1.65-1.47-2.69-2.41a16.82,16.82,0,0,1-4.23-5.63,16.19,16.19,0,0,1-1.33-6.72,8.84,8.84,0,0,1,.56-3.23,4.37,4.37,0,0,1,1.6-2.06,4,4,0,0,1,2.53-.59A7.81,7.81,0,0,1,798.63,1048.29Z" transform="translate(-9 -44.75)"/><path class="cls-13" d="M814.83,1057.13a2.31,2.31,0,0,1,.22.95v4.36a.91.91,0,0,1-.23.69.41.41,0,0,1-.54,0l-3.55-2.05a1.47,1.47,0,0,1-.54-.66,2.16,2.16,0,0,1-.22-1v-4.36a1,1,0,0,1,.23-.7.42.42,0,0,1,.54,0l3.55,2A1.42,1.42,0,0,1,814.83,1057.13Z" transform="translate(-9 -44.75)"/><path class="cls-13" d="M814.27,1065.55a1.38,1.38,0,0,1,.53.65,2.23,2.23,0,0,1,.22,1l0,20.15a.92.92,0,0,1-.23.69.42.42,0,0,1-.54,0l-3.55-2a1.44,1.44,0,0,1-.54-.65,2.23,2.23,0,0,1-.22-1l.06-20.15a.92.92,0,0,1,.22-.69.42.42,0,0,1,.54,0Z" transform="translate(-9 -44.75)"/><path class="cls-13" d="M832.69,1076.53a2.2,2.2,0,0,1,.22,1l-.06,21a11.26,11.26,0,0,1-.59,3.93,4.23,4.23,0,0,1-1.6,2.14,3.48,3.48,0,0,1-2.44.44,9.1,9.1,0,0,1-3.1-1.19,13.24,13.24,0,0,1-3.59-2.92,15.67,15.67,0,0,1-2.19-3.29,13.72,13.72,0,0,1-1.09-3.12,14.11,14.11,0,0,1-.33-2.45.84.84,0,0,1,.21-.7.45.45,0,0,1,.55,0l3.67,2.12a2.1,2.1,0,0,1,.88,1.37,5.43,5.43,0,0,0,.6,1.34,3.71,3.71,0,0,0,1.37,1.23,2.22,2.22,0,0,0,1.89.32c.54-.18.82-.78.82-1.79v-3a4.5,4.5,0,0,1-.55.6,1.49,1.49,0,0,1-.74.4,2.27,2.27,0,0,1-1.07,0,5.66,5.66,0,0,1-1.57-.67,10.29,10.29,0,0,1-2.4-2,12.87,12.87,0,0,1-2-2.94,18.14,18.14,0,0,1-1.36-3.81,20.71,20.71,0,0,1-.57-4.62c0-.44,0-1,0-1.55s0-1.1,0-1.52a13.46,13.46,0,0,1,.59-4,4.84,4.84,0,0,1,1.38-2.24,2.78,2.78,0,0,1,2-.65,5.25,5.25,0,0,1,2.41.77,8.05,8.05,0,0,1,1.6,1.2,9.17,9.17,0,0,1,1.16,1.31,9.83,9.83,0,0,1,.79,1.3c.2.42.37.81.5,1.14v-1a.92.92,0,0,1,.23-.69.42.42,0,0,1,.54,0l3.27,1.89A1.42,1.42,0,0,1,832.69,1076.53Zm-4.89,9a13,13,0,0,0,0-2.72,7.92,7.92,0,0,0-.73-2.64,4.36,4.36,0,0,0-1.77-2c-.81-.46-1.43-.5-1.84-.09a3.2,3.2,0,0,0-.71,2.08q-.06.61-.06,1c0,.28,0,.65,0,1.1a8.16,8.16,0,0,0,.68,2.9,4.4,4.4,0,0,0,1.85,2.07c.77.44,1.36.46,1.77,0a3,3,0,0,0,.75-1.79" transform="translate(-9 -44.75)"/><path class="cls-13" d="M845.1,1082.91a10.52,10.52,0,0,1,2.48,2,12.08,12.08,0,0,1,1.93,2.91,16.78,16.78,0,0,1,1.25,3.8,22.53,22.53,0,0,1,.44,4.67l0,11.88a1,1,0,0,1-.22.7.42.42,0,0,1-.54,0l-3.56-2.05a1.47,1.47,0,0,1-.53-.66,2,2,0,0,1-.22-1l0-10.94a8.73,8.73,0,0,0-.59-3.32,4.31,4.31,0,0,0-1.86-2.2c-.84-.48-1.46-.47-1.85.06a4.73,4.73,0,0,0-.59,2.65l0,10.93a.93.93,0,0,1-.22.7.42.42,0,0,1-.54,0l-3.56-2.05a1.47,1.47,0,0,1-.53-.66,2,2,0,0,1-.22-1l0-20.14a1,1,0,0,1,.23-.7.43.43,0,0,1,.54,0l3.41,2a1.48,1.48,0,0,1,.54.66,2.35,2.35,0,0,1,.22,1v1a3.86,3.86,0,0,1,.57-.58,1.93,1.93,0,0,1,.82-.37,3,3,0,0,1,1.11,0A5.22,5.22,0,0,1,845.1,1082.91Z" transform="translate(-9 -44.75)"/><path class="cls-13" d="M874.19,1100.14a1.35,1.35,0,0,1,.53.66,2.06,2.06,0,0,1,.22,1l-.05,20.14a.86.86,0,0,1-.23.69.41.41,0,0,1-.54,0l-3.27-1.89a1.43,1.43,0,0,1-.53-.65,2.25,2.25,0,0,1-.23-1v-1a2.28,2.28,0,0,1-.55.61,1.69,1.69,0,0,1-.8.36,3.06,3.06,0,0,1-1.12,0,6,6,0,0,1-1.51-.64,11,11,0,0,1-4.35-4.9,19,19,0,0,1-1.6-8.41l0-11.89a.91.91,0,0,1,.23-.69.42.42,0,0,1,.54,0l3.55,2a1.35,1.35,0,0,1,.53.66,2.11,2.11,0,0,1,.23,1l0,10.94a9.4,9.4,0,0,0,.53,3.3,4,4,0,0,0,1.77,2.14c.83.48,1.42.45,1.77-.1a5.33,5.33,0,0,0,.53-2.69l0-10.93a1,1,0,0,1,.22-.7.42.42,0,0,1,.54,0Z" transform="translate(-9 -44.75)"/><path class="cls-13" d="M893.37,1120.7c0,.45,0,1,0,1.77s0,1.31,0,1.73a14.53,14.53,0,0,1-.58,4.08,5.28,5.28,0,0,1-1.39,2.3,2.74,2.74,0,0,1-2,.7,5.32,5.32,0,0,1-2.4-.78,7,7,0,0,1-1.44-1.09,9.37,9.37,0,0,1-1.07-1.27,8.68,8.68,0,0,1-.76-1.29c-.2-.41-.38-.79-.51-1.13l0,9.2a.92.92,0,0,1-.22.7.42.42,0,0,1-.54,0l-3.55-2.05a1.4,1.4,0,0,1-.54-.67,2.13,2.13,0,0,1-.22-1l.08-28.35a1,1,0,0,1,.23-.7.42.42,0,0,1,.53,0l3.42,2a1.47,1.47,0,0,1,.53.66,1.94,1.94,0,0,1,.22,1v1l.56-.58a1.58,1.58,0,0,1,.73-.43,2.59,2.59,0,0,1,1.07,0,5.62,5.62,0,0,1,1.58.66,10.3,10.3,0,0,1,2.39,2,12.75,12.75,0,0,1,2,3,19.29,19.29,0,0,1,1.36,3.89A22.32,22.32,0,0,1,893.37,1120.7Zm-5.06.07a16.25,16.25,0,0,0,0-2.42,9.42,9.42,0,0,0-.64-3,4.18,4.18,0,0,0-1.88-2.21,1.89,1.89,0,0,0-1.08-.32,1.08,1.08,0,0,0-.75.37,2.15,2.15,0,0,0-.47.83,5.15,5.15,0,0,0-.23,1.12c0,.41,0,.91,0,1.48s0,1.09,0,1.54a8.57,8.57,0,0,0,.23,1.39,8,8,0,0,0,.46,1.38,6,6,0,0,0,.75,1.23,3.79,3.79,0,0,0,1.07.92q1.32.77,1.89,0a4.28,4.28,0,0,0,.65-2.27" transform="translate(-9 -44.75)"/><path class="cls-14" d="M1543.3,694.67l-220.49-127.3c-10.08-5.82-18.26-1.68-18.26,9.25s8.18,24.52,18.27,30.34l220.48,127.3c10.09,5.82,18.27,1.68,18.27-9.25S1553.39,700.5,1543.3,694.67Z" transform="translate(-9 -44.75)"/></g><g id="Lines"><path class="cls-14" d="M671.94,579.55a18.68,18.68,0,0,1-8.56-14.84c0-3,1.09-5.26,3.06-6.4s4.5-.95,7.09.54a18.69,18.69,0,0,1,8.56,14.84c0,3-1.1,5.26-3.08,6.4a5.58,5.58,0,0,1-2.82.74A8.6,8.6,0,0,1,671.94,579.55ZM668,561.05c-.95.54-1.49,1.88-1.49,3.66a15.69,15.69,0,0,0,7,12.1c1.54.89,3,1.08,3.91.54s1.49-1.88,1.49-3.66c0-4.37-3.19-9.91-7-12.1a5.52,5.52,0,0,0-2.68-.84A2.34,2.34,0,0,0,668,561.05Z" transform="translate(-9 -44.75)"/><path class="cls-14" d="M563.12,516.72a18.67,18.67,0,0,1-8.56-14.83c0-3,1.09-5.26,3.07-6.41s4.5-.94,7.08.55h0a18.67,18.67,0,0,1,8.56,14.83c0,3-1.1,5.27-3.07,6.41a5.62,5.62,0,0,1-2.82.73A8.5,8.5,0,0,1,563.12,516.72Zm-3.91-18.5c-.94.55-1.49,1.89-1.49,3.67a15.69,15.69,0,0,0,7,12.09c1.54.9,3,1.09,3.92.55s1.49-1.89,1.49-3.67a15.69,15.69,0,0,0-7-12.09h0a5.57,5.57,0,0,0-2.68-.85A2.47,2.47,0,0,0,559.21,498.22Z" transform="translate(-9 -44.75)"/><path class="cls-14" d="M665,566.29a1.58,1.58,0,0,0,.79-2.95l-93.27-53.85a1.6,1.6,0,0,0-2.16.58,1.59,1.59,0,0,0,.58,2.17l93.27,53.84A1.58,1.58,0,0,0,665,566.29Z" transform="translate(-9 -44.75)"/><path class="cls-14" d="M806.36,908.48a18.67,18.67,0,0,1-8.56-14.83c0-3,1.09-5.27,3.07-6.41s4.5-.94,7.08.54h0a18.67,18.67,0,0,1,8.56,14.83c0,3-1.1,5.26-3.07,6.4a5.63,5.63,0,0,1-2.82.74A8.61,8.61,0,0,1,806.36,908.48ZM802.45,890c-.94.55-1.49,1.88-1.49,3.67a15.71,15.71,0,0,0,7,12.09c1.54.89,3,1.09,3.91.54s1.5-1.88,1.5-3.66a15.69,15.69,0,0,0-7-12.09h0a5.47,5.47,0,0,0-2.68-.85A2.47,2.47,0,0,0,802.45,890Z" transform="translate(-9 -44.75)"/><path class="cls-14" d="M674.27,1200.3a18.68,18.68,0,0,1-8.56-14.84c0-3,1.09-5.26,3.07-6.4s4.5-1,7.08.54h0a18.63,18.63,0,0,1,8.56,14.83c0,3-1.1,5.26-3.08,6.4a5.56,5.56,0,0,1-2.81.73A8.59,8.59,0,0,1,674.27,1200.3Zm-3.91-18.5c-.94.55-1.49,1.88-1.49,3.66a15.71,15.71,0,0,0,7,12.1c1.54.89,3,1.08,3.92.54s1.49-1.88,1.49-3.66a15.69,15.69,0,0,0-7-12.09h0a5.47,5.47,0,0,0-2.68-.85A2.47,2.47,0,0,0,670.36,1181.8Z" transform="translate(-9 -44.75)"/><path class="cls-14" d="M472.19,1083.66a18.69,18.69,0,0,1-8.56-14.84c0-3,1.09-5.26,3.07-6.4s4.5-1,7.08.54h0a18.64,18.64,0,0,1,8.56,14.83c0,3-1.09,5.26-3.08,6.4a5.57,5.57,0,0,1-2.81.74A8.69,8.69,0,0,1,472.19,1083.66Zm0-18c-1.55-.89-3-1.09-3.92-.54s-1.49,1.87-1.49,3.66a15.69,15.69,0,0,0,7,12.09c1.54.9,3,1.09,3.91.55s1.49-1.89,1.49-3.67c0-4.36-3.19-9.9-7-12.09Z" transform="translate(-9 -44.75)"/><path class="cls-14" d="M807.15,935.61a1.58,1.58,0,0,0,1.58-1.58V907.11a1.58,1.58,0,0,0-3.16,0v24.18L574.82,798a1.59,1.59,0,0,0-1.58,0,1.57,1.57,0,0,0-.79,1.37V916.22a1.58,1.58,0,0,0,3.16,0V802.15L806.36,935.4A1.58,1.58,0,0,0,807.15,935.61Z" transform="translate(-9 -44.75)"/><path class="cls-14" d="M573.74,989.58a1.63,1.63,0,0,1-1.15-.89l-23.24-49.43a1.57,1.57,0,0,1,.33-1.81l23.25-22.37a1.58,1.58,0,0,1,2.53.46l23.24,49.21a1.59,1.59,0,0,1-.32,1.81l-23.25,22.59a1.6,1.6,0,0,1-1.11.45Zm-.2-70.7-20.85,20.06,21.82,46.4,20.85-20.26Z" transform="translate(-9 -44.75)"/><path class="cls-14" d="M651.75,1052.42a1.58,1.58,0,0,0,1.58-1.58V997a1.6,1.6,0,0,0-.78-1.37l-54.49-31.56a1.58,1.58,0,0,0-1.58,2.74l53.69,31.1v52.94A1.58,1.58,0,0,0,651.75,1052.42Z" transform="translate(-9 -44.75)"/><path class="cls-3" d="M666.78,1068.49l-30.06-17.35c-4.58-2.65-8.29-.5-8.29,4.78v7.85c0,5.28,3.71,11.71,8.29,14.35l30.06,17.36c4.58,2.64,8.29.5,8.29-4.79v-7.85C675.07,1077.56,671.36,1071.13,666.78,1068.49Z" transform="translate(-9 -44.75)"/><path class="cls-3" d="M511.33,979l-30.06-17.36c-4.58-2.64-8.29-.5-8.29,4.78v7.85c0,5.29,3.71,11.71,8.29,14.35L511.33,1006c4.58,2.64,8.29.5,8.29-4.78v-7.85C519.62,988.08,515.91,981.66,511.33,979Z" transform="translate(-9 -44.75)"/><path class="cls-14" d="M667.29,1187a1.58,1.58,0,0,0,.79-3l-14.75-8.52v-79a1.58,1.58,0,1,0-3.16,0v79.88a1.6,1.6,0,0,0,.79,1.37l15.54,9A1.61,1.61,0,0,0,667.29,1187Z" transform="translate(-9 -44.75)"/><path class="cls-14" d="M496.3,962.68a1.59,1.59,0,0,0,1.58-1.59V910L550,940a1.57,1.57,0,0,0,2.16-.59,1.59,1.59,0,0,0-.58-2.16l-54.48-31.34a1.59,1.59,0,0,0-2.37,1.37v53.85A1.59,1.59,0,0,0,496.3,962.68Z" transform="translate(-9 -44.75)"/><path class="cls-14" d="M496.3,1088.32a1.58,1.58,0,0,0,1.58-1.58V1006a1.58,1.58,0,1,0-3.16,0v78l-13.17-7.61a1.59,1.59,0,1,0-1.59,2.75l15.55,9A1.58,1.58,0,0,0,496.3,1088.32Z" transform="translate(-9 -44.75)"/><path class="cls-14" d="M270.11,527.05a18.67,18.67,0,0,1-8.56-14.83c0-3,1.09-5.26,3.07-6.41s4.49-.95,7.08.54h0a18.67,18.67,0,0,1,8.56,14.84c0,3-1.1,5.26-3.08,6.4a5.57,5.57,0,0,1-2.81.74A8.61,8.61,0,0,1,270.11,527.05Zm0-18c-1.55-.89-3-1.09-3.92-.54s-1.48,1.88-1.48,3.67c0,4.37,3.19,9.91,7,12.09,1.55.89,3,1.09,3.91.54s1.49-1.88,1.49-3.67a15.62,15.62,0,0,0-7-12.08Z" transform="translate(-9 -44.75)"/><path class="cls-14" d="M176.84,132.16a18.68,18.68,0,0,1-8.56-14.84c0-3,1.09-5.26,3.07-6.4s4.5-1,7.08.54A18.64,18.64,0,0,1,187,126.3c0,3-1.1,5.26-3.07,6.4a5.6,5.6,0,0,1-2.82.74A8.61,8.61,0,0,1,176.84,132.16Zm-3.91-18.5c-.94.55-1.48,1.88-1.48,3.66,0,4.38,3.19,9.92,7,12.1,1.55.89,3,1.08,3.91.54s1.49-1.88,1.5-3.66c0-4.37-3.19-9.91-7-12.09a5.44,5.44,0,0,0-2.68-.85A2.47,2.47,0,0,0,172.93,113.66Z" transform="translate(-9 -44.75)"/><path class="cls-14" d="M176.84,222.17a18.68,18.68,0,0,1-8.56-14.84c0-3,1.09-5.26,3.07-6.4s4.5-1,7.08.54A18.64,18.64,0,0,1,187,216.31c0,3-1.1,5.26-3.07,6.4a5.6,5.6,0,0,1-2.82.74A8.61,8.61,0,0,1,176.84,222.17Zm-3.91-18.5c-.94.54-1.48,1.88-1.48,3.66,0,4.38,3.19,9.92,7,12.1,1.55.89,3,1.08,3.91.54s1.49-1.88,1.5-3.66a15.7,15.7,0,0,0-7-12.1,5.54,5.54,0,0,0-2.68-.85A2.38,2.38,0,0,0,172.93,203.67Z" transform="translate(-9 -44.75)"/><path class="cls-14" d="M176.84,312.18a18.69,18.69,0,0,1-8.56-14.84c0-3,1.09-5.26,3.07-6.4s4.5-.95,7.08.54A18.64,18.64,0,0,1,187,306.32c0,3-1.1,5.26-3.07,6.4a5.6,5.6,0,0,1-2.82.74A8.61,8.61,0,0,1,176.84,312.18Zm-3.91-18.5c-.94.54-1.48,1.88-1.48,3.66a15.71,15.71,0,0,0,7,12.1c1.55.89,3,1.08,3.91.54s1.49-1.88,1.5-3.66a15.7,15.7,0,0,0-7-12.1,5.52,5.52,0,0,0-2.68-.84A2.38,2.38,0,0,0,172.93,293.68Z" transform="translate(-9 -44.75)"/><path class="cls-14" d="M176.84,402.19a18.69,18.69,0,0,1-8.56-14.84c0-3,1.09-5.26,3.07-6.4s4.5-.95,7.08.54A18.64,18.64,0,0,1,187,396.33c0,3-1.1,5.26-3.07,6.4a5.6,5.6,0,0,1-2.82.74A8.61,8.61,0,0,1,176.84,402.19Zm-3.91-18.5c-.94.54-1.48,1.88-1.48,3.66a15.71,15.71,0,0,0,7,12.1c1.55.89,3,1.08,3.91.54s1.49-1.88,1.5-3.66a15.7,15.7,0,0,0-7-12.1,5.52,5.52,0,0,0-2.68-.84A2.38,2.38,0,0,0,172.93,383.69Z" transform="translate(-9 -44.75)"/><path class="cls-14" d="M263.13,513.8a1.58,1.58,0,0,0,.79-3l-30.3-17.49V153.22a1.58,1.58,0,0,0-.79-1.37L186.2,124.93a1.58,1.58,0,1,0-1.58,2.74l45.84,26.47V494.26a1.6,1.6,0,0,0,.79,1.38l31.09,18A1.61,1.61,0,0,0,263.13,513.8Z" transform="translate(-9 -44.75)"/><path class="cls-14" d="M232,244.55a1.58,1.58,0,0,0,.79-3L186.2,214.68a1.58,1.58,0,1,0-1.58,2.74l46.63,26.92A1.61,1.61,0,0,0,232,244.55Z" transform="translate(-9 -44.75)"/><path class="cls-14" d="M232,334.4a1.6,1.6,0,0,0,1.37-.79,1.57,1.57,0,0,0-.58-2.16L186.2,304.52a1.6,1.6,0,0,0-2.16.58,1.59,1.59,0,0,0,.58,2.17l46.63,26.92A1.61,1.61,0,0,0,232,334.4Z" transform="translate(-9 -44.75)"/><path class="cls-14" d="M232,424.24a1.58,1.58,0,0,0,.79-2.95L186.2,394.37a1.58,1.58,0,1,0-1.58,2.74L231.25,424A1.61,1.61,0,0,0,232,424.24Z" transform="translate(-9 -44.75)"/><path class="cls-14" d="M1152.52,1217.17a1.58,1.58,0,0,0,.79-3l-102-58.9V641.83a1.6,1.6,0,0,0-.79-1.38L982,600.88a1.59,1.59,0,0,0-1.58,2.75l67.74,39.11v513.49a1.57,1.57,0,0,0,.79,1.37L1151.73,1217A1.61,1.61,0,0,0,1152.52,1217.17Z" transform="translate(-9 -44.75)"/><path class="cls-14" d="M972.61,608.11a18.67,18.67,0,0,1-8.56-14.83c0-3,1.1-5.26,3.07-6.41s4.49-.94,7.08.55h0a18.64,18.64,0,0,1,8.56,14.84c0,3-1.09,5.26-3.07,6.4a5.59,5.59,0,0,1-2.82.73A8.5,8.5,0,0,1,972.61,608.11Zm0-18c-1.54-.89-3-1.09-3.92-.55s-1.48,1.89-1.48,3.67c0,4.37,3.19,9.91,7,12.09,1.54.89,3,1.09,3.91.55s1.5-1.89,1.5-3.67a15.68,15.68,0,0,0-7-12.09Z" transform="translate(-9 -44.75)"/><path class="cls-14" d="M1159.5,1230.42a18.67,18.67,0,0,1-8.56-14.83c0-3,1.09-5.26,3.07-6.41s4.49-1,7.08.55a18.68,18.68,0,0,1,8.56,14.84c0,3-1.1,5.26-3.08,6.4a5.56,5.56,0,0,1-2.81.73A8.61,8.61,0,0,1,1159.5,1230.42Zm-3.91-18.5c-.95.55-1.49,1.88-1.49,3.67a15.69,15.69,0,0,0,7,12.09c1.54.89,3,1.09,3.91.55s1.49-1.89,1.49-3.67a15.65,15.65,0,0,0-7-12.09,5.61,5.61,0,0,0-2.69-.85A2.44,2.44,0,0,0,1155.59,1211.92Z" transform="translate(-9 -44.75)"/></g><g id="Character"><path class="cls-19" d="M1310.62,1626.85s6.22-130.58-.64-180.39c-5.89-42.74-14-62.16-15.17-71.88,0,0-6.62-100.56-7.49-185.91-.42-41.07-4.23-70.31-26.73-119.14l-141.49,32.14c-2.94,21.69-16.16,168.46-18.5,296.74-2.06,112.3,1.14,210.63,1.14,210.63l.15,5.91c0,6.56-1.44,11.15-5.67,21.68s-12.07,25.94-22.41,37.09c-3,3.22-23.62,21.28-26.35,25.13-8.87,10.34,9.5,16.17,23.14,14.35,14.4-1.92,36.76-7.39,43.1-16.16,4.22-5.84,7.4-26.29,11.74-32.21,14.64-20,20.66-28.55,20.76-34.93.2-11.53-3.77-16.09-5.18-22.6,1.18-13.6,30.54-125.5,31-165.11.24-18.87-1-44.87-1-44.87l22.79-130.74c8.8,32.64,24.76,93.54,30,124.64,6.36,38,28,148.69,41.55,199,5.1,18.89,7.6,27.33,9.1,39.71,0,0,.42,4.42.42,4.46.31,5.63,2.77,65.7,5,78.38,4.65,26.46,28.18,23.13,32,1.72,3.2-18.21-.81-74.61-.9-81.53Z" transform="translate(-9 -44.75)"/><path class="cls-13" d="M1310.62,1626.85c6.64.11,2.27,25.8,4,42.33,1.83,17.72,7.64,30.66,9.3,45.19,1.9,16.59.42,23.55-5.53,37.19-4.63,10.61-27.89,25.16-36.71,10-8.94-15.36-10.75-32.51-9.73-49,1-17.08,2.08-29.57,2.42-42.56.31-11.46-8.51-38.35.09-40l.42,4.46c3.09,6.17,32.56,10.44,36-1.43Z" transform="translate(-9 -44.75)"/><path class="cls-20" d="M1147.6,1643.84c2,8.29-.07,31-.07,31s-3.59,7.83-16.36,13l-5.73-31.58Z" transform="translate(-9 -44.75)"/><polygon points="1122.17 1643.12 1094.01 1633.87 1087.22 1608.88 1118.86 1624.9 1122.17 1643.12"/><path class="cls-13" d="M1101.89,1615l-.15-5.91c-3.82,1.85-12.24,32.66-23.62,53.79-10.4,19.29-31,30-37.68,38.44-9,11.23,8.44,25.7,36.35,19.74,13.85-3,34.82-11.82,40.51-21.17s7.61-26.52,12.26-33.39,15.7-14.78,18-22.61c1.29-4.29,2.32-13.83-.06-21.59-2.18-7.12-4.09-15.72-6.52-15l-.16,5.41c-1.87,3.81-8.61,8.25-22.71,9C1111.45,1622.08,1105,1621.05,1101.89,1615Z" transform="translate(-9 -44.75)"/><path class="cls-3" d="M1120.8,1088.23s-17.31,124.56-20.39,218.63.55,312.07.55,312.07-3.69,6.34,17.68,7.3,24.08-7.3,24.08-7.3S1173,1481.39,1175,1451.39s0-48.8,0-48.8l19.09-125.51s22.83,119,25.58,134,56.64,233,56.64,233,.87,5,20.88,0c16.71-4.18,16.71-8.35,16.71-8.35s2.24-160.16-1.7-190.41-13.87-53.45-15.26-73.23-.58-125.75-2.86-168.59c-2.55-48.11-3.69-58.67-25.18-117.9Z" transform="translate(-9 -44.75)"/><path class="cls-21" d="M1119.79,1080.71s-17.3,124.56-20.38,218.63.55,320.43.55,320.43-.5,7.39,20.88,8.35,21.74-10.35,21.74-10.35,29.41-143.9,31.46-173.9,0-48.8,0-48.8l19.09-125.51s22.83,119,25.58,134,56.64,237.14,56.64,237.14-2.91,7.91,17.54,5.18,22-6,22-6,.24-171.86-3.71-202.11-13.86-53.45-15.26-73.23-.57-125.75-2.85-168.59c-2.55-48.11-3.69-58.67-25.19-117.9Z" transform="translate(-9 -44.75)"/><path class="cls-4" d="M1194.13,1272.9l-15.88-78.62s-27.7-7.23-40.61-24.15c0,0,3.59,18.76,32.07,30.74l16.89,78.34-5.74,80.93Z" transform="translate(-9 -44.75)"/><path class="cls-19" d="M924,801.2c14.69-20.2,21.82-16.33,27.74,4.47a240.17,240.17,0,0,0,11.4,30.07,82.14,82.14,0,0,1,5.47-17c3-6,8.85-6.88,11.1-5.88,1.75.77-.5,7.2-.1,14.94.51,9.88,2.21,16.59.15,27-.77,3.88.29,13.8,2.28,17.31,11.18,19.8,51.36,75.3,51.36,75.3,7.87-4.65,33-18.55,66.72-35.19,29-14.31,31.94-16.46,52-17.32l1.08,56.27c-32.82,14.09-59.16,27.66-112.35,47.5-16.61,6.2-30.1,7.31-38.68-5.64-8.2-12.4-33.93-55.55-52-87.84-10.17-18.16-19.07-36.94-24-46.66C909,824.77,918.73,808.43,924,801.2Z" transform="translate(-9 -44.75)"/><path class="cls-22" d="M1217.88,894.31l45.36,5.8c-7.35,43.63,8.37,82,8.37,82l-14.93,67.95c.53,7.91,14.62,28.42,25.14,61-23.91,32-127.63,39-165.88,10.86,3-36.52,6.19-55.51,7.36-67l-.78-43.76c-47.93-39.34,8.34-97.28,29.63-116.33h19.95Z" transform="translate(-9 -44.75)"/><path class="cls-19" d="M1521.3,955.79a5.78,5.78,0,0,0-4.8-3.28,18.24,18.24,0,0,0-6,.65,183.68,183.68,0,0,1-36.2,4.21c-3.23.06-7-.28-8.74-3-2-3.34.46-7.45,2-11.05a22.41,22.41,0,0,0,1.41-12.89c-.47-2.57-2.86-7.55-6.07-3.72a100.46,100.46,0,0,1-15.32,15.65c-10.1,8.58-13.4,15.69-23.24,24-3.68,3.1-50.16,35.39-80,50.35-35.67-57.77-53.28-114.5-81.09-116.53-14.77,14.25-13.92,62.92,1.44,86.24,16.49,25,37.4,55.64,51.15,71.44,10.57,12.14,25.49,19.65,45.39,6.33,25.67-17.19,49.32-36.89,60.26-45.3,7.07-5.46,15-12.7,23.26-16.28,4.52-2,8.48-3.51,13.34-3.9,5.3-.43,10.6-.77,15.91-1a110.25,110.25,0,0,0,23.87-3.9c3.71-1,7.51-2.35,10.21-5.09a20.88,20.88,0,0,0,4.22-7.23c.9-2.31,2.53-4.13,3.49-6.44,1.33-3.24,1.44-7.21-.62-10a17.12,17.12,0,0,0,4.84-3.51A5.76,5.76,0,0,0,1521.3,955.79Z" transform="translate(-9 -44.75)"/><path class="cls-14" d="M1222.52,881.25c.2-7.33,24.68-27.6,36.91-46.1,11.32-17.13,24.56-61.56-10.66-81.56.9-28.65-14-37.4-36.44-45.23-17.79-6.21-53.94-5.43-80.34,8-9.76,5-16,11.17-20.53,20.33-3.72,7.46-2.16,14.47-.45,20.33,1.46,5,.22,5.33-2.63,9.29a14.38,14.38,0,0,0-2.81,10.46c1.09,8,8.77,10,9.68,14s-4.14,6.34-6.75,3.49c0,0,.85,6.89,9.52,6.42s16.38-12.23,16.38-12.23Z" transform="translate(-9 -44.75)"/><path class="cls-19" d="M1143.73,751.21c-11.1,4.81-21.65,21.78-21.49,69.28.13,40.26,12.47,50.44,18.71,53.43s18.4,1.48,30.24-.34l0,23.14s-12,17.88-6.24,33.16c49.49-8.66,57.33-34.48,57.33-34.48l.88-52.8a16.76,16.76,0,0,0,18.78-1c10.57-7.81,13.44-23.51,6-31.66s-17-8.81-25.57.3c0,0-18,2.48-41.74-12.42C1156.3,782.57,1146.12,766.64,1143.73,751.21Z" transform="translate(-9 -44.75)"/><path class="cls-20" d="M1142.68,806.82a5.35,5.35,0,1,1-5.54-5.37A5.43,5.43,0,0,1,1142.68,806.82Z" transform="translate(-9 -44.75)"/><path class="cls-20" d="M1185.28,809.2a5.74,5.74,0,1,1-6-5.76A5.83,5.83,0,0,1,1185.28,809.2Z" transform="translate(-9 -44.75)"/><path class="cls-23" d="M1178.43,840.66l-19.33,6c1.49,5.76,7,9.08,12.36,7.42S1179.92,846.42,1178.43,840.66Z" transform="translate(-9 -44.75)"/><path class="cls-24" d="M1167.52,854.44a9.58,9.58,0,0,1,9.57-9.5,9.44,9.44,0,0,1,1.6.17,10.76,10.76,0,0,1-7.23,9A9.35,9.35,0,0,1,1167.52,854.44Z" transform="translate(-9 -44.75)"/><path class="cls-20" d="M1128.54,796.88l13.76-5.47a7.11,7.11,0,0,0-9.54-4.22C1129,788.7,1127.28,792.88,1128.54,796.88Z" transform="translate(-9 -44.75)"/><path class="cls-20" d="M1222.26,803.69l-.14,22.36a10.5,10.5,0,0,1-10.76-10.82A11.56,11.56,0,0,1,1222.26,803.69Z" transform="translate(-9 -44.75)"/><polygon class="cls-24" points="1151.65 759.02 1147.34 791.72 1132.78 784.64 1151.65 759.02"/><path class="cls-24" d="M1171.19,873.58c12.46-1.46,38.18-8.62,42.36-19.07,0,0-1.45,6.59-9.22,13.26s-33.16,13.59-33.16,13.59Z" transform="translate(-9 -44.75)"/></g><g id="Window-2" data-name="Window"><path class="cls-2" d="M715.3,277.5c3.64-2.11,8.66-1.83,14.19,1.37h0l39.77,23c4.73,2.73,7.68,9.54,7.68,14.58v25.32c0,7.44,5.57,16.68,12.43,20.64l75,43.9V391.7c0-3.2,1.29-5.35,3.26-6.47,2.55-1.45,16.65-9.62,18.61-10.75,2.54-1.46,6.23-1.21,9.74.72l12.28,6.87,3,1.69,20,11.58a25.94,25.94,0,0,1,3.22,2.21c.52.43,1,.89,1.52,1.35,6.46,6.06,11.14,15.73,11.14,23.94v498.3c0,5-1.76,8.58-4.61,10.25s-15.81,9.14-18.68,10.79-6.84,1.42-11.22-1.12l-206-118.91c-8.73-5-15.87-17.39-15.87-27.5V301.22c0-6.39,2.26-10.88,5.92-13C700,286.34,712,279.43,715.3,277.5Z" transform="translate(-9 -44.75)"/><path class="cls-25" d="M868.14,385c2.53-1.15,5.94-.78,9.21,1l12.26,6.89,3,1.69,20,11.59a24.49,24.49,0,0,1,3.21,2.21c.52.43,1,.89,1.52,1.34a35.41,35.41,0,0,1,5.83,7.18l18.63-10.76a36,36,0,0,0-5.8-7.18c-.52-.46-1-.92-1.52-1.35a25.51,25.51,0,0,0-3.21-2.21l-20-11.58-3-1.69L896,375.22c-3.5-2-7.2-2.21-9.73-.75C884.39,375.56,871.67,382.91,868.14,385Z" transform="translate(-9 -44.75)"/><path class="cls-25" d="M696.67,288.25c3.62-2.12,8.64-1.83,14.18,1.38l39.76,23a14.59,14.59,0,0,1,5.49,6.17L774.72,308a14.71,14.71,0,0,0-5.45-6.18l-39.79-23c-5.51-3.19-10.53-3.47-14.18-1.38C712,279.44,700,286.33,696.67,288.25Z" transform="translate(-9 -44.75)"/><path class="cls-16" d="M756.1,318.78a18.86,18.86,0,0,1,2.21,8.41V352.5c0,4.93,2.44,10.64,6.11,15.09l18.66-10.76c-3.65-4.48-6.15-10.16-6.15-15.1v-25.3a18.66,18.66,0,0,0-2.21-8.41Z" transform="translate(-9 -44.75)"/><path class="cls-18" d="M710.86,289.63h0l39.77,23c4.73,2.73,7.68,9.54,7.68,14.58V352.5c0,7.44,5.57,16.68,12.43,20.64l81.2,47.52c6.86,4,12.43,1.15,12.43-6.28V391.7c0-7.31,6.75-9.16,13-5.74l12.27,6.87,3,1.69,20,11.59a25.27,25.27,0,0,1,3.22,2.21c.51.43,1,.89,1.52,1.35,6.46,6.05,11.13,15.72,11.13,23.93V931.9c0,10.13-7.11,14.24-15.87,9.16l-206-118.91c-8.73-5-15.87-17.39-15.87-27.5V301.22C690.77,288.46,699.81,283.24,710.86,289.63Z" transform="translate(-9 -44.75)"/><path class="cls-2" d="M701.92,290.73a14.5,14.5,0,0,1,7,2.21l39.78,23c3.45,2,5.76,7.43,5.76,11.26V352.5c0,8.79,6.3,19.31,14.34,23.95L850,424a15.54,15.54,0,0,0,7.77,2.32c6.23,0,10.42-4.78,10.42-11.9V391.7c0-2.43,1-3.57,3.21-3.57a8.84,8.84,0,0,1,4.11,1.19l12.24,6.85,2.93,1.67,20,11.58a20.8,20.8,0,0,1,2.74,1.88c.25.21.55.48.85.75l.53.48c5.76,5.41,9.85,14.1,9.85,21.07V931.9c0,2.26-.49,7.51-4.95,7.51a10.74,10.74,0,0,1-5.18-1.66l-206-118.92c-7.57-4.35-14-15.42-14-24.18V301.22c0-2.46.53-10.49,7.33-10.49m0-3.83c-6.6,0-11.15,5.26-11.15,14.32V794.65c0,10.11,7.14,22.48,15.87,27.5l206,118.91a14.35,14.35,0,0,0,7.1,2.18c5.2,0,8.77-4.16,8.77-11.34V433.6c0-8.21-4.67-17.88-11.13-23.93-.52-.46-1-.92-1.52-1.35a25.27,25.27,0,0,0-3.22-2.21l-20-11.59-3-1.69L877.35,386a12.61,12.61,0,0,0-6-1.66c-3.94,0-7,2.45-7,7.4v22.68c0,5.14-2.68,8.08-6.6,8.08a11.86,11.86,0,0,1-5.83-1.8l-81.2-47.52c-6.86-4-12.43-13.2-12.43-20.64V327.18c0-5-2.95-11.85-7.68-14.58l-39.77-23a18.16,18.16,0,0,0-8.94-2.73Z" transform="translate(-9 -44.75)"/><polygon class="cls-3" points="891.43 440.56 704.93 332.85 704.93 512.34 891.43 620.06 891.43 440.56"/><polygon class="cls-6" points="891.43 620.06 891.43 548.24 829.29 467.47 751.57 512.34 767.55 496.32 737.59 451.29 704.93 478.66 704.93 512.34 891.43 620.06"/><path class="cls-6" d="M775.54,454.2c-8.36-4.82-15.14-.91-15.14,8.75s6.78,21.39,15.14,26.22,15.14.91,15.14-8.74S783.91,459,775.54,454.2Z" transform="translate(-9 -44.75)"/><path class="cls-3" d="M733.07,589.4c-8.58-5-15.54-.94-15.54,9s7,22,15.52,26.92,15.54.93,15.55-9S741.66,594.36,733.07,589.4Z" transform="translate(-9 -44.75)"/><path class="cls-14" d="M848.86,653l-83.48-48.12c-2.75-1.58-4.94-.3-4.9,2.87l0,1.63a11.16,11.16,0,0,0,5,8.61l83.33,48.11c2.74,1.58,5,.3,5-2.87v-1.63A11,11,0,0,0,848.86,653Z" transform="translate(-9 -44.75)"/><path class="cls-3" d="M888.15,705.32,760.44,631.64c-2-1.16-3.62-.22-3.59,2.1v1.2a8.2,8.2,0,0,0,3.7,6.31l127.6,73.67c2,1.17,3.64.22,3.64-2.1v-1.19A8,8,0,0,0,888.15,705.32Z" transform="translate(-9 -44.75)"/><path class="cls-3" d="M896.08,896.73l-23.32-13.46a.94.94,0,0,1-.48-.83l0-19-5.5-3.17a1,1,0,0,1,0-1.67l17.63-9.73a1,1,0,0,1,1.29.35l17.64,30.1a1,1,0,0,1-.15,1.16,1,1,0,0,1-1.16.15L897.51,878v17.89a.93.93,0,0,1-.48.82.88.88,0,0,1-.47.13A.91.91,0,0,1,896.08,896.73Zm.95-21.19,2.88,1.66L884.57,851l-15.34,8.47,4.51,2.6a.94.94,0,0,1,.48.83l0,19,21.41,12.36V876.36a.94.94,0,0,1,.48-.82.91.91,0,0,1,.48-.13A.88.88,0,0,1,897,875.54Z" transform="translate(-9 -44.75)"/><path class="cls-3" d="M728.59,800,725.06,795c-2.49-3.48-10.7-15.82-11.74-28.46-.38-4.52.73-8.22,3-9.91a5,5,0,0,1,4.94-.6c3.58,1.31,6.88,5.91,8.45,11.37a5.65,5.65,0,0,1,2.85-2.69c1.85-.73,4-.27,6.06,1.32,4.45,3.44,7.61,11.51,7,18-1.08,12.42-9.86,15.07-12.52,15.59l-3.57.7h-.18A.94.94,0,0,1,728.59,800Zm4.65-33.45c-1.41.57-2.44,2.33-2.82,4.82a1,1,0,0,1-.94.81h0a1,1,0,0,1-.9-.64,1,1,0,0,1-.2-.6,1.13,1.13,0,0,1,0-.32c-1-5.92-4.33-11.43-7.85-12.73a3.09,3.09,0,0,0-3.12.33c-1.69,1.28-2.54,4.43-2.23,8.23,1,12.15,9,24.13,11.4,27.51l3.17,4.43,3-.58c2.33-.45,10-2.79,11-13.88.52-5.91-2.31-13.23-6.31-16.32a5.21,5.21,0,0,0-3.09-1.26A3.1,3.1,0,0,0,733.24,766.51Z" transform="translate(-9 -44.75)"/><path class="cls-3" d="M819.34,852.36l-20.6-11.89a1,1,0,0,1-.48-.83v-5.17c0-3.45,1.18-6.12,3.25-7.31,1.76-1,4-.86,6.19.43l4.58,2.64c4.68,2.7,8.49,9.94,8.49,16.13v5.17a.94.94,0,0,1-.48.83.91.91,0,0,1-.48.13A.88.88,0,0,1,819.34,852.36Zm-16.88-23.54c-1.45.84-2.29,2.9-2.29,5.65v4.62l18.69,10.79v-3.52c0-5.58-3.38-12.08-7.54-14.48l-4.57-2.64h0a5.58,5.58,0,0,0-2.7-.83A3.12,3.12,0,0,0,802.46,828.82Zm4.74-.4h0Z" transform="translate(-9 -44.75)"/><path class="cls-3" d="M809,823.84c-4.1-2.38-7.32-8.49-7.32-13.92,0-3,1-5.32,2.85-6.37a5.34,5.34,0,0,1,5.43.36c4.11,2.37,7.33,8.49,7.33,13.92,0,3-1,5.32-2.85,6.37a4.46,4.46,0,0,1-2.24.59A6.51,6.51,0,0,1,809,823.84Zm-3.52-18.63c-1.2.69-1.89,2.41-1.89,4.71,0,4.73,2.86,10.23,6.37,12.26a3.56,3.56,0,0,0,3.53.36c1.2-.69,1.89-2.41,1.89-4.71,0-4.73-2.86-10.23-6.38-12.26a4.69,4.69,0,0,0-2.23-.7A2.54,2.54,0,0,0,805.51,805.21Z" transform="translate(-9 -44.75)"/><path class="cls-3" d="M722.21,640.22l169.94,98.15c4.57,2.65,8.28,9.07,8.28,14.36v16.72c0,5.28-3.71,7.42-8.28,4.78l-170-98.09c-4.58-2.64-8.28-9.06-8.28-14.34l0-16.79C713.93,639.72,717.64,637.58,722.21,640.22Z" transform="translate(-9 -44.75)"/><path class="cls-26" d="M722.21,640.22l169.94,98.15c4.57,2.65,8.28,9.07,8.28,14.36v16.72c0,5.28-3.71,7.42-8.28,4.78l-170-98.09c-4.58-2.64-8.28-9.06-8.28-14.34l0-16.79C713.93,639.72,717.64,637.58,722.21,640.22Z" transform="translate(-9 -44.75)"/><path class="cls-3" d="M722.21,694.09l169.94,98.15c4.57,2.64,8.28,9.06,8.28,14.35v16.72c0,5.28-3.71,7.43-8.28,4.78L722.18,730c-4.58-2.65-8.28-9.07-8.28-14.35l0-16.79C713.93,693.58,717.64,691.44,722.21,694.09Z" transform="translate(-9 -44.75)"/><path class="cls-7" d="M722.21,694.09l169.94,98.15c4.57,2.64,8.28,9.06,8.28,14.35v16.72c0,5.28-3.71,7.43-8.28,4.78L722.18,730c-4.58-2.65-8.28-9.07-8.28-14.35l0-16.79C713.93,693.58,717.64,691.44,722.21,694.09Z" transform="translate(-9 -44.75)"/></g><g id="Window-3" data-name="Window"><path class="cls-2" d="M314.55,46.1c3.63-2.11,8.66-1.83,14.19,1.37h0l39.77,23c4.73,2.72,7.68,9.53,7.68,14.57v25.32c0,7.44,5.57,16.68,12.43,20.64l75,43.9V160.3c0-3.2,1.3-5.35,3.27-6.47,2.54-1.45,16.65-9.62,18.61-10.75,2.54-1.46,6.22-1.2,9.74.73l12.27,6.86,3,1.7,20,11.58a26.35,26.35,0,0,1,3.22,2.21c.51.43,1,.89,1.52,1.35,6.45,6.05,11.13,15.73,11.13,23.93v498.3c0,5-1.76,8.59-4.6,10.26s-15.81,9.13-18.68,10.79-6.84,1.41-11.22-1.13l-206-118.91c-8.72-5-15.87-17.39-15.87-27.49V69.83c0-6.4,2.27-10.89,5.92-13C299.27,55,311.22,48,314.55,46.1Z" transform="translate(-9 -44.75)"/><path class="cls-25" d="M467.39,153.55c2.52-1.15,5.94-.77,9.21,1l12.26,6.89,2.95,1.7,20,11.58a25.51,25.51,0,0,1,3.21,2.21c.52.43,1,.89,1.52,1.35a36,36,0,0,1,5.83,7.17L541,174.69a36,36,0,0,0-5.8-7.18c-.52-.45-1-.91-1.52-1.34a25.27,25.27,0,0,0-3.22-2.21l-20-11.59-3-1.69-12.28-6.86c-3.5-1.95-7.21-2.21-9.73-.75Z" transform="translate(-9 -44.75)"/><path class="cls-25" d="M295.92,56.86c3.62-2.13,8.64-1.84,14.18,1.38l39.76,23a14.57,14.57,0,0,1,5.48,6.17L374,76.62a14.75,14.75,0,0,0-5.45-6.17l-39.79-23c-5.51-3.18-10.54-3.47-14.18-1.38C311.22,48.05,299.28,54.93,295.92,56.86Z" transform="translate(-9 -44.75)"/><path class="cls-16" d="M355.34,87.38a18.73,18.73,0,0,1,2.21,8.41V121.1c0,4.94,2.44,10.65,6.12,15.1l18.65-10.77c-3.64-4.47-6.14-10.16-6.14-15.09V85A18.73,18.73,0,0,0,374,76.62Z" transform="translate(-9 -44.75)"/><path class="cls-18" d="M310.1,58.23h0l39.78,23c4.73,2.72,7.68,9.54,7.68,14.58v25.32c0,7.43,5.56,16.67,12.42,20.63l81.2,47.52c6.86,4,12.43,1.15,12.43-6.28V160.3c0-7.31,6.76-9.15,13-5.73l12.27,6.86,2.95,1.7,20,11.58a25.51,25.51,0,0,1,3.21,2.21c.52.43,1,.89,1.52,1.35,6.46,6,11.14,15.73,11.14,23.94v498.3c0,10.13-7.12,14.23-15.87,9.15l-206-118.91c-8.72-5-15.87-17.39-15.87-27.49V69.83C290,57.06,299.05,51.85,310.1,58.23Z" transform="translate(-9 -44.75)"/><path class="cls-2" d="M301.17,59.33a14.52,14.52,0,0,1,7,2.22l39.77,23c3.45,2,5.77,7.43,5.77,11.27v25.32c0,8.78,6.3,19.3,14.34,24l81.18,47.51a15.61,15.61,0,0,0,7.77,2.32c6.23,0,10.42-4.79,10.42-11.91V160.3c0-2.43,1-3.57,3.2-3.57a9,9,0,0,1,4.12,1.19L487,164.77l2.92,1.68,20,11.57a22.47,22.47,0,0,1,2.73,1.88c.26.21.55.48.84.74l.55.49c5.76,5.41,9.84,14.11,9.84,21.08v498.3c0,2.25-.48,7.5-4.95,7.5a10.68,10.68,0,0,1-5.17-1.66l-206-118.91c-7.57-4.36-14-15.43-14-24.18V69.83c0-2.47.53-10.5,7.33-10.5m0-3.83c-6.6,0-11.16,5.26-11.16,14.33V563.26c0,10.1,7.15,22.47,15.87,27.49l206,118.91a14.35,14.35,0,0,0,7.09,2.18c5.2,0,8.78-4.15,8.78-11.33V202.21c0-8.21-4.68-17.89-11.14-23.94-.51-.46-1-.92-1.52-1.35a25.51,25.51,0,0,0-3.21-2.21l-20-11.58-2.95-1.7-12.27-6.86a12.5,12.5,0,0,0-6-1.66c-3.93,0-7,2.44-7,7.39V183c0,5.15-2.67,8.08-6.59,8.08a11.89,11.89,0,0,1-5.84-1.8L370,141.74c-6.86-4-12.42-13.2-12.42-20.63V95.79c0-5-2.95-11.86-7.68-14.58l-39.78-23a18.1,18.1,0,0,0-8.93-2.73Z" transform="translate(-9 -44.75)"/><polygon class="cls-3" points="490.68 209.17 304.18 101.45 304.18 317.22 490.68 424.94 490.68 209.17"/><polygon class="cls-6" points="490.68 424.94 490.68 353.12 426.61 243.52 350.81 308.24 366.36 281.32 342.5 243.52 304.18 274.83 304.18 317.22 490.68 424.94"/><path class="cls-6" d="M374.79,218.84c-8.36-4.83-15.14-.92-15.14,8.74s6.78,21.39,15.14,26.22,15.14.91,15.14-8.74S383.15,223.66,374.79,218.84Z" transform="translate(-9 -44.75)"/><path class="cls-3" d="M495.33,665.34,472,651.88a1,1,0,0,1-.48-.83l0-19-5.49-3.17a1,1,0,0,1,0-1.67l17.64-9.73a.93.93,0,0,1,1.28.36L502.63,648a1,1,0,0,1-.14,1.16,1,1,0,0,1-1.16.15l-4.57-2.64v17.89a1,1,0,0,1-.48.83,1,1,0,0,1-.48.13A1,1,0,0,1,495.33,665.34Zm.95-21.2,2.88,1.66-15.34-26.17-15.34,8.46,4.51,2.6a1,1,0,0,1,.47.83l0,19,21.41,12.35V645a1,1,0,0,1,.48-.83.88.88,0,0,1,.47-.13A.91.91,0,0,1,496.28,644.14Z" transform="translate(-9 -44.75)"/><path class="cls-3" d="M408,614.77l-3.53-4.94c-2.49-3.47-10.7-15.8-11.74-28.46-.38-4.51.74-8.21,3-9.91a5.06,5.06,0,0,1,4.94-.6c3.58,1.32,6.88,5.92,8.44,11.38a5.77,5.77,0,0,1,2.86-2.7c1.84-.74,4-.27,6.06,1.32,4.45,3.45,7.61,11.52,7,18-1.08,12.4-9.85,15.07-12.52,15.6l-3.57.69a.58.58,0,0,1-.19,0A.93.93,0,0,1,408,614.77Zm4.65-33.45c-1.41.57-2.44,2.32-2.82,4.82a1,1,0,0,1-.94.81h0a1,1,0,0,1-.89-.66.91.91,0,0,1-.2-.58,1.13,1.13,0,0,1,.05-.32c-1-5.92-4.33-11.43-7.85-12.73a3.07,3.07,0,0,0-3.12.33c-1.69,1.27-2.54,4.43-2.23,8.22,1,12.18,9,24.13,11.4,27.51l3.16,4.43,3-.57c2.34-.46,10-2.82,11-13.88.51-5.91-2.33-13.23-6.32-16.32a5.23,5.23,0,0,0-3.09-1.27A2.9,2.9,0,0,0,412.63,581.32Z" transform="translate(-9 -44.75)"/><path class="cls-3" d="M340.42,575.86,319.81,564a.94.94,0,0,1-.47-.82V558c0-3.45,1.18-6.11,3.24-7.3,1.77-1,4-.87,6.2.42h0l4.58,2.64c4.68,2.71,8.49,9.94,8.49,16.14V575a.94.94,0,0,1-.48.82.91.91,0,0,1-.48.13A.88.88,0,0,1,340.42,575.86Zm-12.59-23.11c-1.65-1-3.12-1.1-4.29-.42-1.46.84-2.29,2.9-2.29,5.64v4.62l18.69,10.79v-3.51c0-5.59-3.38-12.08-7.54-14.48l-4.57-2.64Z" transform="translate(-9 -44.75)"/><path class="cls-3" d="M330.11,547.34c-4.1-2.38-7.32-8.48-7.32-13.92,0-3,1-5.32,2.85-6.37a5.32,5.32,0,0,1,5.43.37c4.11,2.37,7.33,8.48,7.33,13.91,0,3-1,5.32-2.85,6.37a4.43,4.43,0,0,1-2.23.59A6.51,6.51,0,0,1,330.11,547.34Zm-3.52-18.63c-1.2.7-1.89,2.41-1.89,4.71,0,4.73,2.86,10.23,6.37,12.26a3.57,3.57,0,0,0,3.53.36c1.2-.69,1.89-2.41,1.89-4.71,0-4.73-2.86-10.23-6.38-12.26a4.69,4.69,0,0,0-2.23-.69A2.53,2.53,0,0,0,326.59,528.71Z" transform="translate(-9 -44.75)"/><path class="cls-14" d="M453.47,461.74,330.14,390.53c-4.58-2.64-8.29-.76-8.29,4.19s3.71,11.12,8.29,13.76l123.33,71.21c4.57,2.64,8.28.76,8.28-4.19S458,464.38,453.47,461.74Z" transform="translate(-9 -44.75)"/><path class="cls-14" d="M491.43,518.77l-162.71-94c-4.57-2.64-8.28-.77-8.28,4.19s3.71,11.12,8.28,13.76l162.71,94c4.58,2.64,8.29.77,8.29-4.19S496,521.42,491.43,518.77Z" transform="translate(-9 -44.75)"/><path class="cls-3" d="M332.34,466.23c-8.59-5-15.55-.93-15.55,9s6.95,22,15.53,26.91,15.53.93,15.54-9S340.92,471.19,332.34,466.23Z" transform="translate(-9 -44.75)"/><path class="cls-14" d="M448.13,534l-83.49-48.12c-2.74-1.58-4.94-.29-4.9,2.88l0,1.62a11.18,11.18,0,0,0,5,8.61l83.33,48.11c2.75,1.59,5,.3,5-2.87v-1.62A11,11,0,0,0,448.13,534Z" transform="translate(-9 -44.75)"/><path class="cls-3" d="M487.42,582.15,359.71,508.47c-2-1.16-3.63-.21-3.6,2.11l0,1.19a8.18,8.18,0,0,0,3.69,6.31l127.6,73.68c2,1.16,3.64.22,3.64-2.1v-1.2A8.06,8.06,0,0,0,487.42,582.15Z" transform="translate(-9 -44.75)"/></g><g id="Window-4" data-name="Window"><path class="cls-2" d="M715.3,933c3.63-2.12,8.65-1.83,14.19,1.37h0l39.77,23c4.73,2.72,7.68,9.54,7.68,14.58v25.32c0,7.43,5.57,16.67,12.43,20.64l75,43.9v-14.58c0-3.2,1.29-5.35,3.27-6.48,2.54-1.44,16.65-9.62,18.61-10.74,2.54-1.46,6.22-1.21,9.74.72l12.27,6.87,3,1.69,20,11.58a26.35,26.35,0,0,1,3.22,2.21c.51.43,1,.89,1.52,1.35,6.45,6.06,11.13,15.73,11.13,23.94v498.3c0,5-1.76,8.58-4.6,10.25s-15.81,9.13-18.68,10.79-6.85,1.42-11.22-1.12l-206-118.91c-8.72-5-15.87-17.4-15.87-27.5V956.71c0-6.39,2.27-10.88,5.92-13C700,941.83,712,934.92,715.3,933Z" transform="translate(-9 -44.75)"/><path class="cls-25" d="M868.14,1040.43c2.52-1.14,5.94-.77,9.21,1l12.26,6.89,2.95,1.69,20,11.58a25.51,25.51,0,0,1,3.21,2.21c.52.43,1,.89,1.52,1.35a36.1,36.1,0,0,1,5.83,7.18l18.62-10.77a35.52,35.52,0,0,0-5.79-7.17c-.52-.46-1-.92-1.52-1.35a26.35,26.35,0,0,0-3.22-2.21l-20-11.58-3-1.7L896,1030.7c-3.5-2-7.21-2.21-9.73-.74C884.38,1031.05,871.67,1038.4,868.14,1040.43Z" transform="translate(-9 -44.75)"/><path class="cls-25" d="M696.67,943.74c3.62-2.12,8.64-1.84,14.18,1.38l39.76,23a14.51,14.51,0,0,1,5.48,6.17l18.63-10.77a14.75,14.75,0,0,0-5.45-6.17l-39.79-23c-5.52-3.19-10.54-3.48-14.18-1.38C712,934.93,700,941.82,696.67,943.74Z" transform="translate(-9 -44.75)"/><path class="cls-16" d="M756.09,974.27a18.66,18.66,0,0,1,2.21,8.41V1008c0,4.94,2.44,10.65,6.12,15.1l18.65-10.76c-3.64-4.48-6.14-10.16-6.14-15.1V971.91a18.73,18.73,0,0,0-2.21-8.41Z" transform="translate(-9 -44.75)"/><path class="cls-18" d="M710.85,945.12h0l39.78,23c4.73,2.73,7.68,9.54,7.68,14.58V1008c0,7.43,5.56,16.68,12.42,20.64l81.2,47.52c6.86,4,12.43,1.15,12.43-6.29v-22.67c0-7.32,6.76-9.16,13-5.74l12.27,6.87,3,1.69,20,11.58a26.61,26.61,0,0,1,3.21,2.21c.52.43,1,.89,1.52,1.35,6.46,6.06,11.14,15.73,11.14,23.94v498.3c0,10.13-7.12,14.24-15.87,9.16l-206-118.91c-8.72-5-15.87-17.4-15.87-27.5V956.71C690.76,944,699.8,938.73,710.85,945.12Z" transform="translate(-9 -44.75)"/><path class="cls-2" d="M701.92,946.22a14.53,14.53,0,0,1,7,2.21l39.77,23c3.45,2,5.77,7.43,5.77,11.27V1008c0,8.79,6.3,19.31,14.34,24L850,1079.45a15.61,15.61,0,0,0,7.77,2.32c6.23,0,10.42-4.79,10.42-11.91v-22.67c0-2.44,1-3.57,3.2-3.57a8.85,8.85,0,0,1,4.12,1.19l12.24,6.85,2.92,1.67,20,11.58a21.31,21.31,0,0,1,2.73,1.87l.85.75.53.48c5.77,5.42,9.85,14.11,9.85,21.08v498.3c0,2.26-.48,7.51-4.95,7.51a10.79,10.79,0,0,1-5.17-1.66l-206-118.92c-7.57-4.35-14-15.43-14-24.18V956.71c0-2.46.53-10.49,7.33-10.49m0-3.83c-6.6,0-11.16,5.26-11.16,14.32v493.43c0,10.1,7.15,22.47,15.87,27.5l206,118.9a14.35,14.35,0,0,0,7.09,2.18c5.2,0,8.78-4.15,8.78-11.33v-498.3c0-8.21-4.68-17.88-11.14-23.94-.51-.46-1-.92-1.52-1.35a26.61,26.61,0,0,0-3.21-2.21l-20-11.58-3-1.69-12.27-6.87a12.61,12.61,0,0,0-6-1.66c-3.93,0-7,2.45-7,7.4v22.67c0,5.15-2.67,8.08-6.59,8.08a11.87,11.87,0,0,1-5.84-1.79l-81.2-47.52c-6.86-4-12.42-13.21-12.42-20.64V982.67c0-5-2.95-11.85-7.68-14.58l-39.78-23a18.13,18.13,0,0,0-8.93-2.73Z" transform="translate(-9 -44.75)"/><path class="cls-3" d="M896.07,1552.22l-23.31-13.46a.94.94,0,0,1-.48-.83l0-19-5.49-3.18a1,1,0,0,1,0-1.66l17.64-9.73a1,1,0,0,1,1.29.35l17.63,30.1a1,1,0,0,1-.14,1.16,1,1,0,0,1-1.16.15l-4.57-2.64v17.89a.94.94,0,0,1-.48.82.91.91,0,0,1-.48.13A.94.94,0,0,1,896.07,1552.22Zm1-21.19,2.87,1.66-15.33-26.18L869.23,1515l4.5,2.6a.94.94,0,0,1,.48.82l0,19,21.41,12.36v-17.89a.95.95,0,0,1,.95-.95A.91.91,0,0,1,897,1531Z" transform="translate(-9 -44.75)"/><path class="cls-3" d="M808.72,1501.65l-3.52-4.93c-2.49-3.48-10.7-15.82-11.74-28.47-.38-4.51.74-8.21,3-9.9a5,5,0,0,1,4.94-.6c3.57,1.31,6.88,5.91,8.44,11.37a5.71,5.71,0,0,1,2.86-2.69c1.84-.74,4-.27,6.06,1.32,4.45,3.44,7.61,11.52,7,18-1.08,12.41-9.86,15.07-12.52,15.59l-3.58.69a.52.52,0,0,1-.18,0A1,1,0,0,1,808.72,1501.65Zm4.66-33.45c-1.41.57-2.44,2.33-2.82,4.82a1,1,0,0,1-.95.81h0a1,1,0,0,1-.89-.65.92.92,0,0,1-.2-.59,1.06,1.06,0,0,1,0-.31c-1-5.93-4.33-11.44-7.85-12.74a3.09,3.09,0,0,0-3.12.33c-1.69,1.28-2.54,4.43-2.23,8.23,1,12.15,9,24.13,11.4,27.51l3.16,4.43,3-.58c2.33-.45,10-2.8,11-13.88.52-5.91-2.32-13.23-6.31-16.31a5.23,5.23,0,0,0-3.09-1.27A2.89,2.89,0,0,0,813.38,1468.2Z" transform="translate(-9 -44.75)"/><path class="cls-3" d="M741.16,1462.75l-20.59-11.89a1,1,0,0,1-.48-.83v-5.17c0-3.45,1.18-6.12,3.25-7.31,1.75-1,3.95-.87,6.19.43l4.58,2.64c4.68,2.7,8.49,9.94,8.49,16.13v5.17a1,1,0,0,1-.48.83.91.91,0,0,1-.48.13A.94.94,0,0,1,741.16,1462.75Zm-16.87-23.54c-1.45.84-2.29,2.9-2.29,5.65v4.62l18.69,10.78v-3.51c0-5.58-3.39-12.08-7.54-14.48l-4.57-2.64h0a5.58,5.58,0,0,0-2.7-.83A3.09,3.09,0,0,0,724.29,1439.21Zm4.74-.41h0Z" transform="translate(-9 -44.75)"/><path class="cls-3" d="M730.86,1434.22c-4.11-2.37-7.32-8.48-7.32-13.91,0-3,1-5.32,2.84-6.37a5.33,5.33,0,0,1,5.44.36c4.11,2.37,7.33,8.48,7.33,13.92,0,3-1,5.32-2.85,6.37a4.45,4.45,0,0,1-2.24.58A6.38,6.38,0,0,1,730.86,1434.22Zm-3.52-18.62c-1.2.69-1.89,2.41-1.89,4.71,0,4.73,2.86,10.23,6.37,12.26a3.55,3.55,0,0,0,3.52.36c1.21-.7,1.89-2.41,1.89-4.71,0-4.74-2.85-10.24-6.37-12.26a4.62,4.62,0,0,0-2.24-.7A2.53,2.53,0,0,0,727.34,1415.6Z" transform="translate(-9 -44.75)"/><path class="cls-3" d="M848.48,1196.09l-75.31-43.47c-2.79-1.62-5.06-.47-5.06,2.56a10.88,10.88,0,0,0,5.06,8.4l75.31,43.47c2.79,1.62,5.06.47,5.06-2.56A10.88,10.88,0,0,0,848.48,1196.09Z" transform="translate(-9 -44.75)"/><path class="cls-3" d="M860.5,1225.3l-99.35-57.39c-2.79-1.61-5.06-.47-5.06,2.56a10.85,10.85,0,0,0,5.06,8.4l99.35,57.39c2.79,1.61,5.06.46,5.06-2.56A10.85,10.85,0,0,0,860.5,1225.3Z" transform="translate(-9 -44.75)"/><path class="cls-14" d="M802.69,1231.32l-83.48-48.12c-2.75-1.58-4.94-.3-4.9,2.87l0,1.63a11.16,11.16,0,0,0,5,8.61l83.33,48.11c2.74,1.58,5,.3,5-2.87v-1.63A11,11,0,0,0,802.69,1231.32Z" transform="translate(-9 -44.75)"/><path class="cls-2" d="M896.32,1317.77,718.07,1214.86c-2.29-1.32-4.14-.25-4.14,2.39v17.35a9.14,9.14,0,0,0,4.14,7.17l178.22,102.94c2.29,1.32,4.15.25,4.15-2.4l0-17.36A9.14,9.14,0,0,0,896.32,1317.77Z" transform="translate(-9 -44.75)"/><path class="cls-2" d="M896.32,1389.37,718.07,1286.45c-2.29-1.32-4.14-.25-4.14,2.39v17.35a9.16,9.16,0,0,0,4.14,7.18L896.29,1416.3c2.29,1.32,4.15.25,4.15-2.39l0-17.37A9.14,9.14,0,0,0,896.32,1389.37Z" transform="translate(-9 -44.75)"/><path class="cls-14" d="M802.69,1307.13,719.21,1259c-2.75-1.58-4.94-.29-4.9,2.88l0,1.62a11.15,11.15,0,0,0,5,8.61l83.33,48.11c2.74,1.59,5,.3,5-2.87v-1.62A11,11,0,0,0,802.69,1307.13Z" transform="translate(-9 -44.75)"/><path class="cls-3" d="M895.46,1442.88l-67.75-39.15c-2.75-1.59-5-.3-5,2.87V1431a11,11,0,0,0,5,8.61l67.75,39.15c2.75,1.58,5,.3,5-2.87v-24.42A11,11,0,0,0,895.46,1442.88Z" transform="translate(-9 -44.75)"/><path class="cls-3" d="M786.68,1380.06l-67.75-39.15c-2.75-1.59-5-.31-5,2.86v24.42a11,11,0,0,0,5,8.62L786.68,1416c2.75,1.59,5,.31,5-2.86v-24.42A11,11,0,0,0,786.68,1380.06Z" transform="translate(-9 -44.75)"/></g><g id="Window-5" data-name="Window"><path class="cls-2" d="M221.27,647.55c3.64-2.11,8.66-1.83,14.19,1.37h0l39.78,23c4.73,2.73,7.68,9.54,7.68,14.58v25.32c0,7.44,5.57,16.68,12.43,20.64l75,43.9V761.75c0-3.2,1.29-5.35,3.27-6.47,2.54-1.45,16.64-9.62,18.6-10.75,2.55-1.46,6.23-1.2,9.75.73l12.27,6.86,3,1.69,20,11.59a24.49,24.49,0,0,1,3.21,2.21c.52.43,1,.89,1.52,1.35,6.46,6,11.14,15.72,11.14,23.93v498.3c0,5-1.76,8.59-4.6,10.26s-15.81,9.13-18.68,10.79-6.85,1.41-11.22-1.13l-206-118.91c-8.72-5-15.87-17.39-15.87-27.49V671.28c0-6.4,2.27-10.89,5.92-13C206,656.4,218,649.48,221.27,647.55Z" transform="translate(-9 -44.75)"/><path class="cls-25" d="M374.12,755c2.52-1.15,5.94-.78,9.21,1l12.25,6.89,3,1.7,20,11.58a25.6,25.6,0,0,1,3.22,2.21c.52.43,1,.89,1.52,1.35a36,36,0,0,1,5.83,7.17l18.62-10.76A35.58,35.58,0,0,0,442,769c-.52-.46-1-.91-1.53-1.34a24.49,24.49,0,0,0-3.21-2.21l-20-11.59-3-1.69L402,745.27c-3.51-1.95-7.21-2.21-9.73-.75Z" transform="translate(-9 -44.75)"/><path class="cls-25" d="M202.65,658.31c3.61-2.13,8.64-1.84,14.18,1.37l39.76,23a14.57,14.57,0,0,1,5.48,6.17l18.63-10.76a14.75,14.75,0,0,0-5.45-6.17l-39.8-23c-5.51-3.18-10.53-3.47-14.17-1.38C218,649.5,206,656.38,202.65,658.31Z" transform="translate(-9 -44.75)"/><path class="cls-16" d="M262.07,688.83a18.73,18.73,0,0,1,2.21,8.41v25.31c0,4.94,2.44,10.65,6.12,15.1l18.65-10.77c-3.64-4.47-6.14-10.16-6.14-15.09V686.48a18.86,18.86,0,0,0-2.21-8.41Z" transform="translate(-9 -44.75)"/><path class="cls-18" d="M216.83,659.68h0l39.77,23c4.74,2.72,7.68,9.53,7.68,14.58v25.32c0,7.43,5.57,16.67,12.43,20.63l81.2,47.52c6.86,4,12.43,1.15,12.43-6.28V761.75c0-7.31,6.76-9.15,13-5.73l12.27,6.86,2.95,1.7,20,11.58a25.51,25.51,0,0,1,3.21,2.21c.52.43,1,.89,1.52,1.35,6.46,6,11.14,15.73,11.14,23.94V1302c0,10.14-7.12,14.24-15.87,9.16l-206-118.91c-8.72-5-15.87-17.39-15.87-27.49V671.27C196.74,658.51,205.78,653.29,216.83,659.68Z" transform="translate(-9 -44.75)"/><path class="cls-2" d="M207.9,660.78a14.55,14.55,0,0,1,7,2.22l39.77,23c3.45,2,5.77,7.43,5.77,11.27v25.32c0,8.78,6.3,19.3,14.34,24L356,794a15.61,15.61,0,0,0,7.77,2.32c6.23,0,10.42-4.79,10.42-11.91V761.75c0-2.43,1-3.57,3.2-3.57a9,9,0,0,1,4.12,1.19l12.24,6.85,2.92,1.68,20,11.57a22.47,22.47,0,0,1,2.73,1.88l.86.76.52.47c5.77,5.41,9.85,14.11,9.85,21.08V1302c0,2.26-.48,7.51-4.95,7.51a10.68,10.68,0,0,1-5.17-1.66l-206-118.91c-7.57-4.36-14-15.43-14-24.18V671.27c0-2.46.53-10.49,7.33-10.49m0-3.83c-6.6,0-11.16,5.26-11.16,14.32v493.44c0,10.1,7.15,22.47,15.87,27.49l206,118.91a14.29,14.29,0,0,0,7.09,2.18c5.2,0,8.78-4.15,8.78-11.34V803.66c0-8.21-4.68-17.89-11.14-23.94-.51-.46-1-.92-1.52-1.35a25.51,25.51,0,0,0-3.21-2.21l-20-11.58-2.95-1.7L383.33,756a12.53,12.53,0,0,0-6-1.66c-3.93,0-7,2.44-7,7.39v22.68c0,5.15-2.67,8.08-6.59,8.08a11.89,11.89,0,0,1-5.84-1.8l-81.2-47.52c-6.86-4-12.43-13.2-12.43-20.63V697.24c0-5-2.94-11.86-7.68-14.58l-39.77-23A18.13,18.13,0,0,0,207.9,657Z" transform="translate(-9 -44.75)"/><path class="cls-3" d="M402.05,1266.79l-23.31-13.47a.93.93,0,0,1-.48-.82l0-19-5.5-3.17a1,1,0,0,1,0-1.66l17.64-9.74a.93.93,0,0,1,1.28.35l17.64,30.1a1,1,0,0,1-.14,1.16,1,1,0,0,1-1.16.15l-4.57-2.63V1266a1,1,0,0,1-.48.83,1,1,0,0,1-1,0Zm1-21.2,2.87,1.66-15.33-26.18-15.34,8.47,4.5,2.6a1,1,0,0,1,.48.83l0,19,21.4,12.36v-17.88a1,1,0,0,1,.48-.83,1,1,0,0,1,1,0Z" transform="translate(-9 -44.75)"/><path class="cls-3" d="M314.7,1216.22l-3.52-4.94c-2.49-3.47-10.7-15.8-11.74-28.46-.38-4.51.73-8.22,3-9.91a5,5,0,0,1,4.94-.6c3.58,1.32,6.88,5.92,8.44,11.37a5.75,5.75,0,0,1,2.86-2.69c1.85-.73,4-.27,6.05,1.32,4.46,3.45,7.62,11.52,7.06,18-1.08,12.42-9.86,15.08-12.52,15.59l-3.58.7-.18,0A1,1,0,0,1,314.7,1216.22Zm4.66-33.45c-1.42.56-2.45,2.32-2.82,4.81a1,1,0,0,1-1,.82h0a1.46,1.46,0,0,1-1.1-1.24,1.07,1.07,0,0,1,.06-.32c-1-5.92-4.33-11.44-7.85-12.73a3.07,3.07,0,0,0-3.12.33c-1.69,1.27-2.54,4.42-2.23,8.22,1,12.17,9,24.13,11.4,27.51l3.16,4.43,3-.57c2.33-.46,10-2.8,11-13.89.51-5.9-2.32-13.22-6.32-16.31a5.18,5.18,0,0,0-3.08-1.27A2.9,2.9,0,0,0,319.36,1182.77Z" transform="translate(-9 -44.75)"/><path class="cls-3" d="M247.14,1177.32l-20.59-11.9a.94.94,0,0,1-.48-.82v-5.17c0-3.46,1.18-6.12,3.24-7.31,1.76-1,4-.87,6.2.42l4.58,2.64c4.68,2.7,8.49,9.94,8.49,16.13v5.18a1,1,0,0,1-.48.83,1,1,0,0,1-1,0Zm-16.87-23.55c-1.45.84-2.29,2.9-2.29,5.66V1164l18.68,10.79v-3.52c0-5.58-3.38-12.07-7.53-14.47l-4.58-2.64h0a5.43,5.43,0,0,0-2.69-.84A3.19,3.19,0,0,0,230.27,1153.77Zm4.74-.4h0Z" transform="translate(-9 -44.75)"/><path class="cls-3" d="M236.84,1148.79c-4.11-2.38-7.32-8.49-7.32-13.92,0-3,1-5.32,2.84-6.36a5.31,5.31,0,0,1,5.44.36c4.11,2.37,7.32,8.48,7.32,13.91,0,3-1,5.33-2.84,6.37a4.46,4.46,0,0,1-2.24.59A6.48,6.48,0,0,1,236.84,1148.79Zm-3.52-18.63c-1.2.69-1.89,2.41-1.89,4.71,0,4.73,2.86,10.23,6.37,12.26a3.52,3.52,0,0,0,3.52.36c1.2-.69,1.89-2.41,1.89-4.71,0-4.73-2.86-10.23-6.37-12.26a4.73,4.73,0,0,0-2.24-.69A2.5,2.5,0,0,0,233.32,1130.16Z" transform="translate(-9 -44.75)"/><path class="cls-3" d="M354.46,910.66l-75.31-43.48c-2.79-1.61-5.06-.46-5.06,2.56a10.85,10.85,0,0,0,5.06,8.4l75.31,43.48c2.79,1.61,5.06.47,5.06-2.56A10.85,10.85,0,0,0,354.46,910.66Z" transform="translate(-9 -44.75)"/><path class="cls-3" d="M366.48,939.86l-99.35-57.38c-2.79-1.62-5.06-.47-5.06,2.55a10.88,10.88,0,0,0,5.06,8.41l99.35,57.38c2.79,1.61,5.06.47,5.06-2.56A10.86,10.86,0,0,0,366.48,939.86Z" transform="translate(-9 -44.75)"/><path class="cls-14" d="M317.11,954.32,233.62,906.2c-2.74-1.58-4.94-.3-4.9,2.87l0,1.63a11.18,11.18,0,0,0,5,8.61l83.33,48.11c2.75,1.58,5,.3,5-2.87v-1.63A11,11,0,0,0,317.11,954.32Z" transform="translate(-9 -44.75)"/><path class="cls-2" d="M402.3,1032.34,224.05,929.42c-2.29-1.32-4.14-.25-4.14,2.39v17.35a9.16,9.16,0,0,0,4.14,7.18l178.22,102.93c2.29,1.32,4.14.25,4.15-2.39l0-17.37A9.14,9.14,0,0,0,402.3,1032.34Z" transform="translate(-9 -44.75)"/><path class="cls-2" d="M402.3,1103.93,224.05,1001c-2.29-1.32-4.14-.25-4.14,2.39v17.35a9.14,9.14,0,0,0,4.14,7.17l178.22,102.94c2.29,1.32,4.14.25,4.15-2.39l0-17.37A9.16,9.16,0,0,0,402.3,1103.93Z" transform="translate(-9 -44.75)"/><path class="cls-14" d="M317.11,1025.91,233.62,977.8c-2.74-1.59-4.94-.3-4.9,2.87l0,1.63a11.19,11.19,0,0,0,5,8.61l83.33,48.1c2.75,1.59,5,.3,5-2.87v-1.62A11,11,0,0,0,317.11,1025.91Z" transform="translate(-9 -44.75)"/><path class="cls-3" d="M401.44,1157.44l-67.75-39.15c-2.75-1.58-5-.3-5,2.87v24.42a11,11,0,0,0,5,8.62l67.75,39.14c2.75,1.59,5,.31,5-2.86v-24.42A11,11,0,0,0,401.44,1157.44Z" transform="translate(-9 -44.75)"/><path class="cls-3" d="M292.66,1094.62l-67.75-39.15c-2.75-1.59-5-.3-5,2.87v24.42a11,11,0,0,0,5,8.61l67.75,39.15c2.74,1.59,5,.3,5-2.87v-24.42A11,11,0,0,0,292.66,1094.62Z" transform="translate(-9 -44.75)"/><path class="cls-13" d="M278.19,796.12a13.78,13.78,0,0,1,3.31,2.71,21.19,21.19,0,0,1,2.6,3.56,19.85,19.85,0,0,1,1.71,3.76,11.15,11.15,0,0,1,.64,3.27.74.74,0,0,1-.18.56.31.31,0,0,1-.41,0l-3.7-2.13a2.09,2.09,0,0,1-.63-.54,5.51,5.51,0,0,1-.5-.81l-.26-.59a7,7,0,0,0-.52-.92,7.12,7.12,0,0,0-.85-1,5.49,5.49,0,0,0-1.23-1,6.42,6.42,0,0,0-1-.49,2.12,2.12,0,0,0-.87-.16.82.82,0,0,0-.63.31,1.54,1.54,0,0,0-.24.94,3,3,0,0,0,.27,1.24,5.63,5.63,0,0,0,.9,1.32,20,20,0,0,0,1.67,1.68c.7.63,1.56,1.41,2.59,2.32a23.46,23.46,0,0,1,2.71,2.78,15.67,15.67,0,0,1,1.93,2.94,14.44,14.44,0,0,1,1.15,3.27,17.43,17.43,0,0,1,.37,3.74,8.47,8.47,0,0,1-.66,3.56,3.83,3.83,0,0,1-1.83,1.91,4.5,4.5,0,0,1-2.77.28,10.61,10.61,0,0,1-3.48-1.36,14.82,14.82,0,0,1-3.5-2.8,20.23,20.23,0,0,1-2.72-3.63,19.64,19.64,0,0,1-1.78-3.9,12.53,12.53,0,0,1-.67-3.63.78.78,0,0,1,.18-.57.32.32,0,0,1,.41,0l3.7,2.14a2.2,2.2,0,0,1,.63.51,5.41,5.41,0,0,1,.44.72c.08.15.19.41.34.75a9.94,9.94,0,0,0,.6,1.15,7.79,7.79,0,0,0,1,1.26,5.88,5.88,0,0,0,1.43,1.14,6.44,6.44,0,0,0,2.49.94c.67,0,1-.35,1-1.22a2.57,2.57,0,0,0-.37-1.29,8.23,8.23,0,0,0-1.09-1.43c-.49-.53-1.12-1.13-1.88-1.8s-1.65-1.48-2.69-2.42a16.85,16.85,0,0,1-4.23-5.63,16.19,16.19,0,0,1-1.33-6.72,8.54,8.54,0,0,1,.56-3.22,4.41,4.41,0,0,1,1.61-2.07,3.94,3.94,0,0,1,2.52-.59A7.92,7.92,0,0,1,278.19,796.12Z" transform="translate(-9 -44.75)"/><g class="cls-27"><path class="cls-13" d="M293.82,813.37a1.41,1.41,0,0,1,.53.66,2.16,2.16,0,0,1,.22,1l-.05,20.14a.91.91,0,0,1-.23.69.41.41,0,0,1-.54,0l-3.55-2.05a1.39,1.39,0,0,1-.54-.65,2.35,2.35,0,0,1-.22-.95l.06-20.14a1,1,0,0,1,.22-.7.42.42,0,0,1,.54,0Z" transform="translate(-9 -44.75)"/><path class="cls-13" d="M294.38,805a2.2,2.2,0,0,1,.22.95v4.37a.9.9,0,0,1-.23.68.42.42,0,0,1-.54,0l-3.55-2.06a1.42,1.42,0,0,1-.54-.66,2.3,2.3,0,0,1-.22-.94V803a.91.91,0,0,1,.23-.69.41.41,0,0,1,.54,0l3.55,2A1.42,1.42,0,0,1,294.38,805Z" transform="translate(-9 -44.75)"/></g><path class="cls-13" d="M312.24,824.36a2.16,2.16,0,0,1,.22.95l-.06,21a10.93,10.93,0,0,1-.59,3.92,4.25,4.25,0,0,1-1.6,2.16,3.45,3.45,0,0,1-2.43.43,8.84,8.84,0,0,1-3.1-1.18,13.68,13.68,0,0,1-3.6-2.92,15.47,15.47,0,0,1-2.18-3.29,13.84,13.84,0,0,1-1.1-3.13,15.06,15.06,0,0,1-.33-2.44.81.81,0,0,1,.21-.7.44.44,0,0,1,.56,0l3.66,2.11a2.15,2.15,0,0,1,.88,1.37,5.47,5.47,0,0,0,.6,1.34,3.71,3.71,0,0,0,1.37,1.23,2.26,2.26,0,0,0,1.89.33c.55-.19.82-.79.83-1.8v-3a6.53,6.53,0,0,1-.56.61,1.66,1.66,0,0,1-.74.4,2.43,2.43,0,0,1-1.07,0,5.41,5.41,0,0,1-1.57-.66,10.3,10.3,0,0,1-2.39-2,12.48,12.48,0,0,1-2-2.94,18.5,18.5,0,0,1-1.36-3.81,21.3,21.3,0,0,1-.57-4.61c0-.44,0-1,0-1.55s0-1.1,0-1.53a13.51,13.51,0,0,1,.59-4,5,5,0,0,1,1.38-2.24,2.87,2.87,0,0,1,2-.65,5.27,5.27,0,0,1,2.4.78,8.12,8.12,0,0,1,1.6,1.19,8.71,8.71,0,0,1,1.16,1.32,9.15,9.15,0,0,1,.79,1.29c.2.43.37.8.51,1.14v-1a.89.89,0,0,1,.22-.69.41.41,0,0,1,.54,0l3.28,1.89A1.41,1.41,0,0,1,312.24,824.36Zm-4.89,9a13,13,0,0,0,0-2.72,7.78,7.78,0,0,0-.72-2.63,4.47,4.47,0,0,0-1.78-2c-.81-.47-1.42-.49-1.84-.08a3.15,3.15,0,0,0-.71,2.07c0,.42-.06.76-.06,1s0,.64.05,1.09A8,8,0,0,0,303,833a4.45,4.45,0,0,0,1.84,2.06c.77.44,1.36.46,1.77,0a3,3,0,0,0,.75-1.8" transform="translate(-9 -44.75)"/><path class="cls-13" d="M324.66,830.74a10.24,10.24,0,0,1,2.48,2,12,12,0,0,1,1.92,2.91,16.53,16.53,0,0,1,1.25,3.79,21.86,21.86,0,0,1,.44,4.67l0,11.89a.91.91,0,0,1-.23.69.41.41,0,0,1-.54,0l-3.55-2a1.39,1.39,0,0,1-.54-.65,2.07,2.07,0,0,1-.22-1l0-10.93a8.94,8.94,0,0,0-.59-3.33,4.27,4.27,0,0,0-1.85-2.19c-.85-.49-1.47-.47-1.86,0a4.7,4.7,0,0,0-.58,2.66l0,10.93a.91.91,0,0,1-.23.69.41.41,0,0,1-.54,0l-3.55-2a1.39,1.39,0,0,1-.54-.65,2.1,2.1,0,0,1-.22-1l.05-20.14a.92.92,0,0,1,.23-.69.41.41,0,0,1,.54,0l3.41,2a1.39,1.39,0,0,1,.54.65,2.24,2.24,0,0,1,.22,1v1a3.45,3.45,0,0,1,.57-.58,1.72,1.72,0,0,1,.82-.37,2.81,2.81,0,0,1,1.11,0A5.45,5.45,0,0,1,324.66,830.74Z" transform="translate(-9 -44.75)"/><path class="cls-13" d="M353.74,848a1.32,1.32,0,0,1,.53.65,2.25,2.25,0,0,1,.23,1l-.06,20.13a.89.89,0,0,1-.23.69.4.4,0,0,1-.53,0l-3.28-1.89a1.37,1.37,0,0,1-.53-.65,2.2,2.2,0,0,1-.22-.95v-1a3.19,3.19,0,0,1-.56.61,1.68,1.68,0,0,1-.8.35,2.87,2.87,0,0,1-1.12,0,5.2,5.2,0,0,1-1.5-.63,11.06,11.06,0,0,1-4.36-4.9,19,19,0,0,1-1.6-8.41l0-11.88a1,1,0,0,1,.23-.7.42.42,0,0,1,.54,0l3.55,2a1.37,1.37,0,0,1,.54.66,2.16,2.16,0,0,1,.22,1l0,10.93a9.27,9.27,0,0,0,.53,3.29,4,4,0,0,0,1.77,2.15c.83.48,1.42.45,1.77-.1a5.31,5.31,0,0,0,.53-2.69l0-10.93a.92.92,0,0,1,.23-.69.41.41,0,0,1,.54,0Z" transform="translate(-9 -44.75)"/><path class="cls-13" d="M372.93,868.53c0,.44,0,1,0,1.76s0,1.31,0,1.74a14,14,0,0,1-.6,4.07,5.12,5.12,0,0,1-1.37,2.3,2.77,2.77,0,0,1-2,.7,5.36,5.36,0,0,1-2.4-.78,7,7,0,0,1-1.44-1.09,9.42,9.42,0,0,1-1.07-1.26,11.09,11.09,0,0,1-.76-1.29c-.2-.42-.38-.8-.5-1.13l0,9.2a.91.91,0,0,1-.23.69.41.41,0,0,1-.53,0l-3.56-2.05a1.35,1.35,0,0,1-.53-.66,2.11,2.11,0,0,1-.23-.95l.08-28.36a.92.92,0,0,1,.23-.69.41.41,0,0,1,.54,0l3.41,2a1.32,1.32,0,0,1,.53.65,2.12,2.12,0,0,1,.23,1v1c.16-.19.35-.39.55-.59a1.44,1.44,0,0,1,.74-.42,2.41,2.41,0,0,1,1.07,0,5.66,5.66,0,0,1,1.57.67,10.05,10.05,0,0,1,2.39,2,12.34,12.34,0,0,1,2,2.95,18.6,18.6,0,0,1,1.36,3.88A22.31,22.31,0,0,1,372.93,868.53Zm-5.06.07a17.72,17.72,0,0,0,0-2.42,9.65,9.65,0,0,0-.65-3,4.18,4.18,0,0,0-1.88-2.21,1.89,1.89,0,0,0-1.08-.32,1.13,1.13,0,0,0-.75.37,2.37,2.37,0,0,0-.47.83,5.29,5.29,0,0,0-.22,1.12c0,.41-.06.91-.07,1.49s0,1.09.06,1.54a8.54,8.54,0,0,0,.22,1.39,7.26,7.26,0,0,0,.46,1.36,5.77,5.77,0,0,0,.75,1.24,3.79,3.79,0,0,0,1.07.92c.88.5,1.51.5,1.89,0a4.29,4.29,0,0,0,.66-2.25" transform="translate(-9 -44.75)"/><path class="cls-5" d="M1369.33,1299.86a13.18,13.18,0,0,1,3.31,2.71,21.25,21.25,0,0,1,2.61,3.56,19.85,19.85,0,0,1,1.71,3.76,11.43,11.43,0,0,1,.64,3.27.8.8,0,0,1-.18.57.33.33,0,0,1-.41,0l-3.7-2.14a2.13,2.13,0,0,1-.64-.53,5.55,5.55,0,0,1-.49-.81l-.26-.59a7.43,7.43,0,0,0-.53-.93,6.84,6.84,0,0,0-.84-1,5.37,5.37,0,0,0-1.24-1,7.31,7.31,0,0,0-1-.49,2.52,2.52,0,0,0-.87-.16.85.85,0,0,0-.63.32,1.47,1.47,0,0,0-.24.94,3.05,3.05,0,0,0,.26,1.23,5.53,5.53,0,0,0,.9,1.32,20.25,20.25,0,0,0,1.68,1.69c.69.63,1.56,1.4,2.59,2.31a25.09,25.09,0,0,1,2.71,2.78,15.81,15.81,0,0,1,1.93,3,14.78,14.78,0,0,1,1.15,3.25,17.66,17.66,0,0,1,.37,3.75,8.47,8.47,0,0,1-.66,3.56,4,4,0,0,1-1.83,1.91,4.58,4.58,0,0,1-2.77.28,10.74,10.74,0,0,1-3.49-1.36,15.23,15.23,0,0,1-3.5-2.8,21.22,21.22,0,0,1-2.71-3.62,20.17,20.17,0,0,1-1.79-3.92,12.38,12.38,0,0,1-.66-3.63.75.75,0,0,1,.18-.56.31.31,0,0,1,.41,0l3.7,2.13a2.14,2.14,0,0,1,.62.51,4.88,4.88,0,0,1,.45.71c.08.16.19.41.34.76a9.23,9.23,0,0,0,.6,1.15,8.83,8.83,0,0,0,1,1.27,6,6,0,0,0,1.42,1.12,6.21,6.21,0,0,0,2.5.94c.67.06,1-.34,1-1.21a2.63,2.63,0,0,0-.36-1.29,8.11,8.11,0,0,0-1.11-1.44,24,24,0,0,0-1.87-1.79c-.76-.67-1.65-1.48-2.69-2.42a17,17,0,0,1-4.24-5.63,16.35,16.35,0,0,1-1.32-6.72,8.63,8.63,0,0,1,.56-3.23,4.37,4.37,0,0,1,1.6-2.06,4,4,0,0,1,2.53-.59A7.7,7.7,0,0,1,1369.33,1299.86Z" transform="translate(-9 -44.75)"/><path class="cls-5" d="M1395.31,1315.29a1.37,1.37,0,0,1,.54.66,2.31,2.31,0,0,1,.22,1v4.57a.93.93,0,0,1-.23.7.42.42,0,0,1-.54,0l-5-2.87-.07,22.18a.92.92,0,0,1-.22.69.42.42,0,0,1-.54,0l-3.7-2.13a1.47,1.47,0,0,1-.53-.66,2.2,2.2,0,0,1-.22-1l.06-22.18-5-2.87a1.38,1.38,0,0,1-.53-.65,2.06,2.06,0,0,1-.22-1v-4.58a.92.92,0,0,1,.22-.69.42.42,0,0,1,.54,0Z" transform="translate(-9 -44.75)"/><path class="cls-5" d="M1414.42,1355a4.19,4.19,0,0,1,.11.72.72.72,0,0,1-.19.56.33.33,0,0,1-.44,0l-3.55-2a2,2,0,0,1-.8-.83,3.44,3.44,0,0,1-.3-.89l-.78-4-7.5-4.33-.8,3.13a1,1,0,0,1-.3.54c-.16.15-.43.12-.81-.1l-3.55-2a1.26,1.26,0,0,1-.44-.53,1.85,1.85,0,0,1-.18-.78,2,2,0,0,1,.12-.58l6.22-23.69a1.72,1.72,0,0,1,.42-.71c.19-.2.48-.19.86,0l4.57,2.63a2,2,0,0,1,.85,1,5.63,5.63,0,0,1,.42,1.18Zm-12-16.69L1407,1341l-2.26-11.69-2.31,9" transform="translate(-9 -44.75)"/><path class="cls-5" d="M1433.32,1366.11a2.28,2.28,0,0,1,.08.52.76.76,0,0,1-.18.57.34.34,0,0,1-.44,0l-3.84-2.21a1.87,1.87,0,0,1-.8-.85,9.1,9.1,0,0,1-.38-1l-3.11-11.06-2.59-1.5,0,9.25a.87.87,0,0,1-.23.69.4.4,0,0,1-.53,0l-3.7-2.13a1.35,1.35,0,0,1-.53-.66,2.24,2.24,0,0,1-.23-1l.08-27.92a.91.91,0,0,1,.23-.69.41.41,0,0,1,.54,0l7.64,4.41a16.15,16.15,0,0,1,3.33,2.53,14.91,14.91,0,0,1,2.49,3.26,15.73,15.73,0,0,1,1.57,4,19.17,19.17,0,0,1,.54,4.7,10.65,10.65,0,0,1-.89,4.88,3.2,3.2,0,0,1-2.49,1.83Zm-6.09-20c.52-.16.78-.85.78-2.06a5.09,5.09,0,0,0-.77-3,5.89,5.89,0,0,0-2-1.82l-3.18-1.84,0,6.4,3.18,1.84a2.5,2.5,0,0,0,2,.44" transform="translate(-9 -44.75)"/><path class="cls-5" d="M1450.83,1347.35a1.39,1.39,0,0,1,.54.65,2.24,2.24,0,0,1,.23,1l0,4.58a.86.86,0,0,1-.23.69.41.41,0,0,1-.54,0l-5-2.87-.06,22.18a.92.92,0,0,1-.23.69.41.41,0,0,1-.54,0l-3.7-2.13a1.49,1.49,0,0,1-.53-.65,2.23,2.23,0,0,1-.22-1l.06-22.18-5-2.87a1.43,1.43,0,0,1-.53-.65,2.21,2.21,0,0,1-.22-1v-4.57a1,1,0,0,1,.23-.7.41.41,0,0,1,.53,0Z" transform="translate(-9 -44.75)"/><path class="cls-13" d="M770.88,1075.07a13.49,13.49,0,0,1,3.32,2.72,21,21,0,0,1,2.6,3.55,20,20,0,0,1,1.72,3.77,11.37,11.37,0,0,1,.64,3.27.72.72,0,0,1-.19.56.32.32,0,0,1-.41,0l-3.69-2.13a2.22,2.22,0,0,1-.63-.53,5.73,5.73,0,0,1-.5-.81c-.06-.12-.15-.32-.27-.59a6.6,6.6,0,0,0-.52-.93,6.89,6.89,0,0,0-.84-1,5.56,5.56,0,0,0-1.24-1,7.31,7.31,0,0,0-1-.49,2.32,2.32,0,0,0-.88-.16.83.83,0,0,0-.62.31,1.55,1.55,0,0,0-.25.94,2.91,2.91,0,0,0,.27,1.24,6,6,0,0,0,.9,1.32,21.9,21.9,0,0,0,1.68,1.69l2.59,2.31a26,26,0,0,1,2.71,2.78,15.21,15.21,0,0,1,1.92,3,13.31,13.31,0,0,1,1.15,3.26,17.51,17.51,0,0,1,.38,3.75,8.29,8.29,0,0,1-.67,3.55,3.79,3.79,0,0,1-1.83,1.91,4.55,4.55,0,0,1-2.76.29,11,11,0,0,1-3.49-1.36,15,15,0,0,1-3.49-2.8,20.47,20.47,0,0,1-2.72-3.63,19.17,19.17,0,0,1-1.78-3.91,12.41,12.41,0,0,1-.67-3.63.78.78,0,0,1,.18-.57.32.32,0,0,1,.41,0l3.7,2.14a2.3,2.3,0,0,1,.62.5,4.52,4.52,0,0,1,.45.72c.07.16.19.41.33.76a12.18,12.18,0,0,0,.61,1.15,8,8,0,0,0,.95,1.26,5.86,5.86,0,0,0,1.43,1.13,6.58,6.58,0,0,0,2.5,1c.67,0,1-.36,1-1.22a2.61,2.61,0,0,0-.37-1.29,7.9,7.9,0,0,0-1.09-1.44c-.5-.53-1.12-1.13-1.88-1.8s-1.66-1.47-2.69-2.41a17,17,0,0,1-4.24-5.63,16.27,16.27,0,0,1-1.32-6.73,8.58,8.58,0,0,1,.56-3.22,4.32,4.32,0,0,1,1.6-2.06,4,4,0,0,1,2.53-.6A7.9,7.9,0,0,1,770.88,1075.07Z" transform="translate(-9 -44.75)"/><path class="cls-13" d="M786.52,1092.32a1.42,1.42,0,0,1,.54.66,2.35,2.35,0,0,1,.22,1l-.06,20.14a1,1,0,0,1-.22.7.43.43,0,0,1-.54,0l-3.56-2a1.47,1.47,0,0,1-.53-.66,2.2,2.2,0,0,1-.22-.95l.05-20.14a1,1,0,0,1,.23-.7.42.42,0,0,1,.54,0Z" transform="translate(-9 -44.75)"/><path class="cls-13" d="M787.08,1083.9a2.24,2.24,0,0,1,.23.95l0,4.37a1,1,0,0,1-.22.69.41.41,0,0,1-.54,0l-3.56-2a1.43,1.43,0,0,1-.53-.65,2.23,2.23,0,0,1-.22-1v-4.37a.94.94,0,0,1,.23-.69.42.42,0,0,1,.53,0l3.56,2.06A1.43,1.43,0,0,1,787.08,1083.9Z" transform="translate(-9 -44.75)"/><path class="cls-13" d="M804.94,1103.3a2.25,2.25,0,0,1,.23,1l-.06,21a10.93,10.93,0,0,1-.59,3.92,4.26,4.26,0,0,1-1.6,2.15,3.48,3.48,0,0,1-2.44.44,9,9,0,0,1-3.1-1.19,13.48,13.48,0,0,1-3.6-2.92,15.21,15.21,0,0,1-2.17-3.3,13.71,13.71,0,0,1-1.1-3.11,14.11,14.11,0,0,1-.33-2.45.81.81,0,0,1,.21-.7.44.44,0,0,1,.55,0l3.67,2.12a2.12,2.12,0,0,1,.87,1.37,5.75,5.75,0,0,0,.61,1.35,3.64,3.64,0,0,0,1.36,1.21,2.24,2.24,0,0,0,1.89.34c.55-.18.82-.78.83-1.8v-3a5.4,5.4,0,0,1-.56.61,1.62,1.62,0,0,1-.73.4,2.41,2.41,0,0,1-1.07,0,5.54,5.54,0,0,1-1.57-.67,10,10,0,0,1-2.39-2,12.93,12.93,0,0,1-2-2.94,18.94,18.94,0,0,1-1.36-3.81,21.49,21.49,0,0,1-.56-4.62c0-.45,0-1,0-1.55s0-1.1,0-1.52a13.55,13.55,0,0,1,.6-4,5,5,0,0,1,1.37-2.24,2.83,2.83,0,0,1,2-.64,5.1,5.1,0,0,1,2.39.77,8.51,8.51,0,0,1,1.61,1.19,8.62,8.62,0,0,1,1.15,1.32,8.37,8.37,0,0,1,.79,1.3q.32.63.51,1.14v-1a1,1,0,0,1,.23-.7.42.42,0,0,1,.54,0l3.27,1.89A1.37,1.37,0,0,1,804.94,1103.3Zm-4.88,9a13,13,0,0,0,0-2.72,7.46,7.46,0,0,0-.72-2.63,4.28,4.28,0,0,0-1.78-2c-.81-.47-1.41-.5-1.83-.09A3.11,3.11,0,0,0,795,1107c0,.41,0,.75,0,1s0,.64,0,1.1a7.81,7.81,0,0,0,.69,2.9,4.35,4.35,0,0,0,1.84,2.06c.77.45,1.36.47,1.76,0a3,3,0,0,0,.76-1.8" transform="translate(-9 -44.75)"/><path class="cls-13" d="M817.36,1109.69a10.48,10.48,0,0,1,2.48,2,12.18,12.18,0,0,1,1.93,2.91,16.94,16.94,0,0,1,1.25,3.8,23.23,23.23,0,0,1,.44,4.67l0,11.88a.87.87,0,0,1-.23.69.41.41,0,0,1-.54,0l-3.55-2.06a1.33,1.33,0,0,1-.53-.65,2.24,2.24,0,0,1-.23-1l0-10.94a8.7,8.7,0,0,0-.58-3.32,4.31,4.31,0,0,0-1.86-2.2c-.85-.49-1.46-.47-1.85.06a4.59,4.59,0,0,0-.59,2.64l0,10.94a.87.87,0,0,1-.23.69.42.42,0,0,1-.54,0l-3.55-2a1.41,1.41,0,0,1-.53-.66,2.24,2.24,0,0,1-.23-1l.06-20.15a.94.94,0,0,1,.23-.69.42.42,0,0,1,.54,0l3.41,2a1.37,1.37,0,0,1,.53.65,2.12,2.12,0,0,1,.23,1v1a3.38,3.38,0,0,1,.56-.58,1.76,1.76,0,0,1,.82-.37,2.88,2.88,0,0,1,1.12,0A5.16,5.16,0,0,1,817.36,1109.69Z" transform="translate(-9 -44.75)"/><path class="cls-13" d="M836.91,1121.41a1.48,1.48,0,0,1,.54.66,2.35,2.35,0,0,1,.22,1l-.06,20.14a1,1,0,0,1-.23.7.41.41,0,0,1-.53,0l-3.56-2.05a1.47,1.47,0,0,1-.53-.66,2.21,2.21,0,0,1-.23-1l.06-20.14a.92.92,0,0,1,.23-.69.41.41,0,0,1,.53,0Z" transform="translate(-9 -44.75)"/><path class="cls-13" d="M837.47,1113a2.23,2.23,0,0,1,.22,1v4.37a.92.92,0,0,1-.23.69.41.41,0,0,1-.53,0l-3.56-2.06a1.43,1.43,0,0,1-.53-.65,2.21,2.21,0,0,1-.23-.95l0-4.37a1,1,0,0,1,.22-.69.43.43,0,0,1,.54,0l3.56,2.06A1.49,1.49,0,0,1,837.47,1113Z" transform="translate(-9 -44.75)"/><path class="cls-13" d="M849.86,1128.46a10.24,10.24,0,0,1,2.48,2,11.82,11.82,0,0,1,1.93,2.9,16.29,16.29,0,0,1,1.24,3.8,22.5,22.5,0,0,1,.45,4.67l0,11.89a1,1,0,0,1-.22.69.42.42,0,0,1-.54,0l-3.56-2a1.37,1.37,0,0,1-.53-.65,2,2,0,0,1-.22-1l0-10.94a8.66,8.66,0,0,0-.59-3.32,4.27,4.27,0,0,0-1.86-2.2c-.84-.49-1.46-.47-1.85.05a4.65,4.65,0,0,0-.59,2.65l0,10.94a1,1,0,0,1-.22.69.42.42,0,0,1-.54,0l-3.56-2a1.49,1.49,0,0,1-.53-.65,2,2,0,0,1-.22-1l.05-20.15a.87.87,0,0,1,.23-.69.42.42,0,0,1,.54,0l3.41,2a1.48,1.48,0,0,1,.54.66,2.35,2.35,0,0,1,.22,1v1a3.83,3.83,0,0,1,.56-.59,1.86,1.86,0,0,1,.83-.37,3,3,0,0,1,1.11,0A4.84,4.84,0,0,1,849.86,1128.46Z" transform="translate(-9 -44.75)"/></g></svg>