<svg id="Layer_1" data-name="Layer 1" xmlns="http://www.w3.org/2000/svg" viewBox="0 0 1998 1932.77"><defs><style>.cls-1{fill:#5956c7;}.cls-2{opacity:0.15;}.cls-10,.cls-11,.cls-12,.cls-23,.cls-3,.cls-36,.cls-37,.cls-9{fill:#fff;}.cls-4{fill:#f5f5f5;}.cls-5{fill:#e0e0e0;}.cls-6{opacity:0.1;}.cls-7{fill:#1a2e35;}.cls-8{fill:#3b3b6b;}.cls-26,.cls-9{opacity:0.25;}.cls-10,.cls-28,.cls-33{opacity:0.6;}.cls-11,.cls-27{opacity:0.5;}.cls-12,.cls-25,.cls-34{opacity:0.4;}.cls-13{fill:#c76668;}.cls-14{fill:#1d1a56;}.cls-15{opacity:0.35;}.cls-16,.cls-35{opacity:0.2;}.cls-17{fill:#ff9090;}.cls-18{fill:#e6e6e6;}.cls-19{fill:#7373e0;}.cls-20,.cls-29,.cls-36{opacity:0.3;}.cls-21{fill:#00014a;}.cls-22{fill:#9a4a4d;}.cls-23{opacity:0.45;}.cls-24{fill:#fafafa;}.cls-30{fill:#f0f0f0;}.cls-31{fill:#ffaaa8;}.cls-32{fill:#302c8c;}.cls-37{opacity:0.8;}</style></defs><title>consultantcy</title><g id="Plants"><path class="cls-1" d="M1800.42,1140.86c-11.26-127.65,12.61-191.38,39.94-238.08,21.21-36.23,57.85-68.87,78.6-81s49.12-13.39,67-.71c16.43,11.69,15.6,25.58,11.78,40.38-7.37,28.58-70.81,73.56-93.11,97.3-37.88,40.34-69.47,86.34-71.27,198.75Z" transform="translate(-2 -13.15)"/><path class="cls-2" d="M1800.42,1140.86c-11.26-127.65,12.61-191.38,39.94-238.08,21.21-36.23,57.85-68.87,78.6-81s49.12-13.39,67-.71c16.43,11.69,15.6,25.58,11.78,40.38-7.37,28.58-70.81,73.56-93.11,97.3-37.88,40.34-69.47,86.34-71.27,198.75Z" transform="translate(-2 -13.15)"/><path class="cls-3" d="M1817.58,1122.85h.12a2.2,2.2,0,0,0,1.92-2.45c-18.55-156.55,102.78-262.67,141.72-281.94a2.2,2.2,0,1,0-2-3.94c-39.65,19.62-163,127.33-144.13,286.4A2.2,2.2,0,0,0,1817.58,1122.85Z" transform="translate(-2 -13.15)"/><path class="cls-1" d="M1819.64,1166.52c1,.89,9.49,5.59,10.69,6.17,13.72,6.62,32.9,7.61,50.33,8,11.48.24,27,.47,36.72-6.45,4.82-3.42,8.26-9.53,6.75-15.25-1.64-6.17-8.48-10.67-8-17,12.91-2,26.77,3.66,38.86-1.3,9.09-3.74,15.55-10.88,20.74-19.23,3.06-4.93,5.56-12.37,3.9-17.93-2-6.58-9.52-9.38-16-11.53a13,13,0,0,1-4.84-2.4,4.58,4.58,0,0,1-1.48-4.88c.83-2.07,3.35-2.78,5.55-3.09,4.72-.67,9.52-.73,14.2-1.66s9.35-2.86,12.41-6.52c3.63-4.35,4.39-10.36,4.83-16a238.08,238.08,0,0,0,.86-28.89c-.1-2.31,1.16-25.19,1.94-24.87-22.33-9.11-47.67-11.45-71.57-10.55-13.34.5-33.07,3.32-41,15.81a25.35,25.35,0,0,0-3.52,11.85,46,46,0,0,0,.33,5.74c.07,1.19.44,5.84-2,3.32a5.11,5.11,0,0,1-1-2.08l-6-19.64c-.6-2-1.26-4-2.8-5.39-3.25-2.88-13.29-2.78-25,3.64-7.73,4.26-13.2,12.1-16.52,20.22-5.33,13.07-5.44,27.59-5.48,41.71q-3.36-6.9-6.73-13.79c-7.87-16.1-18.7,9-20.08,14.61-3.64,14.73-4.54,38.37-.65,53C1799.6,1139.19,1806.45,1154.77,1819.64,1166.52Z" transform="translate(-2 -13.15)"/><path class="cls-3" d="M1824.2,1167a1.93,1.93,0,0,0,1.56-1.31c19.45-60.33,111.66-140,147-152a1.92,1.92,0,1,0-1.23-3.63c-35.88,12.24-129.61,93.2-149.36,154.49a1.9,1.9,0,0,0,1.23,2.41A1.78,1.78,0,0,0,1824.2,1167Z" transform="translate(-2 -13.15)"/><path class="cls-3" d="M1936,1111.73a1.79,1.79,0,0,0,.86-3.37c-.34-.18-33.16-17.57-74.32-6.6,4-30.1-2.6-54-6.59-68.48l-.14-.52a1.8,1.8,0,0,0-3.47,1l.15.52c4,14.63,10.79,39.1,6.11,69.73a1.79,1.79,0,0,0,2.28,2c41-12,73.94,5.39,74.26,5.56A1.8,1.8,0,0,0,1936,1111.73Z" transform="translate(-2 -13.15)"/></g><ellipse id="Floor" class="cls-4" cx="1000.77" cy="1391.7" rx="938.86" ry="541.07"/><path id="Shadow" class="cls-5" d="M1462,1819.68l-308.11-178.39c-20.08-11.59-20.08-30.38,0-42l192.4-112.46c20.07-11.58,52.62-11.58,72.69,0l308.12,178.4c20.07,11.58,20.07,30.37,0,42l-192.41,112.46C1514.58,1831.27,1482,1831.27,1462,1819.68Z" transform="translate(-2 -13.15)"/><path id="Shadow-2" data-name="Shadow" class="cls-5" d="M502.46,1630.54,194.34,1452.15c-20.07-11.59-20.07-30.38,0-42l192.41-112.46c20.07-11.58,52.61-11.58,72.69,0l308.11,178.4c20.08,11.58,20.08,30.37,0,42l-192.4,112.46C555.08,1642.13,522.53,1642.13,502.46,1630.54Z" transform="translate(-2 -13.15)"/><polygon id="Shadow-3" data-name="Shadow" class="cls-5" points="778.31 1839.94 336.92 1585.11 1038.36 1180.13 1479.74 1434.96 778.31 1839.94"/><ellipse id="Shadow-4" data-name="Shadow" class="cls-5" cx="1849.74" cy="1536.65" rx="119.63" ry="69.07"/><ellipse id="Shadow-5" data-name="Shadow" class="cls-5" cx="141.24" cy="1589.24" rx="119.63" ry="69.07"/><ellipse id="Shadow-6" data-name="Shadow" class="cls-5" cx="337.81" cy="1648.93" rx="119.63" ry="69.07"/><path id="Shadow-7" data-name="Shadow" class="cls-6" d="M1352,1033.47l-171.24,98.87a9.21,9.21,0,0,1-8.31,0L941.35,998.92c-2.3-1.32-2.3-3.47,0-4.8l171.23-98.86a9.21,9.21,0,0,1,8.31,0L1352,1028.68C1354.27,1030,1354.27,1032.15,1352,1033.47Z" transform="translate(-2 -13.15)"/><g id="Character"><g id="Character-2" data-name="Character"><g id="Chair"><path class="cls-7" d="M739.93,1491.69l-37.25-310.91-30.45-1.54,52.37,312.4h0a4.09,4.09,0,0,0,2,2.73,12,12,0,0,0,10.85.55c1.64-.84,2.42-2,2.38-3.23Z" transform="translate(-2 -13.15)"/><path class="cls-7" d="M702.68,1180.78l-30.45-1.54,9,59a118.09,118.09,0,0,0,18-8.29c4.19-2.25,7.72-5.36,8-6.88Z" transform="translate(-2 -13.15)"/><path class="cls-8" d="M298.1,1135.19H267.62l-44.36,293.58h0c-.1,1.2.62,2.43,2.22,3.35a12,12,0,0,0,10.86,0,4.13,4.13,0,0,0,2.17-2.62h0Z" transform="translate(-2 -13.15)"/><path class="cls-7" d="M267.62,1135.19l-12.38,81.93c5.52,4.79,16.51,11.15,23.38,14.32l19.48-96.25Z" transform="translate(-2 -13.15)"/><path class="cls-8" d="M536.24,1595.91l-28.65-316.14-30.44-1.54,43.76,317.63h0a4.06,4.06,0,0,0,2,2.73,12,12,0,0,0,10.85.55c1.63-.84,2.42-2,2.38-3.23Z" transform="translate(-2 -13.15)"/><path class="cls-7" d="M511.34,1325.28l-3.75-45.51-30.44-1.54,6.18,49.09C490.11,1329.39,502.47,1328.14,511.34,1325.28Z" transform="translate(-2 -13.15)"/><path class="cls-7" d="M464.48,1038.45H434L389.64,1332h0c-.1,1.21.62,2.43,2.22,3.35a12,12,0,0,0,10.86,0,4.11,4.11,0,0,0,2.17-2.62h0Z" transform="translate(-2 -13.15)"/><g id="Chair-2" data-name="Chair"><path class="cls-1" d="M210.94,779.67c-6.1,14.24-10.31,31.69-12.17,53.52-3.49,41,9.8,192.68,18.15,252.09l0,0c12.07,99.27,26.86,99.44,48.38,116.06,37,28.58,143.4,84.61,178.53,98.44,63.68,25.07,115.75-13.59,154.57-32.76s86.48-49,102.82-60.89c9.69-7.06,14.72-14.2,14.62-21.72,0-3,0-15.17,0-18.31,0-9.58-8.44-19.86-26.27-31.41-32.89-21.34-151.78-90.68-197.84-116.19a.45.45,0,0,0-.38-.38c-35.45-21.52-56.18-186.58-80.73-264.4-.52-1.66-1-3.28-1.59-4.83-.41-1.24-.86-2.45-1.27-3.62-1.56-4.24-3.14-8.1-4.83-11.66" transform="translate(-2 -13.15)"/><path class="cls-1" d="M715.83,1166.06c0-9.58-8.45-19.86-26.27-31.41-32.89-21.34-151.78-90.68-197.84-116.19a.45.45,0,0,0-.38-.38c-35.45-21.52-56.18-186.58-80.73-264.4a147.58,147.58,0,0,0-5.14-14.32l-.45-1c-.44-1-.91-2.08-1.4-3.16-.24-.52-.46-1.08-.7-1.59h0c-4-8.38-9.44-17.54-16.38-23.66a36.15,36.15,0,0,0-8-5.64c-4-2.25-12.36-6.91-14.45-8.14C340,681.73,308.37,699,269,720.58,244.54,734,223.65,750,210.94,779.67h0c-6.1,14.24-10.31,31.69-12.17,53.52-3.49,41,9.8,192.68,18.15,252.09l0,0c12.07,99.27,26.86,99.44,48.38,116.06,37,28.58,143.4,84.61,178.53,98.44,63.68,25.07,115.75-13.59,154.57-32.76s86.48-49,102.82-60.89c9.69-7.06,14.72-14.2,14.62-21.72C715.76,1181.41,715.83,1169.2,715.83,1166.06Z" transform="translate(-2 -13.15)"/><path class="cls-9" d="M715.83,1166.06c0-9.58-8.45-19.86-26.27-31.41-32.89-21.34-151.78-90.68-197.84-116.19a.45.45,0,0,0-.38-.38c-35.45-21.52-56.18-186.58-80.73-264.4a147.58,147.58,0,0,0-5.14-14.32l-.45-1c-.44-1-.91-2.08-1.4-3.16-.24-.52-.46-1.08-.7-1.59h0c-4-8.38-9.44-17.54-16.38-23.66a36.15,36.15,0,0,0-8-5.64c-4-2.25-12.36-6.91-14.45-8.14C340,681.73,308.37,699,269,720.58,244.54,734,223.65,750,210.94,779.67h0c-6.1,14.24-10.31,31.69-12.17,53.52-3.49,41,9.8,192.68,18.15,252.09l0,0c12.07,99.27,26.86,99.44,48.38,116.06,37,28.58,143.4,84.61,178.53,98.44,63.68,25.07,115.75-13.59,154.57-32.76s86.48-49,102.82-60.89c9.69-7.06,14.72-14.2,14.62-21.72C715.76,1181.41,715.83,1169.2,715.83,1166.06Z" transform="translate(-2 -13.15)"/><path class="cls-1" d="M598.35,1248.53c38.8-19.16,86.49-49,102.82-60.91,22.08-16,20-32.44-11.6-53-44-28.52-223.13-130.19-223.13-130.19s-226.53,133.68-216.79,158.37,150,101.06,194.13,118.43C507.49,1306.33,559.55,1267.69,598.35,1248.53Z" transform="translate(-2 -13.15)"/><path class="cls-10" d="M598.35,1248.53c38.8-19.16,86.49-49,102.82-60.91,22.08-16,20-32.44-11.6-53-44-28.52-223.13-130.19-223.13-130.19s-226.53,133.68-216.79,158.37,150,101.06,194.13,118.43C507.49,1306.33,559.55,1267.69,598.35,1248.53Z" transform="translate(-2 -13.15)"/><path class="cls-1" d="M378.48,704.28c-23.85-12.52-54.84,4.5-93.17,25.5-24.55,13.46-45.47,29.41-58.18,59.25l-16.19-9.36C223.65,750,244.54,734,269,720.58,308.37,699,340,681.73,364,696.14,366.12,697.37,374.49,702,378.48,704.28Z" transform="translate(-2 -13.15)"/><path class="cls-11" d="M378.48,704.28c-23.85-12.52-54.84,4.5-93.17,25.5-24.55,13.46-45.47,29.41-58.18,59.25l-16.19-9.36C223.65,750,244.54,734,269,720.58,308.37,699,340,681.73,364,696.14,366.12,697.37,374.49,702,378.48,704.28Z" transform="translate(-2 -13.15)"/><path class="cls-1" d="M410.61,753.68c-.52-1.66-8.72-30.21-24.1-43.76A38.86,38.86,0,0,0,360.44,700c-20.82,0-45.82,13.76-75.13,29.79q-3.68,2-7.24,4.14c-.93.52-1.83,1.07-2.72,1.62-1.11.66-2.18,1.34-3.25,2-.79.49-1.58,1-2.37,1.56A135.4,135.4,0,0,0,255,750.33c-.76.66-1.48,1.31-2.21,2a99.93,99.93,0,0,0-8.38,8.68c-.48.56-1,1.11-1.41,1.66s-1.14,1.38-1.65,2.07-1.07,1.41-1.63,2.14-1,1.41-1.55,2.17a104.88,104.88,0,0,0-5.86,9.38c-.24.41-.48.82-.69,1.24-.48.86-.93,1.76-1.38,2.65-.65,1.31-1.27,2.62-1.89,3.93C221.63,801,217,819.22,215,842.39c-5.69,67.41,16.81,308.95,40,328.16,0,0-3.55-21.8,43.06-51.14,31.69-19.93,53.93-36.68,87.75-53.27,82.41-40.48,105.51-48.06,105.51-48.06C455.89,996.56,435.16,831.5,410.61,753.68Z" transform="translate(-2 -13.15)"/><path class="cls-12" d="M410.61,753.68c-.52-1.66-8.72-30.21-24.1-43.76A38.86,38.86,0,0,0,360.44,700c-20.82,0-45.82,13.76-75.13,29.79q-3.68,2-7.24,4.14c-.93.52-1.83,1.07-2.72,1.62-1.11.66-2.18,1.34-3.25,2-.79.49-1.58,1-2.37,1.56A135.4,135.4,0,0,0,255,750.33c-.76.66-1.48,1.31-2.21,2a99.93,99.93,0,0,0-8.38,8.68c-.48.56-1,1.11-1.41,1.66s-1.14,1.38-1.65,2.07-1.07,1.41-1.63,2.14-1,1.41-1.55,2.17a104.88,104.88,0,0,0-5.86,9.38c-.24.41-.48.82-.69,1.24-.48.86-.93,1.76-1.38,2.65-.65,1.31-1.27,2.62-1.89,3.93C221.63,801,217,819.22,215,842.39c-5.69,67.41,16.81,308.95,40,328.16,0,0-3.55-21.8,43.06-51.14,31.69-19.93,53.93-36.68,87.75-53.27,82.41-40.48,105.51-48.06,105.51-48.06C455.89,996.56,435.16,831.5,410.61,753.68Z" transform="translate(-2 -13.15)"/></g></g><path id="Shadow-8" data-name="Shadow" class="cls-6" d="M715.79,1184.38c.12,7.49-4.91,14.66-14.61,21.7-16.35,11.87-64,41.78-102.81,60.9-20.2,10-44,25.2-71.08,34-65-38.08-177.3-104.73-204.92-126.83-14.77-11.79-23.66-31.56-28.94-51.68-8.89-33.65-7.81-68.31-7.81-68.31s-21.09-5.59-40.21-26.64c-16.26-18-20.61-76.36-27.09-209.07v-.08a144.45,144.45,0,0,1,10-32c.64-1.33,1.24-2.62,1.89-3.94.44-.89.92-1.77,1.41-2.66.2-.4.44-.81.68-1.25a106.78,106.78,0,0,1,5.84-9.38l1.57-2.17c.56-.72,1-1.45,1.61-2.13s1.12-1.37,1.65-2.06.92-1.12,1.41-1.65a100.28,100.28,0,0,1,8.41-8.69c.72-.73,1.45-1.37,2.17-2a140.88,140.88,0,0,1,14.78-11.19c.8-.57,1.56-1.09,2.37-1.57,1.09-.69,2.13-1.37,3.26-2,.89-.56,1.77-1.12,2.7-1.61,2.37-1.4,4.79-2.81,7.24-4.14,29.3-16,54.3-29.79,75.15-29.79a39.29,39.29,0,0,1,24.47,8.54c.85.68,1.37,1.16,1.57,1.36,5.28,4.67,9.74,11.11,13.29,17.59.52,1,1,1.94,1.53,2.9a4.35,4.35,0,0,1,.32.65c.44.84.84,1.69,1.25,2.53l.48,1,.24.6c.24.53.48,1.09.72,1.61.85,1.89,1.61,3.7,2.26,5.4.16.4.32.8.48,1.16.53,1.37,1,2.62,1.37,3.75.12.36.24.72.36,1s.24.73.36,1a5.58,5.58,0,0,1,.29.84c.08.29.2.57.28.85s.24.72.32,1a6.17,6.17,0,0,1,.2.68c.2.56.32,1,.36,1.13,24.56,77.84,45.29,242.91,80.75,264.41a.48.48,0,0,1,.36.4c46.09,25.52,165,94.83,197.83,116.16,17.84,11.56,26.25,21.86,26.29,31.44C715.83,1169.21,715.75,1181.41,715.79,1184.38Z" transform="translate(-2 -13.15)"/><g id="Character-3" data-name="Character"><path class="cls-13" d="M868.59,691c-9.3,3.29-48.11,22.39-67.43,21.54-8.18-.35-10.16-2-9.51-4,.88-2.79,6.63-6.34,8.23-8.47,2.78-3.7,18.2-18.57,14.63-28.1s-9.2-1.8-22.85,7.89c-8.06,5.72-17.1,9.74-25.63,14.66-4.67,2.69-21.39,8.49-30.81,28s-12.11,32.42-19.24,43c-11.86,18.68-30.54,43.6-52.07,73.5,0,0-75.21-94.85-89.5-112.55s-42.75-45.79-70.6-52.42L542,811s40.86,57.15,83.77,105c34.6,38.59,57.25,42.2,79.16,9.52,2-2.83,4-6.06,6.12-9.81,21.6-38.45,30.54-65.69,52.59-113.6,0,0,4.91-11.9,11.13-20.28,13.22-11.91,38.11-14,50.65-19,18.44-7.31,28.12-15.44,36.66-27.54,8-11.4,5.52-22.64,10.3-29.55S877.89,687.75,868.59,691Z" transform="translate(-2 -13.15)"/><path class="cls-14" d="M491.34,669.81c37.8,0,53.63,17.24,76.88,45,14.45,17.25,95.84,119.06,95.84,119.06l19.29-22.47s-1.07,30.25,11.6,46.84,34.86,20.92,34.86,20.92-14.66,37.36-28.67,57.38-33.94,22.69-60.28-.45S531.35,830.83,531.35,830.83Z" transform="translate(-2 -13.15)"/><path class="cls-15" d="M491.34,669.81c37.8,0,53.63,17.24,76.88,45,14.45,17.25,95.84,119.06,95.84,119.06l19.29-22.47s-1.07,30.25,11.6,46.84,34.86,20.92,34.86,20.92-14.66,37.36-28.67,57.38-33.94,22.69-60.28-.45S531.35,830.83,531.35,830.83Z" transform="translate(-2 -13.15)"/><path class="cls-16" d="M664.06,833.89c-17.69,21.31-24.67,53.79-23.89,65.55,0,0-7.51-31.9,16.82-74.35Z" transform="translate(-2 -13.15)"/><path class="cls-8" d="M690.1,801.59l-15.22,19.69s1.72,27.21,17.89,43.46a72.85,72.85,0,0,0,34.7,19.67l9.4-20.37S697.5,841,690.1,801.59Z" transform="translate(-2 -13.15)"/><path class="cls-17" d="M802.91,738.3c-16.58-14-39.61-6.77-49.73,5.2a32.46,32.46,0,0,1,26.06-17.69c8.88-1,18.53,5.18,23.67,12.49Z" transform="translate(-2 -13.15)"/><path class="cls-7" d="M575.44,1572.39s-1.09,5.57.85,10.23,15,13.23,21.65,16.65,11.83,8.63,17.65,18.84c8,14,20.07,29.14,35.33,36.4s37.94,12.23,65.41,7.68,29.92-20.67,29.92-20.67,1.66-15.17-5.13-17.67S575.44,1572.39,575.44,1572.39Z" transform="translate(-2 -13.15)"/><path class="cls-7" d="M572,1553.62c0,6.49.78,12.9,3.47,18.77,7.92,11.3,26.93,15.24,37.73,30.67s23.57,39.16,59.36,46.79,63.18-3.4,70-13.52.85-19.83-22-32.57c-24.23-13.52-52.73-49.12-52.75-49.13-9.38-12.21-13.35-28.23-18.53-42.51-.5-1.39-1.32-3-2.8-3.07-1.78-.07-2.59,2.11-3.53,3.63-1.6,2.57-4.19,3.29-6.91,4.24a89,89,0,0,1-9.48,2.69,87,87,0,0,1-19.56,2.12c-2.18,0-4.66,0-6.14,1.61-1.31,1.41-1.37,3.54-1.24,5.46a56.55,56.55,0,0,0,.92,7.22,7.06,7.06,0,0,1,.12,3.53,4.35,4.35,0,0,1-4.1,2.71,9.5,9.5,0,0,1-4.92-1.59c-5.94-3.52-10.31-8-11.6-14.75,0,0-.21-3.65-.59-7a9.07,9.07,0,0,0-4.45,5.17c-.69,2.75-.46,5.71-.9,8.51A144,144,0,0,0,572,1553.62Z" transform="translate(-2 -13.15)"/><path class="cls-7" d="M748.72,1518.5s-.48,5.65,1.95,10.07S767,1540.12,774,1542.79s12.7,7.3,19.59,16.83c9.47,13.08,23.1,26.8,39,32.37s39,8.07,65.86.58S926,1568.8,926,1568.8s0-15.27-7-17S748.72,1518.5,748.72,1518.5Z" transform="translate(-2 -13.15)"/><path class="cls-7" d="M743.25,1500.22c.65,6.45,2.16,12.73,5.47,18.28,9.09,10.38,28.42,12.25,40.82,26.42s27.65,36.39,64.06,40.11,62.45-10.2,68.09-21-1.3-19.81-25.36-30c-25.55-10.83-57.73-43.14-57.74-43.15-10.65-11.12-16.32-26.63-23-40.27-.65-1.32-1.64-2.85-3.11-2.75-1.79.13-2.35,2.39-3.13,4-1.31,2.73-3.81,3.73-6.41,5a87.56,87.56,0,0,1-28.35,7.92c-2.17.22-4.63.51-5.93,2.26-1.15,1.54-1,3.67-.65,5.56a55.67,55.67,0,0,0,1.7,7.08,7.19,7.19,0,0,1,.5,3.5,4.35,4.35,0,0,1-3.78,3.13,9.45,9.45,0,0,1-5.06-1c-6.3-2.86-10.64-6.91-12.66-13.52a69.21,69.21,0,0,0-1.81-6.79c-1.81,1.33-3.54,3.32-3.86,5.62-.4,2.81.14,5.73,0,8.56A144.69,144.69,0,0,0,743.25,1500.22Z" transform="translate(-2 -13.15)"/><path class="cls-8" d="M305.81,1013.83l84.12-9.11,170.65,9.22s102.51,65.55,176.89,117.87c21.63,15.22,44.53,31.86,48.33,63.72,5.41,45.21,35.06,266.33,35.06,266.33-10.49,27-64.81,31.49-78.05,23.63-7.64-31-9.64-37.27-23.37-79.76-10-31-17.17-58-25.47-83.42-12.89-39.44-15.07-86.13-15.07-86.13l-108.53-68c23.91,24.33,31.73,32.23,44.27,44.88,11,11.09,18.24,25,21.48,61,6.42,71.28,17.61,231.72,18.41,253.5-9,12.58-52.89,28-81.67,13.5-7.84-41-16.73-72-28.43-128.66-12.9-62.48-15.67-103.89-14-126.42,0,0-52.79-32.49-113-72.1-25.6-16.85-61.91-34.66-79.55-54.12C307.67,1126.36,304.66,1074.88,305.81,1013.83Z" transform="translate(-2 -13.15)"/><path class="cls-7" d="M570.37,1168.14l-61.26-69.59s32.7-11,49.81-53.43c0,0-3.82,40.22-27.93,57.9l28.68,38.89,119.23,94.27Z" transform="translate(-2 -13.15)"/><g id="Top"><path class="cls-18" d="M301.2,1040.49s-3.6,21.24,2,30.64c25.46,13,65.07,18.26,140.33,7.68,92.29-13,111.66-57.8,114.17-62.32s.32-15.38-2.26-26.48Z" transform="translate(-2 -13.15)"/><path class="cls-18" d="M544.39,756.79c-11.24-66.7-37.34-89.84-73.77-91.72l-81.86-2.5c-17.3,5.18-72.41,16.23-95.92,24.21s-20.79,65.38-14,100.47,9.31,62.78,9.77,120.91c1.12,56.26-1.86,117.94,12.55,132.33,52,30.36,203.43,19.46,254.26-50.48,11.82-21.86.35-55.47-1.7-90.06C550.09,838,548.12,778.9,544.39,756.79Z" transform="translate(-2 -13.15)"/><path class="cls-8" d="M355.68,670.71c11.55-3.33,27.28-6.4,33.08-8.14l54.37,1.66h0c15.92,8.8,37.48,30.29,13,43.43s-65.83,3-82.49-12.44C363.76,686.06,358.09,677.63,355.68,670.71Z" transform="translate(-2 -13.15)"/><path class="cls-19" d="M324.31,530.91c-.38,3.49,11.9,10.75,11.9,10.75l-3.43-21.12Z" transform="translate(-2 -13.15)"/><path class="cls-20" d="M324.31,530.91c-.38,3.49,11.9,10.75,11.9,10.75l-3.43-21.12Z" transform="translate(-2 -13.15)"/><path class="cls-7" d="M394.67,505a69.46,69.46,0,1,0,69.46-69.46A69.45,69.45,0,0,0,394.67,505Z" transform="translate(-2 -13.15)"/><path class="cls-7" d="M338.94,556.24s11.25,52.88,15.77,61.57S368.55,629,368.55,629l-.79-37.19Z" transform="translate(-2 -13.15)"/><path class="cls-7" d="M352.37,472.82a28.59,28.59,0,0,0-20.59,9c-9.27,9.47-4.38,45.41,7.16,74.45l21.2,2.44Z" transform="translate(-2 -13.15)"/><path class="cls-13" d="M366.5,558.69c-4.26,2.54-10.32-5.62-15.56-11.11s-22.36-13-30.9,5c-8.69,18.33,7.54,42.55,21,46.78,23.22,7.29,26.71-7.6,26.71-7.6l1.71,86.32h0c16.06,20.58,43.87,25.35,63.28,21.9,15.5-2.76,27.14-9.52,12.33-26.68L445,647.82s21,3.19,31.3,1.6c17.08-2.64,27.82-16.11,33-34.59,8.32-29.69,11.48-53.66,4.42-112.05-7.73-64-82.17-64.66-122.37-39.36S366.5,558.69,366.5,558.69Z" transform="translate(-2 -13.15)"/><path class="cls-21" d="M457.79,500.44C440.12,498.52,424,490,408.34,482.1c-1.43,5.78-2.81,12.29-8,17.58-9.67,9.86-15.22,10.07-19,12.49-1.47,11.51-1.42,26.3-2.12,37.88-.24,3.91-.22,24.27-9.5,18.45-3-1.9-5.87-6.52-8.08-9.07-3.46-4-6.76-8.28-10.67-11.85-2.74-2.49-2.57-8.28-2.71-11.6a166.09,166.09,0,0,1,.71-20.8c.57-7.16,1.78-14.28,2.4-21.4.36-4.14-1.72-7.82-2.85-11.85a42.43,42.43,0,0,1-1.81-13.57c.77-14.33,11.76-26.5,24.63-32.83,18-8.86,39.81-10.24,59.48-8.63,12.85,1.05,25.26,2.15,38.09,3.44,3.38.34,7,0,10.29.6,3.82.74,7.9,3,11.37,4.67a66.36,66.36,0,0,1,19.23,13.74c6.61,7,11.35,16,12.46,25.67.48,4.19.4,6.68-2.85,9.36a77.85,77.85,0,0,1-12.33,8.15C492.75,500.23,473.76,502.18,457.79,500.44Z" transform="translate(-2 -13.15)"/><path class="cls-22" d="M445,647.82s-38.12-7.68-51.44-14.77c-8.92-4.74-16.27-12.95-18.43-18.22a60.09,60.09,0,0,0,10.47,21.5C395.36,648.79,445,658,445,658Z" transform="translate(-2 -13.15)"/><path class="cls-7" d="M443.84,550.81a8.18,8.18,0,1,1-8.18-8.52A8.31,8.31,0,0,1,443.84,550.81Z" transform="translate(-2 -13.15)"/><path class="cls-7" d="M435.66,523.11l-16.92,9.34A10.15,10.15,0,0,1,422.69,519,9.42,9.42,0,0,1,435.66,523.11Z" transform="translate(-2 -13.15)"/><path class="cls-22" d="M441.8,600.79l18.9,7.1a9.92,9.92,0,0,1-12.84,6.26A10.57,10.57,0,0,1,441.8,600.79Z" transform="translate(-2 -13.15)"/><path class="cls-7" d="M511.33,529.92,495.9,518A9.35,9.35,0,0,1,509.31,516,10.22,10.22,0,0,1,511.33,529.92Z" transform="translate(-2 -13.15)"/><path class="cls-7" d="M507.85,549.27a7.92,7.92,0,1,1-7.91-8.24A8,8,0,0,1,507.85,549.27Z" transform="translate(-2 -13.15)"/><polygon class="cls-22" points="460.8 523.97 463.52 573.78 489.52 564.92 460.8 523.97"/><path class="cls-19" d="M322.72,498.18a105.52,105.52,0,0,0,4.32,30,107.72,107.72,0,0,1,8-7.41c15.18-12.79,34-22.94,54.44-30.26h.09c45.87-16.32,100.3-18.09,142.21-2a100.77,100.77,0,0,0-5.65-25.41,104.74,104.74,0,0,0-203.44,35.11Z" transform="translate(-2 -13.15)"/><path class="cls-19" d="M377.68,398.76c5.47-2,32.5-7.38,34.66-7.82,14-2.83,35.85-.47,56.57,20.17,26.82,26.73,29.73,60.17,29.73,60.17l-28.76,6.08h-9c-1.32-20.82-24.18-67.66-62-73a36.61,36.61,0,0,0-5.38-.44,50,50,0,0,0-15,1.59S367.63,411.72,362.6,416A23.42,23.42,0,0,1,377.68,398.76Z" transform="translate(-2 -13.15)"/><path class="cls-23" d="M377.68,398.76c5.47-2,32.5-7.38,34.66-7.82,14-2.83,35.85-.47,56.57,20.17,26.82,26.73,29.73,60.17,29.73,60.17l-28.76,6.08h-9c-1.32-20.82-24.18-67.66-62-73a36.61,36.61,0,0,0-5.38-.44,50,50,0,0,0-15,1.59S367.63,411.72,362.6,416A23.42,23.42,0,0,1,377.68,398.76Z" transform="translate(-2 -13.15)"/><path class="cls-19" d="M460.89,477.38c-1.6-24.24-32.6-84.29-82.38-71.86,0,0-10.92,6.19-15.94,10.4a23.62,23.62,0,0,1,15.12-17.18c13.12-4.8,38.52-5.37,62.48,18.5C467,444,469.85,477.38,469.85,477.38Z" transform="translate(-2 -13.15)"/><path class="cls-20" d="M460.89,477.38c-1.6-24.24-32.6-84.29-82.38-71.86,0,0-10.92,6.19-15.94,10.4a23.62,23.62,0,0,1,15.12-17.18c13.12-4.8,38.52-5.37,62.48,18.5C467,444,469.85,477.38,469.85,477.38Z" transform="translate(-2 -13.15)"/><path class="cls-19" d="M389.6,482.23c2.2-1.59,13.92-21.61,50.38-36.8,22.5-9.37,66.42-5.74,86.06-3.54,34.4,3.87,41.92,12,41.87,17.1,0,1.21-.07,6.83,0,8.11a4.92,4.92,0,0,1-1,3.19c-5.92,7.33-35,18.19-35,18.19-41.91-16.06-96.34-14.29-142.21,2Z" transform="translate(-2 -13.15)"/><path class="cls-2" d="M389.6,482.23c2.2-1.59,13.92-21.61,50.38-36.8,22.5-9.37,66.42-5.74,86.06-3.54,34.4,3.87,41.92,12,41.87,17.1,0,1.21-.07,6.83,0,8.11a4.92,4.92,0,0,1-1,3.19c-5.92,7.33-35,18.19-35,18.19-41.91-16.06-96.34-14.29-142.21,2Z" transform="translate(-2 -13.15)"/><path class="cls-19" d="M389.6,490.51c45.87-16.32,100.3-18.09,142.21-2,0,0,29.12-10.86,35-18.18C570,466.24,568.59,455,526,450.17c-19.64-2.21-63.56-5.84-86.06,3.54C403.52,468.9,391.8,488.92,389.6,490.51Z" transform="translate(-2 -13.15)"/><path class="cls-20" d="M389.6,490.51c45.87-16.32,100.3-18.09,142.21-2,0,0,29.12-10.86,35-18.18C570,466.24,568.59,455,526,450.17c-19.64-2.21-63.56-5.84-86.06,3.54C403.52,468.9,391.8,488.92,389.6,490.51Z" transform="translate(-2 -13.15)"/></g><path class="cls-17" d="M448.14,615.08a11.37,11.37,0,0,0-11.77-10.77,10.77,10.77,0,0,0-2.9.53,13.13,13.13,0,0,0,8.19,9.73A12.23,12.23,0,0,0,448.14,615.08Z" transform="translate(-2 -13.15)"/><path class="cls-5" d="M441.48,705.08c-3.12-10.82-6.87-16.69-20.41-18.71-16.49-2.45-40.78-18.42-50-32.15l.63,20.18s3.23,15.27,29.89,27A64.19,64.19,0,0,0,441.48,705.08Z" transform="translate(-2 -13.15)"/><path class="cls-5" d="M441.48,705.08c3.31-15.88,6.17-16.08,9.18-21S448,673,448,673l.27-13.3s10.11,9.75,10.64,17.26S469.89,700.85,441.48,705.08Z" transform="translate(-2 -13.15)"/><path class="cls-24" d="M433.93,691.28c-10.75-4.54-25.06,31.17-25.06,31.17s-30.17-8.37-43-19.89c-18.45-16.6-19.6-26.38-19.6-26.38s19.31-32.4,24.28-33.36l.35,9.6s5.71,12,23.48,22S429.57,685.83,433.93,691.28Z" transform="translate(-2 -13.15)"/><path class="cls-24" d="M446,690.84c2.64-3.9,8.81-3.78,13.42,2.81,2.78,4,12.18,21,12.18,21a64.56,64.56,0,0,0-2.34-34.87c-6.64-18.22-13.8-27.93-20.82-28.34L448,673a14.2,14.2,0,0,1,.41,9.48A73.71,73.71,0,0,0,446,690.84Z" transform="translate(-2 -13.15)"/><g id="Arm"><path class="cls-14" d="M303.54,687.05c13.07,2.61,35.5,52.08,34.59,102.79l4.37,159.23L433.62,988c-16.57,9.58-29.41,45.29-30.46,70.5-12.51-1.39-80.71-13-124.61-32.63-20.35-9.11-31.31-16.16-34.47-73.34-3.5-63.28-10.67-133-6.93-181C241.05,721.33,254.76,700.8,303.54,687.05Z" transform="translate(-2 -13.15)"/><path class="cls-16" d="M342.5,949.07c-19.21-3.68-40.86,5.17-53.13,16.75a48.26,48.26,0,0,1,26.57-22.63c19.2-6.79,26.3-3.7,26.3-3.7Z" transform="translate(-2 -13.15)"/><path class="cls-8" d="M428.78,986.23s15.28,5.13,26.66,10.15c0,0-15,5.69-26.66,21.71s-11.3,43.3-11.3,43.3L392.91,1057s-5-24.07,7.06-46.26S428.78,986.23,428.78,986.23Z" transform="translate(-2 -13.15)"/></g></g></g><polygon class="cls-1" points="784.97 1397.76 784.96 1803.32 772.98 1796.4 772.98 1390.83 784.97 1397.76"/><polygon class="cls-25" points="784.97 1397.76 784.96 1803.32 772.98 1796.4 772.98 1390.83 784.97 1397.76"/><polygon class="cls-1" points="784.96 1397.76 784.96 1803.32 796.95 1796.4 796.95 1390.83 784.96 1397.76"/><polygon class="cls-26" points="784.96 1397.76 784.96 1803.32 796.95 1796.4 796.95 1390.83 784.96 1397.76"/><polygon class="cls-1" points="415.15 1184.24 415.15 1589.81 403.16 1582.89 403.16 1177.32 415.15 1184.24"/><polygon class="cls-25" points="415.15 1184.24 415.15 1589.81 403.16 1582.89 403.16 1177.32 415.15 1184.24"/><polygon class="cls-1" points="415.15 1184.24 415.15 1589.81 427.13 1582.89 427.14 1177.32 415.15 1184.24"/><polygon class="cls-26" points="415.15 1184.24 415.15 1589.81 427.13 1582.89 427.14 1177.32 415.15 1184.24"/><polygon class="cls-1" points="1401.51 1041.79 1401.51 1447.36 1389.52 1440.44 1389.52 1034.87 1401.51 1041.79"/><polygon class="cls-1" points="1401.5 1041.79 1401.51 1447.36 1413.49 1440.44 1413.49 1034.87 1401.5 1041.79"/><polygon class="cls-1" points="784.97 1333.71 784.97 1419.1 403.17 1198.67 403.16 1113.29 784.97 1333.71"/><polygon class="cls-25" points="784.97 1333.71 784.97 1419.1 403.17 1198.67 403.16 1113.29 784.97 1333.71"/><polygon class="cls-1" points="784.97 1419.1 1413.49 1056.22 1413.5 1013.53 784.97 1376.41 784.97 1419.1"/><polygon class="cls-26" points="784.97 1419.1 1413.49 1056.22 1413.5 1013.53 784.97 1376.41 784.97 1419.1"/><g id="Desk"><polygon class="cls-1" points="784.97 1376.41 366.19 1134.63 1031.7 750.4 1450.47 992.18 784.97 1376.41"/><polygon class="cls-10" points="784.97 1376.41 366.19 1134.63 1031.7 750.4 1450.47 992.18 784.97 1376.41"/><polygon class="cls-1" points="366.19 1134.63 366.19 1155.98 784.97 1397.76 784.97 1376.41 366.19 1134.63"/><polygon class="cls-9" points="366.19 1134.63 366.19 1155.98 784.97 1397.76 784.97 1376.41 366.19 1134.63"/><polygon class="cls-1" points="784.97 1397.76 1450.47 1013.53 1450.47 992.18 784.97 1376.41 784.97 1397.76"/><polygon class="cls-12" points="784.97 1397.76 1450.47 1013.53 1450.47 992.18 784.97 1376.41 784.97 1397.76"/></g><g id="Clipboard"><g id="List"><path class="cls-1" d="M946.5,984.55v4.08a4.44,4.44,0,0,0,2,3.48l226.29,130.65a4.45,4.45,0,0,0,4,0l162.1-93.59a4.45,4.45,0,0,0,2-3.48v-4.08a4.45,4.45,0,0,0-2-3.48L1114.63,887.48a4.45,4.45,0,0,0-4,0l-162.1,93.59A4.44,4.44,0,0,0,946.5,984.55Z" transform="translate(-2 -13.15)"/><path class="cls-27" d="M1341.19,1018.31c.84.64.74,1.56-.27,2.14L1178.82,1114a4,4,0,0,1-2,.48v8.73a4.24,4.24,0,0,0,2-.49l162.1-93.59a4.42,4.42,0,0,0,2-3.48v-4.08A4.49,4.49,0,0,0,1341.19,1018.31Z" transform="translate(-2 -13.15)"/><path class="cls-28" d="M948.19,981.29a.43.43,0,0,0-.1.09,1,1,0,0,0-.16.14l-.07.05-.27.28,0,0a4.58,4.58,0,0,0-1,2.18,4.12,4.12,0,0,0,0,.48v4.08a4.45,4.45,0,0,0,2,3.48l226.29,130.65a4.1,4.1,0,0,0,2,.49v-8.73a4,4,0,0,1-2-.48L948.5,983.4a1.69,1.69,0,0,1-.76-.8,1.07,1.07,0,0,1,.24-1.11A2,2,0,0,1,948.19,981.29Z" transform="translate(-2 -13.15)"/><g class="cls-29"><path d="M946.65,983.55a3.6,3.6,0,0,0-.14.76c0-.08,0-.16,0-.24A4.76,4.76,0,0,1,946.65,983.55Z" transform="translate(-2 -13.15)"/><path d="M1340.93,1020.46,1178.82,1114a4.07,4.07,0,0,1-2,.48,4.19,4.19,0,0,1-2-.48L948.5,983.39a1.56,1.56,0,0,1-.75-.79,1.05,1.05,0,0,1,.24-1.1.61.61,0,0,1,.16-.16s0,0,0,0a3,3,0,0,1,.31-.22l162.11-93.61a4.53,4.53,0,0,1,4,0l226.29,130.65.26.18,0,0C1342,1019,1341.92,1019.88,1340.93,1020.46Z" transform="translate(-2 -13.15)"/><path class="cls-2" d="M947.73,981.72l-.16.18,0,0A.92.92,0,0,0,947.73,981.72Z" transform="translate(-2 -13.15)"/></g><path class="cls-7" d="M1007.77,926.66c0,3.65,5.08,7.48,6.49,10.72a6.79,6.79,0,0,1,.29.82c-.7,2.31-2.82,3.9-3.27,5.45a3.65,3.65,0,0,0-.17,1.05v3.07a15,15,0,0,0,.29,2.13,13.48,13.48,0,0,1-.53,2.25,13.54,13.54,0,0,0-.74,3.85c0,.53,0,2.51,0,3a2.69,2.69,0,0,0,1.53,2.76l9.08,5.24,67.93-39.23v-3l-9.07-5.24c-.75-.43-1.68-.87-4.58-.88h-.6c-1.51,0-3.52.15-6.21.44a55.19,55.19,0,0,1-10.23.23c-.93-.06-1.76-.11-2.62-.1a17.73,17.73,0,0,0-1.88.09c-3.9.38-8,2.83-15.84,1.76l-.24,0c-5.58-.8-12.16-3.72-18.46-3.74h-.63a15,15,0,0,0-7.19,1.93c-2.44,1.42-3.34,2.91-3.35,4.44C1007.76,924.16,1007.77,926.18,1007.77,926.66Zm10.31,2.1a4.19,4.19,0,0,1,1.64-1.59,8.08,8.08,0,0,1,1.69-.7c3.51-1,8.63-.32,12.43,1.87a8.7,8.7,0,0,1,3.66,3.56,4.17,4.17,0,0,1-1.64,1.58c-2.22,1.29-5.79,1.49-9.23.71a17.27,17.27,0,0,1-4.9-1.87A8.61,8.61,0,0,1,1018.08,928.76Z" transform="translate(-2 -13.15)"/><path class="cls-8" d="M1075,918.62h-.6c-1.51,0-3.52.15-6.21.44a55.19,55.19,0,0,1-10.23.23c-.93-.06-1.76-.11-2.62-.1a17.73,17.73,0,0,0-1.88.09c-3.9.38-8,2.83-15.84,1.76l-.24,0c-5.58-.8-12.16-3.72-18.46-3.74h-.63a15,15,0,0,0-7.19,1.93c-8.3,4.8,1.15,10.57,3.14,15.18s-2.32,7-3,9.28,1.17,3.51-.41,8.5-.36,5.91.79,6.57l9.08,5.25,67.93-39.23-9.07-5.24C1078.85,919.07,1077.92,918.63,1075,918.62Zm-50.92,38.19a4.22,4.22,0,0,1-3.73-.31c-1.18-.68-1.43-1.66-.55-2.17a4.24,4.24,0,0,1,3.74.32C1024.74,955.33,1025,956.29,1024.1,956.81Zm11.76-23.33c-2.22,1.29-5.79,1.49-9.23.71a17.27,17.27,0,0,1-4.9-1.87c-4.46-2.58-5.36-6.23-2-8.16a7.6,7.6,0,0,1,1.69-.71c3.51-1,8.63-.32,12.43,1.87C1038.3,927.9,1039.21,931.55,1035.86,933.48Zm40.65-6.94a4.2,4.2,0,0,1-3.74-.3c-1.18-.68-1.42-1.65-.52-2.16a4.22,4.22,0,0,1,3.73.31C1077.16,925.07,1077.4,926,1076.51,926.54Z" transform="translate(-2 -13.15)"/><path class="cls-24" d="M1170.52,1099.83l141.06-81.44a2.69,2.69,0,0,0,1.21-2.1v-1.57a2.67,2.67,0,0,0-1.21-2.09L1125.22,905a2.71,2.71,0,0,0-2.42,0L981.74,986.47a2.68,2.68,0,0,0-1.2,2.09v1.58a2.68,2.68,0,0,0,1.2,2.09l186.37,107.6A2.69,2.69,0,0,0,1170.52,1099.83Z" transform="translate(-2 -13.15)"/><path class="cls-30" d="M1311.88,1012.85c.35.38.25.86-.29,1.17l-141.06,81.45a2.4,2.4,0,0,1-1.21.28v4.36a2.25,2.25,0,0,0,1.2-.29l141.06-81.44a2.62,2.62,0,0,0,1.21-2.08v-1.58A2.64,2.64,0,0,0,1311.88,1012.85Z" transform="translate(-2 -13.15)"/><path class="cls-5" d="M981.49,986.66a2.48,2.48,0,0,0-.33.32l-.14.19a3.64,3.64,0,0,0-.34.65,2.5,2.5,0,0,0-.12.45c0,.1,0,.2,0,.3v1.56a2.65,2.65,0,0,0,1.2,2.09l186.37,107.6a2.31,2.31,0,0,0,1.21.29v-4.36a2.49,2.49,0,0,1-1.21-.28L981.75,987.87C981.18,987.54,981.09,987,981.49,986.66Z" transform="translate(-2 -13.15)"/><path class="cls-8" d="M1029.56,967v3a7,7,0,0,0,1.58,4.15l83.12-48v-3a18.08,18.08,0,0,0-8.11-2h-.1a13.42,13.42,0,0,0-5.53,1.14c-6,2.74-7.79,3.6-11.47,5.15a6.09,6.09,0,0,1-5.66-.8,1.5,1.5,0,0,1-.13-.11l-2.49-2.28-6.72-6.24s-.84-1-3.19-1h-.17a9.7,9.7,0,0,0-1.58.17,22.79,22.79,0,0,1-6.91-.11c-3-.44-5.88-1.38-7.49-2.86a17.49,17.49,0,0,0-11.57-4.11h-.34a16.91,16.91,0,0,0-7.67,1.83c-4,2.12-5.77,5.59-5,9-.57,2.61.34,5.42,2.89,7.76a6.06,6.06,0,0,1,1.85,3.54,8.18,8.18,0,0,1-1.62,3.86,3.19,3.19,0,0,0-.9,2v3a2,2,0,0,0,.74,1.52l7.79,7.13,2.49,2.29a3.5,3.5,0,0,1,.27.28,5.5,5.5,0,0,1-.57.82L1033,961C1030.55,963.16,1029.56,965.13,1029.56,967Zm22.19-45.58a5.86,5.86,0,0,1-2.91,3.08,11.5,11.5,0,0,1-8.73.51,9.54,9.54,0,0,1-3.33-1.91,5.89,5.89,0,0,1-1.6-2.32,6,6,0,0,1,2.93-3.09,9.26,9.26,0,0,1,1.16-.51c3.6-1.28,8.21-.53,10.87,1.91A5.85,5.85,0,0,1,1051.75,921.39Z" transform="translate(-2 -13.15)"/><path class="cls-7" d="M1106.15,921.14h-.1a13.42,13.42,0,0,0-5.53,1.14c-6,2.74-7.79,3.6-11.47,5.15a6.09,6.09,0,0,1-5.66-.8,1.5,1.5,0,0,1-.13-.11l-2.49-2.28-6.72-6.24s-.84-1-3.19-1h-.17a9.7,9.7,0,0,0-1.58.17,22.79,22.79,0,0,1-6.91-.11c-3-.44-5.88-1.38-7.49-2.86a17.49,17.49,0,0,0-11.57-4.11h-.34a16.91,16.91,0,0,0-7.67,1.83c-6,3.16-7,9.29-2.14,13.71,3,2.78,2.16,8.14.23,10.42s-.16,3.54-.16,3.54l7.79,7.14,2.49,2.28c1.87,1.7-.3,4.12-.3,4.12L1033,961c-4.33,3.91-4.1,7.09-1.84,10.17l83.12-48A18.08,18.08,0,0,0,1106.15,921.14Zm-56-5.1c3,2.72,2.39,6.49-1.3,8.43a11.5,11.5,0,0,1-8.73.51,9.54,9.54,0,0,1-3.33-1.91c-3-2.71-2.37-6.49,1.33-8.43a11,11,0,0,1,1.16-.51C1042.87,912.85,1047.48,913.6,1050.14,916Z" transform="translate(-2 -13.15)"/></g><path class="cls-1" d="M1045.91,1011.4l44.1,25.46a3.2,3.2,0,0,0,2.86,0l60.88-35.15a.87.87,0,0,0,0-1.65l-44.1-25.46a3.14,3.14,0,0,0-2.86,0l-60.88,35.14A.88.88,0,0,0,1045.91,1011.4Z" transform="translate(-2 -13.15)"/><polygon class="cls-1" points="1089.45 1016.79 1055.9 997.42 1058.21 996.09 1091.76 1015.46 1089.45 1016.79"/><polygon class="cls-7" points="1091.26 1018.44 1094.61 1016.5 1095.64 1017.09 1092.28 1019.03 1091.26 1018.44"/><polygon class="cls-1" points="1093.85 1014.25 1067.01 998.75 1069.32 997.42 1096.16 1012.92 1093.85 1014.25"/><polygon class="cls-7" points="1095.65 1015.9 1099.01 1013.96 1100.04 1014.55 1096.68 1016.49 1095.65 1015.9"/><polygon class="cls-1" points="1100.56 1010.38 1071.41 993.55 1073.72 992.21 1102.87 1009.04 1100.56 1010.38"/><polygon class="cls-7" points="1102.37 1012.01 1105.72 1010.08 1106.75 1010.67 1103.39 1012.61 1102.37 1012.01"/><polygon class="cls-1" points="1104.96 1007.84 1080.84 993.91 1083.15 992.58 1107.27 1006.5 1104.96 1007.84"/><polygon class="cls-7" points="1106.76 1009.47 1110.12 1007.53 1111.15 1008.13 1107.79 1010.07 1106.76 1009.47"/><polygon class="cls-1" points="1111.67 1003.97 1098.22 996.2 1100.54 994.87 1113.98 1002.63 1111.67 1003.97"/><polygon class="cls-7" points="1113.46 1005.61 1116.82 1003.67 1117.85 1004.27 1114.49 1006.2 1113.46 1005.61"/><polygon class="cls-1" points="1116.08 1001.43 1100.81 992.61 1103.12 991.28 1118.38 1000.09 1116.08 1001.43"/><polygon class="cls-7" points="1117.86 1003.07 1121.22 1001.13 1122.24 1001.73 1118.89 1003.66 1117.86 1003.07"/><polygon class="cls-1" points="1122.78 997.55 1104.38 986.93 1106.69 985.6 1125.09 996.22 1122.78 997.55"/><polygon class="cls-7" points="1124.62 999.18 1127.97 997.24 1129 997.84 1125.65 999.77 1124.62 999.18"/><polygon class="cls-1" points="1127.18 995.01 1115.21 988.1 1117.52 986.76 1129.49 993.68 1127.18 995.01"/><polygon class="cls-7" points="1129.02 996.64 1132.37 994.7 1133.4 995.3 1130.04 997.23 1129.02 996.64"/><polygon class="cls-1" points="1133.89 991.13 1128.66 988.12 1130.97 986.78 1136.2 989.8 1133.89 991.13"/><polygon class="cls-1" points="1089.45 1016.79 1055.9 997.42 1058.21 996.09 1091.76 1015.46 1089.45 1016.79"/><polygon class="cls-1" points="1100.56 1010.38 1071.41 993.55 1073.72 992.21 1102.87 1009.04 1100.56 1010.38"/><polygon class="cls-1" points="1111.67 1003.97 1098.22 996.2 1100.54 994.87 1113.98 1002.63 1111.67 1003.97"/><polygon class="cls-1" points="1122.78 997.55 1104.38 986.93 1106.69 985.6 1125.09 996.22 1122.78 997.55"/><polygon class="cls-1" points="1133.89 991.13 1128.66 988.12 1130.97 986.78 1136.2 989.8 1133.89 991.13"/><polygon class="cls-7" points="1135.72 992.76 1139.08 990.82 1140.1 991.42 1136.75 993.35 1135.72 992.76"/><polygon class="cls-1" points="1138.29 988.6 1135.69 987.09 1138 985.76 1140.6 987.26 1138.29 988.6"/><polygon class="cls-7" points="1140.12 990.22 1143.47 988.28 1144.5 988.88 1141.15 990.81 1140.12 990.22"/><polygon class="cls-1" points="1088.27 977.37 1085.75 978.82 1088.27 980.28 1090.78 978.82 1088.27 977.37"/><polygon class="cls-26" points="1088.27 977.37 1085.75 978.82 1088.27 980.28 1090.78 978.82 1088.27 977.37"/><path class="cls-7" d="M1110.09,979.48l-18,10.39c-.37.21-.36.54,0,.75l.49.29a1.51,1.51,0,0,0,1.31,0l18-10.39c.37-.2.37-.54,0-.75l-.49-.29A1.51,1.51,0,0,0,1110.09,979.48Z" transform="translate(-2 -13.15)"/><polygon class="cls-1" points="1092.46 979.79 1089.94 981.25 1092.46 982.7 1094.98 981.25 1092.46 979.79"/><path class="cls-7" d="M1114.29,981.91l-18,10.38c-.36.21-.36.55,0,.75l.49.29a1.46,1.46,0,0,0,1.32,0l18-10.38a.4.4,0,0,0,0-.76l-.49-.28A1.44,1.44,0,0,0,1114.29,981.91Z" transform="translate(-2 -13.15)"/><polygon class="cls-1" points="1089.45 1016.79 1055.9 997.42 1058.21 996.09 1091.76 1015.46 1089.45 1016.79"/><polygon class="cls-1" points="1100.56 1010.38 1071.41 993.55 1073.72 992.21 1102.87 1009.04 1100.56 1010.38"/><polygon class="cls-1" points="1111.67 1003.97 1098.22 996.2 1100.54 994.87 1113.98 1002.63 1111.67 1003.97"/><polygon class="cls-1" points="1122.78 997.55 1104.38 986.93 1106.69 985.6 1125.09 996.22 1122.78 997.55"/><polygon class="cls-1" points="1089.45 1016.79 1055.9 997.42 1058.21 996.09 1091.76 1015.46 1089.45 1016.79"/><polygon class="cls-1" points="1100.56 1010.38 1071.41 993.55 1073.72 992.21 1102.87 1009.04 1100.56 1010.38"/><polygon class="cls-1" points="1111.67 1003.97 1098.22 996.2 1100.54 994.87 1113.98 1002.63 1111.67 1003.97"/><polygon class="cls-1" points="1122.78 997.55 1104.38 986.93 1106.69 985.6 1125.09 996.22 1122.78 997.55"/><polygon class="cls-1" points="1133.89 991.13 1128.66 988.12 1130.97 986.78 1136.2 989.8 1133.89 991.13"/><polygon class="cls-26" points="1089.45 1016.79 1055.9 997.42 1058.21 996.09 1091.76 1015.46 1089.45 1016.79"/><polygon class="cls-26" points="1100.56 1010.38 1071.41 993.55 1073.72 992.21 1102.87 1009.04 1100.56 1010.38"/><polygon class="cls-26" points="1111.67 1003.97 1098.22 996.2 1100.54 994.87 1113.98 1002.63 1111.67 1003.97"/><polygon class="cls-26" points="1122.78 997.55 1104.38 986.93 1106.69 985.6 1125.09 996.22 1122.78 997.55"/><polygon class="cls-26" points="1133.89 991.13 1128.66 988.12 1130.97 986.78 1136.2 989.8 1133.89 991.13"/><path class="cls-1" d="M1107.88,1047.16,1166,1080.7a4.17,4.17,0,0,0,3.77,0l60-34.63a1.14,1.14,0,0,0,0-2.17l-58.08-33.54a4.17,4.17,0,0,0-3.77,0l-60,34.63A1.14,1.14,0,0,0,1107.88,1047.16Z" transform="translate(-2 -13.15)"/><polygon class="cls-1" points="1116.15 1031.01 1112.84 1032.93 1116.16 1034.84 1119.46 1032.93 1116.15 1031.01"/><path class="cls-7" d="M1131.22,1037.6l-10.94,6.31a.31.31,0,0,0,0,.59l.91.53a1.13,1.13,0,0,0,1,0l10.94-6.31a.31.31,0,0,0,0-.59l-.9-.52A1.12,1.12,0,0,0,1131.22,1037.6Z" transform="translate(-2 -13.15)"/><polygon class="cls-1" points="1134.92 1020.17 1131.61 1022.08 1134.92 1023.99 1138.23 1022.08 1134.92 1020.17"/><polygon class="cls-26" points="1134.92 1020.17 1131.61 1022.08 1134.92 1023.99 1138.23 1022.08 1134.92 1020.17"/><path class="cls-7" d="M1150.18,1026.78l-10.94,6.31a.32.32,0,0,0,0,.6l.91.52a1.12,1.12,0,0,0,1,0l10.93-6.31c.29-.16.29-.43,0-.6l-.9-.52A1.19,1.19,0,0,0,1150.18,1026.78Z" transform="translate(-2 -13.15)"/><polygon class="cls-1" points="1153.69 1009.32 1150.37 1011.24 1153.69 1013.15 1157 1011.24 1153.69 1009.32"/><polygon class="cls-25" points="1153.69 1009.32 1150.37 1011.24 1153.69 1013.15 1157 1011.24 1153.69 1009.32"/><path class="cls-7" d="M1169.15,1016l-11,6.31a.32.32,0,0,0,0,.6l.91.52a1.19,1.19,0,0,0,1,0l10.93-6.31c.29-.17.29-.43,0-.6l-.9-.52A1.17,1.17,0,0,0,1169.15,1016Z" transform="translate(-2 -13.15)"/><path class="cls-1" d="M1190.15,1036.36c-.28-.14-.57-.27-.88-.39l-.76-.32a35.7,35.7,0,0,0-6.19-1.75c-.67-.13-1.38-.24-2.06-.35a36.41,36.41,0,0,0-4.2-.37c-.71,0-1.41,0-2.12,0s-1.13,0-1.7.06-1,0-1.4.09c-.69.06-1.36.13-2,.21-.4,0-.82.11-1.2.19a6.75,6.75,0,0,0-.72.12c-.35.06-.71.13-1.06.21-1.24.26-2.45.58-3.61.94-.41.15-.85.29-1.24.44s-1,.38-1.47.59a15,15,0,0,0-1.4.65c-.45.22-.9.46-1.33.71-9.77,5.64-9.77,14.78,0,20.42s25.58,5.63,35.34,0,9.75-14.77,0-20.4C1191.48,1037,1190.82,1036.67,1190.15,1036.36Zm-1.9,19.18a27.35,27.35,0,0,1-12.93,3.28c-.23,0-.48,0-.74,0s-.56,0-.8,0l-.72,0a27.07,27.07,0,0,1-12.45-3.24c-7.64-4.41-7.64-11.55,0-16a21.69,21.69,0,0,1,2.7-1.3,22.51,22.51,0,0,1,2.23-.77c.38-.12.76-.22,1.15-.31s.66-.16,1-.22.78-.17,1.2-.23a9.51,9.51,0,0,1,1.07-.16l.33,0,1.53-.15a.75.75,0,0,1,.21,0s0,0,0,0a12,12,0,0,1,1.61-.07c.47,0,.92,0,1.35,0a31.14,31.14,0,0,1,5.58.57,24.7,24.7,0,0,1,7.66,2.73C1195.87,1044,1195.87,1051.14,1188.25,1055.54Z" transform="translate(-2 -13.15)"/><path class="cls-26" d="M1182.32,1033.9l-1.73,3a31.14,31.14,0,0,0-5.58-.57c-.43,0-.88,0-1.35,0a12,12,0,0,0-1.61.07s0,0,0,0a.75.75,0,0,0-.21,0c-.51,0-1,.08-1.53.15l-.33,0a9.51,9.51,0,0,0-1.07.16c-.42.06-.8.14-1.2.23s-.64.13-1,.22-.77.19-1.15.31a22.51,22.51,0,0,0-2.23.77,19.78,19.78,0,0,0-2.7,1.3l-3.85-2.23c.43-.25.88-.49,1.33-.71a15,15,0,0,1,1.4-.65c.46-.21,1-.41,1.47-.59s.83-.29,1.24-.44c1.16-.36,2.37-.68,3.61-.94.35-.08.71-.15,1.06-.21a6.75,6.75,0,0,1,.72-.12c.38-.08.8-.14,1.2-.19.69-.08,1.36-.15,2-.21.45,0,.92-.07,1.4-.09s1.13,0,1.7-.06,1.41,0,2.12,0c1.42.06,2.82.19,4.2.37C1180.94,1033.66,1181.65,1033.77,1182.32,1033.9Z" transform="translate(-2 -13.15)"/><path class="cls-25" d="M1192.1,1037.37l-3.85,2.23a24.7,24.7,0,0,0-7.66-2.73l1.73-3a35.7,35.7,0,0,1,6.19,1.75l.76.32c.31.12.6.25.88.39C1190.82,1036.67,1191.48,1037,1192.1,1037.37Z" transform="translate(-2 -13.15)"/><polygon class="cls-1" points="1029.46 989.53 1148.72 920.67 1136.56 913.64 1017.29 982.51 1029.46 989.53"/><path class="cls-7" d="M1122.35,972.26a1,1,0,0,1-.87-.5,1,1,0,0,1,.37-1.36l47-27.12a1,1,0,0,1,1,1.73l-47,27.12A1,1,0,0,1,1122.35,972.26Z" transform="translate(-2 -13.15)"/><path class="cls-7" d="M1130.45,977a1,1,0,0,1-.86-.5,1,1,0,0,1,.36-1.37l47-27.12a1,1,0,0,1,1,1.73l-47,27.12A1,1,0,0,1,1130.45,977Z" transform="translate(-2 -13.15)"/><path class="cls-7" d="M1138.56,981.63a1,1,0,0,1-.5-1.87l47-27.12a1,1,0,1,1,1,1.73l-47,27.12A1,1,0,0,1,1138.56,981.63Z" transform="translate(-2 -13.15)"/><path class="cls-7" d="M1146.66,986.31a1,1,0,0,1-.86-.5,1,1,0,0,1,.36-1.37l47-27.12a1,1,0,0,1,1,1.73l-47,27.12A1,1,0,0,1,1146.66,986.31Z" transform="translate(-2 -13.15)"/><path class="cls-7" d="M1154.77,991a1,1,0,0,1-.86-.5,1,1,0,0,1,.36-1.37l47-27.12a1,1,0,1,1,1,1.73l-47,27.12A1,1,0,0,1,1154.77,991Z" transform="translate(-2 -13.15)"/><path class="cls-7" d="M1187.23,1009.69a1,1,0,0,1-.5-1.86l47-27.12a1,1,0,0,1,1.36.36,1,1,0,0,1-.36,1.37l-47,27.12A1,1,0,0,1,1187.23,1009.69Z" transform="translate(-2 -13.15)"/><path class="cls-7" d="M1195.34,1014.37a1,1,0,0,1-.87-.49,1,1,0,0,1,.37-1.37l47-27.12a1,1,0,1,1,1,1.73l-47,27.12A1,1,0,0,1,1195.34,1014.37Z" transform="translate(-2 -13.15)"/><path class="cls-7" d="M1203.45,1019.05a1,1,0,0,1-.87-.49,1,1,0,0,1,.37-1.37l47-27.12a1,1,0,0,1,1.36.36,1,1,0,0,1-.36,1.37l-47,27.12A1,1,0,0,1,1203.45,1019.05Z" transform="translate(-2 -13.15)"/><path class="cls-7" d="M1211.55,1023.74a1,1,0,0,1-.5-1.87l47-27.12a1,1,0,0,1,1.36.36,1,1,0,0,1-.36,1.37l-47,27.12A1,1,0,0,1,1211.55,1023.74Z" transform="translate(-2 -13.15)"/><path class="cls-7" d="M1219.66,1028.42a1,1,0,0,1-.87-.5,1,1,0,0,1,.37-1.37l47-27.12a1,1,0,0,1,1.37.37,1,1,0,0,1-.37,1.36l-47,27.12A1,1,0,0,1,1219.66,1028.42Z" transform="translate(-2 -13.15)"/><path class="cls-7" d="M1227.75,1033.1a1,1,0,0,1-.5-1.86l47-27.12a1,1,0,0,1,1,1.73l-47,27.12A1,1,0,0,1,1227.75,1033.1Z" transform="translate(-2 -13.15)"/></g><g id="Folder"><polygon class="cls-16" points="924 1075.59 708.27 1200.13 880.43 1299.52 1095.59 1175.3 924 1075.59"/><path class="cls-1" d="M1088.81,1181.49c3.24-1.87,3.24-4.91,0-6.79l-165.74-96.3L707.35,1202.93l166.29,96a13,13,0,0,0,11.74,0l123.21-71.13,20.62,3.88a5.59,5.59,0,0,0,3.84-.65l51.13-29.46a5.61,5.61,0,0,0,1.89-7.95l-5.41-7.44Z" transform="translate(-2 -13.15)"/><path class="cls-2" d="M1088.81,1181.49c3.24-1.87,3.24-4.91,0-6.79l-165.74-96.3L707.35,1202.93l166.29,96a13,13,0,0,0,11.74,0l123.21-71.13,20.62,3.88a5.59,5.59,0,0,0,3.84-.65l51.13-29.46a5.61,5.61,0,0,0,1.89-7.95l-5.41-7.44Z" transform="translate(-2 -13.15)"/><polygon class="cls-30" points="921.08 1065.24 712.65 1185.57 877.51 1280.82 1092.68 1156.59 921.08 1065.24"/><path class="cls-1" d="M707.35,1202.93l166,77.11a14.62,14.62,0,0,0,12-.53l203.43-117.45c3.24-1.87,3.12-4.68-.27-6.26l-165.46-77.4Z" transform="translate(-2 -13.15)"/></g><g id="Laptop"><path id="Shadow-9" data-name="Shadow" class="cls-6" d="M916.1,1058.85,763.93,971a8.72,8.72,0,0,0-8.75,0l-264,152.43a1.94,1.94,0,0,0,0,3.37l153.59,88.69Z" transform="translate(-2 -13.15)"/><path class="cls-8" d="M904.74,1040.35v3.41a14.07,14.07,0,0,1-7,12.18l-245.9,142a13.91,13.91,0,0,1-7,1.86,14.11,14.11,0,0,1-7.07-1.88l-134-77.13a14.11,14.11,0,0,1-7-12.18v-4.73h0v.05a1.75,1.75,0,0,0,.89,1.54l147.2,85Z" transform="translate(-2 -13.15)"/><path class="cls-7" d="M644.8,1190.42v9.35a14,14,0,0,0,7-1.86l245.9-142a14.06,14.06,0,0,0,7-12.18v-3.43Z" transform="translate(-2 -13.15)"/><path class="cls-21" d="M904.75,1040.33,759,956.16a8.41,8.41,0,0,0-8.38,0l-253,146.06a1.87,1.87,0,0,0,0,3.23l147.18,85Z" transform="translate(-2 -13.15)"/><polygon class="cls-8" points="641.45 1164.9 562.81 1119.54 792.76 986.78 871.81 1031.9 641.45 1164.9"/><polygon class="cls-7" points="871.81 1031.9 868.8 1033.63 792.75 990.23 565.83 1121.28 562.82 1119.55 792.75 986.78 871.81 1031.9"/><polygon class="cls-7" points="602.8 1038.73 604.25 1039.56 642.79 1061.81 711.34 1022.24 712.77 1021.42 672.77 998.34 602.8 1038.73"/><polygon class="cls-8" points="604.25 1039.56 642.79 1061.81 711.34 1022.24 672.77 999.99 604.25 1039.56"/><path class="cls-13" d="M657.1,1054.94c-6.48-1.12-17.63,20.13-30.63,17.43s-36.19-4.75-49.11-1.69-31.11,12-47,10.1c-13.37-1.61-33.61-4.22-57.08-8.77-23-4.47-40.21-7.57-55.83-10.63,0,0-.36-27.25,11.31-43.27s26.65-21.73,26.65-21.73l63.64,24.43c24.87,1.25,39.24-6.76,55-15.66,3.46-1.93,7-3.74,10.63-5.43s8.33-2.05,12.39-2.5c9.34-1,17.63-.88,27.82-2.41a3.75,3.75,0,0,1,2.09.36c1.69,1,1.29,3.54.4,5.27a25,25,0,0,1-10.34,9.9c-4.31,2.38-8.94,3.55-13.45,5.32a71.87,71.87,0,0,1,10.07,1.25c14.37,2,33.24,14.36,46.37,23.38S663.54,1056.11,657.1,1054.94Z" transform="translate(-2 -13.15)"/><path class="cls-17" d="M596.74,1009.49c-8.94.7-17.92,6.33-17.92,6.33a102.69,102.69,0,0,1,24.84-.17c4.51-1.76,9.14-2.94,13.42-5.3a26.06,26.06,0,0,0,9.49-8.46C620.17,1008.17,605.68,1008.79,596.74,1009.49Z" transform="translate(-2 -13.15)"/><path class="cls-8" d="M648.76,1192.5a16.64,16.64,0,0,0,14.35-1.11L907.93,1050a16.66,16.66,0,0,0,8.1-11.64l26.8-159.84a16.76,16.76,0,0,0-4.7-14.57L683.71,1010.91a12.3,12.3,0,0,0-6,8.61Z" transform="translate(-2 -13.15)"/><path class="cls-7" d="M644.8,1190.43l1.67,1a19.33,19.33,0,0,0,2.29,1.11l29-173a12.3,12.3,0,0,1,6-8.61L938.13,864a17.2,17.2,0,0,0-3.4-2.58L679.79,1008.59a12.4,12.4,0,0,0-6,8.62Z" transform="translate(-2 -13.15)"/><path class="cls-7" d="M680.09,1014.17l-3.94-2.28a12.3,12.3,0,0,0-2.34,5.32l-29,173.22,1.67,1a19.33,19.33,0,0,0,2.29,1.11l29-173A12.21,12.21,0,0,1,680.09,1014.17Z" transform="translate(-2 -13.15)"/><path class="cls-1" d="M786.64,1045c1.8-10.7,12.85-24.92,24.68-31.75s20-3.69,18.18,7-12.84,24.91-24.68,31.75S784.85,1055.65,786.64,1045Z" transform="translate(-2 -13.15)"/></g></g><g id="Character-4" data-name="Character"><g id="Legs"><path class="cls-24" d="M1195.09,1494.85s.06-18.92,13.4-25.27c0,0,4.26-2.5,7.73.24,0,0-12.66,3.15-14.67,25.54,0,0-.51,1.52-3.36,1.3C1197.23,1496.58,1195.12,1496.41,1195.09,1494.85Z" transform="translate(-2 -13.15)"/><path class="cls-7" d="M1183.5,1478.41c-20.71.23-32.13-2.42-56.85-2-18.65.34-25.46,23.07-2.93,41.71,6.31,5.23,23,14.78,32.22,17.58,29.3,9,50.46,3.85,65.92,5.68,20.12,2.37,25.39,8,41.84,9.26,21.56,1.61,29.39-1.8,35.1-8.58,6.75-15.57,2.48-21.24,4.81-39.55,1.28-10.11.57-14.39-.52-14.26C1296.36,1487.63,1193.56,1478.3,1183.5,1478.41Z" transform="translate(-2 -13.15)"/><path class="cls-31" d="M1302.59,1489.93c3.2-10.06,12.88-51.51,12.88-51.51s-13.48,9.6-38.64,6.22c-12.79-1.72-21.41-35-21.41-35l-7.29,55.46c-5,12.66-29.46,13.33-53.35,13.59-4,0-8.17-.1-12.33-.3h-.24c-12.81.9-24.62,10.14-10,19.33s36.91,10.57,57.47,11.68C1254.37,1510.72,1295.13,1513.34,1302.59,1489.93Z" transform="translate(-2 -13.15)"/><path class="cls-7" d="M1276.23,1184.3c-7.36,55.6-25.53,255.14-25.53,255.14s32.16,25.33,62.54,10.25c24.74-92.2,73.26-193.86,66.34-258.84Z" transform="translate(-2 -13.15)"/><path class="cls-7" d="M1073,1543.28c-20.7.23-32.13-2.42-56.85-2-18.64.34-25.46,23.07-2.93,41.71,6.31,5.23,23.06,14.78,32.22,17.58,29.3,9,50.46,3.85,65.92,5.68,20.12,2.37,25.39,8,41.84,9.26,21.56,1.61,29.39-1.8,35.1-8.58,6.75-15.57,2.48-21.24,4.81-39.55,1.28-10.12.57-14.39-.52-14.26C1185.9,1552.5,1083.1,1543.17,1073,1543.28Z" transform="translate(-2 -13.15)"/><path class="cls-31" d="M1192.13,1554.8c3.2-10.06,12.88-51.51,12.88-51.51s-13.47,9.6-38.63,6.22c-12.8-1.72-21.42-35-21.42-35l-7.29,55.46c-5,12.66-29.45,13.33-53.34,13.59-4,0-8.17-.11-12.33-.3h-.25c-12.81.9-24.62,10.13-10,19.33s36.91,10.57,57.47,11.68C1143.91,1575.59,1184.67,1578.21,1192.13,1554.8Z" transform="translate(-2 -13.15)"/><path class="cls-8" d="M1171.77,1247c-9.18,42.17-23.48,200.14-33,261.48,0,0,27.67,16.74,63.25,11,14.49-46.56,83.34-211.81,67.52-263.71-10-32.81-45.42-19.41-45.42-19.41Z" transform="translate(-2 -13.15)"/></g><path class="cls-7" d="M1723.66,1688.7l-38.48-321.12-31.44-1.59,54.08,322.67h0a4.24,4.24,0,0,0,2.09,2.82,12.42,12.42,0,0,0,11.21.56c1.69-.86,2.5-2.09,2.46-3.34Z" transform="translate(-2 -13.15)"/><path class="cls-8" d="M1292.72,1338.47h-31.48l-45.82,303.23h0c-.11,1.24.64,2.51,2.29,3.46a12.39,12.39,0,0,0,11.22,0,4.23,4.23,0,0,0,2.23-2.71h0Z" transform="translate(-2 -13.15)"/><path class="cls-7" d="M1261.24,1338.47l-12.79,84.62c5.71,5,17,11.51,24.16,14.79l20.11-99.41Z" transform="translate(-2 -13.15)"/><path class="cls-8" d="M1513.28,1796.35l-29.59-326.52-31.45-1.6,45.21,328.08h0a4.23,4.23,0,0,0,2.1,2.82,12.4,12.4,0,0,0,11.2.56c1.7-.86,2.5-2.09,2.46-3.34Z" transform="translate(-2 -13.15)"/><path class="cls-7" d="M1488,1517.54l-4.32-47.71-31.45-1.6,7.12,51.62C1466.37,1522,1478.85,1520.49,1488,1517.54Z" transform="translate(-2 -13.15)"/><path class="cls-7" d="M1464.57,1238.55h-31.48l-45.82,303.23h0c-.11,1.25.64,2.51,2.29,3.46a12.39,12.39,0,0,0,11.22,0,4.23,4.23,0,0,0,2.23-2.71h0Z" transform="translate(-2 -13.15)"/><path class="cls-32" d="M1241.85,1332.21c-4.42-24.83,15.81-44.21,53.88-69.9s86.73-51.15,110.28-62c31.84-14.62,64.42-13.27,105.19,7.68,56.64,29.1,227.09,132.46,227.09,132.46s-254.83,143.86-303.86,137.41-171.57-86.14-181.28-114.19S1241.85,1332.21,1241.85,1332.21Z" transform="translate(-2 -13.15)"/><g class="cls-33"><path class="cls-3" d="M1241.85,1332.21c-4.42-24.83,15.81-44.21,53.88-69.9s86.73-51.15,110.28-62c31.84-14.62,64.42-13.27,105.19,7.68,56.64,29.1,227.09,132.46,227.09,132.46s-254.83,143.86-303.86,137.41-171.57-86.14-181.28-114.19S1241.85,1332.21,1241.85,1332.21Z" transform="translate(-2 -13.15)"/></g><path class="cls-32" d="M1459,1447.64c-36.58,33.12-74.82,4.62-135.31-34.64-68.46-44.43-81.88-80.79-81.88-80.79s0,27.24,5.1,40,16.18,27.24,65.55,61.29,85.13,51.08,118.32,57.4l26.2-3.62" transform="translate(-2 -13.15)"/><path class="cls-9" d="M1323.73,1413c-68.46-44.43-81.88-80.79-81.88-80.79s0,27.24,5.1,40,16.18,27.24,65.55,61.29,85.12,51.08,118.32,57.4l26.2-3.62,2-39.65C1422.46,1480.76,1384.22,1452.26,1323.73,1413Z" transform="translate(-2 -13.15)"/><g id="Top-2" data-name="Top"><path class="cls-7" d="M1611.09,1200.91s-104.48-30.11-175.74-46c-60.14-13.42-88.92-17.67-106.41-12.17s-27.49,18.32-39.28,41.25c-9.94,19.35-19.07,40.19-19.07,40.19s123.82,61,191.36,68.87S1611.09,1200.91,1611.09,1200.91Z" transform="translate(-2 -13.15)"/><path class="cls-8" d="M1614.61,1200.91c22,63.61,18.5,124.41-20,160.22-22.12,20.56-125.56,78.62-193.11,56.25-66.55-22-190.79-138.36-204.62-148.67s-26.41-17.31-25.09-21.7c18.59-61.69,45.74-66.51,96.11-55.43,61.59,13.55,183.25,82.76,183.25,82.76Z" transform="translate(-2 -13.15)"/><polygon class="cls-31" points="1357.36 841.29 1376.67 919.26 1463.19 891.77 1438.5 807.47 1357.36 841.29"/><path class="cls-7" d="M24.74,1158.25a22.75,22.75,0,1,1,22.75-22.74A22.76,22.76,0,0,1,24.74,1158.25Zm0-41.32a18.58,18.58,0,1,0,18.58,18.58A18.6,18.6,0,0,0,24.74,1116.93Z" transform="translate(-2 -13.15)"/><path class="cls-31" d="M1455.45,871.86c45.68-24.92,90-2.06,106.14,29.45C1581.85,941,1578.71,1003,1578.71,1003,1554.81,979.39,1455.45,871.86,1455.45,871.86Z" transform="translate(-2 -13.15)"/><path class="cls-32" d="M1459,883.89l-3.58-12c51.57-24.5,85,8.25,112.84,78.11,16,40.14,9.21,92.74,14.28,152.56,3.65,43.1,23.33,49.27,42.62,126.32,0,0-28,44-92.52,59.77-65,15.87-153.1,1.86-168.71-47.95,0,0-.54-42-2.64-79.19-1.81-31.92-19.56-81.06-35.09-117.31-14.7-34.3-34.15-98,5.86-121.73,11.71-6.94,23.73-11.59,39.68-19.22C1408.16,915.24,1463.73,898.34,1459,883.89Z" transform="translate(-2 -13.15)"/><path class="cls-31" d="M1273.09,1245.27c-19.79-7.53-31.93-29.87-34.36-44.36s4.07-38.18,11.75-51.38S1273.09,1245.27,1273.09,1245.27Z" transform="translate(-2 -13.15)"/><path class="cls-31" d="M1250.11,1151.8c5.67-34.9,14.9-88.86,26.5-145.75,11.28-55.33,20.55-65.74,49.41-77.72,70,41.67,35.56,136.26,35.56,136.26s-26.81,109.7-41.21,144.48c-9.36,22.61-27.79,48-52.39,33.79S1244.44,1186.7,1250.11,1151.8Z" transform="translate(-2 -13.15)"/><path class="cls-14" d="M1395,821.37c-4.22-5.17-7.51-11-11.62-16.2-4.28-5.45-9.48-10.42-14.3-15.39q-15.18-15.62-31.83-29.69c-14.12-11.92-31.58-22.93-38.31-41.05-4.92-13.22-2.25-30.07,9.25-38.25-3.57-7.85-6.07-16.33-6.05-24.95s2.73-17.43,8.52-23.82c8-8.76,20.57-11.89,32.39-11.56s23.34,3.65,35,5.76c15.49,2.81,29.91-.2,45.32-.64a117.11,117.11,0,0,1,47.1,8c9.55,3.85,18.69,9.41,25.72,17,3.45,3.75,6.78,8.19,8.6,13s.93,9.59,1.92,14.59c1.89,9.63,6,18.7,7.83,28.47,2,10.88,2.64,22,3.07,33,1.78,45.66-104.2,75.35-102.1,106.65Z" transform="translate(-2 -13.15)"/><path class="cls-17" d="M1308.91,752.07s-18.3,27.2-15.91,30.07,14,5.94,14,5.94Z" transform="translate(-2 -13.15)"/><path class="cls-31" d="M1364.85,665.88c-17.8,9-48.55,25.74-56.46,90.16-8.11,66.14,6.86,89.12,16,97.79,6.19,5.85,38.15,8,54.81,2.88,20.86-6.36,66-28.3,87.22-62.44,24.91-40.16,30.06-93.68,1.3-114.66C1427.28,650.07,1379.91,658.24,1364.85,665.88Z" transform="translate(-2 -13.15)"/><path class="cls-17" d="M1326.14,855c7.49,4.12,28.74,5.83,44.57,3.51l-.48-11.87a116.72,116.72,0,0,1-21.09,6.87A76,76,0,0,1,1326.14,855Z" transform="translate(-2 -13.15)"/><path class="cls-14" d="M1357,663.93c-7.31,3.11-14.35,6.19-20.7,11.92a27.91,27.91,0,0,0-7.33,9.41,22,22,0,0,0-1.49,10.65,28.45,28.45,0,0,0,16.63,23,27.69,27.69,0,0,0-4.48,23c2.41,9.35,9.49,16.65,16.3,23.49a3.67,3.67,0,0,0,1.36,1c1,.32,2.05-.3,2.93-.89,11.18-7.47,16.94-18.66,32.73-13.44,18.39,6.06,18.86,29.4,6,45.18-6.24,7.65-11.13,9.17-16.93,9.47-8.35.45-10.44-5.89-10.44-5.89s-1.39,45.52,27.64,58.73c0,0,27.38,6.3,57.07-3.28,18.8-13.88,36.15-34.85,50.59-58.8,37.27-61.82,17.61-128.57-27.24-145.06-2.5-.92-5.09-1.58-7.66-2.27a157.48,157.48,0,0,0-106.53,10.05C1362.65,661.55,1359.82,662.74,1357,663.93Z" transform="translate(-2 -13.15)"/><path class="cls-14" d="M1496.12,658.72c75.5-26.29,102.48,33.67,100.51,84.83-1.05,27.43-14.73,81.73,18.7,109.56,30.57,25.44,28,41.4,12.16,55.66s-59.93,12.51-86.38-19.11c-32.38-38.7-14.91-93.24-1.14-136.31,9.31-29.12-3.54-70.15-31.73-67.89Z" transform="translate(-2 -13.15)"/><path class="cls-7" d="M1354.68,788.72a15.31,15.31,0,0,1-9.4-19.69,15.74,15.74,0,0,1,20-9.25Z" transform="translate(-2 -13.15)"/></g><path class="cls-32" d="M1457,1487.29c20.83-1,37.13-16.34,86.66-37,91.45-38.11,160-68.59,186.17-116.49s44.64-262.72,38.11-322.6a79.39,79.39,0,0,0-4.48-19.85l6.43-.94-16.66-14.18v0c-17.09-14-44.9-1.51-65.86,9.89-59.87,32.59-106.69,64.24-143.71,178.55-27.84,86-46.21,241-84.64,282.91" transform="translate(-2 -13.15)"/><path class="cls-9" d="M1763.48,991.37l6.43-.94-16.66-14.18v0c-17.09-14-44.9-1.51-65.86,9.89-59.87,32.59-106.69,64.24-143.71,178.55-27.84,86-46.21,241-84.64,282.91l-2,39.65c20.83-1,37.13-16.34,86.66-37,91.45-38.11,160-68.59,186.17-116.49s44.64-262.72,38.11-322.6A79.39,79.39,0,0,0,1763.48,991.37Z" transform="translate(-2 -13.15)"/><path class="cls-32" d="M1703.25,993.88c-59.87,32.59-116.12,68.2-147.84,185.39-31.39,116-51.64,292-124.59,311.64,0,0,33,13.11,134.06-29.64,32.16-13.61,71.18-38.4,96.82-52.79,50.24-28.2,80.69-51.3,85.51-59.94,26.55-47.67,44.63-262.71,38.1-322.59S1733.24,977.56,1703.25,993.88Z" transform="translate(-2 -13.15)"/><g class="cls-34"><path class="cls-3" d="M1703.25,993.88c-59.87,32.59-116.12,68.2-147.84,185.39-31.39,116-51.64,292-124.59,311.64,0,0,33,13.11,134.06-29.64,32.16-13.61,71.18-38.4,96.82-52.79,50.24-28.2,80.69-51.3,85.51-59.94,26.55-47.67,44.63-262.71,38.1-322.59S1733.24,977.56,1703.25,993.88Z" transform="translate(-2 -13.15)"/></g></g><g id="Exclamation"><path class="cls-1" d="M1631,708.1a3.56,3.56,0,0,1-2.45,1.46,3.6,3.6,0,0,1-2.78-.67l-14-10.37a3.8,3.8,0,0,1-.78-5.23l8.31-11.26a3.56,3.56,0,0,1,2.46-1.46,3.62,3.62,0,0,1,2.77.67l14,10.37a3.63,3.63,0,0,1,1.46,2.46,3.58,3.58,0,0,1-.68,2.77Zm17.7-24a3.77,3.77,0,0,1-5.23.78l-14-10.37a3.56,3.56,0,0,1-1.46-2.45,3.6,3.6,0,0,1,.67-2.78l35.48-48.05a3.79,3.79,0,0,1,5.23-.78l14.05,10.37a3.8,3.8,0,0,1,.78,5.23Z" transform="translate(-2 -13.15)"/><path class="cls-1" d="M1642.37,754.61a3.81,3.81,0,0,1-4.89-2l-6.71-16.12a3.79,3.79,0,0,1,2-4.89l12.92-5.38a3.77,3.77,0,0,1,4.89,2l6.72,16.11a3.6,3.6,0,0,1,0,2.86,3.54,3.54,0,0,1-2,2Zm27.5-11.46a3.79,3.79,0,0,1-4.89-2L1658.27,725a3.53,3.53,0,0,1,0-2.85,3.5,3.5,0,0,1,2-2l55.13-23a3.78,3.78,0,0,1,4.89,2L1727,715.3a3.79,3.79,0,0,1-2,4.88Z" transform="translate(-2 -13.15)"/><g class="cls-35"><path d="M1642.37,754.61a3.81,3.81,0,0,1-4.89-2l-6.71-16.12a3.79,3.79,0,0,1,2-4.89l12.92-5.38a3.77,3.77,0,0,1,4.89,2l6.72,16.11a3.6,3.6,0,0,1,0,2.86,3.54,3.54,0,0,1-2,2Zm27.5-11.46a3.79,3.79,0,0,1-4.89-2L1658.27,725a3.53,3.53,0,0,1,0-2.85,3.5,3.5,0,0,1,2-2l55.13-23a3.78,3.78,0,0,1,4.89,2L1727,715.3a3.79,3.79,0,0,1-2,4.88Z" transform="translate(-2 -13.15)"/></g></g><g id="Idea"><g id="Light"><path class="cls-8" d="M1396,588.46a8.13,8.13,0,1,1-8-8.21A8.12,8.12,0,0,1,1396,588.46Z" transform="translate(-2 -13.15)"/><path class="cls-7" d="M1378.12,588.8c-5.35-3.16-5.29-8.2.12-11.25s14.13-2.95,19.48.21,5.29,8.2-.12,11.25S1383.47,592,1378.12,588.8Z" transform="translate(-2 -13.15)"/><path class="cls-8" d="M1377.85,585.86c-5.51-3.26-5.46-8.45.12-11.59s14.57-3,20.08.21,5.46,8.45-.12,11.6S1383.36,589.12,1377.85,585.86Z" transform="translate(-2 -13.15)"/><path class="cls-7" d="M1377.57,582.84c-5.68-3.36-5.62-8.71.13-12s15-3.14,20.7.22,5.62,8.71-.13,11.95S1383.25,586.2,1377.57,582.84Z" transform="translate(-2 -13.15)"/><path class="cls-8" d="M1377.29,579.72c-5.86-3.46-5.8-9,.13-12.32s15.48-3.24,21.33.23,5.8,9-.13,12.31S1383.14,583.18,1377.29,579.72Z" transform="translate(-2 -13.15)"/><path class="cls-7" d="M1377.11,576.44c-6-3.53-5.92-9.16.13-12.56s15.79-3.31,21.77.23,5.91,9.16-.14,12.56S1383.08,580,1377.11,576.44Z" transform="translate(-2 -13.15)"/><path class="cls-1" d="M1389,481.94a38.71,38.71,0,0,0-39.11,38.29c-.32,30.72,25,36.09,24.84,48.47,0,2,1.26,4,3.85,5.5,5.19,3.06,13.64,3.15,18.88.2,2.63-1.48,4-3.44,4-5.41h0c.13-12.39,25.53-17.22,25.86-47.94A38.71,38.71,0,0,0,1389,481.94Z" transform="translate(-2 -13.15)"/><g class="cls-33"><path class="cls-3" d="M1389,481.94a38.71,38.71,0,0,0-39.11,38.29c-.32,30.72,25,36.09,24.84,48.47,0,2,1.26,4,3.85,5.5,5.19,3.06,13.64,3.15,18.88.2,2.63-1.48,4-3.44,4-5.41h0c.13-12.39,25.53-17.22,25.86-47.94A38.71,38.71,0,0,0,1389,481.94Z" transform="translate(-2 -13.15)"/></g><path class="cls-1" d="M1380.93,572.55c-3.89-2.31-3.86-6,.09-8.2a15.69,15.69,0,0,1,14.2.15c3.89,2.3,3.86,6-.09,8.2A15.72,15.72,0,0,1,1380.93,572.55Z" transform="translate(-2 -13.15)"/><path class="cls-3" d="M1393.25,567.62a1.32,1.32,0,0,1-1.3-1.3,93.51,93.51,0,0,1,3-22.09,46.53,46.53,0,0,1,2-6.13,17.06,17.06,0,0,1-3.34-1.67,22.6,22.6,0,0,1-5.09-4.38,22.59,22.59,0,0,1-5.18,4.27,17.6,17.6,0,0,1-3.37,1.6,48.36,48.36,0,0,1,1.86,6.17,94.06,94.06,0,0,1,2.48,22.14,1.34,1.34,0,0,1-1.35,1.28,1.33,1.33,0,0,1-1.28-1.36,92.61,92.61,0,0,0-2.4-21.46,42.78,42.78,0,0,0-1.9-6.14,8.2,8.2,0,0,1-7.29-2.23,4.21,4.21,0,0,1-.51-5.43,3.5,3.5,0,0,1,3.59-1.46c2.06.44,4.06,2.58,5.75,6.07a14.61,14.61,0,0,0,3.07-1.43,20.12,20.12,0,0,0,4.94-4.16c-1.76-2.78-2.4-5.51-1.84-7.4a3.69,3.69,0,0,1,7.06.08c.52,1.89-.17,4.62-2,7.35a19.85,19.85,0,0,0,4.85,4.27,14.63,14.63,0,0,0,3,1.49c1.76-3.44,3.8-5.55,5.88-5.94a3.51,3.51,0,0,1,3.55,1.54,4.19,4.19,0,0,1-.62,5.41,8.2,8.2,0,0,1-7.34,2.07,42.39,42.39,0,0,0-2,6.11,93.19,93.19,0,0,0-2.87,21.4,1.32,1.32,0,0,1-1.3,1.33ZM1372.38,532c-.22,0-.47.1-.76.49-.64.87.11,1.81.35,2.08a5.23,5.23,0,0,0,4.18,1.45c-1.37-2.59-2.71-3.81-3.58-4A.58.58,0,0,0,1372.38,532Zm28.3,4.28a5.31,5.31,0,0,0,4.22-1.36c.25-.26,1-1.19.39-2.08-.36-.51-.68-.53-.94-.48C1403.48,532.51,1402.11,533.7,1400.68,536.26Zm-12.12-13.7a.89.89,0,0,0-1,.7,6.28,6.28,0,0,0,1,4.31,6.38,6.38,0,0,0,1-4.29A.88.88,0,0,0,1388.56,522.56Z" transform="translate(-2 -13.15)"/></g><path class="cls-5" d="M1389.38,467.2a2.46,2.46,0,0,1-.67.09,2.54,2.54,0,0,1-2.52-2.54l.06-13.18a2.53,2.53,0,0,1,5.06,0l-.06,13.18A2.52,2.52,0,0,1,1389.38,467.2Z" transform="translate(-2 -13.15)"/><path class="cls-5" d="M1361.23,474.62a2.53,2.53,0,0,1-2.85-1.19L1351.83,462a2.53,2.53,0,0,1,4.39-2.52l6.55,11.44a2.54,2.54,0,0,1-1.54,3.7Z" transform="translate(-2 -13.15)"/><path class="cls-5" d="M1340.56,495.12a2.49,2.49,0,0,1-1.93-.26l-11.39-6.64a2.53,2.53,0,1,1,2.55-4.36l11.38,6.63a2.53,2.53,0,0,1-.61,4.63Z" transform="translate(-2 -13.15)"/><path class="cls-5" d="M1332.91,523.21a2.52,2.52,0,0,1-.67.09l-13.18-.06a2.53,2.53,0,1,1,0-5.06l13.18.06a2.53,2.53,0,0,1,.65,5Z" transform="translate(-2 -13.15)"/><path class="cls-5" d="M1449.12,558.4a2.53,2.53,0,0,1-1.93-.25l-11.39-6.64a2.53,2.53,0,1,1,2.55-4.37l11.38,6.64a2.52,2.52,0,0,1-.61,4.62Z" transform="translate(-2 -13.15)"/><path class="cls-5" d="M1328.3,558.4a2.53,2.53,0,0,0,1.93-.25l11.39-6.64a2.53,2.53,0,0,0-2.54-4.37l-11.39,6.64a2.52,2.52,0,0,0-.91,3.45A2.48,2.48,0,0,0,1328.3,558.4Z" transform="translate(-2 -13.15)"/><path class="cls-5" d="M1458.57,523.73a2.52,2.52,0,0,1-.67.09l-13.18-.05a2.53,2.53,0,0,1,0-5.06l13.18,0a2.53,2.53,0,0,1,.65,5Z" transform="translate(-2 -13.15)"/><path class="cls-5" d="M1438,495.53a2.53,2.53,0,0,1-1.91-4.64l11.44-6.54a2.53,2.53,0,1,1,2.51,4.39l-11.44,6.54A3.06,3.06,0,0,1,1438,495.53Z" transform="translate(-2 -13.15)"/><path class="cls-5" d="M1417.47,474.85a2.52,2.52,0,0,1-2.84-3.71l6.64-11.38a2.52,2.52,0,1,1,4.36,2.54L1419,473.69A2.49,2.49,0,0,1,1417.47,474.85Z" transform="translate(-2 -13.15)"/></g><g id="Gears"><path class="cls-1" d="M1245.68,469.7a7,7,0,0,1-.92-.06l-9.19-1.43a5.08,5.08,0,0,1-4.16-6.57l5-17a4,4,0,0,0-1.22-3.55,28.36,28.36,0,0,1-2.74-2.94,1.49,1.49,0,0,0-2.08-.42l-11.5,8.7A4.18,4.18,0,0,1,1212,444l-3.13-13a9.3,9.3,0,0,1,2.14-7.94l11.3-11.86a9.08,9.08,0,0,0,2-4.85,79.92,79.92,0,0,1,1-9.1,2.36,2.36,0,0,0-1.41-2.46l-7.25-2.54a5.54,5.54,0,0,1-3.37-7.16l7-18.95a7.59,7.59,0,0,1,6.69-4.74l8.76-.15a5,5,0,0,0,3.62-2.16c1.84-3.12,3.81-6.13,5.86-8.94a8.12,8.12,0,0,0,1.32-4.93l-1.66-12.86a9.61,9.61,0,0,1,2.86-7.71l12.87-11.58a4.56,4.56,0,0,1,4.1-1.17,4.52,4.52,0,0,1,3.09,2.93l3.74,10a1,1,0,0,0,.58.65,1.27,1.27,0,0,0,1-.1,45.35,45.35,0,0,1,5.72-2.31,7,7,0,0,0,3.65-3.1l7.45-16.8a7,7,0,0,1,7.16-3.91l9.2,1.42a5.07,5.07,0,0,1,4.15,6.57l-5,17a4,4,0,0,0,1.21,3.56,26.55,26.55,0,0,1,2.75,2.94,1.48,1.48,0,0,0,2.07.42l11.5-8.71a4.2,4.2,0,0,1,6.91,2.46l3.12,13a9.29,9.29,0,0,1-2.14,7.95l-11.29,11.85a9,9,0,0,0-2,4.85,82.68,82.68,0,0,1-1,9.1,2.35,2.35,0,0,0,1.4,2.46l7.25,2.54a5.56,5.56,0,0,1,3.38,7.17l-7,18.94a7.63,7.63,0,0,1-6.7,4.75l-8.76.14a5,5,0,0,0-3.61,2.17c-1.83,3.11-3.81,6.11-5.87,8.93a8.26,8.26,0,0,0-1.32,4.92L1297,436.5a9.64,9.64,0,0,1-2.86,7.71l-12.87,11.58a4.3,4.3,0,0,1-7.19-1.76l-3.74-10a1,1,0,0,0-.58-.65,1.23,1.23,0,0,0-1,.09,48.9,48.9,0,0,1-5.71,2.32,7,7,0,0,0-3.67,3.1l-7.45,16.8A7,7,0,0,1,1245.68,469.7Zm-14.47-36.32a5.73,5.73,0,0,1,4.46,2.22,22.18,22.18,0,0,0,2.33,2.49,8,8,0,0,1,2.36,7.72l-5,17a1.05,1.05,0,0,0,.08.91,1.09,1.09,0,0,0,.79.47l9.19,1.42a2.87,2.87,0,0,0,2.8-1.53l7.45-16.8a10.94,10.94,0,0,1,6.13-5.32,43,43,0,0,0,5.2-2.11,5.29,5.29,0,0,1,4.33-.21,5.08,5.08,0,0,1,2.88,3l3.74,10a.75.75,0,0,0,.25.4,1,1,0,0,0,.39-.25l12.87-11.57A5.63,5.63,0,0,0,1293,437l-1.66-12.86a12.22,12.22,0,0,1,2.07-7.86,102.84,102.84,0,0,0,5.64-8.6,9.1,9.1,0,0,1,7.07-4.17l8.75-.15a3.56,3.56,0,0,0,2.94-2.07l7-18.95a1.47,1.47,0,0,0-.9-1.9l-7.25-2.54a6.44,6.44,0,0,1-4.08-6.95,82.26,82.26,0,0,0,.91-8.65,12.88,12.88,0,0,1,3.11-7.47L1327.85,343a5.24,5.24,0,0,0,1.12-4.17h0l-3.12-13a1.33,1.33,0,0,0-.15-.37,2.65,2.65,0,0,0-.33.2l-11.49,8.71a5.53,5.53,0,0,1-7.73-1.12,22,22,0,0,0-2.32-2.49,8,8,0,0,1-2.36-7.72l5-17a1.09,1.09,0,0,0-.08-.91,1.07,1.07,0,0,0-.79-.46l-9.19-1.43a2.9,2.9,0,0,0-2.81,1.53l-7.44,16.8a11,11,0,0,1-6.13,5.33,40.72,40.72,0,0,0-5.2,2.1,5.3,5.3,0,0,1-4.33.22,5.17,5.17,0,0,1-2.89-3l-3.73-10a1,1,0,0,0-.25-.4,1,1,0,0,0-.39.25l-12.87,11.57a5.59,5.59,0,0,0-1.54,4.16l1.66,12.86a12.33,12.33,0,0,1-2.07,7.86,102.14,102.14,0,0,0-5.65,8.6,9,9,0,0,1-7.07,4.17l-8.75.15a3.57,3.57,0,0,0-2.93,2.07l-7,18.95a1.5,1.5,0,0,0,0,1.14,1.48,1.48,0,0,0,.85.76l7.26,2.54a6.46,6.46,0,0,1,4.08,6.95,78.93,78.93,0,0,0-.91,8.66,13,13,0,0,1-3.1,7.46L1214,425.87a5.35,5.35,0,0,0-1.12,4.18l3.13,13a1,1,0,0,0,.15.38s.15-.08.32-.21l11.5-8.71A5.41,5.41,0,0,1,1231.21,433.38Zm28.83-11.1a16.12,16.12,0,0,1-4.82-.72c-5.71-1.77-9.82-6.72-11.56-13.93-3.83-15.91,4.79-39.41,19.22-52.39,8-7.23,16.68-10.13,23.73-7.94,5.71,1.77,9.81,6.72,11.55,13.94,3.84,15.91-4.78,39.41-19.21,52.38h0C1272.67,419.27,1266,422.28,1260,422.28Zm21.71-71.62c-4.93,0-10.62,2.65-16.14,7.62-13.44,12.07-21.5,33.78-18,48.39,1.41,5.84,4.45,9.65,8.79,11,5.64,1.74,12.85-.84,19.8-7.08,13.43-12.08,21.5-33.79,18-48.4-1.41-5.84-4.45-9.64-8.79-11A12.26,12.26,0,0,0,1281.75,350.66Z" transform="translate(-2 -13.15)"/><g class="cls-34"><path class="cls-3" d="M1245.68,469.7a7,7,0,0,1-.92-.06l-9.19-1.43a5.08,5.08,0,0,1-4.16-6.57l5-17a4,4,0,0,0-1.22-3.55,28.36,28.36,0,0,1-2.74-2.94,1.49,1.49,0,0,0-2.08-.42l-11.5,8.7A4.18,4.18,0,0,1,1212,444l-3.13-13a9.3,9.3,0,0,1,2.14-7.94l11.3-11.86a9.08,9.08,0,0,0,2-4.85,79.92,79.92,0,0,1,1-9.1,2.36,2.36,0,0,0-1.41-2.46l-7.25-2.54a5.54,5.54,0,0,1-3.37-7.16l7-18.95a7.59,7.59,0,0,1,6.69-4.74l8.76-.15a5,5,0,0,0,3.62-2.16c1.84-3.12,3.81-6.13,5.86-8.94a8.12,8.12,0,0,0,1.32-4.93l-1.66-12.86a9.61,9.61,0,0,1,2.86-7.71l12.87-11.58a4.56,4.56,0,0,1,4.1-1.17,4.52,4.52,0,0,1,3.09,2.93l3.74,10a1,1,0,0,0,.58.65,1.27,1.27,0,0,0,1-.1,45.35,45.35,0,0,1,5.72-2.31,7,7,0,0,0,3.65-3.1l7.45-16.8a7,7,0,0,1,7.16-3.91l9.2,1.42a5.07,5.07,0,0,1,4.15,6.57l-5,17a4,4,0,0,0,1.21,3.56,26.55,26.55,0,0,1,2.75,2.94,1.48,1.48,0,0,0,2.07.42l11.5-8.71a4.2,4.2,0,0,1,6.91,2.46l3.12,13a9.29,9.29,0,0,1-2.14,7.95l-11.29,11.85a9,9,0,0,0-2,4.85,82.68,82.68,0,0,1-1,9.1,2.35,2.35,0,0,0,1.4,2.46l7.25,2.54a5.56,5.56,0,0,1,3.38,7.17l-7,18.94a7.63,7.63,0,0,1-6.7,4.75l-8.76.14a5,5,0,0,0-3.61,2.17c-1.83,3.11-3.81,6.11-5.87,8.93a8.26,8.26,0,0,0-1.32,4.92L1297,436.5a9.64,9.64,0,0,1-2.86,7.71l-12.87,11.58a4.3,4.3,0,0,1-7.19-1.76l-3.74-10a1,1,0,0,0-.58-.65,1.23,1.23,0,0,0-1,.09,48.9,48.9,0,0,1-5.71,2.32,7,7,0,0,0-3.67,3.1l-7.45,16.8A7,7,0,0,1,1245.68,469.7Zm-14.47-36.32a5.73,5.73,0,0,1,4.46,2.22,22.18,22.18,0,0,0,2.33,2.49,8,8,0,0,1,2.36,7.72l-5,17a1.05,1.05,0,0,0,.08.91,1.09,1.09,0,0,0,.79.47l9.19,1.42a2.87,2.87,0,0,0,2.8-1.53l7.45-16.8a10.94,10.94,0,0,1,6.13-5.32,43,43,0,0,0,5.2-2.11,5.29,5.29,0,0,1,4.33-.21,5.08,5.08,0,0,1,2.88,3l3.74,10a.75.75,0,0,0,.25.4,1,1,0,0,0,.39-.25l12.87-11.57A5.63,5.63,0,0,0,1293,437l-1.66-12.86a12.22,12.22,0,0,1,2.07-7.86,102.84,102.84,0,0,0,5.64-8.6,9.1,9.1,0,0,1,7.07-4.17l8.75-.15a3.56,3.56,0,0,0,2.94-2.07l7-18.95a1.47,1.47,0,0,0-.9-1.9l-7.25-2.54a6.44,6.44,0,0,1-4.08-6.95,82.26,82.26,0,0,0,.91-8.65,12.88,12.88,0,0,1,3.11-7.47L1327.85,343a5.24,5.24,0,0,0,1.12-4.17h0l-3.12-13a1.33,1.33,0,0,0-.15-.37,2.65,2.65,0,0,0-.33.2l-11.49,8.71a5.53,5.53,0,0,1-7.73-1.12,22,22,0,0,0-2.32-2.49,8,8,0,0,1-2.36-7.72l5-17a1.09,1.09,0,0,0-.08-.91,1.07,1.07,0,0,0-.79-.46l-9.19-1.43a2.9,2.9,0,0,0-2.81,1.53l-7.44,16.8a11,11,0,0,1-6.13,5.33,40.72,40.72,0,0,0-5.2,2.1,5.3,5.3,0,0,1-4.33.22,5.17,5.17,0,0,1-2.89-3l-3.73-10a1,1,0,0,0-.25-.4,1,1,0,0,0-.39.25l-12.87,11.57a5.59,5.59,0,0,0-1.54,4.16l1.66,12.86a12.33,12.33,0,0,1-2.07,7.86,102.14,102.14,0,0,0-5.65,8.6,9,9,0,0,1-7.07,4.17l-8.75.15a3.57,3.57,0,0,0-2.93,2.07l-7,18.95a1.5,1.5,0,0,0,0,1.14,1.48,1.48,0,0,0,.85.76l7.26,2.54a6.46,6.46,0,0,1,4.08,6.95,78.93,78.93,0,0,0-.91,8.66,13,13,0,0,1-3.1,7.46L1214,425.87a5.35,5.35,0,0,0-1.12,4.18l3.13,13a1,1,0,0,0,.15.38s.15-.08.32-.21l11.5-8.71A5.41,5.41,0,0,1,1231.21,433.38Zm28.83-11.1a16.12,16.12,0,0,1-4.82-.72c-5.71-1.77-9.82-6.72-11.56-13.93-3.83-15.91,4.79-39.41,19.22-52.39,8-7.23,16.68-10.13,23.73-7.94,5.71,1.77,9.81,6.72,11.55,13.94,3.84,15.91-4.78,39.41-19.21,52.38h0C1272.67,419.27,1266,422.28,1260,422.28Zm21.71-71.62c-4.93,0-10.62,2.65-16.14,7.62-13.44,12.07-21.5,33.78-18,48.39,1.41,5.84,4.45,9.65,8.79,11,5.64,1.74,12.85-.84,19.8-7.08,13.43-12.08,21.5-33.79,18-48.4-1.41-5.84-4.45-9.64-8.79-11A12.26,12.26,0,0,0,1281.75,350.66Z" transform="translate(-2 -13.15)"/></g><path class="cls-1" d="M1150.84,568.27a4.12,4.12,0,0,1-.7,0l-6.67-1a4,4,0,0,1-3.3-5.2l3.65-12.32a2.56,2.56,0,0,0-.77-2.22,19.13,19.13,0,0,1-2-2.17c-.19-.23-.63-.55-1-.24l-8.34,6.31a3.38,3.38,0,0,1-5.55-2l-2.27-9.41a7.09,7.09,0,0,1,1.64-6.08l8.18-8.6A6.17,6.17,0,0,0,1135,522a60.19,60.19,0,0,1,.7-6.64,1.36,1.36,0,0,0-.79-1.39l-5.26-1.84a4.38,4.38,0,0,1-2.66-5.65l5.07-13.73a5.86,5.86,0,0,1,5.17-3.67l6.35-.11a3.28,3.28,0,0,0,2.33-1.4c1.32-2.24,2.76-4.43,4.26-6.5a5.62,5.62,0,0,0,.9-3.32l-1.2-9.33a7.36,7.36,0,0,1,2.18-5.89l9.33-8.39a3.46,3.46,0,0,1,5.78,1.41l2.7,7.22c.35.32.52.3.69.21a35,35,0,0,1,4.19-1.69,4.73,4.73,0,0,0,2.44-2.06L1182.6,447a5.37,5.37,0,0,1,5.56-3l6.66,1a4,4,0,0,1,3.3,5.21l-3.65,12.32a2.52,2.52,0,0,0,.78,2.21,19.94,19.94,0,0,1,2,2.17.74.74,0,0,0,1,.25l8.34-6.32a3.39,3.39,0,0,1,5.56,2l2.26,9.4a7.14,7.14,0,0,1-1.63,6.09l-8.19,8.6a6.06,6.06,0,0,0-1.34,3.28,62.71,62.71,0,0,1-.7,6.64,1.33,1.33,0,0,0,.79,1.39l5.25,1.85a4.36,4.36,0,0,1,2.66,5.64l-5.07,13.74a5.87,5.87,0,0,1-5.17,3.67l-6.35.1a3.31,3.31,0,0,0-2.32,1.4c-1.33,2.24-2.77,4.43-4.27,6.5a5.64,5.64,0,0,0-.9,3.32l1.21,9.33a7.37,7.37,0,0,1-2.19,5.9l-9.33,8.39a3.66,3.66,0,0,1-3.29.93,3.6,3.6,0,0,1-2.48-2.35l-2.71-7.22c-.36-.33-.52-.29-.69-.21a35.05,35.05,0,0,1-4.19,1.7,4.67,4.67,0,0,0-2.44,2l-5.4,12.18A5.46,5.46,0,0,1,1150.84,568.27Zm-10.48-27a4.52,4.52,0,0,1,3.51,1.74,16.44,16.44,0,0,0,1.65,1.77,6.16,6.16,0,0,1,1.81,6L1143.68,563l.36.55,6.66,1a1.72,1.72,0,0,0,1.65-.9l5.41-12.18a8.25,8.25,0,0,1,4.64-4,28.87,28.87,0,0,0,3.73-1.51,4.16,4.16,0,0,1,3.43-.17,4.09,4.09,0,0,1,2.29,2.39l2.7,7.22,9.23-8.41a3.8,3.8,0,0,0,1-2.71l-1.21-9.33a9.35,9.35,0,0,1,1.57-6c1.44-2,2.81-4.06,4.07-6.2a7,7,0,0,1,5.42-3.2l6.35-.1a2.26,2.26,0,0,0,1.8-1.28l5.07-13.74a.68.68,0,0,0,0-.55.75.75,0,0,0-.42-.37l-5.26-1.84a5,5,0,0,1-3.18-5.43,60.2,60.2,0,0,0,.65-6.23,9.8,9.8,0,0,1,2.35-5.64l8.19-8.6a3.5,3.5,0,0,0,.72-2.7h0l-2.26-9.41-8.13,6.39a4.34,4.34,0,0,1-6.08-.86,15.55,15.55,0,0,0-1.65-1.77,6.17,6.17,0,0,1-1.81-6l3.65-12.31.1-.47-.45-.08-6.67-1a1.69,1.69,0,0,0-1.65.9l-5.4,12.19a8.34,8.34,0,0,1-4.65,4.05,29.45,29.45,0,0,0-3.73,1.51,4.22,4.22,0,0,1-3.42.16,4,4,0,0,1-2.29-2.38l-2.71-7.23-9.23,8.42a3.81,3.81,0,0,0-1,2.7l1.21,9.33a9.29,9.29,0,0,1-1.57,5.95c-1.44,2-2.8,4.06-4.07,6.2a6.93,6.93,0,0,1-5.42,3.2l-6.35.11a2.29,2.29,0,0,0-1.8,1.27l-5.07,13.74a.69.69,0,0,0,0,.55.66.66,0,0,0,.41.37l5.26,1.85a5,5,0,0,1,3.19,5.42,55.16,55.16,0,0,0-.65,6.23,9.78,9.78,0,0,1-2.35,5.64l-8.19,8.6a3.55,3.55,0,0,0-.74,2.7l2.27,9.41,8.13-6.39A4.24,4.24,0,0,1,1140.36,541.24Zm20.91-7.35a12,12,0,0,1-3.61-.53c-4.26-1.32-7.31-5-8.61-10.36-2.81-11.65,3.49-28.84,14-38.31,5.92-5.33,12.31-7.46,17.54-5.84,4.26,1.33,7.32,5,8.61,10.36,2.81,11.65-3.49,28.84-14,38.32h0C1170.59,531.69,1165.68,533.89,1161.27,533.89ZM1177,482c-3.49,0-7.53,1.89-11.46,5.43-9.66,8.67-15.46,24.25-12.93,34.74,1,4.11,3.11,6.78,6.14,7.71,4,1.24,9.07-.61,14-5.05h0c9.65-8.68,15.45-24.26,12.92-34.74-1-4.11-3.11-6.78-6.14-7.72A8.48,8.48,0,0,0,1177,482Z" transform="translate(-2 -13.15)"/><g class="cls-34"><path class="cls-3" d="M1150.84,568.27a4.12,4.12,0,0,1-.7,0l-6.67-1a4,4,0,0,1-3.3-5.2l3.65-12.32a2.56,2.56,0,0,0-.77-2.22,19.13,19.13,0,0,1-2-2.17c-.19-.23-.63-.55-1-.24l-8.34,6.31a3.38,3.38,0,0,1-5.55-2l-2.27-9.41a7.09,7.09,0,0,1,1.64-6.08l8.18-8.6A6.17,6.17,0,0,0,1135,522a60.19,60.19,0,0,1,.7-6.64,1.36,1.36,0,0,0-.79-1.39l-5.26-1.84a4.38,4.38,0,0,1-2.66-5.65l5.07-13.73a5.86,5.86,0,0,1,5.17-3.67l6.35-.11a3.28,3.28,0,0,0,2.33-1.4c1.32-2.24,2.76-4.43,4.26-6.5a5.62,5.62,0,0,0,.9-3.32l-1.2-9.33a7.36,7.36,0,0,1,2.18-5.89l9.33-8.39a3.46,3.46,0,0,1,5.78,1.41l2.7,7.22c.35.32.52.3.69.21a35,35,0,0,1,4.19-1.69,4.73,4.73,0,0,0,2.44-2.06L1182.6,447a5.37,5.37,0,0,1,5.56-3l6.66,1a4,4,0,0,1,3.3,5.21l-3.65,12.32a2.52,2.52,0,0,0,.78,2.21,19.94,19.94,0,0,1,2,2.17.74.74,0,0,0,1,.25l8.34-6.32a3.39,3.39,0,0,1,5.56,2l2.26,9.4a7.14,7.14,0,0,1-1.63,6.09l-8.19,8.6a6.06,6.06,0,0,0-1.34,3.28,62.71,62.71,0,0,1-.7,6.64,1.33,1.33,0,0,0,.79,1.39l5.25,1.85a4.36,4.36,0,0,1,2.66,5.64l-5.07,13.74a5.87,5.87,0,0,1-5.17,3.67l-6.35.1a3.31,3.31,0,0,0-2.32,1.4c-1.33,2.24-2.77,4.43-4.27,6.5a5.64,5.64,0,0,0-.9,3.32l1.21,9.33a7.37,7.37,0,0,1-2.19,5.9l-9.33,8.39a3.66,3.66,0,0,1-3.29.93,3.6,3.6,0,0,1-2.48-2.35l-2.71-7.22c-.36-.33-.52-.29-.69-.21a35.05,35.05,0,0,1-4.19,1.7,4.67,4.67,0,0,0-2.44,2l-5.4,12.18A5.46,5.46,0,0,1,1150.84,568.27Zm-10.48-27a4.52,4.52,0,0,1,3.51,1.74,16.44,16.44,0,0,0,1.65,1.77,6.16,6.16,0,0,1,1.81,6L1143.68,563l.36.55,6.66,1a1.72,1.72,0,0,0,1.65-.9l5.41-12.18a8.25,8.25,0,0,1,4.64-4,28.87,28.87,0,0,0,3.73-1.51,4.16,4.16,0,0,1,3.43-.17,4.09,4.09,0,0,1,2.29,2.39l2.7,7.22,9.23-8.41a3.8,3.8,0,0,0,1-2.71l-1.21-9.33a9.35,9.35,0,0,1,1.57-6c1.44-2,2.81-4.06,4.07-6.2a7,7,0,0,1,5.42-3.2l6.35-.1a2.26,2.26,0,0,0,1.8-1.28l5.07-13.74a.68.68,0,0,0,0-.55.75.75,0,0,0-.42-.37l-5.26-1.84a5,5,0,0,1-3.18-5.43,60.2,60.2,0,0,0,.65-6.23,9.8,9.8,0,0,1,2.35-5.64l8.19-8.6a3.5,3.5,0,0,0,.72-2.7h0l-2.26-9.41-8.13,6.39a4.34,4.34,0,0,1-6.08-.86,15.55,15.55,0,0,0-1.65-1.77,6.17,6.17,0,0,1-1.81-6l3.65-12.31.1-.47-.45-.08-6.67-1a1.69,1.69,0,0,0-1.65.9l-5.4,12.19a8.34,8.34,0,0,1-4.65,4.05,29.45,29.45,0,0,0-3.73,1.51,4.22,4.22,0,0,1-3.42.16,4,4,0,0,1-2.29-2.38l-2.71-7.23-9.23,8.42a3.81,3.81,0,0,0-1,2.7l1.21,9.33a9.29,9.29,0,0,1-1.57,5.95c-1.44,2-2.8,4.06-4.07,6.2a6.93,6.93,0,0,1-5.42,3.2l-6.35.11a2.29,2.29,0,0,0-1.8,1.27l-5.07,13.74a.69.69,0,0,0,0,.55.66.66,0,0,0,.41.37l5.26,1.85a5,5,0,0,1,3.19,5.42,55.16,55.16,0,0,0-.65,6.23,9.78,9.78,0,0,1-2.35,5.64l-8.19,8.6a3.55,3.55,0,0,0-.74,2.7l2.27,9.41,8.13-6.39A4.24,4.24,0,0,1,1140.36,541.24Zm20.91-7.35a12,12,0,0,1-3.61-.53c-4.26-1.32-7.31-5-8.61-10.36-2.81-11.65,3.49-28.84,14-38.31,5.92-5.33,12.31-7.46,17.54-5.84,4.26,1.33,7.32,5,8.61,10.36,2.81,11.65-3.49,28.84-14,38.32h0C1170.59,531.69,1165.68,533.89,1161.27,533.89ZM1177,482c-3.49,0-7.53,1.89-11.46,5.43-9.66,8.67-15.46,24.25-12.93,34.74,1,4.11,3.11,6.78,6.14,7.71,4,1.24,9.07-.61,14-5.05h0c9.65-8.68,15.45-24.26,12.92-34.74-1-4.11-3.11-6.78-6.14-7.72A8.48,8.48,0,0,0,1177,482Z" transform="translate(-2 -13.15)"/></g></g><g id="Speech_Bubble" data-name="Speech Bubble"><g id="Speech_Bubble-2" data-name="Speech Bubble"><path class="cls-1" d="M648.14,719.63,645.35,718c-4.46-2.58-8.08-8.84-8.08-14V329.37c0-5.15,3.62-11.41,8.08-14l520.07-300.3c4.45-2.57,11.68-2.57,16.14,0l2.79,1.61a17.86,17.86,0,0,1,8.07,14V405.35c0,5.14-3.61,11.4-8.07,14L664.28,719.63A17.86,17.86,0,0,1,648.14,719.63Z" transform="translate(-2 -13.15)"/><path class="cls-36" d="M648.14,719.63,645.35,718c-4.46-2.58-8.08-8.84-8.08-14V329.37c0-5.15,3.62-11.41,8.08-14l520.07-300.3c4.45-2.57,11.68-2.57,16.14,0l2.79,1.61a17.86,17.86,0,0,1,8.07,14V405.35c0,5.14-3.61,11.4-8.07,14L664.28,719.63A17.86,17.86,0,0,1,648.14,719.63Z" transform="translate(-2 -13.15)"/><path class="cls-10" d="M1192.34,29.38c-.55-4.19-3.93-5.71-8-3.38L664.27,326.33a16.68,16.68,0,0,0-5.71,6l-18.9-10.9a16.43,16.43,0,0,1,5.71-6.05l520-300.29c4.48-2.58,11.71-2.58,16.15,0l2.79,1.6A18.07,18.07,0,0,1,1192.34,29.38Z" transform="translate(-2 -13.15)"/><path class="cls-1" d="M637.29,498.51l-53.14,55.23a5,5,0,0,0,1.11,7.86c.87.51,13.74,7.93,16.35,9.45a5,5,0,0,0,3.1.62l67.82-7.84-16.35-57.74Z" transform="translate(-2 -13.15)"/><path class="cls-10" d="M637.29,498.51l-53.14,55.23a5,5,0,0,0,1.11,7.86c.87.51,13.74,7.93,16.35,9.45a5,5,0,0,0,3.1.62l67.82-7.84-16.35-57.74Z" transform="translate(-2 -13.15)"/><path class="cls-1" d="M1192.36,29.36v0c-.6-4.14-3.94-5.63-8-3.34L664.27,326.34a16.35,16.35,0,0,0-5.72,6,17.17,17.17,0,0,0-2.37,7.93v165l-55.7,57.88a5,5,0,0,0,4.2,8.49l51.5-5.94V715c0,4.63,2.93,6.8,6.72,5.31a9,9,0,0,0,1.37-.64l520.08-300.31c4.47-2.58,8.09-8.82,8.09-14V30.69C1192.44,30.25,1192.4,29.81,1192.36,29.36Z" transform="translate(-2 -13.15)"/><path class="cls-37" d="M1192.36,29.36v0c-.6-4.14-3.94-5.63-8-3.34L664.27,326.34a16.35,16.35,0,0,0-5.72,6,17.17,17.17,0,0,0-2.37,7.93v165l-55.7,57.88a5,5,0,0,0,4.2,8.49l51.5-5.94V715c0,4.63,2.93,6.8,6.72,5.31a9,9,0,0,0,1.37-.64l520.08-300.31c4.47-2.58,8.09-8.82,8.09-14V30.69C1192.44,30.25,1192.4,29.81,1192.36,29.36Z" transform="translate(-2 -13.15)"/></g><g id="Graph"><polygon class="cls-1" points="1103.29 168.69 1064.8 234.88 1026.31 348.39 987.82 327.32 949.33 433.22 910.83 412.15 872.34 435.22 833.85 488.52 795.36 485.74 756.87 564.76 718.37 562.58 679.88 616.11 679.88 667.43 688.55 672.44 1111.96 427.92 1111.96 173.7 1103.29 168.69"/><polygon class="cls-1" points="688.55 621.12 727.04 567.59 765.53 569.77 804.03 490.74 842.52 493.53 881.01 440.22 919.5 417.16 958 438.23 996.49 332.33 1034.98 353.4 1073.47 239.88 1111.96 173.7 1111.96 427.92 688.55 672.44 688.55 621.12"/><polygon class="cls-1" points="679.88 616.11 688.55 621.12 727.04 567.59 718.37 562.58 679.88 616.11"/><polygon class="cls-1" points="795.36 485.74 804.03 490.74 765.53 569.77 756.87 564.76 795.36 485.74"/><polygon class="cls-1" points="833.85 488.52 842.52 493.53 881.01 440.22 872.34 435.22 833.85 488.52"/><polygon class="cls-1" points="987.82 327.32 996.49 332.33 958 438.23 949.33 433.22 987.82 327.32"/><polygon class="cls-1" points="1064.8 234.88 1073.47 239.88 1034.98 353.4 1026.31 348.39 1064.8 234.88"/><path class="cls-1" d="M1067.8,203.18a.91.91,0,0,1-.5-.15.9.9,0,0,1-.25-1.24l36.16-54.33a.89.89,0,0,1,1.48,1l-36.15,54.34A.89.89,0,0,1,1067.8,203.18Z" transform="translate(-2 -13.15)"/><path class="cls-1" d="M1104.44,160.41a1,1,0,0,1-1-1V148.6l-9.46,3.15a1,1,0,1,1-.64-1.91l10.79-3.59a1,1,0,0,1,.9.14,1,1,0,0,1,.42.82V159.4A1,1,0,0,1,1104.44,160.41Z" transform="translate(-2 -13.15)"/><path class="cls-1" d="M1027.78,315.89a1,1,0,0,1-.29-.05.89.89,0,0,1-.56-1.13l32.91-97a.89.89,0,0,1,1.13-.55.88.88,0,0,1,.56,1.12l-32.91,97A.9.9,0,0,1,1027.78,315.89Z" transform="translate(-2 -13.15)"/><path class="cls-1" d="M1020.64,321.74a.84.84,0,0,1-.43-.11L993.45,307a.9.9,0,0,1,.86-1.57l26.76,14.62a.9.9,0,0,1,.35,1.21A.88.88,0,0,1,1020.64,321.74Z" transform="translate(-2 -13.15)"/><path class="cls-1" d="M954,402.44a.79.79,0,0,1-.3-.05.89.89,0,0,1-.54-1.14l32.54-89.51a.89.89,0,0,1,1.67.61l-32.53,89.51A.88.88,0,0,1,954,402.44Z" transform="translate(-2 -13.15)"/><path class="cls-1" d="M946.69,408.27a1,1,0,0,1-.43-.11l-29.79-16.31a.89.89,0,0,1,.86-1.56l29.79,16.3a.9.9,0,0,1-.43,1.68Z" transform="translate(-2 -13.15)"/><path class="cls-1" d="M879.74,409.23a.89.89,0,0,1-.45-1.65l27.09-16.24a.89.89,0,0,1,.92,1.53l-27.1,16.24A.93.93,0,0,1,879.74,409.23Z" transform="translate(-2 -13.15)"/><path class="cls-1" d="M840.58,459a.89.89,0,0,1-.52-.16.91.91,0,0,1-.21-1.25l28.91-40a.89.89,0,0,1,1.44,1l-28.9,40A.88.88,0,0,1,840.58,459Z" transform="translate(-2 -13.15)"/><path class="cls-1" d="M830.3,465.57h-.07l-28-2a.88.88,0,0,1-.82-.95.85.85,0,0,1,1-.82l28,2a.89.89,0,0,1-.07,1.78Z" transform="translate(-2 -13.15)"/><path class="cls-1" d="M762.55,534a.92.92,0,0,1-.39-.09.91.91,0,0,1-.41-1.2l30.6-62.82a.91.91,0,0,1,1.2-.41.9.9,0,0,1,.41,1.19l-30.61,62.83A.9.9,0,0,1,762.55,534Z" transform="translate(-2 -13.15)"/><path class="cls-1" d="M753.31,541.89h0l-28.07-1.58a.9.9,0,0,1-.84-.94.87.87,0,0,1,.94-.84l28.07,1.59a.88.88,0,0,1,.84.94A.9.9,0,0,1,753.31,541.89Z" transform="translate(-2 -13.15)"/><path class="cls-1" d="M681.6,593.53a.89.89,0,0,1-.52-.16.91.91,0,0,1-.21-1.25l33.63-46.75a.89.89,0,1,1,1.44,1l-33.62,46.75A.91.91,0,0,1,681.6,593.53Z" transform="translate(-2 -13.15)"/><path class="cls-1" d="M717.82,548.31a3.78,3.78,0,0,1-1.92-.51c-1.53-.88-2.42-2.85-2.42-5.39,0-4.56,2.71-9.69,6.16-11.68a4.51,4.51,0,0,1,4.63-.3c1.54.88,2.42,2.85,2.42,5.39,0,4.56-2.7,9.69-6.16,11.68A5.44,5.44,0,0,1,717.82,548.31Zm4.53-16.61a3.83,3.83,0,0,0-1.82.57c-2.9,1.68-5.26,6.23-5.26,10.14,0,1.89.55,3.29,1.53,3.85a2.85,2.85,0,0,0,2.84-.3c2.91-1.68,5.27-6.22,5.27-10.14,0-1.89-.56-3.29-1.53-3.85A2,2,0,0,0,722.35,531.7Z" transform="translate(-2 -13.15)"/><path class="cls-1" d="M794.8,471.71a3.84,3.84,0,0,1-1.91-.5c-1.54-.89-2.42-2.86-2.42-5.4,0-4.56,2.7-9.69,6.16-11.68a4.51,4.51,0,0,1,4.63-.3c1.53.88,2.42,2.85,2.42,5.39,0,4.56-2.71,9.69-6.16,11.68A5.44,5.44,0,0,1,794.8,471.71Zm4.54-16.61a3.79,3.79,0,0,0-1.82.57c-2.91,1.68-5.27,6.23-5.27,10.14,0,1.89.56,3.29,1.53,3.85a2.89,2.89,0,0,0,2.85-.3c2.9-1.68,5.26-6.23,5.26-10.14,0-1.89-.55-3.29-1.52-3.85A2.06,2.06,0,0,0,799.34,455.1Z" transform="translate(-2 -13.15)"/><path class="cls-1" d="M756.31,550.09a3.74,3.74,0,0,1-1.91-.51c-1.54-.88-2.42-2.85-2.42-5.39,0-4.56,2.7-9.69,6.15-11.68a4.54,4.54,0,0,1,4.63-.31c1.54.89,2.42,2.86,2.42,5.4,0,4.56-2.7,9.69-6.15,11.68A5.47,5.47,0,0,1,756.31,550.09Zm4.54-16.61a3.76,3.76,0,0,0-1.82.57c-2.91,1.68-5.27,6.23-5.27,10.14,0,1.89.55,3.29,1.53,3.85a2.87,2.87,0,0,0,2.84-.3c2.91-1.68,5.27-6.23,5.27-10.14,0-1.89-.55-3.29-1.53-3.85A1.93,1.93,0,0,0,760.85,533.48Z" transform="translate(-2 -13.15)"/><path class="cls-1" d="M833.29,473.8a3.74,3.74,0,0,1-1.91-.51c-1.54-.89-2.42-2.85-2.42-5.39,0-4.56,2.7-9.69,6.16-11.69a4.53,4.53,0,0,1,4.63-.3c1.53.89,2.42,2.86,2.42,5.39,0,4.56-2.71,9.7-6.16,11.69A5.44,5.44,0,0,1,833.29,473.8Zm4.54-16.61a3.69,3.69,0,0,0-1.82.57c-2.91,1.67-5.27,6.22-5.27,10.14,0,1.88.56,3.29,1.53,3.85a2.89,2.89,0,0,0,2.85-.3c2.9-1.68,5.27-6.23,5.27-10.15,0-1.88-.56-3.28-1.53-3.85A2,2,0,0,0,837.83,457.19Z" transform="translate(-2 -13.15)"/><path class="cls-1" d="M871.78,420.1a3.86,3.86,0,0,1-1.91-.5c-1.53-.89-2.42-2.86-2.42-5.39,0-4.56,2.71-9.7,6.16-11.69a4.51,4.51,0,0,1,4.63-.3c1.54.88,2.42,2.85,2.42,5.39,0,4.56-2.7,9.69-6.16,11.69A5.53,5.53,0,0,1,871.78,420.1Zm4.54-16.61a3.83,3.83,0,0,0-1.82.57c-2.9,1.68-5.27,6.23-5.27,10.15,0,1.88.56,3.28,1.53,3.84a2.86,2.86,0,0,0,2.85-.3c2.91-1.67,5.27-6.23,5.27-10.14,0-1.89-.56-3.29-1.53-3.85A2,2,0,0,0,876.32,403.49Z" transform="translate(-2 -13.15)"/><path class="cls-1" d="M910.28,397.88a3.78,3.78,0,0,1-1.92-.51c-1.53-.88-2.42-2.85-2.42-5.39,0-4.56,2.71-9.69,6.16-11.68a4.51,4.51,0,0,1,4.63-.31c1.54.89,2.42,2.86,2.42,5.39,0,4.56-2.7,9.7-6.16,11.69A5.41,5.41,0,0,1,910.28,397.88Zm4.53-16.61a3.83,3.83,0,0,0-1.82.57c-2.9,1.67-5.26,6.23-5.26,10.14,0,1.89.55,3.29,1.53,3.85a2.87,2.87,0,0,0,2.84-.3c2.91-1.68,5.27-6.23,5.27-10.15,0-1.88-.56-3.28-1.53-3.84A2,2,0,0,0,914.81,381.27Z" transform="translate(-2 -13.15)"/><path class="cls-1" d="M948.77,419a3.74,3.74,0,0,1-1.91-.51c-1.54-.88-2.42-2.85-2.42-5.39,0-4.56,2.7-9.69,6.15-11.68a4.54,4.54,0,0,1,4.63-.31c1.54.89,2.42,2.86,2.42,5.4,0,4.56-2.7,9.69-6.15,11.68A5.47,5.47,0,0,1,948.77,419Zm4.54-16.61a3.76,3.76,0,0,0-1.82.57c-2.86,1.65-5.27,6.29-5.27,10.14,0,1.89.55,3.29,1.53,3.85a2.87,2.87,0,0,0,2.84-.3c2.91-1.68,5.27-6.23,5.27-10.14,0-1.89-.55-3.29-1.53-3.85A2,2,0,0,0,953.31,402.34Z" transform="translate(-2 -13.15)"/><path class="cls-1" d="M987.26,313.05a3.74,3.74,0,0,1-1.91-.51c-1.54-.88-2.42-2.85-2.42-5.39,0-4.56,2.7-9.69,6.16-11.68a4.54,4.54,0,0,1,4.63-.31c1.53.89,2.42,2.86,2.42,5.4,0,4.56-2.71,9.69-6.16,11.68A5.47,5.47,0,0,1,987.26,313.05Zm4.54-16.61A3.79,3.79,0,0,0,990,297c-2.91,1.68-5.27,6.23-5.27,10.14,0,1.89.56,3.29,1.53,3.85a2.91,2.91,0,0,0,2.85-.3c2.9-1.68,5.26-6.23,5.26-10.14,0-1.89-.55-3.29-1.52-3.85A2.06,2.06,0,0,0,991.8,296.44Z" transform="translate(-2 -13.15)"/><path class="cls-1" d="M1022.71,332.43a3.77,3.77,0,0,1-1.91-.51c-1.54-.89-2.42-2.85-2.42-5.39,0-4.56,2.71-9.69,6.16-11.69a4.53,4.53,0,0,1,4.63-.3c1.54.89,2.42,2.85,2.42,5.39,0,4.56-2.71,9.7-6.16,11.69A5.44,5.44,0,0,1,1022.71,332.43Zm4.54-16.61a3.79,3.79,0,0,0-1.82.57c-2.91,1.67-5.27,6.22-5.27,10.14,0,1.88.56,3.29,1.53,3.85a2.91,2.91,0,0,0,2.85-.3c2.9-1.68,5.27-6.23,5.27-10.15,0-1.88-.56-3.28-1.53-3.85A2,2,0,0,0,1027.25,315.82Z" transform="translate(-2 -13.15)"/><path class="cls-1" d="M1061.21,218.91a3.78,3.78,0,0,1-1.92-.51c-1.53-.88-2.42-2.85-2.42-5.39,0-4.56,2.71-9.69,6.16-11.68a4.54,4.54,0,0,1,4.63-.31c1.54.89,2.42,2.86,2.42,5.4,0,4.56-2.7,9.69-6.16,11.68A5.44,5.44,0,0,1,1061.21,218.91Zm4.53-16.61a3.83,3.83,0,0,0-1.82.57c-2.9,1.68-5.26,6.23-5.26,10.14,0,1.89.55,3.29,1.52,3.85a2.88,2.88,0,0,0,2.85-.3c2.86-1.65,5.27-6.29,5.27-10.14,0-1.89-.56-3.29-1.53-3.85A2,2,0,0,0,1065.74,202.3Z" transform="translate(-2 -13.15)"/></g><g id="Arrow"><polygon class="cls-1" points="1152.34 61.22 1143.67 56.22 1122 106.28 1130.67 111.28 1135.01 108.78 1135.01 404.61 1143.67 409.62 1161.01 399.6 1161.01 93.76 1174.02 86.25 1152.34 61.22"/><polygon class="cls-1" points="1174.02 86.25 1152.34 61.22 1130.67 111.28 1143.67 103.77 1143.67 409.62 1161.01 399.6 1161.01 93.76 1174.02 86.25"/><polygon class="cls-2" points="1122 106.28 1130.67 111.28 1152.34 61.22 1143.67 56.22 1122 106.28"/><polygon class="cls-2" points="1135.01 404.61 1143.67 409.62 1143.67 103.77 1135.01 108.78 1135.01 404.61"/></g><g id="Speech_Bubble-3" data-name="Speech Bubble"><path class="cls-1" d="M802.65,400a4.62,4.62,0,0,1-2.49-.7c-1.74-1.1-2.71-3.29-2.71-6.16v-63.5c0-5.32,3.32-11.57,7.55-14.23l93.31-58.66c2.28-1.43,4.5-1.61,6.24-.52s2.71,3.29,2.71,6.16v63.5c0,5.32-3.31,11.57-7.54,14.23l-13.83,8.69-9.33,34.54a3.29,3.29,0,0,1-2.93,2.55,3.25,3.25,0,0,1-3.21-2.14l-8-20.18-56,35.2A7.21,7.21,0,0,1,802.65,400Zm97.07-140.59L806.41,318.1c-3.33,2.09-6.14,7.39-6.14,11.57v63.5c0,1.71.48,3,1.3,3.5s2.08.33,3.43-.52l58.72-36.92L873,382.57a.41.41,0,0,0,.45.3.43.43,0,0,0,.4-.35l9.65-35.72,14.81-9.31c3.32-2.09,6.13-7.39,6.13-11.57v-63.5c0-1.71-.47-3-1.3-3.5s-2.07-.33-3.42.52Z" transform="translate(-2 -13.15)"/><path class="cls-1" d="M820.26,336a1.38,1.38,0,0,1-1.22-.76,1.61,1.61,0,0,1,.51-2.1l64.2-40.36a1.36,1.36,0,0,1,1.93.57,1.6,1.6,0,0,1-.52,2.09L821,335.77A1.34,1.34,0,0,1,820.26,336Z" transform="translate(-2 -13.15)"/><path class="cls-1" d="M820.26,349.51a1.39,1.39,0,0,1-1.22-.77,1.62,1.62,0,0,1,.51-2.1l64.2-40.35a1.35,1.35,0,0,1,1.93.56,1.61,1.61,0,0,1-.52,2.1L821,349.3A1.36,1.36,0,0,1,820.26,349.51Z" transform="translate(-2 -13.15)"/><path class="cls-1" d="M820.26,363a1.39,1.39,0,0,1-1.22-.77,1.62,1.62,0,0,1,.51-2.1l64.2-40.35a1.36,1.36,0,0,1,1.93.56,1.61,1.61,0,0,1-.52,2.1L821,362.83A1.36,1.36,0,0,1,820.26,363Z" transform="translate(-2 -13.15)"/></g></g><g id="Speech_Bubble-4" data-name="Speech Bubble"><g id="Speech_Bubble-5" data-name="Speech Bubble"><path class="cls-1" d="M429.85,347.86l-11.3-21.25,9.09-26.24V284.31l-27.82,16.06v16.06l12,20.72a1.76,1.76,0,0,0,.82.72h0Z" transform="translate(-2 -13.15)"/><path class="cls-20" d="M429.85,347.86l-11.3-21.25,9.09-26.24V284.31l-27.82,16.06v16.06l12,20.72a1.76,1.76,0,0,0,.82.72h0Z" transform="translate(-2 -13.15)"/><path class="cls-1" d="M487.52,133.69c0-5.32-3.74-11.79-8.35-14.45l-6.79-3.92c-4.6-2.66-12.07-2.66-16.68,0L354.33,173.74c-4.6,2.66-8.34,9.13-8.34,14.45V331c0,5.32,3.74,11.78,8.34,14.44l6.8,3.93c4.6,2.66,12.07,2.66,16.68,0l39.48-22.79,11.94,20.68a1.79,1.79,0,0,0,3.23-.31l12.61-36.42,34.11-19.59c4.6-2.66,8.34-9.13,8.34-14.45Z" transform="translate(-2 -13.15)"/><path class="cls-20" d="M346,331c0,5.32,3.74,11.79,8.34,14.45l6.8,3.92c4.16,2.4,10.64,2.61,15.25.67-3.92,1.48-6.91-.73-6.91-5.49V201.74a17.05,17.05,0,0,1,2.44-8.22L348.44,180a17,17,0,0,0-2.45,8.22Z" transform="translate(-2 -13.15)"/><path class="cls-36" d="M487.24,131.32c-1-3.55-4.2-4.67-8.05-2.46L377.8,187.3a16.6,16.6,0,0,0-5.87,6.23L348.46,180a16.78,16.78,0,0,1,5.88-6.23l101.34-58.44c4.63-2.64,12.11-2.64,16.7,0l6.81,3.93C483.12,121.51,486.43,126.57,487.24,131.32Z" transform="translate(-2 -13.15)"/></g><g id="Speach_Bubble" data-name="Speach Bubble"><path id="Check" class="cls-24" d="M466.86,165.25a11.16,11.16,0,0,0-14.6,5.95L410.11,271.49l-10-9.77a11.15,11.15,0,0,0-15.54,16l21.76,21.15a11.1,11.1,0,0,0,7.77,3.15,11.12,11.12,0,0,0,10.28-6.83l48.47-115.34A11.17,11.17,0,0,0,466.86,165.25Z" transform="translate(-2 -13.15)"/></g></g></svg>