<svg xmlns="http://www.w3.org/2000/svg" xmlns:xlink="http://www.w3.org/1999/xlink" viewBox="0 0 1003.15 1000"><defs><style>.cls-1{fill:#9a48ef;}.cls-2{fill:#df3939;}.cls-3{isolation:isolate;}.cls-124,.cls-4{fill:#fff;}.cls-5{fill:#e0e0e0;}.cls-129,.cls-6{fill:#7373e0;}.cls-129,.cls-7{opacity:0.1;}.cls-8{fill:url(#linear-gradient);}.cls-9{fill:#302c8c;}.cls-10{fill:#bcbec0;}.cls-10,.cls-13,.cls-34,.cls-42,.cls-71,.cls-72,.cls-74{mix-blend-mode:multiply;}.cls-11{fill:url(#linear-gradient-2);}.cls-12{opacity:0.6;fill:url(#radial-gradient);}.cls-12,.cls-73,.cls-76,.cls-78,.cls-79{mix-blend-mode:screen;}.cls-13{fill:#e6e7e8;}.cls-14{fill:url(#linear-gradient-3);}.cls-15,.cls-52,.cls-57,.cls-58,.cls-59,.cls-70,.cls-77{mix-blend-mode:color-dodge;}.cls-15{fill:url(#radial-gradient-2);}.cls-16,.cls-61,.cls-62,.cls-71,.cls-79{opacity:0.2;}.cls-17{opacity:0;}.cls-18{opacity:0.09;}.cls-19{opacity:0.18;}.cls-20{opacity:0.27;}.cls-21{opacity:0.36;}.cls-22{opacity:0.45;}.cls-23{opacity:0.55;}.cls-24{opacity:0.64;}.cls-25{opacity:0.73;}.cls-26{opacity:0.82;}.cls-27{opacity:0.91;}.cls-28{fill:url(#linear-gradient-4);}.cls-29{fill:#138bbd;}.cls-30{fill:#2e7ec7;}.cls-31{fill:#4970d1;}.cls-32{fill:#6463db;}.cls-33{fill:#7f55e5;}.cls-34{fill:url(#linear-gradient-5);}.cls-35{fill:url(#linear-gradient-6);}.cls-36{fill:#9f19ab;}.cls-37{fill:#b228b2;}.cls-38{fill:#c537b9;}.cls-39{fill:#d945c0;}.cls-40{fill:#ec54c7;}.cls-41{fill:#ff63ce;}.cls-42{fill:url(#linear-gradient-7);}.cls-43{fill:url(#linear-gradient-8);}.cls-44{fill:#ffba78;}.cls-45{fill:#ffc281;}.cls-46{fill:#ffcb8b;}.cls-47{fill:#ffd394;}.cls-48{fill:#ffdc9e;}.cls-49{fill:#ffe4a7;}.cls-50{fill:url(#linear-gradient-9);}.cls-51{fill:url(#linear-gradient-10);}.cls-52{fill:url(#radial-gradient-3);}.cls-53{fill:#1f0d3d;}.cls-54{fill:#25054d;}.cls-55{fill:url(#linear-gradient-11);}.cls-56{fill:url(#linear-gradient-12);}.cls-57{fill:url(#radial-gradient-4);}.cls-58{fill:url(#radial-gradient-5);}.cls-59{fill:url(#radial-gradient-6);}.cls-60{fill:url(#linear-gradient-13);}.cls-61{fill:url(#linear-gradient-14);}.cls-62{fill:url(#linear-gradient-15);}.cls-63{fill:url(#linear-gradient-16);}.cls-64{fill:url(#linear-gradient-17);}.cls-65{fill:url(#radial-gradient-7);}.cls-66{fill:#3a2787;}.cls-67{fill:url(#linear-gradient-18);}.cls-68{fill:url(#linear-gradient-19);}.cls-69{fill:url(#linear-gradient-20);}.cls-70{fill:url(#radial-gradient-8);}.cls-71{fill:url(#radial-gradient-9);}.cls-115,.cls-72{opacity:0.3;}.cls-72{fill:url(#radial-gradient-10);}.cls-73{fill:url(#radial-gradient-11);}.cls-74{fill:#939598;}.cls-75{fill:#6647c6;}.cls-76{fill:#58595b;}.cls-77{fill:url(#radial-gradient-12);}.cls-78{opacity:0.5;fill:url(#radial-gradient-13);}.cls-79{fill:url(#radial-gradient-14);}.cls-80{fill:#0c0c0c;}.cls-81{fill:#0d0d0d;}.cls-82{fill:#2a2a2a;}.cls-83{fill:#ffa200;}.cls-84{fill:#ffc200;}.cls-85{fill:#842945;}.cls-86{fill:#fdc500;}.cls-87{fill:#832945;}.cls-88{fill:#892a47;}.cls-89{fill:#e34073;}.cls-90{fill:#882a47;}.cls-91{clip-path:url(#clip-path);}.cls-92{fill:#204a8d;}.cls-93{clip-path:url(#clip-path-2);}.cls-94{clip-path:url(#clip-path-3);}.cls-95{fill:#3265b5;}.cls-96{fill:#fff7f2;}.cls-97{fill:#a6acc3;}.cls-98{fill:#f3e7e0;}.cls-99{fill:#d03063;}.cls-100{clip-path:url(#clip-path-4);}.cls-101{clip-path:url(#clip-path-5);}.cls-102{fill:#ff5c5c;}.cls-103{clip-path:url(#clip-path-6);}.cls-104{fill:#407a14;}.cls-105{clip-path:url(#clip-path-7);}.cls-106{clip-path:url(#clip-path-8);}.cls-107{clip-path:url(#clip-path-9);}.cls-108{clip-path:url(#clip-path-10);}.cls-109{fill:#70ad38;}.cls-110{clip-path:url(#clip-path-11);}.cls-111{fill:#2c6d99;}.cls-112{clip-path:url(#clip-path-12);}.cls-113{clip-path:url(#clip-path-13);}.cls-114{clip-path:url(#clip-path-14);}.cls-116{fill:#b16668;}.cls-117{fill:#1d1a56;}.cls-118{fill:#9a4a4d;}.cls-119,.cls-127{opacity:0.4;}.cls-120{fill:#263238;}.cls-121{opacity:0.15;}.cls-122{fill:#e6e6e6;}.cls-123{fill:#00014a;}.cls-124{opacity:0.45;}.cls-125{fill:#ffa8a7;}.cls-126{fill:#f28f8f;}.cls-128{fill:#383340;}.cls-130{fill:none;stroke:#281f6f;stroke-miterlimit:10;stroke-width:0.95px;}.cls-131{fill:#f8f9fc;}.cls-132{fill:#fa4443;}.cls-133{fill:#fb693b;}.cls-134{fill:#fd8e34;}.cls-135{fill:#feb22c;}.cls-136{fill:#ffd724;}.cls-137{fill:#c0c665;}.cls-138{fill:#81b5a5;}.cls-139{fill:#42a4e6;}.cls-140{fill:#ef7182;}.cls-141{fill:#e49fc0;}.cls-142{fill:#d9ccff;}.cls-143{fill:#2e9f10;}.cls-144{fill:#74b217;}.cls-145{fill:#b9c41d;}.cls-146{fill:#5f97d5;}.cls-147{fill:#7b8ac4;}.cls-148{fill:#987db3;}.cls-149{fill:#ff6e33;}.cls-150{fill:#ff644e;}.cls-151{fill:#fe596a;}.cls-152{fill:#fe4f85;}.cls-153{fill:#f85d5c;}.cls-154{fill:#00a1ab;}.cls-155{fill:#81408f;}.cls-156{fill:#5e556a;}.cls-157{fill:#e6cbac;}.cls-158{fill:#2250c4;}.cls-159{fill:#99d6ff;}.cls-160{fill:#3178a8;}.cls-161{fill:#8f73e6;}.cls-162{fill:#8abf86;}.cls-163{fill:#ff8400;}.cls-164{fill:#bce88e;}.cls-165{fill:#c61918;}.cls-166{fill:#fe87ac;}.cls-167{fill:#ffd6bf;}</style><linearGradient id="linear-gradient" x1="942.73" y1="694.51" x2="424.97" y2="-21.94" gradientUnits="userSpaceOnUse"><stop offset="0" stop-color="#311b61"/><stop offset="0.2" stop-color="#290f52"/><stop offset="0.49" stop-color="#200041"/><stop offset="1" stop-color="#0f001f"/></linearGradient><linearGradient id="linear-gradient-2" x1="1052.73" y1="710.08" x2="645.2" y2="58.89" gradientUnits="userSpaceOnUse"><stop offset="0.06" stop-color="#200041"/><stop offset="0.26" stop-color="#210243"/><stop offset="0.36" stop-color="#25084b"/><stop offset="0.43" stop-color="#2c1358"/><stop offset="0.47" stop-color="#311b61"/><stop offset="0.48" stop-color="#351f65"/><stop offset="0.5" stop-color="#422c73"/><stop offset="0.51" stop-color="#584188"/><stop offset="0.52" stop-color="#765fa7"/><stop offset="0.53" stop-color="#8770b8"/><stop offset="0.54" stop-color="#7e67ae"/><stop offset="0.56" stop-color="#5c468d"/><stop offset="0.59" stop-color="#442e75"/><stop offset="0.61" stop-color="#362066"/><stop offset="0.63" stop-color="#311b61"/><stop offset="0.67" stop-color="#2a1155"/><stop offset="0.75" stop-color="#230446"/><stop offset="0.81" stop-color="#200041"/><stop offset="1" stop-color="#200041"/></linearGradient><radialGradient id="radial-gradient" cx="937.12" cy="339.24" r="69.37" gradientUnits="userSpaceOnUse"><stop offset="0" stop-color="#af8afc"/><stop offset="1" stop-color="#10054d"/></radialGradient><linearGradient id="linear-gradient-3" x1="656.63" y1="348.72" x2="630.16" y2="255.19" gradientTransform="translate(244.13 -283.48) rotate(30.31)" gradientUnits="userSpaceOnUse"><stop offset="0.04" stop-color="#ffba78"/><stop offset="0.4" stop-color="#ffc987"/><stop offset="1" stop-color="#feeca8"/></linearGradient><radialGradient id="radial-gradient-2" cx="742.14" cy="316.75" r="105.24" gradientUnits="userSpaceOnUse"><stop offset="0" stop-color="#fa45c1"/><stop offset="0.21" stop-color="#cb389d"/><stop offset="0.67" stop-color="#571843"/><stop offset="1"/></radialGradient><linearGradient id="linear-gradient-4" x1="-2951.78" y1="3468.3" x2="-2945.82" y2="3419.06" gradientTransform="matrix(0.87, 0.5, -1, 0.58, 6504.39, 190.89)" gradientUnits="userSpaceOnUse"><stop offset="0.03" stop-color="#d4d1d8"/><stop offset="1" stop-color="#eeebf2"/></linearGradient><linearGradient id="linear-gradient-5" x1="-2951.91" y1="3468.52" x2="-2946.62" y2="3424.76" xlink:href="#linear-gradient-4"/><linearGradient id="linear-gradient-6" x1="-2964.82" y1="3485.09" x2="-2952.35" y2="3440.45" xlink:href="#linear-gradient-4"/><linearGradient id="linear-gradient-7" x1="-2965.72" y1="3484.86" x2="-2954.11" y2="3443.28" xlink:href="#linear-gradient-4"/><linearGradient id="linear-gradient-8" x1="-2985.38" y1="3503.97" x2="-2952.07" y2="3447.29" xlink:href="#linear-gradient-4"/><linearGradient id="linear-gradient-9" x1="1589.93" y1="644.22" x2="1901.91" y2="644.22" gradientTransform="translate(-1274.21)" xlink:href="#linear-gradient-2"/><linearGradient id="linear-gradient-10" x1="391.04" y1="675.22" x2="600.2" y2="523.28" xlink:href="#linear-gradient"/><radialGradient id="radial-gradient-3" cx="6235.91" cy="676.6" r="117.75" gradientTransform="matrix(-1, 0, 0, 1, 6699.47, 0)" gradientUnits="userSpaceOnUse"><stop offset="0" stop-color="#fff"/><stop offset="1"/></radialGradient><linearGradient id="linear-gradient-11" x1="512.98" y1="668.46" x2="559.32" y2="724.79" xlink:href="#linear-gradient"/><linearGradient id="linear-gradient-12" x1="517.43" y1="673.87" x2="587.48" y2="741.77" xlink:href="#linear-gradient"/><radialGradient id="radial-gradient-4" cx="8187.59" cy="689" r="15.07" gradientTransform="matrix(-1, 0, 0, 1, 8714.31, 0)" xlink:href="#radial-gradient-3"/><radialGradient id="radial-gradient-5" cx="8161.31" cy="669.25" r="6.96" gradientTransform="matrix(-1, 0, 0, 1, 8714.31, 0)" xlink:href="#radial-gradient-3"/><radialGradient id="radial-gradient-6" cx="8214.1" cy="699.89" r="6.96" gradientTransform="matrix(-1, 0, 0, 1, 8714.31, 0)" xlink:href="#radial-gradient-3"/><linearGradient id="linear-gradient-13" x1="8191.41" y1="694.4" x2="8183.99" y2="670.66" gradientTransform="matrix(-1, 0, 0, 1, 8714.31, 0)" xlink:href="#linear-gradient"/><linearGradient id="linear-gradient-14" x1="286.97" y1="688.17" x2="609.25" y2="688.17" xlink:href="#linear-gradient-2"/><linearGradient id="linear-gradient-15" x1="286.97" y1="668.56" x2="609.25" y2="668.56" xlink:href="#linear-gradient-2"/><linearGradient id="linear-gradient-16" x1="374.09" y1="666.83" x2="389.41" y2="600.74" gradientUnits="userSpaceOnUse"><stop offset="0.04" stop-color="#ffa98c"/><stop offset="0.32" stop-color="#ffb892"/><stop offset="0.86" stop-color="#fee1a3"/><stop offset="1" stop-color="#feeca8"/></linearGradient><linearGradient id="linear-gradient-17" x1="462.21" y1="656.15" x2="445.45" y2="604.43" xlink:href="#linear-gradient-16"/><radialGradient id="radial-gradient-7" cx="1137.6" cy="6246.49" r="3.15" gradientTransform="translate(5399.91 -3359.15) rotate(61.68)" gradientUnits="userSpaceOnUse"><stop offset="0.1" stop-color="#8493ba"/><stop offset="0.21" stop-color="#606c90"/><stop offset="0.33" stop-color="#444d6e"/><stop offset="0.43" stop-color="#303756"/><stop offset="0.53" stop-color="#232a47"/><stop offset="0.62" stop-color="#1f2542"/><stop offset="0.71" stop-color="#242a49"/><stop offset="0.83" stop-color="#34395b"/><stop offset="0.98" stop-color="#4d5179"/><stop offset="0.98" stop-color="#4d517a"/></radialGradient><linearGradient id="linear-gradient-18" x1="2667.67" y1="5562.94" x2="2689.17" y2="5564.41" gradientTransform="translate(6047.21 -2096.56) rotate(90)" gradientUnits="userSpaceOnUse"><stop offset="0" stop-color="#d6dae6"/><stop offset="0.01" stop-color="#d4d8e6"/><stop offset="0.28" stop-color="#b4b8e3"/><stop offset="0.4" stop-color="#9a9fc8"/><stop offset="0.53" stop-color="#838ab0"/><stop offset="0.65" stop-color="#757da1"/><stop offset="0.76" stop-color="#70789c"/><stop offset="0.85" stop-color="#777ea2"/><stop offset="0.99" stop-color="#898eb3"/><stop offset="1" stop-color="#8b90b5"/></linearGradient><linearGradient id="linear-gradient-19" x1="1131.83" y1="6174.79" x2="1143.44" y2="6174.79" gradientTransform="translate(5399.91 -3359.15) rotate(61.68)" gradientUnits="userSpaceOnUse"><stop offset="0.01" stop-color="#c1a1d5"/><stop offset="0.05" stop-color="#c8abda"/><stop offset="0.11" stop-color="#dac6e6"/><stop offset="0.2" stop-color="#f7f2f9"/><stop offset="0.22" stop-color="#fff"/><stop offset="0.25" stop-color="#f9f5fb"/><stop offset="0.3" stop-color="#e9dbf2"/><stop offset="0.36" stop-color="#d1b4e3"/><stop offset="0.43" stop-color="#b395d6"/><stop offset="0.49" stop-color="#9c7dcb"/><stop offset="0.56" stop-color="#8e6ec5"/><stop offset="0.61" stop-color="#8969c3"/><stop offset="0.76" stop-color="#9471c6"/><stop offset="1" stop-color="#b086cc"/></linearGradient><linearGradient id="linear-gradient-20" x1="2646.25" y1="5519.01" x2="2663.67" y2="5520.19" gradientTransform="translate(6047.21 -2096.56) rotate(90)" xlink:href="#linear-gradient-19"/><radialGradient id="radial-gradient-8" cx="524.91" cy="558.18" r="3.66" gradientUnits="userSpaceOnUse"><stop offset="0" stop-color="#b4299a"/><stop offset="0.12" stop-color="#8a2076"/><stop offset="0.26" stop-color="#601652"/><stop offset="0.4" stop-color="#3e0e35"/><stop offset="0.55" stop-color="#23081e"/><stop offset="0.69" stop-color="#0f030d"/><stop offset="0.84" stop-color="#040103"/><stop offset="1"/></radialGradient><radialGradient id="radial-gradient-9" cx="394.71" cy="5516.21" r="20.74" gradientTransform="matrix(0.74, 0.68, -0.26, 0.28, 1577.04, -1215.09)" gradientUnits="userSpaceOnUse"><stop offset="0"/><stop offset="1" stop-color="#fff"/></radialGradient><radialGradient id="radial-gradient-10" cx="394.9" cy="5520.03" r="9.25" xlink:href="#radial-gradient-9"/><radialGradient id="radial-gradient-11" cx="2227.59" cy="-6865.61" r="12.63" gradientTransform="matrix(1.44, -0.76, 0.1, 0.18, -2054.15, 3506.84)" gradientUnits="userSpaceOnUse"><stop offset="0" stop-color="#fff"/><stop offset="0.13" stop-color="#ff63ce"/><stop offset="1"/></radialGradient><radialGradient id="radial-gradient-12" cx="463.07" cy="610.7" r="29.86" xlink:href="#radial-gradient-8"/><radialGradient id="radial-gradient-13" cx="-9515.9" cy="5688.7" r="7.56" gradientTransform="matrix(0.15, 0.19, -0.78, 0.62, 6352.36, -1102.28)" gradientUnits="userSpaceOnUse"><stop offset="0" stop-color="#742a97"/><stop offset="0.04" stop-color="#6a268a"/><stop offset="0.19" stop-color="#4a1b60"/><stop offset="0.35" stop-color="#2f113d"/><stop offset="0.51" stop-color="#1b0a23"/><stop offset="0.67" stop-color="#0c040f"/><stop offset="0.83" stop-color="#030104"/><stop offset="1"/></radialGradient><radialGradient id="radial-gradient-14" cx="-12447.54" cy="7269.54" r="7.56" gradientTransform="matrix(0.04, 0.14, -0.82, 0.25, 6941.66, 550.96)" xlink:href="#radial-gradient-13"/><clipPath id="clip-path" transform="translate(0 0)"><path class="cls-1" d="M61.68,693.77,45,684.08c1.54.89,3.88.11,7.39-1.92,8.85-5.11,16.69-10.47,17.1-10.75l16.68,9.69c-.41.29-8.25,5.64-17.1,10.75C65.56,693.88,63.22,694.67,61.68,693.77Z"/></clipPath><clipPath id="clip-path-2" transform="translate(0 0)"><path class="cls-1" d="M63.77,639.44l-16.68-9.7c12.14-7,15-7.88,22.26-9L86,630.47C78.77,631.55,75.91,632.43,63.77,639.44Z"/></clipPath><clipPath id="clip-path-3" transform="translate(0 0)"><path class="cls-1" d="M49.74,713.88l-16.68-9.69c-5.05-2.93-7.14-11.82-7.18-26.12-.07-22.66,4.45-38.65,21.21-48.33l16.68,9.7C47,649.12,42.49,665.11,42.56,687.76,42.6,702.07,44.69,711,49.74,713.88Z"/></clipPath><clipPath id="clip-path-4" transform="translate(0 0)"><path class="cls-2" d="M833.59,766.47l-15.48,9c-.75.44-1.93.19-3.81-.9l15.47-9C831.65,766.65,832.84,766.91,833.59,766.47Z"/></clipPath><clipPath id="clip-path-5" transform="translate(0 0)"><path class="cls-2" d="M848.52,788,833,797c2.64-1.53,4.63-5.9,4.67-17.33,0-19.64-8.76-30.46-21-37.51l15.48-9c12.21,7.05,21,17.87,21,37.51C853.15,782.08,851.16,786.45,848.52,788Z"/></clipPath><clipPath id="clip-path-6" transform="translate(0 0)"><path class="cls-1" d="M888.66,841.87l-15.48,9a9,9,0,0,0,1.68-1.33l15.48-9A10.36,10.36,0,0,1,888.66,841.87Z"/></clipPath><clipPath id="clip-path-7" transform="translate(0 0)"><path class="cls-1" d="M862.39,787.84l15.47-9c-2.57,1.5-3.17,7.18-3.2,18.15,0,17.71.5,21.38,8.77,26.15,2.75,1.59,4.41,1.49,5.39.92l-15.48,9c-1,.57-2.64.68-5.39-.92-8.26-4.77-8.82-8.44-8.77-26.14C859.21,795,859.81,789.33,862.39,787.84Z"/></clipPath><clipPath id="clip-path-8" transform="translate(0 0)"><path class="cls-1" d="M848.5,765.84l15.48-9c3.47-2,8.42-1.37,15.39,2.66l-15.47,9C856.92,764.47,852,763.82,848.5,765.84Z"/></clipPath><clipPath id="clip-path-9" transform="translate(0 0)"><path class="cls-1" d="M870.19,807.37l15.47-9c4.24-.15,10.25,3.21,16.45,6.79,2,1.14,4.13,2.49,6.38,4l-15.47,9c-2.26-1.52-4.42-2.87-6.39-4C880.43,810.58,874.42,807.22,870.19,807.37Z"/></clipPath><clipPath id="clip-path-10" transform="translate(0 0)"><path class="cls-1" d="M863.9,768.49l15.47-9c14.94,8.62,15.88,9.17,28.55,20.48l-15.48,9C879.77,777.66,878.83,777.12,863.9,768.49Z"/></clipPath><clipPath id="clip-path-11" transform="translate(0 0)"><path class="cls-1" d="M948,860.13l-15.48,9c-.71.42-1.73.27-3.14-.54l15.48-9C946.27,860.4,947.29,860.54,948,860.13Z"/></clipPath><clipPath id="clip-path-12" transform="translate(0 0)"><path class="cls-1" d="M946.93,827.48l-15.48,9c-.69.41-1.67.34-2.92-.39l15.48-9C945.26,827.81,946.23,827.88,946.93,827.48Z"/></clipPath><clipPath id="clip-path-13" transform="translate(0 0)"><path class="cls-1" d="M962.65,881.55l-15.47,9c3.32-1.94,5-6.85,5-15.27,0-8.21-4.65-18.26-11.69-23.62l15.48-9c7,5.36,11.71,15.41,11.69,23.61C967.68,874.71,966,879.62,962.65,881.55Z"/></clipPath><clipPath id="clip-path-14" transform="translate(0 0)"><path class="cls-1" d="M961.72,842.8l-15.47,9c2.92-1.7,4.37-6.32,4.38-10.73,0-13.39-6-25.06-20.61-33.52l15.48-9c14.65,8.46,20.64,20.13,20.61,33.51C966.09,836.48,964.65,841.1,961.72,842.8Z"/></clipPath></defs><title>dessign</title><g class="cls-3"><g id="Layer_1" data-name="Layer 1"><rect class="cls-4" width="1000" height="1000"/><ellipse id="Shadow" class="cls-5" cx="307.17" cy="433.3" rx="102.21" ry="59.01"/><g id="Plants"><path class="cls-6" d="M920,839.41c5.8-8,22.43-16.12,43.79-19.24s42.89-7.33,38.88-19.87c-4.32-13.53-23.84-15.51-43.52-9-21.5,7.15-38.41,27.32-39.62,40.64Z" transform="translate(0 0)"/><g class="cls-7"><path d="M920,839.41c5.8-8,22.43-16.12,43.79-19.24s42.89-7.33,38.88-19.87c-4.32-13.53-23.84-15.51-43.52-9-21.5,7.15-38.41,27.32-39.62,40.64Z" transform="translate(0 0)"/></g><path class="cls-4" d="M918.6,835.49a1.58,1.58,0,0,0,1.48-.79c19.07-33.45,58.19-36.39,70.28-33.67a1.58,1.58,0,0,0,.7-3.08c-12.69-2.86-53.76.19-73.72,35.18a1.59,1.59,0,0,0,1.26,2.36Z" transform="translate(0 0)"/><path class="cls-6" d="M920.08,834.7s4.8-31.3,39.63-54.14c8.29-5.44,16.62-13.26,22.63-18.38,12.92-11,8.74-24.17-8.06-25.07-24.95-1.35-44.63,18.4-54.4,45.34S920.08,834.7,920.08,834.7Z" transform="translate(0 0)"/><path class="cls-4" d="M917.07,823.68a1.57,1.57,0,0,0,1.66-1.33c8.15-50.35,48.55-73.2,59.25-75.18a1.58,1.58,0,0,0-.57-3.1c-13,2.4-53.45,26.22-61.79,77.78a1.58,1.58,0,0,0,1.31,1.81Z" transform="translate(0 0)"/></g><ellipse id="Shadow-2" data-name="Shadow" class="cls-5" cx="673.3" cy="738.39" rx="87.36" ry="50.44"/><path class="cls-8" d="M909.59,691.7,491.17,449.93c-21.39-12.35-38.73-45.49-38.73-74v-320c0-28.52,17.34-41.63,38.73-29.28L909.59,268.4c21.4,12.35,38.74,45.49,38.74,74v320C948.33,690.94,931,704.05,909.59,691.7Z" transform="translate(0 0)"/><path class="cls-9" d="M914.58,669.42,502.06,431.09c-17.22-10.94-27.87-32.8-27.87-55.17V53.81a6.87,6.87,0,0,1,10.34-5.91l1.22.7,413,238.64c20.5,11.81,27.86,32.8,27.86,55.17v321.1a7.41,7.41,0,0,1-11.08,6.43Z" transform="translate(0 0)"/><path class="cls-10" d="M898.71,287.24,485.75,48.6l-1.22-.7a6.87,6.87,0,0,0-10.34,5.91V375.92c0,22.37,10.65,44.23,27.87,55.17L914.58,669.42l.91.52a7.41,7.41,0,0,0,11.08-6.43V342.41C926.57,320,919.21,299.05,898.71,287.24Zm23.51,376.27a3.05,3.05,0,0,1-4.58,2.65L504.23,427.32c-15.54-9.88-25.69-30.09-25.69-51.4V53.81a2.53,2.53,0,0,1,2.53-2.51,2.46,2.46,0,0,1,1.27.35L896.53,291c21.24,12.24,25.69,34.72,25.69,51.41Z" transform="translate(0 0)"/><path class="cls-11" d="M920.57,262.57,502.15,20.8c-8.46-4.89-16.29-5.79-22.66-3.33-.82.32-11.61,6.05-12.38,6.48l-.05,0c6.62-3.22,15-2.62,24.11,2.65L909.59,268.4c21.4,12.35,38.74,45.49,38.74,74v320c0,17.8-6.76,29.59-17,32.94a6.42,6.42,0,0,0,3.4-1.15c.49-.28,12.21-6.9,12.68-7.22,7.35-5.16,11.94-15.74,11.94-30.41v-320C959.31,308.06,942,274.92,920.57,262.57Z" transform="translate(0 0)"/><path class="cls-12" d="M911.45,267.47,493,25.7c-8.77-5.06-16.83-5.78-23.33-3,5.54-.88,11.91.46,18.68,4.38L906.81,268.87c21.39,12.35,38.73,45.48,38.73,74v320c0,16.83-6.06,28.23-15.4,32.26,12-1.89,20.05-14.17,20.05-33.65v-320C950.19,313,932.84,279.82,911.45,267.47Z" transform="translate(0 0)"/><polygon class="cls-4" points="516.17 124.08 495.06 111.89 495.06 87.66 516.17 99.85 516.17 124.08"/><path class="cls-4" d="M518.22,166.59c0,7.46-5.27,10.47-11.77,6.71S494.67,160.46,494.67,153s5.27-10.46,11.78-6.71S518.22,159.13,518.22,166.59Z" transform="translate(0 0)"/><polygon class="cls-4" points="499.19 223.16 492.55 206.14 499.19 196.79 512.46 204.45 519.09 221.46 512.46 230.82 499.19 223.16"/><path class="cls-4" d="M894.81,393.14,870.1,407.23l-3.05,13.48,13.16,4,24.71-14.08Zm-24.56,22.31,1.3-5.73,7.23,12.47-5.6-1.68Zm2.3-6.81,16.14-9.19,7.65,13.21-16.13,9.19Z" transform="translate(0 0)"/><path class="cls-4" d="M891.28,355.2l4.92-9.43,6.74-3.84-10.89-18.79L885.31,327l-10.7-.53a.4.4,0,0,0-.42.32l-5.88,20a1.45,1.45,0,0,0,.33,1.2c.3.38.68.56.93.44l.43-.19-.38.27c-.24.16-.27.57-.09,1a1.51,1.51,0,0,0,.11.22,1.39,1.39,0,0,0,.77.67l20.38,5A.4.4,0,0,0,891.28,355.2Zm-18.68-6.13,7.18-5c1,1.13,2.23,1.65,3.06,1.17,1-.6,1-2.55,0-4.37s-2.76-2.8-3.81-2.2c-.83.47-1,1.79-.52,3.21l-8,3.65,5-17.08,9.69.47,9.2,15.88L890,353.36Z" transform="translate(0 0)"/><path class="cls-4" d="M896.46,484.33l-4-7a12.81,12.81,0,0,1,6,.18,3.24,3.24,0,0,0,2.41-.26c2.61-1.49,2.25-6.82-1.1-11.16-1.82-2.36-4.23-3.76-6.07-3.52a3,3,0,0,0-2.54,2.19,14.1,14.1,0,0,1-2.91,5.25l-4-6.9-3.94,2.25,1.81,3.14-11.46,6.53a5.21,5.21,0,0,0-2.31,4.35L868,483a1.06,1.06,0,0,1-.17.5l-1.51,2a1.78,1.78,0,0,0,.19,1.83c.37.64,1,1.16,1.52,1.08l2.24-.31a1,1,0,0,1,.53.1l3.55,1.63a5.25,5.25,0,0,0,4.85.16l11.51-6.56,1.82,3.13ZM878,488a4.23,4.23,0,0,1-3.85-.12l-3.55-1.63a2.29,2.29,0,0,0-1.24-.24l-.74.11.61-.83a2.23,2.23,0,0,0,.39-1.17l.29-3.55a4.14,4.14,0,0,1,1.84-3.45l11.46-6.54,6.29,10.86Z" transform="translate(0 0)"/><path class="cls-4" d="M899.15,590.38l-6.76-11.66a3.26,3.26,0,0,0-2.61-1.9l-2-3.41c3-2.79,2.68-9.38-.9-15.55-3.91-6.74-10.24-10.4-14.15-8.17s-3.9,9.5,0,16.24c3.58,6.16,9.18,9.73,13.1,8.59l2,3.42a3.19,3.19,0,0,0,.34,3.19l6.76,11.66c.84,1.46,2.22,2.25,3.06,1.77l1.16-.66C900,593.41,900,591.84,899.15,590.38Zm-14.66-20.45c-2.58,1.47-6.75-.94-9.32-5.38s-2.58-9.23,0-10.69,6.74.94,9.32,5.38S887.06,568.46,884.49,569.93Z" transform="translate(0 0)"/><path class="cls-13" d="M648.89,337.94c14.54,8.39,26.32,1.67,26.32-15s-11.78-37-26.32-45.39-26.31-1.67-26.31,15S634.36,329.54,648.89,337.94Zm88.37-8.31c-24-13.86-41.09,89.12-67.87,73.66S632.92,342,611.68,329.71c-14.69-8.48-31.49,52-43.39,61.29V392l224.83,129.8v-2.53C774.65,486.35,755.68,340.27,737.26,329.63Zm48.33,5.63v3.12l-43.84-25.8v-4.07l-9-5.2v4l-34.2-20.13v-2.41L690.29,280v9.47l8.25,4.76v-4.33l32.71,19.26a13.49,13.49,0,0,0-4.18.58c-8.6,2.65-15.11,13.54-20.83,25.2l-3.89-2.25a1.18,1.18,0,0,0-1.77,1V344a1.19,1.19,0,0,0,.59,1l9,5.2a1.15,1.15,0,0,0,1.17,0,1.17,1.17,0,0,0,.59-1V338.88a1.17,1.17,0,0,0-.59-1l-3.07-1.77c5.27-10.75,11.68-21.73,19.48-24.13a11.33,11.33,0,0,1,5-.38v2.07l9,5.2V316.1c7.15,6.4,17.28,22,23.27,46.74l-2.68-1.55a1.18,1.18,0,0,0-1.76,1v10.34a1.15,1.15,0,0,0,.59,1l9,5.21a1.26,1.26,0,0,0,.59.15,1.2,1.2,0,0,0,.59-.15,1.19,1.19,0,0,0,.59-1V367.51a1.19,1.19,0,0,0-.59-1l-3.51-2c-4.65-20.45-12.75-36.61-20.39-45.8l38.14,22.45v3.62l8.24,4.76V340Zm-76,4.3v7.62l-6.66-3.84v-7.62Zm60,28.63v7.62L762.93,372v-7.62Z" transform="translate(0 0)"/><ellipse class="cls-14" cx="645.36" cy="308.92" rx="21.42" ry="37.1" transform="translate(-67.69 367.93) rotate(-30.31)"/><path class="cls-4" d="M564.76,393.12,789.59,522.93v-2.54c-18.47-32.86-37.44-178.95-55.86-189.58-24-13.86-41.09,89.11-67.87,73.65s-36.47-61.31-57.71-73.58c-14.69-8.48-31.49,52-43.39,61.3Z" transform="translate(0 0)"/><path class="cls-15" d="M782.06,336.44v3.11l-43.84-25.8v-4.06l-9-5.2v4L695,288.32v-2.41l-8.25-4.76v9.46l8.25,4.77v-4.33l32.71,19.25a13.5,13.5,0,0,0-4.18.59c-8.6,2.64-15.1,13.54-20.83,25.2l-3.89-2.25a1.18,1.18,0,0,0-1.77,1V345.2a1.16,1.16,0,0,0,.59,1l9,5.2a1.15,1.15,0,0,0,1.17,0,1.14,1.14,0,0,0,.59-1V340.06a1.17,1.17,0,0,0-.59-1l-3.07-1.77c5.27-10.76,11.68-21.73,19.48-24.13a11.33,11.33,0,0,1,5-.38v2.06l9,5.2v-2.74c7.15,6.4,17.28,22,23.27,46.74l-2.68-1.55a1.17,1.17,0,0,0-1.17,0,1.19,1.19,0,0,0-.59,1v10.33a1.19,1.19,0,0,0,.59,1l9,5.2a1.15,1.15,0,0,0,1.17,0,1.19,1.19,0,0,0,.59-1V368.69a1.19,1.19,0,0,0-.59-1l-3.51-2c-4.65-20.45-12.74-36.62-20.39-45.8l38.14,22.44v3.63l8.25,4.76V341.2Zm-76,11.92-6.66-3.84V336.9l6.66,3.84Zm60,28.63-6.66-3.85v-7.62l6.66,3.85Z" transform="translate(0 0)"/><g class="cls-16"><path class="cls-17" d="M472.19,799.41a24.87,24.87,0,0,1-12.42-3L404,688.36c-4.53-2.62-7.13-6.75-7.13-11.35,0-5,3.13-9.74,8.59-12.89L438.56,652a30.5,30.5,0,0,1,15.08-3.84,24.87,24.87,0,0,1,12.42,3L611,739.78c4.53,2.62,7.12,6.75,7.12,11.35,0,5-3.13,9.74-8.58,12.89L487.27,795.58A30.6,30.6,0,0,1,472.19,799.41Z" transform="translate(0 0)"/><path class="cls-18" d="M406,664.42l32.85-12a29.81,29.81,0,0,1,2.95-1.43,31.28,31.28,0,0,1,12-2.41,25.64,25.64,0,0,1,10.3,2,20.83,20.83,0,0,1,2,1l143.75,87.94c4,2.32,7.21,6.56,7.45,10.61l0,.31c.38,4.87-2.46,9.6-8,12.77l-121,31.24a33,33,0,0,1-14.95,3.8,23.61,23.61,0,0,1-13.13-2.64L405,688.5a14.67,14.67,0,0,1-7-10.78c0-.19,0-.37-.05-.55C397.6,672.31,400.48,667.58,406,664.42Z" transform="translate(0 0)"/><path class="cls-19" d="M406.49,664.71l32.59-11.93c.77-.44,2.1-1,2.94-1.39a30.57,30.57,0,0,1,11.9-2.45,25,25,0,0,1,10.2,2,21.77,21.77,0,0,1,2,1l142.62,87.24c3.62,2.09,7.42,6.57,7.78,10.21a1.45,1.45,0,0,0,0,.29c.78,4.7-1.79,9.45-7.33,12.65L489.46,793.26A35.91,35.91,0,0,1,474.65,797c-5,.63-10.12-.15-13.84-2.3L406,688.63c-3.55-2-6.38-7.22-6.83-10.78,0-.17-.06-.34-.09-.51C398.33,672.65,401,667.9,406.49,664.71Z" transform="translate(0 0)"/><path class="cls-20" d="M407,665l32.34-11.84c.68-.39,2.18-1,2.93-1.34a30.2,30.2,0,0,1,11.78-2.51,24.5,24.5,0,0,1,10.12,2c.51.23,1.48.76,1.95,1l141.49,86.55c3.22,1.86,7.65,6.58,8.1,9.8a2.3,2.3,0,0,0,.06.28c1.19,4.54-1.12,9.31-6.7,12.53L490.55,792.1c-3.11,1.8-10.7,3.74-14.66,3.74-5.08.95-10.68.3-14.56-2L407.07,688.77c-3.16-1.82-6.16-7.64-6.69-10.78,0-.16-.09-.32-.14-.49C399.06,673,401.45,668.22,407,665Z" transform="translate(0 0)"/><path class="cls-21" d="M407.52,665.31l32.08-11.74c.6-.35,2.27-1,2.92-1.31a29.68,29.68,0,0,1,11.67-2.55,24.07,24.07,0,0,1,10,2c.44.2,1.51.8,1.92,1L606.5,738.6c2.82,1.62,7.91,6.59,8.42,9.39a2.67,2.67,0,0,0,.09.26c1.6,4.38-.46,9.16-6.07,12.41l-117.3,30.28c-2.72,1.57-11.06,3.71-14.52,3.71-5.19,1.26-11.23.74-15.28-1.6L408.09,688.91c-2.76-1.6-5.95-8.06-6.55-10.78a2.54,2.54,0,0,0-.17-.46C399.77,673.31,401.94,668.54,407.52,665.31Z" transform="translate(0 0)"/><path class="cls-22" d="M408,665.61,439.86,654c.51-.3,2.35-1,2.91-1.27a29.18,29.18,0,0,1,11.56-2.59,23.41,23.41,0,0,1,9.93,2c.38.18,1.55.84,1.9,1L605.39,738.3c2.41,1.39,8.68,6.55,8.75,9a2.44,2.44,0,0,0,.1.24c2,4.23.22,9-5.44,12.28l-116.06,30c-2.34,1.35-11.42,3.68-14.39,3.68-5.31,1.57-11.77,1.18-16-1.25L409.12,689.05c-2.37-1.37-6.3-8.4-6.41-10.78-.08-.15-.14-.29-.21-.44C400.48,673.64,402.42,668.85,408,665.61Z" transform="translate(0 0)"/><path class="cls-23" d="M408.56,665.91l31.56-11.56c.43-.24,2.44-1,2.9-1.23a28.85,28.85,0,0,1,11.44-2.64,23,23,0,0,1,9.85,2c.31.15,1.58.88,1.87,1L604.28,738c2,1.16,9,6.55,9.07,8.58l.13.23c2.49,4.07.88,8.87-4.82,12.16L493.83,788.62c-1.95,1.12-11.77,3.65-14.25,3.65-5.42,1.89-12.32,1.62-16.7-.9L410.14,689.18c-2-1.14-6.17-8.79-6.27-10.77-.08-.14-.16-.28-.25-.41C401.17,674,402.91,669.17,408.56,665.91Z" transform="translate(0 0)"/><path class="cls-24" d="M409.08,666.21l31.3-11.46c.35-.2,2.52-1,2.89-1.2a28.31,28.31,0,0,1,11.33-2.68,22.34,22.34,0,0,1,9.75,2c.26.12,1.61.91,1.85,1l137,83.79c1.61.93,9.35,6.54,9.39,8.17l.15.2c3,3.9,1.55,8.73-4.19,12l-113.6,29.33c-1.56.9-12.12,3.62-14.1,3.62-5.54,2.2-12.88,2.07-17.42-.55L411.16,689.32c-1.57-.91-6.05-9.19-6.12-10.77l-.29-.39C401.86,674.32,403.4,669.49,409.08,666.21Z" transform="translate(0 0)"/><path class="cls-25" d="M409.6,666.5l31-11.36c.25-.15,2.59-1,2.87-1.16a27.83,27.83,0,0,1,11.22-2.72,21.77,21.77,0,0,1,9.66,2c.19.09,1.64,1,1.82,1.06l135.84,83.09c1.21.7,9.68,6.55,9.72,7.76.05.07.11.13.16.19,3.46,3.71,2.22,8.59-3.56,11.93L496,786.3c-1.17.67-12.48,3.59-14,3.59-5.65,2.52-13.42,2.51-18.13-.21L412.19,689.46c-1.18-.69-5.93-9.58-6-10.78a3.61,3.61,0,0,1-.33-.35C402.53,674.67,403.88,669.81,409.6,666.5Z" transform="translate(0 0)"/><path class="cls-26" d="M410.12,666.8l30.79-11.27c.17-.1,2.68-1,2.86-1.12a27.68,27.68,0,0,1,11.1-2.77,21.34,21.34,0,0,1,9.57,2l1.8,1.06L601,737.11c.8.47,10,6.55,10,7.36l.19.17c4,3.5,2.89,8.44-2.94,11.81L497.1,785.14a138.45,138.45,0,0,1-13.82,3.56c-5.77,2.83-14,2.95-18.84.14L413.21,689.6c-.78-.46-5.8-10-5.84-10.78l-.37-.33C403.21,675,404.37,670.12,410.12,666.8Z" transform="translate(0 0)"/><path class="cls-27" d="M410.64,667.1l30.53-11.18c.08,0,2.76-1,2.85-1.08A27,27,0,0,1,455,652a20.66,20.66,0,0,1,9.48,2l1.77,1.06,133.58,81.71c.4.23,10.35,6.54,10.36,6.95l.21.15c4.45,3.27,3.56,8.3-2.31,11.68L498.2,784c-.39.23-13.19,3.53-13.69,3.53-5.88,3.15-14.52,3.39-19.55.49l-50.72-98.27a117.9,117.9,0,0,1-5.7-10.77l-.41-.3C403.88,675.41,404.85,670.44,410.64,667.1Z" transform="translate(0 0)"/><path d="M465.48,787.16,409.7,679.1c-5.19-3-4.54-8.24,1.46-11.7l33.11-12.12c6-3.47,15.07-3.84,20.27-.84l144.88,88.62c5.19,3,4.54,8.24-1.46,11.7L485.75,786.32C479.75,789.78,470.68,790.16,465.48,787.16Z" transform="translate(0 0)"/></g><polygon class="cls-28" points="562.47 776.05 398.47 658.31 448.35 635.22 612.35 752.96 562.47 776.05"/><polygon class="cls-29" points="438.38 680.59 419.85 667.29 458.95 649.19 477.47 662.49 438.38 680.59"/><polygon class="cls-30" points="462.65 698.02 444.13 684.72 483.22 666.62 501.75 679.92 462.65 698.02"/><polygon class="cls-31" points="486.93 715.45 468.4 702.15 507.5 684.05 526.02 697.35 486.93 715.45"/><polygon class="cls-32" points="511.2 732.88 492.68 719.58 531.77 701.48 550.3 714.77 511.2 732.88"/><polygon class="cls-33" points="535.47 750.3 516.95 737 556.05 718.9 574.57 732.2 535.47 750.3"/><polygon class="cls-1" points="559.75 767.73 541.23 754.43 580.32 736.33 598.85 749.63 559.75 767.73"/><polygon class="cls-34" points="562.47 776.05 398.47 658.31 448.35 635.22 576.36 769.61 562.47 776.05"/><polygon class="cls-35" points="514.33 785.74 390.91 652.59 447.41 635.28 570.83 768.43 514.33 785.74"/><polygon class="cls-36" points="422.99 678.74 409.05 663.7 453.34 650.13 467.28 665.17 422.99 678.74"/><polygon class="cls-37" points="441.26 698.45 427.32 683.41 471.61 669.84 485.55 684.88 441.26 698.45"/><polygon class="cls-38" points="459.53 718.16 445.59 703.12 489.88 689.55 503.82 704.59 459.53 718.16"/><polygon class="cls-39" points="477.8 737.87 463.86 722.83 508.14 709.26 522.09 724.3 477.8 737.87"/><polygon class="cls-40" points="496.07 757.58 482.13 742.54 526.41 728.97 540.35 744.01 496.07 757.58"/><polygon class="cls-41" points="514.34 777.29 500.39 762.25 544.68 748.68 558.62 763.72 514.34 777.29"/><polygon class="cls-42" points="514.33 785.74 390.91 652.59 447.41 635.28 531.82 780.62 514.33 785.74"/><polygon class="cls-43" points="464.94 791.17 385.22 647.46 446.29 636.37 526.01 780.08 464.94 791.17"/><polygon class="cls-44" points="408.6 676.51 399.6 660.27 447.46 651.58 456.46 667.81 408.6 676.51"/><polygon class="cls-45" points="420.4 697.78 411.4 681.55 459.26 672.85 468.26 689.08 420.4 697.78"/><polygon class="cls-46" points="432.2 719.05 423.2 702.82 471.06 694.12 480.06 710.36 432.2 719.05"/><polygon class="cls-47" points="444 740.32 435 724.09 482.86 715.4 491.87 731.63 444 740.32"/><polygon class="cls-48" points="455.8 761.6 446.8 745.36 494.66 736.67 503.66 752.9 455.8 761.6"/><polygon class="cls-49" points="467.6 782.87 458.6 766.63 506.46 757.94 515.46 774.17 467.6 782.87"/><g class="cls-16"><path class="cls-17" d="M480,744.73a26,26,0,0,1-13-3.12L296.31,643.47c-4.72-2.72-7.43-7-7.43-11.84,0-5.26,3.26-10.16,8.95-13.44l97.22-56a31.88,31.88,0,0,1,15.73-4,26,26,0,0,1,13,3.12l170.73,98.14c4.72,2.72,7.43,7,7.43,11.84,0,5.25-3.26,10.15-8.95,13.44l-97.22,56A31.85,31.85,0,0,1,480,744.73Z" transform="translate(0 0)"/><path class="cls-18" d="M395.59,562.47a31.31,31.31,0,0,1,15.7-3.89,30.5,30.5,0,0,1,6.27.75,26.22,26.22,0,0,1,6.57,2.57l170.19,97.83c4.71,2.72,7.16,7,6.85,11.71a14.08,14.08,0,0,1-.68,3.38c-1.13,3.49-4.6,7.22-8.59,9.52l-96,55.34a31.32,31.32,0,0,1-3.91,1.88,32.57,32.57,0,0,1-11.59,2.19,25.39,25.39,0,0,1-12.8-3L296.86,642.6c-4.72-2.73-7.15-7.05-6.83-11.74a14.33,14.33,0,0,1,.54-2.88c1-3.68,4.61-7.63,8.78-10Z" transform="translate(0 0)"/><path class="cls-19" d="M396.13,562.78A30.54,30.54,0,0,1,411.8,559a26.85,26.85,0,0,1,12.73,3.51L594.18,660c4.7,2.71,6.88,7,6.27,11.57a15.65,15.65,0,0,1-.88,3.23c-1.11,3.11-5.13,7.08-8.72,9.15L496,738.63a34.32,34.32,0,0,1-3.85,1.88,32.43,32.43,0,0,1-11.41,2.27,24.84,24.84,0,0,1-12.65-2.93L297.4,641.72c-4.72-2.73-6.87-7.05-6.21-11.63a17.07,17.07,0,0,1,.7-2.75c1-3.28,5.22-7.48,9-9.65Z" transform="translate(0 0)"/><path class="cls-20" d="M396.68,563.09a29.83,29.83,0,0,1,15.62-3.66,29.49,29.49,0,0,1,6.17,1,33.72,33.72,0,0,1,6.45,2.74L594,660.35c4.69,2.7,6.61,7,5.69,11.44a19.37,19.37,0,0,1-1.06,3.08c-1.08,2.72-5.67,6.92-8.86,8.76l-93.6,54a41.81,41.81,0,0,1-3.79,1.89,32.21,32.21,0,0,1-11.24,2.33,24.3,24.3,0,0,1-12.5-2.83L297.94,640.84c-4.71-2.72-6.6-7.05-5.6-11.51a23.64,23.64,0,0,1,.87-2.62c1-2.89,5.83-7.34,9.17-9.27Z" transform="translate(0 0)"/><path class="cls-21" d="M397.22,563.4a29.11,29.11,0,0,1,15.59-3.54,28.8,28.8,0,0,1,6.12,1.09,40.65,40.65,0,0,1,6.39,2.82l168.57,96.89c4.67,2.69,6.35,7,5.1,11.31a25.77,25.77,0,0,1-1.24,2.92c-1,2.35-6.21,6.77-9,8.39l-92.4,53.25c-.79.46-2.84,1.52-3.72,1.89a31.54,31.54,0,0,1-11.07,2.4,23.77,23.77,0,0,1-12.35-2.72L298.48,640c-4.71-2.72-6.34-7-5-11.4.26-.85.7-1.63,1-2.49,1-2.49,6.44-7.19,9.36-8.88Z" transform="translate(0 0)"/><path class="cls-22" d="M397.76,563.71a27.14,27.14,0,0,1,21.63-2.23,50.08,50.08,0,0,1,6.32,2.91l168,96.58c4.65,2.69,6.1,6.94,4.51,11.18-.35.94-1,1.78-1.43,2.76-1,2-6.74,6.63-9.13,8l-91.19,52.56c-.68.39-2.92,1.57-3.67,1.89A31.23,31.23,0,0,1,482,739.84a23.12,23.12,0,0,1-12.2-2.62L299,639.08c-4.7-2.71-6.09-7-4.38-11.29a12,12,0,0,1,1.22-2.36c.54-2.23,7-7,9.54-8.49Z" transform="translate(0 0)"/><path class="cls-23" d="M398.3,564a26.3,26.3,0,0,1,21.55-2,64.56,64.56,0,0,1,6.26,3L593.6,661.28c4.64,2.68,5.86,6.92,3.93,11.05a11.83,11.83,0,0,1-1.61,2.6c-.51,1.76-7.28,6.48-9.27,7.63l-90,51.87c-.57.33-3,1.62-3.6,1.89a30.79,30.79,0,0,1-10.72,2.54,22.58,22.58,0,0,1-12-2.52L299.56,638.21c-4.7-2.72-5.85-7-3.76-11.19a12,12,0,0,1,1.38-2.22c.45-1.86,7.65-6.9,9.74-8.11Z" transform="translate(0 0)"/><path class="cls-24" d="M398.84,564.34a27.3,27.3,0,0,1,15.49-3.21,27.86,27.86,0,0,1,6,1.43c.87.27,5.48,2.66,6.19,3.07l167,96c4.62,2.67,5.63,6.9,3.34,10.92A12.38,12.38,0,0,1,595,675c-.41,1.41-7.82,6.34-9.41,7.26l-88.79,51.17c-.45.26-3,1.67-3.53,1.89a30.38,30.38,0,0,1-10.55,2.62,22.1,22.1,0,0,1-11.89-2.43L300.11,637.33c-4.7-2.71-5.64-7-3.16-11.08a12.26,12.26,0,0,1,1.55-2.09c.36-1.49,8.27-6.75,9.93-7.72Z" transform="translate(0 0)"/><path class="cls-25" d="M399.38,564.65a26.82,26.82,0,0,1,15.46-3.1,28,28,0,0,1,5.93,1.54c.65.22,5.59,2.85,6.13,3.16L593.31,661.9c4.61,2.67,5.42,6.9,2.76,10.79a12.46,12.46,0,0,1-2,2.28c-.31,1.06-8.36,6.19-9.55,6.88L497,732.33c-.34.19-3.11,1.72-3.48,1.89a30.12,30.12,0,0,1-10.37,2.69,21.58,21.58,0,0,1-11.74-2.33L300.65,636.45c-4.7-2.71-5.42-7-2.55-11a13.34,13.34,0,0,1,1.72-2c.28-1.11,8.88-6.6,10.13-7.32Z" transform="translate(0 0)"/><path class="cls-26" d="M399.93,565a26.14,26.14,0,0,1,15.41-3,26.53,26.53,0,0,1,5.89,1.65c.43.15,5.7,3,6.06,3.24l165.88,95.34c4.59,2.66,5.2,6.9,2.18,10.65a13.35,13.35,0,0,1-2.17,2.14c-.2.7-8.89,6-9.68,6.5l-86.38,49.78c-.22.13-3.16,1.78-3.41,1.89a29.43,29.43,0,0,1-10.2,2.76,21.08,21.08,0,0,1-11.59-2.22L301.19,635.57c-4.69-2.71-5.21-7.07-1.94-10.86a13.81,13.81,0,0,1,1.9-1.82c.18-.75,9.48-6.46,10.31-6.94Z" transform="translate(0 0)"/><path class="cls-27" d="M400.47,565.27a25.59,25.59,0,0,1,15.38-2.87,27,27,0,0,1,5.84,1.77c.21.07,5.82,3.22,6,3.32l165.34,95c4.58,2.64,5,6.91,1.6,10.51a13.86,13.86,0,0,1-2.35,2c-.1.35-9.43,5.89-9.82,6.12l-85.17,49.09c-.12.06-3.23,1.83-3.36,1.89a29,29,0,0,1-10,2.83,20.58,20.58,0,0,1-11.44-2.12L301.73,634.69c-4.69-2.7-5-7.1-1.33-10.75a14.42,14.42,0,0,1,2.07-1.69c.09-.37,10.09-6.31,10.5-6.55Z" transform="translate(0 0)"/><path d="M473,732,302.27,633.82c-5.41-3.13-4.73-8.6,1.52-12.21l97.22-56c6.26-3.61,15.72-4,21.14-.88l170.73,98.14c5.41,3.12,4.73,8.59-1.52,12.2l-97.22,56C487.88,734.68,478.42,735.08,473,732Z" transform="translate(0 0)"/></g><path class="cls-50" d="M496.72,730.82l96.16-55.41c3.83-2.21,5.73-5.16,5.78-8.26,0-.27,0-6.22,0-6.5-.32-3.58-3.08-1.61-8.16-4.54L422.07,559c-9.9-5.71-24.86-6.33-33.43-1.39L292.48,613c-3.83,2.21-5.73-1.68-5.79,1.41,0,.27,0,7.38,0,7.65.31,3.59,3.07,7.3,8.16,10.24l168.41,97.11C473.18,735.15,488.15,735.77,496.72,730.82Z" transform="translate(0 0)"/><path class="cls-51" d="M496.72,724.32l96.16-55.42c8.57-4.95,7.5-13.59-2.4-19.3L422.07,552.49c-9.9-5.71-24.86-6.33-33.43-1.39l-96.16,55.42c-8.57,5-7.5,13.59,2.4,19.3l168.41,97.11C473.18,728.64,488.15,729.26,496.72,724.32Z" transform="translate(0 0)"/><path class="cls-52" d="M592.88,668l-96.16,55.42c-8.57,4.95-23.54,4.33-33.43-1.38L294.88,625c-5.21-3-8-6.83-8.17-10.49-.22,3.92,2.55,8.1,8.17,11.34l168.41,97.11c9.89,5.71,24.86,6.33,33.43,1.39l96.16-55.42c4.06-2.35,6-5.52,5.77-8.81C598.49,663.07,596.59,665.9,592.88,668Z" transform="translate(0 0)"/><path class="cls-53" d="M585,652.37,417.27,555.65c-7.26-4.19-18.25-4.65-24.53-1l-94.15,54.26c-6.29,3.63-5.5,10,1.76,14.16l167.74,96.72c7.26,4.19,18.24,4.65,24.53,1l94.15-54.26C593.05,662.9,592.27,656.56,585,652.37Z" transform="translate(0 0)"/><path class="cls-9" d="M567,643.75,414.77,556c-5.89-3.4-15.46-3.39-21.39,0L301,609.26c-5.93,3.42-6,9-.07,12.35l152.23,87.78Z" transform="translate(0 0)"/><path d="M556.1,696l-13.59,7.85h0a8.07,8.07,0,0,1,3.37-6.44l6.85-4c1.86-1.07,3.37.07,3.37,2.55Z" transform="translate(0 0)"/><path class="cls-54" d="M304.78,621.47a.48.48,0,0,1-.24-.89l4.53-2.66a.48.48,0,0,1,.66.17.47.47,0,0,1-.17.65L305,621.41A.5.5,0,0,1,304.78,621.47Z" transform="translate(0 0)"/><path class="cls-54" d="M317.77,628.93a.48.48,0,0,1-.42-.23.5.5,0,0,1,.17-.66l4.54-2.66a.49.49,0,0,1,.66.17.5.5,0,0,1-.17.66L318,628.87A.53.53,0,0,1,317.77,628.93Z" transform="translate(0 0)"/><path class="cls-54" d="M330.75,636.4a.49.49,0,0,1-.41-.24.48.48,0,0,1,.17-.66l4.54-2.66a.48.48,0,0,1,.48.83L331,636.33A.4.4,0,0,1,330.75,636.4Z" transform="translate(0 0)"/><path class="cls-54" d="M343.74,643.86a.48.48,0,0,1-.24-.89L348,640.3a.48.48,0,1,1,.49.83L344,643.79A.42.42,0,0,1,343.74,643.86Z" transform="translate(0 0)"/><path class="cls-54" d="M356.72,651.32a.47.47,0,0,1-.41-.24.48.48,0,0,1,.17-.65l4.54-2.67a.5.5,0,0,1,.66.17.49.49,0,0,1-.18.66L357,651.25A.45.45,0,0,1,356.72,651.32Z" transform="translate(0 0)"/><path class="cls-54" d="M369.71,658.78a.48.48,0,0,1-.24-.89l4.54-2.66a.48.48,0,0,1,.48.82L370,658.72A.5.5,0,0,1,369.71,658.78Z" transform="translate(0 0)"/><path class="cls-54" d="M382.7,666.24a.48.48,0,0,1-.42-.23.5.5,0,0,1,.17-.66l4.54-2.66a.48.48,0,0,1,.66.17.47.47,0,0,1-.17.65l-4.54,2.67A.53.53,0,0,1,382.7,666.24Z" transform="translate(0 0)"/><path class="cls-54" d="M395.68,673.7a.48.48,0,0,1-.41-.23.49.49,0,0,1,.17-.66l4.54-2.66a.46.46,0,0,1,.65.17.48.48,0,0,1-.17.66l-4.53,2.66A.54.54,0,0,1,395.68,673.7Z" transform="translate(0 0)"/><path class="cls-54" d="M408.67,681.17a.48.48,0,0,1-.24-.9l4.53-2.66a.48.48,0,1,1,.49.83l-4.54,2.66A.42.42,0,0,1,408.67,681.17Z" transform="translate(0 0)"/><path class="cls-54" d="M421.66,688.63a.49.49,0,0,1-.42-.24.47.47,0,0,1,.17-.65l4.54-2.67a.49.49,0,0,1,.66.17.5.5,0,0,1-.17.66l-4.54,2.66A.44.44,0,0,1,421.66,688.63Z" transform="translate(0 0)"/><path class="cls-54" d="M434.64,696.09a.48.48,0,0,1-.24-.89l4.54-2.67a.48.48,0,0,1,.65.17.48.48,0,0,1-.17.66L434.88,696A.42.42,0,0,1,434.64,696.09Z" transform="translate(0 0)"/><path class="cls-54" d="M447.63,703.55a.48.48,0,0,1-.42-.23.49.49,0,0,1,.17-.66l4.54-2.66a.48.48,0,1,1,.49.82l-4.54,2.67A.53.53,0,0,1,447.63,703.55Z" transform="translate(0 0)"/><path d="M570,659.84h0a12.55,12.55,0,0,0-13.4-.5l-75.11,43.75a5.27,5.27,0,0,0-.33,8.91h0a13.74,13.74,0,0,0,14.7.54l73.78-43A5.76,5.76,0,0,0,570,659.84Z" transform="translate(0 0)"/><path class="cls-55" d="M570,657.65h0a12.53,12.53,0,0,0-13.4-.49L481.44,700.9a5.27,5.27,0,0,0-.33,8.91h0a13.74,13.74,0,0,0,14.7.54l73.78-43A5.76,5.76,0,0,0,570,657.65Z" transform="translate(0 0)"/><path d="M546.14,682.44l-15.37-10.5a4.42,4.42,0,0,0-4.73-.17L507.4,682.62a1.82,1.82,0,0,0-.11,3.07l15.37,10.5a4.4,4.4,0,0,0,4.73.17L546,685.51A1.82,1.82,0,0,0,546.14,682.44Z" transform="translate(0 0)"/><path class="cls-56" d="M546.14,681.25l-15.37-10.51a4.44,4.44,0,0,0-4.73-.17L507.4,681.43a1.82,1.82,0,0,0-.11,3.07L522.66,695a4.42,4.42,0,0,0,4.73.17L546,684.32A1.82,1.82,0,0,0,546.14,681.25Z" transform="translate(0 0)"/><path class="cls-57" d="M507.29,683.44l15.37,10.5a4.44,4.44,0,0,0,4.73.17L546,683.25a1.72,1.72,0,0,0,.81-1,1.8,1.8,0,0,1-.81,2.09l-18.64,10.85a4.42,4.42,0,0,1-4.73-.17l-15.37-10.5a1.8,1.8,0,0,1-.7-2A1.77,1.77,0,0,0,507.29,683.44Z" transform="translate(0 0)"/><polygon class="cls-58" points="560.69 674.72 560.69 672.46 546.3 663.11 545.3 663.64 559.5 673.06 559.5 675.38 560.69 674.72"/><polygon points="560.03 675.25 560.03 672.99 545.64 663.64 544.64 664.17 558.83 673.59 558.83 675.91 560.03 675.25"/><polygon class="cls-59" points="507.9 705.36 507.9 703.1 493.51 693.75 492.51 694.28 506.71 703.7 506.71 706.02 507.9 705.36"/><polygon points="507.24 705.89 507.24 703.63 492.85 694.28 491.85 694.81 506.04 704.23 506.04 706.55 507.24 705.89"/><path class="cls-60" d="M535.61,681.38l-6.52-4.5a3.06,3.06,0,0,0-3.28-.12l-8.24,4.79a1.51,1.51,0,0,0-.09,2.54l6.52,4.49a3,3,0,0,0,3.28.13l8.24-4.79A1.51,1.51,0,0,0,535.61,681.38Z" transform="translate(0 0)"/><path class="cls-61" d="M598.64,670.71c-.17,3-2.06,5.8-5.76,7.93L552.31,702l5,3.62,35.55-20.49c3.83-2.21,5.73-5.16,5.78-8.25C598.67,676.66,598.66,672,598.64,670.71Z" transform="translate(0 0)"/><path class="cls-62" d="M415.16,704.92,294.88,635.57c-6.08-3.51-8.81-8.12-8.05-12.3a2.63,2.63,0,0,0-.14.92c0,.27,0,7.37,0,7.64.31,3.59,3.07,7.3,8.16,10.24l124.49,71.79Z" transform="translate(0 0)"/><path class="cls-63" d="M385.55,629a26.32,26.32,0,0,1-13-3.13c-3.66-2.11-5.67-5-5.67-8.05s2-5.89,5.59-8a28.41,28.41,0,0,1,25.83,0c3.65,2.11,5.67,5,5.67,8.05s-2,5.88-5.59,8A26.2,26.2,0,0,1,385.55,629Zm-.22-20.31a24.22,24.22,0,0,0-11.89,2.82c-3,1.73-4.63,4-4.63,6.31s1.67,4.64,4.71,6.39a24.49,24.49,0,0,0,12,2.87,24.2,24.2,0,0,0,11.89-2.82c3-1.73,4.63-4,4.63-6.31s-1.67-4.64-4.71-6.39A24.46,24.46,0,0,0,385.33,608.68Z" transform="translate(0 0)"/><path class="cls-64" d="M420.16,668.58l-1.69-.58-.08-.57c-.36-2.37-3.68-7.11-6.89-11.69-4.7-6.71-9.56-13.65-8.7-17.54a3.43,3.43,0,0,1,1.69-2.3c4.67-2.7,11.59-2.6,18.91-2.49,8.05.13,16.35.24,22.42-3.25a3.61,3.61,0,0,0,1.83-2.37c.94-4.16-4.4-11.87-8.69-18.07a1,1,0,0,1,1.58-1.09c4.73,6.84,10.1,14.6,9,19.58a5.44,5.44,0,0,1-2.75,3.6c-6.51,3.77-15.09,3.64-23.4,3.52-7-.1-13.7-.2-17.92,2.23a1.55,1.55,0,0,0-.78,1.05c-.68,3.07,4.36,10.26,8.4,16,3.34,4.76,6.25,8.93,7.05,11.76l83-47.94a1,1,0,1,1,1,1.66Z" transform="translate(0 0)"/><path class="cls-65" d="M442.23,607.5c-.78.42-3.19,1-3.6.24s1.32-2.62,2.09-3a1.59,1.59,0,0,1,1.51,2.8Z" transform="translate(0 0)"/><path class="cls-66" d="M455.9,604.57c4.09-2.15-1.38-12.68-5.85-10.1s-9.39,9.29-9.39,9.29h0a2.22,2.22,0,0,0-.09,2.73,2.14,2.14,0,0,0,2.33,1.43h0S451.81,606.72,455.9,604.57Z" transform="translate(0 0)"/><path class="cls-66" d="M486.3,587.81l-5.59-10.38-30.74,17h0l0,0c-1.67.9-1.77,4-.23,6.82s4.16,4.47,5.83,3.57l0,0h0Z" transform="translate(0 0)"/><path class="cls-67" d="M486.28,587.82c-1.67.9-4.28-.69-5.82-3.56s-1.45-5.92.22-6.82,4.28.7,5.83,3.56S488,586.92,486.28,587.82Z" transform="translate(0 0)"/><path class="cls-68" d="M529.85,563.22l-4.53-8.41-44.69,22.72h0l0,0c-1.67.9-1.77,4-.23,6.83s4.15,4.46,5.82,3.56l0,0h0Z" transform="translate(0 0)"/><path class="cls-69" d="M529.83,563.23c-1.35.73-3.46-.56-4.71-2.89s-1.17-4.79.18-5.52,3.47.56,4.72,2.88S531.19,562.5,529.83,563.23Z" transform="translate(0 0)"/><path class="cls-70" d="M525.32,560.3c-1.26-2.32-1.17-4.79.18-5.52l.09,0a1.46,1.46,0,0,0-.44.16c-1.36.72-1.44,3.2-.19,5.52s3.27,3.55,4.63,2.93C528.25,563.63,526.44,562.38,525.32,560.3Z" transform="translate(0 0)"/><path class="cls-71" d="M488.21,634.35l-38.86-23.18s-.33-.18-.47-.24a65.3,65.3,0,0,0-9-3.81h0c-.62-.21-.93,0-.77.7a3.37,3.37,0,0,0,1.35,2h0s5.75,4.76,9.46,7.22a5,5,0,0,0,.63.46l0,0h0l39,23.42Z" transform="translate(0 0)"/><path class="cls-72" d="M461.39,619.66,444,609.26l-.21-.1a28.38,28.38,0,0,0-4-1.71h0c-.28-.09-.14.85.26,1.21h0s2.58,2.14,4.25,3.24a2.55,2.55,0,0,0,.28.21h0l17.5,10.5Z" transform="translate(0 0)"/><path class="cls-73" d="M522.74,558.62c.65,1.23-9.24,7.72-18.94,12.81s-18.09,8.23-18.74,7,6.7-6.35,16.41-11.44S522.1,557.4,522.74,558.62Z" transform="translate(0 0)"/><rect class="cls-74" x="448.13" y="588.2" width="32.01" height="3.44" rx="1.25" transform="translate(-225.54 293.64) rotate(-28.56)"/><rect class="cls-75" x="451.6" y="590.3" width="18.75" height="2.55" rx="0.92" transform="translate(-226.71 292.33) rotate(-28.56)"/><path class="cls-76" d="M469.2,587.09a1.16,1.16,0,0,0-.47-.46.82.82,0,0,1,.17.2,1.27,1.27,0,0,1-.51,1.73l-14.22,7.75a1.26,1.26,0,0,1-1.26,0,1.26,1.26,0,0,0,1.56.31l14.22-7.75A1.27,1.27,0,0,0,469.2,587.09Z" transform="translate(0 0)"/><path class="cls-77" d="M522.1,556.79l-71.76,38.08a4.17,4.17,0,0,0-.5.37c-4.3,2.79-9.18,8.52-9.18,8.52h0a2.22,2.22,0,0,0-.09,2.73,2.14,2.14,0,0,0,2.33,1.43h0s7.45-1,11.85-2.82a2.08,2.08,0,0,0,.78-.23l0,0h0l71-39.83Z" transform="translate(0 0)"/><path class="cls-78" d="M452.9,597.11c3.64-2.86,2-5.25-2-2s-9.39,8.57-9.39,8.57v0c-.62.59-.92,1.05-.72,1.3s.52.16,1.43-.4h0S449.27,600,452.9,597.11Z" transform="translate(0 0)"/><path class="cls-79" d="M454.58,604.38c3.79-1.13,3.45-2.84-.78-1.54s-10.26,3.65-10.26,3.65h0c-.69.26-1.09.49-1,.67s.32.18,1.23,0h0S450.78,605.52,454.58,604.38Z" transform="translate(0 0)"/><g class="cls-3"><polygon class="cls-80" points="249.85 603.77 233.17 594.08 220.53 574.22 237.22 583.91 249.85 603.77"/><polygon class="cls-81" points="233.8 569.98 217.12 560.29 220.49 558.34 237.17 568.03 233.8 569.98"/><polygon class="cls-81" points="237.17 568.03 220.49 558.34 232.97 523.21 249.65 532.9 237.17 568.03"/><polygon class="cls-81" points="249.65 532.9 232.97 523.21 251.76 512.36 268.44 522.05 249.65 532.9"/><polygon class="cls-81" points="218.22 551.04 201.54 541.35 217.04 532.4 233.72 542.09 218.22 551.04"/><polygon class="cls-80" points="218.42 621.92 201.74 612.23 201.54 541.35 218.22 551.04 218.42 621.92"/><polygon class="cls-82" points="268.44 522.05 251.6 567.46 268.64 592.92 249.85 603.77 237.22 583.91 233.93 585.81 234.01 612.92 218.42 621.92 218.22 551.04 233.72 542.09 233.8 569.98 237.17 568.03 249.65 532.9 268.44 522.05"/></g><g class="cls-3"><polygon class="cls-83" points="177.64 645.46 160.96 635.77 160.9 616.41 177.58 626.1 177.64 645.46"/><polygon class="cls-83" points="186.04 601.05 169.36 591.35 178.79 554.49 195.47 564.18 186.04 601.05"/><polygon class="cls-84" points="195.47 564.18 178.79 554.49 196.57 544.22 213.25 553.91 195.47 564.18"/><polygon class="cls-85" points="143.85 664.97 127.17 655.27 122.85 619.08 139.53 628.77 143.85 664.97"/><polygon class="cls-84" points="159.32 585.05 142.64 575.35 160.42 565.09 177.1 574.78 159.32 585.05"/><polygon class="cls-83" points="177.58 626.1 160.9 616.41 142.64 575.35 159.32 585.05 177.58 626.1"/><polygon class="cls-86" points="213.25 553.91 193.93 616.66 193.99 636.02 177.64 645.46 177.58 626.1 159.32 585.05 177.1 574.78 186.04 601.05 195.47 564.18 213.25 553.91"/><polygon class="cls-87" points="115.79 681.17 99.11 671.48 93.61 635.96 110.29 645.65 115.79 681.17"/><polygon class="cls-88" points="124.89 644.79 108.21 635.09 113.66 592.09 130.34 601.78 124.89 644.79"/><polygon class="cls-89" points="130.34 601.78 113.66 592.09 136.41 578.95 153.09 588.65 130.34 601.78"/><polygon class="cls-90" points="90.43 695.81 73.75 686.12 80.13 611.45 96.81 621.14 90.43 695.81"/><polygon class="cls-89" points="153.09 588.65 159.95 655.68 143.85 664.97 139.53 628.77 134.5 670.37 115.79 681.17 110.29 645.65 106.53 686.52 90.43 695.81 96.81 621.14 119.56 608.01 124.89 644.79 130.34 601.78 153.09 588.65"/><polygon class="cls-89" points="96.81 621.14 80.13 611.45 102.88 598.31 119.56 608.01 96.81 621.14"/></g><g class="cls-3"><g class="cls-3"><path class="cls-1" d="M61.68,693.77,45,684.08c1.54.89,3.88.11,7.39-1.92,8.85-5.11,16.69-10.47,17.1-10.75l16.68,9.69c-.41.29-8.25,5.64-17.1,10.75C65.56,693.88,63.22,694.67,61.68,693.77Z" transform="translate(0 0)"/><g class="cls-91"><path class="cls-92" d="M61.68,693.77,45,684.08c1.54.89,3.88.11,7.39-1.92,8.85-5.11,16.69-10.47,17.1-10.75l16.68,9.69c-.41.29-8.25,5.64-17.1,10.75-3.51,2-5.85,2.82-7.39,1.92Z" transform="translate(0 0)"/></g></g><g class="cls-3"><path class="cls-1" d="M63.77,639.44l-16.68-9.7c12.14-7,15-7.88,22.26-9L86,630.47C78.77,631.55,75.91,632.43,63.77,639.44Z" transform="translate(0 0)"/><g class="cls-93"><path class="cls-92" d="M63.77,639.44l-16.68-9.7c12.14-7,15-7.88,22.26-9L86,630.47c-7.26,1.08-10.12,2-22.26,9Z" transform="translate(0 0)"/></g></g><g class="cls-3"><path class="cls-1" d="M49.74,713.88l-16.68-9.69c-5.05-2.93-7.14-11.82-7.18-26.12-.07-22.66,4.45-38.65,21.21-48.33l16.68,9.7C47,649.12,42.49,665.11,42.56,687.76,42.6,702.07,44.69,711,49.74,713.88Z" transform="translate(0 0)"/><g class="cls-94"><path class="cls-92" d="M49.74,713.88l-16.68-9.69c-5.05-2.93-7.14-11.82-7.18-26.12-.07-22.66,4.45-38.65,21.21-48.33l16.68,9.7C47,649.12,42.49,665.11,42.56,687.76c0,14.31,2.13,23.19,7.18,26.12Z" transform="translate(0 0)"/></g></g><path class="cls-95" d="M63.77,639.44c12.14-7,15-7.89,22.26-9l0,14.62a137.34,137.34,0,0,0-17.19,8.27l-.78.45c-6.52,3.77-9.25,5.7-9.19,24.71,0,15.88,1.65,18.24,10.16,13.33,8.85-5.11,16.69-10.46,17.1-10.75l0,14.62c-4.58,4.86-8.65,8.15-18,13.55-1.3.76-2.71,1.55-4.23,2.39-15.59,8.72-21.35-.08-21.42-23.9C42.49,665.11,47,649.12,63.77,639.44Z" transform="translate(0 0)"/></g><path class="cls-96" d="M235.9,631.81c-5.68-3.28-14.87-3.28-20.52,0s-5.61,8.6.07,11.89,14.87,3.28,20.52,0S241.58,635.09,235.9,631.81Z" transform="translate(0 0)"/><path class="cls-97" d="M237.78,638.84a4.61,4.61,0,0,1-.56,1.3,7.82,7.82,0,0,1-2.86,2.62c-4.76,2.78-12.52,2.78-17.31,0a8,8,0,0,1-2.92-2.66,5.06,5.06,0,0,1-.56-1.3c-.56-2.15.58-4.41,3.42-6.06,4.77-2.77,12.52-2.77,17.31,0C237.18,634.4,238.34,636.68,237.78,638.84Z" transform="translate(0 0)"/><path class="cls-82" d="M237.78,638.84a4.61,4.61,0,0,1-.56,1.3,7.82,7.82,0,0,1-2.86,2.62c-4.76,2.78-12.52,2.78-17.31,0a8,8,0,0,1-2.92-2.66,5.06,5.06,0,0,1-.56-1.3,6.82,6.82,0,0,1,3.42-3.93c4.77-2.76,12.52-2.76,17.31,0A6.93,6.93,0,0,1,237.78,638.84Z" transform="translate(0 0)"/><g class="cls-3"><path class="cls-97" d="M239.77,639.77a8.64,8.64,0,0,1-3.8,3.92,21,21,0,0,1-10.51,2.47l-.07,23.2a21,21,0,0,0,10.51-2.46,8.72,8.72,0,0,0,3.8-3.91,5.17,5.17,0,0,0,.41-2l.07-23.21A5.13,5.13,0,0,1,239.77,639.77Z" transform="translate(0 0)"/><path class="cls-98" d="M225.46,646.16l-.07,23.2a20.66,20.66,0,0,1-10-2.46c-2.86-1.65-4.29-3.81-4.28-6l.07-23.21c0,2.17,1.42,4.33,4.28,6a20.92,20.92,0,0,0,10,2.46Z" transform="translate(0 0)"/><path class="cls-97" d="M214.46,643.07c-2.2-1.56-3.3-3.46-3.29-5.36l-.07,23.21c0,1.92,1.12,3.84,3.36,5.4Z" transform="translate(0 0)"/></g><path class="cls-80" d="M239.52,647.27a8.64,8.64,0,0,1-3.8,3.92,21.07,21.07,0,0,1-10.51,2.47l-.07,10.72a21,21,0,0,0,10.51-2.46,8.69,8.69,0,0,0,3.8-3.92,5.13,5.13,0,0,0,.41-2l.07-10.73A5.13,5.13,0,0,1,239.52,647.27Z" transform="translate(0 0)"/><path class="cls-82" d="M225.46,653.66l-.07,10.72a20.89,20.89,0,0,1-10-2.46c-2.86-1.65-4.29-3.82-4.28-6l.07-10.73c0,2.17,1.42,4.33,4.28,6a20.92,20.92,0,0,0,10,2.46Z" transform="translate(0 0)"/><path class="cls-80" d="M214.21,650.57c-2.2-1.56-3.3-3.46-3.29-5.36l-.07,10.73c0,1.92,1.11,3.84,3.36,5.4Z" transform="translate(0 0)"/><path class="cls-96" d="M202.09,636.33c-5.69-3.28-14.87-3.28-20.52,0s-5.61,8.6.07,11.88,14.87,3.28,20.52,0S207.77,639.61,202.09,636.33Z" transform="translate(0 0)"/><path class="cls-97" d="M204,643.35a4.61,4.61,0,0,1-.56,1.3,7.92,7.92,0,0,1-2.86,2.63c-4.77,2.77-12.52,2.77-17.31,0a8.14,8.14,0,0,1-2.92-2.67,4.92,4.92,0,0,1-.56-1.3c-.56-2.14.58-4.4,3.42-6.06,4.77-2.77,12.52-2.77,17.31,0C203.37,638.92,204.53,641.2,204,643.35Z" transform="translate(0 0)"/><path class="cls-99" d="M204,643.35a4.61,4.61,0,0,1-.56,1.3,7.92,7.92,0,0,1-2.86,2.63c-4.77,2.77-12.52,2.77-17.31,0a8.14,8.14,0,0,1-2.92-2.67,4.92,4.92,0,0,1-.56-1.3,6.81,6.81,0,0,1,3.42-3.92c4.77-2.77,12.52-2.77,17.31,0A6.89,6.89,0,0,1,204,643.35Z" transform="translate(0 0)"/><g class="cls-3"><path class="cls-97" d="M206,644.29a8.68,8.68,0,0,1-3.8,3.92,21,21,0,0,1-10.51,2.46l-.07,23.21a21,21,0,0,0,10.51-2.46,8.69,8.69,0,0,0,3.8-3.92,5.13,5.13,0,0,0,.41-2l.07-23.21A5.16,5.16,0,0,1,206,644.29Z" transform="translate(0 0)"/><path class="cls-98" d="M191.65,650.67l-.07,23.21a20.89,20.89,0,0,1-10-2.46c-2.86-1.65-4.29-3.82-4.28-6l.07-23.2c0,2.16,1.42,4.33,4.28,6a20.92,20.92,0,0,0,10,2.46Z" transform="translate(0 0)"/><path class="cls-97" d="M180.65,647.58c-2.2-1.55-3.3-3.45-3.29-5.35l-.07,23.2c0,1.93,1.12,3.85,3.36,5.41Z" transform="translate(0 0)"/></g><path class="cls-99" d="M205.71,651.79a8.68,8.68,0,0,1-3.8,3.92,21,21,0,0,1-10.51,2.46l-.07,10.72a21.09,21.09,0,0,0,10.51-2.45,8.78,8.78,0,0,0,3.8-3.92,5.17,5.17,0,0,0,.41-2l.07-10.72A5.16,5.16,0,0,1,205.71,651.79Z" transform="translate(0 0)"/><path class="cls-99" d="M191.65,658.17l-.07,10.72a20.77,20.77,0,0,1-10-2.45c-2.86-1.65-4.29-3.82-4.28-6l.07-10.73c0,2.17,1.42,4.34,4.28,6a20.92,20.92,0,0,0,10,2.46Z" transform="translate(0 0)"/><path class="cls-99" d="M180.4,655.08c-2.2-1.55-3.3-3.45-3.29-5.36L177,660.45c0,1.92,1.11,3.84,3.36,5.4Z" transform="translate(0 0)"/><path class="cls-96" d="M215.39,655.75c-5.68-3.28-14.86-3.28-20.51,0s-5.62,8.61.06,11.89,14.87,3.28,20.52,0S221.08,659,215.39,655.75Z" transform="translate(0 0)"/><path class="cls-97" d="M217.27,662.78a4.61,4.61,0,0,1-.56,1.3,7.92,7.92,0,0,1-2.86,2.63c-4.76,2.77-12.51,2.77-17.31,0a8.14,8.14,0,0,1-2.92-2.67,5,5,0,0,1-.55-1.3c-.57-2.15.57-4.41,3.41-6.06,4.77-2.77,12.52-2.77,17.32,0C216.67,658.34,217.83,660.63,217.27,662.78Z" transform="translate(0 0)"/><path class="cls-86" d="M217.27,662.78a4.61,4.61,0,0,1-.56,1.3,7.92,7.92,0,0,1-2.86,2.63c-4.76,2.77-12.51,2.77-17.31,0a8.14,8.14,0,0,1-2.92-2.67,5,5,0,0,1-.55-1.3,6.75,6.75,0,0,1,3.41-3.92c4.77-2.77,12.52-2.77,17.32,0A6.86,6.86,0,0,1,217.27,662.78Z" transform="translate(0 0)"/><g class="cls-3"><path class="cls-97" d="M219.26,663.72a8.61,8.61,0,0,1-3.8,3.91A20.86,20.86,0,0,1,205,670.1l-.07,23.21a21.2,21.2,0,0,0,10.51-2.46,8.68,8.68,0,0,0,3.8-3.92,5.16,5.16,0,0,0,.41-2l.07-23.22A5,5,0,0,1,219.26,663.72Z" transform="translate(0 0)"/><path class="cls-98" d="M205,670.1l-.07,23.21a20.92,20.92,0,0,1-10-2.46c-2.86-1.65-4.29-3.82-4.28-6l.07-23.21c0,2.17,1.42,4.33,4.28,6a21,21,0,0,0,10,2.46Z" transform="translate(0 0)"/><path class="cls-97" d="M194,667c-2.2-1.56-3.31-3.46-3.3-5.36l-.07,23.21c0,1.92,1.12,3.84,3.37,5.4Z" transform="translate(0 0)"/></g><path class="cls-83" d="M219,671.21a8.58,8.58,0,0,1-3.8,3.92,20.86,20.86,0,0,1-10.51,2.47l-.07,10.72a21,21,0,0,0,10.51-2.46,8.58,8.58,0,0,0,3.8-3.92,5.13,5.13,0,0,0,.41-2l.07-10.73A5.09,5.09,0,0,1,219,671.21Z" transform="translate(0 0)"/><path class="cls-86" d="M205,677.6l-.07,10.72a20.69,20.69,0,0,1-10-2.46c-2.86-1.65-4.29-3.81-4.28-6l.07-10.73c0,2.17,1.42,4.33,4.28,6a21,21,0,0,0,10,2.46Z" transform="translate(0 0)"/><path class="cls-83" d="M193.7,674.51c-2.2-1.56-3.3-3.46-3.29-5.36l-.07,10.73c0,1.92,1.12,3.84,3.36,5.4Z" transform="translate(0 0)"/><path class="cls-96" d="M185.67,648c-5.68-3.28-14.86-3.28-20.51,0s-5.62,8.61.06,11.89,14.87,3.28,20.52,0S191.36,651.25,185.67,648Z" transform="translate(0 0)"/><path class="cls-97" d="M187.55,655a4.61,4.61,0,0,1-.56,1.3,7.84,7.84,0,0,1-2.86,2.63c-4.76,2.77-12.51,2.77-17.31,0a8.14,8.14,0,0,1-2.92-2.67,5,5,0,0,1-.55-1.3c-.57-2.15.57-4.41,3.42-6.06,4.76-2.77,12.51-2.77,17.31,0C187,650.56,188.12,652.85,187.55,655Z" transform="translate(0 0)"/><path class="cls-95" d="M187.55,655a4.61,4.61,0,0,1-.56,1.3,7.84,7.84,0,0,1-2.86,2.63c-4.76,2.77-12.51,2.77-17.31,0a8.14,8.14,0,0,1-2.92-2.67,5,5,0,0,1-.55-1.3,6.73,6.73,0,0,1,3.42-3.92c4.76-2.77,12.51-2.77,17.31,0A6.86,6.86,0,0,1,187.55,655Z" transform="translate(0 0)"/><g class="cls-3"><path class="cls-97" d="M189.54,655.94a8.61,8.61,0,0,1-3.8,3.91,20.86,20.86,0,0,1-10.51,2.47l-.07,23.21a21.18,21.18,0,0,0,10.51-2.46,8.68,8.68,0,0,0,3.8-3.92,5.16,5.16,0,0,0,.41-2L190,654A5,5,0,0,1,189.54,655.94Z" transform="translate(0 0)"/><path class="cls-98" d="M175.23,662.32l-.07,23.21a21,21,0,0,1-10-2.46c-2.86-1.65-4.29-3.82-4.28-6l.07-23.21c0,2.17,1.42,4.33,4.28,6a21,21,0,0,0,10,2.46Z" transform="translate(0 0)"/><path class="cls-97" d="M164.24,659.23c-2.2-1.56-3.3-3.46-3.3-5.36l-.07,23.21c0,1.92,1.12,3.84,3.37,5.4Z" transform="translate(0 0)"/></g><path class="cls-92" d="M189.54,663.44a8.61,8.61,0,0,1-3.8,3.91,20.86,20.86,0,0,1-10.51,2.47l-.07,10.72a21,21,0,0,0,10.51-2.46,8.58,8.58,0,0,0,3.8-3.92,5.13,5.13,0,0,0,.41-2l.07-10.73A5,5,0,0,1,189.54,663.44Z" transform="translate(0 0)"/><path class="cls-95" d="M175.23,669.82l-.07,10.72a20.72,20.72,0,0,1-10-2.46c-2.86-1.65-4.29-3.81-4.28-6l.07-10.73c0,2.17,1.42,4.33,4.28,6a21,21,0,0,0,10,2.46Z" transform="translate(0 0)"/><path class="cls-92" d="M164.24,666.73c-2.2-1.56-3.3-3.46-3.3-5.36l-.07,10.73c0,1.92,1.12,3.84,3.37,5.4Z" transform="translate(0 0)"/><g class="cls-3"><polygon class="cls-2" points="804.11 784.46 819.58 775.47 819.5 804.93 804.02 813.93 804.11 784.46"/><polygon class="cls-2" points="827.5 797.53 842.97 788.54 854.72 825.27 839.25 834.26 827.5 797.53"/><polygon class="cls-2" points="804.24 768.76 819.72 759.76 829.77 765.57 814.29 774.56 804.24 768.76"/><polygon class="cls-2" points="804.29 752.78 819.76 743.79 819.72 759.76 804.24 768.76 804.29 752.78"/><path class="cls-2" d="M833.59,766.47l-15.48,9c-.75.44-1.93.19-3.81-.9l15.47-9C831.65,766.65,832.84,766.91,833.59,766.47Z" transform="translate(0 0)"/><g class="cls-100"><g class="cls-3"><path class="cls-2" d="M814.3,774.56l15.47-9a12.62,12.62,0,0,0,1.63.8l-15.47,9a10.49,10.49,0,0,1-1.63-.8Z" transform="translate(0 0)"/><path class="cls-2" d="M815.93,775.36l15.47-9a2.56,2.56,0,0,0,2.19.1l-15.48,9a2.47,2.47,0,0,1-2.18-.1Z" transform="translate(0 0)"/></g></g><polygon class="cls-2" points="786.02 724.4 801.5 715.4 832.22 733.14 816.74 742.13 786.02 724.4"/><path class="cls-2" d="M848.52,788,833,797c2.64-1.53,4.63-5.9,4.67-17.33,0-19.64-8.76-30.46-21-37.51l15.48-9c12.21,7.05,21,17.87,21,37.51C853.15,782.08,851.16,786.45,848.52,788Z" transform="translate(0 0)"/><g class="cls-101"><g class="cls-3"><path class="cls-2" d="M816.74,742.13l15.48-9a51,51,0,0,1,6,4l-15.48,9a52.67,52.67,0,0,0-6-4Z" transform="translate(0 0)"/><path class="cls-2" d="M822.76,746.17l15.48-9c7.31,5.72,12.65,13.55,14.36,25l-15.48,9c-1.71-11.47-7-19.29-14.36-25Z" transform="translate(0 0)"/><path class="cls-2" d="M837.12,771.19l15.48-9a56.09,56.09,0,0,1,.58,8.45,59.5,59.5,0,0,1-.57,8.8l-15.47,9a61.16,61.16,0,0,0,.57-8.81,56.14,56.14,0,0,0-.59-8.45Z" transform="translate(0 0)"/><path class="cls-2" d="M837.14,788.45l15.47-9c-.77,5.09-2.28,7.48-4.09,8.53L833,797c1.81-1.05,3.32-3.44,4.1-8.52Z" transform="translate(0 0)"/></g></g><path class="cls-102" d="M827.5,797.53l11.75,36.74-20.76-12-8.75-33-5.64-4.77L804,813.93,785.8,803.41l.22-79,30.72,17.73c12.21,7,21,17.87,21,37.51C837.65,798.43,832.29,798.14,827.5,797.53Zm-13.2-23c4.79,2.77,5.07.12,5.09-5.49,0-4.75-.92-8.1-5-10.48l-10.05-5.81,0,16,10.06,5.8Z" transform="translate(0 0)"/></g><g class="cls-3"><g class="cls-3"><path class="cls-1" d="M888.66,841.87l-15.48,9a9,9,0,0,0,1.68-1.33l15.48-9A10.36,10.36,0,0,1,888.66,841.87Z" transform="translate(0 0)"/><g class="cls-103"><path class="cls-104" d="M874.86,849.53l15.48-9a10.36,10.36,0,0,1-1.68,1.33l-15.48,9a9,9,0,0,0,1.68-1.33Z" transform="translate(0 0)"/></g></g><g class="cls-3"><path class="cls-1" d="M862.39,787.84l15.47-9c-2.57,1.5-3.17,7.18-3.2,18.15,0,17.71.5,21.38,8.77,26.15,2.75,1.59,4.41,1.49,5.39.92l-15.48,9c-1,.57-2.64.68-5.39-.92-8.26-4.77-8.82-8.44-8.77-26.14C859.21,795,859.81,789.33,862.39,787.84Z" transform="translate(0 0)"/><g class="cls-105"><path class="cls-104" d="M862.39,787.84l15.47-9c-1.31.76-2.11,2.62-2.58,5.71l-15.48,9c.47-3.09,1.27-4.94,2.59-5.7Z" transform="translate(0 0)"/><path class="cls-104" d="M859.8,793.54l15.48-9a89.06,89.06,0,0,0-.62,12.44c0,6.59,0,11.23.56,14.71l-15.48,9a108.93,108.93,0,0,1-.56-14.71,90.81,90.81,0,0,1,.62-12.45Z" transform="translate(0 0)"/><path class="cls-104" d="M859.74,820.7l15.48-9c.66,4.47,2.06,7,5,9.31l-15.47,9c-2.92-2.28-4.32-4.84-5-9.3Z" transform="translate(0 0)"/><path class="cls-104" d="M864.72,830l15.47-9a27.6,27.6,0,0,0,3.24,2.13,11.31,11.31,0,0,0,1.77.86l-15.48,9a11.75,11.75,0,0,1-1.77-.86,26.22,26.22,0,0,1-3.23-2.13Z" transform="translate(0 0)"/><path class="cls-104" d="M869.72,833l15.48-9a4.12,4.12,0,0,0,3.62.06l-15.48,9a4.08,4.08,0,0,1-3.62-.06Z" transform="translate(0 0)"/></g></g><g class="cls-3"><path class="cls-1" d="M848.5,765.84l15.48-9c3.47-2,8.42-1.37,15.39,2.66l-15.47,9C856.92,764.47,852,763.82,848.5,765.84Z" transform="translate(0 0)"/><g class="cls-106"><path class="cls-104" d="M848.5,765.84l15.48-9c2.53-1.47,5.86-1.52,10.19.13l-15.48,9c-4.33-1.65-7.65-1.6-10.19-.12Z" transform="translate(0 0)"/><path class="cls-104" d="M858.69,766l15.48-9a37.61,37.61,0,0,1,5.2,2.53l-15.47,9a37.14,37.14,0,0,0-5.21-2.53Z" transform="translate(0 0)"/></g></g><g class="cls-3"><path class="cls-1" d="M870.19,807.37l15.47-9c4.24-.15,10.25,3.21,16.45,6.79,2,1.14,4.13,2.49,6.38,4l-15.47,9c-2.26-1.52-4.42-2.87-6.39-4C880.43,810.58,874.42,807.22,870.19,807.37Z" transform="translate(0 0)"/><g class="cls-107"><path class="cls-104" d="M870.19,807.37l15.47-9a14.65,14.65,0,0,1,5.51,1.16l-15.48,9a14.44,14.44,0,0,0-5.5-1.17Z" transform="translate(0 0)"/><path class="cls-104" d="M875.69,808.54l15.48-9a83.65,83.65,0,0,1,10.94,5.63c2,1.14,4.13,2.49,6.38,4l-15.47,9c-2.26-1.52-4.42-2.87-6.39-4a81.68,81.68,0,0,0-10.94-5.62Z" transform="translate(0 0)"/></g></g><polygon class="cls-104" points="893.02 818.17 908.49 809.18 908.36 856.24 892.88 865.23 893.02 818.17"/><polygon class="cls-104" points="892.44 788.97 907.92 779.98 907.87 796.06 892.4 805.06 892.44 788.97"/><g class="cls-3"><path class="cls-1" d="M863.9,768.49l15.47-9c14.94,8.62,15.88,9.17,28.55,20.48l-15.48,9C879.77,777.66,878.83,777.12,863.9,768.49Z" transform="translate(0 0)"/><g class="cls-108"><path class="cls-104" d="M863.9,768.49l15.47-9c9.29,5.36,13.17,7.6,17.82,11.25l-15.48,9c-4.65-3.65-8.52-5.88-17.81-11.25Z" transform="translate(0 0)"/><path class="cls-104" d="M881.71,779.74l15.48-9c2.83,2.21,5.94,5,10.73,9.23l-15.48,9c-4.79-4.27-7.9-7-10.73-9.23Z" transform="translate(0 0)"/></g></g><path class="cls-109" d="M863.9,768.49c14.93,8.63,15.87,9.17,28.54,20.48l0,16.09a230.77,230.77,0,0,0-22.92-15.61c-8.73-5-10.25-1.05-10.3,16.54s.51,21.37,8.77,26.14c5.83,3.37,6.73-.83,6.78-1l0-8.1-4.6-2.66,0-13c4.23-.15,10.24,3.21,16.44,6.79,2,1.14,4.13,2.49,6.39,4l-.14,47.06L880,857.8l-5.16-8.27c-2.64,2.48-4.14,2.9-11.66-.89-.66-.33-1.3-.68-1.92-1-17.72-10.23-20.38-30.86-20.32-52.35C841,771.18,845.21,757.7,863.9,768.49Z" transform="translate(0 0)"/></g><g class="cls-3"><polygon class="cls-92" points="918.2 862.12 933.68 853.13 944.86 859.58 929.38 868.58 918.2 862.12"/><polygon class="cls-92" points="918.25 846.79 933.72 837.8 933.68 853.13 918.2 862.12 918.25 846.79"/><g class="cls-3"><path class="cls-1" d="M948,860.13l-15.48,9c-.71.42-1.73.27-3.14-.54l15.48-9C946.27,860.4,947.29,860.54,948,860.13Z" transform="translate(0 0)"/><g class="cls-110"><g class="cls-3"><path class="cls-92" d="M929.38,868.58l15.48-9a6.92,6.92,0,0,0,1.07.52l-15.48,9a8.6,8.6,0,0,1-1.07-.52Z" transform="translate(0 0)"/><path class="cls-111" d="M930.45,869.1l15.48-9a2.34,2.34,0,0,0,2.07,0l-15.48,9a2.33,2.33,0,0,1-2.07,0Z" transform="translate(0 0)"/></g></g></g><polygon class="cls-92" points="918.29 830.17 933.77 821.18 944.01 827.09 928.53 836.08 918.29 830.17"/><polygon class="cls-92" points="918.33 818.51 933.8 809.52 933.77 821.18 918.29 830.17 918.33 818.51"/><g class="cls-3"><path class="cls-1" d="M946.93,827.48l-15.48,9c-.69.41-1.67.34-2.92-.39l15.48-9C945.26,827.81,946.23,827.88,946.93,827.48Z" transform="translate(0 0)"/><g class="cls-112"><g class="cls-3"><path class="cls-92" d="M928.53,836.08l15.48-9a5.65,5.65,0,0,0,.83.4l-15.47,9a5.85,5.85,0,0,1-.84-.41Z" transform="translate(0 0)"/><path class="cls-111" d="M929.37,836.49l15.47-9a2.36,2.36,0,0,0,2.09,0l-15.48,9a2.37,2.37,0,0,1-2.08,0Z" transform="translate(0 0)"/></g></g></g><g class="cls-3"><path class="cls-1" d="M962.65,881.55l-15.47,9c3.32-1.94,5-6.85,5-15.27,0-8.21-4.65-18.26-11.69-23.62l15.48-9c7,5.36,11.71,15.41,11.69,23.61C967.68,874.71,966,879.62,962.65,881.55Z" transform="translate(0 0)"/><g class="cls-113"><g class="cls-3"><path class="cls-92" d="M940.53,851.66l15.48-9,.26.2-15.48,9-.26-.2Z" transform="translate(0 0)"/><path class="cls-92" d="M940.79,851.86l15.48-9c5.89,4.62,10.07,12.52,11.16,19.77l-15.48,9c-1.08-7.25-5.27-15.15-11.16-19.77Z" transform="translate(0 0)"/><path class="cls-92" d="M952,871.63l15.48-9a25.39,25.39,0,0,1,.27,3.64,43.39,43.39,0,0,1-.44,6.43l-15.47,9a43.35,43.35,0,0,0,.43-6.42,24.06,24.06,0,0,0-.27-3.65Z" transform="translate(0 0)"/><path class="cls-92" d="M951.79,881.7l15.47-9c-.7,4.58-2.24,7.46-4.61,8.84l-15.47,9c2.36-1.38,3.91-4.26,4.61-8.85Z" transform="translate(0 0)"/></g></g></g><polygon class="cls-92" points="900.15 790.29 915.63 781.3 945.5 798.54 930.02 807.54 900.15 790.29"/><path class="cls-95" d="M940.53,851.66c7,5.36,11.72,15.41,11.69,23.62-.05,17.7-7.48,19.89-22,11.54L899.93,869.3l.22-79L930,807.54c14.66,8.46,20.65,20.13,20.61,33.52C950.61,847.75,947.3,854.92,940.53,851.66Zm-11.15,16.92c3.57,2.06,4.61-.15,4.63-4.9,0-4-.92-8.32-4.59-10.43l-11.17-6.46,0,15.33,11.18,6.46Zm-11-50.07,0,11.66,10.24,5.91c2.82,1.63,4.24,0,4.25-3.06,0-4.75-2.15-7.4-4.21-8.59l-10.24-5.92Z" transform="translate(0 0)"/><g class="cls-3"><path class="cls-1" d="M961.72,842.8l-15.47,9c2.92-1.7,4.37-6.32,4.38-10.73,0-13.39-6-25.06-20.61-33.52l15.48-9c14.65,8.46,20.64,20.13,20.61,33.51C966.09,836.48,964.65,841.1,961.72,842.8Z" transform="translate(0 0)"/><g class="cls-114"><g class="cls-3"><path class="cls-92" d="M930,807.54l15.48-9a51.78,51.78,0,0,1,6.22,4.17l-15.48,9a53,53,0,0,0-6.22-4.17Z" transform="translate(0 0)"/><path class="cls-92" d="M936.24,811.71l15.48-9c8.27,6.48,12.64,14.38,13.95,23.2l-15.47,9c-1.32-8.82-5.68-16.72-14-23.21Z" transform="translate(0 0)"/><path class="cls-92" d="M950.2,834.92l15.47-9a41.38,41.38,0,0,1,.44,6.14,20.14,20.14,0,0,1-.24,3l-15.47,9a20,20,0,0,0,.23-3,41.38,41.38,0,0,0-.43-6.14Z" transform="translate(0 0)"/><path class="cls-92" d="M950.4,844.06l15.47-9c-.51,3.36-1.89,6.41-4.15,7.73l-15.47,9c2.26-1.31,3.63-4.37,4.15-7.73Z" transform="translate(0 0)"/></g></g></g></g><path class="cls-96" d="M812.38,812.29c-6.08-3.51-15.89-3.51-21.93,0s-6,9.19.07,12.7,15.89,3.5,21.93,0S818.45,815.79,812.38,812.29Z" transform="translate(0 0)"/><path class="cls-97" d="M814.38,819.8a4.93,4.93,0,0,1-.59,1.39,8.49,8.49,0,0,1-3.06,2.8c-5.09,3-13.37,3-18.5,0a8.65,8.65,0,0,1-3.12-2.85,5.1,5.1,0,0,1-.59-1.39c-.6-2.29.62-4.7,3.65-6.47,5.1-3,13.37-3,18.5,0C813.75,815.06,815,817.49,814.38,819.8Z" transform="translate(0 0)"/><path class="cls-109" d="M814.38,819.8a4.93,4.93,0,0,1-.59,1.39,8.49,8.49,0,0,1-3.06,2.8c-5.09,3-13.37,3-18.5,0a8.65,8.65,0,0,1-3.12-2.85,5.1,5.1,0,0,1-.59-1.39,7.25,7.25,0,0,1,3.65-4.19c5.1-2.95,13.37-2.95,18.5,0A7.35,7.35,0,0,1,814.38,819.8Z" transform="translate(0 0)"/><g class="cls-3"><path class="cls-97" d="M816.51,820.8a9.24,9.24,0,0,1-4.06,4.19,22.49,22.49,0,0,1-11.23,2.63l-.08,24.8a22.46,22.46,0,0,0,11.23-2.63,9.27,9.27,0,0,0,4.07-4.19,5.62,5.62,0,0,0,.44-2.11l.07-24.81A5.52,5.52,0,0,1,816.51,820.8Z" transform="translate(0 0)"/><path class="cls-98" d="M801.22,827.62l-.08,24.8a22.29,22.29,0,0,1-10.69-2.63c-3.06-1.76-4.59-4.08-4.58-6.39l.08-24.81c0,2.32,1.52,4.63,4.57,6.4a22.47,22.47,0,0,0,10.7,2.63Z" transform="translate(0 0)"/><path class="cls-97" d="M789.47,824.32c-2.35-1.67-3.53-3.7-3.52-5.73l-.08,24.81c0,2.05,1.2,4.1,3.6,5.77Z" transform="translate(0 0)"/></g><path class="cls-104" d="M816.24,828.81a9.19,9.19,0,0,1-4.06,4.19A22.38,22.38,0,0,1,801,835.63l-.07,11.46a22.35,22.35,0,0,0,11.22-2.63,9.2,9.2,0,0,0,4.07-4.18,5.71,5.71,0,0,0,.44-2.12l.07-11.47A5.27,5.27,0,0,1,816.24,828.81Z" transform="translate(0 0)"/><path class="cls-109" d="M801.22,835.63l-.08,11.46a22.28,22.28,0,0,1-10.69-2.62c-3.06-1.77-4.59-4.08-4.58-6.4l.08-11.46c0,2.31,1.52,4.63,4.57,6.39a22.36,22.36,0,0,0,10.7,2.63Z" transform="translate(0 0)"/><path class="cls-99" d="M789.2,832.33c-2.35-1.66-3.53-3.69-3.52-5.72l-.08,11.46c0,2,1.2,4.1,3.6,5.77Z" transform="translate(0 0)"/><path class="cls-96" d="M826.59,833.05c-6.07-3.51-15.88-3.51-21.92,0s-6,9.19.07,12.7,15.89,3.5,21.92,0S832.67,836.56,826.59,833.05Z" transform="translate(0 0)"/><path class="cls-97" d="M828.6,840.56A5,5,0,0,1,828,842a8.37,8.37,0,0,1-3,2.8c-5.1,3-13.38,3-18.51,0a8.53,8.53,0,0,1-3.11-2.85,5.21,5.21,0,0,1-.6-1.38c-.6-2.3.62-4.71,3.66-6.48,5.09-3,13.37-3,18.5,0C828,835.82,829.2,838.26,828.6,840.56Z" transform="translate(0 0)"/><path class="cls-95" d="M828.6,840.56A5,5,0,0,1,828,842a8.37,8.37,0,0,1-3,2.8c-5.1,3-13.38,3-18.51,0a8.53,8.53,0,0,1-3.11-2.85,5.21,5.21,0,0,1-.6-1.38,7.22,7.22,0,0,1,3.66-4.2c5.09-3,13.37-3,18.5,0A7.35,7.35,0,0,1,828.6,840.56Z" transform="translate(0 0)"/><g class="cls-3"><path class="cls-97" d="M830.73,841.56a9.26,9.26,0,0,1-4.07,4.19,22.46,22.46,0,0,1-11.23,2.63l-.07,24.8a22.49,22.49,0,0,0,11.23-2.63,9.19,9.19,0,0,0,4.06-4.19,5.43,5.43,0,0,0,.44-2.11l.08-24.81A5.52,5.52,0,0,1,830.73,841.56Z" transform="translate(0 0)"/><path class="cls-98" d="M815.43,848.38l-.07,24.8a22.33,22.33,0,0,1-10.7-2.63c-3-1.76-4.58-4.08-4.57-6.39l.08-24.81c0,2.32,1.51,4.63,4.57,6.4a22.32,22.32,0,0,0,10.69,2.63Z" transform="translate(0 0)"/><path class="cls-97" d="M803.68,845.08c-2.35-1.66-3.52-3.69-3.51-5.73l-.08,24.81c0,2.05,1.19,4.1,3.59,5.77Z" transform="translate(0 0)"/></g><path class="cls-92" d="M830.46,849.57a9.24,9.24,0,0,1-4.06,4.19,22.4,22.4,0,0,1-11.24,2.63l-.07,11.46a22.49,22.49,0,0,0,11.23-2.62,9.24,9.24,0,0,0,4.06-4.19,5.52,5.52,0,0,0,.44-2.12l.08-11.47A5.44,5.44,0,0,1,830.46,849.57Z" transform="translate(0 0)"/><path class="cls-95" d="M815.43,856.39l-.07,11.46a22.32,22.32,0,0,1-10.7-2.62c-3-1.77-4.58-4.08-4.57-6.4l.08-11.46c0,2.31,1.51,4.63,4.57,6.39a22.32,22.32,0,0,0,10.69,2.63Z" transform="translate(0 0)"/><path class="cls-92" d="M803.42,853.09c-2.36-1.66-3.53-3.69-3.52-5.72l-.08,11.46c0,2,1.19,4.11,3.6,5.77Z" transform="translate(0 0)"/><path class="cls-96" d="M793,828.23c-6.08-3.51-15.89-3.51-21.93,0s-6,9.19.08,12.69,15.88,3.51,21.92,0S799.05,831.73,793,828.23Z" transform="translate(0 0)"/><path class="cls-97" d="M795,835.73a4.93,4.93,0,0,1-.59,1.39,8.51,8.51,0,0,1-3.06,2.81c-5.09,3-13.37,3-18.5,0a8.65,8.65,0,0,1-3.12-2.85,5.24,5.24,0,0,1-.59-1.39c-.6-2.29.62-4.71,3.65-6.47,5.1-3,13.37-3,18.5,0C794.35,831,795.59,833.43,795,835.73Z" transform="translate(0 0)"/><path class="cls-102" d="M795,835.73a4.93,4.93,0,0,1-.59,1.39,8.51,8.51,0,0,1-3.06,2.81c-5.09,3-13.37,3-18.5,0a8.65,8.65,0,0,1-3.12-2.85,5.24,5.24,0,0,1-.59-1.39,7.25,7.25,0,0,1,3.65-4.19c5.1-3,13.37-3,18.5,0A7.36,7.36,0,0,1,795,835.73Z" transform="translate(0 0)"/><g class="cls-3"><path class="cls-97" d="M797.11,836.73a9.14,9.14,0,0,1-4.06,4.19,22.39,22.39,0,0,1-11.23,2.64l-.08,24.79A22.35,22.35,0,0,0,793,865.73a9.32,9.32,0,0,0,4.07-4.19,5.67,5.67,0,0,0,.44-2.12l.07-24.8A5.26,5.26,0,0,1,797.11,836.73Z" transform="translate(0 0)"/><path class="cls-98" d="M781.82,843.56l-.08,24.79a22.17,22.17,0,0,1-10.69-2.62c-3.06-1.77-4.58-4.08-4.58-6.4l.08-24.8c0,2.31,1.52,4.63,4.58,6.39a22.41,22.41,0,0,0,10.69,2.64Z" transform="translate(0 0)"/><path class="cls-97" d="M770.07,840.25c-2.35-1.66-3.53-3.69-3.52-5.72l-.08,24.8c0,2,1.2,4.11,3.6,5.78Z" transform="translate(0 0)"/></g><path class="cls-2" d="M797.11,844.75a9.24,9.24,0,0,1-4.06,4.19,22.49,22.49,0,0,1-11.23,2.63L781.74,863A22.36,22.36,0,0,0,793,860.4a9.27,9.27,0,0,0,4.07-4.19,5.62,5.62,0,0,0,.44-2.11l.07-11.47A5.34,5.34,0,0,1,797.11,844.75Z" transform="translate(0 0)"/><path class="cls-102" d="M781.82,851.57,781.74,863a22.18,22.18,0,0,1-10.69-2.63c-3.06-1.76-4.58-4.08-4.58-6.39l.08-11.47c0,2.32,1.52,4.63,4.58,6.4a22.29,22.29,0,0,0,10.69,2.63Z" transform="translate(0 0)"/><path class="cls-2" d="M770.07,848.27c-2.35-1.66-3.53-3.69-3.52-5.73L766.47,854c0,2,1.2,4.1,3.6,5.77Z" transform="translate(0 0)"/><g id="Character"><path class="cls-6" d="M260.63,80.1c-.11,1,3.27,3,3.27,3l-.95-5.8Z" transform="translate(0 0)"/><path class="cls-115" d="M260.63,80.1c-.11,1,3.27,3,3.27,3l-.95-5.8Z" transform="translate(0 0)"/><path class="cls-116" d="M321.29,132.93c4.4,10.17,11.14,27.6,16.5,41.42,8.53-1.89,26.65-6.78,32.6-8.82s10-3.71,11.05-4.94c1.89-1.68,2.15-4.89,2.38-7.09.37-3.68-1.33-7.25-1.6-8.67-.47-2.45,3.5-1.78,5.56,1.91,1.5,2.69,1.69,5.47,2.93,5.75.42.1,4.22-2.18,4.77-2.59,2.09-1.59,5.87-4.2,8.83-3.13a3.21,3.21,0,0,1,2,2.21c.41,1.59.31,2.82,1.23,4.26a8.88,8.88,0,0,1,1.2,1.85c.31.93-.07,1.68.05,2.61.15,1.28,1.58,2.08,1.81,3.35.18.91-.31,1.82-.28,2.75,0,.6.26,1.18.27,1.77a4.09,4.09,0,0,1-1.69,3c-3.11,2.71-6.34,4-10.08,5.34-3.11,1.14-7.26,1.79-10.77,2.83-24,7.13-54.61,23.34-57.94,21.25-8.63-4.26-16.52-30.92-21.74-42.44s-6.18-25.6-10-37.12C309.78,117.38,316.05,120.86,321.29,132.93Z" transform="translate(0 0)"/><path class="cls-117" d="M296,118.25c6.41-.89,11.62-1,17.24,2.64s6.61,7.25,9.53,13.82,12,28.27,12,28.27-7.31,9.62-24.17,11.12l-12.74-33.47Z" transform="translate(0 0)"/><path class="cls-118" d="M390.73,165.91c2-1.86,3-6.33,2.36-8.27s-.59-4,1.26-5.48a4.1,4.1,0,0,0-.33,3.63,2.63,2.63,0,0,0,3,1.26s-2.29,1.31-1.18,3.38a2.82,2.82,0,0,0,3.25,1.42,2.7,2.7,0,0,0-.88,3.17,2.65,2.65,0,0,0,2.94,1.35s-1.76,2.86,1.5,3.3c0,0-2.91.77-2.94-2.25a3.5,3.5,0,0,1-3-1.41c-.73-1,0-3,0-3a2.11,2.11,0,0,1-2-1.13S394.38,164.66,390.73,165.91Z" transform="translate(0 0)"/><rect class="cls-116" x="243.32" y="398.43" width="15.37" height="26.3" transform="translate(491.89 829.16) rotate(-178.6)"/><path class="cls-116" d="M300.56,407c5,2.93,10.14,5.18,16.74,1l-1-33-16.37,1.51Z" transform="translate(0 0)"/><path class="cls-6" d="M250,216.75c-.34,14-3.29,95.25-3.29,95.25-.44,4-4.49,11.07-5.14,25.55-.95,21,1.07,70.59,1.07,70.59a21.82,21.82,0,0,0,17.26.8s12.24-69.82,15.37-90.56C278,300.29,285.68,253,285.68,253l8.38,61.94a103.2,103.2,0,0,0-1.36,22.3c.45,9.64,6.56,57.64,6.56,57.64s9.45,3.8,19.54.66c0,0,3.35-74.48,3.73-83.31.44-10.06-1.84-96.74-1.84-96.74Z" transform="translate(0 0)"/><path class="cls-119" d="M250,216.75c-.34,14-3.29,95.25-3.29,95.25-.44,4-4.49,11.07-5.14,25.55-.95,21,1.07,70.59,1.07,70.59a21.82,21.82,0,0,0,17.26.8s12.24-69.82,15.37-90.56C278,300.29,285.68,253,285.68,253l8.38,61.94a103.2,103.2,0,0,0-1.36,22.3c.45,9.64,6.56,57.64,6.56,57.64s9.45,3.8,19.54.66c0,0,3.35-74.48,3.73-83.31.44-10.06-1.84-96.74-1.84-96.74Z" transform="translate(0 0)"/><path class="cls-120" d="M258.55,417.33l.05-2.19c.83,0,1.32.83,1.58,2.82.19,1.42.38,2.49.8,4.36a51.09,51.09,0,0,0,2.49,7.93c2,5.41,3.81,7.44,8.63,13.82,1.15,1.51,3.75,3.93,4.64,5.61s1.1,6.28-.5,7.3c-5.9,3.72-14.7,3.61-20.89,1.63a12.58,12.58,0,0,1-8.8-10.38c-.19-1.42-.07-2.87-.2-4.3-.29-3.26-1.85-6.26-3.63-9a27.22,27.22,0,0,1-2.83-4.93c-1.21-3.19-.09-6.72.81-9.84.78-2.7,1.62-5.67,2.54-5.39,0,.33,0,1.68,0,1.68,1.09,1.26,4.14,2.56,7.62,2.78C253.06,419.36,258.53,419.05,258.55,417.33Z" transform="translate(0 0)"/><path class="cls-120" d="M317.14,402.82c.87.05,2,1.26,3.89,3.38a36.72,36.72,0,0,0,9.69,7.34c6.2,3.3,18.29,8.43,23.76,11.06,3.41,1.64,3.15,5.8-.48,8.09s-12.28,3.78-22.57,1.22c-5.6-1.4-12.81-6.78-17.46-6.62s-13.34-.11-16.71-2.56-1.87-7.45-.8-11.77c1.17-4.7,2.42-12,4-11.69l.1,4.29c1.94,3.1,15.69,1.71,16.7,0Z" transform="translate(0 0)"/><path class="cls-121" d="M285.68,253s9.51-1.25,15.21-7.5c0,0-1.35,6.12-9.18,10.27l1.53,53.09Z" transform="translate(0 0)"/><path class="cls-122" d="M275.19,119.28c-4.53.28-14.47,1.06-18.72,1.93-4,.81-5.63,7.62-6.44,11.21-2.62,11.51,1.75,51.73,1.75,51.73l-2.88,39.73c9.74,7.09,52.22,10.54,72.72-4.42,0,0-1-66-2.71-76.32-2.84-17.2-12-25-19.6-25.28Z" transform="translate(0 0)"/><path class="cls-120" d="M280,73a19.09,19.09,0,1,0,19.09-19.09A19.09,19.09,0,0,0,280,73Z" transform="translate(0 0)"/><path class="cls-120" d="M264.65,87.06S267.74,101.59,269,104a6.59,6.59,0,0,0,3.8,3.06l-.21-10.22Z" transform="translate(0 0)"/><path class="cls-120" d="M268.34,64.14a7.88,7.88,0,0,0-5.66,2.46c-2.55,2.6-1.2,12.48,2,20.46l5.82.67Z" transform="translate(0 0)"/><path class="cls-116" d="M272.22,87.73c-1.17.7-2.83-1.54-4.28-3s-6.14-3.57-8.48,1.37,2.07,11.7,5.77,12.86c6.38,2,7.34-2.09,7.34-2.09l.47,23.72h0c4.41,5.65,12,7,17.39,6,4.25-.76,7.45-2.62,3.38-7.33l0-7s5.79.88,8.6.44c4.7-.72,7.65-4.42,9.07-9.5,2.29-8.16,3.16-14.75,1.22-30.79-2.13-17.59-22.58-17.77-33.63-10.82S272.22,87.73,272.22,87.73Z" transform="translate(0 0)"/><path class="cls-123" d="M297.31,71.73c-4.86-.53-9.29-2.87-13.59-5a9.64,9.64,0,0,1-2.2,4.83c-2.66,2.71-4.19,2.76-5.23,3.43-.4,3.16-.39,7.22-.58,10.41-.07,1.07-.06,6.67-2.61,5.07a12.47,12.47,0,0,1-2.22-2.49,36.34,36.34,0,0,0-2.94-3.26c-.75-.69-.7-2.28-.74-3.19a45.35,45.35,0,0,1,.2-5.71c.15-2,.49-3.93.66-5.89a9.55,9.55,0,0,0-.79-3.25,11.46,11.46,0,0,1-.49-3.73c.21-3.94,3.23-7.28,6.76-9,5-2.43,10.94-2.81,16.35-2.37,3.53.29,6.94.59,10.46.94.93.1,1.93,0,2.83.17a13.48,13.48,0,0,1,3.13,1.28,18.3,18.3,0,0,1,5.28,3.78,12.55,12.55,0,0,1,3.42,7c.13,1.15.11,1.84-.78,2.57a21.16,21.16,0,0,1-3.39,2.24C306.91,71.67,301.69,72.2,297.31,71.73Z" transform="translate(0 0)"/><path class="cls-118" d="M293.79,112.22s-10.47-2.11-14.13-4.06a12.06,12.06,0,0,1-5.06-5,16.42,16.42,0,0,0,2.87,5.9c2.68,3.43,16.32,6,16.32,6Z" transform="translate(0 0)"/><path class="cls-120" d="M293.47,85.57a2.27,2.27,0,0,1-2.24,2.32,2.33,2.33,0,1,1,2.24-2.32Z" transform="translate(0 0)"/><path class="cls-120" d="M291.23,78l-4.65,2.56a2.79,2.79,0,0,1,1.08-3.7A2.6,2.6,0,0,1,291.23,78Z" transform="translate(0 0)"/><path class="cls-118" d="M292.91,99.3l5.2,2a2.73,2.73,0,0,1-3.53,1.72A2.91,2.91,0,0,1,292.91,99.3Z" transform="translate(0 0)"/><path class="cls-120" d="M312,79.83l-4.24-3.27a2.56,2.56,0,0,1,3.68-.56A2.82,2.82,0,0,1,312,79.83Z" transform="translate(0 0)"/><path class="cls-120" d="M311.06,85.14a2.21,2.21,0,0,1-2.17,2.26,2.24,2.24,0,0,1-2.18-2.27,2.18,2.18,0,1,1,4.35,0Z" transform="translate(0 0)"/><polygon class="cls-118" points="298.68 81.81 299.43 95.49 306.57 93.06 298.68 81.81"/><path class="cls-6" d="M260.19,71.11a28.8,28.8,0,0,0,1.19,8.24,28.85,28.85,0,0,1,2.21-2,48.74,48.74,0,0,1,15-8.31h0c12.6-4.49,27.56-5,39.07-.56a27.34,27.34,0,0,0-1.55-7,28.78,28.78,0,0,0-55.9,9.65Z" transform="translate(0 0)"/><path class="cls-6" d="M275.29,43.79c1.51-.56,8.93-2,9.53-2.15,3.85-.78,9.85-.13,15.54,5.54a29.23,29.23,0,0,1,8.17,16.53l-7.9,1.67h-2.48c-.36-5.72-6.64-18.59-17-20a9,9,0,0,0-1.48-.12,13.52,13.52,0,0,0-4.12.43,39.77,39.77,0,0,0-4.36,2.86A6.41,6.41,0,0,1,275.29,43.79Z" transform="translate(0 0)"/><path class="cls-124" d="M275.29,43.79c1.51-.56,8.93-2,9.53-2.15,3.85-.78,9.85-.13,15.54,5.54a29.23,29.23,0,0,1,8.17,16.53l-7.9,1.67h-2.48c-.36-5.72-6.64-18.59-17-20a9,9,0,0,0-1.48-.12,13.52,13.52,0,0,0-4.12.43,39.77,39.77,0,0,0-4.36,2.86A6.41,6.41,0,0,1,275.29,43.79Z" transform="translate(0 0)"/><path class="cls-6" d="M298.16,65.39c-.44-6.66-9-23.16-22.64-19.75a39.35,39.35,0,0,0-4.38,2.86,6.49,6.49,0,0,1,4.16-4.72c3.6-1.32,10.58-1.47,17.16,5.09a29.13,29.13,0,0,1,8.16,16.52Z" transform="translate(0 0)"/><path class="cls-115" d="M298.16,65.39c-.44-6.66-9-23.16-22.64-19.75a39.35,39.35,0,0,0-4.38,2.86,6.49,6.49,0,0,1,4.16-4.72c3.6-1.32,10.58-1.47,17.16,5.09a29.13,29.13,0,0,1,8.16,16.52Z" transform="translate(0 0)"/><path class="cls-6" d="M278.57,66.72c.6-.43,3.82-5.94,13.84-10.11,6.18-2.57,18.25-1.58,23.65-1,9.45,1.06,11.52,3.29,11.5,4.7,0,.33,0,1.87,0,2.23a1.3,1.3,0,0,1-.29.87c-1.62,2-9.63,5-9.63,5-11.51-4.41-26.47-3.93-39.07.56Z" transform="translate(0 0)"/><path class="cls-121" d="M278.57,66.72c.6-.43,3.82-5.94,13.84-10.11,6.18-2.57,18.25-1.58,23.65-1,9.45,1.06,11.52,3.29,11.5,4.7,0,.33,0,1.87,0,2.23a1.3,1.3,0,0,1-.29.87c-1.62,2-9.63,5-9.63,5-11.51-4.41-26.47-3.93-39.07.56Z" transform="translate(0 0)"/><path class="cls-6" d="M278.57,69c12.6-4.49,27.56-5,39.07-.56,0,0,8-3,9.63-5,.87-1.11.48-4.21-11.21-5.53-5.4-.6-17.47-1.6-23.65,1C282.39,63.06,279.17,68.56,278.57,69Z" transform="translate(0 0)"/><path class="cls-115" d="M278.57,69c12.6-4.49,27.56-5,39.07-.56,0,0,8-3,9.63-5,.87-1.11.48-4.21-11.21-5.53-5.4-.6-17.47-1.6-23.65,1C282.39,63.06,279.17,68.56,278.57,69Z" transform="translate(0 0)"/><path class="cls-116" d="M302.18,215.28A36.32,36.32,0,0,1,291,212a27.32,27.32,0,0,0,6.28-1.71c2.73-1.36,2.82-3.73,2.41-4.74-.32-.79-2.22.16-5.66,0-4.39-.21-7.36-1-12,0-1.74.36-4.13,1.57-5.66.68-8.67-5-30.63-20.88-30.63-20.88l9-30.55s11-21.35,1.75-33.63c-6.92,1.18-14.59.51-19.74,18.86-3.54,12.6-9.13,31.92-12.36,44.15-2.37,9,.17,11.66,2.44,13.21,6.71,4.58,14.71,8.35,30.34,16.12,6.58,3.27,17.48,9.54,21.74,11.75,14.79,7.7,22,6.95,27.1,2C314.19,219.31,311.07,216.4,302.18,215.28Z" transform="translate(0 0)"/><path class="cls-117" d="M258.26,120.89c-6.72.21-11,1.69-12.92,2.77s-5.25,3.23-9.56,17-7.95,27.75-7.95,27.75,5.53,6.74,21.55,7.75l8.22-23.64S267.28,133.21,258.26,120.89Z" transform="translate(0 0)"/></g><g id="Character-2" data-name="Character"><path class="cls-125" d="M653.49,400.83c-13.5-1.52-18.68,2.45-23.71,13.62-4.81,10.69-19.49,42.88-18.75,50.4s31.45,39.43,31.45,39.43l8.76-10.63-19-31.92,15.1-32.23Z" transform="translate(0 0)"/><g id="Character-3" data-name="Character"><polygon class="cls-125" points="680.63 390.26 678.09 416.76 654.41 415.29 656.3 385.9 680.63 390.26"/><path class="cls-117" d="M673.55,381c1.21-1.48,2.15-3.15,3.33-4.64A58.94,58.94,0,0,1,681,372a124.25,124.25,0,0,1,9.12-8.51c4-3.42,9-6.57,11-11.76,1.4-3.79.64-8.62-2.66-11a17.34,17.34,0,0,0,1.74-7.15,10.24,10.24,0,0,0-2.44-6.83c-2.28-2.51-5.9-3.41-9.29-3.31s-6.68,1-10,1.65c-4.44.81-8.57-.06-13-.18a33.64,33.64,0,0,0-13.5,2.29,20.35,20.35,0,0,0-7.37,4.88,12,12,0,0,0-2.46,3.72c-.52,1.37-.27,2.75-.55,4.18-.55,2.76-1.73,5.36-2.25,8.16a68,68,0,0,0-.88,9.45c-.51,13.09,29.86,21.59,29.26,30.56Z" transform="translate(0 0)"/><path class="cls-126" d="M698.21,361.18s5.24,7.79,4.56,8.62-4,1.7-4,1.7Z" transform="translate(0 0)"/><path class="cls-125" d="M682.18,336.49c5.1,2.58,13.91,7.37,16.17,25.83,2.33,18.95-2,25.53-4.59,28-1.78,1.67-10.93,2.28-15.71.83-6-1.83-18.92-8.12-25-17.9-7.14-11.5-8.61-26.84-.37-32.85C664.29,332,677.86,334.29,682.18,336.49Z" transform="translate(0 0)"/><path class="cls-126" d="M693.27,390.68c-2.15,1.18-8.24,1.67-12.77,1l.13-3.4a33.13,33.13,0,0,0,6,2A21.87,21.87,0,0,0,693.27,390.68Z" transform="translate(0 0)"/><path class="cls-117" d="M684.41,335.92a20.19,20.19,0,0,1,5.94,3.42,8.12,8.12,0,0,1,2.1,2.7,6.22,6.22,0,0,1,.42,3,8.15,8.15,0,0,1-4.76,6.59,7.9,7.9,0,0,1,1.28,6.59c-.69,2.68-2.72,4.77-4.67,6.73a.93.93,0,0,1-.39.29,1,1,0,0,1-.84-.26c-3.2-2.14-4.85-5.34-9.38-3.85-5.26,1.74-5.4,8.43-1.71,12.95,1.78,2.19,3.19,2.62,4.85,2.71a2.8,2.8,0,0,0,3-1.69s.4,13-7.92,16.83A34,34,0,0,1,656,391c-5.39-4-10.36-10-14.5-16.85-10.68-17.71-5-36.84,7.81-41.56.71-.26,1.45-.46,2.19-.65A45,45,0,0,1,682,334.86C682.81,335.24,683.62,335.58,684.41,335.92Z" transform="translate(0 0)"/><path class="cls-117" d="M644.56,334.43c-21.63-7.53-29.36,9.65-28.8,24.31.31,7.86,4.22,23.42-5.36,31.39-8.75,7.29-8,11.87-3.48,15.95s17.17,3.59,24.75-5.47c9.28-11.09,4.27-26.72.33-39.06-2.67-8.35,1-20.1,9.09-19.45Z" transform="translate(0 0)"/><path class="cls-120" d="M685.09,371.68a4.37,4.37,0,0,0,2.69-5.64,4.5,4.5,0,0,0-5.74-2.65Z" transform="translate(0 0)"/><path class="cls-120" d="M678.89,736.85s-1.47,4.19-2.3,7.87c-.65,2.92-1.6,7.81-.62,10s5.32,3.81,11.47,4.71c4.94.73,8.95,3,15.21,5.49,4.71,1.91,8.78,3.27,17.19,2.8,8-.44,11.45-4.17,12.39-6.45s1.76-5.39-13.13-10.48c-.12,0-18-6.26-24.17-13.34Z" transform="translate(0 0)"/><path class="cls-125" d="M678.88,737.26l2.87-.3,13.18.53c6.17,7.08,24.05,13.3,24.17,13.34.85.29,1.64.57,2.38.85,2.56,2.15.29,5.67-5.9,6.1s-25.32-6.42-29.54-8.56A12.73,12.73,0,0,1,678.88,737.26Z" transform="translate(0 0)"/><path class="cls-125" d="M679,731.6s0,3.6-.11,5.66,2.32,5.17,8.62,5.07c4.42-.07,7.53-1.2,7.43-4.84l.1-5.25Z" transform="translate(0 0)"/><path class="cls-120" d="M637.07,711.5c-.89.08-1.13,1.32-1.82,6.44-.44,3.26-1.24,7.7,1.93,9.92,4.25,3,10.9,2.07,13.34-1,3.05-3.89,5.1-7.3,9.46-12.05,3.77-4.11,8.66-7.79,10.42-13.45,2-6.35.1-9.26-4.19-9.7-3.62-.37-8,1-12.06,4.19a23.27,23.27,0,0,1-4.44,2.24C646.44,699,638.29,711.38,637.07,711.5Z" transform="translate(0 0)"/><path class="cls-125" d="M637.05,708.33l0,5.32s3.42,7,13.45.26c.23-.51,1.32-10.79,1.32-10.79Z" transform="translate(0 0)"/><path class="cls-125" d="M649.71,698.05a23.27,23.27,0,0,0,4.44-2.24h0c4-1.2,12.4.44,8.5,6.16a45,45,0,0,1-12.11,11.94c-4.52,2.12-6-.64-6-.64l1.83-12.45A9.72,9.72,0,0,1,649.71,698.05Z" transform="translate(0 0)"/><path class="cls-6" d="M631.26,634.54c2.31-17.42,6.3-27.44,6.3-27.44s-2.89-23.56-5.09-46.16c-5.16-53.05-1-53.82,6.83-72.07,0,0,68-7.4,70.3,20.87,2.85,35.21-.08,103.31-.92,115.76s-2,18.07-6.17,44.11c-3.21,19.81-6.73,63.21-6.73,63.21-9,4.95-17.44-1.24-17.44-1.24s-7.45-53.59-7-68a122.79,122.79,0,0,1,5.22-31.38s-4.65-57.38-6-66.51c0,0-2,18.23-2.83,30.68s-4.45,24.37-7.88,47.51c-3,20.07-8.09,62-8.09,62-9,5-15.16,2.5-15.16,2.5S629,652,631.26,634.54Z" transform="translate(0 0)"/><g class="cls-127"><path d="M631.26,634.54c2.31-17.42,6.3-27.44,6.3-27.44s-2.89-23.56-5.09-46.16c-5.16-53.05-1-53.82,6.83-72.07,0,0,68-7.4,70.3,20.87,2.85,35.21-.08,103.31-.92,115.76s-2,18.07-6.17,44.11c-3.21,19.81-6.73,63.21-6.73,63.21-9,4.95-17.44-1.24-17.44-1.24s-7.45-53.59-7-68a122.79,122.79,0,0,1,5.22-31.38s-4.65-57.38-6-66.51c0,0-2,18.23-2.83,30.68s-4.45,24.37-7.88,47.51c-3,20.07-8.09,62-8.09,62-9,5-15.16,2.5-15.16,2.5S629,652,631.26,634.54Z" transform="translate(0 0)"/></g><path class="cls-121" d="M670.63,565.73l-2.77-24.82a42.71,42.71,0,0,1-26.17-9.68s4.27,9.13,22.22,13.44l3,25.53.73,28.08Q668.87,581.84,670.63,565.73Z" transform="translate(0 0)"/><path class="cls-9" d="M636.1,411.78c2.31-6.84,7-10.84,17.39-10.95l1.84.05c.73,3.81,12.92,7.28,24,3.38,1.53.28,6.79.87,9.2,1.19l5.28.78c8,2.63,11.59,16.59,12.36,38.72s4.08,69.46,4.08,69.46-17.28,9.26-44.56,5.68c-24.42-3.21-35.25-17.59-34.41-15.74a237.77,237.77,0,0,1,14-35.53C632.33,437.23,632.68,421.93,636.1,411.78Z" transform="translate(0 0)"/><path class="cls-117" d="M679.17,520.9a95.62,95.62,0,0,1-13.52-.81c-22.26-2.93-33.46-15.13-34.39-15.87a226.68,226.68,0,0,1,13.93-35.4c-6.5-16-9.62-27.76-10.68-36.84,1.06,6.62,10.85,32.27,23.65,40,0,0-7.22,1.12-13.41,9.61S643.65,519.08,679.17,520.9Z" transform="translate(0 0)"/></g></g><path class="cls-128" d="M745.54,328.79l.34-.09-10.23-13.46c-1.52-2-3.21-1.83-3.79.37a10.13,10.13,0,0,0,1.71,7.6l15.12,19.88a4.44,4.44,0,0,0,.88.9Z" transform="translate(0 0)"/><path class="cls-125" d="M743.52,350.49c-1.63-1.55-1.71-4.32-2.42-6.34-1.85-5.21-7.64-11.23-6.78-13.41,1-2.57,10.13,7.15,10.36,5,1.33-12.3-4.21-15.77-4.21-15.79,0-.77,1.75-1.15,2.72-1.35,5.51-1.16,9.73,3.72,12.45,7.23,2.5,3.21,2.15,11,2.1,12.89-.08,3-1.55,5.78-2.23,8.69a53.4,53.4,0,0,0-.69,7.29c0-.4-9.92-3.23-10.82-3.84A3.65,3.65,0,0,1,743.52,350.49Z" transform="translate(0 0)"/><path class="cls-125" d="M756.44,346c-.86-1.44-13.64,4.23-13.94,4.06s-5.59,35.69-5.45,42.12c.05,2.14-35,12.18-38.48,18.69-2.68,5-4.16,23.28,9,27.66,5.09,1.7,48.65-29.73,48.79-30.25,6.85-5.15,4.9-16.91,4.92-18.7C761.41,362.58,757,346.94,756.44,346Z" transform="translate(0 0)"/><path class="cls-129" d="M115.06,796.33l97.83,56.48c1.76,1,5.07.74,7.41-.61l180.07-104c2.34-1.35,2.81-3.26,1.06-4.27l-97.84-56.49c-1.75-1-5.07-.74-7.4.61l-180.08,104C113.78,793.4,113.3,795.32,115.06,796.33Z" transform="translate(0 0)"/><path class="cls-130" d="M115.06,796.33l97.83,56.48c1.76,1,5.07.74,7.41-.61l180.07-104c2.34-1.35,2.81-3.26,1.06-4.27l-97.84-56.49c-1.75-1-5.07-.74-7.4.61l-180.08,104C113.78,793.4,113.3,795.32,115.06,796.33Z" transform="translate(0 0)"/><polygon class="cls-131" points="356.63 731.07 269.56 781.33 213.11 748.74 300.18 698.47 356.63 731.07"/><polygon class="cls-132" points="265.95 732.88 228.37 754.57 219.04 749.19 256.62 727.49 265.95 732.88"/><polygon class="cls-133" points="276.29 738.85 238.72 760.54 229.39 755.16 266.96 733.47 276.29 738.85"/><polygon class="cls-134" points="286.64 744.82 249.06 766.52 239.73 761.13 277.31 739.44 286.64 744.82"/><polygon class="cls-135" points="296.98 750.79 259.41 772.49 250.08 767.11 287.65 745.41 296.98 750.79"/><polygon class="cls-136" points="307.33 756.77 269.75 778.46 260.42 773.08 298 751.38 307.33 756.77"/><polygon class="cls-136" points="277.6 726.15 268.27 731.54 258.94 726.15 268.27 720.77 277.6 726.15"/><polygon class="cls-137" points="288.49 719.86 279.17 725.25 269.84 719.86 279.17 714.47 288.49 719.86"/><polygon class="cls-138" points="299.39 713.57 290.06 718.95 280.74 713.57 290.06 708.18 299.39 713.57"/><polygon class="cls-139" points="310.29 707.28 300.96 712.66 291.63 707.28 300.96 701.89 310.29 707.28"/><polygon class="cls-132" points="287.91 732.11 278.58 737.49 269.25 732.11 278.58 726.72 287.91 732.11"/><polygon class="cls-140" points="298.8 725.81 289.48 731.2 280.15 725.81 289.48 720.43 298.8 725.81"/><polygon class="cls-141" points="309.7 719.52 300.37 724.91 291.05 719.52 300.37 714.14 309.7 719.52"/><polygon class="cls-142" points="320.6 713.23 311.27 718.62 301.94 713.23 311.27 707.85 320.6 713.23"/><polygon class="cls-143" points="298.45 738.19 289.13 743.58 279.8 738.19 289.13 732.81 298.45 738.19"/><polygon class="cls-144" points="309.35 731.9 300.02 737.29 290.7 731.9 300.02 726.52 309.35 731.9"/><polygon class="cls-145" points="320.25 725.61 310.92 731 301.59 725.61 310.92 720.23 320.25 725.61"/><polygon class="cls-136" points="331.14 719.32 321.82 724.71 312.49 719.32 321.82 713.94 331.14 719.32"/><polygon class="cls-139" points="308.63 744.07 299.3 749.46 289.98 744.07 299.3 738.68 308.63 744.07"/><polygon class="cls-146" points="319.53 737.78 310.2 743.16 300.87 737.78 310.2 732.39 319.53 737.78"/><polygon class="cls-147" points="330.42 731.49 321.1 736.87 311.77 731.49 321.1 726.1 330.42 731.49"/><polygon class="cls-148" points="341.32 725.2 331.99 730.58 322.67 725.2 331.99 719.81 341.32 725.2"/><polygon class="cls-149" points="318.98 750.04 309.65 755.43 300.32 750.04 309.65 744.66 318.98 750.04"/><polygon class="cls-150" points="329.87 743.75 320.55 749.14 311.22 743.75 320.55 738.37 329.87 743.75"/><polygon class="cls-151" points="340.77 737.46 331.44 742.85 322.11 737.46 331.44 732.08 340.77 737.46"/><polygon class="cls-152" points="351.67 731.17 342.34 736.55 333.01 731.17 342.34 725.78 351.67 731.17"/><polygon class="cls-131" points="123.58 791.69 219.23 846.92 281.25 811.11 185.6 755.88 123.58 791.69"/><polygon class="cls-132" points="249.59 801.68 270.35 813.66 275.49 810.69 254.74 798.71 249.59 801.68"/><polygon class="cls-153" points="242.45 805.81 263.2 817.79 268.35 814.82 247.59 802.84 242.45 805.81"/><polygon class="cls-136" points="234.71 810.28 255.46 822.26 260.61 819.29 239.85 807.31 234.71 810.28"/><polygon class="cls-83" points="227.56 814.4 248.31 826.38 253.46 823.41 232.71 811.43 227.56 814.4"/><polygon class="cls-143" points="219.78 818.89 240.54 830.88 245.68 827.9 224.93 815.92 219.78 818.89"/><polygon class="cls-154" points="212.64 823.02 233.39 835 238.53 832.03 217.78 820.05 212.64 823.02"/><polygon class="cls-139" points="204.9 827.49 225.65 839.47 230.79 836.5 210.04 824.52 204.9 827.49"/><polygon class="cls-155" points="197.75 831.61 218.5 843.6 223.65 840.63 202.9 828.64 197.75 831.61"/><path class="cls-132" d="M201.55,785l13.24-7.64a25.21,25.21,0,0,1,8.51,7.55l-17.48,3.89A12.57,12.57,0,0,0,201.55,785Z" transform="translate(0 0)"/><path class="cls-156" d="M188.19,803.63v10.81a61.51,61.51,0,0,1-15.26-1.87l7.59-9.88A31.35,31.35,0,0,0,188.19,803.63Z" transform="translate(0 0)"/><polygon class="cls-157" points="174.83 785 161.59 777.36 161.59 777.36 174.83 785 174.83 785"/><polygon class="cls-149" points="174.83 800.43 161.59 808.08 161.59 808.08 174.83 800.43 174.83 800.43"/><path class="cls-155" d="M195,802.9,201.71,813a63,63,0,0,1-13.52,1.45V803.63A31.81,31.81,0,0,0,195,802.9Z" transform="translate(0 0)"/><path class="cls-158" d="M174.83,800.43l-13.24,7.65a25.12,25.12,0,0,1-8.51-7.55l17.48-3.89A12.55,12.55,0,0,0,174.83,800.43Z" transform="translate(0 0)"/><path class="cls-139" d="M169.29,792.72H150.57a14.4,14.4,0,0,1,3.23-8.81l17.12,4.38A7.27,7.27,0,0,0,169.29,792.72Z" transform="translate(0 0)"/><path class="cls-159" d="M174.83,785a13.07,13.07,0,0,0-3.91,3.29l-17.12-4.38a26.16,26.16,0,0,1,7.79-6.55Z" transform="translate(0 0)"/><path class="cls-152" d="M201.55,800.43l13.24,7.65A46.59,46.59,0,0,1,201.71,813L195,802.9A23.12,23.12,0,0,0,201.55,800.43Z" transform="translate(0 0)"/><path class="cls-160" d="M170.56,796.64l-17.48,3.89a14,14,0,0,1-2.51-7.81h18.72A7,7,0,0,0,170.56,796.64Z" transform="translate(0 0)"/><path class="cls-161" d="M180.52,802.69l-7.59,9.88a45.11,45.11,0,0,1-11.34-4.49l13.24-7.65A22.61,22.61,0,0,0,180.52,802.69Z" transform="translate(0 0)"/><path class="cls-136" d="M188.19,781.81V771a62,62,0,0,1,15.26,1.86l-7.6,9.89A30.79,30.79,0,0,0,188.19,781.81Z" transform="translate(0 0)"/><path class="cls-162" d="M181.39,782.54l-6.73-10.09A62.46,62.46,0,0,1,188.19,771v10.81A31.27,31.27,0,0,0,181.39,782.54Z" transform="translate(0 0)"/><path class="cls-154" d="M174.83,785l-13.24-7.64a46,46,0,0,1,13.07-4.91l6.73,10.09A23.34,23.34,0,0,0,174.83,785Z" transform="translate(0 0)"/><path class="cls-163" d="M195.85,782.75l7.6-9.89a44.91,44.91,0,0,1,11.34,4.5L201.55,785A22.9,22.9,0,0,0,195.85,782.75Z" transform="translate(0 0)"/><polygon class="cls-164" points="201.55 800.43 214.79 808.08 214.79 808.08 201.55 800.43 201.55 800.43"/><path class="cls-165" d="M207.08,792.72h18.73a14.43,14.43,0,0,1-3.23,8.81l-17.12-4.39A7.21,7.21,0,0,0,207.08,792.72Z" transform="translate(0 0)"/><path class="cls-166" d="M205.46,797.14l17.12,4.39a26.31,26.31,0,0,1-7.79,6.55l-13.24-7.65A13.18,13.18,0,0,0,205.46,797.14Z" transform="translate(0 0)"/><polygon class="cls-167" points="201.55 785 214.79 777.36 214.79 777.36 201.55 785 201.55 785"/><path class="cls-153" d="M205.82,788.8l17.48-3.89a14,14,0,0,1,2.51,7.81H207.08A7,7,0,0,0,205.82,788.8Z" transform="translate(0 0)"/></g></g></svg>