<?xml version="1.0" encoding="utf-8"?>
<!-- Generator: Adobe Illustrator 24.0.1, SVG Export Plug-In . SVG Version: 6.00 Build 0)  -->
<svg version="1.1" id="Layer_1" xmlns="http://www.w3.org/2000/svg" xmlns:xlink="http://www.w3.org/1999/xlink" x="0px" y="0px"
	 viewBox="0 0 1200 549" style="enable-background:new 0 0 1200 549;" xml:space="preserve">
<style type="text/css">
	.st0{fill:url(#SVGID_1_);}
	.st1{fill:url(#SVGID_2_);}
	.st2{fill:url(#SVGID_3_);}
	.st3{fill:#5956C7;}
	.st4{fill:url(#SVGID_4_);}
	.st5{fill:url(#SVGID_5_);}
	.st6{fill:url(#SVGID_6_);}
	.st7{fill:#8E8EE8;}
	.st8{fill:url(#SVGID_7_);}
	.st9{fill:url(#SVGID_8_);}
	.st10{fill:url(#SVGID_9_);}
	.st11{fill:url(#SVGID_10_);}
	.st12{fill:url(#SVGID_11_);}
	.st13{fill:url(#SVGID_12_);}
	.st14{fill:url(#SVGID_13_);}
	.st15{fill:url(#SVGID_14_);}
	.st16{fill:url(#SVGID_15_);}
	.st17{fill:url(#SVGID_16_);}
	.st18{fill:url(#SVGID_17_);}
	.st19{fill:url(#SVGID_18_);}
	.st20{fill:#F2F2F2;}
	.st21{fill:#A9A9FF;}
	.st22{opacity:0.42;fill:#A8A191;}
	.st23{opacity:0.42;fill:#5956C7;}
	.st24{fill:url(#SVGID_19_);}
	.st25{fill:url(#SVGID_20_);}
	.st26{fill:url(#SVGID_21_);}
	.st27{fill:url(#SVGID_22_);}
	.st28{fill:url(#SVGID_23_);}
	.st29{fill:url(#SVGID_24_);}
	.st30{fill:url(#SVGID_25_);}
	.st31{fill:url(#SVGID_26_);}
	.st32{fill:url(#SVGID_27_);}
	.st33{fill:#FFD9B6;}
	.st34{fill:url(#SVGID_28_);}
	.st35{fill:url(#SVGID_29_);}
	.st36{fill:url(#SVGID_30_);}
	.st37{fill:url(#SVGID_31_);}
	.st38{fill:url(#SVGID_32_);}
	.st39{fill:url(#SVGID_33_);}
	.st40{fill:url(#SVGID_34_);}
	.st41{fill:#2D20AF;}
	.st42{fill:#121266;}
	.st43{fill:url(#SVGID_35_);}
	.st44{fill:url(#SVGID_36_);}
	.st45{fill:url(#SVGID_37_);}
	.st46{fill:#3A1FC1;}
	.st47{fill:#2B1AA3;}
	.st48{fill:#7373E0;}
	.st49{fill:#5151BC;}
	.st50{fill:#6F6FD1;}
	.st51{fill:none;stroke:#A39CF7;stroke-width:1.6026;stroke-linecap:round;stroke-miterlimit:10;}
	.st52{fill:none;stroke:#A39CF7;stroke-width:1.6026;stroke-linecap:round;stroke-miterlimit:10;stroke-dasharray:5.0076,6.0091;}
	.st53{fill:none;stroke:#A39CF7;stroke-width:1.6026;stroke-linecap:round;stroke-miterlimit:10;stroke-dasharray:5.008,6.0096;}
	.st54{fill:#91A8F6;}
</style>
<g>
	<g>
		<g>
			<g>
				<g>
					<linearGradient id="SVGID_1_" gradientUnits="userSpaceOnUse" x1="560.9984" y1="364.5587" x2="586.79" y2="364.5587">
						<stop  offset="0" style="stop-color:#071786"/>
						<stop  offset="0.1509" style="stop-color:#05136B"/>
						<stop  offset="0.3236" style="stop-color:#041055"/>
						<stop  offset="0.5107" style="stop-color:#030E45"/>
						<stop  offset="0.7204" style="stop-color:#020C3B"/>
						<stop  offset="1" style="stop-color:#020C38"/>
					</linearGradient>
					<path class="st0" d="M576,344c-2.3,1.8-3.5,4.9-3,7.8c0.5,2.6,2.2,5.2,1.1,7.6c-1,2.5-4.2,3-6.8,3.8c-2,0.6-4,1.5-5.2,3.2
						c-1.3,1.6-1.6,4.1-0.4,5.8c1.5,2,4.8,2.6,5.1,5.1c0.3,2.1-2,3.8-1.9,5.8c0,1.5,1.3,2.7,2.7,3.1c1.4,0.5,2.9,0.4,4.4,0.3
						c2-0.1,4.1-0.3,5.9-1.1c1.9-0.8,3.5-2.4,3.8-4.4c0.3-1.7-0.4-3.4-0.8-5c-0.4-1.7-0.5-3.6,0.7-4.8c0.8-0.8,1.9-1.1,2.7-1.8
						c1.7-1.6,1.4-4.4,0.6-6.6c-0.8-2.2-1.9-4.5-1.3-6.7c0.5-1.5,1.7-2.7,2.4-4.1C589.2,345.4,581.5,339.8,576,344z"/>
					<g>
						<g>
							
								<linearGradient id="SVGID_2_" gradientUnits="userSpaceOnUse" x1="141.1894" y1="1624.4951" x2="141.1894" y2="1695.3495" gradientTransform="matrix(0.9009 -0.425 0.3695 0.8575 -133.4289 -910.7317)">
								<stop  offset="0" style="stop-color:#071786"/>
								<stop  offset="0.1991" style="stop-color:#06167E"/>
								<stop  offset="0.512" style="stop-color:#051367"/>
								<stop  offset="0.8976" style="stop-color:#030E43"/>
								<stop  offset="1" style="stop-color:#020C38"/>
							</linearGradient>
							<path class="st1" d="M592.2,423.2c-3,0.8-5.5,3.3-6.3,6.2c-0.4,1.4-0.4,2.8-0.4,4.2c0.4,7.6,4.7,12.7,8.7,18.5
								c4.4,6.5,10.1,12.1,16,17.3c2.4,2.1,5.1,3.9,7.5,6.1c3.1,2.8,6.8,7.4,11.3,2.9c3.1-3.1,1.6-5.9,0-8.9
								c-1.9-3.5-14-23.8-16.8-27.9c-2.7-3.8-5.5-7.5-8.3-11.2C600.9,426.5,598.4,421.5,592.2,423.2z"/>
						</g>
						<g>
							<linearGradient id="SVGID_3_" gradientUnits="userSpaceOnUse" x1="569.1316" y1="453.3232" x2="590.3991" y2="453.3232">
								<stop  offset="0" style="stop-color:#071786"/>
								<stop  offset="0.1991" style="stop-color:#06167E"/>
								<stop  offset="0.512" style="stop-color:#051367"/>
								<stop  offset="0.8976" style="stop-color:#030E43"/>
								<stop  offset="1" style="stop-color:#020C38"/>
							</linearGradient>
							<path class="st2" d="M585.6,418.1c-2.8-1.3-6.4-0.8-8.8,1.1c-1.1,0.9-2,2.1-2.9,3.3c-4.4,6.7-4.1,13.8-4.6,21.4
								c-0.6,8.4,0.5,16.9,1.9,25.2c0.6,3.4,1.5,6.7,2.1,10.1c0.8,4.5,0.8,10.8,7.1,10c4.4-0.6,4.8-3.9,5.4-7.5
								c0.7-4.2,3.8-29.4,4-34.8c0.2-5,0.3-10,0.4-15C590.4,426.6,591.5,420.8,585.6,418.1z"/>
							<g>
								<g>
									<g>
										<polygon class="st3" points="574.3,532.3 574.5,540.3 575.8,540.3 576,533.9 										"/>
									</g>
								</g>
								<g>
									<g>
										<path class="st3" d="M585.6,538.4c0,0,5.5,7.6,4.7,8.8c-0.8,1.2-6.8,1.4-10.5,0c-3.7-1.4-3.7-10.4-5.4-14.3
											c-0.7-1.6,0.8-6.4,2.9-6.8c2.1-0.3,4.5,0.7,4.5,0.7S579.7,532.4,585.6,538.4z"/>
									</g>
								</g>
								<linearGradient id="SVGID_4_" gradientUnits="userSpaceOnUse" x1="581.0223" y1="542.7018" x2="581.0223" y2="480.1814">
									<stop  offset="0" style="stop-color:#FFD1C1"/>
									<stop  offset="0.2699" style="stop-color:#FFCEBE"/>
									<stop  offset="0.5038" style="stop-color:#FFC5B3"/>
									<stop  offset="0.7243" style="stop-color:#FFB6A1"/>
									<stop  offset="0.9354" style="stop-color:#FFA288"/>
									<stop  offset="1" style="stop-color:#FF9A7F"/>
								</linearGradient>
								<path class="st4" d="M582,527.9c0.2-2.5,0.5-6.5,0.8-11.1h-8.1c0.9,5,2,10.4,2.2,11.6c-0.1,0.8-0.1,1.8-0.1,2.9
									c0.2,3.1,1.7,8.4,3.6,10.1c1.9,1.8,6.6,1.2,6.8,0.5c0.2-0.7-3.6-6.4-4.3-9C582.5,531.3,582.2,529.2,582,527.9z"/>
								<linearGradient id="SVGID_5_" gradientUnits="userSpaceOnUse" x1="572.5354" y1="502.4356" x2="584.9453" y2="502.4356">
									<stop  offset="0" style="stop-color:#071786"/>
									<stop  offset="0.1991" style="stop-color:#06167E"/>
									<stop  offset="0.512" style="stop-color:#051367"/>
									<stop  offset="0.8976" style="stop-color:#030E43"/>
									<stop  offset="1" style="stop-color:#020C38"/>
								</linearGradient>
								<path class="st5" d="M573.7,510.5c0.5,3.7,1.7,10,2.5,14.2h6c0.8-11.1,2.5-34.1,2.6-36.1c0.1-2.8,0.6-5.2-1.8-7.2
									c-0.6-0.5-1.4-0.9-2.2-1.1c-0.1,0-0.2,0-0.3,0c-3.8-0.6-6.4,2.3-6.9,5.8c-0.6,4.4-1.3,8.5-1,13
									C572.8,502.9,573.2,506.7,573.7,510.5z"/>
							</g>
						</g>
						
							<linearGradient id="SVGID_6_" gradientUnits="userSpaceOnUse" x1="-683.4631" y1="352.224" x2="-658.5451" y2="352.224" gradientTransform="matrix(1 0 0 1 1261.9984 0)">
							<stop  offset="0" style="stop-color:#071786"/>
							<stop  offset="0.1509" style="stop-color:#05136B"/>
							<stop  offset="0.3236" style="stop-color:#041055"/>
							<stop  offset="0.5107" style="stop-color:#030E45"/>
							<stop  offset="0.7204" style="stop-color:#020C3B"/>
							<stop  offset="1" style="stop-color:#020C38"/>
						</linearGradient>
						<path class="st6" d="M580.8,343.8c-1.9,2.9-2.7,6.6-1.9,10.3c0.8,3.8,3.2,7.5,6.3,9.9c3.4,2.6,7.3,2.5,11,0.4
							c2.4-1.4,4.4-3.5,5.8-5.9c5.1-8.7-2.8-21.1-12.8-19.8C585.7,339,582.7,341,580.8,343.8z"/>
						<path class="st7" d="M633.2,376.2c-1.8,1.9-4.7,2.9-4.9,3c-4.2,1.4-8.7,2.1-13.1,2.4c-3.6,0.2-7.3,0.2-10.9-0.2
							c-3.2-0.3-13.9-0.7-10.8-6.4c0.8-1.4,2.3-2.2,3.8-2.6c6.7-1.8,30.5-1.7,30.5-1.7L633.2,376.2z"/>
						
							<linearGradient id="SVGID_7_" gradientUnits="userSpaceOnUse" x1="-672.5707" y1="424.5714" x2="-672.5707" y2="359.7317" gradientTransform="matrix(1 0 0 1 1261.9984 0)">
							<stop  offset="0" style="stop-color:#FFD1C1"/>
							<stop  offset="0.4889" style="stop-color:#FFCFBF"/>
							<stop  offset="0.665" style="stop-color:#FFCAB8"/>
							<stop  offset="0.7905" style="stop-color:#FFC0AD"/>
							<stop  offset="0.892" style="stop-color:#FFB29C"/>
							<stop  offset="0.9779" style="stop-color:#FFA086"/>
							<stop  offset="1" style="stop-color:#FF9A7F"/>
						</linearGradient>
						<path class="st8" d="M605.4,391.5c-0.3-3.4-7.2-18.9-7.2-18.9s-1.9-0.3-3.1-0.8c-0.6-2.6-0.2-5-0.2-5l-7.2-7.2
							c0.8,7.8-2.3,10.6-2.3,10.6c-1.1,0.1-4.8,0.2-6.4,0.5c-1.1,0.1-2,0.5-2.7,0.8c-1.7,0.8-2.5,2.8-2,4.6
							c1.2,4.8,3.7,15.6,3.9,21.9c0.3,8.2-4.6,26.4-4.6,26.4l29.7-0.1c-2-8.2-3.4-19.9-3.4-19.9C599,398.3,605.9,397.7,605.4,391.5z
							"/>
						
							<linearGradient id="SVGID_8_" gradientUnits="userSpaceOnUse" x1="-669.5721" y1="431.5626" x2="-669.5721" y2="370.9925" gradientTransform="matrix(1 0 0 1 1261.9984 0)">
							<stop  offset="0" style="stop-color:#F9FBFC"/>
							<stop  offset="0.2923" style="stop-color:#F1F6FD"/>
							<stop  offset="0.733" style="stop-color:#DDE6FE"/>
							<stop  offset="0.9973" style="stop-color:#CDDBFF"/>
						</linearGradient>
						<path class="st9" d="M606,391.5c-0.3-3.4-7.9-18.3-7.9-18.3s-1-1-3.6-0.7c0,0-0.9,7.4-0.9,7.4l-7-8.4
							c-2.6-0.4-3.4-0.5-3.4-0.5c-1.1,0.1-2.6,0.2-4.3,0.4c0,0-0.1,0-0.1,0v54.7c2.4,0.9,5,1.5,7.7,1.8c6.4,0.6,12.4-0.6,17.9-3.4
							c-2-8.5-4.6-19.8-4.6-19.8C599,398.3,606.6,397.7,606,391.5z"/>
						<path class="st7" d="M586.8,433.5c3.1-2.1,2.6-10,2.6-13.9c0-15.1,0-30.3-0.1-45.4c-1.7-1.7-4-4.1-6.2-3.8
							c-1.1,0.1-2.6,0.2-4.3,0.4c-1.1,0.1-2,0.5-2.7,0.8c-1.7,0.8-2.5,2.8-2,4.6c1.2,4.8,3.7,15.6,3.9,21.9c0.3,8.2-8,31.1-7.9,31.1
							C573.5,430.6,583.6,435.8,586.8,433.5z"/>
						<path class="st7" d="M606,391.5c-0.3-3.4-7.9-18.9-7.9-18.9s-1-0.8-3.4-0.4c0,2.9,0.3,8.2,0.3,11.1c0.1,6.5,0.2,13,0.3,19.5
							c0.1,6.6,0.7,14.3,0.9,20.9c0,2.5-0.3,6.9,2.4,8.3c0.9,0.4,7.9-2,7.8-2.4c-2-8.2-4.5-24.5-4.5-24.5
							C601.1,398.9,606.6,397.7,606,391.5z"/>
						<path class="st7" d="M605.8,394.4c-1.9,0.7-3.6,1.3-4.8,2c-0.3,0.2-0.6,0.3-0.8,0.5c0,0,0-0.1,0-0.1s-18.5-14.9-24.9-17.7
							c-0.2-0.1-0.3-0.1-0.5-0.2c0.9,3.8,2.1,9.1,2.7,13.7c1.9,1.7,3.9,3.3,6,4.7c3.6,2.6,7.6,4.8,11.7,6.3c0.2,0.1,4.9,0.9,4.9,0.8
							c0,0,0,0,0,0c0.5,0.2,1.1,0.2,1.8,0.2C601.4,400,604.9,398.2,605.8,394.4z"/>
						<g>
							<g>
								<g>
									
										<linearGradient id="SVGID_9_" gradientUnits="userSpaceOnUse" x1="-678.0811" y1="356.4372" x2="-660.1166" y2="356.4372" gradientTransform="matrix(1 0 0 1 1261.9984 0)">
										<stop  offset="0" style="stop-color:#FFD1C1"/>
										<stop  offset="0.3861" style="stop-color:#FFCFBF"/>
										<stop  offset="0.5877" style="stop-color:#FFC9B7"/>
										<stop  offset="0.7467" style="stop-color:#FFBDA9"/>
										<stop  offset="0.8825" style="stop-color:#FFAE97"/>
										<stop  offset="1" style="stop-color:#FF9A7F"/>
									</linearGradient>
									<path class="st10" d="M601.1,348.7c0.7,4.2,2.2,14.6-2.3,18.6c0,0-9.6,1.2-14.2-6.9C580.1,352.3,599.5,339.6,601.1,348.7z"
										/>
								</g>
								
									<linearGradient id="SVGID_10_" gradientUnits="userSpaceOnUse" x1="-663.8566" y1="355.1036" x2="-660.3394" y2="361.1956" gradientTransform="matrix(1 0 0 1 1261.9984 0)">
									<stop  offset="0" style="stop-color:#EEA281"/>
									<stop  offset="0.246" style="stop-color:#EE9C7B"/>
									<stop  offset="0.5823" style="stop-color:#ED8A6C"/>
									<stop  offset="0.9693" style="stop-color:#EC6E52"/>
									<stop  offset="1" style="stop-color:#EC6B50"/>
								</linearGradient>
								<polygon class="st11" points="599.5,354.3 599.5,360.7 602.6,360.7 								"/>
							</g>
							
								<linearGradient id="SVGID_11_" gradientUnits="userSpaceOnUse" x1="-681.0268" y1="348.0115" x2="-666.1509" y2="348.0115" gradientTransform="matrix(1 0 0 1 1261.9984 0)">
								<stop  offset="0" style="stop-color:#030F4B"/>
								<stop  offset="0.1501" style="stop-color:#030E45"/>
								<stop  offset="0.5141" style="stop-color:#020C3B"/>
								<stop  offset="1" style="stop-color:#020C38"/>
							</linearGradient>
							<path class="st12" d="M595.7,343.8c0.4,1.5,0,3.2-1.5,4.7c-2,1.9-4,3.9-6.2,5.6l-1.4,2.8c0,0-2.4-5.5-2.4-5.5
								c-0.4-0.1-3.1-1.4-3.1-1.8c-0.2-2.8,0.2-5.9,2-8.1c1.7-2,4.5-2.8,7-2.4C592.8,339.5,595.1,341.5,595.7,343.8z"/>
						</g>
						
							<linearGradient id="SVGID_12_" gradientUnits="userSpaceOnUse" x1="-677.5511" y1="362.114" x2="-677.5511" y2="352.3684" gradientTransform="matrix(1 0 0 1 1261.9984 0)">
							<stop  offset="0" style="stop-color:#FFD1C1"/>
							<stop  offset="0.3073" style="stop-color:#FFCCBB"/>
							<stop  offset="0.729" style="stop-color:#FFBDA9"/>
							<stop  offset="1" style="stop-color:#FFB19A"/>
						</linearGradient>
						<path class="st13" d="M586.5,354.7c0,0-1.6-3.4-3.4-1.9c-1.8,1.6-0.6,8,3.4,9.3V354.7z"/>
						
							<linearGradient id="SVGID_13_" gradientUnits="userSpaceOnUse" x1="-1666.5414" y1="1958.8726" x2="-1654.4366" y2="1958.8726" gradientTransform="matrix(0.9889 -0.1488 0.1488 0.9889 1993.1848 -1844.0695)">
							<stop  offset="0" style="stop-color:#FFD1C1"/>
							<stop  offset="0.3445" style="stop-color:#FFBAA5"/>
							<stop  offset="0.7588" style="stop-color:#FFA389"/>
							<stop  offset="1" style="stop-color:#FF9A7F"/>
						</linearGradient>
						<path class="st14" d="M640.9,338.6l5.8-7.9c0,0,1.1,1.1,0.8,2.2c-0.2,1.1,0.2,1.8,0.2,2.8c-0.1,1,0.8,3.2,0.3,4.8
							c-0.5,1.5-2.9,2.4-3.5,3.9c-0.6,1.4-1.7,4.6-1.7,4.6l-5.3-2.3l1.7-4.2c0,0-1.3-4.9,1.1-8L640.9,338.6z"/>
						<path class="st7" d="M632.1,377.1c0,0-6.9-2-5.6-7.3c1.3-5.3,6.8-12.9,12.6-27.9l5,2.7C644.2,344.6,637.6,374.1,632.1,377.1z"
							/>
						
							<linearGradient id="SVGID_14_" gradientUnits="userSpaceOnUse" x1="-1464.1146" y1="1741.524" x2="-1459.071" y2="1741.524" gradientTransform="matrix(0.9542 -0.2992 0.2992 0.9542 1518.0468 -1764.8069)">
							<stop  offset="0" style="stop-color:#FFD1C1"/>
							<stop  offset="0.3445" style="stop-color:#FFBAA5"/>
							<stop  offset="0.7588" style="stop-color:#FFA389"/>
							<stop  offset="1" style="stop-color:#FF9A7F"/>
						</linearGradient>
						<path class="st15" d="M643.6,329.3l2.9,3.3l0.1,6.4l-5.3-5.9c0,0,0.4-1.2,1.3-0.4l-1.1-1.5
							C641.6,331.2,640.7,329.3,643.6,329.3z"/>
						<g>
							<g>
								<g>
									<linearGradient id="SVGID_15_" gradientUnits="userSpaceOnUse" x1="594.912" y1="379.894" x2="594.912" y2="369.8968">
										<stop  offset="0" style="stop-color:#E7E6FF"/>
										<stop  offset="0.3393" style="stop-color:#C9D2F8"/>
										<stop  offset="0.7637" style="stop-color:#AABDF1"/>
										<stop  offset="1" style="stop-color:#9EB5EE"/>
									</linearGradient>
									<path class="st16" d="M593.6,379.9l2.7-2.5l-1.5-7.5C594.7,369.9,593.5,379.7,593.6,379.9z"/>
									<linearGradient id="SVGID_16_" gradientUnits="userSpaceOnUse" x1="597.6963" y1="378.4228" x2="597.6963" y2="369.8968">
										<stop  offset="0" style="stop-color:#F9FBFC"/>
										<stop  offset="0.9973" style="stop-color:#CDDBFF"/>
									</linearGradient>
									<polygon class="st17" points="594.7,369.9 596.2,377.4 600.7,378.4 									"/>
								</g>
								<linearGradient id="SVGID_17_" gradientUnits="userSpaceOnUse" x1="588.0764" y1="380.325" x2="588.0764" y2="369.3754">
									<stop  offset="0" style="stop-color:#F9FBFC"/>
									<stop  offset="0.3069" style="stop-color:#F0F5FD"/>
									<stop  offset="0.8031" style="stop-color:#D8E3FE"/>
									<stop  offset="0.9973" style="stop-color:#CDDBFF"/>
								</linearGradient>
								<polygon class="st18" points="583.9,370.2 588.4,380.3 592.2,376.6 585,369.4 								"/>
							</g>
							<linearGradient id="SVGID_18_" gradientUnits="userSpaceOnUse" x1="592.202" y1="379.894" x2="592.202" y2="376.6133">
								<stop  offset="0" style="stop-color:#E7E6FF"/>
								<stop  offset="0.3393" style="stop-color:#C9D2F8"/>
								<stop  offset="0.7637" style="stop-color:#AABDF1"/>
								<stop  offset="1" style="stop-color:#9EB5EE"/>
							</linearGradient>
							<polygon class="st19" points="592.2,376.6 593.6,379.9 590.8,378 							"/>
						</g>
					</g>
				</g>
				<g>
					<path class="st20" d="M792.1,349.4L749.7,319c0,0,0,0,0,0l-13.1-9.4l-121.5,87v36.1v55.4v35.7c0,12.4,10.1,22.5,22.5,22.5h198
						c12.4,0,22.5-10.1,22.5-22.5v-35.7v-55.4v-36.1L792.1,349.4z"/>
					<g>
						<g>
							<rect x="639.8" y="302.6" class="st21" width="193.6" height="224"/>
							<g>
								<rect x="656.7" y="316.7" class="st7" width="68.1" height="57.8"/>
								<g>
									<rect x="734.2" y="332.8" class="st7" width="82.2" height="9.2"/>
									<g>
										<rect x="734.2" y="348.8" class="st7" width="82.2" height="9.2"/>
										<g>
											<rect x="734.2" y="364.9" class="st7" width="82.2" height="9.2"/>
											<rect x="656.7" y="381" class="st7" width="159.8" height="9.2"/>
											<rect x="656.7" y="397" class="st7" width="159.8" height="9.2"/>
											<rect x="656.7" y="413.1" class="st7" width="159.8" height="9.2"/>
											<rect x="656.7" y="429.2" class="st7" width="159.8" height="9.2"/>
											<rect x="656.7" y="445.2" class="st7" width="159.8" height="9.2"/>
										</g>
									</g>
								</g>
							</g>
						</g>
						<path class="st3" d="M824.9,417.1C824.9,417.1,824.9,417.1,824.9,417.1l-51.7,31.9L748,464.5c-7,4.3-15.8,4.3-22.8,0
							l-110.1-67.8v39v89v0.6h0.1c0.3,11.7,9.9,21.2,21.7,21.2h199.4c11.8,0,21.4-9.4,21.7-21.2h0.1v-0.6v-89v-39L824.9,417.1z"/>
						<polygon class="st22" points="833.4,379 833.4,411.1 843.4,405.2 843.4,386.2 						"/>
					</g>
					<g>
						<path class="st23" d="M710.9,455.7l-89.3,84.4c0.2,0.2,0.4,0.4,0.7,0.5l99.6-78.2L710.9,455.7z"/>
						<path class="st23" d="M762.9,455.3l-11.7,7.2l99.6,78.2c0.2-0.2,0.5-0.4,0.7-0.6L762.9,455.3z"/>
					</g>
				</g>
				<path class="st7" d="M604.6,397.9c0,0-4.6-0.8-4.9-0.8c-4.2-1.6-8.1-3.8-11.7-6.3c-3-2.1-5.8-4.4-8.5-6.9
					c-2.3-2.2-9.4-7.5-3.7-12c1.3-1,2.4,0,3.9,0.6c6.4,2.8,24.9,17.7,24.9,17.7S604.8,397.3,604.6,397.9z"/>
				<g>
					<path class="st7" d="M636,380.8l0.6-0.6c0,0,0.1-0.1,0.1-0.1l5.9-4.2c0.3-0.2,0.6-0.2,0.9-0.1l9.5,3.1c0.2,0.1,0.3,0.1,0.4,0.3
						l0,0c0.5,0.5,0.3,1.3-0.4,1.6l-1,0.4c-0.2,0.1-0.4,0.1-0.6,0l-3.2-0.9c-0.2,0-0.5,0-0.7,0.1c-1.1,0.6-5.2,2.9-8.8,4
						c-0.5,0.1-0.9-0.1-1.2-0.5L636,380.8z"/>
					<path class="st7" d="M604.5,397.9c0,0-4.5-5.4,0.9-8.2c5.4-2.8,17-5.5,33.9-11.5l1.4,6.2C640.6,384.3,611.1,400.3,604.5,397.9z
						"/>
				</g>
				<g>
					<g>
						<g>
							<g>
								
									<linearGradient id="SVGID_19_" gradientUnits="userSpaceOnUse" x1="-3280.2031" y1="1575.8094" x2="-3289.3069" y2="1609.7028" gradientTransform="matrix(-0.7302 0.6833 0.6833 0.7302 -2587.4399 1472.8914)">
									<stop  offset="0" style="stop-color:#FFD1C1"/>
									<stop  offset="0.3861" style="stop-color:#FFCFBF"/>
									<stop  offset="0.5877" style="stop-color:#FFC9B7"/>
									<stop  offset="0.7467" style="stop-color:#FFBDA9"/>
									<stop  offset="0.8825" style="stop-color:#FFAE97"/>
									<stop  offset="1" style="stop-color:#FF9A7F"/>
								</linearGradient>
								<path class="st24" d="M893.6,367.6c0,0,4,2.7,5.5,6.7c1.5,4,1.2,7.4,3,11.3c1.4,3.1,9.4,30.4,2,28.9c-1-0.2-1.7-1-2.3-1.7
									c-5.9-7-5.2-16.2-5.7-24.8l-0.4-3.4c0,0-3.7-3.3-4.7-7.2L893.6,367.6z"/>
								
									<linearGradient id="SVGID_20_" gradientUnits="userSpaceOnUse" x1="-3289.5286" y1="1584.9213" x2="-3292.8279" y2="1572.5774" gradientTransform="matrix(-0.7302 0.6833 0.6833 0.7302 -2587.4399 1472.8914)">
									<stop  offset="0" style="stop-color:#FFD1C1"/>
									<stop  offset="0.3861" style="stop-color:#FFCFBF"/>
									<stop  offset="0.5877" style="stop-color:#FFC9B7"/>
									<stop  offset="0.7467" style="stop-color:#FFBDA9"/>
									<stop  offset="0.8825" style="stop-color:#FFAE97"/>
									<stop  offset="1" style="stop-color:#FF9A7F"/>
								</linearGradient>
								<path class="st25" d="M897.8,376.9c0,0-0.9,0.6-2.3-0.6c-1.4-1.2-4.7-3.8-4.7-3.8s-1.3-0.7-1.3,0c0,0.7,0.2,2.2,2.3,3.9
									c0,0,1.7,1.5,2,2.3c0.2,0.8,0.9,2.8,3,4.2C896.7,382.9,900,379.8,897.8,376.9z"/>
							</g>
							<g>
								
									<linearGradient id="SVGID_21_" gradientUnits="userSpaceOnUse" x1="-3675.9006" y1="-4195.1094" x2="-3679.6875" y2="-4160.8052" gradientTransform="matrix(0.7068 0.7074 -0.7074 0.7068 560.1736 5957.7993)">
									<stop  offset="0" style="stop-color:#FFD1C1"/>
									<stop  offset="0.3861" style="stop-color:#FFCFBF"/>
									<stop  offset="0.5877" style="stop-color:#FFC9B7"/>
									<stop  offset="0.7467" style="stop-color:#FFBDA9"/>
									<stop  offset="0.8825" style="stop-color:#FFAE97"/>
									<stop  offset="1" style="stop-color:#FF9A7F"/>
								</linearGradient>
								<path class="st26" d="M904.9,414.5c1.4,0.1,2.9-0.8,4.3-1.7c3.5-2.2,7.1-4.4,10.7-6.7c1.6-1,3.2-2,4.8-3c3.2-2,8-5,5.9-9.6
									c-0.5-1.1-2-1.8-3-1.9c-0.8-0.1-1.6,0.1-2.5,0.4c-1.8,0.7-3.8,2.2-5.2,3.1c-3,1.8-5.9,3.6-8.8,5.6c-1.9,1.2-3.7,2.5-5.5,3.9
									c-1.5,1.1-3.4,2.4-4.4,4.1c-1,1.8,0,3.8,1.3,4.9C903.3,414.2,904.1,414.5,904.9,414.5z"/>
							</g>
							<path class="st7" d="M925.3,406.2c3.9-3.5,14-10.4,10.4-16.9c-3.9-7.2-18.5,5.5-18.5,5.5L925.3,406.2z"/>
						</g>
						
							<linearGradient id="SVGID_22_" gradientUnits="userSpaceOnUse" x1="-2372.7495" y1="420.8117" x2="-2372.7495" y2="482.7889" gradientTransform="matrix(1 0 0 1 3303.4189 0)">
							<stop  offset="0" style="stop-color:#071786"/>
							<stop  offset="0.1509" style="stop-color:#05136B"/>
							<stop  offset="0.3236" style="stop-color:#041055"/>
							<stop  offset="0.5107" style="stop-color:#030E45"/>
							<stop  offset="0.7204" style="stop-color:#020C3B"/>
							<stop  offset="1" style="stop-color:#020C38"/>
						</linearGradient>
						<path class="st27" d="M921.2,482.6c-2.3-8.6-3.2-21.6-3.4-30.5c-0.1-4.4,2.2-20.6,2.4-25c0.5-8.4,2.2-6.8,12.2-4.6
							c1.3,0.3,2.5,0.8,3.5,1.5c12.5,8.6,6.7,28.2,3.3,39.2c-1.5,4.8-3.4,10.5-5.1,15.2C927.6,484.1,921.2,482.6,921.2,482.6z"/>
						<g>
							
								<linearGradient id="SVGID_23_" gradientUnits="userSpaceOnUse" x1="-2948.3557" y1="2132.8391" x2="-2951.1111" y2="2106.7925" gradientTransform="matrix(0.8967 -0.4427 0.4427 0.8967 2656.7397 -2679.4009)">
								<stop  offset="0" style="stop-color:#FFD1C1"/>
								<stop  offset="0.3861" style="stop-color:#FFCFBF"/>
								<stop  offset="0.5877" style="stop-color:#FFC9B7"/>
								<stop  offset="0.7467" style="stop-color:#FFBDA9"/>
								<stop  offset="0.8825" style="stop-color:#FFAE97"/>
								<stop  offset="1" style="stop-color:#FF9A7F"/>
							</linearGradient>
							<path class="st28" d="M965.2,522.1c-0.5-0.5-1.2-0.9-1.9-1.3c-0.2-0.1-1.9-1.3-2-1.5c-2.1-2.5-7.1-10-7.1-10l-7.2,5.4
								c0,0,5.8,5.4,7.6,9.8l0,0c-1.8,4.2-5.7,10.9-5.7,10.9s-5.6,5.9-5.8,6.3c-0.2,0.4-0.9,1.3-1.2,2.9c0,0,0.5,2.2,9.5-2.6
								c0,0,4-1.9,8.9-7c1.1-1,2.2-2,3.4-3.1c1.1-1.1,4.8-4,5-4.7c0.1-0.3,0.1-0.5,0.1-0.7C968.4,524.8,966.2,523.2,965.2,522.1z"/>
							
								<linearGradient id="SVGID_24_" gradientUnits="userSpaceOnUse" x1="-2964.8625" y1="2126.6877" x2="-2932.6746" y2="2126.6877" gradientTransform="matrix(0.8967 -0.4427 0.4427 0.8967 2656.7397 -2679.4009)">
								<stop  offset="0" style="stop-color:#071786"/>
								<stop  offset="0.1509" style="stop-color:#05136B"/>
								<stop  offset="0.3236" style="stop-color:#041055"/>
								<stop  offset="0.5107" style="stop-color:#030E45"/>
								<stop  offset="0.7204" style="stop-color:#020C3B"/>
								<stop  offset="1" style="stop-color:#020C38"/>
							</linearGradient>
							<path class="st29" d="M963.3,520.8c-1.6,1.7-3.6,3.1-5.4,4.1c-1.3,0.7-2.8,1.4-4.4,1.7c-2,4-4.7,8.8-4.7,8.8
								s-5.6,5.9-5.8,6.3c-0.2,0.4-0.9,1.3-1.2,2.9c0,0,0.5,2.2,9.5-2.6c0,0,4-1.9,8.9-7c1.1-1,2.2-2,3.4-3.1c1.1-1.1,4.8-4,5-4.7
								c0.1-0.3,0.1-0.5,0.1-0.7c-0.2-1.6-2.4-3.2-3.5-4.3C964.6,521.6,964,521.2,963.3,520.8z"/>
							
								<linearGradient id="SVGID_25_" gradientUnits="userSpaceOnUse" x1="-2942.8691" y1="2113.9365" x2="-2948.2813" y2="2062.7742" gradientTransform="matrix(0.8967 -0.4427 0.4427 0.8967 2656.7397 -2679.4009)">
								<stop  offset="0" style="stop-color:#071786"/>
								<stop  offset="0.1509" style="stop-color:#05136B"/>
								<stop  offset="0.3236" style="stop-color:#041055"/>
								<stop  offset="0.5107" style="stop-color:#030E45"/>
								<stop  offset="0.7204" style="stop-color:#020C3B"/>
								<stop  offset="1" style="stop-color:#020C38"/>
							</linearGradient>
							<path class="st30" d="M959.4,513.4c-5-9.5-16-27.9-26.5-39.1c-1.5-1.6-6.8,1.4-8.8,2.5c-1.5,0.9-3.2,3-3.2,4.9
								c0,1.5,2.2,5.1,3.1,6.2c2.6,3.2,17.7,24.1,25.8,33.6L959.4,513.4z"/>
						</g>
						
							<linearGradient id="SVGID_26_" gradientUnits="userSpaceOnUse" x1="-2380.228" y1="433.1392" x2="-2380.228" y2="496.732" gradientTransform="matrix(1 0 0 1 3303.4189 0)">
							<stop  offset="0" style="stop-color:#071786"/>
							<stop  offset="0.1509" style="stop-color:#05136B"/>
							<stop  offset="0.3236" style="stop-color:#041055"/>
							<stop  offset="0.5107" style="stop-color:#030E45"/>
							<stop  offset="0.7204" style="stop-color:#020C3B"/>
							<stop  offset="1" style="stop-color:#020C38"/>
						</linearGradient>
						<path class="st31" d="M911.7,433.1h19.4c0,0,0.1,0.1,0.1,0.1l0-0.1h13.5l0,0c-5.6,2.5-5,4.2-5,4.2
							c-1.9,8.6-7.7,19.2-11.4,20.1c-2.1,4.2-3.5,8.7-5.3,11.8c-2.5,4.4-5.5,10.3-8.2,14.5c-7.5,4.1-12.9-1.1-12.9-1.1
							c-0.4-8.9,1.5-20.3,3.3-29C905.8,450.1,909.6,439.3,911.7,433.1z"/>
						<g>
							
								<linearGradient id="SVGID_27_" gradientUnits="userSpaceOnUse" x1="-2406.1753" y1="546.351" x2="-2406.1753" y2="521.7922" gradientTransform="matrix(1 0 0 1 3303.4189 0)">
								<stop  offset="0" style="stop-color:#FFD1C1"/>
								<stop  offset="0.3861" style="stop-color:#FFCFBF"/>
								<stop  offset="0.5877" style="stop-color:#FFC9B7"/>
								<stop  offset="0.7467" style="stop-color:#FFBDA9"/>
								<stop  offset="0.8825" style="stop-color:#FFAE97"/>
								<stop  offset="1" style="stop-color:#FF9A7F"/>
							</linearGradient>
							<path class="st32" d="M913.2,539c-0.1-0.7-0.4-1.5-0.6-2.2c-0.1-0.2-0.6-2.2-0.6-2.4c-0.1-3.3,0.7-12.3,0.7-12.3l-9-0.3
								c0,0,1.1,7.8-0.2,12.4l0,0c-4,2.1-11.2,5-11.2,5s-8.1,1.2-8.5,1.3c-0.4,0.2-1.5,0.4-2.7,1.5c0,0-1,2.1,9,3.8
								c0,0,4.3,1,11.3,0.1c1.5-0.1,3-0.2,4.5-0.3c1.6-0.1,6.2-0.2,6.8-0.6c0.2-0.2,0.4-0.3,0.5-0.5
								C914,543.1,913.3,540.6,913.2,539z"/>
							<path class="st33" d="M905.6,521.9c0.2,0.5,0.3,1,0.5,1.5c0.2-0.5,0.4-1,0.5-1.5L905.6,521.9z"/>
							
								<linearGradient id="SVGID_28_" gradientUnits="userSpaceOnUse" x1="-2422.5239" y1="540.8452" x2="-2389.8264" y2="540.8452" gradientTransform="matrix(1 0 0 1 3303.4189 0)">
								<stop  offset="0" style="stop-color:#071786"/>
								<stop  offset="0.1509" style="stop-color:#05136B"/>
								<stop  offset="0.3236" style="stop-color:#041055"/>
								<stop  offset="0.5107" style="stop-color:#030E45"/>
								<stop  offset="0.7204" style="stop-color:#020C3B"/>
								<stop  offset="1" style="stop-color:#020C38"/>
							</linearGradient>
							<path class="st34" d="M912.5,536.8c0-0.1-0.2-0.8-0.4-1.5c-0.3,0.2-0.7,0.4-1,0.5c-3.9,1.9-8,1.6-12.1,0.6
								c-0.1,0-0.1,0-0.2-0.1c-3.4,1.5-6.6,2.8-6.6,2.8s-8.1,1.2-8.5,1.3c-0.4,0.2-1.5,0.4-2.7,1.5c0,0-1,2.1,9,3.8
								c0,0,4.3,1,11.3,0.1c1.5-0.1,3-0.2,4.5-0.3c1.6-0.1,6.2-0.2,6.8-0.6c0.2-0.2,0.4-0.3,0.5-0.5c0.8-1.4,0.1-4,0-5.5
								C913.1,538.3,912.8,537.5,912.5,536.8z"/>
							
								<linearGradient id="SVGID_29_" gradientUnits="userSpaceOnUse" x1="-2394.2041" y1="526.4433" x2="-2394.2041" y2="476.4933" gradientTransform="matrix(1 0 0 1 3303.4189 0)">
								<stop  offset="0" style="stop-color:#071786"/>
								<stop  offset="0.1509" style="stop-color:#05136B"/>
								<stop  offset="0.3236" style="stop-color:#041055"/>
								<stop  offset="0.5107" style="stop-color:#030E45"/>
								<stop  offset="0.7204" style="stop-color:#020C3B"/>
								<stop  offset="1" style="stop-color:#020C38"/>
							</linearGradient>
							<path class="st35" d="M915.2,526.4c0.2-12.5,1.3-19.2,1.5-28.8c0.1-3.4,0-6.9-0.4-10.3c-0.3-3.4-1.3-8.4-4.9-10.1
								c-2.1-1-5.1-0.9-7.2,0.3c-2,1.1-2.4,3.5-2.4,5.6c0,4.1,0.8,30.4,1.2,42.8C903,525.8,915.2,526.4,915.2,526.4z"/>
						</g>
						
							<linearGradient id="SVGID_30_" gradientUnits="userSpaceOnUse" x1="-2389.9407" y1="376.451" x2="-2393.2009" y2="374.5687" gradientTransform="matrix(1 0 0 1 3303.4189 0)">
							<stop  offset="0" style="stop-color:#E2B691"/>
							<stop  offset="1" style="stop-color:#EF9367"/>
						</linearGradient>
						<polygon class="st36" points="911.7,371.9 913,377.2 910,378 						"/>
						
							<linearGradient id="SVGID_31_" gradientUnits="userSpaceOnUse" x1="-2372.281" y1="384.2858" x2="-2383.3059" y2="377.9205" gradientTransform="matrix(1 0 0 1 3303.4189 0)">
							<stop  offset="0" style="stop-color:#FFD1C1"/>
							<stop  offset="0.3861" style="stop-color:#FFCFBF"/>
							<stop  offset="0.5877" style="stop-color:#FFC9B7"/>
							<stop  offset="0.7467" style="stop-color:#FFBDA9"/>
							<stop  offset="0.8825" style="stop-color:#FFAE97"/>
							<stop  offset="1" style="stop-color:#FF9A7F"/>
						</linearGradient>
						<path class="st37" d="M920.3,377.5c0,1.7-0.4,11.6-0.4,11.6c1,1.2,5.9,1.6,8-0.2c1.7-1.4,1.8-2.7,1.8-2.7l-0.6-14.4
							L920.3,377.5z"/>
						
							<linearGradient id="SVGID_32_" gradientUnits="userSpaceOnUse" x1="-2373.7046" y1="376.7236" x2="-2394.0437" y2="364.9807" gradientTransform="matrix(1 0 0 1 3303.4189 0)">
							<stop  offset="0" style="stop-color:#FFD1C1"/>
							<stop  offset="0.3861" style="stop-color:#FFCFBF"/>
							<stop  offset="0.5877" style="stop-color:#FFC9B7"/>
							<stop  offset="0.7467" style="stop-color:#FFBDA9"/>
							<stop  offset="0.8825" style="stop-color:#FFAE97"/>
							<stop  offset="1" style="stop-color:#FF9A7F"/>
						</linearGradient>
						<path class="st38" d="M928.5,360.9l0.5,5.2l0.8,7.9l0.2,2.2c-5,8.5-13.3,9.4-16,6.6c-2.7-2.8-3.9-19.1-3.9-19.1L928.5,360.9z"
							/>
						
							<linearGradient id="SVGID_33_" gradientUnits="userSpaceOnUse" x1="207.4882" y1="369.5362" x2="238.0898" y2="369.5362" gradientTransform="matrix(-1 0 0 1 1142.0956 0)">
							<stop  offset="0" style="stop-color:#071786"/>
							<stop  offset="0.1509" style="stop-color:#05136B"/>
							<stop  offset="0.3236" style="stop-color:#041055"/>
							<stop  offset="0.5107" style="stop-color:#030E45"/>
							<stop  offset="0.7204" style="stop-color:#020C3B"/>
							<stop  offset="1" style="stop-color:#020C38"/>
						</linearGradient>
						<path class="st39" d="M926.2,383.4c0,0-6.3-13.3-8.3-14.5c-2-1.1-8.5,0.5-12-4.8c-3.5-5.2-1.4-7.9,0-8.1
							c1.4-0.3,3.9,4.8,8.5,1.8c4.6-3.1,14-3.1,15.5,0.6c0,0,5.9,0.6,4.6,8.6c-1.3,8-3.5,14.8-5.5,15.4L926.2,383.4z"/>
						
							<linearGradient id="SVGID_34_" gradientUnits="userSpaceOnUse" x1="-2380.1113" y1="374.4711" x2="-2385.4409" y2="371.394" gradientTransform="matrix(1 0 0 1 3303.4189 0)">
							<stop  offset="0" style="stop-color:#FFD1C1"/>
							<stop  offset="0.3861" style="stop-color:#FFCFBF"/>
							<stop  offset="0.5877" style="stop-color:#FFC9B7"/>
							<stop  offset="0.7467" style="stop-color:#FFBDA9"/>
							<stop  offset="0.8825" style="stop-color:#FFAE97"/>
							<stop  offset="1" style="stop-color:#FF9A7F"/>
						</linearGradient>
						<path class="st40" d="M922.4,368.9c2,1.6,1.9,6.3-2,8.9l-1.6-7.7C919,368.9,921.1,367.8,922.4,368.9z"/>
						<path class="st7" d="M928.9,386.1c-5.6,0.4-14.2,1.7-16.3,8c-1.1,3.4-1.3,7-0.9,10.5c0.3,2.7,0.5,5.5,0.6,8.2
							c0.2,4.7,0.4,9.9-1.2,14.4l-6.7,18c0,0,22.9,7.9,40.7,2.1c0,0-1.2-41.3-5.2-51C938.5,392.6,934.4,385.7,928.9,386.1z"/>
					</g>
					<g>
						<path id="XMLID_568_" class="st41" d="M793.2,465.9c-4.7,7.4-3.4,17.1,3.2,23l8.3,7.4c4.3,3.9,5.1,10.3,1.7,15.1l-21.6,30.3
							c-4.2,5.9-12.6,6.4-17.6,1.1c-5.2-5.6-10-13.3-14.2-26.9c-8-25.5,11.5-48.8,43.2-93.4c31.7-44.6,47.4-70.6,74.1-71.3
							c14.5-0.4,23.4,1.6,30.4,4.9c6.4,3,8.4,11.1,4.3,16.8L883.5,403c-3.4,4.7-9.7,6.1-14.8,3.3l-9.7-5.4
							c-7.7-4.3-17.3-2.4-22.7,4.5L793.2,465.9z"/>
						<path class="st42" d="M829.4,401.3c-8,11.4-21.1,29.9-21.1,29.9s-13.1,18.6-21.1,29.9c-8,11.4-1.3,21.8,16.8,34.5l-7.6-6.8
							c-6.6-5.8-7.9-15.6-3.2-23l43.1-60.5c5.4-6.9,15.1-8.8,22.7-4.5l8.4,4.7l0.1-0.1C849.4,392.8,837.4,389.9,829.4,401.3z"/>
					</g>
					<linearGradient id="SVGID_35_" gradientUnits="userSpaceOnUse" x1="889.2203" y1="373.4901" x2="887.2252" y2="376.37">
						<stop  offset="0" style="stop-color:#FFD1C1"/>
						<stop  offset="0.3861" style="stop-color:#FFCFBF"/>
						<stop  offset="0.5877" style="stop-color:#FFC9B7"/>
						<stop  offset="0.7467" style="stop-color:#FFBDA9"/>
						<stop  offset="0.8825" style="stop-color:#FFAE97"/>
						<stop  offset="1" style="stop-color:#FF9A7F"/>
					</linearGradient>
					<path class="st43" d="M886.1,376.3c0,0,0-3.5,1.4-3.6c1.4-0.1-0.2,7.7-0.2,7.7L886.1,376.3z"/>
					<g>
						
							<linearGradient id="SVGID_36_" gradientUnits="userSpaceOnUse" x1="-3496.8376" y1="1428.9907" x2="-3506.0798" y2="1463.3987" gradientTransform="matrix(-0.79 0.6131 0.6131 0.79 -2767.2158 1397.0219)">
							<stop  offset="0" style="stop-color:#FFD1C1"/>
							<stop  offset="0.3861" style="stop-color:#FFCFBF"/>
							<stop  offset="0.5877" style="stop-color:#FFC9B7"/>
							<stop  offset="0.7467" style="stop-color:#FFBDA9"/>
							<stop  offset="0.8825" style="stop-color:#FFAE97"/>
							<stop  offset="1" style="stop-color:#FF9A7F"/>
						</linearGradient>
						<path class="st44" d="M881.4,368.9c0.2-0.5,0.9-0.6,1.2-0.2c1.2,1.2,3.6,4.4,4.4,7.3c1.2,4.1,0.5,7.5,1.9,11.5
							c1.1,3.2,6.5,31.1-0.6,29c-0.9-0.3-1.6-1.1-2.2-1.9c-5.2-7.5-3.7-16.6-3.4-25.3l-0.1-3.4c0,0-0.5-2.8-2.3-5.6
							c-0.1-0.2-1.4-5.5-1.7-6.8c0-0.1,0-0.3,0.1-0.4L881.4,368.9z"/>
					</g>
					<g>
						
							<linearGradient id="SVGID_37_" gradientUnits="userSpaceOnUse" x1="-3684.9321" y1="-4182.6387" x2="-3688.719" y2="-4148.3345" gradientTransform="matrix(0.7068 0.7074 -0.7074 0.7068 560.1736 5957.7993)">
							<stop  offset="0" style="stop-color:#FFD1C1"/>
							<stop  offset="0.3861" style="stop-color:#FFCFBF"/>
							<stop  offset="0.5877" style="stop-color:#FFC9B7"/>
							<stop  offset="0.7467" style="stop-color:#FFBDA9"/>
							<stop  offset="0.8825" style="stop-color:#FFAE97"/>
							<stop  offset="1" style="stop-color:#FF9A7F"/>
						</linearGradient>
						<path class="st45" d="M889.7,416.9c1.4,0.1,2.9-0.8,4.3-1.7c3.5-2.2,7.1-4.4,10.7-6.7c1.6-1,3.2-2,4.8-3c3.2-2,8-5,5.9-9.6
							c-0.5-1.1-2-1.8-3-1.9c-0.8-0.1-1.6,0.1-2.5,0.4c-1.8,0.7-3.8,2.2-5.2,3.1c-3,1.8-5.9,3.6-8.8,5.6c-1.9,1.2-3.7,2.5-5.5,3.9
							c-1.5,1.1-3.4,2.4-4.4,4.1c-1,1.8,0,3.8,1.3,4.9C888.1,416.6,888.9,416.9,889.7,416.9z"/>
					</g>
					<path class="st7" d="M910.1,408.6c3.9-3.5,14-10.4,10.4-16.9c-3.9-7.2-18.5,5.5-18.5,5.5L910.1,408.6z"/>
				</g>
			</g>
		</g>
	</g>
</g>
<rect x="307.1" y="410.6" class="st46" width="28.1" height="138.1"/>
<rect x="307.1" y="410.6" class="st47" width="9.2" height="138.1"/>
<path class="st48" d="M416.7,283.1c-27.9,0.7-50.2,23.5-50.2,51.6v75.9H247.7v-75.9c0-28.5,23.1-51.6,51.6-51.6h116.1
	C415.8,283.1,416.3,283.1,416.7,283.1z"/>
<path class="st3" d="M467,334.7v75.9H366.5v-75.9c0-26.4,19.8-48.1,45.4-51.2c1.6-0.2,3.2-0.3,4.8-0.4h0
	C444.6,283.9,467,306.7,467,334.7z"/>
<path class="st41" d="M457.2,334.7v75.9h-90.7v-75.9c0-26.4,19.8-48.1,45.4-51.2C437.4,286.6,457.2,308.3,457.2,334.7z"/>
<path class="st3" d="M416.7,283.1c-1.6,0-3.3,0.2-4.8,0.4c-25.6,3.1-45.4,24.8-45.4,51.2V376H247.7v-41.3
	c0-28.5,23.1-51.6,51.6-51.6h116.1C415.8,283.1,416.3,283.1,416.7,283.1z"/>
<path class="st49" d="M288.7,393c0,2.7-2.2,4.9-4.9,4.9c-2.7,0-4.9-2.2-4.9-4.9c0-2.7,2.2-4.9,4.9-4.9
	C286.6,388.2,288.7,390.3,288.7,393z"/>
<path class="st49" d="M307.1,393c0,2.7-2.2,4.9-4.9,4.9s-4.9-2.2-4.9-4.9c0-2.7,2.2-4.9,4.9-4.9S307.1,390.3,307.1,393z"/>
<path class="st49" d="M323.3,393c0,2.7-2.2,4.9-4.9,4.9c-2.7,0-4.9-2.2-4.9-4.9c0-2.7,2.2-4.9,4.9-4.9
	C321.1,388.2,323.3,390.3,323.3,393z"/>
<path class="st3" d="M467,410.6v62.7c0,25.1-20.3,45.4-45.4,45.4h-9.7c-25.1,0-45.4-20.3-45.4-45.4v-62.7H467z"/>
<path class="st48" d="M467,410.6v62.7c0,17.5-9.9,32.7-24.4,40.2c-6.3,3.3-13.4,5.1-21,5.1h-5.9c-25.1,0-45.4-20.3-45.4-45.4v-62.7
	H467z"/>
<path class="st49" d="M411.9,283.5c-25.6,3.1-45.4,24.8-45.4,51.2V376h-57.8c6.9-4.9,12.5-14.6,12.5-33.5v-12.8
	c0-25.6,20.7-46.3,46.3-46.3H411.9z"/>
<path class="st47" d="M344.4,342.5L344.4,342.5c-2.7,0-4.9-2.2-4.9-4.9V216.1h9.7v121.5C349.2,340.3,347,342.5,344.4,342.5z"/>
<polygon class="st3" points="349.2,216.1 312.8,216.1 349.2,246.1 "/>
<path class="st50" d="M442.6,513.5c-6.3,3.3-13.4,5.1-21,5.1h-5.9c-25.1,0-45.4-20.3-45.4-45.4v-62.7h7.1L442.6,513.5z"/>
<g>
	<g>
		<path class="st51" d="M453.7,351.2c0,0,0.9-0.1,2.4-0.5"/>
		<path class="st52" d="M461.9,348.8c12.9-5,35.5-19.6,26.4-58.6c-12.4-53.5-10.8-96.7,20.8-114c24.7-13.5,52.5-2.6,63.5,2.8"/>
		<path class="st51" d="M575.2,180.3c1.4,0.8,2.2,1.2,2.2,1.2"/>
	</g>
</g>
<polygon class="st49" points="579.9,184.1 572,193.9 610.6,208.3 593.2,169.7 585,180.2 595.3,192.7 "/>
<polygon class="st49" points="163.4,170.4 175.2,174.5 175.7,133.3 145.3,162.8 157.9,166.9 166.3,153 "/>
<path class="st53" d="M366.5,362.3c0,0,45.2-6.3,29.4-37.3c-37.8-74.5-151.7,7.7-197.7-30c-48.1-39.4-39.4-94.8-39.4-94.8"/>
<g>
	<path class="st54" d="M446.8,129.2h-19.6c-0.5,0-0.9,0.4-0.9,0.9c0,0.5,0.4,0.9,0.9,0.9h19.6c0.5,0,0.9-0.4,0.9-0.9
		C447.7,129.6,447.3,129.2,446.8,129.2z"/>
	<path class="st54" d="M420.9,129.2h-3.8c-0.5,0-0.9,0.4-0.9,0.9c0,0.5,0.4,0.9,0.9,0.9h3.8c0.5,0,0.9-0.4,0.9-0.9
		C421.8,129.6,421.4,129.2,420.9,129.2z"/>
	<path class="st54" d="M437.6,136.1c0,0.5-0.4,0.9-0.9,0.9h-2.5c-0.5,0-0.9-0.4-0.9-0.9c0-0.5,0.4-0.9,0.9-0.9h2.5
		C437.2,135.2,437.6,135.6,437.6,136.1z M430.8,136.1c0,0.5-0.4,0.9-0.9,0.9h-4.3c-0.5,0-0.9-0.4-0.9-0.9c0-0.5,0.4-0.9,0.9-0.9h4.3
		C430.4,135.2,430.8,135.6,430.8,136.1z M422.2,136.1c0,0.5-0.4,0.9-0.9,0.9h-4.3c-0.5,0-0.9-0.4-0.9-0.9c0-0.5,0.4-0.9,0.9-0.9h4.3
		C421.8,135.2,422.2,135.6,422.2,136.1z"/>
</g>
<path class="st54" d="M929.6,201.7c0,0,1.5,10.6-10.9,10.4c0,0,10.7,0.1,10.4,10.1c0,0,1-7.8,10.7-9.6
	C939.8,212.6,931.5,214.5,929.6,201.7z"/>
<path class="st54" d="M18.9,135c0,0,1.5,10.6-10.9,10.4c0,0,10.7,0.1,10.4,10.1c0,0,1-7.8,10.7-9.6C29.1,145.9,20.9,147.8,18.9,135z
	"/>
<path class="st54" d="M282.4,60.8c0,0,0.8,5.9-6.1,5.8c0,0,5.9,0.1,5.8,5.6c0,0,0.5-4.4,6-5.3C288.1,66.8,283.5,67.9,282.4,60.8z"/>
<g>
	<path class="st54" d="M830.8,166.7h-24.2c-3.1,0-5.6-2.5-5.6-5.6c0-3,2.4-5.5,5.4-5.6c0.1-4.7,3.9-8.5,8.7-8.5
		c2.9,0,5.7,1.5,7.3,3.9c3.3-0.5,6.2,1.6,7,4.6h1.4c3.1,0,5.6,2.5,5.6,5.6S833.9,166.7,830.8,166.7z M806.6,157.1c-2.2,0-4,1.8-4,4
		c0,2.2,1.8,4,4,4h24.2c2.2,0,4-1.8,4-4c0-2.2-1.8-4-4-4H828l-0.1-0.7c-0.4-2.6-2.9-4.5-5.7-3.8l-0.6,0.1l-0.3-0.5
		c-1.2-2.2-3.6-3.6-6.1-3.6c-3.9,0-7,3.2-7,7c0,0.2,0,0.4,0,0.6l0.1,0.9H806.6z"/>
</g>
<g>
	<path class="st54" d="M983.8,39.2h-19.4c-2.5,0-4.5-2-4.5-4.5c0-2.4,1.9-4.4,4.4-4.5c0.1-3.8,3.2-6.9,7-6.9c2.4,0,4.6,1.2,5.8,3.2
		c2.6-0.4,5,1.3,5.6,3.7h1.1c2.5,0,4.5,2,4.5,4.5C988.3,37.2,986.3,39.2,983.8,39.2z M964.4,31.5c-1.7,0-3.2,1.4-3.2,3.2
		c0,1.7,1.4,3.2,3.2,3.2h19.4c1.7,0,3.2-1.4,3.2-3.2c0-1.7-1.4-3.2-3.2-3.2h-2.2l-0.1-0.6c-0.3-2.1-2.4-3.6-4.6-3.1l-0.5,0.1
		l-0.2-0.4c-1-1.8-2.9-2.9-4.9-2.9c-3.1,0-5.6,2.5-5.6,5.6c0,0.2,0,0.3,0,0.5l0.1,0.7H964.4z"/>
</g>
<g>
	<path class="st54" d="M138,340.1h-24.2c-3.1,0-5.6-2.5-5.6-5.6c0-3,2.4-5.5,5.4-5.6c0.1-4.7,3.9-8.5,8.7-8.5c2.9,0,5.7,1.5,7.3,3.9
		c3.3-0.5,6.2,1.6,7,4.6h1.4c3.1,0,5.6,2.5,5.6,5.6C143.6,337.6,141.1,340.1,138,340.1z M113.8,330.5c-2.2,0-4,1.8-4,4s1.8,4,4,4
		H138c2.2,0,4-1.8,4-4s-1.8-4-4-4h-2.8l-0.1-0.7c-0.4-2.6-2.9-4.5-5.7-3.8l-0.6,0.1l-0.3-0.5c-1.2-2.2-3.6-3.6-6.1-3.6
		c-3.9,0-7,3.2-7,7c0,0.2,0,0.4,0,0.6l0.1,0.9H113.8z"/>
</g>
<g>
	<path class="st54" d="M157.9,70.6h-24.2c-3.1,0-5.6-2.5-5.6-5.6c0-3,2.4-5.5,5.4-5.6c0.1-4.7,3.9-8.5,8.7-8.5
		c2.9,0,5.7,1.5,7.3,3.9c3.3-0.5,6.2,1.6,7,4.6h1.4c3.1,0,5.6,2.5,5.6,5.6C163.5,68,161,70.6,157.9,70.6z M133.6,61
		c-2.2,0-4,1.8-4,4s1.8,4,4,4h24.2c2.2,0,4-1.8,4-4s-1.8-4-4-4h-2.8l-0.1-0.7c-0.4-2.6-2.9-4.5-5.7-3.8l-0.6,0.1l-0.3-0.5
		c-1.2-2.2-3.6-3.6-6.1-3.6c-3.9,0-7,3.2-7,7c0,0.2,0,0.4,0,0.6l0.1,0.9H133.6z"/>
</g>
<g>
	<path class="st54" d="M108.8,213.8H95.9c-0.3,0-0.6,0.3-0.6,0.6c0,0.3,0.3,0.6,0.6,0.6h12.9c0.3,0,0.6-0.3,0.6-0.6
		C109.3,214.1,109.1,213.8,108.8,213.8z"/>
	<path class="st54" d="M91.8,213.8h-2.5c-0.3,0-0.6,0.3-0.6,0.6c0,0.3,0.3,0.6,0.6,0.6h2.5c0.3,0,0.6-0.3,0.6-0.6
		C92.4,214.1,92.1,213.8,91.8,213.8z"/>
	<path class="st54" d="M102.7,218.3c0,0.3-0.3,0.6-0.6,0.6h-1.6c-0.3,0-0.6-0.3-0.6-0.6c0-0.3,0.3-0.6,0.6-0.6h1.6
		C102.5,217.7,102.7,218,102.7,218.3z M98.3,218.3c0,0.3-0.3,0.6-0.6,0.6h-2.8c-0.3,0-0.6-0.3-0.6-0.6c0-0.3,0.3-0.6,0.6-0.6h2.8
		C98.1,217.7,98.3,218,98.3,218.3z M92.7,218.3c0,0.3-0.3,0.6-0.6,0.6h-2.8c-0.3,0-0.6-0.3-0.6-0.6c0-0.3,0.3-0.6,0.6-0.6h2.8
		C92.4,217.7,92.7,218,92.7,218.3z"/>
</g>
<g>
	<path class="st54" d="M605.4,51.1h-24.2c-3.1,0-5.6-2.5-5.6-5.6c0-3,2.4-5.5,5.4-5.6c0.1-4.7,3.9-8.5,8.7-8.5
		c2.9,0,5.7,1.5,7.3,3.9c3.3-0.5,6.2,1.6,7,4.6h1.4c3.1,0,5.6,2.5,5.6,5.6S608.5,51.1,605.4,51.1z M581.2,41.5c-2.2,0-4,1.8-4,4
		c0,2.2,1.8,4,4,4h24.2c2.2,0,4-1.8,4-4c0-2.2-1.8-4-4-4h-2.8l-0.1-0.7c-0.4-2.6-2.9-4.5-5.7-3.8l-0.6,0.1l-0.3-0.5
		c-1.2-2.2-3.6-3.6-6.1-3.6c-3.9,0-7,3.2-7,7c0,0.2,0,0.4,0,0.6l0.1,0.9H581.2z"/>
</g>
<path class="st54" d="M717.1,118.7c0,0,0.8,5.9-6.1,5.8c0,0,5.9,0.1,5.8,5.6c0,0,0.5-4.4,6-5.3C722.7,124.7,718.2,125.8,717.1,118.7
	z"/>
<path class="st54" d="M914.3,54.7c0,0,0.8,5.9-6.1,5.8c0,0,5.9,0.1,5.8,5.6c0,0,0.5-4.4,6-5.3C920,60.8,915.4,61.8,914.3,54.7z"/>
<g>
	<path class="st54" d="M1188.5,91.7h-19.4c-2.5,0-4.5-2-4.5-4.5c0-2.4,1.9-4.4,4.4-4.5c0.1-3.8,3.2-6.9,7-6.9c2.4,0,4.6,1.2,5.8,3.2
		c2.6-0.4,5,1.3,5.6,3.7h1.1c2.5,0,4.5,2,4.5,4.5C1193,89.7,1191,91.7,1188.5,91.7z M1169.1,84c-1.7,0-3.2,1.4-3.2,3.2
		c0,1.7,1.4,3.2,3.2,3.2h19.4c1.7,0,3.2-1.4,3.2-3.2c0-1.7-1.4-3.2-3.2-3.2h-2.2l-0.1-0.6c-0.3-2.1-2.4-3.6-4.6-3.1l-0.5,0.1
		l-0.2-0.4c-1-1.8-2.9-2.9-4.9-2.9c-3.1,0-5.6,2.5-5.6,5.6c0,0.2,0,0.3,0,0.5l0.1,0.7H1169.1z"/>
</g>
<path class="st54" d="M1165,220.4c0,0,1.5,10.6-10.9,10.4c0,0,10.7,0.1,10.4,10.1c0,0,1-7.8,10.7-9.6
	C1175.2,231.3,1166.9,233.2,1165,220.4z"/>
<g>
	<path class="st54" d="M1090.2,282.4h-19.4c-2.5,0-4.5-2-4.5-4.5c0-2.4,1.9-4.4,4.4-4.5c0.1-3.8,3.2-6.9,7-6.9
		c2.4,0,4.6,1.2,5.8,3.2c2.6-0.4,5,1.3,5.6,3.7h1.1c2.5,0,4.5,2,4.5,4.5C1094.7,280.4,1092.7,282.4,1090.2,282.4z M1070.8,274.8
		c-1.7,0-3.2,1.4-3.2,3.2s1.4,3.2,3.2,3.2h19.4c1.7,0,3.2-1.4,3.2-3.2s-1.4-3.2-3.2-3.2h-2.2l-0.1-0.6c-0.3-2.1-2.4-3.6-4.6-3.1
		l-0.5,0.1l-0.2-0.4c-1-1.8-2.9-2.9-4.9-2.9c-3.1,0-5.6,2.5-5.6,5.6c0,0.2,0,0.3,0,0.5l0.1,0.7H1070.8z"/>
</g>
</svg>
