<?xml version="1.0" encoding="utf-8"?>
<!-- Generator: Adobe Illustrator 24.0.1, SVG Export Plug-In . SVG Version: 6.00 Build 0)  -->
<svg version="1.1" id="Layer_1" xmlns="http://www.w3.org/2000/svg" xmlns:xlink="http://www.w3.org/1999/xlink" x="0px" y="0px"
	 viewBox="0 0 898.5 831.3" style="enable-background:new 0 0 898.5 831.3;" xml:space="preserve">
<style type="text/css">
	.st0{fill:#FFFFFF;}
	.st1{enable-background:new    ;}
</style>
<path class="st0" d="M857,830H41.5C18.6,830,0,811.4,0,788.5v-747C0,18.6,18.6,0,41.5,0H857c22.9,0,41.5,18.6,41.5,41.5v747
	C898.5,811.4,879.9,830,857,830z"/>
<title>The-Wolf-Pack_</title>
<g class="st1">
	<path d="M126.5,520.9l17.1-4.3l1.1,4.5l-2.9,0.7l2.6,10.5l2.9-0.7l-1.7-6.7l2.3-10.1l5,20.2l-11.9,2.9l-1.7-6.7l-5.6,9.4l-1.5-6
		l5.6-9.4l-0.6-2.2l-18.6,4.7L126.5,520.9z"/>
</g>
<g class="st1">
	<path d="M138.1,554.8l18.7-7l7.2,19.4l-7.5-7.1l-2.4-6.5l-2.8,1.1l5.6,15.1l-7.5-7.1l-2.4-6.5l-2.9,1.1l2.4,6.5l-1.1,10.3
		L138.1,554.8z"/>
</g>
<g class="st1">
	<path d="M150.5,586.4l8.3,6.1l3.1,6.1l2.8-1.4l-6.9-13.8l11-5.5l9,17.9l-8.3-6.1l-2.8-5.5l-2.8,1.4l6.9,13.8l-11,5.5L150.5,586.4z"
		/>
</g>
<g class="st1">
	<path d="M165.6,620l14.9-9.5l2.5,3.9l-2.6,1.7l5.8,9.1l2.6-1.7l-3.8-5.8l-1.1-10.3l11.2,17.4l-10.4,6.6l-8.3-12.9l-16.1,10.4
		L165.6,620z"/>
</g>
<g class="st1">
	<path d="M187.5,648.1l15.4-12.6l13.1,16l-9.4-4.2l-4.4-5.3l-2.4,1.9l10.2,12.5l-9.4-4.2l-4.4-5.3l-2.4,1.9l4.4,5.3l2.3,10
		L187.5,648.1z"/>
</g>
<g class="st1">
	<path d="M210.1,674.5l14-14.2l14.2,14l-9.8-3.2l-4.4-4.3l-7.5,7.6l5,4.9l3.3,9.7L210.1,674.5z"/>
</g>
<g class="st1">
	<path d="M238.7,704.1l10.9-13.8l-4.8-3.9l2.8-3.6l16.2,12.8l-10.1-2.1l-0.6-0.5l-16.7,21L238.7,704.1z"/>
</g>
<g class="st1">
	<path d="M342.7,761l4.9-17l4.4,1.3l-0.8,2.9l10.4,2.9l0.8-2.9l-6.6-1.9l-7.6-7l19.9,5.8l-3.4,11.8L358,755l5.2,9.5l-5.9-1.7
		l-5.2-9.5l-2.2-0.6l-5.3,18.4L342.7,761z"/>
</g>
<g class="st1">
	<path d="M377.8,768l3.4-19.7l20.4,3.5l-9.9,3l-6.8-1.2l-0.6,3l16,2.8l-9.9,3l-6.8-1.2l-0.6,3l6.8,1.2l8.3,6.1L377.8,768z"/>
</g>
<g class="st1">
	<path d="M412,775.4l1.1-17.7l4.6,0.3l-0.2,3l10.7,0.6l0.2-3l-6.9-0.5l-9-5.1l20.7,1.3l-0.7,12.3l-15.4-0.9l-1.2,19.3L412,775.4z"/>
</g>
<g class="st1">
	<path d="M447.9,776.9l-0.8-17.7l4.6-0.2l0.2,3l10.7-0.6l-0.2-3l-6.9,0.4l-9.4-4.1l20.7-1l0.6,12.3l-6.9,0.4l8.1,7.3l-6.1,0.3
		l-8.1-7.3l-2.3,0.1l0.9,19.2L447.9,776.9z"/>
</g>
<g class="st1">
	<path d="M483.3,772.1l-3.1-19.7l20.4-3.3l-8.3,6.1l-6.9,1.1l0.5,3l16-2.6l-8.3,6.1l-6.9,1.1l0.5,3l6.9-1.1l9.8,3.1L483.3,772.1z"/>
</g>
<g class="st1">
	<path d="M516.8,766.1l7.7-6.9l6.7-1.8l-0.8-2.9l-14.9,4l-3.3-11.8l19.3-5.3l-7.7,6.9l-6,1.7l0.8,2.9l14.9-4l3.3,11.8L516.8,766.1z"
		/>
</g>
<g class="st1">
	<path d="M551.7,755.7l-7.4-18.6l19.3-7.7l-6.9,7.7l-6.4,2.6l1.1,2.8l15-6l-6.9,7.7l-6.4,2.6l1.1,2.8l6.4-2.6l10.3,0.9L551.7,755.7z
		"/>
</g>
<g class="st1">
	<path d="M584.8,744.2l-11.6-21.7l17.1-0.5l-2.6-4.8l4-2.2l9.4,17.6l-4,2.2l-4.1-7.8l-12,0.3l12.1,22.7L584.8,744.2z"/>
</g>
<g class="st1">
	<path d="M621.2,723.3l-9.9-14.7l-5.1,3.5l-2.6-3.9l17.2-11.6l-5,9l-0.6,0.5l15,22.4L621.2,723.3z"/>
</g>
<g class="st1">
	<path d="M706.6,641.1l-14.7-9.7l2.6-3.9l2.6,1.7l6-8.9l-2.6-1.7l-3.8,5.8l-8.9,5.1l11.4-17.2l10.2,6.8l-3.8,5.8l10.6-2.1l-3.4,5.1
		l-10.6,2.1l-1.3,1.9l16,10.5L706.6,641.1z"/>
</g>
<g class="st1">
	<path d="M723.8,609.7l-17.8-9.2l9.2-17.8l17.8,9.2L723.8,609.7z M726.7,593.9l-9.5-5l-5,9.5l9.5,5L726.7,593.9z"/>
</g>
<g class="st1">
	<path d="M732.1,564.1l8.8,9.4l-1.7,4.7l-16.5-17.6l25.7-2.8l9.4,3.5L732.1,564.1z"/>
</g>
<g class="st1">
	<path d="M753.9,543.6l-17.1-4.3l1.1-4.5l2.9,0.7l2.7-10.5l-2.9-0.7l-1.7,6.7l-6.7,7.8l5-20.1l11.9,3l-1.7,6.7l9.4-5.6l-1.5,6
		l-9.4,5.6l-0.6,2.2l18.6,4.7L753.9,543.6z"/>
</g>
<path d="M480.1,475.2c-2.5-8.7-7.3-12.6-15.8-12.1l0,0c-0.7-0.1-1.4-0.1-1.9-0.1c-2.2,0-4.3,0.3-6.4,0.9h-0.1
	c-1.3,0.2-2.7,0.5-3.9,0.8c-4.2,1.6-8.3,0.9-12.6,0c-4.7-0.9-9.4-1.5-14.2-1.7c-5.8-0.2-9.8,2.8-12.1,8.1c-6,13.4-2.2,29.2,9.3,38.3
	c7.4,6.1,16,8.1,25.4,8C468.5,517.4,486.5,497.7,480.1,475.2z M433.2,506.2c-3.6-0.1-5.9-1.4-6.6-4.9c-1-4.8-3.6-8.3-7.3-11.1
	c-2.8-2.1-2.6-3.9,0.4-5.7c0.8-0.5,1.7-0.5,2.6-0.1c5.9,4.8,10.7,10.4,13.8,17.3C437.2,504.6,436,506.2,433.2,506.2z M444.9,471.9
	L444.9,471.9L444.9,471.9z M473.1,489.6c-0.7,0.6-1.5,1.3-2.3,1.9c-2.7,2-4.5,4.9-5.1,8.1c-1,4.7-3.3,6.5-7.2,6.5
	c-2.6,0-3.5-1-3-3.6c0.2-1.3,0.7-2.5,1.5-3.6c3.9-4.8,7.8-9.5,11.8-14.1c1.6-1.7,2.7-1.5,4.6,0.6C474.7,487,474.4,488.4,473.1,489.6
	L473.1,489.6z"/>
<path d="M249.6,246.2c6.6,1.3,13.2,2.2,19.7,3.9c22.6,5.8,45.4,11.2,67.7,17.8c15.5,4.6,30,3.1,45.3-0.8
	c20.1-5.1,40.5-8.3,60.9-12.2c2.3-0.5,4.7-0.1,7-0.1l0.8,1.5c-1.7,1.7-3,3.8-5,5.2c-9.4,7.3-20.4,10.5-32,12.7
	c-13.6,2.7-27,6.3-39.1,13.4c-7.7,4.4-14.3,10.5-19.2,17.9c-8.6,13.3-15.2,15.2-29.7,9.1c-0.8-0.4-1.6-0.7-2.4-1
	c-13.5-4.9-27.1-9.7-40.5-14.5c-1.3-0.4-2.4-1.1-3.1-2.1h57.7l0.3-1.7l-58.8-13.3l34.8-2.7l0.2-1.7c-5.2-0.7-10.5-2.1-15.7-2.2
	c-19.4-0.2-36.8-5.8-51.3-19.1c-0.2-0.2-0.6-0.1-1.8-0.3c0.6,2.7,1,5.1,1.9,7.3c3.7,8.7,7.5,17.5,11.5,26.1
	c4.7,10.1,8.3,20.2,5.3,31.5c-1,3.9,2,6.3,5.3,7.2c9.2,2.5,18.4,4.4,27.7,6.5c4.7,1.1,9.4,1.9,14.1,3.1c1.4,0.4,3.6,1.8,3.5,2.6
	c-0.2,1.4-1.4,3.4-2.7,3.9c-10.4,3.9-20.7,7.5-31.2,10.8c-3.7,1.2-7.8,1-13.3,1.7c9.4,7.6,17.9,14.4,28.2,19.2c-6.3,0-12.7,0.1-19,0
	s-12.8-0.8-19.2-0.4c-6.3,0.5-12.9,1.7-19.9,2.1c3.7-2.4,7.4-4.7,11-7.2c1.6-1.2,3.7-2.8,3.9-4.5c1.7-12.3,5.6-22.8,19.7-28.2
	c-6.1-2-10.8-3.6-15.4-5.1c-4.2-1.5-6.4-4.6-6.9-8.9c-2-20.9-7.4-41.1-13.7-61.1c-3.7-11.6-3.6-11.6,7.2-16.4L249.6,246.2z"/>
<path d="M646.8,246.2c0.1,0.1,0.3,0.3,0.4,0.4c9.4,2.5,10.8,3.6,7,15.4c-6.4,19.9-11.7,40.2-13.8,61.1c-0.6,5.5-3.7,8.7-8.8,10.4
	c-4,1.3-8.1,2.5-13.8,4.2c11.7,4.5,16.6,12.6,18.9,22.6c0.4,1.5,0.1,3.3,0.7,4.6c1,2.1,2.5,4,4.2,5.6c3.3,2.6,7,4.7,10.3,7.7
	c-19.3-5.6-38.9-0.7-56.9-2.2l26.9-17.7l-0.6-1.5c-4-0.5-8.2-0.4-12-1.6c-10.1-3-20-6.4-29.9-10.1c-1.7-0.6-2.8-3.1-4.2-4.7
	c1.7-1,3.3-2.7,5.1-3c9.8-2.1,19.7-3.7,29.5-5.8c4-0.9,8-2.2,11.8-3.8c3.1-1.3,5.2-3.7,4.2-7.3c-2.8-10.5,0.5-20.1,4.7-29.6
	c4.6-10.5,8.9-21,13.3-31.5c0.4-1,0.4-2,0.2-3.1c-17.6,20.5-43.8,24.2-66.8,34.8c11.9,5,24.3,4.1,35.6,5.5
	c-18,6.7-36.7,13.8-55.5,20.4c-6.8,2.4-13.1,1.2-17.9-4.5c-8.4-10.1-16.9-20.2-25.1-30.4c-3.6-4.4-2.5-7.2,3-8.5
	c3.3-0.8,6.9-0.7,10.3-1.2c7.5-1.1,15-1.8,22.4-3.6c27.3-6.7,54.6-13.8,81.9-20.7c3.1-0.8,6.4-1.2,9.6-1.8L646.8,246.2z"/>
<path d="M363.6,483.4L363.6,483.4L363.6,483.4L363.6,483.4z M360.6,478l0.4-0.1l-0.9-2.1C360.3,476.5,360.5,477.3,360.6,478
	L360.6,478z M337,493.5L337,493.5L337,493.5z"/>
<path d="M439.1,708.1c-10.4-1.5-19.8-4.8-27.7-11.9c-13.1-11.9-18.3-27.4-19.5-44.5c-1.4-20.4-2.2-40.8-3.4-61.2
	c-0.7-13.3-1.5-26.8-7.2-39.1c-7.8-16.8-12-34.6-16-52.5c-1.1-5.1-2.4-10.2-3.7-15.3c-0.5-1.8-0.9-3.7-1.4-5.6l0.3-0.1
	c-0.2-0.7-0.4-1.5-0.6-2.2l0.9,2.1c0.8,1.9,1.6,3.8,2.3,5.7l18.3,16l-2.6-12.8c-1.4-13.7,4.3-26,8.2-38.6c-10.4,0.4-20.4-1-28.5-9
	c-8.5-8.3-11.3-8.6-22-3.3c-1.6,0.7-3,1.7-4.6,2.4c-12.1,5.5-24.1,11.3-36.3,16.4c-4,1.7-8.7,1.7-13.1,2.4l-0.4-1.5
	c18.2-8.8,35.1-19.8,50.6-32.6l-66.2,15.8l-0.6-1.5l51.5-22.7l-0.2-0.9H272c17.2-6.3,35.9-6.2,52.1-12.7l1.3-9.7
	c4.8,3,8.3,6.3,12.4,7.4c4.1,1.1,8.7,0.3,13.3,0.3c-0.2,2.6-0.3,3.9-0.4,5.3c-0.5,13.8,12.3,27,25.3,23.5c9.4-2.5,13,2,18,7
	c0.5,0.3,0.9,0.6,1.4,0.8c5.4-3.9,8.6-8.9,9.2-14.1c-6.8-4.2-13.3-7.4-18.7-12c-6.5-5.7-13.9-10.2-22.1-13.3
	c-3.9-1.4-7.8-2.9-11.6-4.4L311.6,376l4.9,5.1l-52.9,3.8l0.1,1.3l31.4,5.7l0.1,1.4c-25,3.3-50.4,5.2-75.2,15.1l24.2,12.4l-0.5,1.3
	l-24.4,3.6l18.1,4.5l-0.1,1.4l-17.8,6.1L237,444v1.3l-20.4,4.4l20.6,9.1l-18.5,6.3l17.3,9.1l-11,5.8c5.2,9.7,13,17.8,22.4,23.6
	c16.7,10.2,34.3,18.8,50.8,29.3c9.4,5.9,16.4,7.1,25-1.3c6.7-6.4,16.4-7.5,25.5-9.1c-4.1,3.6-8.5,6.5-12.7,9.7
	c-12.9,9.6-13.8,14.8-4.5,27.9c1.3,1.8,2.6,3.7,3.9,5.5c1.7,2.4,3.5,4.8,5.2,7.2l-0.9,1l-24.1-8.7c2.5,3.2,5.4,6.1,8.7,8.4
	c10.8,7.8,21.8,15.3,32.6,23.3c2.1,1.7,3.7,3.9,4.5,6.4c3.6,11.4,6.4,23,10.2,34.3c6.8,20.6,14.8,40.7,28.8,57.8
	c8.6,10.5,19.2,17.4,33,18.5c5.2,0.5,10.5,0.1,14.9-3.4C445.3,709,442.2,708.4,439.1,708.1z M372.1,403c1,2.8,1.3,5.8,2.6,6.4
	c1.6,0.7,4-0.6,7.2-1.2c3.8,2.1,4.1,4.4,0,8.2c-3.6,3.2-7.7,3.8-12,1.8c-4.3-1.9-6.1-5.3-6.1-9.9C363.8,401.6,366.3,400.3,372.1,403
	L372.1,403z M337,493.5L337,493.5L337,493.5z M355.3,478.3L355.3,478.3L355.3,478.3z M363.6,483.4L363.6,483.4L363.6,483.4
	L363.6,483.4L363.6,483.4z"/>
<path d="M377.3,506.3c2.2,2.7,4.3,5.3,6.5,8.1c4.9,6,10.5,10.1,18.5,11.4c4.7,0.7,9,3.7,13.7,4.8c6.3,1.6,12.7,2.6,19.2,3.1
	c6.9,0.6,13.8,0.6,20.7,0c6.6-0.6,13.2-1.7,19.7-3.3c3.9-0.9,7.3-3.8,11.1-4.1c11.7-1.2,18.8-8.8,25.3-17.2c0.6-1.1,1.7-1.8,2.9-2.1
	c-2.5,8.8-5.1,17.5-7.4,26.3c-3.9,14.9-8.1,29.6-10.9,44.7c-1.6,8.4-0.8,17.2-0.8,26c0,17.7-0.7,35.3-5.3,52.5
	c-3.4,12.7-8.9,24.4-22,29.7c-15.4,6.2-31.1,6.1-46.5-0.3c-8.4-3.5-13.7-10.4-17.4-18.4c-5.2-11.5-7.2-23.8-8.2-36.2
	c-0.9-12.4-1.3-24.9-1.1-37.4c0.3-17.7-3.1-34.7-8.6-51.4c-3.9-11.7-7.2-23.7-10.7-35.6L377.3,506.3z M445.8,588.2l-0.7-0.1
	c0-1.7,0-3.4,0-5.1c-0.4-11.6-1.6-13-13.2-15.2c-9.1-1.7-16.1,1.7-18.8,10.5c-2.2,7.1-3.5,14.4-3.9,21.8c-0.6,11.6,4.4,19,15.8,20.3
	c13.8,1.5,27.9,1.5,41.7,0c10.6-1.2,15.8-7.7,15.6-18.2c-0.2-8.6-2.1-17.4-4.9-25.8c-2.4-7.4-9.3-10.2-17.3-8.7
	c-2.6,0.5-5,1.4-7.5,2c-3.8,0.9-5.9,2.8-5.7,7.2C446.9,580.7,446.2,584.5,445.8,588.2L445.8,588.2z M498.2,529.3
	c-8.3-1.9-13.8,2.3-20.2,5.3c-15.5,7.3-32.2,10.7-49.3,5.3c-6.1-1.9-12.5-3.5-17.7-6.9c-3.9-2.8-8.6-4.3-13.4-4.5
	c-3.5-0.2-5.2,1.1-4.7,4.8c1.2,8.3,1.3,17.1,3.7,25c2.6,8.7,7.2,16.8,11,25.1l2.3-0.6c-0.9-12.8-1.7-25.6,2.7-37.9
	c2.7,2.5,4.7,5.6,7.2,6.2c1.7,0.5,4.4-2.8,6.7-4.4c9.4,8.9,11.5,9,19.1,0.6c3.4,1.7,3.7,8.5,9.4,5.8c3.3-1.7,6.5-3.5,9.6-5.5
	c2.9,1.5,5.6,3.9,7.5,3.5c2.6-0.7,4.6-3.7,8.1-6.7c0.7,13.2,1.6,25.7,2.3,38.9C494.7,567,498.8,549,498.2,529.3L498.2,529.3z
	 M463.8,667.7c-3.5-1.7-6.3-0.5-10,1.1c-4.7,1.9-10.8,0.9-16.3,0.4c-3.2-0.3-6.3-2.1-9.6-3.3c0.2-0.6,0.6-2.8,1.1-5
	c1.6-0.6,3.6-1.7,3.5-2.8c-0.3-3.1-0.6-6.9-2.4-9c-2.6-2.9-6.7-2.7-10.6-0.9l2.8,5.2c-10-4.6-13.1-13.5-16-22.7
	c-5.2,7.2-3.5,30.9,2.6,37.3c2.8,2.9,6.1,4.6,9.9,3.6c2.7,1.6,5.5,2.9,8.4,4c1,0.5,2,1,2.9,1.7c3.9,3.3,8,3,12.6,1.6
	c1.9-0.6,4-0.6,5.9,0.1c4.4,1.7,9.5,1.1,12.8-2.2c0.6-0.6,1.6-1.3,2.3-1.2c4.1,0.8,6.8-0.7,7.9-4.6c7.3,1.2,12.2-1.3,13.7-8.7
	c1.7-8.3,1.7-17.1,2.1-25.6c0.1-1.8-0.9-3.7-1.5-5.5h-1.2c-2.5,9.2-5.6,17.7-15.5,22.2l2.5-5c-7.1-2.1-12.2-0.4-13,4.7
	c-0.5,3.1-2.1,7.6,3.6,8.1C462.7,663.2,463.2,665.1,463.8,667.7z"/>
<path d="M495.6,384.2c17.7-19.3,37.3-35,62.9-41.4l1.6,1.4L540,375.3l0.4,1.2l22.2-6.4c0.2,0.6,0.5,1.2,0.6,1.7l-34,13.6
	c-0.4-0.5-0.6-0.9-1-1.5l10.6-17.4l-1.1-1.3c-4.4,3-9.4,5.5-13.1,9.3c-7.3,7.3-13.9,15.4-20.8,23.1c-3.1,3.5-5.9,7.3-9.3,10.5
	c-6.3,6.1-11.7,5.9-18.2-0.3c-0.8-0.8-1.7-1.7-2.6-2.4c-9.3,7.8-24.4,33.8-23.1,40.4c9.4-3.3,15-11.3,23.4-18.2l-14.3,20.2
	c4.4,1.5,4.4,1.5,16.8-5.4c-6.3,10.5-10.3,11.8-22,9.6c-5.7-1.1-11.6-1.2-17.3-0.1c-12.2,2.5-15.6,1.4-22.1-8.9l15.3,6.9l1.2-1.7
	l-13.7-19.7c6.1,5.3,11,9.7,16.1,14.1c1.3,1.2,2.8,2,4.5,2.5c0.8,0.2,2.1-1.4,2.9-2.3c0.3-0.3-0.2-1.3-0.5-1.9
	c-5.8-13-14.2-24.4-22.6-35.5c-1,0.3-1.4,0.4-1.7,0.6c-8.9,10.6-15.9,7.4-23.5-1.3c-7.6-8.7-14.6-17.6-22.2-26.1
	c-5-5.5-10.8-9.9-18.5-11.9c3.6,5.8,7.2,11.6,10.6,17.4c-9.8-0.6-28.4-8.1-36.9-14.8c7.5,2.3,15.5,4.6,23.4,6.9
	c0.4,0.1,0.9-0.3,1.7-0.5l-20.2-31.2l1.5-1.5c25.7,6.3,45.4,22.1,63.2,41.4l-14.9-3.6c7.2,8.4,13.9,14.9,22.7,19
	c6.6,3.1,9.9,0.6,9.5-6.8c-0.5-9.2-4.8-16.9-9.6-24.3c-3.1-4.8-6.3-9.5-8.6-15.1c9.1,8,18.5,15.6,27,24.1c6.5,6.5,6.1,10.1,1.7,18.1
	c-0.6,1.3-0.7,2.8-0.3,4.1c3.8,6.4,7.8,12.7,11.9,18.8c0.9,1.3,3,1.8,4.6,2.7c0.7-1.5,1.9-2.9,2.1-4.4c1.2-10.1,2.3-20.3,3.5-31.6
	c0.8,9.6,1.4,18.2,2.4,26.7c0.4,3.2,2.1,6.2,3.2,9.4c2.3-2,5.1-3.8,6.9-6.2c3.4-4.9,6.5-9.8,9.3-15c0.6-1.5,0.6-3.1-0.2-4.5
	c-4.1-6.9-4.3-11.3,1.2-17.3c5-5.5,10.7-10.3,16.3-15.1c3.9-3.5,8.2-6.6,12.6-9.5c-3.3,5-6.7,9.9-9.9,14.9
	c-4.9,7.6-9.4,15.5-9.6,24.9c-0.2,7.2,2.9,9.3,9.4,6.4c8.8-3.9,15.5-10.6,21.3-18.8L495.6,384.2z"/>
<path d="M396.3,331.2c12.3,7.6,24.7,15,36.8,22.8c2.8,1.7,4.9,2.9,7.8,0.7c2.9-2.2,6.3-2.7,9.4-0.1c2.8,2.3,5,1.2,7.8-0.6
	c11.7-7.6,23.7-14.8,35.6-22.1l0.8,1.3c-4.8,3.4-9.7,6.5-14.3,10.2c-7.4,6-14.9,11.9-21.5,18.6c-4,4.1-6.7,3.7-10.1,0.1
	c-0.8-0.8-1.7-1.5-2.7-2.2c-8.7,6-8.3,5.7-16.9-1.7c-10.7-9.2-21.9-17.7-32.9-26.5L396.3,331.2z"/>
<path d="M363.6,483.4L363.6,483.4L363.6,483.4L363.6,483.4L363.6,483.4z"/>
<path d="M337,493.5L337,493.5L337,493.5z"/>
<path d="M337,493.5L337,493.5L337,493.5L337,493.5z"/>
<path d="M355.3,478.3L355.3,478.3L355.3,478.3z"/>
<path d="M360.6,478c0.4,1.8,0.8,3.7,1.2,5.7c-0.5-1.8-0.9-3.7-1.4-5.6L360.6,478z"/>
<path d="M363.6,483.4L363.6,483.4L363.6,483.4L363.6,483.4L363.6,483.4z"/>
<path d="M654.2,459l0.3-1.3l19.1-8.2l-20.4-4.5c0-0.5,0-0.8,0-1.3l17.5-6.4l-17.9-6.1c0-0.5,0.1-0.9,0.1-1.3l18.1-4.5l-24.5-3.6
	c0-0.5-0.1-0.9-0.1-1.4c7.7-3.9,15.4-7.9,24-12.3c-25-9.7-50.3-11.9-75.4-15c0-0.5,0-0.9,0.1-1.5l31.5-5.7c0-0.5,0-0.9,0-1.4
	l-52.8-3.7l4.8-5.1c-18.8,7.2-37.4,14.3-56,21.6c-4.4,1.7-8.4,4-12.1,6.9c-7.5,6.1-14.5,12.9-24.5,15c0.6,7.2,3.9,12,10.7,16.6
	c1.8-2.4,3.9-4.8,5.7-7.3c2.1-3.1,4.4-2.8,8-2c4.3,1.1,8.8,1.1,13.1,0c11.6-3.4,16.3-12,16.5-28c9.2,1,17.8-0.2,24.3-8.3l1.2,1
	c0.3,2.9,0.6,5.9,1,9.9l52,10.6c-0.1,0.6-0.2,1.2-0.3,1.8h-46.2l52,22.9c-0.2,0.6-0.4,1.1-0.6,1.7L559,423.1
	c-0.3,0.6-0.6,1.1-0.8,1.7l49.6,31.6l-0.4,1.4c-8.5-2.6-17.2-4.5-25.4-7.9c-9.7-4-18.8-9.5-28.2-14.2c-10.9-5.5-13.3-5.1-22,3.3
	c-6.2,6.1-13.8,8.4-22.1,8.9c-2.3,0.1-4.6,0-6.1,0l0.9,3.4l0,0c0.3,2.7,1.9,7.9,3.1,13.3c1.5,6.4,2.1,13.1,1.8,19.7
	c-0.3,5-1.2,9.9-2.8,14.7l23.6-26.2l-4.5,28.3c-1.8,6.3-4.7,16.6-6.3,23c-1.1,4-2.4,8-3.9,11.9c-1.5,3.9-3.1,7.9-6.1,15
	c-3.5,8.3-5.6,17.1-6.3,26c-2,24.1-2.9,48.3-4.4,72.5c-1,16.8-5.9,32.3-16.7,45.5c-2.6,3.1-4.8,6.4-7.2,9.6l1,1.1
	c2.3-1.4,5-2.3,6.9-4.1c5.5-6,11.4-11.7,15.8-18.4c12.4-19.1,20.5-40.3,25.3-62.2c3.8-17.3,12.2-29,27.5-37.3
	c9-5,16.7-12.1,24.9-18.2l-0.7-1l-26.1,9.4c5.1-7.8,9.6-14.1,13.6-20.8c4-7,3.1-11.7-3.2-16.9c-5-4.1-10.5-7.9-15.9-11.6
	c-1-0.6-2-0.9-3.1-1.3c0.5-0.6,1-1.1,1.5-1.6c12.1,2.5,23.6,6.4,32.8,15.1c2.6,2.4,4.7,2.6,7.7,0.6c4.7-2.8,9.9-5,14.7-7.8
	c16.3-9.4,32.7-18.6,48.6-28.7c8.2-5.2,14.9-12.6,19.3-21.2l-10.9-6l17.2-9L654.2,459z M526,410.2c-1.2,3.4-3.6,6.3-6.7,8.3
	c-3.8,2.1-8.1,0.9-11.4-2.5c-3.7-3.8-3.5-5.3,0.5-8.1c2.8,0.8,5.2,2.3,6.7,1.7c1.3-0.6,1.7-3.4,2.5-5.2l-0.9-1.2
	c2.4-0.6,6.2-2.1,6.8-1.4C525.1,404.1,526.8,407.8,526,410.2L526,410.2z"/>
<path d="M266.7,662.6c-8.5-6.9-16.2-16-24.2-24.7c-1.6-1.7-0.2-0.3-8.4-9.9c-15.7-18.5-16.2-18.7-18.1-22c-3.9-6.7-4.1-9.9-9.4-18.4
	c-1.3-2-2.5-4.1-3.6-6.2c-1.7-3.7-3.1-7.5-4.3-11.4c-0.5-1.6-0.9-3.2-1.6-4.7c-0.9-2.1-2.7-5.7-3.1-5.5c-0.8,0.3,1.3,10.1,5,19.7
	c1.7,4.5,2.1,4.7,7.4,15.8c7.5,15.8,7.3,16.8,10.7,21.7c1.4,2,4.5,5.7,10.5,12.9c4.2,5,6.8,8.1,10.2,11.7c6.5,7.2,7.4,7.2,14.1,14.1
	c0,0,18.2,18.9,26.6,22.7c0.6,0.4,1.3,0.5,1.9,0.3c0.5-0.2,1.2-0.1,1.3-1.1c0-0.8-0.5-1.6-1.1-2
	C275.9,672.2,271.6,666.5,266.7,662.6z"/>
<path d="M241.4,230.6c0.6,0.1,1.4-1.3,1.6-2.2c1.1-5.2,5-6.1,7.9-8.5c6.6-5.6,12.5-12.9,19.4-17.7c16.4-11.3,32.9-22.5,51.8-27.3
	c4.1-1.1,7.3-6.4,12.7-2.2c1.1,0.8,2.9-1.3,2.6-3.4c-0.5-2-0.4-4,0.2-6c3.2-0.6,6.5-1,9.7-1.5c-3.1,0.1-6.2,0.3-9.3,0.5
	c1.1-2,3-3.2,5.5-4c-2.3-2.2-3.9-1.9-5.3-0.9c-3.5,2.3-7.1,4.2-10.8,5.9c-3.9,0.5-7.9,1.1-11.7,2c-0.4,0-0.6,0-1-0.1
	c-1-0.1-1.9,0.3-2.6,1c-3.8,1-7.3,2.4-10.8,3.9c-3.5,0-6.4,1-8.1,4.4c-1.7,1-3.3,2.2-4.9,3.5c1.5-0.7,2.8-1.4,4.3-2.1
	c-0.3,0.7-0.5,1.6-0.6,2.4c-0.4,3.5-2.8,6.3-6.2,7.2c-2.8,0.7-4.5,2.8-6.8,3.9c-4.6,2.4-8.6,6.2-13.4,7.9
	c-8.1,2.8-15.2,7.7-20.7,14.1c-2.3,2.6-6.1,2.6-7.1,6.5c-1.8,8.2-6.9,12.5-11.4,17.4c-1.3,1.5-2.1,3.3-2.1,5.2
	C230.7,238.8,234,229.8,241.4,230.6z"/>
<path d="M560.6,713.7c0.5,1.4,1.6,0.6,2.3,0.5c10.5-2.8,20.2-7.3,29.7-12.4c5.4-2.8,10.2-6.8,15.2-10.3c10.1-6.8,19.1-14.7,28.5-24
	c-1.7,0.5-2.5,0.5-2.9,0.8c-7.4,5-13.8,11.6-21.4,16.4c-2,1.3-4.3,2.3-6.1,3.9c-12.4,11.7-27.6,18.2-43.5,23.4
	C561.7,712.3,560.1,711.8,560.6,713.7z"/>
<path d="M446.2,136.2c-6.4,1.9-12.9,3.6-20.3,5.6c3.9-0.5,7.3,1.3,9.9-0.4c4.1-2.6,5.1-0.6,5.8,2.9c0.2,0.9,0.1,2.4,1.7,1.9
	c3.4-1,7.2-1.4,9.6-4.3c0.6-0.6,1.5-0.9,1-2.2C453.2,137.3,448.8,135.4,446.2,136.2z"/>
<path d="M342.1,713.2c7.3,3.9,14.5,8,22.7,10.5c-4.7-1.9-9-4.2-13.4-6.4C348.4,715.8,345.7,713.7,342.1,713.2z"/>
<path d="M328.3,705.5c-3.9-2.4-8.3-4.2-12.7-6.2C319.7,701.4,323.4,704.1,328.3,705.5z"/>
<path d="M362,725.1c4.4,1.2,9,2.9,13.2,3.6c-5.9-2.2-11.7-3.9-17.6-6.1c-10.1-3.6-19.9-7.7-29.4-12.6c-5.5-2.8-10.4-5.7-15.5-8.6
	c-5.1-2.9-9.6-5.7-14-8.7c-2.4-1.7-4.3-3.4-7.7-3.4c-0.6,0-1.7-0.5-1.7,0c0,0.5,0.7,0.7,1.4,1.2c4.3,2.8,8.2,5.8,13.8,7.9
	c0.9,0.4,1.7,0.8,2.5,1.5c5.2,3.8,11.6,6.9,17.8,10.1c5.6,2.8,11.3,5.8,17.1,8.1C348.5,720.8,355.2,723.1,362,725.1z"/>
<path d="M372.6,707.4c3.9,1.5,7.5,3.3,11.8,2.9C380.8,707.9,376.4,709,372.6,707.4z"/>
<path d="M378.8,702.6c-0.2,0.3-0.2,0.6-0.1,0.9c0.4,0.8,1.1,1.4,2,1.5c0.7,0,1.3-0.8,2-0.6l0.5,0.9c0.1-0.4,0.5-0.9,0.4-1.2
	c-0.5-1-1.7-1.2-2.6-1.4C380.4,702.6,379.5,701.6,378.8,702.6z"/>
<path d="M612.7,202.6c-0.8,1.1-11.7-8.7-35.7-22.6c-12.7-7.3-23.3-13.5-38.6-19.3c-9.2-3.4-19.7-6.3-40.8-12.1
	c-15.3-4.2-24.7-6.4-24.5-7.2c0.2-1.1,15.9,1,16.9,1.2c14.8,2,29.3,5.4,43.6,10c19.3,6.1,28.9,9.3,40.3,15.8
	C598,182.1,613.8,201.3,612.7,202.6z"/>
<path d="M653.1,622.4c-0.6,0.5-1.1,0.9-1.7,1.3c-4.1,3-5,9.4-11.1,10.5c-0.7,0.2-0.3,1.1,0.4,1.6c1.5,1.1,0.6,1.8-0.6,2
	c-2.4,0.3-3.9,2-5.4,3.3c-7.2,6.1-11.3,15.1-19.2,20.7c-0.7,0.5-1,2.8-0.6,3.4c1,1.2,2.7,0.6,3.9-0.2c5.1-3.2,9.4-7.2,10.9-13.3
	c0.5-2,1-3.6,3.5-4.1c7.6-1.6,10.6-8.9,16-13.2c2.3-1.8,3.6-4.9,5-7.5C655.3,625.5,655.3,623.6,653.1,622.4z"/>
<path d="M620.6,633.4c-4.3,3.6-7.8,7.9-11.8,11.3c8.4-4.1,16.4-8.7,23.2-17.1c2.4-1.4,3-3.9,2.2-7.2c-3.3,0.9-1.4,5.1-2.9,7.2
	c-2,0.6-3.9,1.5-5.7,2.5c-0.1-0.8-6.1,3.3-5.1,3.3"/>
<path d="M609.7,653.7c-3.9,3.2-7.1,7.2-10.7,10.2c7.6-3.7,14.9-7.9,21-15.5c2.1-1.2,2.8-3.5,2-6.5c-2.9,0.9-1.3,4.7-2.7,6.5
	c-1.8,0.6-3.6,1.3-5.2,2.3c-0.1-0.7-4.1,4.4-4.5,3.2"/>
<path d="M424.5,153.2c-5-3.4-10.6,4-24.3,5.8c-3.2,0.5-3.7,0.1-18.6,1.3l-3.2,0.3c-5.3,3.5-11.6,7.9-10.9,9c0.6,1.1,6.4-1.2,8.3-1.9
	c8.6-3.1,23.6-7.2,51.2-11.6C426.5,155,425.6,153.9,424.5,153.2z"/>
<path d="M387.8,148.9L387.8,148.9c2.8-0.2,5.4-0.6,8.1-1.4c1.4-0.4,2.7-0.9,3.9-1.5c-1-0.2-2-0.2-3,0.1c-3.2,0.8-6.4,1.5-9.7,1.8
	l0.4,0.5L387.8,148.9z"/>
<path d="M394.7,153l-0.9,0.6c5.5-0.3,11-0.9,16.4-1.9c0.5-0.1,8.6-1.7,8.5-2.2c0-0.3-1.2-0.3-1.9-0.3c-1.3-0.1-2.7,0.1-3.9,0.4
	c-2.1,0.5-9,1.4-19.8,2.6"/>
<path d="M205.2,289.1c-0.7,1.7-1.3,3.6-2.1,5.2c-9.9,20.2-15.8,41.8-15.5,65.7c-0.1,3.1-0.4,6.1-0.8,9.2c-0.2,1.9-0.6,3.8-1.1,5.7
	c-2.3-31.6,2.1-61.1,18.4-86.6L205.2,289.1z"/>
<path d="M203,312.1c-1.7,5.6-3.8,11.1-5,16.9c-0.7,3.4-0.4,7.2-0.6,11.4c-4.6-13.7,1.8-32.3,11.3-44.4c-1.1,4-2.3,8.1-3.4,12.1
	L203,312.1z"/>
<path d="M622.7,203.2c3.5,3.7,7,7.4,11.1,10.5c4.6,3.3,9.3,6.3,14,9.6c-4.9-5-8.5-11.1-14.9-14.9c-3.1-1.8-6.8-3.2-9-6.4
	c-0.5-0.6-0.3-2.3-1.7-1.4C620.8,201.5,622,202.5,622.7,203.2z"/>
<path d="M597.3,207.8c7.5,4.8,15.4,8.9,23.7,12.4C613.5,215.8,608.2,208,597.3,207.8z"/>
<path d="M652.5,255.3c-0.5-1.8-2.6-2.8-5.2-2.7c0.9,1.1,1.7,2.3,2.5,3.5C651.3,258.4,653,257,652.5,255.3z"/>
<path d="M573.4,205.7c-2.5-1.5-3.9-3.1-6.1-2.6c-0.2,0.1-0.4,0.7-0.3,1C568.2,206.3,570.3,206.2,573.4,205.7z"/>
<path d="M673.5,629.6l20.1-21.9c0.2-2.2,1-4.3,2.3-6.1l2.2,1.2l1.3-1.4l7.6-23.1l-1.3-0.6c1.7-3.7,3.1-6.9,4.7-10.1l14.9-45.4l0,0
	l4.5-13.8l0,0c2.8-15.2,5.7-29.1,7.8-43.1c2.4-16.1,1.2-31.4,1.5-47.6c0-10.9-0.6-21.9-2-32.7c-5.5-46.7-28.3-86.5-49.1-127.2
	c-0.6-1.3-3.9-1.4-7.9-2.7c3.1,7.1,5.6,12.1,7.6,17.2c9.6,24.7,26,48.1,32.9,73.6c5.4,19.4,8.9,39.3,10.3,59.5c0.9,14.4-2,33,0,47.1
	c4.7,33.3-9,63.5-20.2,94.3c-9.3,25.6-18.4,51.5-37,72.5C672,621.5,671.9,628.3,673.5,629.6L673.5,629.6z"/>
<g class="st1">
	<path d="M155.2,387.8l-44.7-9.5l-3.3,15.6l-11.6-2.5l11.3-52.5l6.7,25.9l-0.5,1.9l68,14.6L155.2,387.8z"/>
</g>
<g class="st1">
	<path d="M116.4,309.2l5.1-10.7l17.9,8.6l11.2-23.3L106,262.3l26.6-0.5l51.9,24.9l-5.1,10.7l-17.9-8.6l-11.2,23.3l23.2,11.2l16.3,21
		L116.4,309.2z"/>
</g>
<g class="st1">
	<path d="M196.2,267l-39.8-32.7l33.9-41.4l-5.9,26l-11.4,13.8l6.1,5l26.4-32.2l-5.9,26l-11.4,13.8l6.1,5l11.4-13.8l24.3-10.8
		L196.2,267z"/>
</g>
<g class="st1">
	<path d="M255,137.5l11.6-5.7l30,22.9v-4.4l-0.9-1.7l-24.8-18.9l11.6-5.7l14.1,10.8l0.5-51.1l11.4,23.2l-0.3,35.6l0.9,1.7l3.5,2.7
		l0.4-37.8l11.6-5.7l-0.6,66.7l-15.9-12.1l-0.2,20L255,137.5z"/>
</g>
<g class="st1">
	<path d="M364.9,145l-9.3-50.7l50.7-9.3l9.3,50.7L364.9,145z M401.8,126.2l-5-27.3l-27.3,5l5,27.3L401.8,126.2z"/>
</g>
<g class="st1">
	<path d="M438.7,133.8l3.5-57.4l13.3-23l-4.2,69.3l17.9,1.1l23,13.3L438.7,133.8z"/>
</g>
<g class="st1">
	<path d="M526.4,91.2l50.8,16l-26.1,4.2l-17-5.3l-2.4,7.5l39.6,12.5l-26.1,4.2l-17-5.3l-7.8,24.4L502,168.5L526.4,91.2z"/>
</g>
<g class="st1">
	<path d="M616.4,191.8l29.3-34.9l9.1,7.6l-5.1,6.1l21.3,17.9l5.1-6.1l-13.7-11.5l-10.5-24.4l41,34.5l-20.4,24.3l-30.4-25.6l-31.9,38
		L616.4,191.8z"/>
</g>
<g class="st1">
	<path d="M710.2,234l-32.7,6l-7.7-10.3l61.1-11.1L701.1,278l-20.6,15.5L710.2,234z"/>
</g>
<g class="st1">
	<path d="M715.1,293.5l47.5-20.2l20.2,47.5l-20.3-17.3l-6.2-14.7l-25.6,10.9l7,16.4l-1.7,26.6L715.1,293.5z"/>
</g>
<g class="st1">
	<path d="M735.8,362l56.9-9.2l1.9,11.7l-23.6,3.9l27.3,19.8l2.6,15.7l-27.4-19.8l0,0l-1.2-0.8l-22.2,30.8l-2.6-15.7l21.4-29.7
		l-55,8.9L735.8,362z"/>
</g>
</svg>
