<?xml version="1.0" encoding="utf-8"?>
<!-- Generator: Adobe Illustrator 24.0.1, SVG Export Plug-In . SVG Version: 6.00 Build 0)  -->
<svg version="1.1" id="Layer_1" xmlns="http://www.w3.org/2000/svg" xmlns:xlink="http://www.w3.org/1999/xlink" x="0px" y="0px"
	 viewBox="0 0 898.5 831.3" style="enable-background:new 0 0 898.5 831.3;" xml:space="preserve">
<style type="text/css">
	.st0{enable-background:new    ;}
</style>
<title>The-Wolf-Pack_</title>
<g class="st0">
	<path d="M97.4,542.1l18.7-4.7l1.2,4.9l-3.2,0.8l2.8,11.4l3.2-0.8l-1.8-7.3l2.5-11l5.5,22l-13,3.2l-1.8-7.3l-6.1,10.2l-1.6-6.5
		l6.1-10.2l-0.6-2.4l-20.3,5.1L97.4,542.1z"/>
</g>
<g class="st0">
	<path d="M110,579l20.4-7.6l7.9,21.2l-8.2-7.7l-2.6-7.1l-3.1,1.2l6.1,16.5l-8.2-7.7l-2.6-7.1l-3.2,1.2l2.6,7.1l-1.2,11.2L110,579z"
		/>
</g>
<g class="st0">
	<path d="M123.5,613.5l9,6.7l3.4,6.7l3-1.5l-7.5-15l12-6l9.8,19.5l-9-6.7l-3-6l-3,1.5l7.5,15l-12,6L123.5,613.5z"/>
</g>
<g class="st0">
	<path d="M140,650.1l16.2-10.4l2.7,4.2l-2.8,1.8l6.3,9.9l2.8-1.8l-4.1-6.3l-1.2-11.2l12.2,19l-11.3,7.2l-9.1-14.1l-17.6,11.3
		L140,650.1z"/>
</g>
<g class="st0">
	<path d="M163.9,680.8l16.8-13.7l14.3,17.4l-10.2-4.6l-4.8-5.8l-2.6,2.1l11.1,13.6l-10.2-4.6l-4.8-5.8l-2.6,2.1l4.8,5.8l2.5,10.9
		L163.9,680.8z"/>
</g>
<g class="st0">
	<path d="M188.5,709.6l15.3-15.5l15.5,15.3l-10.7-3.5l-4.8-4.7l-8.2,8.3l5.4,5.3l3.6,10.6L188.5,709.6z"/>
</g>
<g class="st0">
	<path d="M219.7,741.8l11.9-15l-5.2-4.2l3.1-3.9l17.7,14l-11-2.3l-0.7-0.5l-18.2,22.9L219.7,741.8z"/>
</g>
<g class="st0">
	<path d="M333.1,803.9l5.3-18.5l4.8,1.4l-0.9,3.2l11.3,3.2l0.9-3.2l-7.2-2.1l-8.3-7.6l21.7,6.3l-3.7,12.9l-7.2-2.1l5.7,10.4
		l-6.4-1.9l-5.7-10.4l-2.4-0.7l-5.8,20.1L333.1,803.9z"/>
</g>
<g class="st0">
	<path d="M371.4,811.5l3.7-21.5l22.3,3.8l-10.8,3.3l-7.4-1.3l-0.6,3.3l17.4,3l-10.8,3.3l-7.4-1.3l-0.6,3.3l7.4,1.3l9.1,6.7
		L371.4,811.5z"/>
</g>
<g class="st0">
	<path d="M408.7,819.6l1.2-19.3l5,0.3l-0.2,3.3l11.7,0.7l0.2-3.3l-7.5-0.5l-9.8-5.6l22.6,1.4l-0.8,13.4l-16.8-1l-1.3,21L408.7,819.6
		z"/>
</g>
<g class="st0">
	<path d="M447.9,821.2l-0.9-19.3l5-0.2l0.2,3.3l11.7-0.6l-0.2-3.3l-7.5,0.4l-10.3-4.5l22.6-1.1l0.7,13.4l-7.5,0.4l8.8,8l-6.7,0.3
		l-8.8-8l-2.5,0.1l1,20.9L447.9,821.2z"/>
</g>
<g class="st0">
	<path d="M486.5,816l-3.4-21.5l22.3-3.6l-9.1,6.6l-7.5,1.2l0.5,3.3l17.4-2.8l-9.1,6.6l-7.5,1.2l0.5,3.3l7.5-1.2l10.7,3.4L486.5,816z
		"/>
</g>
<g class="st0">
	<path d="M523,809.5l8.4-7.5l7.3-2l-0.9-3.2l-16.2,4.4l-3.6-12.9l21-5.8l-8.4,7.5l-6.5,1.8l0.9,3.2l16.2-4.4l3.6,12.9L523,809.5z"/>
</g>
<g class="st0">
	<path d="M561.1,798.1l-8.1-20.3l21-8.4l-7.5,8.4l-7,2.8l1.2,3.1l16.4-6.5l-7.5,8.4l-7,2.8l1.2,3.1l7-2.8l11.2,1L561.1,798.1z"/>
</g>
<g class="st0">
	<path d="M597.2,785.6l-12.6-23.7l18.7-0.5l-2.8-5.2l4.4-2.4l10.2,19.2l-4.4,2.4l-4.5-8.5l-13.1,0.3l13.2,24.8L597.2,785.6z"/>
</g>
<g class="st0">
	<path d="M636.9,762.8l-10.8-16l-5.6,3.8l-2.8-4.2l18.8-12.7l-5.5,9.8l-0.7,0.5l16.4,24.4L636.9,762.8z"/>
</g>
<g class="st0">
	<path d="M730,673.2l-16-10.6l2.8-4.2l2.8,1.8l6.5-9.7l-2.8-1.8l-4.1,6.3l-9.7,5.6l12.4-18.8l11.1,7.4l-4.1,6.3l11.6-2.3l-3.7,5.6
		l-11.6,2.3l-1.4,2.1l17.4,11.5L730,673.2z"/>
</g>
<g class="st0">
	<path d="M748.7,638.9l-19.4-10l10-19.4l19.4,10L748.7,638.9z M751.9,621.7l-10.4-5.4l-5.4,10.4l10.4,5.4L751.9,621.7z"/>
</g>
<g class="st0">
	<path d="M757.8,589.2l9.6,10.3l-1.9,5.1l-18-19.2l28-3l10.2,3.8L757.8,589.2z"/>
</g>
<g class="st0">
	<path d="M781.6,566.8l-18.7-4.7l1.2-4.9l3.2,0.8l2.9-11.4l-3.2-0.8l-1.8,7.3l-7.3,8.5l5.5-21.9l13,3.3l-1.8,7.3l10.2-6.1l-1.6,6.5
		l-10.2,6.1l-0.6,2.4l20.3,5.1L781.6,566.8z"/>
</g>
<path d="M483,492.2c-2.7-9.5-8-13.7-17.2-13.2l0,0c-0.8-0.1-1.5-0.1-2.1-0.1c-2.4,0-4.7,0.3-7,1h-0.1c-1.4,0.2-2.9,0.5-4.3,0.9
	c-4.6,1.7-9,1-13.7,0c-5.1-1-10.3-1.6-15.5-1.8c-6.3-0.2-10.7,3.1-13.2,8.8c-6.5,14.6-2.4,31.8,10.1,41.8c8.1,6.6,17.4,8.8,27.7,8.7
	C470.3,538.2,490,516.8,483,492.2z M431.8,526c-3.9-0.1-6.4-1.5-7.2-5.3c-1.1-5.2-3.9-9-8-12.1c-3-2.3-2.8-4.2,0.4-6.2
	c0.9-0.5,1.9-0.5,2.8-0.1c6.4,5.2,11.7,11.3,15,18.9C436.2,524.3,434.9,526,431.8,526z M444.6,488.6L444.6,488.6L444.6,488.6z
	 M475.3,507.9c-0.8,0.7-1.6,1.4-2.5,2.1c-2.9,2.2-4.9,5.3-5.6,8.8c-1.1,5.1-3.6,7.1-7.9,7.1c-2.8,0-3.8-1.1-3.3-3.9
	c0.2-1.4,0.8-2.7,1.6-3.9c4.2-5.2,8.5-10.4,12.9-15.4c1.7-1.9,2.9-1.6,5,0.6C477.1,505.1,476.8,506.6,475.3,507.9L475.3,507.9z"/>
<path d="M231.6,242.5c7.2,1.4,14.4,2.4,21.5,4.2c24.7,6.3,49.5,12.2,73.8,19.4c16.9,5,32.7,3.4,49.4-0.9c21.9-5.6,44.2-9,66.4-13.3
	c2.5-0.5,5.1-0.1,7.6-0.1l0.9,1.6c-1.8,1.9-3.3,4.1-5.4,5.7c-10.3,8-22.3,11.4-34.9,13.9c-14.8,2.9-29.4,6.9-42.6,14.6
	c-8.4,4.8-15.6,11.5-20.9,19.5c-9.4,14.5-16.6,16.6-32.4,9.9c-0.9-0.4-1.7-0.8-2.6-1.1c-14.7-5.3-29.5-10.6-44.2-15.8
	c-1.4-0.4-2.6-1.2-3.4-2.3h62.9l0.3-1.9l-64.1-14.5l37.9-2.9l0.2-1.9c-5.7-0.8-11.4-2.3-17.1-2.4c-21.2-0.2-40.1-6.3-55.9-20.8
	c-0.2-0.2-0.7-0.1-2-0.3c0.7,2.9,1.1,5.6,2.1,8c4,9.5,8.2,19.1,12.5,28.5c5.1,11,9,22,5.8,34.4c-1.1,4.3,2.2,6.9,5.8,7.9
	c10,2.7,20.1,4.8,30.2,7.1c5.1,1.2,10.3,2.1,15.4,3.4c1.5,0.4,3.9,2,3.8,2.8c-0.2,1.5-1.5,3.7-2.9,4.2c-11.3,4.2-22.6,8.2-34,11.8
	c-4,1.3-8.5,1.1-14.5,1.8c10.3,8.3,19.5,15.7,30.8,20.9c-6.9,0-13.8,0.1-20.7,0s-14-0.9-20.9-0.4s-14.1,1.9-21.7,2.3
	c4-2.6,8.1-5.1,12-7.9c1.7-1.3,4-3.1,4.2-4.9c1.8-13.4,6.1-24.9,21.5-30.7c-6.7-2.2-11.8-3.9-16.8-5.6c-4.6-1.6-7-5-7.5-9.7
	c-2.2-22.8-8.1-44.8-14.9-66.6c-4-12.7-3.9-12.7,7.8-17.9L231.6,242.5z"/>
<path d="M664.8,242.5c0.1,0.1,0.3,0.3,0.4,0.4c10.3,2.7,11.8,3.9,7.6,16.8c-7,21.7-12.8,43.8-15,66.6c-0.6,6-4,9.5-9.6,11.3
	c-4.4,1.4-8.8,2.7-15,4.6c12.8,4.9,18.1,13.7,20.6,24.7c0.4,1.6,0.1,3.6,0.8,5c1.1,2.3,2.7,4.4,4.6,6.1c3.6,2.8,7.6,5.1,11.2,8.4
	c-21.1-6.1-42.4-0.8-62-2.4l29.3-19.3l-0.7-1.6c-4.4-0.5-8.9-0.4-13.1-1.7c-11-3.3-21.8-7-32.6-11c-1.9-0.7-3.1-3.4-4.6-5.1
	c1.8-1.1,3.6-2.9,5.6-3.3c10.7-2.3,21.5-4,32.2-6.3c4.4-1,8.7-2.4,12.9-4.1c3.4-1.4,5.7-4,4.6-8c-3.1-11.5,0.5-21.9,5.1-32.3
	c5-11.4,9.7-22.9,14.5-34.4c0.4-1.1,0.4-2.2,0.2-3.4c-19.2,22.4-47.8,26.4-72.8,38c13,5.5,26.5,4.5,38.8,6
	c-19.6,7.3-40,15-60.5,22.3c-7.4,2.6-14.3,1.3-19.5-4.9c-9.2-11-18.4-22-27.4-33.1c-3.9-4.8-2.7-7.9,3.3-9.3
	c3.6-0.9,7.5-0.8,11.2-1.3c8.2-1.2,16.4-2,24.4-3.9c29.8-7.3,59.5-15.1,89.3-22.6c3.4-0.9,7-1.3,10.5-2L664.8,242.5z"/>
<path d="M355.9,501.2L355.9,501.2L355.9,501.2L355.9,501.2z M352.7,495.3l0.4-0.1l-1-2.3C352.3,493.7,352.5,494.5,352.7,495.3
	L352.7,495.3z M326.9,512.2L326.9,512.2L326.9,512.2z"/>
<path d="M438.3,746.2c-11.3-1.6-21.6-5.2-30.2-13c-14.3-13-20-29.9-21.3-48.5c-1.5-22.2-2.4-44.5-3.7-66.7
	c-0.8-14.5-1.6-29.2-7.9-42.6c-8.5-18.3-13.1-37.7-17.4-57.2c-1.2-5.6-2.6-11.1-4-16.7c-0.5-2-1-4-1.5-6.1l0.3-0.1
	c-0.2-0.8-0.4-1.6-0.6-2.4l1,2.3c0.9,2.1,1.7,4.1,2.5,6.2l20,17.5l-2.8-14c-1.5-14.9,4.7-28.4,8.9-42.1c-11.3,0.4-22.3-1.1-31.1-9.8
	c-9.3-9.1-12.3-9.4-24-3.6c-1.7,0.8-3.3,1.9-5,2.6c-13.2,6-26.3,12.3-39.6,17.9c-4.4,1.8-9.5,1.8-14.3,2.6l-0.4-1.6
	c19.8-9.6,38.3-21.6,55.2-35.6l-72.2,17.2l-0.6-1.6l56.2-24.8l-0.2-1H256c18.8-6.9,39.2-6.8,56.8-13.9l1.4-10.6
	c5.2,3.3,9,6.9,13.5,8.1s9.5,0.3,14.5,0.3c-0.2,2.8-0.3,4.3-0.4,5.8c-0.5,15,13.4,29.4,27.6,25.6c10.2-2.7,14.2,2.2,19.6,7.6
	c0.5,0.3,1,0.6,1.5,0.9c5.9-4.2,9.4-9.7,10-15.4c-7.4-4.6-14.5-8.1-20.4-13.1c-7.1-6.2-15.2-11.1-24.1-14.5
	c-4.3-1.5-8.5-3.2-12.7-4.8l-44.1-17l5.3,5.6l-57.7,4.1l0.1,1.4l34.2,6.2l0.1,1.5c-27.3,3.6-55,5.7-82,16.5l26.4,13.5l-0.5,1.4
	l-26.6,3.9l19.7,4.9l-0.1,1.5l-19.4,6.6l19.2,7v1.4l-22.3,4.8l22.5,9.9l-20.2,6.9l18.9,9.9l-12,6.3c5.7,10.6,14.2,19.4,24.4,25.7
	c18.2,11.1,37.4,20.5,55.4,31.9c10.2,6.4,17.9,7.7,27.3-1.4c7.3-7,17.9-8.2,27.8-9.9c-4.5,3.9-9.3,7.1-13.9,10.6
	c-14.1,10.5-15,16.1-4.9,30.4c1.4,2,2.8,4,4.2,6c1.9,2.6,3.8,5.2,5.7,7.8l-1,1.1l-26.3-9.5c2.7,3.5,5.9,6.6,9.5,9.2
	c11.8,8.5,23.8,16.7,35.5,25.4c2.3,1.8,4,4.2,4.9,7c3.9,12.4,7,25.1,11.1,37.4c7.4,22.5,16.1,44.4,31.4,63c9.4,11.4,20.9,19,36,20.2
	c5.7,0.5,11.4,0.1,16.3-3.7C445,747.2,441.7,746.5,438.3,746.2z M365.2,413.5c1.1,3.1,1.4,6.3,2.8,7c1.7,0.8,4.4-0.6,7.8-1.3
	c4.1,2.3,4.5,4.8,0,8.9c-3.9,3.5-8.4,4.1-13.1,2s-6.7-5.8-6.7-10.8C356.2,412,358.9,410.6,365.2,413.5L365.2,413.5z M326.9,512.2
	L326.9,512.2L326.9,512.2z M346.9,495.6L346.9,495.6L346.9,495.6z M355.9,501.2L355.9,501.2L355.9,501.2L355.9,501.2L355.9,501.2z"
	/>
<path d="M370.9,526.2c2.4,2.9,4.7,5.8,7.1,8.8c5.3,6.5,11.5,11,20.2,12.4c5.1,0.8,9.8,4,14.9,5.2c6.9,1.7,13.9,2.8,20.9,3.4
	c7.5,0.6,15.1,0.6,22.6,0c7.2-0.7,14.4-1.9,21.5-3.6c4.2-1,8-4.1,12.1-4.5c12.8-1.3,20.5-9.6,27.6-18.8c0.7-1.2,1.9-2,3.2-2.3
	c-2.7,9.6-5.6,19.1-8.1,28.7c-4.2,16.2-8.8,32.3-11.9,48.7c-1.7,9.2-0.9,18.8-0.9,28.3c0,19.3-0.8,38.5-5.8,57.3
	c-3.7,13.9-9.7,26.6-24,32.4c-16.8,6.8-33.9,6.6-50.7-0.3c-9.2-3.8-14.9-11.3-19-20.1c-5.7-12.5-7.9-26-8.9-39.5s-1.4-27.2-1.2-40.8
	c0.3-19.3-3.4-37.8-9.4-56.1c-4.2-12.8-7.8-25.8-11.7-38.8L370.9,526.2z M445.6,615.5l-0.8-0.1c0-1.9,0-3.7,0-5.6
	c-0.4-12.7-1.7-14.2-14.4-16.6c-9.9-1.9-17.6,1.8-20.5,11.5c-2.4,7.7-3.8,15.7-4.3,23.8c-0.6,12.6,4.8,20.7,17.2,22.1
	c15.1,1.6,30.4,1.6,45.5,0c11.6-1.3,17.2-8.4,17-19.9c-0.2-9.4-2.3-19-5.3-28.1c-2.6-8.1-10.1-11.1-18.9-9.5
	c-2.8,0.5-5.4,1.5-8.2,2.2c-4.1,1-6.4,3.1-6.2,7.9C446.8,607.3,446,611.4,445.6,615.5L445.6,615.5z M502.7,551.2
	c-9-2.1-15,2.5-22,5.8c-16.9,8-35.1,11.7-53.8,5.8c-6.6-2.1-13.6-3.8-19.3-7.5c-4.3-3-9.4-4.7-14.6-4.9c-3.8-0.2-5.7,1.2-5.1,5.2
	c1.3,9.1,1.4,18.6,4,27.3c2.8,9.5,7.9,18.3,12,27.4l2.5-0.6c-1-14-1.8-27.9,2.9-41.3c2.9,2.7,5.1,6.1,7.9,6.8c1.9,0.5,4.8-3,7.3-4.8
	c10.2,9.7,12.5,9.8,20.8,0.6c3.7,1.8,4,9.3,10.3,6.3c3.6-1.8,7.1-3.8,10.5-6c3.2,1.6,6.1,4.3,8.2,3.8c2.8-0.8,5-4,8.8-7.3
	c0.8,14.4,1.7,28,2.5,42.4C498.9,592.3,503.4,572.7,502.7,551.2L502.7,551.2z M465.2,702.2c-3.8-1.8-6.9-0.5-10.9,1.2
	c-5.1,2.1-11.8,1-17.8,0.4c-3.5-0.3-6.9-2.3-10.5-3.6c0.2-0.7,0.7-3.1,1.2-5.4c1.7-0.6,3.9-1.9,3.8-3c-0.3-3.4-0.6-7.5-2.6-9.8
	c-2.8-3.2-7.3-2.9-11.6-1l3.1,5.7c-10.9-5-14.3-14.7-17.4-24.8c-5.7,7.9-3.8,33.7,2.8,40.7c3,3.2,6.6,5,10.8,3.9
	c2.9,1.7,6,3.2,9.2,4.4c1.1,0.5,2.2,1.1,3.2,1.8c4.2,3.6,8.7,3.3,13.7,1.7c2.1-0.7,4.4-0.6,6.4,0.1c4.8,1.9,10.4,1.2,14-2.4
	c0.6-0.6,1.7-1.4,2.5-1.3c4.5,0.9,7.4-0.8,8.6-5c8,1.3,13.3-1.4,14.9-9.5c1.8-9.1,1.8-18.6,2.3-27.9c0.1-2-1-4-1.6-6H488
	c-2.7,10-6.1,19.3-16.9,24.2l2.7-5.5c-7.7-2.3-13.3-0.4-14.2,5.1c-0.5,3.4-2.3,8.3,3.9,8.8C464,697.2,464.5,699.3,465.2,702.2z"/>
<path d="M499.9,393c19.3-21,40.7-38.2,68.6-45.1l1.7,1.5l-21.9,33.9l0.4,1.3l24.2-7c0.2,0.6,0.5,1.3,0.7,1.9l-37.1,14.8
	c-0.4-0.5-0.7-1-1.1-1.6l11.6-19l-1.2-1.4c-4.8,3.3-10.3,6-14.3,10.1c-8,8-15.2,16.8-22.7,25.2c-3.4,3.8-6.4,8-10.1,11.5
	c-6.9,6.6-12.8,6.4-19.8-0.3c-0.9-0.9-1.9-1.8-2.8-2.6c-10.1,8.5-26.6,36.9-25.2,44.1c10.3-3.6,16.4-12.3,25.5-19.8l-15.6,22
	c4.8,1.6,4.8,1.6,18.3-5.9c-6.9,11.5-11.2,12.9-24,10.5c-6.2-1.2-12.6-1.3-18.9-0.1c-13.3,2.7-17,1.5-24.1-9.7l16.7,7.5l1.3-1.9
	l-14.9-21.5c6.6,5.8,12,10.6,17.6,15.4c1.4,1.3,3,2.2,4.9,2.7c0.9,0.2,2.3-1.5,3.2-2.5c0.3-0.3-0.2-1.4-0.5-2.1
	c-6.3-14.2-15.5-26.6-24.6-38.7c-1.1,0.3-1.5,0.4-1.8,0.6c-9.7,11.6-17.3,8.1-25.6-1.4s-15.9-19.2-24.2-28.5
	c-5.4-6-11.8-10.8-20.2-13c3.9,6.3,7.8,12.6,11.6,19c-10.7-0.6-31-8.8-40.2-16.1c8.2,2.5,16.9,5,25.5,7.5c0.4,0.1,1-0.3,1.9-0.5
	l-22-34l1.6-1.6c28,6.9,49.5,24.1,68.9,45.1l-16.3-3.9c7.8,9.2,15.2,16.3,24.8,20.7c7.2,3.4,10.8,0.6,10.4-7.4
	c-0.5-10-5.2-18.4-10.5-26.5c-3.4-5.2-6.9-10.4-9.4-16.5c9.9,8.7,20.2,17,29.4,26.3c7.1,7.1,6.7,11,1.8,19.7c-0.7,1.4-0.8,3-0.3,4.5
	c4.1,7,8.5,13.9,13,20.5c1,1.4,3.3,2,5,2.9c0.8-1.6,2.1-3.2,2.3-4.8c1.3-11,2.5-22.1,3.8-34.5c0.9,10.5,1.5,19.8,2.6,29.1
	c0.4,3.5,2.3,6.8,3.5,10.2c2.5-2.2,5.6-4.1,7.5-6.8c3.7-5.3,7.1-10.7,10.1-16.4c0.7-1.6,0.6-3.4-0.2-4.9c-4.5-7.5-4.7-12.3,1.3-18.9
	c5.5-6,11.7-11.2,17.8-16.5c4.3-3.8,8.9-7.2,13.7-10.4c-3.6,5.4-7.3,10.8-10.8,16.3c-5.3,8.3-10.2,16.9-10.5,27.1
	c-0.2,7.8,3.2,10.1,10.2,7c9.6-4.3,16.9-11.6,23.2-20.5L499.9,393z"/>
<path d="M391.6,335.2c13.4,8.3,26.9,16.4,40.1,24.9c3,1.9,5.3,3.2,8.5,0.8s6.9-2.9,10.3-0.1c3.1,2.5,5.5,1.3,8.5-0.7
	c12.8-8.3,25.8-16.1,38.8-24.1l0.9,1.4c-5.2,3.7-10.6,7.1-15.6,11.1c-8.1,6.5-16.3,13-23.5,20.3c-4.4,4.5-7.3,4-11,0.1
	c-0.9-0.9-1.9-1.6-2.9-2.4c-9.5,6.5-9.1,6.2-18.4-1.8c-11.7-10-23.9-19.3-35.9-28.9L391.6,335.2z"/>
<path d="M355.9,501.2L355.9,501.2L355.9,501.2L355.9,501.2L355.9,501.2z"/>
<path d="M326.9,512.2L326.9,512.2L326.9,512.2z"/>
<path d="M326.9,512.2L326.9,512.2L326.9,512.2L326.9,512.2z"/>
<path d="M346.9,495.6L346.9,495.6L346.9,495.6z"/>
<path d="M352.7,495.3c0.4,2,0.9,4,1.3,6.2c-0.5-2-1-4-1.5-6.1L352.7,495.3z"/>
<path d="M355.9,501.2L355.9,501.2L355.9,501.2L355.9,501.2L355.9,501.2z"/>
<path d="M672.8,474.6l0.3-1.4l20.8-8.9l-22.3-4.9c0-0.5,0-0.9,0-1.4l19.1-7l-19.5-6.7c0-0.5,0.1-1,0.1-1.4l19.7-4.9l-26.7-3.9
	c0-0.5-0.1-1-0.1-1.5c8.4-4.3,16.8-8.6,26.2-13.4c-27.3-10.6-54.9-13-82.2-16.4c0-0.5,0-1,0.1-1.6l34.3-6.2c0-0.5,0-1,0-1.5l-57.6-4
	l5.2-5.6c-20.5,7.9-40.8,15.6-61.1,23.6c-4.8,1.8-9.2,4.4-13.2,7.5c-8.2,6.7-15.8,14.1-26.7,16.4c0.6,7.8,4.2,13.1,11.7,18.1
	c2-2.6,4.3-5.2,6.2-8c2.3-3.4,4.8-3.1,8.7-2.2c4.7,1.2,9.6,1.2,14.3,0c12.6-3.7,17.8-13.1,18-30.5c10,1.1,19.4-0.2,26.5-9l1.3,1.1
	c0.3,3.2,0.6,6.4,1.1,10.8l56.7,11.6c-0.1,0.7-0.2,1.3-0.3,2h-50.4l56.7,25c-0.2,0.6-0.4,1.2-0.6,1.8l-70.1-16.7
	c-0.3,0.6-0.6,1.2-0.9,1.8l54.1,34.5l-0.4,1.5c-9.3-2.8-18.8-4.9-27.7-8.6c-10.6-4.4-20.5-10.4-30.8-15.5c-11.9-6-14.5-5.6-24,3.6
	c-6.8,6.6-15,9.2-24.1,9.7c-2.5,0.1-5,0-6.6,0l1,3.7l0,0c0.3,2.9,2.1,8.6,3.4,14.5c1.6,7,2.3,14.3,2,21.5c-0.3,5.4-1.3,10.8-3,16
	l25.7-28.6l-4.9,30.9c-2,6.9-5.1,18.1-6.9,25.1c-1.2,4.4-2.6,8.7-4.3,13c-1.6,4.3-3.4,8.6-6.7,16.4c-3.8,9-6.1,18.6-6.9,28.4
	c-2.2,26.3-3.2,52.7-4.8,79.1c-1.1,18.3-6.4,35.2-18.2,49.6c-2.8,3.4-5.2,7-7.8,10.5l1.1,1.2c2.5-1.5,5.5-2.5,7.5-4.5
	c6-6.5,12.4-12.8,17.2-20.1c13.5-20.8,22.4-43.9,27.6-67.8c4.1-18.9,13.3-31.6,30-40.7c9.8-5.4,18.2-13.2,27.2-19.9l-0.8-1.1
	l-28.5,10.2c5.6-8.5,10.5-15.4,14.8-22.7c4.4-7.6,3.4-12.8-3.5-18.4c-5.5-4.5-11.5-8.6-17.3-12.7c-1.1-0.6-2.2-1-3.4-1.4
	c0.5-0.6,1.1-1.2,1.6-1.7c13.2,2.7,25.7,7,35.8,16.5c2.8,2.6,5.1,2.8,8.4,0.7c5.1-3.1,10.8-5.4,16-8.5c17.8-10.3,35.7-20.3,53-31.3
	c8.9-5.7,16.2-13.7,21.1-23.1l-11.9-6.5l18.8-9.8L672.8,474.6z M533,421.3c-1.3,3.7-3.9,6.9-7.3,9c-4.1,2.3-8.8,1-12.4-2.7
	c-4-4.1-3.8-5.8,0.5-8.8c3.1,0.9,5.7,2.5,7.3,1.8c1.4-0.6,1.8-3.7,2.7-5.7l-1-1.3c2.6-0.6,6.8-2.3,7.4-1.5
	C532.1,414.7,533.9,418.7,533,421.3L533,421.3z"/>
<path d="M250.3,696.6c-9.3-7.5-17.7-17.5-26.4-26.9c-1.7-1.9-0.2-0.3-9.2-10.8c-17.1-20.2-17.7-20.4-19.7-24
	c-4.2-7.3-4.5-10.8-10.3-20.1c-1.4-2.2-2.7-4.5-3.9-6.8c-1.8-4-3.4-8.2-4.7-12.4c-0.5-1.7-1-3.5-1.7-5.1c-1-2.3-2.9-6.2-3.4-6
	c-0.9,0.3,1.4,11,5.4,21.5c1.9,4.9,2.3,5.1,8.1,17.2c8.2,17.2,8,18.3,11.7,23.7c1.5,2.2,4.9,6.2,11.5,14.1
	c4.6,5.4,7.4,8.8,11.1,12.8c7.1,7.8,8.1,7.9,15.4,15.4c0,0,19.9,20.6,29,24.8c0.6,0.4,1.4,0.5,2.1,0.3c0.5-0.2,1.3-0.1,1.4-1.2
	c0-0.9-0.5-1.7-1.2-2.2C260.3,707.1,255.6,700.8,250.3,696.6z"/>
<path d="M222.7,225.5c0.6,0.1,1.5-1.4,1.7-2.4c1.2-5.7,5.4-6.6,8.6-9.3c7.2-6.1,13.6-14.1,21.2-19.3c17.9-12.3,35.9-24.5,56.5-29.8
	c4.5-1.2,8-7,13.9-2.4c1.2,0.9,3.2-1.4,2.8-3.7c-0.5-2.2-0.4-4.4,0.2-6.5c3.5-0.6,7.1-1.1,10.6-1.6c-3.4,0.1-6.8,0.3-10.1,0.5
	c1.2-2.2,3.3-3.5,6-4.4c-2.5-2.4-4.2-2.1-5.8-1c-3.8,2.5-7.7,4.6-11.8,6.4c-4.3,0.5-8.6,1.2-12.8,2.2c-0.4,0-0.7,0-1.1-0.1
	c-1.1-0.1-2.1,0.3-2.8,1.1c-4.1,1.1-8,2.6-11.8,4.3c-3.8,0-7,1.1-8.8,4.8c-1.8,1.1-3.6,2.4-5.3,3.8c1.6-0.8,3.1-1.5,4.7-2.3
	c-0.3,0.8-0.5,1.7-0.6,2.6c-0.4,3.8-3.1,6.9-6.8,7.9c-3,0.8-4.9,3.1-7.4,4.3c-5,2.6-9.4,6.8-14.6,8.6c-8.8,3.1-16.6,8.4-22.6,15.4
	c-2.5,2.8-6.7,2.8-7.7,7.1c-2,8.9-7.5,13.6-12.4,19c-1.4,1.6-2.3,3.6-2.3,5.7C211,234.4,214.6,224.6,222.7,225.5z"/>
<path d="M570.8,752.3c0.5,1.5,1.7,0.7,2.5,0.5c11.4-3,22-8,32.4-13.5c5.9-3.1,11.1-7.4,16.6-11.2c11-7.4,20.8-16,31.1-26.2
	c-1.9,0.5-2.7,0.5-3.2,0.9c-8.1,5.5-15,12.6-23.3,17.9c-2.2,1.4-4.7,2.5-6.6,4.2c-13.5,12.8-30.1,19.9-47.4,25.5
	C572,750.8,570.2,750.3,570.8,752.3z"/>
<path d="M446,122.5c-7,2.1-14.1,3.9-22.1,6.1c4.2-0.5,8,1.4,10.8-0.4c4.5-2.8,5.6-0.7,6.3,3.2c0.2,1,0.1,2.6,1.9,2.1
	c3.7-1.1,7.8-1.5,10.5-4.7c0.6-0.6,1.6-1,1.1-2.4C453.6,123.8,448.8,121.7,446,122.5z"/>
<path d="M332.5,751.8c8,4.2,15.8,8.7,24.8,11.5c-5.1-2.1-9.8-4.6-14.6-7C339.4,754.6,336.4,752.3,332.5,751.8z"/>
<path d="M317.4,743.4c-4.3-2.6-9.1-4.6-13.8-6.8C308.1,738.9,312.1,741.8,317.4,743.4z"/>
<path d="M354.2,764.7c4.8,1.3,9.8,3.2,14.4,3.9c-6.4-2.4-12.8-4.3-19.2-6.6c-11-3.9-21.7-8.4-32.1-13.7c-6-3-11.3-6.2-16.9-9.4
	s-10.5-6.2-15.3-9.5c-2.6-1.8-4.7-3.7-8.4-3.7c-0.6,0-1.8-0.5-1.8,0s0.8,0.8,1.5,1.3c4.7,3,8.9,6.3,15,8.6c1,0.4,1.9,0.9,2.7,1.6
	c5.7,4.1,12.6,7.5,19.4,11c6.1,3.1,12.3,6.3,18.7,8.8C339.5,760.1,346.8,762.6,354.2,764.7z"/>
<path d="M365.8,745.4c4.2,1.6,8.2,3.6,12.9,3.2C374.7,746,369.9,747.2,365.8,745.4z"/>
<path d="M372.5,740.2c-0.2,0.3-0.2,0.7-0.1,1c0.4,0.9,1.2,1.5,2.2,1.6c0.8,0,1.4-0.9,2.2-0.6l0.5,1c0.1-0.4,0.5-1,0.4-1.3
	c-0.5-1.1-1.8-1.3-2.8-1.5C374.2,740.2,373.3,739.1,372.5,740.2z"/>
<path d="M627.6,195c-0.9,1.2-12.8-9.5-38.9-24.6c-13.8-8-25.4-14.7-42.1-21c-10-3.7-21.5-6.9-44.5-13.2c-16.7-4.6-26.9-7-26.7-7.9
	c0.2-1.2,17.3,1.1,18.4,1.3c16.1,2.2,32,5.9,47.5,10.9c21,6.7,31.5,10.1,44,17.2C611.5,172.6,628.8,193.5,627.6,195z"/>
<path d="M671.6,652.8c-0.6,0.5-1.2,1-1.8,1.4c-4.5,3.3-5.4,10.3-12.1,11.5c-0.8,0.2-0.3,1.2,0.4,1.7c1.6,1.2,0.7,2-0.6,2.2
	c-2.6,0.3-4.2,2.2-5.9,3.6c-7.8,6.7-12.3,16.5-20.9,22.6c-0.8,0.5-1.1,3-0.6,3.7c1.1,1.3,2.9,0.7,4.3-0.2
	c5.6-3.5,10.2-7.8,11.9-14.5c0.5-2.2,1.1-3.9,3.8-4.5c8.3-1.7,11.6-9.7,17.5-14.4c2.5-2,3.9-5.3,5.5-8.2
	C674,656.1,674,654.1,671.6,652.8z"/>
<path d="M636.2,664.7c-4.7,3.9-8.5,8.6-12.9,12.3c9.2-4.5,17.9-9.5,25.3-18.7c2.6-1.5,3.3-4.2,2.4-7.8c-3.6,1-1.5,5.6-3.2,7.8
	c-2.2,0.7-4.3,1.6-6.2,2.7c-0.1-0.9-6.6,3.6-5.6,3.6"/>
<path d="M624.3,686.9c-4.3,3.5-7.7,7.8-11.7,11.1c8.3-4,16.2-8.6,22.9-16.9c2.3-1.3,3-3.8,2.2-7.1c-3.2,1-1.4,5.1-2.9,7.1
	c-2,0.6-3.9,1.4-5.7,2.5c-0.1-0.8-4.5,4.8-4.9,3.5"/>
<path d="M422.4,141.1c-5.5-3.7-11.6,4.4-26.5,6.3c-3.5,0.5-4,0.1-20.3,1.4l-3.5,0.3c-5.8,3.8-12.6,8.6-11.9,9.8
	c0.6,1.2,7-1.3,9.1-2.1c9.4-3.4,25.7-7.9,55.8-12.6C424.5,143,423.5,141.9,422.4,141.1z"/>
<path d="M382.3,136.4L382.3,136.4c3-0.2,5.9-0.7,8.8-1.5c1.5-0.4,2.9-1,4.3-1.6c-1.1-0.2-2.2-0.2-3.3,0.1c-3.5,0.9-7,1.6-10.6,2
	l0.4,0.5L382.3,136.4z"/>
<path d="M389.9,140.9l-1,0.7c6-0.3,12-1,17.9-2.1c0.5-0.1,9.4-1.8,9.3-2.4c0-0.3-1.3-0.3-2.1-0.3c-1.4-0.1-2.9,0.1-4.3,0.4
	c-2.3,0.5-9.8,1.5-21.6,2.8"/>
<path d="M183.2,289.3c-0.8,1.9-1.4,3.9-2.3,5.7c-10.8,22-17.2,45.6-16.9,71.6c-0.1,3.4-0.4,6.7-0.9,10c-0.2,2.1-0.6,4.1-1.2,6.2
	c-2.5-34.5,2.3-66.6,20.1-94.4L183.2,289.3z"/>
<path d="M180.8,314.4c-1.9,6.1-4.1,12.1-5.5,18.4c-0.8,3.7-0.4,7.9-0.6,12.4c-5-14.9,2-35.2,12.3-48.4c-1.2,4.4-2.5,8.8-3.7,13.2
	L180.8,314.4z"/>
<path d="M638.5,195.6c3.8,4,7.6,8.1,12.1,11.4c5,3.6,10.1,6.9,15.3,10.5c-5.3-5.5-9.3-12.1-16.2-16.2c-3.4-2-7.4-3.5-9.8-7
	c-0.5-0.7-0.3-2.5-1.8-1.5C636.4,193.8,637.7,194.8,638.5,195.6z"/>
<path d="M610.8,200.6c8.2,5.2,16.8,9.7,25.8,13.5C628.5,209.4,622.7,200.8,610.8,200.6z"/>
<path d="M671,252.4c-0.5-2-2.8-3-5.7-2.9c1,1.2,1.9,2.5,2.7,3.8C669.7,255.8,671.5,254.3,671,252.4z"/>
<path d="M584.7,198.3c-2.7-1.6-4.2-3.4-6.7-2.8c-0.2,0.1-0.4,0.8-0.3,1.1C579.1,199,581.3,198.9,584.7,198.3z"/>
<path d="M693.9,660.6l21.9-23.9c0.2-2.4,1.1-4.7,2.5-6.6l2.4,1.3l1.4-1.5l8.3-25.2L729,604c1.8-4,3.4-7.5,5.1-11l16.3-49.5l0,0
	l4.9-15l0,0c3.1-16.6,6.2-31.7,8.5-47c2.6-17.6,1.3-34.2,1.6-51.9c0-11.9-0.7-23.9-2.2-35.7c-6-50.9-30.9-94.3-53.5-138.7
	c-0.7-1.4-4.2-1.5-8.6-2.9c3.4,7.7,6.1,13.2,8.3,18.8c10.5,26.9,28.3,52.5,35.9,80.3c5.9,21.2,9.7,42.9,11.2,64.9
	c1,15.7-2.2,36,0,51.4c5.1,36.3-9.8,69.2-22,102.8c-10.1,27.9-20.1,56.2-40.4,79.1c-1.9,2.2-2,9.6-0.2,10.9L693.9,660.6z"/>
<g class="st0">
	<path d="M128.7,396.9l-48.7-10.4l-3.6,17l-12.7-2.7l12.3-57.2l7.3,28.2l-0.5,2.1l74.2,15.9L128.7,396.9z"/>
</g>
<g class="st0">
	<path d="M86.4,311.2l5.6-11.7l19.5,9.4l12.2-25.4L75,260.1l29-0.5l56.6,27.2l-5.6,11.7l-19.5-9.4l-12.2,25.4l25.3,12.2l17.8,22.9
		L86.4,311.2z"/>
</g>
<g class="st0">
	<path d="M173.4,265.2L130,229.5l37-45.2l-6.4,28.3l-12.4,15.1l6.7,5.5l28.8-35.1l-6.4,28.3l-12.4,15.1l6.7,5.5l12.4-15.1l26.5-11.8
		L173.4,265.2z"/>
</g>
<g class="st0">
	<path d="M237.5,124l12.6-6.2l32.7,25l0-4.8l-1-1.9l-27-20.6l12.6-6.2l15.4,11.8l0.5-55.7l12.4,25.3l-0.3,38.8l1,1.9l3.8,2.9
		l0.4-41.2l12.6-6.2l-0.7,72.7l-17.3-13.2l-0.2,21.8L237.5,124z"/>
</g>
<g class="st0">
	<path d="M357.4,132.1l-10.1-55.3l55.3-10.1l10.1,55.3L357.4,132.1z M397.6,111.6l-5.4-29.8l-29.8,5.4l5.4,29.8L397.6,111.6z"/>
</g>
<g class="st0">
	<path d="M437.8,119.9l3.8-62.6l14.5-25.1l-4.6,75.6l19.5,1.2l25.1,14.5L437.8,119.9z"/>
</g>
<g class="st0">
	<path d="M533.5,73.5L588.9,91l-28.5,4.6l-18.5-5.8l-2.6,8.2l43.2,13.6l-28.5,4.6l-18.5-5.8L527,137l-20.1,20.8L533.5,73.5z"/>
</g>
<g class="st0">
	<path d="M631.6,183.2l32-38.1l9.9,8.3l-5.6,6.6l23.2,19.5l5.6-6.6l-14.9-12.5l-11.5-26.6l44.7,37.6l-22.3,26.5l-33.1-27.9
		l-34.8,41.4L631.6,183.2z"/>
</g>
<g class="st0">
	<path d="M733.9,229.2l-35.7,6.5l-8.4-11.2l66.6-12.1L724,277.2l-22.5,16.9L733.9,229.2z"/>
</g>
<g class="st0">
	<path d="M739.3,294.1l51.8-22l22,51.8L791,305l-6.8-16l-27.9,11.9l7.6,17.9l-1.8,29L739.3,294.1z"/>
</g>
<g class="st0">
	<path d="M761.8,368.8l62.1-10l2.1,12.8l-25.7,4.2l29.8,21.6l2.8,17.1L803,392.9l0,0l-1.3-0.9l-24.2,33.6l-2.8-17.1l23.3-32.4
		l-60,9.7L761.8,368.8z"/>
</g>
</svg>
