<svg id="Layer_1" data-name="Layer 1" xmlns="http://www.w3.org/2000/svg" viewBox="0 0 347.41 406.82"><defs><style>.cls-1{fill:#b5b5b5;}.cls-2{fill:#353535;}</style></defs><title>aryaan bw</title><path class="cls-1" d="M181.88,260.27a32.48,32.48,0,0,1-10.36-1.48,22,22,0,0,1-7.43-4,17.19,17.19,0,0,1-4.59-6,19.77,19.77,0,0,1-1.82-7.24,24.16,24.16,0,0,1,.89-7.89,30.38,30.38,0,0,1,3.5-7.9,36.23,36.23,0,0,1,6-7.24,38.7,38.7,0,0,1,8.47-6,47.14,47.14,0,0,1,10.85-4A54.45,54.45,0,0,1,200.54,207a29.66,29.66,0,0,1,9.08,1.17,13.07,13.07,0,0,1,5.43,3.1,7.81,7.81,0,0,1,2.22,4.38,10.38,10.38,0,0,1-.58,5,17.15,17.15,0,0,1-2.94,5A23.08,23.08,0,0,1,208.9,230a25.32,25.32,0,0,1-6.38,3.11,23.46,23.46,0,0,1-7.43,1.17,20.83,20.83,0,0,1-6.75-.93,10.23,10.23,0,0,1-4.14-2.46,7,7,0,0,1-1.89-3.46,9.63,9.63,0,0,1,0-4,12.52,12.52,0,0,1,1.6-4,15.91,15.91,0,0,1,2.84-3.49,14.18,14.18,0,0,1,3.71-2.46,10.27,10.27,0,0,1,4.26-.92.29.29,0,0,0,0,.13.43.43,0,0,0,0,.16,8.71,8.71,0,0,0-3.85.9,12.15,12.15,0,0,0-3.27,2.32,13.66,13.66,0,0,0-2.41,3.29,12.65,12.65,0,0,0-1.3,3.78A9.48,9.48,0,0,0,184,227a7,7,0,0,0,1.73,3.29,9.25,9.25,0,0,0,3.63,2.33,16.65,16.65,0,0,0,5.82.87,20.71,20.71,0,0,0,6.72-1.1,24.79,24.79,0,0,0,5.87-2.93,22.5,22.5,0,0,0,4.59-4.12,16.88,16.88,0,0,0,2.86-4.72,10.19,10.19,0,0,0,.69-4.73,6.93,6.93,0,0,0-1.93-4.12,11.86,11.86,0,0,0-5-2.93,27.41,27.41,0,0,0-8.49-1.1,41.47,41.47,0,0,0-11.19,1.45,42.12,42.12,0,0,0-9.66,3.95A41.71,41.71,0,0,0,165.73,226a33.75,33.75,0,0,0-3.83,7.67,26.47,26.47,0,0,0-1.48,7.68,18.9,18.9,0,0,0,1,7,14.68,14.68,0,0,0,3.78,5.81,18.39,18.39,0,0,0,6.73,3.95,30.11,30.11,0,0,0,9.88,1.45,35.49,35.49,0,0,0,11.82-2A59.61,59.61,0,0,0,205.1,252a31,31,0,0,1,1.76-8,42.32,42.32,0,0,1,3.95-8.12,48.53,48.53,0,0,1,5.88-7.66,46.68,46.68,0,0,1,7.58-6.59,45,45,0,0,1,9.06-4.89,39.17,39.17,0,0,1,10.34-2.56q2.51-3.13,4.82-6.07t4.45-5.58q3.7-4.59,7.57-8.9t7.72-8.16q3.87-3.84,7.68-7.13a91.48,91.48,0,0,1,7.45-5.83c-1-.9-2-1.79-3.14-2.66a20.59,20.59,0,0,0-3.67-2.31,22.14,22.14,0,0,0-4.47-1.63,22.64,22.64,0,0,0-5.56-.63,16.49,16.49,0,0,0-5.17.77,15.41,15.41,0,0,0-4.11,2.07,13.11,13.11,0,0,0-3,2.9,11.33,11.33,0,0,0-1.7,3.34,8.53,8.53,0,0,0-.36,3.33,6.29,6.29,0,0,0,1,2.91,6,6,0,0,0,2.52,2.06,9.59,9.59,0,0,0,4.13.78,9.16,9.16,0,0,0,4.21-.94,13.91,13.91,0,0,0,3.22-2.2,15.51,15.51,0,0,0,2.23-2.49c.58-.83,1-1.44,1.24-1.83h.33a16.45,16.45,0,0,1-2.94,4,19.64,19.64,0,0,1-1.68,1.47,12.91,12.91,0,0,1-2.07,1.27,13.42,13.42,0,0,1-2.46.9,10.89,10.89,0,0,1-2.84.35,9.43,9.43,0,0,1-4.22-.84,6.23,6.23,0,0,1-3.64-5.33,9.29,9.29,0,0,1,.47-3.59,13.34,13.34,0,0,1,1.84-3.58,13.61,13.61,0,0,1,3.17-3.12,16.88,16.88,0,0,1,4.41-2.21,17.55,17.55,0,0,1,5.57-.84,27.91,27.91,0,0,1,6.25.62,21.7,21.7,0,0,1,4.76,1.67,18.09,18.09,0,0,1,3.63,2.36c1.05.88,2,1.77,3,2.68a49.87,49.87,0,0,1,8.83-4.92,19.94,19.94,0,0,1,7.71-1.75,7.1,7.1,0,0,1,4.21,1.07,4.7,4.7,0,0,1,1.92,2.66,6.27,6.27,0,0,1-.17,3.46,9,9,0,0,1-2,3.47,11.48,11.48,0,0,1-3.63,2.66,11.34,11.34,0,0,1-5,1.07,11.89,11.89,0,0,1-3.5-.49,12.87,12.87,0,0,1-3-1.36q-7.53,13.05-13,23.88t-9.29,19.68a13.3,13.3,0,0,1,2.18,5.69,21.86,21.86,0,0,1-.1,6.41,31.68,31.68,0,0,1-1.82,6.55,42.63,42.63,0,0,1-3,6.15,38.81,38.81,0,0,1-3.67,5.15,22.48,22.48,0,0,1-3.76,3.6,36.39,36.39,0,0,0-.17,7,24.71,24.71,0,0,0,1,5.25q4-1.29,7.78-2.54t7-2.25c2.14-.66,4.09-1.2,5.83-1.62a19.14,19.14,0,0,1,4.39-.63,8.44,8.44,0,0,1,3.78.68,3,3,0,0,1,1.63,1.8,4,4,0,0,1-.23,2.56,10,10,0,0,1-1.85,2.92,21.47,21.47,0,0,1-3.17,2.93,23.73,23.73,0,0,1-4.21,2.55,26.18,26.18,0,0,1-5,1.8,22.48,22.48,0,0,1-5.48.68,17.93,17.93,0,0,1-8.87-1.9,11.46,11.46,0,0,1-4.9-5.26c-3.22.88-6.47,1.68-9.78,2.41a91.71,91.71,0,0,1-9.75,1.6A59.81,59.81,0,0,1,226,273a28.6,28.6,0,0,1-8.24-1.55,20.18,20.18,0,0,1-6.71-3.93,18.18,18.18,0,0,1-4.69-6.82,16.88,16.88,0,0,1-1-3.41,19.93,19.93,0,0,1-.28-3.78,62.92,62.92,0,0,1-11.47,4.87A39.93,39.93,0,0,1,181.88,260.27ZM194.73,213Zm11.06,40.26a19.14,19.14,0,0,0,.28,4,14.38,14.38,0,0,0,1.17,3.61,20.71,20.71,0,0,0,3.54,5.25,19,19,0,0,0,4.57,3.6,22.15,22.15,0,0,0,5.43,2.16,30.78,30.78,0,0,0,6.11.91,47.18,47.18,0,0,0,6.62-.13q3.42-.3,6.92-.92c2.33-.42,4.68-.94,7-1.54s4.68-1.25,7-1.93a17.39,17.39,0,0,1-1.2-5.42,34.13,34.13,0,0,1,.19-6.47,57.56,57.56,0,0,1,1.41-7.36q1-3.9,2.41-8t3.2-8.49q1.79-4.34,3.83-8.77a18.06,18.06,0,0,0-2.84-3.5,17.61,17.61,0,0,0-3.75-2.72,19.17,19.17,0,0,0-4.64-1.77,22.93,22.93,0,0,0-5.48-.63q-3,3.6-6.25,7.24t-6.59,7.15q-3.37,3.51-6.87,6.88t-7.13,6.41q-3.65,3-7.37,5.69a84.24,84.24,0,0,1-7.56,4.7Zm36.92-37.81a36.58,36.58,0,0,0-9.23,2.61,45.07,45.07,0,0,0-8.42,4.7,52.31,52.31,0,0,0-7.3,6.24,49.53,49.53,0,0,0-5.84,7.23,43.35,43.35,0,0,0-4.07,7.71,29.22,29.22,0,0,0-2,7.63A89.18,89.18,0,0,0,216,244q4.94-4.25,9.57-9t9-9.76q4.25-5,8.14-9.84Zm13.37-10.67-3.73,4.59c-1.25,1.54-2.55,3.11-3.9,4.69a42.4,42.4,0,0,1,6.06.45,28.47,28.47,0,0,1,4.91,1.15,18.89,18.89,0,0,1,3.84,1.79,14,14,0,0,1,2.89,2.32q2.91-6,6.05-12t6.19-11.41q3-5.48,5.83-10.27c1.84-3.2,3.5-6.08,4.95-8.64a20.56,20.56,0,0,1-2.25-1.68c-.72-.62-1.45-1.26-2.18-1.92a143.16,143.16,0,0,0-13.3,13q-7.2,7.85-15.36,17.88ZM265.49,226a150.74,150.74,0,0,0-5.59,16,83.43,83.43,0,0,0-2.56,12.22,32,32,0,0,0,5.79-6.93,27.63,27.63,0,0,0,3.19-7.38,23,23,0,0,0,.72-7.3A20.12,20.12,0,0,0,265.49,226Zm3.44,49.4a18,18,0,0,0,6-1,25.65,25.65,0,0,0,5.25-2.53,20.38,20.38,0,0,0,4-3.29,9.57,9.57,0,0,0,2.11-3.28,2.53,2.53,0,0,0-.31-2.53c-.54-.67-1.65-1-3.32-1a21,21,0,0,0-4.33.54c-1.69.36-3.59.83-5.68,1.4s-4.35,1.23-6.77,2-4.93,1.47-7.53,2.21a12.53,12.53,0,0,0,2.13,3.72,11.11,11.11,0,0,0,2.71,2.31,10,10,0,0,0,2.94,1.17,13.14,13.14,0,0,0,2.8.24ZM285.6,173.13c.64.64,1.29,1.26,1.95,1.87a17.15,17.15,0,0,0,2.08,1.63q2-3.49,3.27-5.91a19.06,19.06,0,0,0,1.58-3.47,33.08,33.08,0,0,0-4.25,2.43A55.6,55.6,0,0,0,285.6,173.13Zm15.19-7.53a13.1,13.1,0,0,0-4.42.86c-1.1,1.83-2.16,3.6-3.17,5.33s-2,3.45-3,5.17a12.34,12.34,0,0,0,2.79,1.21,12.47,12.47,0,0,0,3.49.44,11.78,11.78,0,0,0,4.9-1,9.22,9.22,0,0,0,3.28-2.42,7.34,7.34,0,0,0,1.62-3.13,5.78,5.78,0,0,0-.06-3.14,4.65,4.65,0,0,0-1.82-2.41A6.12,6.12,0,0,0,300.79,165.6Z" transform="translate(-8.73 -8.33)"/><path class="cls-1" d="M279.29,231q-.59.69-1.32,1.5l-1.48,1.65c-.51.56-1,1.12-1.49,1.67l-1.35,1.55h-.8C274,236,275,234.8,276,233.72s1.76-2,2.51-2.7H278a3.26,3.26,0,0,1-1.7-.4,2.11,2.11,0,0,1-.89-1,2.29,2.29,0,0,1-.12-1.32A2.79,2.79,0,0,1,276,227a4.34,4.34,0,0,1,1.5-1,6.54,6.54,0,0,1,2.31-.49,2.4,2.4,0,0,1,1.57.34,1.32,1.32,0,0,1,.55,1,2.93,2.93,0,0,1-.38,1.45,7,7,0,0,1-1.21,1.65h4.43a5.3,5.3,0,0,1,2.54.49,1.88,1.88,0,0,1,1,1.6,6.71,6.71,0,0,1-.65,2.89,30.3,30.3,0,0,1-2.31,4.36l-.76,1.32c-.28.51-.56,1-.82,1.57s-.51,1.07-.73,1.6a7.85,7.85,0,0,0-.46,1.42,2.11,2.11,0,0,0,0,1,.6.6,0,0,0,.61.45,1.75,1.75,0,0,0,1-.41,13.59,13.59,0,0,0,1.45-1.18,21.63,21.63,0,0,0,1.71-1.66c.6-.66,1.17-1.28,1.75-1.94q2-2.31,4.35-5.31l.33.56a77.6,77.6,0,0,1-5.38,6.5c-.75.82-1.53,1.62-2.36,2.4a30.11,30.11,0,0,1-2.44,2.08,15.93,15.93,0,0,1-2.35,1.47,4.93,4.93,0,0,1-2.09.56,1.18,1.18,0,0,1-1.06-.46,2,2,0,0,1-.25-1.24,7.44,7.44,0,0,1,.35-1.75,16.12,16.12,0,0,1,.76-2,53.39,53.39,0,0,1,2.87-5.45c.86-1.45,1.61-2.68,2.25-3.68a12.49,12.49,0,0,0,1.27-2.43q.31-.91-.18-1.32A3.69,3.69,0,0,0,283,231Zm.76-4.69a2.18,2.18,0,0,0-1.42.56,3,3,0,0,0-.9,1.22,1.32,1.32,0,0,0,.09,1.22c.24.38.77.56,1.61.56a6.24,6.24,0,0,0,1.05-1.45,2.86,2.86,0,0,0,.35-1.14.94.94,0,0,0-.22-.72.7.7,0,0,0-.56-.23Z" transform="translate(-8.73 -8.33)"/><path class="cls-1" d="M313.77,236.2l.76.1L279.23,294a28.26,28.26,0,0,1-1.89,2.94,12.75,12.75,0,0,1-.85,1.09,8.9,8.9,0,0,1-1,.94,4.81,4.81,0,0,1-1,.66,2.18,2.18,0,0,1-1,.25,1.3,1.3,0,0,1-1.45-1.1,6.8,6.8,0,0,1,.35-3,30.42,30.42,0,0,1,1.68-4.34c.76-1.65,1.61-3.4,2.56-5.23s1.94-3.71,3-5.62,2-3.73,3-5.49q.92-1.75,2.39-4.44l3.24-5.93c1.17-2.16,2.43-4.44,3.76-6.85l4-7.27c1.33-2.43,2.67-4.82,4-7.15s2.55-4.5,3.64-6.5c-1.13,1.52-2.35,3-3.64,4.57s-2.55,2.9-3.76,4.11a31.64,31.64,0,0,1-3.34,3,4.62,4.62,0,0,1-2.37,1.14,1.49,1.49,0,0,1-1.55-.9,4.4,4.4,0,0,1-.09-2.44,19.64,19.64,0,0,1,1.14-3.66c.57-1.41,1.28-2.93,2.11-4.56s1.72-3.17,2.56-4.56S296.29,231,297,230c.79-1.21,1.57-2.31,2.31-3.3h4.3q-1.37,1.85-2.68,3.83c-.75,1.12-1.53,2.36-2.36,3.71s-1.56,2.67-2.2,3.95l-1.83,3.65c-.58,1.16-1,2.17-1.42,3a12,12,0,0,0-.69,2.1c-.1.52,0,.77.31.77s.54-.23,1.08-.69,1.18-1.08,1.94-1.85,1.59-1.66,2.5-2.67,1.81-2.07,2.72-3.17,1.8-2.21,2.64-3.32,1.59-2.15,2.23-3.12,1-1.77,1.42-2.54.82-1.45,1.12-2,.71-1.25,1-1.78h4.5c-.8,1.34-1.83,3.09-3.11,5.23s-2.71,4.57-4.29,7.27-3.28,5.59-5.07,8.7-3.62,6.27-5.48,9.51-3.71,6.47-5.53,9.71-3.55,6.33-5.17,9.29-3.1,5.73-4.44,8.29-2.47,4.79-3.37,6.69a41.47,41.47,0,0,0-1.88,4.45q-.53,1.62,0,1.62c.26,0,.87-.68,1.81-2.05s2.21-3.31,3.78-5.86,3.45-5.62,5.62-9.24,4.62-7.7,7.38-12.22,5.77-9.45,9.06-14.79S310,242.17,313.77,236.2Z" transform="translate(-8.73 -8.33)"/><path class="cls-1" d="M333.74,226.63q-2.87,5-5,9.17c-.62,1.19-1.22,2.37-1.79,3.54s-1.07,2.24-1.48,3.22a22.42,22.42,0,0,0-.94,2.52,2.47,2.47,0,0,0-.15,1.42q.17.41.69.15a5.92,5.92,0,0,0,1.27-.89,20.89,20.89,0,0,0,1.64-1.62l1.81-2q2.15-2.5,4.76-5.94l.33.56c-1.79,2.33-3.5,4.42-5.15,6.27-.71.79-1.43,1.58-2.17,2.35s-1.46,1.46-2.16,2.08a18.74,18.74,0,0,1-2,1.55,4.08,4.08,0,0,1-1.63.73,2.46,2.46,0,0,1-1.42-.14,1.3,1.3,0,0,1-.71-1,5.67,5.67,0,0,1,.15-2.17,21.49,21.49,0,0,1,1.15-3.48,30.32,30.32,0,0,1-2.29,2.77,22.55,22.55,0,0,1-2.31,2.17,11.54,11.54,0,0,1-2.2,1.4,4.45,4.45,0,0,1-1.92.5,1.93,1.93,0,0,1-1.75-.91,4.46,4.46,0,0,1-.52-2.48,14,14,0,0,1,.67-3.68,26.07,26.07,0,0,1,1.9-4.49,33.92,33.92,0,0,1,2.78-4.49,30.34,30.34,0,0,1,3.13-3.67,17.86,17.86,0,0,1,3.09-2.46,5.3,5.3,0,0,1,2.69-.9,2,2,0,0,1,2,1.5,8,8,0,0,1,0,4c.44-.84.92-1.72,1.42-2.63s1-1.86,1.62-2.85ZM314.59,248a2.7,2.7,0,0,0,1.31-.53,12.29,12.29,0,0,0,1.76-1.46,24.37,24.37,0,0,0,2-2.19c.71-.9,1.38-1.83,2-2.79q1.29-2.88,3.4-6.9a11.8,11.8,0,0,0,.73-4.16c-.07-1.06-.41-1.59-1-1.59a2.55,2.55,0,0,0-1.52.78,14.09,14.09,0,0,0-1.92,2.09,32.82,32.82,0,0,0-2.11,3.12c-.73,1.21-1.44,2.48-2.15,3.82s-1.31,2.64-1.83,3.83a23.94,23.94,0,0,0-1.14,3.1,6,6,0,0,0-.28,2.1C313.9,247.7,314.15,248,314.59,248Z" transform="translate(-8.73 -8.33)"/><path class="cls-1" d="M331.76,249.71h-4.49l12-23.08h4.52l-3.27,6.3a32.81,32.81,0,0,1,2.3-2.56,18.13,18.13,0,0,1,2.29-2,11.3,11.3,0,0,1,2.17-1.29,4.6,4.6,0,0,1,1.86-.46,3.69,3.69,0,0,1,2,.49,2.18,2.18,0,0,1,.87,1.78,9.72,9.72,0,0,1-.63,3.54,38.34,38.34,0,0,1-2.54,5.71q-.46.86-1.17,2.1c-.48.82-.91,1.65-1.31,2.47a16.24,16.24,0,0,0-.9,2.31,2,2,0,0,0,.05,1.64c.11.2.34.19.71,0a7.73,7.73,0,0,0,1.28-1q.75-.67,1.65-1.65c.61-.65,1.22-1.33,1.84-2,1.43-1.65,3-3.58,4.78-5.81l.37.56c-1.9,2.44-3.72,4.61-5.48,6.5q-1.12,1.23-2.31,2.4c-.8.78-1.57,1.47-2.32,2.08a15.51,15.51,0,0,1-2.13,1.47,3.8,3.8,0,0,1-1.76.56,1.18,1.18,0,0,1-1.08-.5,2.36,2.36,0,0,1-.31-1.3,7.19,7.19,0,0,1,.27-1.85,20.15,20.15,0,0,1,.66-2.13,46.22,46.22,0,0,1,2.57-5.81c.71-1.34,1.31-2.61,1.82-3.82a29.11,29.11,0,0,0,1.14-3.12,5.69,5.69,0,0,0,.29-2.09c-.05-.52-.29-.78-.71-.78a2.89,2.89,0,0,0-1.38.53,11.8,11.8,0,0,0-1.89,1.49,30.42,30.42,0,0,0-2.14,2.26,28.35,28.35,0,0,0-2.15,2.85Z" transform="translate(-8.73 -8.33)"/><path class="cls-1" d="M186.44,282.15c13.54,6.72,27.72,9.52,42.59,11.19-.67-2.77-1.72-4.88-4.1-5.8a27.18,27.18,0,0,0-5.7-1.28,13.75,13.75,0,0,1-7-3.19,10.08,10.08,0,0,0-4.87-2.09c-4.79-.7-9.64-1-14.44-1.58-11.76-1.54-23.07-4.67-33.42-10.58-8.31-4.74-14.51-11.82-19.92-19.58a132.9,132.9,0,0,1-16.36-32.69,8.33,8.33,0,0,1-.31-1.19c0-.07.09-.16.32-.53.22.87.33,1.54.56,2.17,5.63,15.44,13,29.87,24.28,42,7.23,7.79,16.22,12.52,26.21,15.76A124.55,124.55,0,0,0,204,280.12a28.18,28.18,0,0,1,5.62,1,7.36,7.36,0,0,1,3,1.73,10.4,10.4,0,0,0,6,2.9c1.23.17,2.45.38,3.68.55a7.58,7.58,0,0,1,6.71,5.59c.4,1.35,1.17,1.68,2.43,1.84,7.62,1,15.25,1.88,22.83,3.14a29.5,29.5,0,0,1,15.88,7.47,17.81,17.81,0,0,1,3.33,4.57c1,1.87.59,3.74-.72,5.49-1.71,2.3-3.27,4.73-4.89,7.1a9.62,9.62,0,0,0-.61,1.08,9.8,9.8,0,0,1-9.92,6,52.48,52.48,0,0,0-7.09.39,9,9,0,0,0-5.59,2.75,8.19,8.19,0,0,1-7.81,2.28c-4.81-.85-9-3.21-13.21-5.53-2-1.09-4-2.17-5.92-3.36a8,8,0,0,0-8.92,0c-1.94,1.18-3.72,2.6-5.63,3.81a47.73,47.73,0,0,1-6.27,3.63,8.56,8.56,0,0,1-9.29-1.36c-.89-.71-1.77-1.43-2.62-2.17a9,9,0,0,0-9.69-1.66c-2.35.9-4.52,2.22-6.81,3.28a87.59,87.59,0,0,1-8.32,3.63,12.59,12.59,0,0,1-8.51-.47c-2-.75-3.92-1.58-5.85-2.44-4.31-1.92-8.76-1.87-13.35-1.42-10.41,1-20.17-1-28.75-7.24-6-4.36-10.08-10.31-13.29-16.85A77,77,0,0,1,83.09,261C84.86,247.39,89,234.43,94,221.74c4.13-10.45,8.21-20.94,13-31.11,7.63-16.26,17-31.57,26.41-46.88,3-4.83,5.93-9.68,8.46-14.74s3.66-10.54,2.32-16.22c-.48-2-1.35-4-2-6A19.31,19.31,0,0,1,145,116c.31,6.65-2,12.6-5.29,18.16-5.12,8.66-10.62,17.09-15.63,25.81-5.79,10.1-11.25,20.41-16.79,30.65-3,5.51-3.85,11.64-4.62,17.72-2.44,19.19,1.21,37.49,8.62,55.15a164.29,164.29,0,0,0,29.38,46.1c.24.27.48.55.7.83a2.55,2.55,0,0,1,.11.55c-.62-.27-1.12-.46-1.59-.7-11-5.6-19-14.19-25.21-24.65-7.24-12.23-11.42-25.56-13.88-39.49a3.87,3.87,0,0,0-.81-1.92,6.71,6.71,0,0,0-.17,1.18c.27,14.26,1.83,28.31,6.81,41.79,3.58,9.68,8.71,18.34,16.81,25a35.29,35.29,0,0,0,13.08,6.8,70.33,70.33,0,0,1,18.53,7.65,13.17,13.17,0,0,0,5.26,1.58c2.31.29,3.28-1.11,2.18-3.14a31.45,31.45,0,0,0-3.94-5.7c-2.27-2.59-4.73-5-7.23-7.42a158,158,0,0,1-37.06-53.74c-.24-.57-.43-1.16-.62-1.75a2.91,2.91,0,0,1,.19-.52c.59,1.44,1.11,2.7,1.62,4,6.5,16.31,17.37,29.23,31,40,2.27,1.79,4.54,3.58,6.76,5.43a34.21,34.21,0,0,0,15.45,7.44,25.47,25.47,0,0,1,14.06,7.83,23.84,23.84,0,0,0,6.89,5.1c5.18,2.47,9.37-.59,11.46-4.56a2.92,2.92,0,0,0-.52-2.61,13.48,13.48,0,0,0-4.09-3.22c-5.21-2.35-10.53-4.45-15.81-6.63a11,11,0,0,1-3-1.56c3.47,1.3,6.94,2.62,10.42,3.9s6.9,2.49,10.45,3.46c-5.45-3.78-12-5.48-17.36-9.3,2.58,1.21,5.1,2.6,7.76,3.59,7.11,2.64,14.61,3.56,22,4.95,1.67.32,3.34.66,5,1a13.73,13.73,0,0,1,5.76,2.84c2.55,2.08,5.22,4,7.92,5.92a10.58,10.58,0,0,0,3.1,1.35,3.47,3.47,0,0,0,4.21-1.4,3.06,3.06,0,0,0-.44-4.11,22.21,22.21,0,0,0-4.2-3.6,53.12,53.12,0,0,0-15.75-6.65c-.47-.12-.93-.27-1.4-.4l.14-.46c3.07,1,6.22,1.79,9.19,3,7.3,3,14.51,6.21,21.78,9.27,1.94.82,4,1.45,6,2.12a10.19,10.19,0,0,0,2.12.41c1.09.1,2.47.24,2.76-1a3,3,0,0,0-1.32-2.32,68.06,68.06,0,0,0-8.18-4.65c-11.63-5.26-23.75-9.18-36-12.86-4.57-1.37-9.09-2.91-13.56-4.71.35.09.71.14,1,.25,12.92,4.31,25.92,8.35,39.21,11.37,6.49,1.47,13,2.87,19.72,2.78a17.07,17.07,0,0,0,4.27-.55c2.72-.75,3.73-3.18,2.18-5.55a12.24,12.24,0,0,0-3.37-3.32c-3.84-2.63-8.27-3.9-12.67-5.22-8.26-2.47-16.81-3.18-25.28-4.33-12.11-1.65-24-4.31-35.07-9.59-.47-.22-.93-.47-1.38-.71C186.72,282.69,186.69,282.56,186.44,282.15ZM95.16,242.77l-.35-.07a5.76,5.76,0,0,0-.3,1c-.34,2.86-.75,5.72-1,8.59-1.23,14.7-.66,29.26,3.57,43.51A64.36,64.36,0,0,0,112,322.39a12.75,12.75,0,0,0,7.34,3.66,3.09,3.09,0,0,0,3.48-1.72c.74-1.4.14-2.51-.84-3.46a30.84,30.84,0,0,0-2.79-2.44,51,51,0,0,1-18.34-27.22,153.22,153.22,0,0,1-5.68-45.08c0-1.13,0-2.24,0-3.36Zm3.94,67.84c-6.17-19.74-10-39.82-9.51-60.61a103.5,103.5,0,0,0,.25,36.06,68.6,68.6,0,0,0,9.26,24.55Z" transform="translate(-8.73 -8.33)"/><path class="cls-2" d="M188.87,43.37c1.68,1.56,3,2.89,4.4,4a11.77,11.77,0,0,0,3.24,2c4.49,1.67,9,3.16,13.55,4.81a25.33,25.33,0,0,1,4.6,2.15c1.87,1.18,2.55,3,2.6,5.28.1,4.89.44,9.78.68,14.67.48,9.63,1,19.26,1.38,28.89.2,5.53-1.31,10.86-3.07,16-2.66,7.86-5.66,15.6-8.49,23.4a7.13,7.13,0,0,0-.55,2.37c0,13-1.68,25.92-3.17,38.82a16.72,16.72,0,0,1-.79,3.83c-.11-.93-.18-1.86-.36-2.77-1.39-7.15-4.16-13.83-7.29-20.33a147.92,147.92,0,0,1-11.53-32.26c-3-13.56-4.61-27.27-3.19-41.14a96.71,96.71,0,0,1,3.06-14.49,158.25,158.25,0,0,0,4.59-29.9C188.63,47.12,188.74,45.48,188.87,43.37Zm.81,1.33-.43.18c-.07.58-.16,1.16-.21,1.75-.39,4.47-.67,9-1.18,13.4A142.24,142.24,0,0,1,183,83.31c-2.29,8-2.51,16.16-2.13,24.39a149.84,149.84,0,0,0,3.74,27.08c.12.48.35.94.52,1.42l.39-.08C184,114.68,185.7,94,198.63,75.65l-.25-.32L191.62,78l-.19-.38c2.29-2.13,4.53-4.33,6.89-6.38a2.66,2.66,0,0,0,.91-3.1C197.75,62.4,196.3,56.7,195,51,194.22,47.89,191.43,46.79,189.68,44.7Z" transform="translate(-8.73 -8.33)"/><path class="cls-1" d="M146.77,80.85a16.38,16.38,0,0,1,2.19-.69c1.14-.18,1.3-.78,1-1.76a5,5,0,0,0-3.7-3.8,20.19,20.19,0,0,0-4.59-.37c-.4,0-.79.66-1.21,1l-2.31,1.85L136.58,75a3.54,3.54,0,0,0,.51-5,3.51,3.51,0,0,0-.81-.73c-2-1.66-4.53-2.14-7.06-2.44a2.61,2.61,0,0,1-1.4-.47c.51-.1,1-.23,1.52-.38a69.68,69.68,0,0,0,7.25-2.62c6-2.89,9.14-7.79,9-14.46-.05-3,.55-5.51,2.86-7.61A5.53,5.53,0,0,0,150,35.88a12.74,12.74,0,0,1,2.42-10.51c1.72-2.4,1.27-3.31-1.73-3.4a28.16,28.16,0,0,0-13.91,3c-5.24,2.72-7.87,7.86-7,14,.37,2.79,1.2,5.53,1.85,8.28a15.1,15.1,0,0,0,.58,1.76c-.75-.47-1.62-1-2.5-1.58-.52-.32-1.09-.57-1.6-.92-2.21-1.5-2.23-1.54-4.21.23a1.56,1.56,0,0,0-.26,1.41,37.18,37.18,0,0,0,1.85,3.61c.31.55.71,1,1.34,2l.84-2.68.37.09c-.54,2-1,4-1.66,5.89-.37,1.07-.37,1.75.71,2.27a5.43,5.43,0,0,1,.88.63c1.92,1.53,2.33,1.62,4.13-.13s3.11-3.51,4.71-5.22c-1.63,2.65-3.31,5.28-6.24,6.72-.49.24-1.28-.14-1.93-.24a.84.84,0,0,0-.12-.1c-2.36-1.32-3.76-3-2-5.73a1.24,1.24,0,0,0,0-1c-1-1.86-2.06-3.72-3.2-5.52-.64-1-.73-1.74.39-2.44A27.71,27.71,0,0,0,126,44.5c1.45.76,2.57,2.55,4.88,2.69-.19-.89-.31-1.57-.5-2.23a24,24,0,0,1-.94-10.55c.84-5.3,4.09-8.66,8.93-10.58a29.69,29.69,0,0,1,12-2.16,5.19,5.19,0,0,1,4.1,1.88,13.8,13.8,0,0,1,3.74,9.68,4.53,4.53,0,0,0,1.31,2.39c.4.49,1.13.69,1.68,1.08,1.38,1,1.72,1.95,1,3.46a3.09,3.09,0,0,0,.62,3.79c1.58,1.86,1.38,3.43-.67,4.77-2.69,1.76-5.79,2.11-8.9,2.32,2.23-.55,4.47-1.07,6.68-1.68a6.51,6.51,0,0,0,2.05-1c1.79-1.3,1.93-2.43.49-4.12-1.12-1.31-1.53-2.63-.62-4.23a2,2,0,0,0-.64-2.76l-.11-.06a7.88,7.88,0,0,0-1.17-.73,3.54,3.54,0,0,1-2.14-3.72A11.17,11.17,0,0,0,155.16,25c-.7-.83-1.2-.9-1.91.07-2.45,3.35-3.79,6.9-2.76,11.15a5.71,5.71,0,0,1-1.83,5.65,8.65,8.65,0,0,0-2.68,7c.1,8-4,13.32-11.91,16.18a11.43,11.43,0,0,0-3,1.46,10.73,10.73,0,0,0,1.11.45c3.39.88,6.13,2.44,6.91,6.25.07.35,1,.72,1.5.75,1.69.11,3.41-.14,5.06.11a5.5,5.5,0,0,1,4.84,4.58,1.73,1.73,0,0,0,1.77,1.51c1.67.22,3.3.73,5,1a2.59,2.59,0,0,0,1.81-.27,5.45,5.45,0,0,0,2.33-4.61,21.77,21.77,0,0,1,1-4.73,12.1,12.1,0,0,0,.23-1.34,8.1,8.1,0,0,1,.12-1.84c.83-2.31,1.15-4.5-1.24-6.34l.53-.18,1.8,2.43,1.5-1.66c-.71,1.66-1.36,2.92-1.78,4.24s-1,2.54,0,3.83c.11.15,0,.47,0,.71a32.6,32.6,0,0,1-.32,4.52,8,8,0,0,1-1.37,2.78,13.6,13.6,0,0,1-2,2.15c-2.64,2.51-9.32,3-12.31.88A5.53,5.53,0,0,1,146.77,80.85Z" transform="translate(-8.73 -8.33)"/><path class="cls-1" d="M145.37,282.84c-19-14-30.12-32.59-32.32-56.27a87.59,87.59,0,0,0,11.17,31A97.45,97.45,0,0,0,145.37,282.84Z" transform="translate(-8.73 -8.33)"/><path class="cls-2" d="M184.47,49.48v6.64c-2-.62-3.7-1.08-5.36-1.7a5,5,0,0,0-3.74,0c-1.42.56-2.9,1-4.65,1.56l-.83-7.46c2.1.84,3.93,1.5,5.7,2.29a4.66,4.66,0,0,0,3.57.19C180.89,50.42,182.68,50,184.47,49.48Z" transform="translate(-8.73 -8.33)"/><path class="cls-2" d="M182.69,39.09c-.73.94-1.28,2.17-2.23,2.77a41.22,41.22,0,0,1-6.57,3.39c-2.67,1.08-4,0-4.06-2.83,0-2.41-.39-4.58-2.74-6a2.51,2.51,0,0,1-.63-2.14c.29-1.66.88-3.27,1.34-4.91a2.41,2.41,0,0,0-1.09-3.06c-1.09-.65-1-1.73-.71-2.76a17.14,17.14,0,0,0,.84-2.81,8.66,8.66,0,0,0-.35-3.54c-.79-2.06-.68-3.87,1.17-5a15.69,15.69,0,0,1,4.56-1.56c1.58-.4,3.34-.3,4.79-.94,5.77-2.56,10.54-1.77,15.3,5.73,2.76,4.37,2.54,9.16.8,13.86-.82,2.22-2,4.31-3,6.46l-.38-.19c1-2,2-3.88,2.84-5.91,3-7.35,1.05-14.39-5-18.93a8.36,8.36,0,0,0-8.32-1.34,24.38,24.38,0,0,1-8.07,1.8c-1.35,0-2.82,1.11-4,2a2.57,2.57,0,0,0-.5,3.41,5.58,5.58,0,0,1,.22,5.32,5.8,5.8,0,0,0-.6,2.07,2.67,2.67,0,0,0,.67,2,3,3,0,0,1,1.14,3.54c-.35,1.45-.83,2.87-1.27,4.3a2.07,2.07,0,0,0,1,2.75c1.86,1.1,2.25,3,2.28,4.94,0,3.75,1.44,4.6,4.79,2.93A32.7,32.7,0,0,0,179.4,42a24.1,24.1,0,0,0,3.06-3Z" transform="translate(-8.73 -8.33)"/><path class="cls-1" d="M108.58,227a57.29,57.29,0,0,1,2.52-32.21A64.78,64.78,0,0,0,108.58,227Z" transform="translate(-8.73 -8.33)"/><path class="cls-1" d="M140.46,267l15.67,13.54C153.9,279.79,144.6,271.87,140.46,267Z" transform="translate(-8.73 -8.33)"/><path class="cls-1" d="M132.07,186.88c1.63.53,1.68,2.31,2.35,3.61l-2.7-3.34Z" transform="translate(-8.73 -8.33)"/><path class="cls-1" d="M127.54,190c.44.52,1,.91.91,1.14a6.71,6.71,0,0,1-.91,1c-.29-.3-.78-.58-.81-.9S127.15,190.56,127.54,190Z" transform="translate(-8.73 -8.33)"/><path class="cls-1" d="M138.83,183.68c.42.58.91,1,.84,1.24s-.6.64-.93,1c-.26-.32-.7-.63-.73-1S138.43,184.25,138.83,183.68Z" transform="translate(-8.73 -8.33)"/><path class="cls-1" d="M137.1,198c.38.63.8,1,.75,1.32s-.56.57-.87.85c-.27-.31-.75-.61-.77-.93S136.65,198.6,137.1,198Z" transform="translate(-8.73 -8.33)"/><path class="cls-1" d="M131.4,204.16c-.57.39-1,.88-1.24.8s-.58-.64-.86-1c.32-.26.64-.71,1-.7S130.88,203.73,131.4,204.16Z" transform="translate(-8.73 -8.33)"/><path class="cls-1" d="M148.49,205.86c-.55.39-.89.83-1.2.81s-.61-.49-.91-.76c.3-.32.57-.8.93-.89S147.94,205.44,148.49,205.86Z" transform="translate(-8.73 -8.33)"/><path class="cls-1" d="M125.3,182c-.4-.6-.84-1-.79-1.27a1.22,1.22,0,0,1,.86-.79c.29,0,.77.52.79.85S125.73,181.44,125.3,182Z" transform="translate(-8.73 -8.33)"/><path class="cls-2" d="M196.43,69.84c-1.07-.43-2.29-1.47-3.62,0l.37-1.89-1.81,1.31.24-2.27-2.88-1.09v-.37l2.64-.64-.27-2.16,2.78.51c1.31.25,3.07,3.35,2.73,4.71A15.1,15.1,0,0,0,196.43,69.84Z" transform="translate(-8.73 -8.33)"/><path class="cls-2" d="M34.58,338.29l1-.6a14.11,14.11,0,0,0,1.57.86q.93.45,2,.87l2.1.87c.72.28,1.39.57,2,.86q-2.33,5.85-4.42,11.79t-3.9,12c2.32-1.37,4.62-2.71,6.9-4s4.54-2.65,6.78-4.06,4.45-2.83,6.64-4.33,4.35-3.12,6.48-4.84l2.25.67,2.2.67c.74.22,1.51.44,2.29.65s1.63.41,2.51.6l-.64.67c-1.94-.29-2.91-.45-4.84-.76-1.45,2.07-2.89,4.14-4.3,6.22s-2.79,4.14-4.12,6.22-2.63,4.14-3.86,6.21-2.4,4.14-3.49,6.21c1.73.87,2.59,1.3,4.33,2.15l-.7.62c-1.09-.39-2.19-.8-3.28-1.23s-2.19-.84-3.31-1.22-2.36-.78-3.56-1.13-2.39-.72-3.57-1.1l.79-.72,4.78,1.1q3.93-5.61,7.75-11.26t7.51-11.37l-2.91,1.81L54,354.9l-3.91,2.39L46,359.78l-4,2.43c-1.29.8-2.49,1.54-3.6,2.25l-3,1.94c-.72.48-1.41,1-2.08,1.54-1.56.12-2.35.17-3.92.27C33,358.09,34.87,353,38.55,342.94c-1.77,1.62-3.54,3.26-5.3,4.89s-3.51,3.29-5.22,5-3.38,3.35-5,5-3.23,3.44-4.77,5.23l4,2.56-.9.5c-1.05-.48-2.09-1-3.12-1.49s-2.09-1-3.17-1.44S13,362.35,11.94,362s-2.15-.76-3.21-1.16l.72-.73c2,.55,3,.81,5,1.32q3.36-2.25,6.46-4.77t6-5.16c2-1.77,3.9-3.57,5.8-5.39s3.82-3.62,5.73-5.42C37,339.72,36.18,339.25,34.58,338.29Z" transform="translate(-8.73 -8.33)"/><path class="cls-2" d="M87.78,364.27,85,367.84q-1.42,1.79-2.79,3.65c-.91,1.24-1.8,2.52-2.65,3.84a41.44,41.44,0,0,0-2.38,4.14c-.07.14-.16.3-.26.47a5,5,0,0,0-.26.52,1.09,1.09,0,0,0-.08.47.34.34,0,0,0,.25.3,1.16,1.16,0,0,0,.64,0,3.32,3.32,0,0,0,.69-.24l.71-.35a4.6,4.6,0,0,1,.68-.31c.14.26.21.4.34.66-.6.23-1.27.51-2,.84s-1.41.64-2.14.91a13.31,13.31,0,0,1-2.16.61,5.06,5.06,0,0,1-2,0,.56.56,0,0,1-.4-.28,1.08,1.08,0,0,1-.12-.5,2,2,0,0,1,.09-.59,2.49,2.49,0,0,1,.2-.54c.43-.76.9-1.5,1.4-2.24s1-1.46,1.55-2.18l1.6-2.16c.54-.72,1.06-1.45,1.57-2.18-.62.38-1.3.8-2,1.24s-1.54.89-2.37,1.33-1.69.88-2.58,1.31-1.78.83-2.67,1.2-1.78.7-2.64,1a23.46,23.46,0,0,1-2.47.7,13.43,13.43,0,0,1-2.19.31,5.21,5.21,0,0,1-1.76-.15.77.77,0,0,1-.6-.55,2.09,2.09,0,0,1,0-.93,6.84,6.84,0,0,1,.36-1.08l.43-1a17.51,17.51,0,0,1,1.45-2.61,21.54,21.54,0,0,1,2.1-2.66A28.68,28.68,0,0,1,65,368.25a26.33,26.33,0,0,1,6.48-4.08A20.42,20.42,0,0,1,75.17,363,17.49,17.49,0,0,1,79,362.5a14.84,14.84,0,0,1,3.92.5Zm-5.11,1.12c-1.53-.39-2.29-.59-3.82-1a7.9,7.9,0,0,0-2.27-.28,8.12,8.12,0,0,0-2.18.39,10,10,0,0,0-2.09,1,14.36,14.36,0,0,0-2,1.45,24,24,0,0,0-1.9,1.87,25,25,0,0,0-1.8,2.19c-.58.78-1.15,1.59-1.69,2.45s-1.07,1.72-1.59,2.6c-.08.14-.16.31-.25.51a3.47,3.47,0,0,0-.19.57,1,1,0,0,0,0,.49.4.4,0,0,0,.33.27,4.58,4.58,0,0,0,1.88-.09,16.23,16.23,0,0,0,2.55-.85,27.47,27.47,0,0,0,3-1.43q1.56-.86,3.09-1.86c1-.68,2-1.38,3-2.12a32.72,32.72,0,0,0,2.64-2.21,25.64,25.64,0,0,0,2.08-2.09,8.74,8.74,0,0,0,1.21-1.86Z" transform="translate(-8.73 -8.33)"/><path class="cls-2" d="M98,366.63a.56.56,0,0,1,.48.33,1.58,1.58,0,0,1,.09.68,3.84,3.84,0,0,1-.16.82c-.09.28-.17.53-.25.75a17.76,17.76,0,0,1-.88,1.81c-.32.6-.67,1.2-1,1.78s-.74,1.18-1.12,1.77-.75,1.17-1.1,1.76c.46-.38,1-.78,1.52-1.22l1.73-1.34q.9-.69,1.86-1.38c.64-.46,1.27-.9,1.9-1.31s1.24-.79,1.84-1.14a18.22,18.22,0,0,1,1.7-.88,8.59,8.59,0,0,1,1.48-.5,2.57,2.57,0,0,1,1.17,0,1.19,1.19,0,0,1,.58.32,2.06,2.06,0,0,1,.42.55,1.6,1.6,0,0,1,.16.65,1.08,1.08,0,0,1-.16.63,3.13,3.13,0,0,1-.74.88,7,7,0,0,1-1,.72c-.35.21-.73.41-1.12.6l-1.16.53c-.07-.22-.13-.42-.19-.58a1.75,1.75,0,0,0-.22-.43,1.33,1.33,0,0,0-.29-.29,1.53,1.53,0,0,0-.41-.19,2.73,2.73,0,0,0-1.55.09,8.09,8.09,0,0,0-1.87.91,18.43,18.43,0,0,0-2.09,1.54c-.73.61-1.47,1.28-2.21,2s-1.49,1.5-2.23,2.32-1.45,1.63-2.12,2.45-1.31,1.62-1.91,2.42-1.12,1.53-1.57,2.22c-1.78.32-2.67.47-4.46.76.87-1.33,1.74-2.67,2.63-4s1.76-2.67,2.63-4,1.73-2.67,2.56-4,1.63-2.69,2.4-4.06a1.28,1.28,0,0,0,.14-.37,1.48,1.48,0,0,0,0-.42.89.89,0,0,0-.11-.36.32.32,0,0,0-.27-.16,2,2,0,0,0-.78.06c-.25.07-.51.16-.77.26l-.78.34a7.28,7.28,0,0,1-.77.31l-.27-.49.44-.26.77-.45,1-.56c.37-.2.76-.39,1.17-.59s.84-.38,1.28-.56.86-.33,1.28-.46a8.44,8.44,0,0,1,1.23-.28A3.68,3.68,0,0,1,98,366.63Z" transform="translate(-8.73 -8.33)"/><path class="cls-2" d="M115.35,370a.54.54,0,0,1,.49.31,1.54,1.54,0,0,1,.13.67,3.34,3.34,0,0,1-.13.83,6.61,6.61,0,0,1-.22.76,17.73,17.73,0,0,1-.79,1.85c-.3.61-.63,1.22-1,1.83s-.69,1.2-1,1.81-.69,1.2-1,1.81c.44-.4.93-.83,1.46-1.29l1.67-1.42c.58-.49,1.17-1,1.79-1.46s1.23-1,1.84-1.39,1.2-.85,1.78-1.22a18.22,18.22,0,0,1,1.66-.95,7.53,7.53,0,0,1,1.45-.57,2.72,2.72,0,0,1,1.17-.08,1.22,1.22,0,0,1,.59.29,1.77,1.77,0,0,1,.44.54,1.65,1.65,0,0,1,.2.64,1.19,1.19,0,0,1-.13.64,3.67,3.67,0,0,1-.71.9,6.33,6.33,0,0,1-1,.76,9.34,9.34,0,0,1-1.1.65l-1.13.58c-.08-.21-.15-.4-.22-.56a1.72,1.72,0,0,0-.23-.42,1.18,1.18,0,0,0-.31-.28,1.32,1.32,0,0,0-.41-.17,2.74,2.74,0,0,0-1.55.16,7.87,7.87,0,0,0-1.82,1,19.49,19.49,0,0,0-2,1.63c-.7.64-1.4,1.34-2.11,2.11s-1.42,1.56-2.12,2.41-1.37,1.69-2,2.54-1.24,1.68-1.8,2.5-1,1.59-1.47,2.3c-1.76.39-2.64.58-4.41,1l2.45-4.07q1.23-2,2.45-4.08c.81-1.36,1.61-2.73,2.38-4.1s1.51-2.77,2.22-4.16a2.4,2.4,0,0,0,.12-.38,1,1,0,0,0,0-.43.71.71,0,0,0-.13-.34.33.33,0,0,0-.28-.16,2.18,2.18,0,0,0-.76.1,7.15,7.15,0,0,0-.77.29l-.75.38a7.35,7.35,0,0,1-.76.34l-.29-.48.42-.27.75-.49,1-.6c.36-.21.75-.43,1.15-.64l1.24-.62c.42-.2.85-.37,1.26-.52a10.52,10.52,0,0,1,1.22-.34A5,5,0,0,1,115.35,370Z" transform="translate(-8.73 -8.33)"/><path class="cls-2" d="M132.34,372.43a.58.58,0,0,1,.41.2,1.36,1.36,0,0,1,.26.41,1.84,1.84,0,0,1,.1.52,1.43,1.43,0,0,1-.09.5c-.57,1.28-1.19,2.54-1.87,3.8s-1.38,2.5-2.09,3.75-1.41,2.51-2.1,3.77-1.32,2.56-1.89,3.87a1.71,1.71,0,0,0-.13.38,2,2,0,0,0,0,.42,1.06,1.06,0,0,0,.09.35.29.29,0,0,0,.27.13,2.32,2.32,0,0,0,.78-.17,5.17,5.17,0,0,0,.75-.36c.25-.14.49-.29.73-.45a5.3,5.3,0,0,1,.73-.42,2.55,2.55,0,0,0,.13.29c0,.1.09.2.14.3-.65.54-1.35,1.07-2.11,1.59a23.6,23.6,0,0,1-2.25,1.41,13.52,13.52,0,0,1-2.19,1,4.84,4.84,0,0,1-1.85.27.62.62,0,0,1-.47-.25,1.22,1.22,0,0,1-.23-.52,1.78,1.78,0,0,1,0-.65,2,2,0,0,1,.16-.6c.61-1.29,1.27-2.56,2-3.83s1.45-2.52,2.19-3.77,1.47-2.52,2.19-3.78,1.39-2.54,2-3.84a1.56,1.56,0,0,0,.15-.41,1.76,1.76,0,0,0,.06-.46.79.79,0,0,0-.07-.37.28.28,0,0,0-.27-.15,1.6,1.6,0,0,0-.75.15,4.89,4.89,0,0,0-.72.37c-.24.15-.48.3-.71.46a7.53,7.53,0,0,1-.73.41l-.53-.64a15.5,15.5,0,0,0,2-1.09c.7-.43,1.39-.83,2.08-1.23a16.22,16.22,0,0,1,2-1A4.18,4.18,0,0,1,132.34,372.43Zm3.16-8.62a1.6,1.6,0,0,1,.66.24,1.94,1.94,0,0,1,.55.48,1.44,1.44,0,0,1,.3.62.84.84,0,0,1-.07.64,5,5,0,0,1-.63,1,5.29,5.29,0,0,1-.89.88,3.64,3.64,0,0,1-1.07.6,2.42,2.42,0,0,1-1.16.14,1.35,1.35,0,0,1-1-.57,1.78,1.78,0,0,1-.13-1.39,3.61,3.61,0,0,1,1.23-1.94,3.26,3.26,0,0,1,1-.55A2.77,2.77,0,0,1,135.5,363.81Z" transform="translate(-8.73 -8.33)"/><path class="cls-2" d="M159.16,375.12c-.67,1.33-1.37,2.67-2.12,4s-1.41,2.71-2.08,4.09-1.31,2.8-1.92,4.25a42.09,42.09,0,0,0-1.58,4.5l-.18.52a5.12,5.12,0,0,0-.15.56,1.24,1.24,0,0,0,0,.47.35.35,0,0,0,.3.25,1.08,1.08,0,0,0,.64-.08,3.94,3.94,0,0,0,.63-.36l.63-.47a5.16,5.16,0,0,1,.61-.43l.45.59c-.55.34-1.13.73-1.75,1.18s-1.27.88-1.93,1.28a13.83,13.83,0,0,1-2,1,5.29,5.29,0,0,1-2,.37.58.58,0,0,1-.44-.21.92.92,0,0,1-.21-.47,2,2,0,0,1,0-.6,3.45,3.45,0,0,1,.1-.56c.29-.82.62-1.64,1-2.45s.73-1.62,1.12-2.43.79-1.61,1.19-2.41.78-1.62,1.14-2.43l-1.78,1.59c-.65.59-1.35,1.15-2.08,1.73s-1.5,1.17-2.29,1.76-1.58,1.13-2.39,1.66-1.61,1-2.4,1.45-1.51.79-2.29,1.13a13.78,13.78,0,0,1-2.08.71,6,6,0,0,1-1.74.17.78.78,0,0,1-.69-.43,2.07,2.07,0,0,1-.15-.92,6.15,6.15,0,0,1,.16-1.13c.1-.39.18-.74.25-1a16.59,16.59,0,0,1,1-2.82,22.51,22.51,0,0,1,1.57-3,27.48,27.48,0,0,1,2.12-3,26.22,26.22,0,0,1,2.6-2.77,27.76,27.76,0,0,1,3-2.41,20.69,20.69,0,0,1,3.35-1.86,17.39,17.39,0,0,1,3.66-1.12,14.72,14.72,0,0,1,3.92-.22C156.21,374.94,157.19,375,159.16,375.12Zm-4.79,2c-1.57-.11-2.35-.17-3.91-.3a7.51,7.51,0,0,0-2.27.14,8,8,0,0,0-2.06.77,9.43,9.43,0,0,0-1.87,1.32,14.24,14.24,0,0,0-1.68,1.79,20.23,20.23,0,0,0-1.53,2.17c-.48.78-.94,1.61-1.37,2.48s-.84,1.78-1.22,2.71-.74,1.89-1.09,2.85q-.08.24-.15.54a3.11,3.11,0,0,0-.09.6,1,1,0,0,0,.09.48.39.39,0,0,0,.37.21,4.42,4.42,0,0,0,1.82-.43,14.79,14.79,0,0,0,2.34-1.29,31.26,31.26,0,0,0,2.63-1.94c.91-.74,1.8-1.54,2.68-2.39s1.73-1.71,2.54-2.62,1.54-1.78,2.19-2.64a26.61,26.61,0,0,0,1.65-2.43,9.32,9.32,0,0,0,.93-2Z" transform="translate(-8.73 -8.33)"/><path class="cls-2" d="M184.9,375.87c-.57,1.05-1.1,2.11-1.59,3.19s-.94,2.15-1.37,3.23-.83,2.16-1.21,3.25-.75,2.17-1.11,3.24L178.55,392c-.36,1.06-.72,2.11-1.1,3.15s-.77,2-1.18,3-.87,2-1.34,2.92a28,28,0,0,1-3.3,5.16,30.71,30.71,0,0,1-2.18,2.39,26.07,26.07,0,0,1-2.52,2.16,22.19,22.19,0,0,1-6.07,3.22,22.37,22.37,0,0,1-3.52.88,21.45,21.45,0,0,1-3.84.28,5.6,5.6,0,0,1-1.35-.22,4.61,4.61,0,0,1-1.29-.55,3,3,0,0,1-.9-.83,1.32,1.32,0,0,1-.23-1,1.1,1.1,0,0,1,.19-.46,3.39,3.39,0,0,1,.33-.42l.39-.41a3.6,3.6,0,0,0,.37-.41c.58.19,1.15.39,1.7.62l1.69.67c.56.21,1.14.39,1.73.55A8.52,8.52,0,0,0,158,413a9,9,0,0,0,3.56-.51,11.22,11.22,0,0,0,3.1-1.72,16.28,16.28,0,0,0,2.71-2.73,29.72,29.72,0,0,0,2.36-3.53q1.09-1.92,2.07-4.09t1.86-4.47q.88-2.3,1.71-4.64c.55-1.56,1.08-3.1,1.61-4.61-.62.68-1.28,1.37-2,2.06s-1.46,1.37-2.23,2-1.55,1.31-2.34,1.93-1.59,1.2-2.36,1.74-1.54,1-2.27,1.47a19,19,0,0,1-2.07,1.13,12.64,12.64,0,0,1-1.76.7,3.8,3.8,0,0,1-1.34.21.91.91,0,0,1-.75-.4,2,2,0,0,1-.28-.91,4.2,4.2,0,0,1,0-1.12,6.81,6.81,0,0,1,.2-1,28.3,28.3,0,0,1,3.24-7.74,25.77,25.77,0,0,1,4.89-5.87,23.06,23.06,0,0,1,2.86-2.16,20,20,0,0,1,3-1.58,16.49,16.49,0,0,1,3.15-1,14.88,14.88,0,0,1,3.19-.31C182,375.87,183,375.88,184.9,375.87Zm-4.5,2.33-4.35-.06a5.8,5.8,0,0,0-2.26.37,7.62,7.62,0,0,0-2,1.09,10.43,10.43,0,0,0-1.79,1.66,20.09,20.09,0,0,0-1.58,2.09c-.49.76-.95,1.55-1.37,2.37s-.8,1.67-1.16,2.51-.69,1.68-1,2.5-.56,1.59-.8,2.31c-.05.19-.1.4-.14.64a2.66,2.66,0,0,0,0,.69,1.37,1.37,0,0,0,.15.56.48.48,0,0,0,.44.2,4.53,4.53,0,0,0,1.79-.57,15.2,15.2,0,0,0,2.22-1.42c.85-.65,1.68-1.33,2.46-2.06s1.67-1.62,2.49-2.51,1.6-1.8,2.35-2.75,1.44-1.87,2.06-2.79a28.73,28.73,0,0,0,1.58-2.61A12.63,12.63,0,0,0,180.4,378.2Z" transform="translate(-8.73 -8.33)"/><path class="cls-2" d="M198.67,375.45a2.36,2.36,0,0,1,1.29.1,1.91,1.91,0,0,1,.84.62,2.11,2.11,0,0,1,.4.89,1.79,1.79,0,0,1,0,.92,6.08,6.08,0,0,1-.61,1.41,11.82,11.82,0,0,1-1,1.43,12.66,12.66,0,0,1-1.37,1.37,16.93,16.93,0,0,1-1.65,1.28c-.6.4-1.21.78-1.85,1.12a19.05,19.05,0,0,1-2,.93,19.6,19.6,0,0,1-2,.68,17.18,17.18,0,0,0-2,.38,6.79,6.79,0,0,0-.43,1.32c-.16.43-.32.87-.47,1.31s-.28.87-.4,1.31a6.55,6.55,0,0,0-.25,1.32,9.77,9.77,0,0,1-.09,1.29,3,3,0,0,0,.13,1.22,1.9,1.9,0,0,0,.69,1,2.94,2.94,0,0,0,1.57.49,3.41,3.41,0,0,0,1.67-.28,8.78,8.78,0,0,0,1.61-.91c.53-.37,1-.77,1.58-1.2s1.07-.83,1.61-1.2l.53.4c-.83.78-1.69,1.53-2.58,2.23a25.25,25.25,0,0,1-2.73,1.86,16,16,0,0,1-2.87,1.34,12.89,12.89,0,0,1-3,.67,2.8,2.8,0,0,1-1,0,2.27,2.27,0,0,1-.75-.32,1.84,1.84,0,0,1-.52-.52,2.55,2.55,0,0,1-.32-.69,5.37,5.37,0,0,1-.15-.8,5.89,5.89,0,0,1,0-.84,5.69,5.69,0,0,1,.08-.83,3.19,3.19,0,0,1,.15-.77,35.18,35.18,0,0,1,1.33-4.27,28.43,28.43,0,0,1,1.66-3.64,26.4,26.4,0,0,1,1.95-3.06,26.76,26.76,0,0,1,2.13-2.5,20.25,20.25,0,0,1,2.24-2,17.59,17.59,0,0,1,2.27-1.47,16.5,16.5,0,0,1,2.23-1A13.69,13.69,0,0,1,198.67,375.45Zm-9.46,10a8.13,8.13,0,0,0,2.63-.46,8.79,8.79,0,0,0,2.36-1.21A7.42,7.42,0,0,0,196,382a5.62,5.62,0,0,0,.91-2.3,1.84,1.84,0,0,0,0-.81,1.38,1.38,0,0,0-.31-.57,1.46,1.46,0,0,0-.5-.35,2.27,2.27,0,0,0-.62-.16,2.09,2.09,0,0,0-.86.12,3.74,3.74,0,0,0-.89.51,6.13,6.13,0,0,0-.89.8c-.3.32-.59.65-.86,1a12.24,12.24,0,0,0-.82,1.21c-.27.43-.51.87-.74,1.32s-.44.9-.64,1.36a14.17,14.17,0,0,0-.57,1.34Z" transform="translate(-8.73 -8.33)"/><path class="cls-2" d="M219.82,366c.14-.34.21-.52.34-.86h3a25.14,25.14,0,0,0,3-.17c.9-.11,1.8-.24,2.7-.4l2.72-.48c.91-.17,1.8-.33,2.71-.48s1.8-.29,2.7-.38a8.81,8.81,0,0,1,1.54-.05,5.63,5.63,0,0,1,1.22.19,3.17,3.17,0,0,1,.93.39,3.37,3.37,0,0,1,.67.58,2.91,2.91,0,0,1,.46.73,3.86,3.86,0,0,1,.28.83,6.91,6.91,0,0,1,.15.91v1a7.73,7.73,0,0,1-.66,3.07,10,10,0,0,1-1.92,2.84,14,14,0,0,1-3.11,2.4,19.09,19.09,0,0,1-4.22,1.78,26.82,26.82,0,0,1,2.69-.2,15.42,15.42,0,0,1,2.15.13,7.72,7.72,0,0,1,1.64.41,4.32,4.32,0,0,1,1.2.68,4.22,4.22,0,0,1,.83.91,4.17,4.17,0,0,1,.5,1.12,6,6,0,0,1,.23,1.27,11.06,11.06,0,0,1,0,1.41,10.37,10.37,0,0,1-.49,2.82,11,11,0,0,1-1.08,2.46,13.18,13.18,0,0,1-1.59,2.12,14.64,14.64,0,0,1-2,1.77,18.66,18.66,0,0,1-2.29,1.43,20.13,20.13,0,0,1-2.47,1.09,25.74,25.74,0,0,1-2.55.77c-.83.19-1.67.34-2.51.45-.68.08-1.37.14-2,.16h-4a13.14,13.14,0,0,0-2,.1c-1.07.09-2.14.19-3.2.3l-3.19.3.57-.85,4.76-1c.67-2.44,1.33-4.87,2-7.28s1.3-4.83,1.9-7.26,1.12-4.86,1.59-7.31.86-4.91,1.16-7.4C222.41,366.12,221.54,366.07,219.82,366Zm5.48,14c-1.2,6-1.83,9-3.15,15,2.39.06,3.59.08,6,.11a6.16,6.16,0,0,0,1.6-.21,7.6,7.6,0,0,0,1.55-.58,9.4,9.4,0,0,0,1.47-.94,11.27,11.27,0,0,0,2.49-2.75,11.54,11.54,0,0,0,1.59-3.6,10.34,10.34,0,0,0,.35-2,8.17,8.17,0,0,0,0-1.85,5.79,5.79,0,0,0-.4-1.48,4.54,4.54,0,0,0-.7-1.13,4.29,4.29,0,0,0-.94-.81,5.22,5.22,0,0,0-1.12-.53,7.6,7.6,0,0,0-1.24-.26,7.06,7.06,0,0,0-1.3,0,8.12,8.12,0,0,0-1.3.17C228.21,379.4,227.24,379.59,225.3,380Zm.29-1.83,3.5-.37a14,14,0,0,0,2.22-.42,10.67,10.67,0,0,0,1.81-.68,8,8,0,0,0,1.46-.89,8.33,8.33,0,0,0,1.15-1.07,8,8,0,0,0,.87-1.22,9.51,9.51,0,0,0,.67-1.31,11.17,11.17,0,0,0,.49-1.37c.14-.47.27-.94.38-1.4a4,4,0,0,0,.09-1.09,3.43,3.43,0,0,0-.21-1,3.76,3.76,0,0,0-.48-.88,3.62,3.62,0,0,0-.68-.73,4,4,0,0,0-.85-.55,4.42,4.42,0,0,0-1-.36,4.21,4.21,0,0,0-1-.12,5.11,5.11,0,0,0-1.1.15l-4.25,1.06c-1.19,4.85-1.8,7.3-3.07,12.2Z" transform="translate(-8.73 -8.33)"/><path class="cls-2" d="M254.18,369.66a.62.62,0,0,1,.53.06,1.4,1.4,0,0,1,.42.42,2,2,0,0,1,.26.62,2.26,2.26,0,0,1,.07.63,42.07,42.07,0,0,1-.58,4.33c-.26,1.44-.56,2.89-.88,4.33l-1,4.33c-.32,1.44-.59,2.89-.8,4.34a1.48,1.48,0,0,0,0,.42,1.56,1.56,0,0,0,.14.48.81.81,0,0,0,.24.34.23.23,0,0,0,.31,0,7.27,7.27,0,0,0,1.64-1.16,21.19,21.19,0,0,0,1.87-1.92c.67-.76,1.33-1.6,2-2.52s1.3-1.9,1.91-2.92,1.19-2.06,1.73-3.12,1-2.12,1.41-3.16a24.54,24.54,0,0,0,1-3,12.42,12.42,0,0,0,.42-2.64c1.53-1.26,2.28-1.9,3.78-3.18-.34,1.59-.65,3.18-.92,4.78s-.51,3.2-.73,4.8-.43,3.2-.62,4.8-.39,3.19-.59,4.78a3.23,3.23,0,0,0,0,.44,1.79,1.79,0,0,0,.09.46.69.69,0,0,0,.19.33.33.33,0,0,0,.33.06,2.55,2.55,0,0,0,.76-.41,6.25,6.25,0,0,0,.65-.61l.61-.7c.2-.23.42-.45.64-.66l.59.45q-.34.45-.75.93l-.83,1c-.29.35-.57.66-.87,1s-.59.63-.88.93-.59.59-.87.85-.56.51-.82.71a8.3,8.3,0,0,1-.74.51,2.56,2.56,0,0,1-.63.29.79.79,0,0,1-.62-.07,1.29,1.29,0,0,1-.47-.43,2.5,2.5,0,0,1-.3-.64,2.11,2.11,0,0,1-.1-.66,21.91,21.91,0,0,1,.21-2.55c.13-.86.28-1.72.44-2.58s.35-1.73.53-2.59.33-1.72.46-2.57c-.43.65-.91,1.35-1.43,2.08s-1.06,1.49-1.63,2.25-1.17,1.53-1.79,2.3-1.24,1.51-1.87,2.22-1.27,1.39-1.92,2-1.26,1.2-1.87,1.7a15.51,15.51,0,0,1-1.77,1.23,6.15,6.15,0,0,1-1.59.66.89.89,0,0,1-.6-.08,1.21,1.21,0,0,1-.46-.41,1.83,1.83,0,0,1-.28-.6,1.5,1.5,0,0,1-.07-.63,33.18,33.18,0,0,1,.71-4.2c.33-1.4.66-2.79,1-4.19s.66-2.82,1-4.24a33.74,33.74,0,0,0,.59-4.37v-.3a1.86,1.86,0,0,0-.06-.34.53.53,0,0,0-.13-.23.18.18,0,0,0-.22,0,2.19,2.19,0,0,0-.68.39,7.72,7.72,0,0,0-.61.53c-.2.19-.4.39-.59.6a5.4,5.4,0,0,1-.61.56l-.57-.47a14.93,14.93,0,0,0,1.56-1.62c.51-.59,1-1.18,1.52-1.74a15.78,15.78,0,0,1,1.54-1.52A4.55,4.55,0,0,1,254.18,369.66Z" transform="translate(-8.73 -8.33)"/><path class="cls-2" d="M279.54,364.31a.52.52,0,0,1,.57.08,1.49,1.49,0,0,1,.39.57,3.78,3.78,0,0,1,.21.8,5.37,5.37,0,0,0,.11.79c0,.67,0,1.33,0,2a18.4,18.4,0,0,1-.16,2c-.07.64-.15,1.39-.23,2.08s-.16,1.38-.21,2.07c.25-.54.52-1.13.83-1.77l1-2c.34-.67.7-1.36,1.07-2s.75-1.37,1.13-2,.77-1.26,1.16-1.84a16.86,16.86,0,0,1,1.14-1.53,6.85,6.85,0,0,1,1.12-1.1,2.72,2.72,0,0,1,1-.55,1.23,1.23,0,0,1,.66,0,1.9,1.9,0,0,1,.62.31,1.69,1.69,0,0,1,.44.52,1.24,1.24,0,0,1,.14.63,3.31,3.31,0,0,1-.29,1.12,7.32,7.32,0,0,1-.57,1.07,10.43,10.43,0,0,1-.75,1l-.81,1-.43-.44a2.14,2.14,0,0,0-.39-.28,1.07,1.07,0,0,0-.39-.14,1.69,1.69,0,0,0-.45,0,2.77,2.77,0,0,0-1.36.77,8.81,8.81,0,0,0-1.29,1.63,20.23,20.23,0,0,0-1.2,2.31c-.39.87-.75,1.79-1.1,2.78s-.68,2-1,3-.59,2.11-.84,3.14-.46,2-.64,3-.33,1.87-.44,2.69c-1.46,1.06-2.19,1.59-3.67,2.64.2-1.57.41-3.13.62-4.71s.42-3.15.62-4.72.38-3.14.54-4.71.29-3.14.38-4.7a1.34,1.34,0,0,0,0-.4,1.68,1.68,0,0,0-.16-.39.81.81,0,0,0-.25-.27.36.36,0,0,0-.32,0,1.9,1.9,0,0,0-.67.4,5.2,5.2,0,0,0-.58.57c-.19.21-.37.43-.55.65a5.4,5.4,0,0,1-.56.61l-.46-.32.28-.42.5-.74c.19-.29.41-.6.66-1a6.26,6.26,0,0,1,.8-1c.29-.31.58-.71.89-1.06a10.49,10.49,0,0,1,1-1,10.84,10.84,0,0,1,1-.79A4,4,0,0,1,279.54,364.31Z" transform="translate(-8.73 -8.33)"/><path class="cls-2" d="M302.26,357.87a2.4,2.4,0,0,1,1.29-.24,1.92,1.92,0,0,1,1,.38,2.08,2.08,0,0,1,.62.76,1.83,1.83,0,0,1,.21.89,5.18,5.18,0,0,1-.23,1.52,9.68,9.68,0,0,1-.63,1.65,12.51,12.51,0,0,1-1,1.69,17.05,17.05,0,0,1-1.28,1.66,18.66,18.66,0,0,1-1.51,1.57,17.41,17.41,0,0,1-1.68,1.41,17.84,17.84,0,0,1-1.79,1.18c-.62.27-1.23.56-1.82.89a8,8,0,0,0-.08,1.38c0,.47-.08.93-.11,1.39s0,.92-.06,1.37a7.5,7.5,0,0,0,.11,1.34c.07.41.15.83.23,1.27a3.37,3.37,0,0,0,.45,1.15,1.94,1.94,0,0,0,.92.75,3,3,0,0,0,1.66.07,3.47,3.47,0,0,0,1.56-.71,9.08,9.08,0,0,0,1.33-1.3c.42-.49.83-1,1.23-1.57a18.57,18.57,0,0,1,1.26-1.58l.62.25a33.42,33.42,0,0,1-1.94,2.82,23.73,23.73,0,0,1-2.18,2.52,18,18,0,0,1-2.45,2,13,13,0,0,1-2.75,1.42,3.16,3.16,0,0,1-1,.23,2.48,2.48,0,0,1-.81-.11,1.81,1.81,0,0,1-.64-.38,3,3,0,0,1-.49-.58,4.08,4.08,0,0,1-.35-.73c-.09-.26-.17-.53-.24-.8a5.74,5.74,0,0,1-.13-.83,4.93,4.93,0,0,0-.06-.78,37.14,37.14,0,0,1,.19-4.47,31.82,31.82,0,0,1,.68-4,26.15,26.15,0,0,1,1.11-3.45,25.74,25.74,0,0,1,1.43-3,19.67,19.67,0,0,1,1.67-2.49,18.33,18.33,0,0,1,1.84-2,15,15,0,0,1,1.92-1.55A13.71,13.71,0,0,1,302.26,357.87ZM295.63,370a8.47,8.47,0,0,0,2.44-1.13,9,9,0,0,0,2-1.79,7.74,7.74,0,0,0,1.26-2.24,5.61,5.61,0,0,0,.29-2.47,1.77,1.77,0,0,0-.23-.77,1.35,1.35,0,0,0-.45-.47,1.46,1.46,0,0,0-.57-.21,2.36,2.36,0,0,0-.65,0,1.89,1.89,0,0,0-.81.35,3.56,3.56,0,0,0-.74.71,6.65,6.65,0,0,0-.66,1q-.3.57-.57,1.23a11.41,11.41,0,0,0-.48,1.39c-.15.48-.27,1-.38,1.46s-.2,1-.28,1.49S295.66,369.58,295.63,370Z" transform="translate(-8.73 -8.33)"/><path class="cls-2" d="M325.79,350c-.1,1.51-.21,3-.32,4.55s-.19,3-.25,4.59-.06,3.1,0,4.67a44.66,44.66,0,0,0,.37,4.76v.54a5.62,5.62,0,0,0,.09.57,1,1,0,0,0,.19.44.34.34,0,0,0,.38.1,1.08,1.08,0,0,0,.55-.33,3.12,3.12,0,0,0,.44-.59c.14-.22.26-.46.39-.69A4.3,4.3,0,0,1,328,368l.66.36q-.56.8-1.14,1.8c-.39.67-.81,1.32-1.26,2a12.73,12.73,0,0,1-1.46,1.73,5.09,5.09,0,0,1-1.7,1.16.6.6,0,0,1-.49,0,1.06,1.06,0,0,1-.38-.35,2.73,2.73,0,0,1-.27-.54,3.39,3.39,0,0,1-.13-.55c-.07-.87-.11-1.75-.11-2.64s0-1.78.05-2.68.06-1.79.1-2.69.06-1.8.06-2.69c-.29.67-.62,1.4-1,2.19s-.77,1.6-1.21,2.44-.91,1.68-1.39,2.54-1,1.69-1.54,2.5-1.07,1.59-1.62,2.32a24.33,24.33,0,0,1-1.65,2,12.74,12.74,0,0,1-1.62,1.5,5.57,5.57,0,0,1-1.54.87.79.79,0,0,1-.81-.11,2,2,0,0,1-.51-.78,5.13,5.13,0,0,1-.31-1.1c-.08-.39-.14-.74-.2-1a16.75,16.75,0,0,1-.28-3,22.49,22.49,0,0,1,.22-3.38,29.31,29.31,0,0,1,.74-3.59,25.6,25.6,0,0,1,1.26-3.6,26,26,0,0,1,1.79-3.43,20.59,20.59,0,0,1,2.33-3.08,17.62,17.62,0,0,1,2.91-2.54,15.4,15.4,0,0,1,3.54-1.82C323,351,323.92,350.68,325.79,350Zm-3.61,3.83-3.74,1.34a7.86,7.86,0,0,0-2,1.07,8.05,8.05,0,0,0-1.59,1.55,10.35,10.35,0,0,0-1.19,2,15.69,15.69,0,0,0-.82,2.33,21.3,21.3,0,0,0-.52,2.62q-.18,1.36-.24,2.82v3c0,1,.08,2,.16,3a3.43,3.43,0,0,0,.08.56,3.83,3.83,0,0,0,.16.58,1.07,1.07,0,0,0,.28.41.4.4,0,0,0,.42,0,4.57,4.57,0,0,0,1.51-1.14,16.11,16.11,0,0,0,1.63-2.14A28.86,28.86,0,0,0,318,369c.54-1,1-2.15,1.5-3.28a36.47,36.47,0,0,0,1.27-3.44c.38-1.16.7-2.26,1-3.31a18,18,0,0,0,.53-2.91,8.34,8.34,0,0,0-.07-2.23Z" transform="translate(-8.73 -8.33)"/><path class="cls-2" d="M335.48,346.17a.64.64,0,0,1,.54-.06,1.29,1.29,0,0,1,.5.33,1.71,1.71,0,0,1,.38.54,2.49,2.49,0,0,1,.2.6c.18,1.45.29,2.9.33,4.37s0,2.94,0,4.42l-.06,4.45c0,1.48,0,3,.11,4.42a1.17,1.17,0,0,0,.1.41,1.82,1.82,0,0,0,.24.43.86.86,0,0,0,.31.29.27.27,0,0,0,.32,0,7.44,7.44,0,0,0,1.38-1.48,22.75,22.75,0,0,0,1.46-2.29,26.83,26.83,0,0,0,1.43-2.89c.43-1,.91-2.14,1.3-3.27s.76-2.27,1.07-3.43.56-2.29.75-3.39a25.56,25.56,0,0,0,.35-3.14,13.25,13.25,0,0,0-.13-2.67c1.25-1.57,1.87-2.36,3.09-3.94,0,1.63,0,3.26.08,4.88s.15,3.24.26,4.86.23,3.22.37,4.83.28,3.21.41,4.81a2.14,2.14,0,0,0,.08.44,1.63,1.63,0,0,0,.18.43.77.77,0,0,0,.26.28.3.3,0,0,0,.34,0,2.77,2.77,0,0,0,.67-.56,5.4,5.4,0,0,0,.51-.74l.47-.81a8.09,8.09,0,0,1,.5-.79l.68.31c-.17.34-.36.7-.56,1.08l-.61,1.13c-.21.38-.44.77-.67,1.15s-.45.75-.68,1.11-.46.7-.69,1-.45.61-.67.86a7.69,7.69,0,0,1-.62.66,2.33,2.33,0,0,1-.57.42.79.79,0,0,1-.62.07,1.49,1.49,0,0,1-.56-.32,2.14,2.14,0,0,1-.43-.56,2.41,2.41,0,0,1-.24-.63,19.79,19.79,0,0,1-.31-2.54c0-.87-.09-1.74-.1-2.62s0-1.76,0-2.65,0-1.75-.08-2.62c-.29.73-.62,1.52-1,2.35s-.75,1.68-1.16,2.56-.84,1.74-1.29,2.63-.92,1.74-1.4,2.58-1,1.63-1.48,2.39a20.5,20.5,0,0,1-1.51,2.07,14.92,14.92,0,0,1-1.5,1.58,6,6,0,0,1-1.44,1,.89.89,0,0,1-.6.06,1.48,1.48,0,0,1-.55-.3,1.9,1.9,0,0,1-.4-.53,1.69,1.69,0,0,1-.2-.61,33.72,33.72,0,0,1-.17-4.26c0-1.43.08-2.87.14-4.32s.07-2.89.07-4.35a30.91,30.91,0,0,0-.32-4.4,1.63,1.63,0,0,0-.07-.3,1.07,1.07,0,0,0-.13-.31.72.72,0,0,0-.18-.21.17.17,0,0,0-.21,0,3.35,3.35,0,0,0-.6.53,6.36,6.36,0,0,0-.5.66c-.15.23-.31.46-.46.7a5.6,5.6,0,0,1-.49.68l-.66-.33a18.3,18.3,0,0,0,1.22-1.92c.37-.69.75-1.37,1.14-2a16.9,16.9,0,0,1,1.21-1.82A4.62,4.62,0,0,1,335.48,346.17Z" transform="translate(-8.73 -8.33)"/></svg>