<?xml version="1.0" encoding="utf-8"?>
<!-- Generator: Adobe Illustrator 24.0.1, SVG Export Plug-In . SVG Version: 6.00 Build 0)  -->
<svg version="1.1" id="Layer_1" xmlns="http://www.w3.org/2000/svg" xmlns:xlink="http://www.w3.org/1999/xlink" x="0px" y="0px"
	 viewBox="0 0 347.4 406.8" style="enable-background:new 0 0 347.4 406.8;" xml:space="preserve">
<style type="text/css">
	.st0{fill:#FFFFFF;}
	.st1{fill:#C27E2A;}
	.st2{fill:#0B173C;}
</style>
<path class="st0" d="M310.4,373.4h-273c-20.7,0-37.5-16.8-37.5-37.5v-273c0-20.7,16.8-37.5,37.5-37.5h273
	c20.7,0,37.5,16.8,37.5,37.5v273C347.9,356.6,331.1,373.4,310.4,373.4z"/>
<title>aryan</title>
<g>
	<path class="st1" d="M173.5,234.2c-2.5,0.1-5-0.3-7.4-1.1c-1.9-0.6-3.8-1.6-5.3-2.9c-1.4-1.2-2.5-2.6-3.3-4.3
		c-0.8-1.6-1.2-3.4-1.3-5.2c-0.1-1.9,0.1-3.8,0.6-5.7c0.6-2,1.4-3.9,2.5-5.7c1.2-1.9,2.7-3.7,4.3-5.2c1.8-1.7,3.9-3.2,6.1-4.3
		c2.5-1.3,5.1-2.2,7.8-2.9c3.1-0.7,6.3-1.1,9.4-1.1c2.2-0.1,4.4,0.2,6.5,0.8c1.5,0.4,2.8,1.2,3.9,2.2c0.9,0.8,1.4,2,1.6,3.1
		c0.2,1.2,0,2.4-0.4,3.6c-0.5,1.3-1.2,2.5-2.1,3.6c-1,1.2-2.2,2.3-3.5,3.1c-1.4,1-3,1.7-4.6,2.2c-1.7,0.6-3.5,0.8-5.3,0.8
		c-1.6,0-3.3-0.2-4.8-0.7c-1.1-0.3-2.1-0.9-3-1.8c-0.7-0.7-1.2-1.5-1.4-2.5c-0.2-0.9-0.2-1.9,0-2.9c0.2-1,0.6-2,1.1-2.9
		c0.6-0.9,1.2-1.8,2-2.5c0.8-0.7,1.7-1.3,2.7-1.8c1-0.4,2-0.7,3.1-0.7c0,0,0,0.1,0,0.1c0,0,0,0.1,0,0.1c-1,0-1.9,0.2-2.8,0.6
		c-0.9,0.4-1.7,1-2.3,1.7c-0.7,0.7-1.3,1.5-1.7,2.4c-0.5,0.8-0.8,1.8-0.9,2.7c-0.2,0.9-0.1,1.9,0.1,2.8c0.2,0.9,0.6,1.7,1.2,2.4
		c0.7,0.8,1.6,1.3,2.6,1.7c1.3,0.5,2.8,0.7,4.2,0.6c1.6,0,3.3-0.3,4.8-0.8c1.5-0.5,2.9-1.2,4.2-2.1c1.2-0.8,2.3-1.8,3.3-3
		c0.9-1,1.6-2.2,2.1-3.4c0.4-1.1,0.6-2.2,0.5-3.4c-0.1-1.1-0.6-2.2-1.4-3c-1-1-2.2-1.7-3.6-2.1c-2-0.6-4-0.8-6.1-0.8
		c-2.7,0-5.4,0.3-8,1c-2.4,0.7-4.7,1.6-6.9,2.8c-4,2.3-7.4,5.4-10,9.2c-1.1,1.7-2.1,3.6-2.7,5.5c-0.6,1.8-1,3.6-1.1,5.5
		c-0.1,1.7,0.2,3.4,0.7,5c0.6,1.6,1.5,3,2.7,4.2c1.4,1.3,3,2.2,4.8,2.8c2.3,0.7,4.7,1.1,7.1,1c2.9,0,5.8-0.5,8.5-1.4
		c2.9-1,5.6-2.4,8.2-4c0.2-2,0.6-3.9,1.3-5.7c0.7-2,1.7-4,2.8-5.8c1.2-2,2.6-3.8,4.2-5.5c1.6-1.8,3.5-3.4,5.4-4.7
		c2-1.4,4.2-2.6,6.5-3.5c2.4-0.9,4.9-1.6,7.4-1.8c1.2-1.5,2.4-3,3.5-4.4c1.1-1.4,2.2-2.7,3.2-4c1.8-2.2,3.6-4.3,5.4-6.4
		s3.7-4,5.5-5.9c1.9-1.8,3.7-3.5,5.5-5.1c1.7-1.5,3.5-2.9,5.3-4.2c-0.7-0.6-1.4-1.3-2.3-1.9c-0.8-0.6-1.7-1.2-2.6-1.7
		c-1-0.5-2.1-0.9-3.2-1.2c-1.3-0.3-2.6-0.5-4-0.5c-1.3,0-2.5,0.2-3.7,0.6c-1.1,0.3-2,0.8-3,1.5c-0.8,0.6-1.6,1.3-2.2,2.1
		c-0.5,0.7-0.9,1.5-1.2,2.4c-0.2,0.8-0.3,1.6-0.3,2.4c0.1,0.7,0.3,1.5,0.7,2.1c0.5,0.7,1.1,1.2,1.8,1.5c0.9,0.4,1.9,0.6,3,0.6
		c1,0,2.1-0.2,3-0.7c0.8-0.4,1.6-0.9,2.3-1.6c0.6-0.5,1.1-1.1,1.6-1.8c0.4-0.6,0.7-1,0.9-1.3h0.2c-0.6,1.1-1.3,2-2.1,2.9
		c-0.4,0.4-0.8,0.7-1.2,1.1c-0.5,0.3-1,0.7-1.5,0.9c-0.6,0.3-1.2,0.5-1.8,0.6c-0.7,0.2-1.4,0.3-2,0.3c-1,0-2.1-0.2-3-0.6
		c-1.5-0.7-2.5-2.2-2.6-3.8c-0.1-0.9,0.1-1.7,0.3-2.6c0.3-0.9,0.8-1.8,1.3-2.6c0.6-0.9,1.4-1.6,2.3-2.2c1-0.7,2-1.2,3.2-1.6
		c1.3-0.4,2.6-0.6,4-0.6c1.5,0,3,0.1,4.5,0.4c1.2,0.3,2.3,0.7,3.4,1.2c0.9,0.5,1.8,1,2.6,1.7c0.8,0.6,1.4,1.3,2.2,1.9
		c2-1.4,4.1-2.6,6.3-3.5c1.7-0.8,3.6-1.2,5.5-1.3c1.1-0.1,2.1,0.2,3,0.8c0.7,0.5,1.2,1.1,1.4,1.9c0.2,0.8,0.2,1.7-0.1,2.5
		c-0.3,0.9-0.8,1.8-1.4,2.5c-0.7,0.8-1.6,1.5-2.6,1.9c-1.1,0.5-2.4,0.8-3.6,0.8c-0.9,0-1.7-0.1-2.5-0.4c-0.8-0.2-1.5-0.6-2.2-1
		c-3.6,6.2-6.7,12-9.3,17.1s-4.8,9.9-6.7,14.1c0.8,1.2,1.4,2.6,1.6,4.1c0.2,1.5,0.2,3.1-0.1,4.6c-0.3,1.6-0.7,3.2-1.3,4.7
		c-0.6,1.5-1.3,3-2.2,4.4c-0.8,1.3-1.7,2.5-2.6,3.7c-0.8,1-1.7,1.8-2.7,2.6c-0.2,1.7-0.2,3.4-0.1,5c0.1,1.3,0.3,2.5,0.7,3.8
		c1.9-0.6,3.8-1.2,5.6-1.8c1.8-0.6,3.5-1.1,5-1.6c1.5-0.5,2.9-0.9,4.2-1.2c1-0.3,2.1-0.4,3.2-0.5c0.9,0,1.9,0.1,2.7,0.5
		c0.6,0.2,1,0.7,1.2,1.3c0.1,0.6,0.1,1.3-0.2,1.8c-0.3,0.8-0.8,1.5-1.3,2.1c-0.7,0.8-1.4,1.5-2.3,2.1c-0.9,0.7-2,1.3-3,1.8
		c-1.1,0.6-2.4,1-3.6,1.3c-1.3,0.3-2.6,0.5-3.9,0.5c-2.2,0.1-4.4-0.4-6.4-1.4c-1.5-0.8-2.8-2.2-3.5-3.8c-2.3,0.6-4.6,1.2-7,1.7
		c-2.3,0.5-4.6,0.9-7,1.1c-2.2,0.2-4.4,0.3-6.6,0.2c-2-0.1-4-0.5-5.9-1.1c-1.8-0.6-3.4-1.6-4.8-2.8c-1.5-1.4-2.6-3-3.4-4.9
		c-0.3-0.8-0.6-1.6-0.7-2.4c-0.2-0.9-0.2-1.8-0.2-2.7c-2.6,1.4-5.4,2.6-8.2,3.5C179.2,233.8,176.3,234.2,173.5,234.2z M190.6,229.2
		c0,1,0,1.9,0.2,2.9c0.2,0.9,0.4,1.8,0.8,2.6c0.6,1.4,1.5,2.7,2.5,3.8c1,1,2.1,1.9,3.3,2.6c1.2,0.7,2.5,1.2,3.9,1.6
		c1.4,0.4,2.9,0.6,4.4,0.7c1.6,0.1,3.2,0,4.8-0.1c1.6-0.1,3.3-0.4,5-0.7c1.7-0.3,3.4-0.7,5-1.1s3.4-0.9,5-1.4
		c-0.5-1.2-0.8-2.6-0.9-3.9c-0.1-1.5-0.1-3.1,0.1-4.6c0.2-1.8,0.6-3.5,1-5.3c0.5-1.9,1.1-3.8,1.7-5.7c0.7-2,1.4-4,2.3-6.1
		c0.9-2.1,1.8-4.2,2.7-6.3c-0.6-0.9-1.3-1.8-2-2.5c-0.8-0.8-1.7-1.4-2.7-2c-1.1-0.6-2.2-1-3.3-1.3c-1.3-0.3-2.6-0.5-3.9-0.5
		c-1.4,1.7-2.9,3.5-4.5,5.2c-1.6,1.7-3.1,3.5-4.7,5.1c-1.6,1.7-3.3,3.3-4.9,4.9c-1.7,1.6-3.4,3.1-5.1,4.6c-1.7,1.4-3.5,2.8-5.3,4.1
		C194.3,227,192.5,228.1,190.6,229.2L190.6,229.2z M217.1,202.1c-2.3,0.3-4.5,1-6.6,1.9c-2.1,0.9-4.2,2-6,3.4
		c-1.9,1.3-3.6,2.8-5.2,4.5c-1.6,1.6-3,3.3-4.2,5.2c-1.2,1.7-2.1,3.6-2.9,5.5c-0.7,1.8-1.2,3.6-1.4,5.5c2.6-1.6,5-3.5,7.3-5.4
		c2.4-2,4.7-4.2,6.9-6.5s4.4-4.6,6.5-7C213.3,206.7,215.3,204.3,217.1,202.1L217.1,202.1z M226.7,194.4l-2.7,3.3
		c-0.9,1.1-1.8,2.2-2.8,3.4c1.5,0,2.9,0.1,4.4,0.3c1.2,0.2,2.4,0.4,3.5,0.8c1,0.3,1.9,0.8,2.8,1.3c0.8,0.5,1.5,1,2.1,1.7
		c1.4-2.9,2.8-5.7,4.3-8.6c1.5-2.9,3-5.6,4.4-8.2c1.4-2.6,2.8-5.1,4.2-7.4c1.3-2.3,2.5-4.4,3.6-6.2c-0.6-0.4-1.1-0.8-1.6-1.2
		c-0.5-0.4-1-0.9-1.6-1.4c-3.4,2.9-6.6,6-9.5,9.3C234.3,185.3,230.6,189.6,226.7,194.4L226.7,194.4z M233.5,209.6
		c-1.6,3.8-2.9,7.6-4,11.5c-0.8,2.9-1.4,5.8-1.8,8.8c1.6-1.5,3-3.1,4.2-5c1-1.6,1.8-3.4,2.3-5.3c0.5-1.7,0.6-3.5,0.5-5.2
		C234.5,212.7,234.1,211.1,233.5,209.6z M235.9,245.1c1.5,0,2.9-0.2,4.3-0.7c1.3-0.5,2.6-1.1,3.8-1.8c1.1-0.7,2-1.5,2.9-2.4
		c0.7-0.7,1.2-1.5,1.5-2.4c0.3-0.6,0.2-1.3-0.2-1.8c-0.4-0.5-1.2-0.7-2.4-0.7c-1,0-2.1,0.2-3.1,0.4c-1.2,0.3-2.6,0.6-4.1,1
		c-1.5,0.4-3.1,0.9-4.9,1.4c-1.7,0.6-3.5,1.1-5.4,1.6c0.4,1,0.9,1.9,1.5,2.7c0.6,0.7,1.2,1.2,1.9,1.7c0.7,0.4,1.4,0.7,2.1,0.8
		C234.6,245,235.3,245.1,235.9,245.1L235.9,245.1z M247.9,171.7c0.5,0.5,0.9,0.9,1.4,1.3c0.5,0.4,1,0.8,1.5,1.2
		c1-1.7,1.7-3.1,2.3-4.2c0.5-0.8,0.8-1.6,1.1-2.5c-1.1,0.5-2.1,1.1-3.1,1.7C250.1,170,249,170.8,247.9,171.7z M258.8,166.3
		c-1.1,0-2.2,0.2-3.2,0.6c-0.8,1.3-1.6,2.6-2.3,3.8c-0.7,1.2-1.4,2.5-2.2,3.7c0.6,0.4,1.3,0.7,2,0.9c0.8,0.2,1.7,0.3,2.5,0.3
		c1.2,0,2.4-0.2,3.5-0.7c0.9-0.4,1.7-1,2.4-1.7c0.6-0.6,1-1.4,1.2-2.2c0.2-0.7,0.2-1.5,0-2.3c-0.2-0.7-0.7-1.3-1.3-1.7
		C260.6,166.4,259.7,166.2,258.8,166.3z"/>
	<path class="st1" d="M243.4,213.2c-0.3,0.3-0.6,0.7-0.9,1.1l-1.1,1.2c-0.4,0.4-0.7,0.8-1.1,1.2l-1,1.1h-0.6c0.8-1,1.5-1.8,2.3-2.6
		c0.7-0.8,1.3-1.4,1.8-1.9h-0.4c-0.4,0-0.8-0.1-1.2-0.3c-0.3-0.2-0.5-0.4-0.6-0.7c-0.1-0.3-0.2-0.6-0.1-0.9c0.1-0.4,0.3-0.7,0.5-0.9
		c0.3-0.3,0.7-0.6,1.1-0.7c0.5-0.2,1.1-0.3,1.7-0.4c0.4-0.1,0.8,0,1.1,0.2c0.2,0.2,0.4,0.4,0.4,0.7c0,0.4-0.1,0.7-0.3,1
		c-0.2,0.4-0.5,0.8-0.9,1.2h3.2c0.6,0,1.3,0.1,1.8,0.4c0.4,0.2,0.7,0.7,0.7,1.1c0,0.7-0.2,1.4-0.5,2.1c-0.5,1.1-1,2.1-1.7,3.1
		l-0.5,0.9c-0.2,0.4-0.4,0.7-0.6,1.1c-0.2,0.4-0.4,0.8-0.5,1.1c-0.1,0.3-0.3,0.7-0.3,1c-0.1,0.2-0.1,0.5,0,0.7
		c0.1,0.2,0.2,0.3,0.4,0.3c0.3,0,0.5-0.1,0.7-0.3c0.4-0.3,0.7-0.5,1-0.8c0.4-0.4,0.8-0.8,1.2-1.2c0.4-0.5,0.8-0.9,1.3-1.4
		c1-1.1,2-2.4,3.1-3.8l0.2,0.4c-1.2,1.6-2.5,3.2-3.9,4.7c-0.5,0.6-1.1,1.2-1.7,1.7c-0.6,0.5-1.1,1-1.8,1.5c-0.5,0.4-1.1,0.8-1.7,1.1
		c-0.5,0.2-1,0.4-1.5,0.4c-0.3,0-0.6-0.1-0.8-0.3c-0.2-0.3-0.2-0.6-0.2-0.9c0-0.4,0.1-0.8,0.3-1.3c0.1-0.5,0.3-1,0.5-1.4
		c0.6-1.3,1.3-2.6,2.1-3.9c0.6-1,1.2-1.9,1.6-2.6c0.4-0.5,0.7-1.1,0.9-1.7c0.1-0.4,0.1-0.8-0.1-0.9c-0.5-0.2-1-0.3-1.6-0.3H243.4z
		 M243.9,209.9c-0.4,0-0.7,0.1-1,0.4c-0.3,0.2-0.5,0.5-0.6,0.9c-0.1,0.3-0.1,0.6,0.1,0.9c0.2,0.3,0.6,0.4,1.2,0.4
		c0.3-0.3,0.6-0.7,0.8-1c0.1-0.3,0.2-0.5,0.3-0.8c0-0.2,0-0.4-0.2-0.5C244.2,209.9,244.1,209.9,243.9,209.9L243.9,209.9z"/>
	<path class="st1" d="M268.1,217l0.5,0.1l-25.3,41.4c-0.4,0.7-0.9,1.4-1.4,2.1c-0.2,0.3-0.4,0.5-0.6,0.8c-0.2,0.2-0.5,0.5-0.7,0.7
		c-0.2,0.2-0.5,0.3-0.7,0.5c-0.2,0.1-0.5,0.2-0.7,0.2c-0.5,0.1-1-0.3-1-0.8c-0.1-0.7,0-1.5,0.3-2.2c0.3-1.1,0.7-2.1,1.2-3.1
		c0.5-1.2,1.2-2.4,1.8-3.8c0.7-1.3,1.4-2.7,2.2-4c0.8-1.4,1.4-2.7,2.2-3.9c0.4-0.8,1-1.9,1.7-3.2l2.3-4.3c0.8-1.6,1.7-3.2,2.7-4.9
		l2.9-5.2c1-1.7,1.9-3.5,2.9-5.1c1-1.7,1.8-3.2,2.6-4.7c-0.8,1.1-1.7,2.2-2.6,3.3s-1.8,2.1-2.7,3c-0.7,0.8-1.5,1.5-2.4,2.2
		c-0.5,0.4-1.1,0.7-1.7,0.8c-0.5,0.1-0.9-0.2-1.1-0.6c-0.2-0.6-0.2-1.2-0.1-1.8c0.2-0.9,0.5-1.8,0.8-2.6c0.4-1,0.9-2.1,1.5-3.3
		c0.6-1.2,1.2-2.3,1.8-3.3c0.6-1,1.1-1.9,1.6-2.6c0.6-0.9,1.1-1.7,1.7-2.4h3.1c-0.7,0.9-1.3,1.8-1.9,2.7c-0.5,0.8-1.1,1.7-1.7,2.7
		s-1.1,1.9-1.6,2.8l-1.3,2.6c-0.4,0.8-0.7,1.6-1,2.2c-0.2,0.5-0.4,1-0.5,1.5c-0.1,0.4,0,0.6,0.2,0.6s0.4-0.2,0.8-0.5
		c0.4-0.3,0.8-0.8,1.4-1.3c0.5-0.6,1.1-1.2,1.8-1.9c0.7-0.7,1.3-1.5,2-2.3c0.7-0.8,1.3-1.6,1.9-2.4c0.6-0.8,1.1-1.5,1.6-2.2
		s0.7-1.3,1-1.8c0.3-0.6,0.6-1,0.8-1.4c0.2-0.4,0.5-0.9,0.7-1.3h3.2c-0.6,1-1.3,2.2-2.2,3.8s-1.9,3.3-3.1,5.2
		c-1.1,1.9-2.4,4-3.6,6.2c-1.3,2.2-2.6,4.5-3.9,6.8c-1.3,2.3-2.7,4.6-4,7c-1.3,2.3-2.5,4.5-3.7,6.7c-1.2,2.1-2.2,4.1-3.2,6
		c-1,1.8-1.8,3.4-2.4,4.8c-0.5,1-1,2.1-1.3,3.2c-0.3,0.8-0.3,1.2,0,1.2c0.2,0,0.6-0.5,1.3-1.5c0.7-1,1.6-2.4,2.7-4.2s2.5-4,4-6.6
		c1.6-2.6,3.3-5.5,5.3-8.8c2-3.2,4.1-6.8,6.5-10.6C262.9,225.3,265.4,221.2,268.1,217z"/>
	<path class="st1" d="M282.5,210.1c-1.4,2.4-2.6,4.6-3.6,6.6c-0.4,0.9-0.9,1.7-1.3,2.5c-0.4,0.8-0.8,1.6-1.1,2.3
		c-0.3,0.6-0.5,1.2-0.7,1.8c-0.1,0.3-0.2,0.7-0.1,1c0.1,0.2,0.2,0.2,0.5,0.1c0.3-0.2,0.6-0.4,0.9-0.6c0.4-0.4,0.8-0.8,1.2-1.2
		l1.3-1.4c1-1.2,2.2-2.6,3.4-4.3l0.2,0.4c-1.3,1.7-2.5,3.2-3.7,4.5c-0.5,0.6-1,1.1-1.6,1.7s-1,1-1.6,1.5c-0.5,0.4-0.9,0.8-1.4,1.1
		c-0.3,0.3-0.7,0.4-1.2,0.5c-0.3,0.1-0.7,0-1-0.1c-0.3-0.1-0.5-0.4-0.5-0.7c-0.1-0.5,0-1.1,0.1-1.6c0.2-0.9,0.5-1.7,0.8-2.5
		c-0.5,0.7-1.1,1.4-1.6,2c-0.5,0.6-1.1,1.1-1.7,1.6c-0.5,0.4-1,0.7-1.6,1c-0.4,0.2-0.9,0.3-1.4,0.4c-0.5,0-1-0.2-1.3-0.7
		c-0.3-0.5-0.4-1.2-0.4-1.8c0-0.9,0.2-1.8,0.5-2.6c0.4-1.1,0.8-2.2,1.4-3.2c0.6-1.1,1.2-2.2,2-3.2c0.7-0.9,1.4-1.8,2.2-2.6
		c0.7-0.7,1.4-1.3,2.2-1.8c0.6-0.4,1.2-0.6,1.9-0.6c0.7,0,1.3,0.4,1.4,1.1c0.2,0.9,0.2,1.9,0,2.9c0.3-0.6,0.7-1.2,1-1.9
		c0.4-0.7,0.7-1.3,1.2-2L282.5,210.1z M268.7,225.4c0.3,0,0.7-0.2,0.9-0.4c0.5-0.3,0.9-0.7,1.3-1c0.5-0.5,1-1,1.4-1.6
		c0.5-0.6,1-1.3,1.4-2c0.6-1.4,1.4-3,2.4-5c0.4-1,0.5-2,0.5-3c-0.1-0.8-0.3-1.1-0.7-1.1c-0.4,0.1-0.8,0.3-1.1,0.6
		c-0.5,0.5-1,1-1.4,1.5c-0.5,0.7-1.1,1.5-1.5,2.2c-0.5,0.9-1,1.8-1.5,2.7c-0.5,1-0.9,1.9-1.3,2.7c-0.3,0.7-0.6,1.5-0.8,2.2
		c-0.2,0.5-0.2,1-0.2,1.5C268.2,225.2,268.4,225.4,268.7,225.4z"/>
	<path class="st1" d="M281.1,226.7h-3.2l8.6-16.6h3.2l-2.3,4.5c0.5-0.6,1.1-1.3,1.7-1.8c0.5-0.5,1.1-1,1.6-1.4
		c0.5-0.4,1-0.7,1.6-0.9c0.4-0.2,0.9-0.3,1.3-0.3c0.5,0,1,0.1,1.4,0.4c0.4,0.3,0.6,0.8,0.6,1.3c0,0.9-0.1,1.7-0.5,2.5
		c-0.5,1.4-1.1,2.8-1.8,4.1c-0.2,0.4-0.5,0.9-0.8,1.5c-0.3,0.6-0.7,1.2-0.9,1.8c-0.3,0.5-0.5,1.1-0.6,1.7c-0.2,0.4-0.1,0.8,0,1.2
		c0.1,0.1,0.2,0.1,0.5,0c0.3-0.2,0.6-0.4,0.9-0.7c0.4-0.3,0.8-0.7,1.2-1.2c0.4-0.5,0.9-1,1.3-1.4c1-1.2,2.2-2.6,3.4-4.2l0.3,0.4
		c-1.4,1.8-2.7,3.3-3.9,4.7c-0.5,0.6-1.1,1.2-1.7,1.7c-0.6,0.6-1.1,1.1-1.7,1.5c-0.5,0.4-1,0.7-1.5,1.1c-0.4,0.2-0.8,0.4-1.3,0.4
		c-0.3,0-0.6-0.1-0.8-0.4c-0.2-0.3-0.2-0.6-0.2-0.9c0-0.4,0.1-0.9,0.2-1.3c0.1-0.5,0.3-1,0.5-1.5c0.5-1.4,1.1-2.8,1.8-4.2
		c0.5-1,0.9-1.9,1.3-2.7c0.3-0.7,0.6-1.5,0.8-2.2c0.2-0.5,0.2-1,0.2-1.5c0-0.4-0.2-0.6-0.5-0.6c-0.4,0-0.7,0.2-1,0.4
		c-0.5,0.3-0.9,0.7-1.4,1.1c-0.5,0.5-1.1,1.1-1.5,1.6c-0.6,0.6-1.1,1.3-1.5,2L281.1,226.7z"/>
	<path class="st1" d="M176.7,249.9c9.7,4.8,19.9,6.8,30.6,8c-0.5-2-1.2-3.5-2.9-4.2c-1.3-0.5-2.7-0.8-4.1-0.9
		c-1.9-0.3-3.6-1.1-5-2.3c-1-0.8-2.2-1.3-3.5-1.5c-3.4-0.5-6.9-0.7-10.4-1.1c-8.4-1.1-16.6-3.4-24-7.6c-6-3.4-10.4-8.5-14.3-14.1
		c-5-7.2-8.9-15.1-11.7-23.5c-0.1-0.3-0.2-0.6-0.2-0.9c0-0.1,0.1-0.1,0.2-0.4c0.2,0.6,0.2,1.1,0.4,1.6c4,11.1,9.3,21.4,17.4,30.2
		c5.2,5.6,11.6,9,18.8,11.3c6.9,2.1,14.1,3.4,21.3,3.8c1.4,0.1,2.7,0.3,4,0.7c0.8,0.2,1.5,0.7,2.2,1.2c1.2,1.1,2.7,1.9,4.3,2.1
		c0.9,0.1,1.8,0.3,2.6,0.4c2.3,0.2,4.2,1.8,4.8,4c0.3,1,0.8,1.2,1.7,1.3c5.5,0.7,10.9,1.3,16.4,2.3c4.3,0.6,8.2,2.5,11.4,5.4
		c1,1,1.8,2.1,2.4,3.3c0.7,1.3,0.4,2.7-0.5,3.9c-1.2,1.7-2.3,3.4-3.5,5.1c-0.2,0.2-0.3,0.5-0.4,0.8c-1.2,2.8-4.1,4.6-7.1,4.3
		c-1.7,0-3.4,0.1-5.1,0.3c-1.5,0.2-3,0.9-4,2c-1.4,1.5-3.6,2.1-5.6,1.6c-3.5-0.6-6.5-2.3-9.5-4c-1.4-0.8-2.9-1.6-4.3-2.4
		c-1.9-1.3-4.5-1.3-6.4,0c-1.4,0.8-2.7,1.9-4,2.7c-1.4,1-2.9,1.9-4.5,2.6c-2.2,1-4.8,0.6-6.7-1c-0.6-0.5-1.3-1-1.9-1.6
		c-1.9-1.7-4.6-2.2-7-1.2c-1.7,0.6-3.2,1.6-4.9,2.4c-1.9,1-3.9,1.8-6,2.6c-2,0.6-4.2,0.5-6.1-0.3c-1.4-0.5-2.8-1.1-4.2-1.8
		c-3.1-1.4-6.3-1.3-9.6-1c-7.5,0.7-14.5-0.7-20.6-5.2c-4.3-3.1-7.2-7.4-9.5-12.1c-5-10-6.8-21.2-5.3-32.2c1.3-9.8,4.2-19.1,7.8-28.2
		c3-7.5,5.9-15,9.3-22.3c5.5-11.7,12.2-22.7,19-33.7c2.2-3.5,4.3-6.9,6.1-10.6c1.8-3.6,2.6-7.6,1.7-11.6c-0.3-1.4-1-2.9-1.4-4.3
		c1.2,2,1.9,4.3,2,6.6c0.2,4.8-1.4,9-3.8,13c-3.7,6.2-7.6,12.3-11.2,18.5c-4.2,7.3-8.1,14.7-12.1,22c-2.2,4-2.8,8.4-3.3,12.7
		c-1.8,13.8,0.9,26.9,6.2,39.6c5.1,12.1,12.3,23.3,21.1,33.1c0.2,0.2,0.3,0.4,0.5,0.6c0,0.1,0.1,0.3,0.1,0.4
		c-0.4-0.2-0.8-0.3-1.1-0.5c-7.9-4-13.6-10.2-18.1-17.7c-5.2-8.8-8.2-18.3-10-28.4c-0.1-0.5-0.3-1-0.6-1.4c-0.1,0.3-0.1,0.6-0.1,0.8
		c0.2,10.2,1.3,20.3,4.9,30c2.6,6.9,6.3,13.2,12.1,17.9c2.8,2.3,6,3.9,9.4,4.9c4.7,1.2,9.2,3,13.3,5.5c1.2,0.6,2.5,1,3.8,1.1
		c1.7,0.2,2.4-0.8,1.6-2.3c-0.8-1.5-1.7-2.8-2.8-4.1c-1.6-1.9-3.4-3.6-5.2-5.3c-11.5-10.9-20.5-24-26.6-38.6
		c-0.2-0.4-0.3-0.8-0.4-1.3c0-0.1,0.1-0.3,0.1-0.4c0.4,1,0.8,1.9,1.2,2.9c4.7,11.7,12.5,21,22.3,28.7c1.6,1.3,3.3,2.6,4.9,3.9
		c3.2,2.7,7,4.5,11.1,5.3c3.9,0.7,7.4,2.7,10.1,5.6c1.4,1.5,3.1,2.7,4.9,3.7c3.7,1.8,6.7-0.4,8.2-3.3c0.2-0.6,0-1.3-0.4-1.9
		c-0.8-1-1.8-1.7-2.9-2.3c-3.7-1.7-7.6-3.2-11.4-4.8c-0.8-0.3-1.5-0.6-2.2-1.1c2.5,0.9,5,1.9,7.5,2.8c2.5,0.9,5,1.8,7.5,2.5
		c-3.9-2.7-8.6-3.9-12.5-6.7c1.9,0.9,3.7,1.9,5.6,2.6c5.1,1.9,10.5,2.6,15.8,3.6c1.2,0.2,2.4,0.5,3.6,0.7c1.5,0.3,2.9,1,4.1,2
		c1.8,1.5,3.7,2.9,5.7,4.3c0.7,0.4,1.4,0.8,2.2,1c1.1,0.4,2.4,0,3-1c0.7-0.9,0.5-2.2-0.3-3c-0.9-1-1.9-1.9-3-2.6
		c-3.5-2.2-7.3-3.8-11.3-4.8c-0.3-0.1-0.7-0.2-1-0.3l0.1-0.3c2.2,0.7,4.5,1.3,6.6,2.2c5.2,2.2,10.4,4.5,15.6,6.7
		c1.4,0.6,2.9,1,4.3,1.5c0.5,0.2,1,0.3,1.5,0.3c0.8,0.1,1.8,0.2,2-0.7c0-0.7-0.4-1.3-0.9-1.7c-1.9-1.2-3.8-2.4-5.9-3.3
		c-8.3-3.8-17.1-6.6-25.8-9.2c-3.3-1-6.5-2.1-9.7-3.4c0.3,0.1,0.5,0.1,0.7,0.2c9.3,3.1,18.6,6,28.1,8.2c4.7,1.1,9.3,2.1,14.2,2
		c1,0,2.1-0.1,3.1-0.4c2-0.5,2.7-2.3,1.6-4c-0.6-0.9-1.5-1.8-2.4-2.4c-2.8-1.9-5.9-2.8-9.1-3.7c-5.9-1.8-12.1-2.3-18.1-3.1
		c-8.7-1.2-17.2-3.1-25.2-6.9c-0.3-0.2-0.7-0.3-1-0.5C176.9,250.3,176.9,250.2,176.7,249.9z M111.2,221.7l-0.3-0.1
		c-0.1,0.2-0.2,0.5-0.2,0.7c-0.2,2.1-0.5,4.1-0.7,6.2c-0.9,10.6-0.5,21,2.6,31.2c2,7.1,5.7,13.7,10.7,19.1c1.4,1.4,3.3,2.4,5.3,2.6
		c1,0.2,2.1-0.3,2.5-1.2c0.5-1,0.1-1.8-0.6-2.5c-0.6-0.6-1.3-1.2-2-1.8c-6.4-4.9-11.1-11.8-13.2-19.5c-3-10.5-4.3-21.4-4.1-32.4
		C111.2,223.3,111.2,222.5,111.2,221.7L111.2,221.7z M114,270.4c-4.4-14.2-7.2-28.6-6.8-43.5c-1.5,8.6-1.4,17.3,0.2,25.9
		C108.4,259,110.7,265,114,270.4z"/>
	<path class="st2" d="M178.5,78.5c1.2,1.1,2.2,2.1,3.2,2.9c0.7,0.6,1.5,1.1,2.3,1.4c3.2,1.2,6.5,2.3,9.7,3.5
		c1.1,0.4,2.3,0.9,3.3,1.5c1.3,0.8,1.8,2.2,1.9,3.8c0.1,3.5,0.3,7,0.5,10.5c0.3,6.9,0.7,13.8,1,20.7c0.1,4-0.9,7.8-2.2,11.5
		c-1.9,5.6-4.1,11.2-6.1,16.8c-0.2,0.5-0.4,1.1-0.4,1.7c0,9.3-1.2,18.6-2.3,27.9c-0.1,0.9-0.3,1.9-0.6,2.7c-0.1-0.7-0.1-1.3-0.3-2
		c-1-5.1-3-9.9-5.2-14.6c-3.6-7.4-6.4-15.1-8.3-23.2c-2.2-9.7-3.3-19.6-2.3-29.5c0.5-3.5,1.2-7,2.2-10.4c1.8-7,2.9-14.2,3.3-21.5
		C178.3,81.2,178.4,80,178.5,78.5z M179.1,79.5l-0.3,0.1c-0.1,0.4-0.1,0.8-0.2,1.3c-0.3,3.2-0.5,6.5-0.8,9.6
		c-0.7,5.7-1.9,11.2-3.5,16.7c-1.6,5.7-1.8,11.6-1.5,17.5c0.3,6.5,1.2,13.1,2.7,19.4c0.1,0.3,0.3,0.7,0.4,1l0.3-0.1
		c-1.1-15.4,0.1-30.2,9.4-43.4l-0.2-0.2l-4.9,1.9l-0.1-0.3c1.6-1.5,3.3-3.1,4.9-4.6c0.7-0.5,1-1.4,0.7-2.2c-1.1-4.1-2.1-8.2-3-12.3
		C182.3,81.8,180.3,81,179.1,79.5z"/>
	<path class="st1" d="M148.2,105.4c0.5-0.2,1-0.4,1.6-0.5c0.8-0.1,0.9-0.6,0.7-1.3c-0.3-1.3-1.3-2.4-2.7-2.7
		c-1.1-0.2-2.2-0.3-3.3-0.3c-0.3,0-0.6,0.5-0.9,0.7l-1.7,1.3l-1.1-1.5c1.1-0.9,1.3-2.5,0.4-3.6c0,0,0,0,0,0
		c-0.2-0.2-0.4-0.4-0.6-0.5c-1.4-1.2-3.3-1.5-5.1-1.8c-0.4,0-0.7-0.1-1-0.3c0.4-0.1,0.7-0.2,1.1-0.3c1.8-0.5,3.5-1.2,5.2-1.9
		c4.3-2.1,6.6-5.6,6.5-10.4c0-2.2,0.4-4,2.1-5.5c1.1-1,1.5-2.5,1.1-3.9c-0.6-2.6,0.1-5.4,1.7-7.5c1.2-1.7,0.9-2.4-1.2-2.4
		c-3.5-0.1-6.9,0.6-10,2.2c-3.8,2-5.7,5.6-5,10.1c0.3,2,0.9,4,1.3,5.9c0.1,0.4,0.3,0.9,0.4,1.3c-0.5-0.3-1.2-0.7-1.8-1.1
		c-0.4-0.2-0.8-0.4-1.1-0.7c-1.6-1.1-1.6-1.1-3,0.2c-0.2,0.3-0.3,0.7-0.2,1c0.4,0.9,0.8,1.8,1.3,2.6c0.2,0.4,0.5,0.7,1,1.4l0.6-1.9
		l0.3,0.1c-0.4,1.4-0.7,2.9-1.2,4.2c-0.3,0.8-0.3,1.3,0.5,1.6c0.2,0.1,0.4,0.3,0.6,0.5c1.4,1.1,1.7,1.2,3-0.1s2.2-2.5,3.4-3.7
		c-1.2,1.9-2.4,3.8-4.5,4.8c-0.4,0.2-0.9-0.1-1.4-0.2c0,0-0.1-0.1-0.1-0.1c-1.7-0.9-2.7-2.2-1.4-4.1c0.1-0.2,0.1-0.5,0-0.7
		c-0.7-1.3-1.5-2.7-2.3-4c-0.5-0.7-0.5-1.2,0.3-1.8c0.6-0.4,1.1-0.8,1.6-1.3c1,0.5,1.8,1.8,3.5,1.9c-0.1-0.6-0.2-1.1-0.4-1.6
		c-0.8-2.4-1-5-0.7-7.6c0.6-3.8,2.9-6.2,6.4-7.6c2.7-1.1,5.7-1.6,8.6-1.6c1.1,0,2.2,0.5,2.9,1.3c1.8,1.9,2.7,4.4,2.7,6.9
		c0.1,0.7,0.5,1.3,0.9,1.7c0.3,0.4,0.8,0.5,1.2,0.8c1,0.7,1.2,1.4,0.7,2.5c-0.5,0.9-0.3,2,0.4,2.7c1.1,1.3,1,2.5-0.5,3.4
		c-1.9,1.3-4.2,1.5-6.4,1.7c1.6-0.4,3.2-0.8,4.8-1.2c0.5-0.2,1-0.4,1.5-0.7c1.3-0.9,1.4-1.7,0.4-3c-0.8-0.9-1.1-1.9-0.4-3
		c0.4-0.7,0.2-1.6-0.5-2c0,0,0,0,0,0l-0.1,0c-0.3-0.2-0.5-0.4-0.8-0.5c-1.1-0.4-1.7-1.5-1.5-2.7c0.1-2-0.6-4-1.9-5.6
		c-0.5-0.6-0.9-0.6-1.4,0.1c-1.8,2.4-2.7,5-2,8c0.4,1.5-0.2,3.1-1.3,4.1c-1.4,1.3-2.1,3.1-1.9,5c0.1,5.7-2.9,9.6-8.6,11.6
		c-0.8,0.2-1.5,0.6-2.2,1c0.3,0.1,0.5,0.2,0.8,0.3c2.4,0.6,4.4,1.8,5,4.5c0.1,0.3,0.7,0.5,1.1,0.5c1.2,0.1,2.4-0.1,3.6,0.1
		c1.8,0.2,3.2,1.5,3.5,3.3c0.1,0.6,0.6,1.1,1.3,1.1c1.2,0.2,2.4,0.5,3.6,0.7c0.4,0.1,0.9,0,1.3-0.2c1.1-0.8,1.7-2,1.7-3.3
		c0.1-1.2,0.4-2.3,0.7-3.4c0.1-0.3,0.1-0.6,0.2-1c0-0.4,0-0.9,0.1-1.3c0.6-1.7,0.8-3.2-0.9-4.6l0.4-0.1l1.3,1.7l1.1-1.2
		c-0.5,1.2-1,2.1-1.3,3c-0.3,0.9-0.7,1.8,0,2.7c0.1,0.1,0,0.3,0,0.5c0,1.1-0.1,2.2-0.2,3.2c-0.2,0.7-0.5,1.4-1,2
		c-0.4,0.6-0.9,1.1-1.4,1.5c-1.9,1.8-6.7,2.2-8.8,0.6C148.6,105.9,148.4,105.7,148.2,105.4z"/>
	<path class="st1" d="M147.2,250.4C133.6,240.4,125.6,227,124,210c1.2,7.9,4,15.4,8,22.3C136.1,239.2,141.2,245.3,147.2,250.4z"/>
	<path class="st2" d="M175.3,82.9v4.8c-1.4-0.4-2.7-0.8-3.8-1.2c-0.9-0.3-1.8-0.3-2.7,0c-1,0.4-2.1,0.7-3.3,1.1l-0.6-5.4
		c1.5,0.6,2.8,1.1,4.1,1.6c0.8,0.4,1.7,0.4,2.6,0.1C172.7,83.6,174,83.3,175.3,82.9z"/>
	<path class="st2" d="M174,75.4c-0.5,0.7-0.9,1.6-1.6,2c-1.5,1-3.1,1.8-4.7,2.4c-1.9,0.8-2.9,0-2.9-2c0-1.7-0.3-3.3-2-4.3
		c-0.4-0.4-0.5-1-0.5-1.5c0.2-1.2,0.6-2.3,1-3.5c0.3-0.8,0-1.8-0.8-2.2c-0.8-0.5-0.7-1.2-0.5-2c0.3-0.7,0.5-1.3,0.6-2
		c0.1-0.9,0-1.7-0.3-2.5c-0.6-1.5-0.5-2.8,0.8-3.6c1-0.5,2.1-0.9,3.3-1.1c1.1-0.3,2.4-0.2,3.4-0.7c4.1-1.8,7.6-1.3,11,4.1
		c2,3.1,1.8,6.6,0.6,10c-0.6,1.6-1.4,3.1-2.2,4.6l-0.3-0.1c0.7-1.4,1.4-2.8,2-4.2c2.2-5.3,0.8-10.3-3.6-13.6c-1.7-1.4-4-1.7-6-1
		c-1.8,0.8-3.8,1.2-5.8,1.3c-1,0-2,0.8-2.9,1.4c-0.7,0.6-0.9,1.7-0.4,2.4c0.7,1.2,0.8,2.6,0.2,3.8c-0.2,0.5-0.4,1-0.4,1.5
		c0,0.5,0.1,1,0.5,1.4c0.8,0.6,1.2,1.6,0.8,2.5c-0.3,1-0.6,2.1-0.9,3.1c-0.3,0.7,0,1.6,0.7,2c1.3,0.8,1.6,2.2,1.6,3.5
		c0,2.7,1,3.3,3.4,2.1c1.1-0.5,2.2-1.1,3.2-1.8c0.8-0.7,1.5-1.4,2.2-2.2L174,75.4z"/>
	<path class="st1" d="M120.8,210.4c-1.6-7.7-1-15.7,1.8-23.1C120.1,194.7,119.5,202.6,120.8,210.4z"/>
	<path class="st1" d="M143.7,239.1l11.2,9.7C153.4,248.3,146.7,242.6,143.7,239.1z"/>
	<path class="st1" d="M137.7,181.6c1.2,0.4,1.2,1.7,1.7,2.6l-1.9-2.4L137.7,181.6z"/>
	<path class="st1" d="M134.4,183.8c0.3,0.4,0.7,0.7,0.7,0.8c-0.2,0.3-0.4,0.5-0.7,0.7c-0.2-0.2-0.6-0.4-0.6-0.6
		C133.8,184.5,134.2,184.2,134.4,183.8z"/>
	<path class="st1" d="M142.5,179.3c0.3,0.4,0.7,0.7,0.6,0.9c-0.1,0.2-0.4,0.5-0.7,0.7c-0.2-0.2-0.5-0.5-0.5-0.7
		S142.3,179.7,142.5,179.3z"/>
	<path class="st1" d="M141.3,189.5c0.3,0.5,0.6,0.7,0.5,0.9s-0.4,0.4-0.6,0.6c-0.2-0.2-0.5-0.4-0.6-0.7
		C140.7,190.2,141,190,141.3,189.5z"/>
	<path class="st1" d="M137.2,194c-0.4,0.3-0.7,0.6-0.9,0.6s-0.4-0.5-0.6-0.7c0.2-0.2,0.5-0.5,0.7-0.5S136.8,193.6,137.2,194z"/>
	<path class="st1" d="M149.5,195.2c-0.4,0.3-0.6,0.6-0.9,0.6c-0.2,0-0.4-0.4-0.7-0.5c0.2-0.2,0.4-0.6,0.7-0.6
		C148.9,194.5,149.1,194.9,149.5,195.2z"/>
	<path class="st1" d="M132.8,178c-0.3-0.4-0.6-0.7-0.6-0.9c0.1-0.3,0.3-0.5,0.6-0.6c0.2,0,0.6,0.4,0.6,0.6
		C133.5,177.4,133.1,177.6,132.8,178z"/>
	<path class="st2" d="M183.9,97.5c-0.8-0.3-1.6-1.1-2.6,0l0.3-1.4l-1.3,0.9l0.2-1.6l-2.1-0.8v-0.3l1.9-0.5l-0.2-1.6l2,0.4
		c0.9,0.2,2.2,2.4,2,3.4C184,96.6,183.9,97.1,183.9,97.5z"/>
	<path class="st2" d="M67.7,290.3l0.7-0.4c0.4,0.2,0.7,0.4,1.1,0.6c0.4,0.2,0.9,0.4,1.4,0.6l1.5,0.6c0.5,0.2,1,0.4,1.4,0.6
		c-1.1,2.8-2.2,5.6-3.2,8.5c-1,2.8-1.9,5.7-2.8,8.6c1.7-1,3.3-1.9,5-2.9c1.6-0.9,3.3-1.9,4.9-2.9s3.2-2,4.8-3.1
		c1.6-1.1,3.1-2.2,4.7-3.5l1.6,0.5l1.6,0.5c0.5,0.2,1.1,0.3,1.6,0.5s1.2,0.3,1.8,0.4l-0.5,0.5c-1.4-0.2-2.1-0.3-3.5-0.5
		c-1,1.5-2.1,3-3.1,4.5c-1,1.5-2,3-3,4.5c-1,1.5-1.9,3-2.8,4.5c-0.9,1.5-1.7,3-2.5,4.5c1.2,0.6,1.9,0.9,3.1,1.5l-0.5,0.4
		c-0.8-0.3-1.6-0.6-2.4-0.9s-1.6-0.6-2.4-0.9c-0.8-0.3-1.7-0.6-2.6-0.8s-1.7-0.5-2.6-0.8l0.6-0.5l3.4,0.8c1.9-2.7,3.7-5.4,5.6-8.1
		c1.8-2.7,3.6-5.4,5.4-8.2l-2.1,1.3l-2.6,1.6l-2.8,1.7l-2.9,1.8l-2.9,1.7c-0.9,0.6-1.8,1.1-2.6,1.6l-2.2,1.4c-0.5,0.3-1,0.7-1.5,1.1
		c-1.1,0.1-1.7,0.1-2.8,0.2c2.6-7.3,3.9-10.9,6.6-18.1c-1.3,1.2-2.5,2.3-3.8,3.5s-2.5,2.4-3.7,3.6c-1.2,1.2-2.4,2.4-3.6,3.6
		c-1.2,1.2-2.3,2.5-3.4,3.8l2.9,1.8l-0.6,0.4c-0.8-0.3-1.5-0.7-2.2-1.1c-0.7-0.4-1.5-0.7-2.3-1c-0.8-0.3-1.5-0.6-2.2-0.9
		c-0.8-0.3-1.5-0.5-2.3-0.8l0.5-0.5c1.4,0.4,2.2,0.6,3.6,0.9c1.6-1.1,3.2-2.2,4.6-3.4s2.9-2.4,4.3-3.7c1.4-1.3,2.8-2.6,4.2-3.9
		s2.7-2.6,4.1-3.9C69.4,291.3,68.9,290.9,67.7,290.3z"/>
	<path class="st2" d="M105.9,308.9l-2,2.6c-0.7,0.9-1.3,1.7-2,2.6c-0.7,0.9-1.3,1.8-1.9,2.8c-0.6,1-1.2,1.9-1.7,3
		c-0.1,0.1-0.1,0.2-0.2,0.3c-0.1,0.1-0.1,0.2-0.2,0.4c0,0.1-0.1,0.2-0.1,0.3c0,0.1,0.1,0.2,0.2,0.2c0.2,0,0.3,0,0.5,0
		c0.2,0,0.3-0.1,0.5-0.2l0.5-0.3c0.2-0.1,0.3-0.2,0.5-0.2c0.1,0.2,0.2,0.3,0.2,0.5c-0.4,0.2-0.9,0.4-1.4,0.6c-0.5,0.2-1,0.5-1.5,0.7
		c-0.5,0.2-1,0.3-1.6,0.4c-0.5,0.1-1,0.1-1.4,0c-0.1,0-0.2-0.1-0.3-0.2c-0.1-0.1-0.1-0.2-0.1-0.4c0-0.1,0-0.3,0.1-0.4
		c0-0.1,0.1-0.3,0.1-0.4c0.3-0.5,0.6-1.1,1-1.6c0.4-0.5,0.7-1,1.1-1.6l1.1-1.6c0.4-0.5,0.8-1,1.1-1.6c-0.4,0.3-0.9,0.6-1.4,0.9
		s-1.1,0.6-1.7,1c-0.6,0.3-1.2,0.6-1.9,0.9c-0.6,0.3-1.3,0.6-1.9,0.9c-0.6,0.3-1.3,0.5-1.9,0.7c-0.6,0.2-1.2,0.4-1.8,0.5
		c-0.5,0.1-1,0.2-1.6,0.2c-0.4,0-0.9,0-1.3-0.1c-0.2,0-0.4-0.2-0.4-0.4c-0.1-0.2-0.1-0.4,0-0.7c0.1-0.3,0.2-0.5,0.3-0.8l0.3-0.7
		c0.3-0.7,0.6-1.3,1-1.9c0.5-0.7,1-1.3,1.5-1.9c0.6-0.6,1.1-1.3,1.8-1.8c1.4-1.2,3-2.2,4.7-2.9c0.9-0.4,1.7-0.6,2.6-0.8
		c0.9-0.2,1.8-0.3,2.7-0.4c0.9,0,1.9,0.1,2.8,0.4L105.9,308.9z M102.2,309.7c-1.1-0.3-1.6-0.4-2.7-0.7c-0.5-0.1-1.1-0.2-1.6-0.2
		c-0.5,0-1.1,0.1-1.6,0.3c-0.5,0.2-1,0.4-1.5,0.7c-0.5,0.3-1,0.7-1.4,1c-0.5,0.4-0.9,0.9-1.4,1.3c-0.5,0.5-0.9,1-1.3,1.6
		c-0.4,0.6-0.8,1.1-1.2,1.8c-0.4,0.6-0.8,1.2-1.1,1.9c-0.1,0.1-0.1,0.2-0.2,0.4c-0.1,0.1-0.1,0.3-0.1,0.4c0,0.1,0,0.2,0,0.4
		c0,0.1,0.1,0.2,0.2,0.2c0.4,0.1,0.9,0.1,1.3-0.1c0.6-0.2,1.2-0.4,1.8-0.6c0.7-0.3,1.5-0.6,2.2-1c0.7-0.4,1.5-0.9,2.2-1.3
		c0.7-0.5,1.4-1,2.2-1.5c0.7-0.5,1.3-1,1.9-1.6c0.5-0.5,1-1,1.5-1.5C101.7,310.6,102,310.2,102.2,309.7L102.2,309.7z"/>
	<path class="st2" d="M113.2,310.6c0.2,0,0.3,0.1,0.3,0.2c0.1,0.2,0.1,0.3,0.1,0.5c0,0.2-0.1,0.4-0.1,0.6c-0.1,0.2-0.1,0.4-0.2,0.5
		c-0.2,0.4-0.4,0.9-0.6,1.3c-0.2,0.4-0.5,0.9-0.7,1.3s-0.5,0.8-0.8,1.3c-0.3,0.4-0.5,0.8-0.8,1.3c0.3-0.3,0.7-0.6,1.1-0.9l1.2-1
		c0.4-0.3,0.9-0.7,1.3-1c0.5-0.3,0.9-0.6,1.4-0.9c0.5-0.3,0.9-0.6,1.3-0.8c0.4-0.2,0.8-0.4,1.2-0.6c0.3-0.2,0.7-0.3,1.1-0.4
		c0.3-0.1,0.6-0.1,0.8,0c0.2,0,0.3,0.1,0.4,0.2c0.1,0.1,0.2,0.2,0.3,0.4c0.1,0.1,0.1,0.3,0.1,0.5c0,0.2,0,0.3-0.1,0.5
		c-0.1,0.2-0.3,0.5-0.5,0.6c-0.2,0.2-0.5,0.4-0.7,0.5c-0.3,0.2-0.5,0.3-0.8,0.4l-0.8,0.4c-0.1-0.2-0.1-0.3-0.1-0.4
		c0-0.1-0.1-0.2-0.2-0.3c-0.1-0.1-0.1-0.1-0.2-0.2c-0.1-0.1-0.2-0.1-0.3-0.1c-0.4-0.1-0.8-0.1-1.1,0.1c-0.5,0.2-0.9,0.4-1.3,0.7
		c-0.5,0.3-1,0.7-1.5,1.1c-0.5,0.4-1.1,0.9-1.6,1.4c-0.5,0.5-1.1,1.1-1.6,1.7c-0.5,0.6-1,1.2-1.5,1.8c-0.5,0.6-0.9,1.2-1.4,1.7
		s-0.8,1.1-1.1,1.6c-1.3,0.2-1.9,0.3-3.2,0.5c0.6-1,1.2-1.9,1.9-2.9c0.6-1,1.3-1.9,1.9-2.9c0.6-1,1.2-1.9,1.8-2.9
		c0.6-1,1.2-1.9,1.7-2.9c0-0.1,0.1-0.2,0.1-0.3c0-0.1,0-0.2,0-0.3c0-0.1,0-0.2-0.1-0.3c0-0.1-0.1-0.1-0.2-0.1c-0.2,0-0.4,0-0.6,0
		c-0.2,0.1-0.4,0.1-0.6,0.2L108,313c-0.2,0.1-0.4,0.2-0.6,0.2l-0.2-0.4l0.3-0.2l0.6-0.3l0.7-0.4c0.3-0.1,0.5-0.3,0.8-0.4
		c0.3-0.1,0.6-0.3,0.9-0.4c0.3-0.1,0.6-0.2,0.9-0.3c0.3-0.1,0.6-0.2,0.9-0.2C112.7,310.5,113,310.6,113.2,310.6z"/>
	<path class="st2" d="M125.7,313c0.2,0,0.3,0.1,0.4,0.2c0.1,0.2,0.1,0.3,0.1,0.5c0,0.2,0,0.4-0.1,0.6c0,0.2-0.1,0.4-0.2,0.5
		c-0.2,0.5-0.4,0.9-0.6,1.3c-0.2,0.4-0.5,0.9-0.7,1.3c-0.3,0.4-0.5,0.9-0.7,1.3c-0.2,0.4-0.5,0.9-0.7,1.3c0.3-0.3,0.7-0.6,1-0.9
		l1.2-1c0.4-0.4,0.8-0.7,1.3-1c0.4-0.3,0.9-0.7,1.3-1c0.4-0.3,0.9-0.6,1.3-0.9c0.4-0.2,0.8-0.5,1.2-0.7c0.3-0.2,0.7-0.3,1-0.4
		c0.3-0.1,0.6-0.1,0.8-0.1c0.2,0,0.3,0.1,0.4,0.2c0.1,0.1,0.2,0.2,0.3,0.4c0.1,0.1,0.1,0.3,0.1,0.5c0,0.2,0,0.3-0.1,0.5
		c-0.1,0.2-0.3,0.5-0.5,0.6c-0.2,0.2-0.5,0.4-0.7,0.5c-0.3,0.2-0.5,0.3-0.8,0.5l-0.8,0.4c-0.1-0.2-0.1-0.3-0.2-0.4
		c0-0.1-0.1-0.2-0.2-0.3c-0.1-0.1-0.1-0.1-0.2-0.2c-0.1-0.1-0.2-0.1-0.3-0.1c-0.4-0.1-0.8,0-1.1,0.1c-0.5,0.2-0.9,0.4-1.3,0.7
		c-0.5,0.4-1,0.7-1.4,1.2c-0.5,0.5-1,1-1.5,1.5c-0.5,0.6-1,1.1-1.5,1.7c-0.5,0.6-1,1.2-1.4,1.8s-0.9,1.2-1.3,1.8
		c-0.4,0.6-0.7,1.1-1.1,1.7c-1.3,0.3-1.9,0.4-3.2,0.7l1.8-2.9c0.6-1,1.2-1.9,1.8-2.9c0.6-1,1.2-2,1.7-2.9c0.6-1,1.1-2,1.6-3
		c0-0.1,0.1-0.2,0.1-0.3c0-0.1,0-0.2,0-0.3c0-0.1,0-0.2-0.1-0.2c0-0.1-0.1-0.1-0.2-0.1c-0.2,0-0.4,0-0.5,0.1
		c-0.2,0.1-0.4,0.1-0.6,0.2l-0.5,0.3c-0.2,0.1-0.4,0.2-0.5,0.2l-0.2-0.3l0.3-0.2l0.5-0.4l0.7-0.4c0.3-0.2,0.5-0.3,0.8-0.5l0.9-0.4
		c0.3-0.1,0.6-0.3,0.9-0.4c0.3-0.1,0.6-0.2,0.9-0.2C125.2,313.1,125.4,313,125.7,313z"/>
	<path class="st2" d="M137.9,314.8c0.1,0,0.2,0.1,0.3,0.1c0.1,0.1,0.1,0.2,0.2,0.3c0,0.1,0.1,0.2,0.1,0.4c0,0.1,0,0.2-0.1,0.4
		c-0.4,0.9-0.9,1.8-1.3,2.7c-0.5,0.9-1,1.8-1.5,2.7s-1,1.8-1.5,2.7c-0.5,0.9-0.9,1.8-1.4,2.8c0,0.1-0.1,0.2-0.1,0.3
		c0,0.1,0,0.2,0,0.3c0,0.1,0,0.2,0.1,0.3c0,0.1,0.1,0.1,0.2,0.1c0.2,0,0.4,0,0.6-0.1c0.2-0.1,0.4-0.2,0.5-0.3
		c0.2-0.1,0.4-0.2,0.5-0.3c0.2-0.1,0.3-0.2,0.5-0.3c0,0.1,0.1,0.1,0.1,0.2c0,0.1,0.1,0.1,0.1,0.2c-0.5,0.4-1,0.8-1.5,1.1
		c-0.5,0.4-1.1,0.7-1.6,1c-0.5,0.3-1,0.5-1.6,0.7c-0.4,0.2-0.9,0.2-1.3,0.2c-0.1,0-0.3-0.1-0.3-0.2c-0.1-0.1-0.1-0.2-0.2-0.4
		c0-0.2,0-0.3,0-0.5c0-0.1,0.1-0.3,0.1-0.4c0.4-0.9,0.9-1.8,1.4-2.7s1-1.8,1.6-2.7c0.5-0.9,1.1-1.8,1.6-2.7c0.5-0.9,1-1.8,1.4-2.8
		c0-0.1,0.1-0.2,0.1-0.3c0-0.1,0-0.2,0-0.3c0-0.1,0-0.2-0.1-0.3c0-0.1-0.1-0.1-0.2-0.1c-0.2,0-0.4,0-0.5,0.1
		c-0.2,0.1-0.4,0.2-0.5,0.3c-0.2,0.1-0.3,0.2-0.5,0.3c-0.2,0.1-0.3,0.2-0.5,0.3l-0.4-0.5c0.5-0.2,1-0.5,1.4-0.8
		c0.5-0.3,1-0.6,1.5-0.9c0.5-0.3,0.9-0.5,1.4-0.7C137,314.8,137.4,314.7,137.9,314.8z M140.2,308.6c0.2,0,0.3,0.1,0.5,0.2
		c0.2,0.1,0.3,0.2,0.4,0.3c0.1,0.1,0.2,0.3,0.2,0.4c0,0.2,0,0.3-0.1,0.5c-0.1,0.3-0.3,0.5-0.5,0.7c-0.2,0.2-0.4,0.4-0.6,0.6
		c-0.2,0.2-0.5,0.3-0.8,0.4c-0.3,0.1-0.6,0.1-0.8,0.1c-0.3,0-0.6-0.2-0.7-0.4c-0.2-0.3-0.2-0.7-0.1-1c0.1-0.5,0.4-1,0.9-1.4
		c0.2-0.2,0.5-0.3,0.7-0.4C139.6,308.6,139.9,308.5,140.2,308.6z"/>
	<path class="st2" d="M157.1,316.7c-0.5,1-1,1.9-1.5,2.9c-0.5,1-1,1.9-1.5,2.9c-0.5,1-0.9,2-1.4,3.1c-0.4,1.1-0.8,2.1-1.1,3.2
		l-0.1,0.4c0,0.1-0.1,0.3-0.1,0.4c0,0.1,0,0.2,0,0.3c0,0.1,0.1,0.2,0.2,0.2c0.2,0,0.3,0,0.5-0.1c0.2-0.1,0.3-0.2,0.5-0.3l0.5-0.3
		c0.1-0.1,0.3-0.2,0.4-0.3l0.3,0.4c-0.4,0.2-0.8,0.5-1.3,0.8s-0.9,0.6-1.4,0.9c-0.5,0.3-0.9,0.5-1.4,0.7c-0.5,0.2-0.9,0.3-1.4,0.3
		c-0.1,0-0.2-0.1-0.3-0.2c-0.1-0.1-0.1-0.2-0.2-0.3c0-0.1,0-0.3,0-0.4c0-0.1,0-0.3,0.1-0.4c0.2-0.6,0.4-1.2,0.7-1.8s0.5-1.2,0.8-1.7
		c0.3-0.6,0.6-1.2,0.9-1.7c0.3-0.6,0.6-1.2,0.8-1.7l-1.3,1.1c-0.5,0.4-1,0.8-1.5,1.2s-1.1,0.8-1.6,1.3c-0.6,0.4-1.1,0.8-1.7,1.2
		s-1.2,0.7-1.7,1c-0.6,0.3-1.1,0.6-1.6,0.8c-0.5,0.2-1,0.4-1.5,0.5c-0.4,0.1-0.8,0.1-1.2,0.1c-0.2,0-0.4-0.1-0.5-0.3
		c-0.1-0.2-0.1-0.4-0.1-0.7c0-0.3,0.1-0.5,0.1-0.8c0.1-0.3,0.1-0.5,0.2-0.7c0.2-0.7,0.4-1.4,0.7-2c0.3-0.7,0.7-1.5,1.1-2.2
		c0.5-0.8,1-1.5,1.5-2.2c0.6-0.7,1.2-1.4,1.9-2c0.7-0.6,1.4-1.2,2.2-1.7c0.8-0.5,1.6-1,2.4-1.3c0.8-0.4,1.7-0.6,2.6-0.8
		c0.9-0.2,1.9-0.2,2.8-0.2C155,316.6,155.7,316.6,157.1,316.7z M153.7,318.1c-1.1-0.1-1.7-0.1-2.8-0.2c-0.5,0-1.1,0-1.6,0.1
		c-0.5,0.1-1,0.3-1.5,0.6c-0.5,0.3-0.9,0.6-1.3,0.9c-0.4,0.4-0.8,0.8-1.2,1.3c-0.4,0.5-0.8,1-1.1,1.6c-0.3,0.6-0.7,1.2-1,1.8
		s-0.6,1.3-0.9,1.9s-0.5,1.4-0.8,2c0,0.1-0.1,0.2-0.1,0.4c0,0.1-0.1,0.3-0.1,0.4c0,0.1,0,0.2,0.1,0.3c0.1,0.1,0.2,0.2,0.3,0.2
		c0.5,0,0.9-0.1,1.3-0.3c0.6-0.3,1.1-0.6,1.7-0.9c0.7-0.4,1.3-0.9,1.9-1.4c0.7-0.5,1.3-1.1,1.9-1.7s1.2-1.2,1.8-1.9
		c0.6-0.7,1.1-1.3,1.6-1.9c0.4-0.6,0.8-1.1,1.2-1.7C153.3,319.1,153.5,318.6,153.7,318.1L153.7,318.1z"/>
	<path class="st2" d="M175.6,317.2c-0.4,0.8-0.8,1.5-1.1,2.3s-0.7,1.5-1,2.3c-0.3,0.8-0.6,1.6-0.9,2.3c-0.3,0.8-0.5,1.6-0.8,2.3
		l-0.8,2.3c-0.3,0.8-0.5,1.5-0.8,2.3c-0.3,0.7-0.6,1.4-0.8,2.2c-0.3,0.7-0.6,1.4-1,2.1c-0.7,1.3-1.4,2.6-2.4,3.7
		c-0.5,0.6-1,1.2-1.6,1.7c-0.6,0.6-1.2,1.1-1.8,1.6c-1.3,1-2.8,1.8-4.4,2.3c-0.8,0.3-1.7,0.5-2.5,0.6c-0.9,0.1-1.8,0.2-2.8,0.2
		c-0.3,0-0.7-0.1-1-0.2c-0.3-0.1-0.6-0.2-0.9-0.4c-0.3-0.2-0.5-0.4-0.6-0.6c-0.1-0.2-0.2-0.5-0.2-0.7c0-0.1,0.1-0.2,0.1-0.3
		c0.1-0.1,0.2-0.2,0.2-0.3l0.3-0.3c0.1-0.1,0.2-0.2,0.3-0.3c0.4,0.1,0.8,0.3,1.2,0.4l1.2,0.5c0.4,0.2,0.8,0.3,1.2,0.4
		c0.4,0.1,0.9,0.2,1.3,0.2c0.9,0.1,1.7-0.1,2.6-0.4c0.8-0.3,1.6-0.7,2.2-1.2c0.7-0.6,1.4-1.2,1.9-2c0.6-0.8,1.2-1.7,1.7-2.5
		c0.5-0.9,1-1.9,1.5-2.9c0.5-1,0.9-2.1,1.3-3.2c0.4-1.1,0.8-2.2,1.2-3.3c0.4-1.1,0.8-2.2,1.2-3.3c-0.4,0.5-0.9,1-1.4,1.5
		c-0.5,0.5-1,1-1.6,1.4c-0.6,0.5-1.1,0.9-1.7,1.4s-1.1,0.9-1.7,1.2c-0.6,0.4-1.1,0.7-1.6,1.1c-0.5,0.3-1,0.6-1.5,0.8
		c-0.4,0.2-0.8,0.4-1.3,0.5c-0.3,0.1-0.6,0.2-1,0.2c-0.2,0-0.4-0.1-0.5-0.3c-0.1-0.2-0.2-0.4-0.2-0.7c0-0.3,0-0.5,0-0.8
		c0-0.2,0.1-0.5,0.1-0.7c0.5-2,1.3-3.8,2.3-5.6c1-1.6,2.1-3,3.5-4.2c0.6-0.6,1.3-1.1,2.1-1.6c0.7-0.4,1.4-0.8,2.2-1.1
		c0.7-0.3,1.5-0.6,2.3-0.7c0.8-0.2,1.5-0.2,2.3-0.2C173.5,317.2,174.3,317.2,175.6,317.2z M172.4,318.9l-3.1,0
		c-0.6,0-1.1,0.1-1.6,0.3c-0.5,0.2-1,0.5-1.4,0.8c-0.5,0.3-0.9,0.7-1.3,1.2c-0.4,0.5-0.8,1-1.1,1.5c-0.4,0.5-0.7,1.1-1,1.7
		c-0.3,0.6-0.6,1.2-0.8,1.8c-0.3,0.6-0.5,1.2-0.7,1.8s-0.4,1.1-0.6,1.7c0,0.1-0.1,0.3-0.1,0.5c0,0.2,0,0.3,0,0.5
		c0,0.1,0,0.3,0.1,0.4c0.1,0.1,0.2,0.2,0.3,0.1c0.5,0,0.9-0.2,1.3-0.4c0.6-0.3,1.1-0.6,1.6-1c0.6-0.5,1.2-1,1.8-1.5s1.2-1.2,1.8-1.8
		c0.6-0.6,1.1-1.3,1.7-2c0.5-0.7,1-1.3,1.5-2c0.4-0.6,0.8-1.2,1.1-1.9C172,320,172.2,319.5,172.4,318.9L172.4,318.9z"/>
	<path class="st2" d="M185.5,316.9c0.3-0.1,0.6,0,0.9,0.1c0.2,0.1,0.4,0.2,0.6,0.4c0.1,0.2,0.2,0.4,0.3,0.6c0.1,0.2,0.1,0.4,0,0.7
		c-0.1,0.4-0.2,0.7-0.4,1c-0.2,0.4-0.5,0.7-0.7,1c-0.3,0.4-0.6,0.7-1,1c-0.4,0.3-0.8,0.6-1.2,0.9c-0.4,0.3-0.9,0.6-1.3,0.8
		c-0.5,0.3-0.9,0.5-1.4,0.7c-0.5,0.2-0.9,0.4-1.4,0.5c-0.5,0.1-1,0.2-1.4,0.3c-0.1,0.3-0.2,0.6-0.3,0.9c-0.1,0.3-0.2,0.6-0.3,0.9
		c-0.1,0.3-0.2,0.6-0.3,0.9c-0.1,0.3-0.2,0.6-0.2,0.9c0,0.3,0,0.6-0.1,0.9c0,0.3,0,0.6,0.1,0.9c0.1,0.3,0.3,0.5,0.5,0.7
		c0.3,0.2,0.7,0.3,1.1,0.4c0.4,0,0.8,0,1.2-0.2c0.4-0.2,0.8-0.4,1.2-0.7c0.4-0.3,0.7-0.6,1.1-0.9c0.4-0.3,0.8-0.6,1.2-0.9l0.4,0.3
		c-0.6,0.6-1.2,1.1-1.9,1.6c-0.6,0.5-1.3,0.9-2,1.3c-0.7,0.4-1.3,0.7-2.1,1c-0.7,0.2-1.4,0.4-2.2,0.5c-0.2,0-0.5,0-0.7,0
		c-0.2,0-0.4-0.1-0.5-0.2c-0.1-0.1-0.3-0.2-0.4-0.4c-0.1-0.2-0.2-0.3-0.2-0.5c-0.1-0.2-0.1-0.4-0.1-0.6c0-0.2,0-0.4,0-0.6
		c0-0.2,0-0.4,0.1-0.6c0-0.2,0-0.4,0.1-0.6c0.3-1,0.6-2.1,1-3.1c0.3-0.9,0.7-1.8,1.2-2.6c0.4-0.8,0.9-1.5,1.4-2.2
		c0.5-0.6,1-1.2,1.5-1.8c0.5-0.5,1-1,1.6-1.4c0.5-0.4,1.1-0.7,1.6-1.1c0.5-0.3,1.1-0.5,1.6-0.7C184.5,317.2,185,317,185.5,316.9z
		 M178.7,324.1c0.6,0,1.3-0.1,1.9-0.3c0.6-0.2,1.2-0.5,1.7-0.9c0.5-0.3,0.9-0.8,1.3-1.3c0.3-0.5,0.6-1.1,0.7-1.7c0-0.2,0-0.4,0-0.6
		c0-0.2-0.1-0.3-0.2-0.4c-0.1-0.1-0.2-0.2-0.4-0.3c-0.1-0.1-0.3-0.1-0.4-0.1c-0.2,0-0.4,0-0.6,0.1c-0.2,0.1-0.4,0.2-0.6,0.4
		c-0.2,0.2-0.4,0.4-0.6,0.6c-0.2,0.2-0.4,0.5-0.6,0.7c-0.2,0.3-0.4,0.6-0.6,0.9c-0.2,0.3-0.4,0.6-0.5,0.9c-0.2,0.3-0.3,0.6-0.5,1
		C179,323.5,178.8,323.8,178.7,324.1L178.7,324.1z"/>
	<path class="st2" d="M200.7,310.1c0.1-0.2,0.2-0.4,0.2-0.6h2.2c0.7,0,1.4,0,2.2-0.1c0.6-0.1,1.3-0.2,1.9-0.3l2-0.3
		c0.7-0.1,1.3-0.2,1.9-0.3c0.7-0.1,1.3-0.2,1.9-0.3c0.4,0,0.7-0.1,1.1,0c0.3,0,0.6,0.1,0.9,0.1c0.2,0.1,0.5,0.2,0.7,0.3
		c0.2,0.1,0.3,0.3,0.5,0.4c0.1,0.2,0.2,0.3,0.3,0.5c0.1,0.2,0.2,0.4,0.2,0.6c0.1,0.2,0.1,0.4,0.1,0.7v0.7c0,0.8-0.2,1.5-0.5,2.2
		c-0.3,0.8-0.8,1.4-1.4,2c-0.7,0.7-1.4,1.3-2.2,1.7c-1,0.5-2,1-3,1.3c0.6-0.1,1.3-0.1,1.9-0.1c0.5,0,1,0,1.5,0.1
		c0.4,0.1,0.8,0.2,1.2,0.3c0.3,0.1,0.6,0.3,0.9,0.5c0.2,0.2,0.4,0.4,0.6,0.7c0.2,0.2,0.3,0.5,0.4,0.8c0.1,0.3,0.1,0.6,0.2,0.9
		c0,0.3,0,0.7,0,1c0,0.7-0.1,1.4-0.4,2c-0.2,0.6-0.4,1.2-0.8,1.8c-0.3,0.5-0.7,1.1-1.1,1.5c-0.4,0.5-0.9,0.9-1.4,1.3
		c-0.5,0.4-1.1,0.7-1.6,1c-0.6,0.3-1.2,0.6-1.8,0.8c-0.6,0.2-1.2,0.4-1.8,0.6c-0.6,0.1-1.2,0.2-1.8,0.3c-0.5,0.1-1,0.1-1.4,0.1h-2.9
		c-0.5,0-1,0-1.4,0.1c-0.8,0.1-1.5,0.1-2.3,0.2l-2.3,0.2l0.4-0.6l3.4-0.7c0.5-1.8,1-3.5,1.4-5.2s0.9-3.5,1.4-5.2
		c0.4-1.7,0.8-3.5,1.1-5.2s0.6-3.5,0.8-5.3C202.6,310.2,201.9,310.2,200.7,310.1z M204.6,320.2c-0.9,4.3-1.3,6.5-2.3,10.8
		c1.7,0,2.6,0.1,4.3,0.1c0.4,0,0.8-0.1,1.1-0.2c0.4-0.1,0.8-0.2,1.1-0.4c0.4-0.2,0.7-0.4,1.1-0.7c0.7-0.6,1.3-1.2,1.8-2
		c0.5-0.8,0.9-1.7,1.1-2.6c0.1-0.5,0.2-1,0.3-1.4c0.1-0.4,0.1-0.9,0-1.3c0-0.4-0.1-0.7-0.3-1.1c-0.1-0.3-0.3-0.6-0.5-0.8
		c-0.2-0.2-0.4-0.4-0.7-0.6c-0.3-0.2-0.5-0.3-0.8-0.4c-0.3-0.1-0.6-0.1-0.9-0.2c-0.3,0-0.6,0-0.9,0c-0.3,0-0.6,0.1-0.9,0.1
		C206.7,319.8,206,319.9,204.6,320.2z M204.8,318.9l2.5-0.3c0.5-0.1,1.1-0.2,1.6-0.3c0.4-0.1,0.9-0.3,1.3-0.5c0.4-0.2,0.7-0.4,1-0.6
		c0.3-0.2,0.6-0.5,0.8-0.8c0.2-0.3,0.4-0.6,0.6-0.9c0.2-0.3,0.3-0.6,0.5-0.9c0.1-0.3,0.3-0.6,0.4-1c0.1-0.3,0.2-0.7,0.3-1
		c0.1-0.3,0.1-0.5,0.1-0.8c0-0.2-0.1-0.5-0.2-0.7c-0.1-0.2-0.2-0.4-0.3-0.6c-0.1-0.2-0.3-0.4-0.5-0.5c-0.2-0.2-0.4-0.3-0.6-0.4
		c-0.2-0.1-0.5-0.2-0.7-0.3c-0.2-0.1-0.5-0.1-0.7-0.1c-0.3,0-0.5,0-0.8,0.1l-3.1,0.8C206.2,313.6,205.7,315.3,204.8,318.9
		L204.8,318.9z"/>
	<path class="st2" d="M225.4,312.8c0.1,0,0.3,0,0.4,0c0.1,0.1,0.2,0.2,0.3,0.3c0.1,0.1,0.2,0.3,0.2,0.4c0,0.1,0.1,0.3,0.1,0.5
		c-0.1,1-0.2,2.1-0.4,3.1c-0.2,1-0.4,2.1-0.6,3.1l-0.7,3.1c-0.2,1-0.4,2.1-0.6,3.1c0,0.1,0,0.2,0,0.3c0,0.1,0,0.2,0.1,0.3
		c0,0.1,0.1,0.2,0.2,0.2c0.1,0.1,0.2,0.1,0.2,0c0.4-0.2,0.8-0.5,1.2-0.8c0.5-0.4,0.9-0.9,1.3-1.4c0.5-0.5,1-1.1,1.4-1.8
		c0.5-0.7,0.9-1.4,1.4-2.1c0.4-0.7,0.9-1.5,1.2-2.2s0.7-1.5,1-2.3c0.3-0.7,0.5-1.4,0.7-2.2c0.2-0.6,0.3-1.3,0.3-1.9
		c1.1-0.9,1.6-1.4,2.7-2.3c-0.2,1.1-0.5,2.3-0.7,3.4c-0.2,1.1-0.4,2.3-0.5,3.4c-0.2,1.1-0.3,2.3-0.4,3.4c-0.1,1.1-0.3,2.3-0.4,3.4
		c0,0.1,0,0.2,0,0.3c0,0.1,0,0.2,0.1,0.3c0,0.1,0.1,0.2,0.1,0.2c0.1,0.1,0.2,0.1,0.2,0c0.2-0.1,0.4-0.2,0.5-0.3
		c0.2-0.1,0.3-0.3,0.5-0.4l0.4-0.5c0.1-0.2,0.3-0.3,0.5-0.5l0.4,0.3c-0.2,0.2-0.3,0.4-0.5,0.7l-0.6,0.7c-0.2,0.3-0.4,0.5-0.6,0.7
		s-0.4,0.5-0.6,0.7s-0.4,0.4-0.6,0.6c-0.2,0.2-0.4,0.4-0.6,0.5c-0.2,0.1-0.3,0.3-0.5,0.4c-0.1,0.1-0.3,0.2-0.5,0.2
		c-0.1,0-0.3,0-0.4-0.1c-0.1-0.1-0.3-0.2-0.3-0.3c-0.1-0.1-0.2-0.3-0.2-0.5c0-0.2-0.1-0.3-0.1-0.5c0-0.6,0.1-1.2,0.2-1.8
		c0.1-0.6,0.2-1.2,0.3-1.9s0.3-1.2,0.4-1.9c0.1-0.6,0.2-1.2,0.3-1.8c-0.3,0.5-0.7,1-1,1.5c-0.4,0.5-0.8,1.1-1.2,1.6
		c-0.4,0.5-0.8,1.1-1.3,1.7c-0.4,0.6-0.9,1.1-1.3,1.6s-0.9,1-1.4,1.4c-0.5,0.4-0.9,0.9-1.3,1.2c-0.4,0.3-0.8,0.6-1.3,0.9
		c-0.4,0.2-0.7,0.4-1.1,0.5c-0.1,0-0.3,0-0.4-0.1c-0.1-0.1-0.2-0.2-0.3-0.3c-0.1-0.1-0.2-0.3-0.2-0.4c0-0.1-0.1-0.3-0.1-0.5
		c0.1-1,0.3-2,0.5-3c0.2-1,0.5-2,0.7-3c0.2-1,0.5-2,0.7-3c0.2-1,0.4-2.1,0.4-3.1v-0.2c0-0.1,0-0.2,0-0.2c0-0.1,0-0.1-0.1-0.2
		c0,0-0.1,0-0.2,0c-0.2,0.1-0.3,0.2-0.5,0.3c-0.2,0.1-0.3,0.2-0.4,0.4c-0.1,0.1-0.3,0.3-0.4,0.4c-0.1,0.1-0.3,0.3-0.4,0.4l-0.4-0.3
		c0.4-0.4,0.8-0.7,1.1-1.2c0.4-0.4,0.7-0.8,1.1-1.2c0.3-0.4,0.7-0.8,1.1-1.1C224.5,313.1,224.9,312.9,225.4,312.8z"/>
	<path class="st2" d="M243.6,308.9c0.1-0.1,0.3,0,0.4,0.1c0.1,0.1,0.2,0.3,0.3,0.4c0.1,0.2,0.1,0.4,0.2,0.6c0,0.2,0,0.4,0.1,0.6
		c0,0.5,0,1,0,1.4c0,0.5-0.1,1-0.1,1.4c-0.1,0.5-0.1,1-0.2,1.5c-0.1,0.5-0.1,1-0.2,1.5c0.2-0.4,0.4-0.8,0.6-1.3l0.7-1.4
		c0.2-0.5,0.5-1,0.8-1.4s0.5-1,0.8-1.4c0.3-0.5,0.6-0.9,0.8-1.3c0.3-0.4,0.5-0.7,0.8-1.1c0.2-0.3,0.5-0.6,0.8-0.8
		c0.2-0.2,0.5-0.3,0.7-0.4c0.2,0,0.3,0,0.5,0c0.2,0,0.3,0.1,0.4,0.2c0.1,0.1,0.2,0.2,0.3,0.4c0.1,0.1,0.1,0.3,0.1,0.5
		c0,0.3-0.1,0.6-0.2,0.8c-0.1,0.3-0.3,0.5-0.4,0.8c-0.2,0.2-0.3,0.5-0.5,0.7l-0.6,0.7l-0.3-0.3c-0.1-0.1-0.2-0.1-0.3-0.2
		c-0.1-0.1-0.2-0.1-0.3-0.1c-0.1,0-0.2,0-0.3,0c-0.4,0.1-0.7,0.3-1,0.6c-0.4,0.4-0.7,0.7-0.9,1.2c-0.3,0.5-0.6,1.1-0.9,1.7
		c-0.3,0.6-0.5,1.3-0.8,2c-0.3,0.7-0.5,1.4-0.7,2.2c-0.2,0.7-0.4,1.5-0.6,2.3c-0.2,0.7-0.3,1.4-0.5,2.2c-0.1,0.7-0.2,1.3-0.3,1.9
		c-1,0.8-1.6,1.1-2.6,1.9c0.1-1.1,0.3-2.2,0.4-3.4c0.2-1.1,0.3-2.3,0.4-3.4s0.3-2.3,0.4-3.4c0.1-1.1,0.2-2.3,0.3-3.4
		c0-0.1,0-0.2,0-0.3c0-0.1-0.1-0.2-0.1-0.3c0-0.1-0.1-0.1-0.2-0.2c-0.1,0-0.2,0-0.2,0c-0.2,0.1-0.3,0.2-0.5,0.3
		c-0.1,0.1-0.3,0.3-0.4,0.4c-0.1,0.2-0.3,0.3-0.4,0.5c-0.1,0.2-0.3,0.3-0.4,0.4l-0.3-0.2l0.2-0.3l0.4-0.5c0.1-0.2,0.3-0.4,0.5-0.7
		c0.2-0.3,0.4-0.5,0.6-0.7c0.2-0.2,0.4-0.5,0.6-0.8c0.2-0.3,0.5-0.5,0.7-0.7c0.2-0.2,0.5-0.4,0.7-0.6
		C243.1,309.1,243.3,309,243.6,308.9z"/>
	<path class="st2" d="M259.9,304.3c0.3-0.1,0.6-0.2,0.9-0.2c0.3,0,0.5,0.1,0.7,0.3c0.2,0.1,0.3,0.3,0.4,0.5c0.1,0.2,0.2,0.4,0.2,0.6
		c0,0.4-0.1,0.7-0.2,1.1c-0.1,0.4-0.3,0.8-0.5,1.2c-0.2,0.4-0.4,0.8-0.7,1.2c-0.3,0.4-0.6,0.8-0.9,1.2c-0.3,0.4-0.7,0.8-1.1,1.1
		c-0.4,0.4-0.8,0.7-1.2,1c-0.4,0.3-0.8,0.6-1.3,0.8c-0.4,0.2-0.9,0.4-1.3,0.6c0,0.3-0.1,0.7-0.1,1c0,0.3-0.1,0.7-0.1,1
		c0,0.3,0,0.7,0,1c0,0.3,0,0.6,0.1,1c0.1,0.3,0.1,0.6,0.2,0.9c0.1,0.3,0.2,0.6,0.3,0.8c0.2,0.2,0.4,0.4,0.7,0.5
		c0.4,0.1,0.8,0.1,1.2,0.1c0.4-0.1,0.8-0.2,1.1-0.5c0.3-0.3,0.7-0.6,1-0.9c0.3-0.4,0.6-0.7,0.9-1.1c0.3-0.4,0.6-0.8,0.9-1.1l0.4,0.2
		c-0.4,0.7-0.9,1.4-1.4,2c-0.5,0.6-1,1.2-1.6,1.8c-0.5,0.5-1.1,1-1.8,1.4c-0.6,0.4-1.3,0.8-2,1c-0.2,0.1-0.5,0.1-0.7,0.2
		c-0.2,0-0.4,0-0.6-0.1c-0.2-0.1-0.3-0.2-0.5-0.3c-0.1-0.1-0.3-0.3-0.4-0.4c-0.1-0.2-0.2-0.3-0.3-0.5c-0.1-0.2-0.1-0.4-0.2-0.6
		c0-0.2-0.1-0.4-0.1-0.6c0-0.2,0-0.4,0-0.6c0-1.1,0-2.1,0.1-3.2c0.1-1,0.3-1.9,0.5-2.9c0.2-0.8,0.5-1.7,0.8-2.5
		c0.3-0.7,0.6-1.5,1-2.2c0.4-0.6,0.8-1.2,1.2-1.8c0.4-0.5,0.8-1,1.3-1.4c0.4-0.4,0.9-0.8,1.4-1.1
		C258.9,304.7,259.4,304.5,259.9,304.3z M255.1,313c0.6-0.2,1.2-0.4,1.8-0.8c0.5-0.4,1-0.8,1.4-1.3c0.4-0.5,0.7-1,0.9-1.6
		c0.2-0.6,0.3-1.2,0.2-1.8c0-0.2-0.1-0.4-0.2-0.6c-0.1-0.1-0.2-0.3-0.3-0.3c-0.1-0.1-0.3-0.1-0.4-0.2c-0.2,0-0.3,0-0.5,0
		c-0.2,0-0.4,0.1-0.6,0.3c-0.2,0.1-0.4,0.3-0.5,0.5c-0.2,0.2-0.3,0.5-0.5,0.7c-0.1,0.3-0.3,0.6-0.4,0.9c-0.1,0.3-0.3,0.7-0.3,1
		c-0.1,0.3-0.2,0.7-0.3,1c-0.1,0.3-0.1,0.7-0.2,1.1S255.1,312.7,255.1,313z"/>
	<path class="st2" d="M276.8,298.7c-0.1,1.1-0.2,2.2-0.2,3.3s-0.1,2.2-0.2,3.3c0,1.1,0,2.2,0,3.4c0,1.1,0.1,2.3,0.3,3.4v0.4
		c0,0.1,0,0.3,0.1,0.4c0,0.1,0.1,0.2,0.1,0.3c0.1,0.1,0.2,0.1,0.3,0.1c0.2,0,0.3-0.1,0.4-0.2c0.1-0.1,0.2-0.3,0.3-0.4
		c0.1-0.2,0.2-0.3,0.3-0.5c0.1-0.2,0.2-0.3,0.3-0.4l0.5,0.3c-0.3,0.4-0.5,0.8-0.8,1.3c-0.3,0.5-0.6,0.9-0.9,1.4
		c-0.3,0.4-0.7,0.9-1,1.2c-0.3,0.4-0.8,0.6-1.2,0.8c-0.1,0.1-0.2,0.1-0.4,0c-0.1-0.1-0.2-0.1-0.3-0.3c-0.1-0.1-0.1-0.3-0.2-0.4
		c0-0.1-0.1-0.3-0.1-0.4c-0.1-0.6-0.1-1.3-0.1-1.9c0-0.6,0-1.3,0-1.9c0-0.6,0-1.3,0.1-1.9s0-1.3,0-1.9c-0.2,0.5-0.4,1-0.7,1.6
		c-0.3,0.6-0.6,1.1-0.9,1.8s-0.7,1.2-1,1.8c-0.3,0.6-0.7,1.2-1.1,1.8c-0.4,0.6-0.8,1.1-1.2,1.7c-0.4,0.5-0.8,1-1.2,1.4
		c-0.4,0.4-0.7,0.8-1.2,1.1c-0.3,0.3-0.7,0.5-1.1,0.6c-0.2,0.1-0.4,0.1-0.6-0.1c-0.2-0.2-0.3-0.3-0.4-0.6c-0.1-0.3-0.2-0.5-0.2-0.8
		c-0.1-0.3-0.1-0.5-0.1-0.7c-0.1-0.7-0.2-1.4-0.2-2.2c0-0.8,0-1.6,0.2-2.4c0.1-0.9,0.3-1.7,0.5-2.6c0.2-0.9,0.5-1.7,0.9-2.6
		c0.4-0.9,0.8-1.7,1.3-2.5c0.5-0.8,1-1.5,1.7-2.2c0.6-0.7,1.3-1.3,2.1-1.8c0.8-0.5,1.6-1,2.5-1.3
		C274.8,299.4,275.4,299.1,276.8,298.7z M274.2,301.4l-2.7,1c-0.5,0.2-1,0.4-1.4,0.8c-0.4,0.3-0.8,0.7-1.1,1.1
		c-0.3,0.4-0.6,0.9-0.9,1.4c-0.2,0.5-0.4,1.1-0.6,1.7c-0.2,0.6-0.3,1.2-0.4,1.9c-0.1,0.7-0.1,1.3-0.2,2v2.2c0,0.7,0.1,1.4,0.1,2.2
		c0,0.1,0,0.3,0.1,0.4c0,0.1,0.1,0.3,0.1,0.4c0,0.1,0.1,0.2,0.2,0.3c0.1,0.1,0.2,0.1,0.3,0c0.4-0.2,0.8-0.5,1.1-0.8
		c0.4-0.5,0.8-1,1.2-1.5c0.4-0.7,0.8-1.3,1.2-2c0.4-0.7,0.7-1.5,1.1-2.4c0.3-0.8,0.6-1.6,0.9-2.5c0.3-0.8,0.5-1.6,0.7-2.4
		c0.2-0.7,0.3-1.4,0.4-2.1C274.3,302.5,274.3,301.9,274.2,301.4L274.2,301.4z"/>
	<path class="st2" d="M283.7,295.9c0.1-0.1,0.3-0.1,0.4,0c0.1,0,0.3,0.1,0.4,0.2c0.1,0.1,0.2,0.2,0.3,0.4c0.1,0.1,0.1,0.3,0.1,0.4
		c0.1,1,0.2,2.1,0.2,3.1c0,1.1,0,2.1,0,3.2l0,3.2c0,1.1,0,2.2,0.1,3.2c0,0.1,0,0.2,0.1,0.3c0,0.1,0.1,0.2,0.2,0.3
		c0.1,0.1,0.1,0.2,0.2,0.2c0.1,0.1,0.2,0.1,0.2,0c0.4-0.3,0.7-0.7,1-1.1c0.4-0.5,0.7-1.1,1-1.6c0.4-0.7,0.7-1.4,1-2.1
		c0.3-0.7,0.7-1.5,0.9-2.3c0.3-0.8,0.5-1.6,0.8-2.5c0.2-0.8,0.4-1.6,0.5-2.4c0.1-0.7,0.2-1.5,0.3-2.3c0-0.6,0-1.3-0.1-1.9
		c0.9-1.1,1.3-1.7,2.2-2.8c0,1.2,0,2.3,0.1,3.5c0.1,1.2,0.1,2.3,0.2,3.5c0.1,1.2,0.2,2.3,0.3,3.5c0.1,1.2,0.2,2.3,0.3,3.5
		c0,0.1,0,0.2,0.1,0.3c0,0.1,0.1,0.2,0.1,0.3c0,0.1,0.1,0.2,0.2,0.2c0.1,0.1,0.2,0.1,0.2,0c0.2-0.1,0.3-0.2,0.5-0.4
		c0.1-0.2,0.3-0.3,0.4-0.5l0.3-0.6c0.1-0.2,0.2-0.4,0.4-0.6l0.5,0.2c-0.1,0.2-0.3,0.5-0.4,0.8l-0.4,0.8c-0.2,0.3-0.3,0.6-0.5,0.8
		c-0.2,0.3-0.3,0.5-0.5,0.8c-0.2,0.3-0.3,0.5-0.5,0.7s-0.3,0.4-0.5,0.6c-0.1,0.2-0.3,0.3-0.4,0.5c-0.1,0.1-0.3,0.2-0.4,0.3
		c-0.1,0.1-0.3,0.1-0.4,0.1c-0.1,0-0.3-0.1-0.4-0.2c-0.1-0.1-0.2-0.3-0.3-0.4c-0.1-0.1-0.1-0.3-0.2-0.5c-0.1-0.6-0.2-1.2-0.2-1.8
		c0-0.6-0.1-1.2-0.1-1.9c0-0.6,0-1.3,0-1.9c0-0.6,0-1.3-0.1-1.9c-0.2,0.5-0.4,1.1-0.7,1.7c-0.3,0.6-0.5,1.2-0.8,1.8
		s-0.6,1.2-0.9,1.9c-0.3,0.6-0.7,1.2-1,1.9c-0.3,0.6-0.7,1.2-1.1,1.7c-0.3,0.5-0.7,1-1.1,1.5c-0.3,0.4-0.7,0.8-1.1,1.1
		c-0.3,0.3-0.7,0.5-1,0.7c-0.1,0.1-0.3,0.1-0.4,0c-0.1,0-0.3-0.1-0.4-0.2c-0.1-0.1-0.2-0.2-0.3-0.4c-0.1-0.1-0.1-0.3-0.1-0.4
		c-0.1-1-0.1-2-0.1-3.1c0-1,0.1-2.1,0.1-3.1c0-1,0.1-2.1,0.1-3.1c0-1.1-0.1-2.1-0.2-3.2c0-0.1,0-0.1-0.1-0.2c0-0.1-0.1-0.2-0.1-0.2
		c0-0.1-0.1-0.1-0.1-0.2c0,0-0.1,0-0.2,0c-0.2,0.1-0.3,0.2-0.4,0.4c-0.1,0.1-0.2,0.3-0.4,0.5c-0.1,0.2-0.2,0.3-0.3,0.5
		c-0.1,0.2-0.2,0.3-0.4,0.5l-0.5-0.2c0.3-0.4,0.6-0.9,0.9-1.4c0.3-0.5,0.5-1,0.8-1.4c0.3-0.5,0.6-0.9,0.9-1.3
		C283,296.5,283.3,296.1,283.7,295.9z"/>
</g>
</svg>
