<svg width="84" height="84" viewBox="0 0 84 84" fill="none" xmlns="http://www.w3.org/2000/svg">
<path d="M23.6429 47.286V54.2398C23.6429 55.7152 24.2291 57.1302 25.2723 58.1735C26.3156 59.2167 27.7306 59.8028 29.206 59.8028H54.2397C55.7151 59.8028 57.1301 59.2167 58.1734 58.1735C59.2167 57.1302 59.8028 55.7152 59.8028 54.2398V29.206C59.8028 27.7306 59.2167 26.3156 58.1734 25.2724C57.1301 24.2291 55.7151 23.643 54.2397 23.643H29.206C27.7306 23.643 26.3156 24.2291 25.2723 25.2724C24.2291 26.3156 23.6429 27.7306 23.6429 29.206V47.286ZM33.3783 40.3321C33.3783 39.5944 33.6713 38.8869 34.193 38.3653C34.7146 37.8437 35.4221 37.5506 36.1598 37.5506V34.7691C36.1598 33.2937 36.7459 31.8787 37.7892 30.8354C38.8325 29.7921 40.2475 29.206 41.7229 29.206C43.1983 29.206 44.6133 29.7921 45.6565 30.8354C46.6998 31.8787 47.2859 33.2937 47.2859 34.7691V37.5506C48.0236 37.5506 48.7311 37.8437 49.2528 38.3653C49.7744 38.8869 50.0674 39.5944 50.0674 40.3321V51.4583C50.0674 52.196 49.7744 52.9035 49.2528 53.4251C48.7311 53.9467 48.0236 54.2398 47.2859 54.2398H36.1598C35.4221 54.2398 34.7146 53.9467 34.193 53.4251C33.6713 52.9035 33.3783 52.196 33.3783 51.4583V40.3321Z" fill="white"/>
<path d="M41.7229 11.1261C43.2591 11.1261 44.5045 9.88079 44.5045 8.34459C44.5045 6.8084 43.2591 5.56307 41.7229 5.56307C40.1867 5.56307 38.9414 6.8084 38.9414 8.34459C38.9414 9.88079 40.1867 11.1261 41.7229 11.1261Z" fill="#8586EE"/>
<path d="M63.9751 9.73536C65.5113 9.73536 66.7567 8.49003 66.7567 6.95383C66.7567 5.41764 65.5113 4.17231 63.9751 4.17231C62.4389 4.17231 61.1936 5.41764 61.1936 6.95383C61.1936 8.49003 62.4389 9.73536 63.9751 9.73536Z" fill="#8586EE"/>
<path d="M22.2522 6.95383C23.7884 6.95383 25.0338 5.7085 25.0338 4.1723C25.0338 2.63611 23.7884 1.39078 22.2522 1.39078C20.716 1.39078 19.4707 2.63611 19.4707 4.1723C19.4707 5.7085 20.716 6.95383 22.2522 6.95383Z" fill="#8586EE"/>
<path d="M52.849 82.055C54.3852 82.055 55.6306 80.8097 55.6306 79.2735C55.6306 77.7373 54.3852 76.492 52.849 76.492C51.3128 76.492 50.0675 77.7373 50.0675 79.2735C50.0675 80.8097 51.3128 82.055 52.849 82.055Z" fill="#8586EE"/>
<path d="M65.3659 73.7105C66.9021 73.7105 68.1474 72.4651 68.1474 70.9289C68.1474 69.3927 66.9021 68.1474 65.3659 68.1474C63.8297 68.1474 62.5844 69.3927 62.5844 70.9289C62.5844 72.4651 63.8297 73.7105 65.3659 73.7105Z" fill="#8586EE"/>
<path d="M22.2522 82.055C23.7884 82.055 25.0338 80.8097 25.0338 79.2735C25.0338 77.7373 23.7884 76.492 22.2522 76.492C20.716 76.492 19.4707 77.7373 19.4707 79.2735C19.4707 80.8097 20.716 82.055 22.2522 82.055Z" fill="#8586EE"/>
<path d="M74.4735 26.2876C75.9527 25.8729 76.8156 24.3376 76.4009 22.8585C75.9862 21.3793 74.4509 20.5164 72.9717 20.9311C71.4926 21.3458 70.6297 22.8811 71.0444 24.3603C71.4591 25.8394 72.9944 26.7023 74.4735 26.2876Z" fill="#8586EE"/>
<path d="M80.0518 61.0539C81.5309 60.6392 82.3938 59.1039 81.9791 57.6248C81.5644 56.1456 80.0291 55.2827 78.55 55.6974C77.0708 56.1121 76.2079 57.6474 76.6226 59.1266C77.0373 60.6058 78.5726 61.4687 80.0518 61.0539Z" fill="#8586EE"/>
<path d="M80.0421 38.8017C81.5213 38.387 82.3842 36.8517 81.9695 35.3725C81.5548 33.8934 80.0195 33.0305 78.5403 33.4452C77.0612 33.8599 76.1983 35.3952 76.613 36.8744C77.0277 38.3535 78.563 39.2164 80.0421 38.8017Z" fill="#8586EE"/>
<path d="M12.4187 24.4053C12.8334 22.9261 11.9705 21.3908 10.4914 20.9761C9.0122 20.5614 7.47691 21.4243 7.06219 22.9035C6.64747 24.3826 7.51037 25.9179 8.98953 26.3326C10.4687 26.7473 12.004 25.8844 12.4187 24.4053Z" fill="#8586EE"/>
<path d="M12.4321 64.5746C12.7501 63.0722 11.7899 61.5964 10.2875 61.2784C8.78514 60.9604 7.30942 61.9206 6.99143 63.423C6.67343 64.9254 7.63358 66.4011 9.13598 66.7191C10.6384 67.0371 12.1141 66.077 12.4321 64.5746Z" fill="#8586EE"/>
<path d="M4.06247 47.2859C4.6152 47.3075 5.16182 47.1638 5.63247 46.8732C6.10312 46.5826 6.47643 46.1582 6.7047 45.6544C6.93297 45.1505 7.00582 44.59 6.91395 44.0446C6.82208 43.4991 6.56966 42.9934 6.18894 42.5921L5.5631 43.1136L6.18894 42.5921C5.87515 42.2613 5.48486 42.0128 5.05243 41.8683C4.61999 41.7239 4.15868 41.6879 3.70909 41.7636C3.25949 41.8393 2.83541 42.0244 2.47415 42.3026C2.1129 42.5807 1.82555 42.9434 1.63741 43.3587C1.44926 43.774 1.36609 44.2292 1.3952 44.6842C1.42432 45.1391 1.56483 45.58 1.80438 45.9679C2.04392 46.3559 2.37515 46.679 2.76891 46.9088C3.16267 47.1386 3.60689 47.2681 4.06247 47.2859Z" fill="#8586EE"/>
<path d="M42.4955 47.1629C43.9747 46.7482 44.8376 45.2129 44.4228 43.7338C44.0081 42.2546 42.4728 41.3917 40.9937 41.8064C39.5145 42.2212 38.6516 43.7564 39.0663 45.2356C39.4811 46.7148 41.0163 47.5777 42.4955 47.1629Z" fill="#8586EE"/>
<path d="M47.2859 34.7691C47.2859 33.2937 46.6998 31.8787 45.6565 30.8354C44.6132 29.7921 43.1983 29.206 41.7228 29.206C40.2474 29.206 38.8324 29.7921 37.7892 30.8354C36.7459 31.8787 36.1598 33.2937 36.1598 34.7691V37.5506H47.2859V34.7691Z" fill="white"/>
<path d="M34.769 12.5169H37.5506V15.2984H34.769V12.5169Z" fill="#7373E0"/>
<path d="M70.929 45.8952H73.7105V48.6767H70.929V45.8952Z" fill="#7373E0"/>
<path d="M45.8951 68.1474H48.6767V70.9289H45.8951V68.1474Z" fill="#7373E0"/>
<path d="M34.769 72.3197H37.5506V75.1012H34.769V72.3197Z" fill="#7373E0"/>
<path d="M12.5168 40.3321H15.2984V43.1137H12.5168V40.3321Z" fill="#7373E0"/>
<path d="M45.8951 12.5169H48.6767V15.2984H45.8951V12.5169Z" fill="#7373E0"/>
<path d="M68.1475 34.7691H70.929V37.5506H68.1475V34.7691Z" fill="#7373E0"/>
<path d="M61.1936 20.8615H63.9751V23.643H61.1936V20.8615Z" fill="#7373E0"/>
<path d="M19.4707 20.8615H22.2522V23.643H19.4707V20.8615Z" fill="#7373E0"/>
<path d="M61.1936 59.8028H63.9751V62.5844H61.1936V59.8028Z" fill="#7373E0"/>
<path d="M19.4707 59.8028H22.2522V62.5844H19.4707V59.8028Z" fill="#7373E0"/>
<path d="M41.5587 40.3322C40.586 40.3636 39.6551 40.7347 38.9275 41.381C38.2 42.0273 37.7218 42.9081 37.576 43.8703C37.4303 44.8324 37.6261 45.8153 38.1296 46.6481C38.633 47.4809 39.4123 48.1111 40.332 48.4292V51.4583H43.1135V48.4195C44.0558 48.0894 44.8481 47.4318 45.3459 46.5663C45.8437 45.7009 46.0138 44.6854 45.8253 43.705C45.6368 42.7245 45.1022 41.8445 44.319 41.2254C43.5358 40.6063 42.5561 40.2892 41.5587 40.3322ZM43.1135 44.4502C43.1208 44.6328 43.092 44.815 43.0289 44.9864C42.9657 45.1578 42.8694 45.3152 42.7454 45.4493C42.6214 45.5835 42.4722 45.692 42.3063 45.7685C42.1403 45.845 41.961 45.8881 41.7784 45.8952C41.5956 45.9024 41.4132 45.8734 41.2416 45.8099C41.07 45.7464 40.9126 45.6497 40.7785 45.5253C40.5763 45.3387 40.434 45.0962 40.3697 44.8287C40.3053 44.5612 40.3217 44.2807 40.4169 44.0225C40.512 43.7643 40.6816 43.5402 40.9041 43.3784C41.1267 43.2166 41.3922 43.1245 41.6672 43.1137H41.7228C42.0822 43.1134 42.4278 43.2523 42.687 43.5012C42.9463 43.7501 43.0992 44.0897 43.1135 44.4488V44.4502Z" fill="#302C8C"/>
<path d="M48.6767 36.4157V34.7691C48.6767 32.9248 47.9441 31.1561 46.64 29.852C45.3359 28.5479 43.5672 27.8153 41.7229 27.8153C39.8786 27.8153 38.1099 28.5479 36.8058 29.852C35.5017 31.1561 34.7691 32.9248 34.7691 34.7691V36.4157C33.9584 36.7024 33.2561 37.2324 32.7582 37.9335C32.2603 38.6345 31.9911 39.4723 31.9875 40.3321V51.4582C31.9875 52.5648 32.4271 53.626 33.2096 54.4085C33.992 55.1909 35.0533 55.6305 36.1598 55.6305H47.2859C48.3925 55.6305 49.4537 55.1909 50.2362 54.4085C51.0187 53.626 51.4582 52.5648 51.4582 51.4582V40.3321C51.4547 39.4723 51.1855 38.6345 50.6876 37.9335C50.1897 37.2324 49.4874 36.7024 48.6767 36.4157ZM37.5506 34.7691C37.5506 33.6625 37.9902 32.6013 38.7726 31.8188C39.5551 31.0364 40.6163 30.5968 41.7229 30.5968C42.8295 30.5968 43.8907 31.0364 44.6731 31.8188C45.4556 32.6013 45.8952 33.6625 45.8952 34.7691V36.1598H37.5506V34.7691ZM48.6767 51.4582C48.6767 51.8271 48.5302 52.1808 48.2694 52.4417C48.0085 52.7025 47.6548 52.849 47.2859 52.849H36.1598C35.791 52.849 35.4372 52.7025 35.1764 52.4417C34.9156 52.1808 34.7691 51.8271 34.7691 51.4582V40.3321C34.7691 39.9633 34.9156 39.6095 35.1764 39.3487C35.4372 39.0879 35.791 38.9414 36.1598 38.9414H47.2859C47.6548 38.9414 48.0085 39.0879 48.2694 39.3487C48.5302 39.6095 48.6767 39.9633 48.6767 40.3321V51.4582Z" fill="#302C8C"/>
<path d="M79.2735 54.2398C78.6539 54.2422 78.043 54.3848 77.4864 54.657L74.2876 51.4582H61.1936V48.6767H68.1474V45.8952H61.1936V43.1137H68.4756L76.3849 39.1583C77.0781 39.8223 77.9794 40.2264 78.9363 40.3022C79.8931 40.378 80.8468 40.1209 81.6359 39.5744C82.425 39.0279 83.0011 38.2256 83.2666 37.3031C83.5321 36.3807 83.4708 35.3949 83.0931 34.5125C82.7153 33.6301 82.0443 32.9053 81.1936 32.4608C80.3428 32.0162 79.3646 31.8793 78.4245 32.073C77.4844 32.2668 76.6401 32.7795 76.0345 33.5242C75.4289 34.2689 75.0992 35.2 75.1012 36.1599C75.1078 36.329 75.1249 36.4977 75.1527 36.6647L67.8192 40.3321H61.1936V37.5506H65.3659V34.7691H61.1936V31.9876H67.3324L71.9219 27.398C72.4789 27.6704 73.0904 27.8131 73.7105 27.8153C74.5357 27.8153 75.3423 27.5706 76.0285 27.1121C76.7146 26.6537 77.2494 26.002 77.5652 25.2396C77.8809 24.4773 77.9636 23.6384 77.8026 22.829C77.6416 22.0197 77.2442 21.2762 76.6607 20.6927C76.0772 20.1092 75.3338 19.7118 74.5244 19.5509C73.7151 19.3899 72.8762 19.4725 72.1138 19.7883C71.3514 20.1041 70.6998 20.6389 70.2413 21.325C69.7829 22.0111 69.5382 22.8178 69.5382 23.643C69.5406 24.2625 69.6832 24.8735 69.9554 25.4301L66.1809 29.206H61.1936C61.1914 27.3624 60.458 25.595 59.1544 24.2914C57.8508 22.9878 56.0834 22.2544 54.2398 22.2522V18.6557L62.188 10.7089C62.7446 10.9811 63.3555 11.1237 63.9751 11.1261C64.8003 11.1261 65.607 10.8814 66.2931 10.423C66.9792 9.96449 67.514 9.31287 67.8298 8.55049C68.1456 7.7881 68.2282 6.94919 68.0672 6.13985C67.9062 5.3305 67.5089 4.58707 66.9254 4.00356C66.3419 3.42006 65.5984 3.02269 64.7891 2.8617C63.9797 2.70071 63.1408 2.78333 62.3785 3.09913C61.6161 3.41492 60.9644 3.94969 60.506 4.63582C60.0475 5.32195 59.8028 6.12862 59.8028 6.95382C59.8052 7.57339 59.9479 8.18437 60.2201 8.74095L51.4582 17.5028V22.2522H48.6767V18.0799H45.8952V22.2522H43.1137V12.261C44.0416 11.9329 44.8237 11.2873 45.3217 10.4384C45.8197 9.58947 46.0015 8.59181 45.8351 7.62176C45.6687 6.65171 45.1647 5.77172 44.4122 5.13734C43.6597 4.50295 42.7071 4.15501 41.7229 4.15501C40.7387 4.15501 39.7861 4.50295 39.0336 5.13734C38.2811 5.77172 37.7771 6.65171 37.6107 7.62176C37.4443 8.59181 37.6261 9.58947 38.1241 10.4384C38.6221 11.2873 39.4042 11.9329 40.3321 12.261V22.2522H37.5506V18.0799H34.7691V22.2522H31.9876V11.9411L26.0073 5.96081C26.2797 5.40381 26.4223 4.79233 26.4245 4.17229C26.4245 3.34709 26.1798 2.54042 25.7213 1.85429C25.2629 1.16816 24.6113 0.633389 23.8489 0.317599C23.0865 0.0018078 22.2476 -0.0808175 21.4382 0.0801713C20.6289 0.24116 19.8855 0.638532 19.302 1.22204C18.7185 1.80554 18.3211 2.54897 18.1601 3.35832C17.9991 4.16766 18.0817 5.00657 18.3975 5.76896C18.7133 6.53134 19.2481 7.18297 19.9342 7.64142C20.6203 8.09988 21.427 8.34458 22.2522 8.34458C22.8718 8.34218 23.4828 8.19954 24.0393 7.92735L29.206 13.0926V22.2522C27.3624 22.2544 25.595 22.9878 24.2914 24.2914C22.9878 25.595 22.2544 27.3624 22.2522 29.206H17.2649L13.4904 25.4301C13.7626 24.8735 13.9052 24.2625 13.9076 23.643C13.9076 22.8178 13.6629 22.0111 13.2045 21.325C12.746 20.6389 12.0944 20.1041 11.332 19.7883C10.5696 19.4725 9.73072 19.3899 8.92137 19.5509C8.11203 19.7118 7.3686 20.1092 6.78509 20.6927C6.20159 21.2762 5.80421 22.0197 5.64323 22.829C5.48224 23.6384 5.56486 24.4773 5.88065 25.2396C6.19644 26.002 6.73122 26.6537 7.41735 27.1121C8.10347 27.5706 8.91014 27.8153 9.73535 27.8153C10.3549 27.8129 10.9659 27.6702 11.5225 27.398L16.112 31.9876H22.2522V34.7691H13.4042L6.11936 40.8384C5.52235 40.5108 4.85325 40.3369 4.17229 40.3321C3.34709 40.3321 2.54042 40.5768 1.85429 41.0353C1.16816 41.4938 0.633389 42.1454 0.317599 42.9078C0.0018078 43.6702 -0.0808175 44.5091 0.0801713 45.3184C0.24116 46.1277 0.638532 46.8712 1.22204 47.4547C1.80554 48.0382 2.54897 48.4356 3.35832 48.5965C4.16766 48.7575 5.00657 48.6749 5.76896 48.3591C6.53134 48.0433 7.18297 47.5086 7.64142 46.8224C8.09988 46.1363 8.34458 45.3296 8.34458 44.5044C8.34552 43.9463 8.2334 43.3937 8.01497 42.88L14.4111 37.5506H22.2522V40.3321H18.0799V43.1137H22.2522V45.8952H9.73535V48.6767H22.2522V51.4582H14.5543L8.94956 59.864C8.74968 59.8288 8.54747 59.8083 8.34458 59.8028C7.37703 59.7939 6.43593 60.1185 5.67956 60.722C4.9232 61.3254 4.39771 62.1709 4.19147 63.1163C3.98524 64.0616 4.11083 65.0492 4.54714 65.9128C4.98346 66.7765 5.70386 67.4635 6.5872 67.8584C7.47054 68.2533 8.46293 68.332 9.39745 68.0812C10.332 67.8304 11.1516 67.2654 11.7186 66.4813C12.2855 65.6972 12.5651 64.7418 12.5104 63.7758C12.4557 62.8097 12.07 61.892 11.4182 61.1769L16.0425 54.2398H22.2522C22.2544 56.0834 22.9878 57.8508 24.2914 59.1544C25.595 60.458 27.3624 61.1914 29.206 61.1936V70.3532L24.0393 75.5184C23.4828 75.2463 22.8718 75.1036 22.2522 75.1012C21.427 75.1012 20.6203 75.3459 19.9342 75.8044C19.2481 76.2628 18.7133 76.9145 18.3975 77.6768C18.0817 78.4392 17.9991 79.2781 18.1601 80.0875C18.3211 80.8968 18.7185 81.6403 19.302 82.2238C19.8855 82.8073 20.6289 83.2046 21.4382 83.3656C22.2476 83.5266 23.0865 83.444 23.8489 83.1282C24.6113 82.8124 25.2629 82.2776 25.7213 81.5915C26.1798 80.9054 26.4245 80.0987 26.4245 79.2735C26.4221 78.6539 26.2795 78.043 26.0073 77.4864L31.9876 71.5061V61.1936H34.7691V69.5382H37.5506V61.1936H40.3321V73.0902L48.7796 78.3751C48.5526 79.3495 48.678 80.3728 49.1336 81.2635C49.5892 82.1542 50.3455 82.8548 51.2684 83.2411C52.1914 83.6273 53.2213 83.6741 54.1754 83.3734C55.1297 83.0726 55.9465 82.4436 56.4811 81.5979C57.0157 80.7522 57.2335 79.7445 57.096 78.7536C56.9584 77.7626 56.4743 76.8524 55.7295 76.1843C54.9847 75.5163 54.0274 75.1336 53.0274 75.1041C52.0273 75.0746 51.0492 75.4003 50.2664 76.0233L43.1137 71.5492V61.1936H45.8952V65.3659H48.6767V61.1936H51.4582V72.3197H61.4495C61.7776 73.2476 62.4231 74.0297 63.2721 74.5277C64.121 75.0257 65.1187 75.2076 66.0887 75.0411C67.0588 74.8747 67.9387 74.3707 68.5731 73.6182C69.2075 72.8657 69.5555 71.9132 69.5555 70.9289C69.5555 69.9447 69.2075 68.9922 68.5731 68.2397C67.9387 67.4872 67.0588 66.9832 66.0887 66.8167C65.1187 66.6503 64.121 66.8322 63.2721 67.3302C62.4231 67.8281 61.7776 68.6102 61.4495 69.5382H54.2398V61.1936C56.0834 61.1914 57.8508 60.458 59.1544 59.1544C60.458 57.8508 61.1914 56.0834 61.1936 54.2398H73.1347L75.5184 56.6249C75.2463 57.1815 75.1036 57.7925 75.1012 58.4121C75.1012 59.2373 75.3459 60.0439 75.8044 60.7301C76.2628 61.4162 76.9145 61.951 77.6768 62.2668C78.4392 62.5825 79.2781 62.6652 80.0875 62.5042C80.8968 62.3432 81.6403 61.9458 82.2238 61.3623C82.8073 60.7788 83.2046 60.0354 83.3656 59.226C83.5266 58.4167 83.444 57.5778 83.1282 56.8154C82.8124 56.053 82.2776 55.4014 81.5915 54.9429C80.9054 54.4845 80.0987 54.2398 79.2735 54.2398ZM79.2735 34.7691C79.5486 34.7691 79.8175 34.8507 80.0462 35.0035C80.2749 35.1563 80.4531 35.3735 80.5584 35.6276C80.6637 35.8818 80.6912 36.1614 80.6376 36.4312C80.5839 36.701 80.4514 36.9488 80.2569 37.1433C80.0624 37.3378 79.8146 37.4702 79.5448 37.5239C79.2751 37.5776 78.9954 37.55 78.7413 37.4447C78.4872 37.3395 78.27 37.1612 78.1171 36.9325C77.9643 36.7038 77.8828 36.4349 77.8828 36.1599C77.8828 35.791 78.0293 35.4373 78.2901 35.1764C78.5509 34.9156 78.9047 34.7691 79.2735 34.7691ZM73.7105 22.2522C73.9855 22.2522 74.2544 22.3338 74.4831 22.4866C74.7118 22.6394 74.8901 22.8566 74.9954 23.1108C75.1006 23.3649 75.1282 23.6445 75.0745 23.9143C75.0208 24.1841 74.8884 24.4319 74.6939 24.6264C74.4994 24.8209 74.2516 24.9534 73.9818 25.007C73.712 25.0607 73.4324 25.0331 73.1782 24.9279C72.9241 24.8226 72.7069 24.6444 72.5541 24.4156C72.4013 24.1869 72.3197 23.918 72.3197 23.643C72.3197 23.2741 72.4662 22.9204 72.727 22.6596C72.9879 22.3987 73.3416 22.2522 73.7105 22.2522ZM63.9751 5.56306C64.2502 5.56306 64.5191 5.64462 64.7478 5.79744C64.9765 5.95026 65.1547 6.16747 65.26 6.4216C65.3653 6.67573 65.3928 6.95536 65.3392 7.22514C65.2855 7.49493 65.153 7.74274 64.9585 7.93724C64.764 8.13174 64.5162 8.2642 64.2464 8.31786C63.9767 8.37152 63.697 8.34398 63.4429 8.23872C63.1888 8.13345 62.9716 7.9552 62.8187 7.72649C62.6659 7.49778 62.5844 7.22889 62.5844 6.95382C62.5844 6.58497 62.7309 6.23122 62.9917 5.9704C63.2525 5.70958 63.6063 5.56306 63.9751 5.56306ZM41.7229 6.95382C41.998 6.95382 42.2669 7.03539 42.4956 7.1882C42.7243 7.34102 42.9025 7.55823 43.0078 7.81236C43.1131 8.06649 43.1406 8.34613 43.0869 8.61591C43.0333 8.88569 42.9008 9.1335 42.7063 9.328C42.5118 9.5225 42.264 9.65496 41.9942 9.70862C41.7244 9.76229 41.4448 9.73474 41.1907 9.62948C40.9366 9.52422 40.7193 9.34596 40.5665 9.11725C40.4137 8.88854 40.3321 8.61965 40.3321 8.34458C40.3321 7.97573 40.4787 7.62198 40.7395 7.36116C41.0003 7.10035 41.354 6.95382 41.7229 6.95382ZM20.8615 4.17229C20.8615 3.89723 20.943 3.62834 21.0958 3.39963C21.2487 3.17092 21.4659 2.99266 21.72 2.88739C21.9741 2.78213 22.2538 2.75459 22.5235 2.80825C22.7933 2.86191 23.0411 2.99437 23.2356 3.18887C23.4301 3.38338 23.5626 3.63119 23.6163 3.90097C23.6699 4.17075 23.6424 4.45039 23.5371 4.70451C23.4319 4.95864 23.2536 5.17585 23.0249 5.32867C22.7962 5.48149 22.5273 5.56306 22.2522 5.56306C21.8834 5.56306 21.5296 5.41653 21.2688 5.15571C21.008 4.89489 20.8615 4.54115 20.8615 4.17229ZM8.34458 23.643C8.34458 23.3679 8.42615 23.099 8.57897 22.8703C8.73179 22.6416 8.94899 22.4633 9.20312 22.3581C9.45725 22.2528 9.73689 22.2253 10.0067 22.2789C10.2765 22.3326 10.5243 22.4651 10.7188 22.6596C10.9133 22.8541 11.0457 23.1019 11.0994 23.3717C11.153 23.6414 11.1255 23.9211 11.0202 24.1752C10.915 24.4293 10.7367 24.6465 10.508 24.7994C10.2793 24.9522 10.0104 25.0337 9.73535 25.0337C9.36649 25.0337 9.01275 24.8872 8.75193 24.6264C8.49111 24.3656 8.34458 24.0118 8.34458 23.643ZM4.17229 45.8952C3.89723 45.8952 3.62834 45.8136 3.39963 45.6608C3.17092 45.508 2.99266 45.2908 2.88739 45.0367C2.78213 44.7825 2.75459 44.5029 2.80825 44.2331C2.86191 43.9633 2.99437 43.7155 3.18887 43.521C3.38338 43.3265 3.63119 43.1941 3.90097 43.1404C4.17075 43.0867 4.45039 43.1143 4.70451 43.2195C4.95864 43.3248 5.17585 43.5031 5.32867 43.7318C5.48149 43.9605 5.56306 44.2294 5.56306 44.5044C5.56306 44.8733 5.41653 45.227 5.15571 45.4878C4.89489 45.7487 4.54115 45.8952 4.17229 45.8952ZM8.34458 65.3659C8.06952 65.3659 7.80063 65.2843 7.57192 65.1315C7.34321 64.9787 7.16495 64.7615 7.05968 64.5073C6.95442 64.2532 6.92688 63.9736 6.98054 63.7038C7.0342 63.434 7.16666 63.1862 7.36116 62.9917C7.55567 62.7972 7.80348 62.6647 8.07326 62.6111C8.34304 62.5574 8.62268 62.585 8.87681 62.6902C9.13093 62.7955 9.34814 62.9737 9.50096 63.2025C9.65378 63.4312 9.73535 63.7001 9.73535 63.9751C9.73535 64.344 9.58882 64.6977 9.328 64.9585C9.06718 65.2194 8.71344 65.3659 8.34458 65.3659ZM22.2522 80.6643C21.9771 80.6643 21.7083 80.5827 21.4795 80.4299C21.2508 80.2771 21.0726 80.0599 20.9673 79.8057C20.8621 79.5516 20.8345 79.272 20.8882 79.0022C20.9418 78.7324 21.0743 78.4846 21.2688 78.2901C21.4633 78.0956 21.7111 77.9631 21.9809 77.9095C22.2507 77.8558 22.5303 77.8834 22.7844 77.9886C23.0386 78.0939 23.2558 78.2721 23.4086 78.5008C23.5614 78.7296 23.643 78.9984 23.643 79.2735C23.643 79.6424 23.4965 79.9961 23.2356 80.2569C22.9748 80.5178 22.6211 80.6643 22.2522 80.6643ZM52.849 77.8828C53.1241 77.8828 53.393 77.9643 53.6217 78.1171C53.8504 78.27 54.0286 78.4872 54.1339 78.7413C54.2392 78.9954 54.2667 79.2751 54.2131 79.5448C54.1594 79.8146 54.0269 80.0624 53.8324 80.2569C53.6379 80.4514 53.3901 80.5839 53.1203 80.6376C52.8506 80.6912 52.5709 80.6637 52.3168 80.5584C52.0627 80.4531 51.8455 80.2749 51.6926 80.0462C51.5398 79.8175 51.4582 79.5486 51.4582 79.2735C51.4582 78.9047 51.6048 78.5509 51.8656 78.2901C52.1264 78.0293 52.4802 77.8828 52.849 77.8828ZM65.3659 69.5382C65.6409 69.5382 65.9098 69.6197 66.1385 69.7726C66.3673 69.9254 66.5455 70.1426 66.6508 70.3967C66.756 70.6508 66.7836 70.9305 66.7299 71.2003C66.6763 71.47 66.5438 71.7178 66.3493 71.9124C66.1548 72.1069 65.907 72.2393 65.6372 72.293C65.3674 72.3466 65.0878 72.3191 64.8337 72.2138C64.5795 72.1086 64.3623 71.9303 64.2095 71.7016C64.0567 71.4729 63.9751 71.204 63.9751 70.9289C63.9751 70.5601 64.1216 70.2063 64.3825 69.9455C64.6433 69.6847 64.997 69.5382 65.3659 69.5382ZM58.4121 54.2398C58.4121 55.3463 57.9725 56.4076 57.19 57.19C56.4076 57.9725 55.3463 58.4121 54.2398 58.4121H29.206C28.0995 58.4121 27.0382 57.9725 26.2558 57.19C25.4733 56.4076 25.0337 55.3463 25.0337 54.2398V29.206C25.0337 28.0995 25.4733 27.0382 26.2558 26.2558C27.0382 25.4733 28.0995 25.0337 29.206 25.0337H54.2398C55.3463 25.0337 56.4076 25.4733 57.19 26.2558C57.9725 27.0382 58.4121 28.0995 58.4121 29.206V54.2398ZM79.2735 59.8028C78.9984 59.8028 78.7296 59.7213 78.5008 59.5684C78.2721 59.4156 78.0939 59.1984 77.9886 58.9443C77.8834 58.6902 77.8558 58.4105 77.9095 58.1407C77.9631 57.871 78.0956 57.6231 78.2901 57.4286C78.4846 57.2341 78.7324 57.1017 79.0022 57.048C79.272 56.9944 79.5516 57.0219 79.8057 57.1272C80.0599 57.2324 80.2771 57.4107 80.4299 57.6394C80.5827 57.8681 80.6643 58.137 80.6643 58.4121C80.6643 58.7809 80.5178 59.1347 80.2569 59.3955C79.9961 59.6563 79.6424 59.8028 79.2735 59.8028Z" fill="#302C8C"/>
</svg>
