<svg width="79" height="79" viewBox="0 0 79 79" fill="none" xmlns="http://www.w3.org/2000/svg">
<path d="M56.6996 1.25998H3.77999C2.394 1.25998 1.26001 2.39397 1.26001 3.77996V41.5797C1.26001 42.9657 2.394 44.0997 3.77999 44.0997H18.8999V36.5397C18.8999 35.1474 20.0276 34.0198 21.4199 34.0198H59.2196V3.77996C59.2196 2.39397 58.0856 1.25998 56.6996 1.25998Z" fill="#8586EE"/>
<path d="M35.9602 13.8599H18.2195C18.6479 13.1165 18.8999 12.2597 18.8999 11.3399C18.8999 10.4201 18.6479 9.56334 18.2195 8.81994H35.9602C35.053 10.3697 35.053 12.3101 35.9602 13.8599Z" fill="#AAABFF"/>
<path d="M16.3799 15.6995V31.4998H11.34V15.6995C12.0834 16.1279 12.9402 16.3799 13.8599 16.3799C14.7797 16.3799 15.6365 16.1279 16.3799 15.6995Z" fill="#AAABFF"/>
<path d="M18.8998 31.4998L19.9078 34.5238C19.303 34.9899 18.8998 35.7207 18.8998 36.5397V39.0597H6.29993L8.81991 31.4998H11.3399H16.3799H18.8998Z" fill="#AAABFF"/>
<path d="M18.2195 8.81995C18.6479 9.56334 18.8999 10.4201 18.8999 11.3399C18.8999 12.2597 18.6479 13.1165 18.2195 13.8599C17.7785 14.6285 17.1485 15.2585 16.3799 15.6995C15.6365 16.1279 14.7797 16.3799 13.8599 16.3799C12.9401 16.3799 12.0833 16.1279 11.3399 15.6995C9.82794 14.8301 8.81995 13.2047 8.81995 11.3399C8.81995 8.55535 11.0753 6.29996 13.8599 6.29996C15.7247 6.29996 17.3501 7.30796 18.2195 8.81995Z" fill="white"/>
<path d="M76.8595 36.5398V74.3395C76.8595 75.7255 75.7255 76.8595 74.3395 76.8595H21.4199C20.0339 76.8595 18.8999 75.7255 18.8999 74.3395V44.0997V39.0597V36.5398C18.8999 35.7208 19.3031 34.99 19.9079 34.5238C20.3363 34.2088 20.8529 34.0198 21.4199 34.0198H59.2196H74.3395C75.7255 34.0198 76.8595 35.1538 76.8595 36.5398Z" fill="#AAABFF"/>
<path d="M66.7795 66.7796H71.8195V71.8195H66.7795V66.7796Z" fill="white"/>
<path d="M56.6996 66.7796H61.7396V71.8195H56.6996V66.7796Z" fill="white"/>
<path d="M46.6198 66.7796H51.6597V71.8195H46.6198V66.7796Z" fill="white"/>
<path d="M53.6001 46.6197H35.8594C36.2878 45.8763 36.5398 45.0195 36.5398 44.0997C36.5398 43.1799 36.2878 42.3231 35.8594 41.5797H53.6001C52.6929 43.1295 52.6929 45.0699 53.6001 46.6197Z" fill="#AAABFF"/>
<path d="M34.0198 48.4593V64.2596H28.9799V48.4593C29.7233 48.8877 30.58 49.1397 31.4998 49.1397C32.4196 49.1397 33.2764 48.8877 34.0198 48.4593Z" fill="#AAABFF"/>
<path d="M36.5399 64.2596L39.0598 71.8195H23.9399L26.4599 64.2596H28.9799H34.0199H36.5399Z" fill="#AAABFF"/>
<path d="M35.8593 41.5797C36.2876 42.3231 36.5396 43.1799 36.5396 44.0997C36.5396 45.0195 36.2876 45.8763 35.8593 46.6197C35.4183 47.3883 34.7883 48.0183 34.0197 48.4593C33.2763 48.8877 32.4195 49.1397 31.4997 49.1397C30.5799 49.1397 29.7231 48.8877 28.9797 48.4593C27.4677 47.5899 26.4597 45.9645 26.4597 44.0997C26.4597 41.3151 28.7151 39.0597 31.4997 39.0597C33.3645 39.0597 34.9899 40.0677 35.8593 41.5797Z" fill="white"/>
<path d="M35.2797 62.9996V49.1069C35.7446 48.7554 36.1554 48.3434 36.5069 47.8797H52.9498C53.125 48.1103 53.2951 48.3459 53.5042 48.5538C54.7327 49.7823 56.3455 50.3959 57.9596 50.3959C59.5736 50.3959 61.1864 49.7823 62.4149 48.5538L60.6333 46.7721C59.1591 48.2451 56.7613 48.2463 55.2871 46.7721C54.5727 46.059 54.1796 45.1102 54.1796 44.0997C54.1796 43.0892 54.5727 42.1404 55.2859 41.4273C56.76 39.9531 59.1578 39.9531 60.632 41.4273L62.4136 39.6456C59.9579 37.1899 55.9599 37.1899 53.5042 39.6456C53.2951 39.8548 53.125 40.0891 52.9498 40.3197H36.5069C35.3553 38.7989 33.5485 37.7997 31.4997 37.7997C28.0259 37.7997 25.1998 40.6259 25.1998 44.0997C25.1998 46.1497 26.199 47.9565 27.7198 49.1069V62.9996H25.5513L22.1909 73.0795H40.806L37.4456 62.9996H35.2797ZM51.7869 42.8397C51.7037 43.2505 51.6596 43.6713 51.6596 44.0997C51.6596 44.5281 51.7037 44.9489 51.7869 45.3597H37.6724C37.7556 44.9527 37.7997 44.5306 37.7997 44.0997C37.7997 43.6688 37.7556 43.2467 37.6724 42.8397H51.7869ZM31.4997 40.3197C33.5838 40.3197 35.2797 42.0157 35.2797 44.0997C35.2797 46.1837 33.5838 47.8797 31.4997 47.8797C29.4157 47.8797 27.7198 46.1837 27.7198 44.0997C27.7198 42.0157 29.4157 40.3197 31.4997 40.3197ZM30.2397 50.2724C30.6467 50.3556 31.0688 50.3997 31.4997 50.3997C31.9307 50.3997 32.3527 50.3556 32.7597 50.2724V62.9996H30.2397V50.2724ZM25.6874 70.5595L27.367 65.5196H35.6312L37.3108 70.5595H25.6874Z" fill="black"/>
<path d="M74.3395 32.7598H60.4796V3.77997C60.4796 1.69595 58.7836 0 56.6996 0H3.77997C1.69595 0 0 1.69595 0 3.77997V41.5797C0 43.6637 1.69595 45.3597 3.77997 45.3597H17.6399V74.3395C17.6399 76.4235 19.3358 78.1195 21.4199 78.1195H74.3395C76.4235 78.1195 78.1195 76.4235 78.1195 74.3395V36.5397C78.1195 34.4557 76.4235 32.7598 74.3395 32.7598ZM3.77997 42.8397C3.08572 42.8397 2.51998 42.2752 2.51998 41.5797V3.77997C2.51998 3.08446 3.08572 2.51998 3.77997 2.51998H56.6996C57.3939 2.51998 57.9596 3.08446 57.9596 3.77997V32.7598H21.4199C21.1641 32.7598 20.9146 32.7862 20.6727 32.8354L19.8083 30.2398H17.6399V16.3471C18.1048 15.9956 18.5156 15.5836 18.8671 15.1199H35.31C35.4851 15.3505 35.6552 15.5861 35.8644 15.794C37.0929 17.0225 38.7057 17.6361 40.3197 17.6361C41.9338 17.6361 43.5466 17.0225 44.7751 15.794L42.9934 14.0124C41.5192 15.4853 39.1215 15.4866 37.6473 14.0124C36.9329 13.2992 36.5397 12.3504 36.5397 11.3399C36.5397 10.3294 36.9329 9.38064 37.646 8.66748C39.1202 7.19329 41.518 7.19329 42.9922 8.66748L44.7738 6.88585C42.3181 4.43013 38.3201 4.43013 35.8644 6.88585C35.6565 7.09375 35.4851 7.32937 35.31 7.55995H18.8671C17.7167 6.03914 15.9099 5.03997 13.8599 5.03997C10.3861 5.03997 7.55995 7.86613 7.55995 11.3399C7.55995 13.3899 8.55912 15.1968 10.0799 16.3471V30.2398H7.91149L4.55109 40.3197H17.6399V42.8397H3.77997ZM13.8599 15.1199C11.7759 15.1199 10.0799 13.424 10.0799 11.3399C10.0799 9.2559 11.7759 7.55995 13.8599 7.55995C15.9439 7.55995 17.6399 9.2559 17.6399 11.3399C17.6399 13.424 15.9439 15.1199 13.8599 15.1199ZM13.8599 17.6399C14.2908 17.6399 14.7129 17.5958 15.1199 17.5126V30.2398H12.5999V17.5126C13.0069 17.5958 13.429 17.6399 13.8599 17.6399ZM17.9914 32.7598L18.4715 34.2025C17.9599 34.8476 17.6399 35.6527 17.6399 36.5397V37.7997H8.04757L9.72713 32.7598H17.9914ZM20.0326 10.0799H34.147C34.0639 10.4907 34.0198 10.9115 34.0198 11.3399C34.0198 11.7683 34.0639 12.1892 34.147 12.5999H20.0326C20.1158 12.1929 20.1599 11.7708 20.1599 11.3399C20.1599 10.909 20.1158 10.4869 20.0326 10.0799ZM75.5995 74.3395C75.5995 75.035 75.0337 75.5995 74.3395 75.5995H21.4199C20.7256 75.5995 20.1599 75.035 20.1599 74.3395V36.5397C20.1599 35.8442 20.7256 35.2798 21.4199 35.2798H74.3395C75.0337 35.2798 75.5995 35.8442 75.5995 36.5397V74.3395Z" fill="black"/>
<path d="M65.5195 73.0795H73.0795V65.5196H65.5195V73.0795ZM68.0395 68.0395H70.5595V70.5595H68.0395V68.0395Z" fill="black"/>
<path d="M55.4396 73.0795H62.9995V65.5196H55.4396V73.0795ZM57.9596 68.0395H60.4795V70.5595H57.9596V68.0395Z" fill="black"/>
<path d="M45.3596 73.0795H52.9196V65.5196H45.3596V73.0795ZM47.8796 68.0395H50.3996V70.5595H47.8796V68.0395Z" fill="black"/>
<path d="M45.3596 60.4796H73.0794V62.9996H45.3596V60.4796Z" fill="black"/>
<path d="M45.3596 55.4396H73.0794V57.9596H45.3596V55.4396Z" fill="black"/>
<path d="M31.4999 45.3597C32.1957 45.3597 32.7599 44.7956 32.7599 44.0997C32.7599 43.4038 32.1957 42.8397 31.4999 42.8397C30.804 42.8397 30.2399 43.4038 30.2399 44.0997C30.2399 44.7956 30.804 45.3597 31.4999 45.3597Z" fill="black"/>
<path d="M13.86 12.5999C14.5558 12.5999 15.12 12.0358 15.12 11.3399C15.12 10.6441 14.5558 10.0799 13.86 10.0799C13.1641 10.0799 12.6 10.6441 12.6 11.3399C12.6 12.0358 13.1641 12.5999 13.86 12.5999Z" fill="black"/>
<path d="M30.2399 20.1599H55.4397V22.6799H30.2399V20.1599Z" fill="black"/>
<path d="M30.2399 25.1998H55.4397V27.7198H30.2399V25.1998Z" fill="black"/>
<path d="M47.8796 5.03996H55.4396V7.55995H47.8796V5.03996Z" fill="black"/>
<path d="M47.8796 10.0799H55.4396V12.5999H47.8796V10.0799Z" fill="black"/>
<path d="M47.8796 15.1199H55.4396V17.6399H47.8796V15.1199Z" fill="black"/>
<path d="M65.5195 37.7997H73.0795V40.3197H65.5195V37.7997Z" fill="black"/>
<path d="M65.5195 42.8397H73.0795V45.3597H65.5195V42.8397Z" fill="black"/>
<path d="M65.5195 47.8797H73.0795V50.3997H65.5195V47.8797Z" fill="black"/>
</svg>
