<svg width="84" height="84" viewBox="0 0 84 84" fill="none" xmlns="http://www.w3.org/2000/svg">
<path d="M1.38953 29.1813H48.6354V43.0771H1.38953V29.1813Z" fill="#8586EE"/>
<path d="M1.38953 48.6354H48.6354V62.5313H1.38953V48.6354Z" fill="#8586EE"/>
<path d="M1.38953 68.0896H48.6354V81.9854H1.38953V68.0896Z" fill="#8586EE"/>
<path d="M5.55835 62.5312H11.1167V68.0896H5.55835V62.5312Z" fill="black"/>
<path d="M38.9083 62.5312H44.4667V68.0896H38.9083V62.5312Z" fill="black"/>
<path d="M5.55835 43.0771H11.1167V48.6354H5.55835V43.0771Z" fill="black"/>
<path d="M38.9083 43.0771H44.4667V48.6354H38.9083V43.0771Z" fill="black"/>
<path d="M81.9855 29.1813H48.6355L44.4667 33.35V29.1813H40.298V1.38958H81.9855V29.1813Z" fill="#CDCEFF"/>
<path d="M76.427 22.2333V23.6229H45.8562V22.2333C45.8562 18.1794 47.4666 14.2915 50.3332 11.4249C53.1998 8.55834 57.0877 6.94792 61.1416 6.94792C65.1956 6.94792 69.0835 8.55834 71.95 11.4249C74.8166 14.2915 76.427 18.1794 76.427 22.2333Z" fill="white"/>
<path d="M65.3104 23.6229H56.9729V22.2333C56.9729 21.1277 57.4121 20.0674 58.1939 19.2856C58.9757 18.5038 60.0361 18.0646 61.1417 18.0646C62.2473 18.0646 63.3076 18.5038 64.0894 19.2856C64.8712 20.0674 65.3104 21.1277 65.3104 22.2333V23.6229Z" fill="#8586EE"/>
<path d="M45.8563 25.0125H76.4271C76.7956 25.0125 77.1491 24.8661 77.4097 24.6055C77.6702 24.3449 77.8167 23.9915 77.8167 23.6229V22.2333C77.8167 17.8108 76.0598 13.5695 72.9327 10.4423C69.8055 7.31516 65.5642 5.55833 61.1417 5.55833C56.7192 5.55833 52.4778 7.31516 49.3507 10.4423C46.2235 13.5695 44.4667 17.8108 44.4667 22.2333V23.6229C44.4667 23.9915 44.6131 24.3449 44.8737 24.6055C45.1343 24.8661 45.4877 25.0125 45.8563 25.0125ZM58.3625 22.2333C58.3625 21.4963 58.6553 20.7894 59.1765 20.2682C59.6977 19.747 60.4046 19.4542 61.1417 19.4542C61.8788 19.4542 62.5856 19.747 63.1068 20.2682C63.628 20.7894 63.9208 21.4963 63.9208 22.2333H58.3625ZM52.4444 11.4071L53.6616 13.5042L56.0653 12.1092L54.7758 9.88772C56.7353 8.8732 58.9089 8.3417 61.1154 8.33753C63.3219 8.33335 65.4975 8.85662 67.4608 9.86372L66.1781 12.0915L68.5864 13.4784L69.7977 11.3747C71.4317 12.6738 72.7516 14.325 73.6588 16.2051C74.566 18.0852 75.0373 20.1458 75.0375 22.2333H66.7C66.7004 21.5936 66.5898 20.9586 66.3732 20.3567L69.767 16.9629L67.8017 14.9976L64.7707 18.0286C63.9655 17.332 62.9771 16.8816 61.9231 16.7309C60.8691 16.5802 59.794 16.7357 58.8259 17.1788C57.8578 17.6218 57.0374 18.3339 56.4625 19.23C55.8877 20.1261 55.5825 21.1686 55.5833 22.2333H47.2458C47.2459 20.1546 47.7132 18.1024 48.613 16.2285C49.5128 14.3546 50.8222 12.7069 52.4444 11.4071Z" fill="black"/>
<path d="M81.9854 0H40.2979C39.9294 1.79648e-05 39.5759 0.146426 39.3153 0.407019C39.0548 0.667613 38.9083 1.02105 38.9083 1.38958V29.1812C38.9083 29.5498 39.0548 29.9032 39.3153 30.1638C39.5759 30.4244 39.9294 30.5708 40.2979 30.5708H43.0771V33.35C43.0771 33.6248 43.1586 33.8935 43.3113 34.122C43.464 34.3505 43.681 34.5286 43.9349 34.6338C44.1888 34.739 44.4682 34.7665 44.7378 34.7129C45.0073 34.6593 45.255 34.527 45.4493 34.3326L49.211 30.5708H81.9854C82.3539 30.5708 82.7074 30.4244 82.968 30.1638C83.2286 29.9032 83.375 29.5498 83.375 29.1812V1.38958C83.375 1.02105 83.2286 0.667613 82.968 0.407019C82.7074 0.146426 82.3539 1.79648e-05 81.9854 0ZM80.5958 27.7917H48.6354C48.2669 27.7917 47.9134 27.938 47.6528 28.1986L45.8562 29.9953V29.1812C45.8562 28.8127 45.7098 28.4593 45.4492 28.1987C45.1886 27.9381 44.8352 27.7917 44.4667 27.7917H41.6875V2.77917H80.5958V27.7917Z" fill="black"/>
<path d="M47.2458 41.6875H2.77917V30.5708H36.1292V27.7917H1.38958C1.02105 27.7917 0.667613 27.9381 0.407019 28.1987C0.146426 28.4593 1.79648e-05 28.8127 0 29.1812V43.0771C1.79648e-05 43.4456 0.146426 43.7991 0.407019 44.0596C0.667613 44.3202 1.02105 44.4666 1.38958 44.4667H4.16875V47.2458H1.38958C1.02105 47.2458 0.667613 47.3923 0.407019 47.6529C0.146426 47.9134 1.79648e-05 48.2669 0 48.6354V62.5312C1.79648e-05 62.8998 0.146426 63.2532 0.407019 63.5138C0.667613 63.7744 1.02105 63.9208 1.38958 63.9208H4.16875V66.7H1.38958C1.02105 66.7 0.667613 66.8464 0.407019 67.107C0.146426 67.3676 1.79648e-05 67.721 0 68.0896V81.9854C1.79648e-05 82.354 0.146426 82.7074 0.407019 82.968C0.667613 83.2286 1.02105 83.375 1.38958 83.375H48.6354C49.004 83.375 49.3574 83.2286 49.618 82.968C49.8786 82.7074 50.025 82.354 50.025 81.9854V68.0896C50.025 67.721 49.8786 67.3676 49.618 67.107C49.3574 66.8464 49.004 66.7 48.6354 66.7H45.8563V63.9208H48.6354C49.004 63.9208 49.3574 63.7744 49.618 63.5138C49.8786 63.2532 50.025 62.8998 50.025 62.5312V48.6354C50.025 48.2669 49.8786 47.9134 49.618 47.6529C49.3574 47.3923 49.004 47.2458 48.6354 47.2458H45.8563V44.4667H48.6354C49.004 44.4666 49.3574 44.3202 49.618 44.0596C49.8786 43.7991 50.025 43.4456 50.025 43.0771V36.1292H47.2458V41.6875ZM12.5063 47.2458V44.4667H37.5187V47.2458H12.5063ZM6.94792 44.4667H9.72708V47.2458H6.94792V44.4667ZM6.94792 63.9208H9.72708V66.7H6.94792V63.9208ZM12.5063 66.7V63.9208H37.5187V66.7H12.5063ZM47.2458 80.5958H2.77917V69.4792H47.2458V80.5958ZM43.0771 66.7H40.2979V63.9208H43.0771V66.7ZM47.2458 61.1417H2.77917V50.025H47.2458V61.1417ZM43.0771 47.2458H40.2979V44.4667H43.0771V47.2458Z" fill="black"/>
<path d="M5.55835 34.7396H16.675V37.5187H5.55835V34.7396Z" fill="black"/>
<path d="M20.8438 37.5187C21.6113 37.5187 22.2334 36.8966 22.2334 36.1292C22.2334 35.3617 21.6113 34.7396 20.8438 34.7396C20.0764 34.7396 19.4542 35.3617 19.4542 36.1292C19.4542 36.8966 20.0764 37.5187 20.8438 37.5187Z" fill="black"/>
<path d="M26.402 37.5187C27.1695 37.5187 27.7916 36.8966 27.7916 36.1292C27.7916 35.3617 27.1695 34.7396 26.402 34.7396C25.6346 34.7396 25.0125 35.3617 25.0125 36.1292C25.0125 36.8966 25.6346 37.5187 26.402 37.5187Z" fill="black"/>
<path d="M5.55835 54.1937H16.675V56.9729H5.55835V54.1937Z" fill="black"/>
<path d="M20.8438 56.9729C21.6113 56.9729 22.2334 56.3508 22.2334 55.5833C22.2334 54.8159 21.6113 54.1937 20.8438 54.1937C20.0764 54.1937 19.4542 54.8159 19.4542 55.5833C19.4542 56.3508 20.0764 56.9729 20.8438 56.9729Z" fill="black"/>
<path d="M26.402 56.9729C27.1695 56.9729 27.7916 56.3508 27.7916 55.5833C27.7916 54.8159 27.1695 54.1937 26.402 54.1937C25.6346 54.1937 25.0125 54.8159 25.0125 55.5833C25.0125 56.3508 25.6346 56.9729 26.402 56.9729Z" fill="black"/>
<path d="M5.55835 73.6479H16.675V76.4271H5.55835V73.6479Z" fill="black"/>
<path d="M20.8438 76.4271C21.6113 76.4271 22.2334 75.8049 22.2334 75.0375C22.2334 74.2701 21.6113 73.6479 20.8438 73.6479C20.0764 73.6479 19.4542 74.2701 19.4542 75.0375C19.4542 75.8049 20.0764 76.4271 20.8438 76.4271Z" fill="black"/>
<path d="M26.402 76.4271C27.1695 76.4271 27.7916 75.8049 27.7916 75.0375C27.7916 74.2701 27.1695 73.6479 26.402 73.6479C25.6346 73.6479 25.0125 74.2701 25.0125 75.0375C25.0125 75.8049 25.6346 76.4271 26.402 76.4271Z" fill="black"/>
</svg>
