<svg width="77" height="70" viewBox="0 0 77 70" fill="none" xmlns="http://www.w3.org/2000/svg">
<path d="M76.2835 16.4947H0.658691V66.408C0.658691 67.8648 1.8398 69.0459 3.29657 69.0459H73.6456C75.1023 69.0459 76.2835 67.8648 76.2835 66.408V16.4947Z" fill="#CDCEFF"/>
<path d="M0.658691 16.4947H76.2835V18.4731H0.658691V16.4947Z" fill="white"/>
<path d="M33.8051 33.509H19.4477C18.719 33.509 18.1288 32.9188 18.1288 32.1901V24.6306C18.1288 23.9018 18.719 23.3116 19.4477 23.3116H33.8057C34.5344 23.3116 35.1247 23.9018 35.1247 24.6306V32.1894C35.124 32.9181 34.5338 33.509 33.8051 33.509Z" fill="#7373E0"/>
<path d="M16.0052 60.0277H8.19052C7.46181 60.0277 6.87158 59.4374 6.87158 58.7087V51.1492C6.87158 50.4205 7.46181 49.8303 8.19052 49.8303H16.0052C16.734 49.8303 17.3242 50.4205 17.3242 51.1492V58.7081C17.3242 59.4368 16.734 60.0277 16.0052 60.0277Z" fill="#7373E0"/>
<path d="M30.5341 60.0277H22.7193C21.9906 60.0277 21.4004 59.4374 21.4004 58.7087V51.1492C21.4004 50.4205 21.9906 49.8303 22.7193 49.8303H30.5341C31.2628 49.8303 31.853 50.4205 31.853 51.1492V58.7081C31.853 59.4368 31.2621 60.0277 30.5341 60.0277Z" fill="#7373E0"/>
<path d="M45.0623 60.0277H37.2475C36.5188 60.0277 35.9286 59.4374 35.9286 58.7087V51.1492C35.9286 50.4205 36.5188 49.8303 37.2475 49.8303H45.0623C45.791 49.8303 46.3812 50.4205 46.3812 51.1492V58.7081C46.3812 59.4368 45.7903 60.0277 45.0623 60.0277Z" fill="#7373E0"/>
<path d="M54.6964 50.8333H63.4416V54.9385H54.6964V50.8333Z" fill="#8586EE"/>
<path d="M54.8118 50.8333H63.3262C64.1393 50.8333 64.7981 50.1745 64.7981 49.3614C64.7981 48.5482 64.1393 47.8894 63.3262 47.8894H54.8118C53.9987 47.8894 53.3398 48.5482 53.3398 49.3614C53.3398 50.1745 53.9993 50.8333 54.8118 50.8333Z" fill="#BABAF3"/>
<path d="M53.6794 40.7711L59.0693 33.3118L64.4591 40.7711L63.4422 47.8894H54.6963L53.6794 40.7711Z" fill="#C1C2FF"/>
<path d="M59.0693 42.8095C59.5351 42.8095 59.9128 42.4319 59.9128 41.9661C59.9128 41.5003 59.5351 41.1226 59.0693 41.1226C58.6035 41.1226 58.2258 41.5003 58.2258 41.9661C58.2258 42.4319 58.6035 42.8095 59.0693 42.8095Z" fill="#BABAF3"/>
<path d="M69.7502 31.8017C70.4946 31.8017 71.0981 31.1982 71.0981 30.4537C71.0981 29.7092 70.4946 29.1057 69.7502 29.1057C69.0057 29.1057 68.4022 29.7092 68.4022 30.4537C68.4022 31.1982 69.0057 31.8017 69.7502 31.8017Z" fill="white"/>
<path d="M48.3885 31.8017C49.1329 31.8017 49.7364 31.1982 49.7364 30.4537C49.7364 29.7092 49.1329 29.1057 48.3885 29.1057C47.644 29.1057 47.0405 29.7092 47.0405 30.4537C47.0405 31.1982 47.644 31.8017 48.3885 31.8017Z" fill="white"/>
<path d="M66.6783 39.2491H69.0518V41.6225H66.6783V39.2491Z" fill="white"/>
<path d="M49.0869 39.2491H51.4603V41.6225H49.0869V39.2491Z" fill="white"/>
<path d="M31.9466 4.93153L30.2458 2.47501C29.4584 1.33808 28.1639 0.659485 26.781 0.659485H3.29657C1.8398 0.659485 0.658691 1.8406 0.658691 3.29737V16.4947H76.2835V9.38494C76.2835 7.92817 75.1023 6.74706 73.6456 6.74706H35.4115C34.0286 6.74706 32.7334 6.06846 31.9466 4.93153Z" fill="#CDCEFF"/>
<path d="M37.2474 49.1708C36.1566 49.1708 35.269 50.0584 35.269 51.1492V58.708C35.269 59.7988 36.1566 60.6865 37.2474 60.6865H45.0621C46.1529 60.6865 47.0405 59.7988 47.0405 58.708V51.1492C47.0405 50.0584 46.1529 49.1708 45.0621 49.1708H41.8142V43.6062C41.8142 42.3664 40.8052 41.3574 39.5654 41.3574H27.2861V34.1678H33.8056C34.8964 34.1678 35.784 33.2802 35.784 32.1894V24.6306C35.784 23.5398 34.8964 22.6522 33.8056 22.6522H19.4469C18.3562 22.6522 17.4685 23.5398 17.4685 24.6306V32.1894C17.4685 33.2802 18.3562 34.1678 19.4469 34.1678H25.9665V41.3574H13.6871C12.4473 41.3574 11.4383 42.3664 11.4383 43.6062V49.1708H8.19045C7.09968 49.1708 6.21204 50.0584 6.21204 51.1492V58.708C6.21204 59.7988 7.09968 60.6865 8.19045 60.6865H16.0052C17.0959 60.6865 17.9836 59.7988 17.9836 58.708V51.1492C17.9836 50.0584 17.0959 49.1708 16.0052 49.1708H12.7573V43.6062C12.7573 43.0938 13.1741 42.6763 13.6871 42.6763H25.9671V49.1708H22.7192C21.6285 49.1708 20.7408 50.0584 20.7408 51.1492V58.708C20.7408 59.7988 21.6285 60.6865 22.7192 60.6865H30.534C31.6247 60.6865 32.5124 59.7988 32.5124 58.708V51.1492C32.5124 50.0584 31.6247 49.1708 30.534 49.1708H27.2861V42.6763H39.5654C40.0778 42.6763 40.4953 43.0931 40.4953 43.6062V49.1708H37.2474ZM18.7875 32.1894V24.6306C18.7875 24.2672 19.0836 23.9711 19.4469 23.9711H33.8049C34.1683 23.9711 34.4644 24.2672 34.4644 24.6306V32.1894C34.4644 32.5528 34.1683 32.8489 33.8049 32.8489H19.4469C19.0836 32.8489 18.7875 32.5534 18.7875 32.1894ZM16.6646 51.1492V58.708C16.6646 59.0714 16.3685 59.3675 16.0052 59.3675H8.19045C7.82708 59.3675 7.53098 59.0714 7.53098 58.708V51.1492C7.53098 50.7858 7.82708 50.4897 8.19045 50.4897H16.0052C16.3685 50.4897 16.6646 50.7858 16.6646 51.1492ZM31.1928 51.1492V58.708C31.1928 59.0714 30.8967 59.3675 30.5333 59.3675H22.7186C22.3552 59.3675 22.0591 59.0714 22.0591 58.708V51.1492C22.0591 50.7858 22.3552 50.4897 22.7186 50.4897H30.5333C30.8973 50.4897 31.1928 50.7858 31.1928 51.1492ZM45.7216 51.1492V58.708C45.7216 59.0714 45.4255 59.3675 45.0621 59.3675H37.2474C36.884 59.3675 36.5879 59.0714 36.5879 58.708V51.1492C36.5879 50.7858 36.884 50.4897 37.2474 50.4897H45.0621C45.4255 50.4897 45.7216 50.7858 45.7216 51.1492Z" fill="black"/>
<path d="M65.4577 49.3614C65.4577 48.4889 64.9294 47.7384 64.1763 47.4094L65.1114 40.8648C65.1358 40.696 65.0936 40.5238 64.9934 40.3853L59.6035 32.9254C59.4796 32.754 59.2804 32.6517 59.0687 32.6517C58.857 32.6517 58.6579 32.7533 58.5339 32.9254L53.1447 40.3853C53.0444 40.5238 53.0022 40.6953 53.0266 40.8648L53.9618 47.4094C53.2093 47.7384 52.6804 48.4883 52.6804 49.3614C52.6804 50.2629 53.2449 51.0305 54.037 51.3418V54.9385C54.037 55.3026 54.3324 55.598 54.6964 55.598H63.4417C63.8057 55.598 64.1011 55.3026 64.1011 54.9385V51.3418C64.8938 51.0305 65.4577 50.2629 65.4577 49.3614ZM59.0694 41.7814C59.1709 41.7814 59.2534 41.8639 59.2534 41.9654C59.2534 42.067 59.1709 42.1494 59.0694 42.1494C58.9678 42.1494 58.8854 42.067 58.8854 41.9654C58.8854 41.8639 58.9678 41.7814 59.0694 41.7814ZM58.4099 35.3503V40.6214C57.9127 40.8668 57.5664 41.3746 57.5664 41.9654C57.5664 42.7944 58.2404 43.4684 59.0694 43.4684C59.8977 43.4684 60.5723 42.7944 60.5723 41.9654C60.5723 41.3746 60.2261 40.8668 59.7288 40.6214V35.3496L63.7688 40.9406L62.8699 47.2293H55.2682L54.3693 40.9406L58.4099 35.3503ZM54.8118 48.5489H63.3263C63.774 48.5489 64.1387 48.9136 64.1387 49.3614C64.1387 49.8092 63.774 50.1739 63.3263 50.1739H54.8118C54.364 50.1739 53.9994 49.8092 53.9994 49.3614C53.9994 48.9136 54.364 48.5489 54.8118 48.5489ZM62.7822 54.2784H55.3559V51.4921H62.7822V54.2784Z" fill="black"/>
<path d="M51.4603 38.5896H50.9664C51.304 34.4112 54.8058 31.1132 59.0693 31.1132C63.3328 31.1132 66.8346 34.4119 67.1722 38.5896H66.6783C66.3143 38.5896 66.0188 38.885 66.0188 39.2491V41.6225C66.0188 41.9865 66.3143 42.282 66.6783 42.282H69.0517C69.4157 42.282 69.7112 41.9865 69.7112 41.6225V39.2491C69.7112 38.885 69.4157 38.5896 69.0517 38.5896H68.4912C68.2696 35.4044 66.4679 32.6544 63.8623 31.1132H67.8627C68.137 31.8953 68.875 32.4611 69.7501 32.4611C70.8573 32.4611 71.7575 31.5603 71.7575 30.4537C71.7575 29.3471 70.8567 28.4463 69.7501 28.4463C68.8756 28.4463 68.1377 29.0121 67.8627 29.7942H50.2759C50.0016 29.0121 49.2636 28.4463 48.3885 28.4463C47.2813 28.4463 46.3811 29.3471 46.3811 30.4537C46.3811 31.5603 47.2819 32.4611 48.3885 32.4611C49.263 32.4611 50.0009 31.8953 50.2759 31.1132H54.2769C51.6707 32.6544 49.869 35.4044 49.6475 38.5896H49.0869C48.7229 38.5896 48.4274 38.885 48.4274 39.2491V41.6225C48.4274 41.9865 48.7229 42.282 49.0869 42.282H51.4603C51.8244 42.282 52.1198 41.9865 52.1198 41.6225V39.2491C52.1198 38.885 51.8244 38.5896 51.4603 38.5896ZM68.3922 40.963H67.3378V39.9085H68.3922V40.963ZM69.7494 29.7646C70.1293 29.7646 70.4379 30.0739 70.4379 30.4531C70.4379 30.8323 70.1286 31.1415 69.7494 31.1415C69.3702 31.1415 69.061 30.8323 69.061 30.4531C69.061 30.0739 69.3702 29.7646 69.7494 29.7646ZM48.3885 31.1422C48.0087 31.1422 47.7 30.8329 47.7 30.4537C47.7 30.0745 48.0093 29.7652 48.3885 29.7652C48.7677 29.7652 49.077 30.0745 49.077 30.4537C49.077 30.8329 48.7684 31.1422 48.3885 31.1422ZM50.8009 40.963H49.7464V39.9085H50.8009V40.963Z" fill="black"/>
<path d="M62.2124 68.3864H53.6795C53.3155 68.3864 53.02 68.6819 53.02 69.0459C53.02 69.4099 53.3155 69.7054 53.6795 69.7054H62.2124C62.5764 69.7054 62.8719 69.4099 62.8719 69.0459C62.8719 68.6819 62.5764 68.3864 62.2124 68.3864Z" fill="black"/>
<path d="M73.6464 6.08757H35.4116C34.245 6.08757 33.1529 5.51515 32.4888 4.55628L30.788 2.09975C29.878 0.785429 28.3803 0 26.7804 0H3.29735C1.47919 0 0 1.47919 0 3.29735V66.408C0 68.2262 1.47919 69.7054 3.29735 69.7054H51.0562C51.4202 69.7054 51.7157 69.4099 51.7157 69.0459C51.7157 68.6819 51.4202 68.3864 51.0562 68.3864H3.29669C2.20593 68.3864 1.31828 67.4988 1.31828 66.408V17.1541H75.6241V66.408C75.6241 67.4988 74.7365 68.3864 73.6457 68.3864H64.7976C64.4335 68.3864 64.1381 68.6819 64.1381 69.0459C64.1381 69.4099 64.4335 69.7054 64.7976 69.7054H73.6457C75.4639 69.7054 76.943 68.2262 76.943 66.408V9.38492C76.9437 7.56676 75.4639 6.08757 73.6464 6.08757ZM1.31894 3.29735C1.31894 2.20659 2.20659 1.31894 3.29735 1.31894H26.7811C27.9477 1.31894 29.0404 1.89136 29.7039 2.85023L31.4046 5.30676C32.3147 6.62174 33.813 7.40651 35.4122 7.40651H73.647C74.7378 7.40651 75.6254 8.29416 75.6254 9.38492V15.8352H1.31894V3.29735Z" fill="black"/>
<path d="M21.9662 8.15568C22.9594 8.15568 23.7646 7.35052 23.7646 6.35731C23.7646 5.36409 22.9594 4.55893 21.9662 4.55893C20.973 4.55893 20.1678 5.36409 20.1678 6.35731C20.1678 7.35052 20.973 8.15568 21.9662 8.15568Z" fill="white"/>
<path d="M15.4329 8.15568C16.4261 8.15568 17.2313 7.35052 17.2313 6.35731C17.2313 5.36409 16.4261 4.55893 15.4329 4.55893C14.4397 4.55893 13.6345 5.36409 13.6345 6.35731C13.6345 7.35052 14.4397 8.15568 15.4329 8.15568Z" fill="#7373E0"/>
<path d="M8.89945 8.15568C9.89267 8.15568 10.6978 7.35052 10.6978 6.35731C10.6978 5.36409 9.89267 4.55893 8.89945 4.55893C7.90624 4.55893 7.10107 5.36409 7.10107 6.35731C7.10107 7.35052 7.90624 8.15568 8.89945 8.15568Z" fill="#8586EE"/>
<path d="M69.8418 13.2811H8.01643C7.46973 13.2811 7.02722 12.8386 7.02722 12.2919C7.02722 11.7452 7.46973 11.3027 8.01643 11.3027H69.8418C70.3885 11.3027 70.831 11.7452 70.831 12.2919C70.831 12.8386 70.3885 13.2811 69.8418 13.2811Z" fill="#7373E0"/>
</svg>
