<svg width="84" height="63" viewBox="0 0 84 63" fill="none" xmlns="http://www.w3.org/2000/svg">
<path d="M13.8575 37.1184H1.38589V60.9794H13.8575V37.1184Z" fill="#7373E0"/>
<path d="M13.8574 41.0952V60.9793H56.9695C58.6906 60.9799 60.3881 60.5964 61.927 59.8592L78.9317 51.7266C79.9652 51.2323 80.7931 50.4178 81.2808 49.4158C81.7685 48.4138 81.8871 47.2834 81.6173 46.2087C81.3475 45.134 80.7053 44.1783 79.7952 43.4974C78.8851 42.8165 77.7608 42.4505 76.6054 42.4589L76.0096 42.4623C75.2332 42.4683 74.4684 42.6434 73.7733 42.9743L58.2011 50.3745H52.6581C54.1282 50.3745 55.5381 49.8158 56.5776 48.8214C57.6171 47.827 58.2011 46.4783 58.2011 45.072C58.2011 43.6658 57.6171 42.3171 56.5776 41.3227C55.5381 40.3283 54.1282 39.7696 52.6581 39.7696H40.649L37.9052 38.2932C34.5538 36.4901 30.7371 35.6318 26.8969 35.8177C23.0568 36.0036 19.3502 37.2261 16.2062 39.3438C15.8667 39.5724 15.5359 39.811 15.2102 40.0596L13.8574 41.0952Z" fill="#F0C087"/>
<path d="M13.8573 41.0952V60.9794H50.6954C37.6366 57.0556 25.4975 50.237 16.2061 39.3438C15.8666 39.5724 15.5358 39.8111 15.2101 40.0596L13.8573 41.0952Z" fill="#F0C087"/>
<path d="M1.38575 35.7928H13.8574C14.2249 35.7928 14.5774 35.9325 14.8373 36.1811C15.0972 36.4297 15.2431 36.7668 15.2431 37.1184V38.3747C18.6063 36.0628 22.5899 34.7181 26.7251 34.499C30.8602 34.2799 34.9747 35.1955 38.5842 37.138L41.0113 38.444H52.6581C53.9191 38.4435 55.1562 38.7723 56.2362 39.395C57.3161 40.0176 58.1979 40.9105 58.7864 41.9774C59.3748 43.0442 59.6477 44.2444 59.5754 45.4487C59.5032 46.6529 59.0887 47.8155 58.3765 48.8109L73.1568 41.7865C74.0409 41.3678 75.0126 41.1459 75.999 41.1373L76.5947 41.133C78.0632 41.1222 79.4922 41.5875 80.649 42.453C81.8058 43.3184 82.6221 44.5331 82.9649 45.8991C83.3078 47.2651 83.1569 48.7019 82.5371 49.9754C81.9172 51.249 80.8647 52.2842 79.5512 52.9124L62.5473 61.0456C60.8147 61.8719 58.9056 62.3029 56.9697 62.305H1.38575C1.01823 62.305 0.665764 62.1653 0.405884 61.9167C0.146011 61.6681 1.52588e-05 61.3309 1.52588e-05 60.9794V37.1184C1.52588e-05 36.7668 0.146011 36.4297 0.405884 36.1811C0.665764 35.9325 1.01823 35.7928 1.38575 35.7928ZM61.3079 58.6741L78.3116 50.541C79.0629 50.1817 79.6653 49.5904 80.0213 48.8627C80.3773 48.135 80.4661 47.3136 80.2732 46.5317C80.0803 45.7497 79.6171 45.0529 78.9586 44.5543C78.3001 44.0556 77.4848 43.7842 76.6449 43.7841H76.6157L76.0203 43.7884C75.4545 43.7933 74.8971 43.9206 74.39 44.1607L58.8177 51.5616C58.6261 51.6526 58.415 51.7 58.2011 51.7001H40.1865C39.8189 51.7001 39.4665 51.5604 39.2066 51.3118C38.9467 51.0632 38.8007 50.7261 38.8007 50.3745C38.8007 50.0229 38.9467 49.6857 39.2066 49.4371C39.4665 49.1885 39.8189 49.0489 40.1865 49.0489H52.6581C53.7607 49.0489 54.8181 48.6299 55.5977 47.8841C56.3773 47.1383 56.8153 46.1268 56.8153 45.0721C56.8153 44.0173 56.3773 43.0058 55.5977 42.26C54.8181 41.5142 53.7607 41.0952 52.6581 41.0952H40.6484C40.4105 41.0952 40.1765 41.0366 39.9691 40.9251L37.2255 39.4487C33.9302 37.6756 30.1561 36.885 26.3878 37.1784C22.6194 37.4718 19.0287 38.8358 16.0765 41.0952L15.2431 41.7324V59.6537H56.9698C58.4755 59.652 59.9604 59.3167 61.3079 58.6741ZM2.77149 59.6537H12.4717V38.444H2.77149V59.6537Z" fill="black"/>
<path d="M7.62159 55.677C7.21048 55.677 6.8086 55.5604 6.46677 55.3419C6.12495 55.1234 5.85853 54.8128 5.7012 54.4495C5.54388 54.0862 5.50272 53.6864 5.58292 53.3007C5.66312 52.9149 5.86109 52.5606 6.15179 52.2826C6.44248 52.0045 6.81286 51.8151 7.21607 51.7384C7.61928 51.6616 8.03722 51.701 8.41703 51.8515C8.79685 52.002 9.12149 52.2569 9.34989 52.5839C9.57829 52.9109 9.7002 53.2953 9.7002 53.6886C9.6996 54.2158 9.48041 54.7212 9.09073 55.094C8.70104 55.4667 8.17268 55.6764 7.62159 55.677Z" fill="black"/>
<path d="M63.558 23.6097L50.4264 35.7094L27.5614 13.002L29.2628 2.12085L41.1796 1.3855L63.558 23.6097Z" fill="#8586EE"/>
<path d="M29.021 14.4518L42.1527 2.35178L63.5579 23.6101L50.4266 35.7098L29.021 14.4518Z" fill="#BABAF3"/>
<path d="M34.7717 5.50245C34.7717 6.61383 33.8298 7.51492 32.668 7.51492C31.5062 7.51492 30.5642 6.61383 30.5642 5.50245C30.5642 4.39075 31.5062 3.48999 32.668 3.48999C33.8298 3.48999 34.7717 4.39075 34.7717 5.50245Z" fill="#EA9D2D"/>
<path d="M33.7197 5.50248C33.7197 6.058 33.2486 6.50871 32.6678 6.50871C32.0868 6.50871 31.616 6.058 31.616 5.50248C31.616 4.94663 32.0868 4.49625 32.6678 4.49625C33.2486 4.49625 33.7197 4.94663 33.7197 5.50248Z" fill="#EBEBEB"/>
<path d="M41.5358 8.50837L40.5624 7.54144C40.2936 7.27514 39.8505 7.26761 39.5714 7.52408L37.5512 9.38554L35.531 11.2473C35.252 11.5045 35.2441 11.929 35.5129 12.1959L36.4853 13.1619C36.8709 13.5467 37.4009 13.7685 37.958 13.7777H37.9988C39.1013 13.7799 40.0159 12.9621 40.0871 11.9093C40.6065 11.8962 41.1024 11.6977 41.4769 11.3531C42.3141 10.5831 42.3405 9.30955 41.5358 8.50837ZM38.486 12.2487C38.3566 12.3784 38.1741 12.4471 37.9868 12.4367C37.8009 12.4334 37.6242 12.359 37.4958 12.2306L37.0099 11.7475L38.0197 10.8173L38.5055 11.3001C38.774 11.5674 38.7654 11.9919 38.486 12.2487ZM40.5062 10.3872C40.3778 10.5185 40.1946 10.5876 40.007 10.5752C39.8214 10.5719 39.6447 10.4982 39.5163 10.3698L39.0301 9.88604L40.0399 8.9558L40.5261 9.43861C40.7945 9.70589 40.7856 10.1304 40.5062 10.3872Z" fill="#6FB1BB"/>
<path d="M48.8337 15.7551C48.631 15.5536 48.3188 15.494 48.0507 15.6047L42.5499 17.8783C42.1975 18.027 42.0366 18.4197 42.1893 18.7581C42.342 19.0961 42.7512 19.2533 43.1059 19.1098L44.0352 18.7256L45.5501 20.2307L45.1145 21.103C44.9478 21.4374 45.096 21.8377 45.4453 21.9972C45.5394 22.0411 45.6425 22.064 45.7469 22.0643C46.0164 22.0637 46.2619 21.9153 46.378 21.6824L48.9594 16.5098C49.0861 16.2579 49.0361 15.9572 48.8337 15.7551ZM45.4104 18.1573L46.8899 17.5455L46.1958 18.9376L45.4104 18.1573Z" fill="#E06661"/>
<path d="M44.9413 11.8907L43.9709 10.9237C43.8418 10.796 43.6655 10.7223 43.4799 10.7187C43.2946 10.7177 43.1159 10.7849 42.9806 10.9057L40.9553 12.7672L38.9351 14.629C38.7471 14.7934 38.667 15.0424 38.7262 15.2795C38.7851 15.5163 38.9741 15.7043 39.2193 15.7698C39.4645 15.8357 39.7278 15.7689 39.9069 15.5956L41.4223 14.1996L41.6083 14.384L40.7057 16.8203C40.6187 17.0473 40.6656 17.3011 40.8286 17.4855C40.9919 17.6696 41.246 17.7558 41.4943 17.7109C41.7422 17.666 41.9459 17.497 42.0274 17.2684L42.7947 15.1956C43.71 15.475 44.7067 15.1233 45.2131 14.3424C45.7199 13.5615 45.6069 12.5513 44.9392 11.8907H44.9413ZM43.9117 13.7688C43.7778 13.893 43.598 13.9608 43.4117 13.9575C43.2255 13.9546 43.0481 13.8805 42.919 13.7521L42.4328 13.2683L43.4426 12.3381L43.9295 12.8209C44.1979 13.0882 44.189 13.5127 43.9096 13.7695L43.9117 13.7688Z" fill="#6FB1BB"/>
<path d="M49.6388 25.9288C49.4231 25.9288 49.2194 25.8335 49.0865 25.6704C48.954 25.5076 48.9071 25.2953 48.9595 25.0948L49.9727 21.2252L47.6929 23.3254C47.4125 23.5711 46.9783 23.558 46.7147 23.2959C46.4507 23.0339 46.4534 22.6182 46.7205 22.3595L50.7609 18.6362C50.9862 18.4292 51.3276 18.3899 51.5981 18.5396C51.8686 18.6896 52.0028 18.9923 51.9272 19.2825L50.9133 23.1522L53.193 21.0519C53.3721 20.8786 53.6354 20.8118 53.8806 20.8776C54.1258 20.9432 54.3148 21.1312 54.3737 21.368C54.4329 21.6051 54.3528 21.8541 54.1648 22.0185L50.1251 25.7418C49.9943 25.8616 49.8203 25.9288 49.6388 25.9288Z" fill="#6FB1BB"/>
<path d="M53.6067 28.6818C52.6544 28.6828 51.7426 28.3127 51.0821 27.6563L50.5955 27.1725C50.3274 26.9055 50.336 26.4817 50.6144 26.2245L54.6551 22.5016C54.7931 22.3843 54.9698 22.3179 55.1544 22.3136C55.3399 22.3175 55.5166 22.3916 55.6454 22.5196L56.1312 23.0028C57.1054 23.9717 57.3807 25.4034 56.8308 26.6402C56.2809 27.8774 55.0119 28.6808 53.6067 28.6818ZM52.0905 26.7257C52.8969 27.5262 54.2285 27.5498 55.0653 26.7788C55.9022 26.0077 55.9268 24.7335 55.1208 23.933L52.0905 26.7257Z" fill="#6FB1BB"/>
<path d="M31.6989 5.20701C31.5082 5.20734 31.3253 5.13332 31.1932 5.00197L27.2976 1.13656C27.0288 0.869603 27.0374 0.444771 27.3164 0.187645C27.5951 -0.0694814 28.0393 -0.0612927 28.308 0.20566L32.2002 4.07074C32.3954 4.26465 32.4505 4.55093 32.3406 4.79889C32.2307 5.04651 31.9766 5.20701 31.6951 5.20701H31.6989Z" fill="#69B0BB"/>
<path d="M45.7938 31.0136H55.6113L50.4263 35.7094L45.7938 31.0136Z" fill="#8586EE"/>
<path d="M67.5326 22.6284C67.5326 25.0366 65.4918 26.9887 62.9745 26.9887C60.4571 26.9887 58.4163 25.0366 58.4163 22.6284C58.4163 20.2203 60.4571 18.2681 62.9745 18.2681C65.4918 18.2681 67.5326 20.2203 67.5326 22.6284Z" fill="#8586EE"/>
<path d="M65.7794 21.9576H64.6672L65.4534 21.2055L64.4618 20.2569L63.6756 21.009V19.9451H62.2731V21.009L61.487 20.2569L60.4957 21.2055L61.2815 21.9576H60.1694V23.2992H61.2815L60.4957 24.0519L61.487 25.0005L62.2731 24.2478V25.3117H63.6756V24.2478L64.4618 25.0005L65.4534 24.0519L64.6672 23.2992H65.7794V21.9576Z" fill="#6FB1BB"/>
<path d="M43.4265 15.2949C44.2695 15.2942 45.0306 14.8121 45.3604 14.0702C45.6905 13.328 45.5254 12.4691 44.9413 11.8877L43.9709 10.9237C43.8418 10.796 43.6655 10.7223 43.4799 10.7187C43.2946 10.7177 43.1159 10.7849 42.9806 10.9057L40.9553 12.7672L38.9351 14.629C38.7471 14.7934 38.667 15.0424 38.7262 15.2795C38.7851 15.5163 38.9741 15.7043 39.2193 15.7698C39.4645 15.8357 39.7278 15.7689 39.9069 15.5956L41.4223 14.1996L41.6083 14.384L40.7057 16.8203C40.6187 17.0473 40.6656 17.3011 40.8286 17.4855C40.9919 17.6696 41.246 17.7558 41.4943 17.7109C41.7422 17.666 41.9459 17.497 42.0274 17.2684L42.7947 15.1956C42.9988 15.2595 43.2118 15.2929 43.4265 15.2949ZM43.4449 12.3352L43.9315 12.8183C44.201 13.0859 44.1928 13.5117 43.9134 13.7695C43.6336 14.0273 43.1885 14.0197 42.919 13.7521L42.4328 13.2683L43.4449 12.3352Z" fill="black"/>
<path d="M40.0899 11.91C40.6093 11.8969 41.1051 11.6984 41.4797 11.3538C42.3165 10.5831 42.3419 9.3089 41.5358 8.50837L40.5624 7.54144C40.2936 7.27514 39.8505 7.26761 39.5715 7.52408L37.5512 9.38554L35.531 11.2473C35.252 11.5045 35.2441 11.929 35.5129 12.1959L36.4853 13.1619C36.8709 13.5467 37.4009 13.7685 37.958 13.7777H37.9988C39.1013 13.7799 40.0159 12.9621 40.0871 11.9093L40.0899 11.91ZM40.0392 8.95842L40.5254 9.44123C40.7938 9.70818 40.7853 10.133 40.5062 10.3898C40.3778 10.5212 40.1946 10.5903 40.007 10.5778C39.8214 10.5745 39.6447 10.5008 39.5163 10.3724L39.0301 9.88866L40.0392 8.95842ZM38.486 12.2513C38.3566 12.381 38.1741 12.4498 37.9868 12.4393C37.8009 12.436 37.6242 12.3617 37.4958 12.2333L37.0099 11.7505L38.0197 10.8199L38.5055 11.303C38.7723 11.5696 38.7634 11.9922 38.486 12.2487V12.2513Z" fill="black"/>
<path d="M48.8337 15.7551C48.631 15.5536 48.3188 15.494 48.0507 15.6047L42.5499 17.8783C42.1975 18.027 42.0366 18.4197 42.1893 18.7581C42.342 19.0961 42.7512 19.2533 43.1059 19.1098L44.0352 18.7256L45.5501 20.2307L45.1145 21.103C44.9478 21.4374 45.096 21.8377 45.4453 21.9972C45.5394 22.0411 45.6425 22.064 45.7469 22.0643C46.0164 22.0637 46.2619 21.9153 46.378 21.6824L48.9594 16.5098C49.0861 16.2579 49.0361 15.9572 48.8337 15.7551ZM45.4104 18.1573L46.8899 17.5455L46.1958 18.9376L45.4104 18.1573Z" fill="black"/>
<path d="M54.1854 21.0699C53.9166 20.8033 53.4728 20.7951 53.1937 21.0519L50.9133 23.1522L51.9265 19.2825C52.0022 18.9923 51.8679 18.6896 51.5974 18.5396C51.3269 18.3899 50.9856 18.4292 50.7602 18.6362L46.7198 22.3595C46.4528 22.6182 46.45 23.0339 46.714 23.2959C46.9777 23.558 47.4118 23.5711 47.6923 23.3254L49.972 21.2252L48.9588 25.0948C48.8828 25.3851 49.0167 25.6884 49.2872 25.8384C49.5581 25.9884 49.8994 25.9491 50.1251 25.7418L54.1648 22.0185C54.4442 21.762 54.4535 21.3375 54.1854 21.0699Z" fill="black"/>
<path d="M55.6445 22.5197C55.5158 22.3916 55.3391 22.3176 55.1535 22.3136C54.9689 22.3179 54.7923 22.3844 54.6543 22.5016L50.6135 26.2246C50.3351 26.4817 50.3266 26.9055 50.5947 27.1725L51.0813 27.6563C51.9438 28.5466 53.2418 28.9219 54.4755 28.6373C55.7089 28.3527 56.6854 27.4526 57.0289 26.2839C57.372 25.1152 57.0285 23.8603 56.1304 23.0028L55.6445 22.5197ZM55.0652 26.7788C54.2283 27.5498 52.8967 27.5263 52.0903 26.7257L55.1206 23.933C55.9267 24.7336 55.902 26.0077 55.0652 26.7788Z" fill="black"/>
<path d="M62.9745 17.5972C61.7552 17.5963 60.5735 18.0024 59.634 18.7456L42.6581 1.88599L41.6853 0.920046C41.5422 0.777234 41.3405 0.702553 41.134 0.715327L29.5425 1.43102L28.3081 0.20566C28.0393 -0.0612928 27.5952 -0.0694815 27.3165 0.187645C27.0375 0.444771 27.0289 0.869603 27.2977 1.13656L28.518 2.34816L26.868 12.9021C26.8354 13.1082 26.905 13.3168 27.056 13.4668L28.5146 14.9159L49.9202 36.1742L49.9278 36.1824C50.1969 36.4425 50.6352 36.4467 50.9094 36.1919L60.7088 27.1623C62.6595 28.0598 64.9855 27.7224 66.5701 26.3123C68.1551 24.9022 68.6749 22.7073 67.8805 20.7813C67.0858 18.8554 65.1389 17.592 62.9745 17.5972ZM59.1176 22.6284C59.1183 21.9563 59.3125 21.2972 59.6788 20.724L60.9214 21.9576H60.1695V23.2992H61.2816L60.4958 24.0519L61.2669 24.7899L60.5201 25.4748C59.6312 24.7745 59.1166 23.7299 59.1176 22.6284ZM29.7459 3.56763L30.7913 4.60596C30.4674 5.22274 30.4968 5.95547 30.87 6.54604C31.2433 7.13661 31.9072 7.50248 32.6286 7.51493H32.6687C33.8305 7.52508 34.781 6.63218 34.7916 5.52081C34.8022 4.40943 33.8692 3.50015 32.7074 3.49C32.3948 3.48345 32.0849 3.54667 31.8021 3.67441L30.8166 2.697L40.8998 2.07433L41.1614 2.33408L29.0395 13.5032L28.3061 12.7741L29.7459 3.56763ZM32.1821 5.01933C32.3119 4.89846 32.4862 4.83099 32.6673 4.83164H32.6814C32.9649 4.83688 33.2169 5.00492 33.3203 5.25746C33.4237 5.51 33.358 5.79726 33.1539 5.98527C33.0227 6.11236 32.8413 6.18049 32.6547 6.17263C32.3711 6.16739 32.1188 5.99936 32.015 5.74682C31.9113 5.49428 31.9777 5.20767 32.1821 5.01933ZM47.4196 31.6845H53.7833L50.4503 34.7562L47.4196 31.6845ZM55.2166 30.3635V30.3428H45.9959L30.0157 14.4691L42.1342 3.30002L58.6838 19.7352C57.1265 21.8334 57.4864 24.7191 59.5155 26.4083L55.2166 30.3635ZM62.9745 26.3179C62.5811 26.3179 62.1901 26.2603 61.8148 26.1469L62.7215 25.3117H63.6758V24.4329L63.774 24.3425L64.4619 25.0005L65.4535 24.0519L64.6674 23.2992H65.7795V21.9576H64.6674L65.4535 21.2055L64.4619 20.2589L63.6758 21.009V19.9451H62.2733V21.009L61.4871 20.2589L61.3183 20.4201L60.617 19.7198C61.9487 18.7256 63.8014 18.6762 65.1889 19.5976C66.5766 20.5187 67.1758 22.1967 66.6684 23.7375C66.1606 25.2786 64.6636 26.3241 62.9745 26.3179Z" fill="black"/>
</svg>
