<svg width="72" height="72" viewBox="0 0 72 72" fill="none" xmlns="http://www.w3.org/2000/svg">
<path d="M70.7971 63.5967C70.7782 64.2524 70.4996 64.8737 70.0225 65.3239C69.5453 65.774 68.9088 66.016 68.2532 65.9966H63.5974L61.3294 60.8249H61.1975L57.6936 60.2369C56.8162 60.0914 56.0912 59.4726 55.8097 58.6289L54.5257 54.7771C54.1415 53.6419 54.6537 52.3972 55.7257 51.8612L56.9976 51.2252H57.1296L55.1977 46.7974H57.3216C59.0441 46.7832 60.6601 47.6294 61.6294 49.0533L70.4011 62.3248C70.6593 62.6986 70.7975 63.1424 70.7971 63.5967Z" fill="#5656B3"/>
<path d="M70.4009 62.3248L61.6293 49.0533C60.6599 47.6294 59.0439 46.7832 57.3214 46.7974L55.1975 46.7972L55.3067 47.047C56.4172 47.3843 57.3783 48.0926 58.0294 49.0533L66.801 62.3248C67.0593 62.6987 67.1974 63.1424 67.197 63.5967C67.1782 64.2524 66.8995 64.8737 66.4224 65.3239C65.9453 65.774 65.3088 66.016 64.6531 65.9967H68.253C68.9087 66.016 69.5451 65.774 70.0223 65.3239C70.4994 64.8737 70.7781 64.2524 70.7969 63.5967C70.7973 63.1424 70.6592 62.6987 70.4009 62.3248Z" fill="#302C8C"/>
<path d="M63.5973 65.9967H9.59949L17.9991 46.7974H20.903L26.3988 55.1971H45.598L51.0938 46.7974H55.1977L57.1296 51.2252H56.9976L55.7256 51.8612C54.6537 52.3972 54.1415 53.6419 54.5257 54.7771L55.8096 58.6289C56.0911 59.4726 56.8162 60.0914 57.6936 60.2369L61.1974 60.8249H61.3294L63.5973 65.9967Z" fill="#AAABFF"/>
<path d="M17.9992 46.7972L9.59949 65.9967H3.74373C3.08806 66.016 2.45158 65.774 1.97444 65.3239C1.49731 64.8737 1.21865 64.2524 1.19983 63.5967C1.19942 63.1424 1.33755 62.6987 1.59581 62.3248L10.3675 49.0533C11.3368 47.6294 12.9528 46.7832 14.6753 46.7974L17.9992 46.7972Z" fill="#5656B3"/>
<path d="M70.797 63.5967V68.3965C70.7931 69.7203 69.7209 70.7924 68.3971 70.7964H3.59973C2.27594 70.7924 1.20378 69.7203 1.19983 68.3965V63.5967C1.21865 64.2524 1.49731 64.8737 1.97444 65.3238C2.45158 65.7739 3.08806 66.016 3.74373 65.9966H68.2531C68.9088 66.016 69.5453 65.7739 70.0224 65.3238C70.4996 64.8737 70.7782 64.2524 70.797 63.5967Z" fill="#5656B3"/>
<path d="M68.2532 65.9966H67.1973V68.3965C67.1933 69.7203 66.1212 70.7924 64.7974 70.7964H68.3972C69.721 70.7924 70.7932 69.7203 70.7971 68.3965V63.5967C70.7783 64.2524 70.4996 64.8737 70.0225 65.3238C69.5454 65.7739 68.9089 66.016 68.2532 65.9966Z" fill="#302C8C"/>
<path d="M51.5978 9.59894V26.3983L35.9984 34.7979L20.399 26.3983V9.59894L35.9984 1.19928L51.5978 9.59894Z" fill="#B0B0FF"/>
<path d="M35.9985 1.19928L34.1986 2.16884L47.9981 9.59894V26.3983L34.1986 33.8284L35.9985 34.7979L51.5979 26.3983V9.59894L35.9985 1.19928Z" fill="#8D8DF5"/>
<path d="M40.2293 14.3616L35.9983 16.6367L31.7673 14.3568C31.1834 14.0427 30.4555 14.2613 30.1413 14.8452C29.8272 15.429 30.0459 16.157 30.6297 16.4711L34.7983 18.7186V21.5985C34.7983 22.2612 35.3356 22.7984 35.9983 22.7984C36.661 22.7984 37.1982 22.2612 37.1982 21.5985V18.7186L41.3669 16.4783C41.9507 16.1642 42.1694 15.4362 41.8553 14.8524C41.5411 14.2685 40.8132 14.0499 40.2293 14.364V14.3616Z" fill="black"/>
<path d="M25.7676 11.1217L20.9678 8.54178C20.384 8.22766 19.656 8.44631 19.3419 9.03016C19.0278 9.61402 19.2464 10.342 19.8303 10.6561L24.6301 13.236C25.2139 13.5501 25.9419 13.3315 26.256 12.7476C26.5701 12.1638 26.3515 11.4358 25.7676 11.1217Z" fill="black"/>
<path d="M52.6549 9.03017C52.5042 8.7497 52.2481 8.54064 51.9432 8.44904C51.6382 8.35744 51.3094 8.39081 51.029 8.54179L46.2292 11.1217C45.6453 11.4358 45.4267 12.1638 45.7408 12.7476C46.0549 13.3315 46.7829 13.5501 47.3668 13.236L52.1666 10.6561C52.447 10.5054 52.6561 10.2493 52.7477 9.94435C52.8393 9.63939 52.8059 9.31052 52.6549 9.03017Z" fill="black"/>
<path d="M35.9983 27.5983C35.3356 27.5983 34.7983 28.1355 34.7983 28.7982V34.798C34.7983 35.4607 35.3356 35.9979 35.9983 35.9979C36.661 35.9979 37.1982 35.4607 37.1982 34.798V28.7982C37.1982 28.1355 36.661 27.5983 35.9983 27.5983Z" fill="black"/>
<path d="M62.6278 48.3874C61.4383 46.627 59.4461 45.5796 57.3216 45.5975H53.309L67.0016 24.6547C67.2438 24.2959 67.274 23.8344 67.0804 23.4471C66.8869 23.0597 66.4998 22.8067 66.0673 22.785C65.6349 22.7632 65.2243 22.9761 64.9929 23.342L44.9489 53.9972H27.048L7.00402 23.342C6.77259 22.9761 6.36199 22.7632 5.92957 22.785C5.49715 22.8067 5.10999 23.0597 4.91647 23.4471C4.72295 23.8344 4.75307 24.2959 4.9953 24.6547L18.688 45.5975H14.6753C12.5491 45.5798 10.5556 46.6293 9.36673 48.3922L0.599879 61.6517C0.206535 62.2238 -0.00278398 62.9025 -9.65126e-05 63.5968V68.3966C-9.65126e-05 70.3847 1.61161 71.9964 3.59976 71.9964H68.3972C70.3853 71.9964 71.997 70.3847 71.997 68.3966V63.5968C71.9984 62.9064 71.7891 62.232 71.397 61.6637L62.6278 48.3874ZM18.7839 47.9974H20.2575L25.3945 55.8535C25.6161 56.1926 25.9938 56.397 26.3988 56.3971H45.5981C46.0031 56.397 46.3809 56.1926 46.6024 55.8535L51.7394 47.9974H54.4117L55.5517 50.6073L55.1845 50.7909C53.5887 51.6018 52.824 53.4563 53.3846 55.1563L54.6673 59.0034C55.0835 60.274 56.1735 61.2066 57.4932 61.4213L60.4991 61.9253L61.7602 64.7967H11.4342L18.7839 47.9974ZM2.5966 62.986L11.3658 49.7193C12.1108 48.6271 13.3533 47.9806 14.6753 47.9974H16.1645L8.81475 64.7967H3.74375C3.04205 64.8343 2.44169 64.2982 2.39981 63.5968C2.40077 63.3778 2.46952 63.1644 2.5966 62.986ZM69.5971 68.3966C69.5971 69.0593 69.0599 69.5965 68.3972 69.5965H3.59976C2.93704 69.5965 2.39981 69.0593 2.39981 68.3966V66.947C2.82926 67.11 3.28445 67.1945 3.74375 67.1966H68.2532C68.7125 67.1945 69.1677 67.11 69.5971 66.947V68.3966ZM68.2532 64.7967H64.3821L62.4286 60.3437C62.2378 59.9066 61.8063 59.624 61.3294 59.6237L57.888 59.0514C57.4505 58.978 57.0891 58.6693 56.9484 58.2486L55.6633 54.3932C55.4705 53.8252 55.7267 53.2021 56.2632 52.934L57.3072 52.412C57.6765 52.3569 57.9991 52.1331 58.18 51.8064C58.3608 51.4798 58.3793 51.0875 58.23 50.7453L57.03 47.9974H57.3204C58.6406 47.9804 59.8819 48.6249 60.6275 49.7145L69.4087 62.9968C69.5314 63.1728 69.5972 63.3822 69.5971 63.5968C69.5552 64.2982 68.9549 64.8343 68.2532 64.7967Z" fill="black"/>
<path d="M19.8303 27.4542L35.4296 35.8539C35.7847 36.045 36.2121 36.045 36.5672 35.8539L52.1666 27.4542C52.5551 27.245 52.7975 26.8395 52.7977 26.3982V9.59892C52.7975 9.15766 52.5551 8.75212 52.1666 8.54297L36.5672 0.143303C36.2121 -0.0478492 35.7847 -0.0478492 35.4296 0.143303L19.8303 8.54297C19.4417 8.75212 19.1993 9.15766 19.1991 9.59892V26.3982C19.1993 26.8395 19.4417 27.245 19.8303 27.4542ZM21.599 10.3189L35.9984 2.56241L50.3978 10.3189V25.6783L35.9984 33.4348L21.599 25.6783V10.3189Z" fill="black"/>
</svg>
