<svg width="78" height="78" viewBox="0 0 78 78" fill="none" xmlns="http://www.w3.org/2000/svg">
<path d="M74.0999 32.5H3.89993C2.46399 32.5 1.29993 33.6641 1.29993 35.1V74.1C1.29993 75.5359 2.46399 76.7 3.89993 76.7H74.0999C75.5359 76.7 76.6999 75.5359 76.6999 74.1V35.1C76.6999 33.6641 75.5359 32.5 74.0999 32.5Z" fill="#AAABFF"/>
<path d="M76.6999 40.3V68.9H75.3999C74.711 68.8979 74.0509 68.6233 73.5637 68.1362C73.0766 67.649 72.802 66.9889 72.7999 66.3V42.9C72.802 42.2111 73.0766 41.5509 73.5637 41.0638C74.0509 40.5766 74.711 40.302 75.3999 40.3H76.6999Z" fill="#BABAF3"/>
<path d="M29.9 28.5999H45.5V40.2999H29.9V28.5999Z" fill="#00D7DF"/>
<path d="M6.5 37.7H68.9V71.5H6.5V37.7Z" fill="#AAABFF"/>
<path d="M66.2999 37.7H68.8999V71.5H66.2999V37.7Z" fill="#7373E0"/>
<path d="M37.7 23.4C39.1359 23.4 40.3 22.236 40.3 20.8C40.3 19.3641 39.1359 18.2 37.7 18.2C36.264 18.2 35.1 19.3641 35.1 20.8C35.1 22.236 36.264 23.4 37.7 23.4Z" fill="#AAABFF"/>
<path d="M29.9 28.5999H45.5V40.2999H29.9V28.5999Z" fill="#AAABFF"/>
<path d="M15.6001 66.2999C17.754 66.2999 19.5001 64.5538 19.5001 62.3999C19.5001 60.246 17.754 58.4999 15.6001 58.4999C13.4462 58.4999 11.7001 60.246 11.7001 62.3999C11.7001 64.5538 13.4462 66.2999 15.6001 66.2999Z" fill="#CDCEFF"/>
<path d="M57.1999 63.7C59.3538 63.7 61.0999 61.9539 61.0999 59.8C61.0999 57.6461 59.3538 55.9 57.1999 55.9C55.046 55.9 53.2999 57.6461 53.2999 59.8C53.2999 61.9539 55.046 63.7 57.1999 63.7Z" fill="#CDCEFF"/>
<path d="M64.922 37.6999C64.9743 38.1313 65.0004 38.5654 65 38.9999C64.9984 41.153 64.3284 43.2526 63.0828 45.0087C61.8371 46.7649 60.077 48.0912 58.0455 48.8045C56.014 49.5178 53.8111 49.583 51.741 48.9911C49.6708 48.3992 47.8354 47.1793 46.488 45.4999H28.912C27.5647 47.1793 25.7292 48.3992 23.6591 48.9911C21.5889 49.583 19.3861 49.5178 17.3546 48.8045C15.323 48.0912 13.563 46.7649 12.3173 45.0087C11.0716 43.2526 10.4017 41.153 10.4 38.9999C10.3997 38.5654 10.4258 38.1313 10.478 37.6999C10.7998 35.1882 12.0248 32.8795 13.9243 31.2049C15.8237 29.5303 18.2678 28.6043 20.8 28.5999H29.9V40.2999H45.5V28.5999H54.6C57.1323 28.6043 59.5763 29.5303 61.4758 31.2049C63.3753 32.8795 64.6003 35.1882 64.922 37.6999Z" fill="#CDCEFF"/>
<path d="M18.1999 40.3V44.2H20.7999V40.3H24.6999V37.7H20.7999V33.8H18.1999V37.7H14.2999V40.3H18.1999Z" fill="black"/>
<path d="M57.2001 35.0999H59.8001V37.6999H57.2001V35.0999Z" fill="black"/>
<path d="M52 35.0999H54.6V37.6999H52V35.0999Z" fill="black"/>
<path d="M52 40.3H54.6V42.9H52V40.3Z" fill="black"/>
<path d="M57.2001 40.3H59.8001V42.9H57.2001V40.3Z" fill="black"/>
<path d="M71.5 71.5H74.1V74.1H71.5V71.5Z" fill="black"/>
<path d="M74.1 31.2H63.2957C62.2027 29.9741 60.8631 28.993 59.3646 28.3209C57.866 27.6488 56.2424 27.3009 54.6 27.3H20.8C19.1576 27.3009 17.534 27.6488 16.0354 28.3209C14.5369 28.993 13.1973 29.9741 12.1043 31.2H3.9C2.86566 31.2 1.87368 31.6109 1.14228 32.3423C0.410892 33.0737 0 34.0656 0 35.1V74.1C0 75.1343 0.410892 76.1263 1.14228 76.8577C1.87368 77.5891 2.86566 78 3.9 78H74.1C75.1343 78 76.1263 77.5891 76.8577 76.8577C77.5891 76.1263 78 75.1343 78 74.1V35.1C78 34.0656 77.5891 33.0737 76.8577 32.3423C76.1263 31.6109 75.1343 31.2 74.1 31.2ZM20.8 50.7C22.4448 50.7015 24.0714 50.3548 25.5726 49.6826C27.0738 49.0104 28.4157 48.028 29.51 46.8H31.2V61.1H20.6154C20.299 59.8745 19.5465 58.8065 18.499 58.0962C17.4515 57.3859 16.1809 57.082 14.9253 57.2414C13.6697 57.4009 12.5154 58.0128 11.6788 58.9625C10.8421 59.9121 10.3805 61.1343 10.3805 62.4C10.3805 63.6656 10.8421 64.8878 11.6788 65.8375C12.5154 66.7872 13.6697 67.3991 14.9253 67.5585C16.1809 67.718 17.4515 67.4141 18.499 66.7038C19.5465 65.9934 20.299 64.9254 20.6154 63.7H32.5C32.8448 63.7 33.1754 63.563 33.4192 63.3192C33.663 63.0754 33.8 62.7448 33.8 62.4V46.8H41.6V59.8C41.6 60.1448 41.737 60.4754 41.9808 60.7192C42.2246 60.963 42.5552 61.1 42.9 61.1H52.1846C52.501 62.3254 53.2535 63.3934 54.301 64.1038C55.3485 64.8141 56.6191 65.118 57.8747 64.9585C59.1303 64.7991 60.2846 64.1872 61.1212 63.2375C61.9579 62.2878 62.4195 61.0656 62.4195 59.8C62.4195 58.5343 61.9579 57.3121 61.1212 56.3625C60.2846 55.4128 59.1303 54.8009 57.8747 54.6414C56.6191 54.482 55.3485 54.7859 54.301 55.4962C53.2535 56.2065 52.501 57.2745 52.1846 58.5H44.2V46.8H45.89C47.4705 48.5622 49.5484 49.8036 51.8492 50.3601C54.15 50.9167 56.5655 50.7622 58.7767 49.9172C60.9879 49.0721 62.8908 47.5762 64.234 45.6271C65.5772 43.6779 66.2976 41.3672 66.3 39H67.6V70.2H7.8V39H9.1C9.10344 42.102 10.3372 45.0759 12.5307 47.2693C14.7241 49.4628 17.698 50.6965 20.8 50.7ZM18.2 62.4C18.2 62.9142 18.0475 63.4169 17.7618 63.8445C17.4761 64.272 17.0701 64.6053 16.595 64.8021C16.1199 64.9989 15.5971 65.0504 15.0928 64.95C14.5884 64.8497 14.1251 64.6021 13.7615 64.2385C13.3979 63.8749 13.1503 63.4116 13.05 62.9072C12.9496 62.4029 13.0011 61.8801 13.1979 61.405C13.3947 60.9299 13.7279 60.5239 14.1555 60.2382C14.5831 59.9525 15.0858 59.8 15.6 59.8C16.2896 59.8 16.9509 60.0739 17.4385 60.5615C17.9261 61.0491 18.2 61.7104 18.2 62.4ZM54.6 59.8C54.6 59.2858 54.7525 58.7831 55.0382 58.3555C55.3239 57.9279 55.7299 57.5947 56.205 57.3979C56.6801 57.2011 57.2029 57.1496 57.7072 57.2499C58.2116 57.3503 58.6749 57.5979 59.0385 57.9615C59.4021 58.3251 59.6497 58.7884 59.75 59.2928C59.8504 59.7971 59.7989 60.3199 59.6021 60.795C59.4053 61.2701 59.072 61.6761 58.6445 61.9618C58.2169 62.2475 57.7142 62.4 57.2 62.4C56.5104 62.4 55.8491 62.1261 55.3615 61.6385C54.8739 61.1509 54.6 60.4896 54.6 59.8ZM31.2 29.9H44.2V39H31.2V29.9ZM20.8 29.9H28.6V40.3C28.6 40.6448 28.737 40.9754 28.9808 41.2192C29.2246 41.463 29.5552 41.6 29.9 41.6H45.5C45.8448 41.6 46.1754 41.463 46.4192 41.2192C46.663 40.9754 46.8 40.6448 46.8 40.3V29.9H54.6C56.1393 29.8991 57.6536 30.2886 59.0014 31.0322C60.3491 31.7758 61.4862 32.8491 62.3063 34.1517C63.1264 35.4543 63.6027 36.9436 63.6906 38.4804C63.7785 40.0172 63.4751 41.5511 62.8089 42.9387C62.1426 44.3263 61.1353 45.5223 59.8811 46.4146C58.6269 47.307 57.1669 47.8667 55.6375 48.0413C54.1082 48.2158 52.5596 47.9996 51.1365 47.4129C49.7135 46.8261 48.4625 45.888 47.5007 44.6862C47.379 44.5346 47.2248 44.4122 47.0496 44.3281C46.8743 44.2439 46.6824 44.2001 46.488 44.2H28.912C28.7176 44.2001 28.5257 44.2439 28.3504 44.3281C28.1752 44.4122 28.021 44.5346 27.8993 44.6862C26.9375 45.888 25.6865 46.8261 24.2635 47.4129C22.8404 47.9996 21.2918 48.2158 19.7625 48.0413C18.2331 47.8667 16.7731 47.307 15.5189 46.4146C14.2647 45.5223 13.2574 44.3263 12.5911 42.9387C11.9249 41.5511 11.6215 40.0172 11.7094 38.4804C11.7973 36.9436 12.2736 35.4543 13.0937 34.1517C13.9138 32.8491 15.0509 31.7758 16.3986 31.0322C17.7464 30.2886 19.2607 29.8991 20.8 29.9ZM75.4 74.1C75.4 74.4448 75.263 74.7754 75.0192 75.0192C74.7754 75.263 74.4448 75.4 74.1 75.4H3.9C3.55522 75.4 3.22456 75.263 2.98076 75.0192C2.73696 74.7754 2.6 74.4448 2.6 74.1V35.1C2.6 34.7552 2.73696 34.4245 2.98076 34.1807C3.22456 33.937 3.55522 33.8 3.9 33.8H10.335C9.92122 34.6263 9.60785 35.4992 9.4016 36.4H6.5C6.15522 36.4 5.82456 36.537 5.58076 36.7807C5.33696 37.0245 5.2 37.3552 5.2 37.7V71.5C5.2 71.8448 5.33696 72.1754 5.58076 72.4192C5.82456 72.663 6.15522 72.8 6.5 72.8H68.9C69.2448 72.8 69.5754 72.663 69.8192 72.4192C70.063 72.1754 70.2 71.8448 70.2 71.5V37.7C70.2 37.3552 70.063 37.0245 69.8192 36.7807C69.5754 36.537 69.2448 36.4 68.9 36.4H65.9984C65.7921 35.4992 65.4788 34.6263 65.065 33.8H74.1C74.4448 33.8 74.7754 33.937 75.0192 34.1807C75.263 34.4245 75.4 34.7552 75.4 35.1V39C74.3657 39 73.3737 39.4109 72.6423 40.1423C71.9109 40.8737 71.5 41.8656 71.5 42.9V66.3C71.5 67.3343 71.9109 68.3263 72.6423 69.0577C73.3737 69.7891 74.3657 70.2 75.4 70.2V74.1ZM75.4 67.6C75.0552 67.6 74.7246 67.463 74.4808 67.2192C74.237 66.9754 74.1 66.6448 74.1 66.3V42.9C74.1 42.5552 74.237 42.2245 74.4808 41.9807C74.7246 41.737 75.0552 41.6 75.4 41.6V67.6Z" fill="black"/>
<path d="M37.7 3.9C39.9204 3.89641 42.1195 4.33207 44.1708 5.1819C46.2221 6.03173 48.085 7.27893 49.6522 8.8517L51.4878 7.0083C47.8309 3.35182 42.8714 1.29767 37.7 1.29767C32.5287 1.29767 27.5691 3.35182 23.9122 7.0083L25.7478 8.8517C27.3151 7.27893 29.178 6.03173 31.2293 5.1819C33.2806 4.33207 35.4797 3.89641 37.7 3.9Z" fill="black"/>
<path d="M47.8102 10.69C46.4829 9.36161 44.9068 8.30784 43.1721 7.58889C41.4373 6.86993 39.5779 6.49988 37.7001 6.49988C35.8222 6.49988 33.9628 6.86993 32.2281 7.58889C30.4933 8.30784 28.9173 9.36161 27.59 10.69L29.4282 12.5282C31.6222 10.3347 34.5976 9.10255 37.7001 9.10255C40.8025 9.10255 43.7779 10.3347 45.972 12.5282L47.8102 10.69Z" fill="black"/>
<path d="M44.1349 14.3729C43.291 13.5257 42.2881 12.8536 41.1839 12.3949C40.0796 11.9363 38.8956 11.7002 37.6999 11.7002C36.5042 11.7002 35.3202 11.9363 34.2159 12.3949C33.1116 12.8536 32.1088 13.5257 31.2649 14.3729L33.1109 16.2033C33.7132 15.6 34.4285 15.1214 35.2159 14.7948C36.0033 14.4683 36.8474 14.3002 37.6999 14.3002C38.5524 14.3002 39.3964 14.4683 40.1839 14.7948C40.9713 15.1214 41.6866 15.6 42.2889 16.2033L44.1349 14.3729Z" fill="black"/>
<path d="M33.7999 20.8001C33.7999 21.5714 34.0287 22.3255 34.4572 22.9668C34.8857 23.6082 35.4948 24.108 36.2075 24.4032C36.9201 24.6984 37.7043 24.7756 38.4608 24.6251C39.2173 24.4747 39.9122 24.1032 40.4576 23.5578C41.0031 23.0124 41.3745 22.3175 41.525 21.5609C41.6755 20.8044 41.5982 20.0203 41.3031 19.3076C41.0079 18.595 40.508 17.9859 39.8666 17.5574C39.2253 17.1288 38.4713 16.9001 37.6999 16.9001C36.6656 16.9001 35.6736 17.311 34.9422 18.0424C34.2108 18.7738 33.7999 19.7657 33.7999 20.8001ZM38.9999 20.8001C38.9999 21.0572 38.9237 21.3085 38.7808 21.5223C38.638 21.7361 38.435 21.9027 38.1974 22.0011C37.9599 22.0995 37.6985 22.1253 37.4463 22.0751C37.1941 22.0249 36.9625 21.9011 36.7807 21.7193C36.5989 21.5375 36.4751 21.3059 36.4249 21.0537C36.3747 20.8015 36.4005 20.5401 36.4989 20.3026C36.5973 20.0651 36.7639 19.862 36.9777 19.7192C37.1915 19.5763 37.4428 19.5001 37.6999 19.5001C38.0447 19.5001 38.3754 19.637 38.6192 19.8808C38.863 20.1246 38.9999 20.4553 38.9999 20.8001Z" fill="black"/>
<path d="M57.2001 0H59.8001V2.6H57.2001V0Z" fill="black"/>
<path d="M54.6 2.59991H57.2V5.19991H54.6V2.59991Z" fill="black"/>
<path d="M59.7999 2.59991H62.3999V5.19991H59.7999V2.59991Z" fill="black"/>
<path d="M57.2001 5.20001H59.8001V7.80001H57.2001V5.20001Z" fill="black"/>
<path d="M65 10.4001H67.6V13.0001H65V10.4001Z" fill="black"/>
<path d="M67.6 13H70.2V15.6H67.6V13Z" fill="black"/>
<path d="M62.4 13H65V15.6H62.4V13Z" fill="black"/>
<path d="M65 15.5999H67.6V18.1999H65V15.5999Z" fill="black"/>
<path d="M15.6 0H18.2V2.6H15.6V0Z" fill="black"/>
<path d="M18.2001 2.59991H20.8001V5.19991H18.2001V2.59991Z" fill="black"/>
<path d="M13 2.59991H15.6V5.19991H13V2.59991Z" fill="black"/>
<path d="M15.6 5.20001H18.2V7.80001H15.6V5.20001Z" fill="black"/>
<path d="M7.79993 10.4001H10.3999V13.0001H7.79993V10.4001Z" fill="black"/>
<path d="M5.20007 13H7.80007V15.6H5.20007V13Z" fill="black"/>
<path d="M10.4 13H13V15.6H10.4V13Z" fill="black"/>
<path d="M7.79993 15.5999H10.3999V18.1999H7.79993V15.5999Z" fill="black"/>
</svg>
