<svg width="78" height="78" viewBox="0 0 78 78" fill="none" xmlns="http://www.w3.org/2000/svg">
<path d="M71.4999 1.29999H6.49993C5.1208 1.29999 3.79816 1.84784 2.82297 2.82303C1.84778 3.79822 1.29993 5.12086 1.29993 6.49999V48.1H76.6999V6.49999C76.6999 5.12086 76.1521 3.79822 75.1769 2.82303C74.2017 1.84784 72.8791 1.29999 71.4999 1.29999Z" fill="#CDCEFF"/>
<path d="M76.6999 48.0999V55.8999C76.6999 57.279 76.1521 58.6017 75.1769 59.5769C74.2017 60.5521 72.8791 61.0999 71.4999 61.0999H6.49993C5.1208 61.0999 3.79816 60.5521 2.82297 59.5769C1.84778 58.6017 1.29993 57.279 1.29993 55.8999V48.0999H76.6999Z" fill="#AAABFF"/>
<path d="M39 57.2C40.436 57.2 41.6 56.0359 41.6 54.6C41.6 53.1641 40.436 52 39 52C37.5641 52 36.4 53.1641 36.4 54.6C36.4 56.0359 37.5641 57.2 39 57.2Z" fill="#AAABFF"/>
<path d="M26 71.4999H52L48.1 61.0999H29.9L26 71.4999Z" fill="#CDCEFF"/>
<path d="M22.1 71.5C21.4104 71.5 20.7491 71.7739 20.2615 72.2615C19.7739 72.7491 19.5 73.4104 19.5 74.1V76.7H58.5V74.1C58.5 73.4104 58.2261 72.7491 57.7385 72.2615C57.2509 71.7739 56.5896 71.5 55.9 71.5H22.1Z" fill="#B3B3FB"/>
<path d="M27.2999 48.1H76.6999V6.5C76.6999 29.4944 54.5999 48.1 27.2999 48.1Z" fill="#AAABFF"/>
<path d="M49.0749 63.6999L48.0999 61.0999H29.8999L28.9249 63.6999H49.0749Z" fill="#B3B3FB"/>
<path d="M71.5 0H6.5C4.77673 0.00206421 3.12462 0.687547 1.90609 1.90609C0.687547 3.12462 0.00206421 4.77673 0 6.5V55.9C0.00206421 57.6233 0.687547 59.2754 1.90609 60.4939C3.12462 61.7124 4.77673 62.3979 6.5 62.4H28.0241L25.0991 70.2H22.1C21.0657 70.2 20.0737 70.6109 19.3423 71.3423C18.6109 72.0737 18.2 73.0657 18.2 74.1V76.7C18.2 77.0448 18.337 77.3754 18.5808 77.6192C18.8246 77.863 19.1552 78 19.5 78H58.5C58.8448 78 59.1754 77.863 59.4192 77.6192C59.663 77.3754 59.8 77.0448 59.8 76.7V74.1C59.8 73.0657 59.3891 72.0737 58.6577 71.3423C57.9263 70.6109 56.9343 70.2 55.9 70.2H52.9009L49.9759 62.4H71.5C73.2233 62.3979 74.8754 61.7124 76.0939 60.4939C77.3124 59.2754 77.9979 57.6233 78 55.9V6.5C77.9979 4.77673 77.3124 3.12462 76.0939 1.90609C74.8754 0.687547 73.2233 0.00206421 71.5 0ZM6.5 2.6H71.5C72.5343 2.6 73.5263 3.01089 74.2577 3.74228C74.9891 4.47368 75.4 5.46566 75.4 6.5V46.8H2.6V6.5C2.6 5.46566 3.01089 4.47368 3.74228 3.74228C4.47368 3.01089 5.46566 2.6 6.5 2.6ZM57.2 74.1V75.4H20.8V74.1C20.8 73.7552 20.937 73.4246 21.1808 73.1808C21.4246 72.937 21.7552 72.8 22.1 72.8H55.9C56.2448 72.8 56.5754 72.937 56.8192 73.1808C57.063 73.4246 57.2 73.7552 57.2 74.1ZM50.1241 70.2H27.8759L30.8009 62.4H47.1991L50.1241 70.2ZM71.5 59.8H6.5C5.46566 59.8 4.47368 59.3891 3.74228 58.6577C3.01089 57.9263 2.6 56.9343 2.6 55.9V49.4H75.4V55.9C75.4 56.9343 74.9891 57.9263 74.2577 58.6577C73.5263 59.3891 72.5343 59.8 71.5 59.8Z" fill="#231F20"/>
<path d="M39 50.7C38.2286 50.7 37.4746 50.9287 36.8333 51.3573C36.1919 51.7858 35.692 52.3949 35.3968 53.1075C35.1017 53.8202 35.0244 54.6043 35.1749 55.3609C35.3254 56.1174 35.6968 56.8123 36.2423 57.3577C36.7877 57.9032 37.4826 58.2746 38.2391 58.4251C38.9957 58.5756 39.7798 58.4983 40.4924 58.2031C41.2051 57.908 41.8142 57.4081 42.2427 56.7667C42.6712 56.1254 42.9 55.3714 42.9 54.6C42.9 53.5657 42.4891 52.5737 41.7577 51.8423C41.0263 51.1109 40.0343 50.7 39 50.7ZM39 55.9C38.7429 55.9 38.4915 55.8238 38.2777 55.6809C38.064 55.5381 37.8973 55.335 37.7989 55.0975C37.7005 54.86 37.6748 54.5986 37.725 54.3464C37.7751 54.0942 37.8989 53.8626 38.0807 53.6808C38.2625 53.499 38.4942 53.3752 38.7464 53.325C38.9985 53.2748 39.2599 53.3006 39.4975 53.399C39.735 53.4974 39.938 53.664 40.0809 53.8778C40.2237 54.0916 40.3 54.3429 40.3 54.6C40.3 54.9448 40.163 55.2755 39.9192 55.5193C39.6754 55.763 39.3448 55.9 39 55.9Z" fill="#231F20"/>
<path d="M45.6077 32.6412L39.8619 22.9852L45.6077 13.3292L48.3776 22.9852L45.6077 32.6412ZM32.8196 31.699L25.6003 24.5454H37.092L42.8378 34.2014L32.8196 31.699ZM32.8196 14.2419L42.8086 11.7395L37.0627 21.3955H25.571L32.8196 14.2419ZM47.4937 7L34.44 10.3856L32.4953 13.712L28.5765 13.6825L19 22.9852L28.5765 32.288L32.4953 32.2584L34.44 35.5849L47.4937 39L51 26.3117L49.0257 23.0148L51 19.7175L47.4937 7Z" fill="#110B09"/>
</svg>
