<svg width="92" height="92" viewBox="0 0 92 92" fill="none" xmlns="http://www.w3.org/2000/svg">
<path d="M1.48431 1.48389H48.9682V51.9355H1.48431V1.48389Z" fill="#CDCEFF"/>
<path d="M43.0322 40.0645H90.5161V90.5161H43.0322V40.0645Z" fill="#CDCEFF"/>
<path d="M37.0968 15.3432C37.0968 18.771 35.4942 21.991 32.7639 24.0684L32.6303 24.1723H32.6155C32.6452 24.0387 32.6452 23.8903 32.6452 23.742V18.8749C32.6452 18.2368 32.2297 17.6729 31.6361 17.4652C29.3658 16.7084 27.3181 15.4471 25.6265 13.7555L25.2258 13.3549L24.8252 13.7555C23.1336 15.4471 21.0858 16.7084 18.8155 17.4652C18.222 17.6729 17.8065 18.2368 17.8065 18.8749V23.742C17.8065 23.8903 17.8065 24.0387 17.8361 24.1723H17.8213L17.6878 24.0684C16.3226 23.0297 15.2394 21.7091 14.4974 20.2103C13.7555 18.7265 13.3549 17.0645 13.3549 15.3432C13.3549 13.3549 14.1116 11.4258 15.4471 9.97163C16.9607 8.33937 19.0678 7.41937 21.2787 7.41937H29.1729C31.3839 7.41937 33.491 8.33937 35.0045 9.97163C36.34 11.4258 37.0968 13.3549 37.0968 15.3432Z" fill="#B27946"/>
<path d="M40.0645 42.32V51.9355H10.3871V42.32C10.3871 40.851 10.8174 39.4116 11.6335 38.18C12.7316 36.5329 14.4381 35.3903 16.3819 35.0045L20.7742 34.129L20.9374 34.4406C21.7387 36.0729 23.4006 37.0968 25.2258 37.0968C27.051 37.0968 28.7129 36.0729 29.5142 34.4406L29.6774 34.129L34.0697 35.0045C36.0135 35.3903 37.72 36.5329 38.8181 38.18C39.6342 39.4116 40.0645 40.851 40.0645 42.32Z" fill="#8586EE"/>
<path d="M59.2361 62.649C56.5058 60.5716 54.9032 57.3516 54.9032 53.9239C54.9032 51.9355 55.66 50.0065 56.9955 48.5523C58.509 46.92 60.6161 46 62.8271 46H75.6774C77.3097 46 78.6451 47.3355 78.6451 48.9677C78.6451 51.431 77.6509 53.6568 76.0335 55.2594C75.4845 55.8084 74.8761 56.2832 74.1935 56.6839C72.8877 57.4406 71.3742 57.871 69.7419 57.871H69.3561C68.629 57.871 67.9167 57.7077 67.2787 57.3813C66.0619 56.7729 65.2903 55.5265 65.2903 54.1613C65.2903 54.1168 65.2903 54.0574 65.3051 54.0129H65.2903L62.1593 55.2742C60.4677 55.9419 59.3548 57.5742 59.3548 59.3994V62.3226C59.3548 62.471 59.3548 62.6194 59.3845 62.7529H59.3696L59.2361 62.649Z" fill="#B27946"/>
<path d="M81.6129 80.9006V90.5161H46.9941C51.3567 90.5161 54.9032 86.9697 54.9032 82.6071V74.9503C55.7935 74.2826 56.8174 73.8077 57.9303 73.5851L62.3225 72.7097L62.4858 73.0213C63.287 74.6535 64.949 75.6774 66.7741 75.6774C68.5993 75.6774 70.2612 74.6535 71.0625 73.0213L71.2258 72.7097L75.618 73.5851C77.5619 73.9709 79.2683 75.1135 80.3664 76.7606C81.1825 77.9922 81.6129 79.4316 81.6129 80.9006Z" fill="#7373E0"/>
<path d="M21.5458 30.1819L25.2258 31.1613C26.5613 31.1613 27.8226 30.8052 28.9058 30.1819L29.6774 34.129L29.5142 34.4407C28.7129 36.0729 27.0509 37.0968 25.2258 37.0968C23.4006 37.0968 21.7387 36.0729 20.9374 34.4407L20.7742 34.129L21.5458 30.1819Z" fill="#F0D0B4"/>
<path d="M32.6452 18.8749V23.742C32.6452 23.8903 32.6452 24.0387 32.6155 24.1723C32.4819 26.7542 31.0277 28.9652 28.9058 30.182C27.8226 30.8052 26.5613 31.1613 25.2258 31.1613L21.5458 30.182C20.9671 29.8555 20.4329 29.4549 19.9729 28.9949C18.7265 27.7336 17.9252 26.0568 17.8361 24.1723C17.8065 24.0387 17.8065 23.8903 17.8065 23.742V18.8749C17.8065 18.2368 18.2219 17.6729 18.8155 17.4652C21.0858 16.7084 23.1336 15.4471 24.8252 13.7555L25.2258 13.3549L25.6265 13.7555C27.3181 15.4471 29.3658 16.7084 31.6361 17.4652C32.2297 17.6729 32.6452 18.2368 32.6452 18.8749Z" fill="#F0D0B4"/>
<path d="M63.0942 68.7626C64.1774 69.3858 65.4387 69.7419 66.7742 69.7419C68.1097 69.7419 69.371 69.3858 70.4542 68.7626L71.2258 72.7097L71.0626 73.0213C70.2613 74.6535 68.5993 75.6774 66.7742 75.6774C64.949 75.6774 63.2871 74.6535 62.4858 73.0213L62.3226 72.7097L63.0942 68.7626Z" fill="#F0D0B4"/>
<path d="M65.2903 54.1613C65.2903 55.5264 66.062 56.7729 67.2787 57.3813C67.9168 57.7077 68.6291 57.8709 69.3562 57.8709H69.742C71.3742 57.8709 72.8878 57.4406 74.1936 56.6838V62.3226C74.1936 64.3703 73.3626 66.2251 72.0271 67.5755C71.5671 68.0355 71.0329 68.4361 70.4542 68.7626C69.371 69.3858 68.1097 69.7419 66.7742 69.7419C65.4387 69.7419 64.1774 69.3858 63.0942 68.7626C60.9723 67.5458 59.5181 65.3348 59.3845 62.7529C59.3549 62.6193 59.3549 62.4709 59.3549 62.3226V59.3993C59.3549 57.5742 60.4678 55.9419 62.1594 55.2742L65.2903 54.0129H65.3052C65.2903 54.0574 65.2903 54.1167 65.2903 54.1613Z" fill="#F0D0B4"/>
<path d="M81.6129 4.4516H46C41.0884 4.4516 37.0968 8.44321 37.0968 13.3548V15.3432V26.22C37.0968 28.4013 37.9871 30.3748 39.4116 31.8142C40.851 33.2387 42.8245 34.129 45.0058 34.129C46.4155 34.129 47.7658 33.7581 48.9529 33.0606C49.8729 32.5413 50.6891 31.829 51.342 30.9684C52.6478 29.2174 54.6955 28.1935 56.8768 28.1935H70.7362C72.9174 28.1935 74.9652 29.2174 76.271 30.9684C77.7697 32.9568 80.1142 34.129 82.6071 34.129C86.9697 34.129 90.5162 30.5826 90.5162 26.22V13.3548C90.5162 8.44321 86.5245 4.4516 81.6129 4.4516Z" fill="#AAABFF"/>
<path d="M46 60.8387H10.3871C5.4755 60.8387 1.48389 64.8303 1.48389 69.7419V71.7303V82.6071C1.48389 84.7884 2.37421 86.7619 3.79873 88.2013C5.23808 89.6258 7.21163 90.5161 9.39292 90.5161C10.8026 90.5161 12.1529 90.1451 13.34 89.4477C14.26 88.9284 15.0761 88.2161 15.729 87.3555C17.0349 85.6045 19.0826 84.5806 21.2639 84.5806H35.1232C37.3045 84.5806 39.3523 85.6045 40.6581 87.3555C42.1568 89.3438 44.5013 90.5161 46.9942 90.5161C51.3568 90.5161 54.9032 86.9697 54.9032 82.6071V69.7419C54.9032 64.8303 50.9116 60.8387 46 60.8387Z" fill="#AAABFF"/>
<path d="M54.9032 14.8387V17.8064C54.9032 18.6226 54.2355 19.2903 53.4193 19.2903H51.9355V20.7742C51.9355 21.5903 51.2677 22.2581 50.4516 22.2581H47.4838C46.6677 22.2581 46 21.5903 46 20.7742V19.2903H44.5161C43.7 19.2903 43.0322 18.6226 43.0322 17.8064V14.8387C43.0322 14.0226 43.7 13.3548 44.5161 13.3548H46V11.871C46 11.0548 46.6677 10.3871 47.4838 10.3871H50.4516C51.2677 10.3871 51.9355 11.0548 51.9355 11.871V13.3548H53.4193C54.2355 13.3548 54.9032 14.0226 54.9032 14.8387Z" fill="#8586EE"/>
<path d="M60.8387 10.3871H66.7742V16.3226H60.8387V10.3871Z" fill="#CDCEFF"/>
<path d="M60.8387 4.4516H66.7742V10.3871H60.8387V4.4516Z" fill="#CDCEFF"/>
<path d="M25.2258 66.7742H31.1613V72.7097H25.2258V66.7742Z" fill="#CDCEFF"/>
<path d="M25.2258 60.8387H31.1613V66.7742H25.2258V60.8387Z" fill="#CDCEFF"/>
<path d="M19.2903 71.2258V74.1935C19.2903 75.0097 18.6226 75.6774 17.8065 75.6774H16.3226V77.1613C16.3226 77.9774 15.6549 78.6451 14.8387 78.6451H11.871C11.0549 78.6451 10.3871 77.9774 10.3871 77.1613V75.6774H8.90324C8.08711 75.6774 7.41937 75.0097 7.41937 74.1935V71.2258C7.41937 70.4097 8.08711 69.7419 8.90324 69.7419H10.3871V68.258C10.3871 67.4419 11.0549 66.7742 11.871 66.7742H14.8387C15.6549 66.7742 16.3226 67.4419 16.3226 68.258V69.7419H17.8065C18.6226 69.7419 19.2903 70.4097 19.2903 71.2258Z" fill="#8586EE"/>
<path d="M17.8065 68.2581C17.8065 66.6214 16.4754 65.2903 14.8387 65.2903H11.871C10.2343 65.2903 8.90323 66.6214 8.90323 68.2581C7.26652 68.2581 5.93549 69.5891 5.93549 71.2258V74.1936C5.93549 75.8303 7.26652 77.1613 8.90323 77.1613C8.90323 78.798 10.2343 80.1291 11.871 80.1291H14.8387C16.4754 80.1291 17.8065 78.798 17.8065 77.1613C19.4432 77.1613 20.7742 75.8303 20.7742 74.1936V71.2258C20.7742 69.5891 19.4432 68.2581 17.8065 68.2581ZM17.8065 74.1936H14.8387V77.1613H11.871V74.1936H8.90323V71.2258H11.871V68.2581H14.8387V71.2258L17.8065 71.2229V74.1936Z" fill="black"/>
<path d="M23.7419 77.1613H26.7097V80.1291H23.7419V77.1613Z" fill="black"/>
<path d="M29.6774 77.1613H32.6452V80.1291H29.6774V77.1613Z" fill="black"/>
<path d="M38.5806 77.1613H41.5484V80.1291H38.5806V77.1613Z" fill="black"/>
<path d="M44.5161 77.1613H47.4839V80.1291H44.5161V77.1613Z" fill="black"/>
<path d="M43.0323 68.2581C43.8518 68.2581 44.5161 67.5937 44.5161 66.7742C44.5161 65.9547 43.8518 65.2903 43.0323 65.2903C42.2128 65.2903 41.5484 65.9547 41.5484 66.7742C41.5484 67.5937 42.2128 68.2581 43.0323 68.2581Z" fill="black"/>
<path d="M43.0323 74.1936C43.8518 74.1936 44.5161 73.5292 44.5161 72.7097C44.5161 71.8902 43.8518 71.2258 43.0323 71.2258C42.2128 71.2258 41.5484 71.8902 41.5484 72.7097C41.5484 73.5292 42.2128 74.1936 43.0323 74.1936Z" fill="black"/>
<path d="M40.0645 71.2258C40.884 71.2258 41.5484 70.5614 41.5484 69.7419C41.5484 68.9224 40.884 68.2581 40.0645 68.2581C39.245 68.2581 38.5806 68.9224 38.5806 69.7419C38.5806 70.5614 39.245 71.2258 40.0645 71.2258Z" fill="black"/>
<path d="M46 71.2258C46.8195 71.2258 47.4839 70.5614 47.4839 69.7419C47.4839 68.9224 46.8195 68.2581 46 68.2581C45.1805 68.2581 44.5161 68.9224 44.5161 69.7419C44.5161 70.5614 45.1805 71.2258 46 71.2258Z" fill="black"/>
<path d="M53.4194 11.8709C53.4194 10.2342 52.0883 8.9032 50.4516 8.9032H47.4839C45.8472 8.9032 44.5161 10.2342 44.5161 11.8709C42.8794 11.8709 41.5484 13.202 41.5484 14.8387V17.8064C41.5484 19.4431 42.8794 20.7742 44.5161 20.7742C44.5161 22.4109 45.8472 23.7419 47.4839 23.7419H50.4516C52.0883 23.7419 53.4194 22.4109 53.4194 20.7742C55.0561 20.7742 56.3871 19.4431 56.3871 17.8064V14.8387C56.3871 13.202 55.0561 11.8709 53.4194 11.8709ZM53.4194 17.8064H50.4516V20.7742H47.4839V17.8064H44.5161V14.8387H47.4839V11.8709H50.4516V14.8387L53.4194 14.8357V17.8064Z" fill="black"/>
<path d="M52.5275 31.8543C53.5514 30.4906 55.1792 29.6774 56.8812 29.6774H70.7317C72.4337 29.6774 74.0615 30.4906 75.0854 31.8528C76.8482 34.2077 79.6601 35.6129 82.6026 35.6129C87.7843 35.6129 92 31.3972 92 26.2155V13.3548C92 7.62858 87.3392 2.96774 81.6129 2.96774H50.4516V0H0V53.4194H41.5484V59.3548H10.3871C4.66084 59.3548 0 64.0157 0 69.7419V82.6026C0 87.7843 4.21568 92 9.39736 92C12.3399 92 15.1518 90.5948 16.9146 88.2414C17.9385 86.8777 19.5663 86.0645 21.2683 86.0645H35.1188C36.8208 86.0645 38.4486 86.8777 39.4725 88.2399C41.2353 90.5948 44.0472 92 46.9897 92H92V38.5806H50.4516V33.856C51.2336 33.2995 51.9429 32.6348 52.5275 31.8543ZM89.0323 13.3548V26.2155C89.0323 29.762 86.1491 32.6452 82.6026 32.6452C80.589 32.6452 78.6659 31.6836 77.4581 30.0721C75.8777 27.9665 73.3626 26.7097 70.7317 26.7097H56.8812C54.2503 26.7097 51.7352 27.9665 50.1548 30.0736C48.947 31.6836 47.0239 32.6452 45.0103 32.6452C41.4638 32.6452 38.5806 29.762 38.5806 26.2155V13.3548C38.5806 9.26381 41.909 5.93548 46 5.93548H59.3548V17.8065H68.2581V5.93548H81.6129C85.7039 5.93548 89.0323 9.26381 89.0323 13.3548ZM32.1006 16.0614C30.0692 15.3833 28.195 14.2259 26.6815 12.7108L25.2258 11.2566L23.7716 12.7108C22.2566 14.2259 20.3839 15.3833 18.354 16.0599C17.1387 16.465 16.3226 17.5957 16.3226 18.8763V20.4136C15.3714 18.909 14.8387 17.1491 14.8387 15.3388C14.8387 13.7154 15.4441 12.1663 16.5437 10.9762C17.7605 9.65852 19.4847 8.90323 21.2743 8.90323H29.1774C30.9669 8.90323 32.6912 9.65852 33.9079 10.9747C35.0075 12.1663 35.6129 13.7154 35.6129 15.3403C35.6129 17.1491 35.0802 18.9105 34.129 20.4136V18.8763C34.129 17.5957 33.3129 16.465 32.1006 16.0614ZM38.5806 50.4516H11.871V42.323C11.871 41.1388 12.2182 39.9933 12.8755 39.0065C13.7599 37.6785 15.1103 36.7748 16.6787 36.4617L20.0115 35.7954C21.1674 37.5286 23.0994 38.5806 25.2258 38.5806C27.3522 38.5806 29.2842 37.5286 30.4416 35.7954L33.7744 36.4617C35.3428 36.7748 36.6932 37.6785 37.5775 39.008C38.2334 39.9933 38.5806 41.1403 38.5806 42.323V50.4516ZM28.1194 33.8872C27.5347 34.9496 26.4455 35.6129 25.2258 35.6129C24.0061 35.6129 22.9169 34.9496 22.3323 33.8872L22.6468 32.2608C23.4645 32.5086 24.3295 32.6452 25.2258 32.6452C26.1221 32.6452 26.9872 32.5086 27.8033 32.2608L28.1194 33.8872ZM25.2258 29.6774C21.9524 29.6774 19.2903 27.0154 19.2903 23.7419V18.8763C21.4761 18.1492 23.5119 16.9606 25.2258 15.4204C26.9397 16.9606 28.9755 18.1477 31.1613 18.8763V23.7419C31.1613 27.0154 28.4992 29.6774 25.2258 29.6774ZM62.3226 11.871H65.2903V14.8387H62.3226V11.871ZM65.2903 8.90323H62.3226V5.93548H65.2903V8.90323ZM2.96774 2.96774H46C41.6805 2.96774 37.9708 5.61942 36.4068 9.37955C36.294 9.24303 36.2065 9.09168 36.0863 8.9611C34.3116 7.038 31.7934 5.93548 29.1774 5.93548H21.2743C18.6582 5.93548 16.1401 7.038 14.3654 8.9611C12.7568 10.7032 11.871 12.9661 11.871 15.3388C11.871 19.0395 13.567 22.5786 16.4116 24.9275C16.7366 27.3463 18.032 29.4563 19.8972 30.8571L19.507 32.8692L16.0955 33.5518C13.751 34.0207 11.73 35.374 10.4064 37.3609C9.42406 38.8374 8.90323 40.5527 8.90323 42.323V50.4516H2.96774V2.96774ZM26.7097 68.2581H29.6774V71.2258H26.7097V68.2581ZM29.6774 65.2903H26.7097V62.3226H29.6774V65.2903ZM41.8452 86.4592C40.2648 84.3536 37.7497 83.0968 35.1188 83.0968H21.2683C18.6374 83.0968 16.1223 84.3536 14.5419 86.4607C13.3341 88.0707 11.411 89.0323 9.39736 89.0323C5.8509 89.0323 2.96774 86.1491 2.96774 82.6026V69.7419C2.96774 65.6509 6.29606 62.3226 10.3871 62.3226H23.7419V74.1936H32.6452V62.3226H46C50.091 62.3226 53.4194 65.6509 53.4194 69.7419V82.6026C53.4194 86.1491 50.5362 89.0323 46.9897 89.0323C44.9761 89.0323 43.053 88.0707 41.8452 86.4592ZM56.3871 82.6026V75.7843C56.9614 75.4474 57.5742 75.1729 58.2256 75.0423L61.5584 74.3761C62.7158 76.1092 64.6478 77.1613 66.7742 77.1613C68.9006 77.1613 70.8326 76.1092 71.99 74.3761L75.3228 75.0423C76.8912 75.3554 78.2416 76.2591 79.1259 77.5886C79.7818 78.5739 80.129 79.721 80.129 80.9036V89.0323H53.8245C55.4092 87.3495 56.3871 85.0911 56.3871 82.6026ZM57.8977 59.0417C56.9287 57.5267 56.3871 55.7476 56.3871 53.9194C56.3871 52.2961 56.9925 50.7469 58.0921 49.5568C59.3088 48.2392 61.0331 47.4839 62.8226 47.4839H75.6774C76.4965 47.4839 77.1613 48.1486 77.1613 48.9677C77.1613 53.0588 73.833 56.3871 69.7419 56.3871H69.3502C68.8635 56.3871 68.3783 56.2728 67.945 56.0547C67.2238 55.6941 66.7742 54.9685 66.7742 54.1613C66.7742 53.3541 67.2238 52.6285 67.945 52.2679L68.9214 51.7797L67.5933 49.125L66.6169 49.6132C65.2562 50.2928 64.3095 51.517 63.9608 52.9475L61.6014 53.8912C59.4498 54.7504 58.0357 56.7506 57.8977 59.0417ZM60.8387 59.4008C60.8387 58.1811 61.5703 57.0979 62.7039 56.6468L64.1789 56.0577C64.6315 57.1899 65.4788 58.141 66.6169 58.7094C67.4597 59.1323 68.405 59.3548 69.3502 59.3548H69.7419C70.7732 59.3548 71.7689 59.199 72.7097 58.9171V62.3211C72.7097 65.5945 70.0476 68.2581 66.7742 68.2581C63.5008 68.2581 60.8387 65.596 60.8387 62.3226V59.4008ZM66.7742 71.2258C67.6705 71.2258 68.5355 71.0893 69.3517 70.8415L69.6663 72.4678C69.0831 73.5303 67.9939 74.1936 66.7742 74.1936C65.5545 74.1936 64.4653 73.5303 63.8806 72.4678L64.1952 70.8415C65.0128 71.0893 65.8779 71.2258 66.7742 71.2258ZM89.0323 41.5484V89.0323H83.0968V80.9036C83.0968 79.1334 82.5759 77.4165 81.5936 75.943C80.27 73.9532 78.249 72.6014 75.9044 72.1325L72.493 71.4499L72.1028 69.4377C74.2677 67.8114 75.6774 65.231 75.6774 62.3211V57.4792C78.3647 55.5992 80.129 52.4875 80.129 48.9677C80.129 46.5134 78.1317 44.5161 75.6774 44.5161H62.8226C60.2066 44.5161 57.6885 45.6186 55.9137 47.5417C54.3052 49.2838 53.4194 51.5467 53.4194 53.9194C53.4194 57.6202 55.1154 61.1592 57.96 63.5082C58.285 65.9269 59.5804 68.037 61.4456 69.4377L61.0554 71.4499L57.6454 72.1325C57.2181 72.217 56.7996 72.3461 56.3871 72.4945V69.7419C56.3871 64.0157 51.7263 59.3548 46 59.3548H44.5161V53.4194H50.4516V41.5484H89.0323ZM47.4839 50.4516H41.5484V42.323C41.5484 40.5527 41.0275 38.8359 40.0452 37.3624C38.7216 35.3725 36.7006 34.0207 34.3561 33.5518L30.9446 32.8692L30.5544 30.8571C32.4196 29.4563 33.7165 27.3463 34.04 24.9275C34.6098 24.4572 35.1395 23.9452 35.6129 23.3858V26.2155C35.6129 31.3972 39.8286 35.6129 45.0103 35.6129C45.8546 35.6129 46.6826 35.4853 47.4839 35.2642V50.4516Z" fill="black"/>
<path d="M59.3549 20.7742H62.3226V23.7419H59.3549V20.7742Z" fill="black"/>
<path d="M65.2903 20.7742H68.2581V23.7419H65.2903V20.7742Z" fill="black"/>
<path d="M74.1935 20.7742H77.1613V23.7419H74.1935V20.7742Z" fill="black"/>
<path d="M80.129 20.7742H83.0968V23.7419H80.129V20.7742Z" fill="black"/>
<path d="M78.6452 11.8709C79.4647 11.8709 80.1291 11.2066 80.1291 10.3871C80.1291 9.56755 79.4647 8.9032 78.6452 8.9032C77.8257 8.9032 77.1613 9.56755 77.1613 10.3871C77.1613 11.2066 77.8257 11.8709 78.6452 11.8709Z" fill="black"/>
<path d="M78.6452 17.8064C79.4647 17.8064 80.1291 17.1421 80.1291 16.3226C80.1291 15.503 79.4647 14.8387 78.6452 14.8387C77.8257 14.8387 77.1613 15.503 77.1613 16.3226C77.1613 17.1421 77.8257 17.8064 78.6452 17.8064Z" fill="black"/>
<path d="M75.6774 14.8387C76.4969 14.8387 77.1613 14.1744 77.1613 13.3548C77.1613 12.5353 76.4969 11.871 75.6774 11.871C74.8579 11.871 74.1935 12.5353 74.1935 13.3548C74.1935 14.1744 74.8579 14.8387 75.6774 14.8387Z" fill="black"/>
<path d="M81.6129 14.8387C82.4324 14.8387 83.0968 14.1744 83.0968 13.3548C83.0968 12.5353 82.4324 11.871 81.6129 11.871C80.7934 11.871 80.129 12.5353 80.129 13.3548C80.129 14.1744 80.7934 14.8387 81.6129 14.8387Z" fill="black"/>
</svg>
