<svg width="68" height="68" viewBox="0 0 68 68" fill="none" xmlns="http://www.w3.org/2000/svg">
<path fill-rule="evenodd" clip-rule="evenodd" d="M34 0.996094C15.7724 0.996094 0.996094 15.7724 0.996094 34L4.98047 36.8336L8.96484 34C8.96484 20.1734 20.1734 8.96484 34 8.96484C47.8266 8.96484 59.0352 20.1734 59.0352 34C59.0352 47.8266 47.8266 59.0352 34 59.0352L36.8337 63.0195L34 67.0039C52.2276 67.0039 67.0039 52.2276 67.0039 34C67.0039 15.7724 52.2276 0.996094 34 0.996094Z" fill="#8586EE"/>
<path d="M34.4738 36.9634C36.1027 36.6977 37.2078 35.1618 36.9421 33.5329C36.6764 31.9039 35.1405 30.7988 33.5116 31.0645C31.8826 31.3303 30.7775 32.8662 31.0432 34.4951C31.309 36.124 32.8449 37.2291 34.4738 36.9634Z" fill="#302C8C"/>
<path fill-rule="evenodd" clip-rule="evenodd" d="M31.0117 34.0001C31.0117 36.0766 33.0727 37.4978 34.9961 36.8181C32.356 35.8848 32.356 32.1153 34.9961 31.182C33.0728 30.5022 31.0117 31.9238 31.0117 34.0001Z" fill="#8586EE"/>
<path fill-rule="evenodd" clip-rule="evenodd" d="M59.0352 34C59.0352 47.8266 47.8266 59.0352 34 59.0352L36.7426 62.8916C51.4835 61.5097 63.0196 49.1021 63.0196 34C63.0196 17.973 50.027 4.98047 34 4.98047C16.8546 4.98047 3.51331 19.7333 5.10839 36.7427L8.96486 34C8.96486 20.1734 20.1734 8.96484 34 8.96484C47.8266 8.96484 59.0352 20.1734 59.0352 34Z" fill="#8586EE"/>
<path d="M64.0156 37.9844H62.0234V35.9922H64.0156V37.9844ZM64.0156 34H62.0234C62.0234 18.5478 49.4522 5.97656 34 5.97656V3.98438C42.0175 3.98438 49.555 7.10653 55.2242 12.7758C60.8935 18.445 64.0156 25.9826 64.0156 34Z" fill="white"/>
<path d="M9.96094 34.5139V34C9.96094 20.7448 20.7448 9.96094 34 9.96094C47.2552 9.96094 58.0391 20.7448 58.0391 34C58.0391 40.0634 55.7735 45.8548 51.6599 50.3074L53.1233 51.6594C57.5779 46.8375 60.0312 40.566 60.0312 34C60.0312 19.6464 48.3537 7.96875 34 7.96875C19.8189 7.96875 8.25005 19.3662 7.9738 33.4826L4.98047 35.6114L1.99617 33.4891C2.12195 25.4883 5.19987 17.897 10.6954 12.0616L9.24521 10.6958C3.28339 17.026 0 25.3024 0 34V34.5139L4.98047 38.056L9.96094 34.5139Z" fill="black"/>
<path d="M58.0416 9.95828C51.6199 3.53666 43.0817 0 34 0C25.3028 0 17.0266 3.28339 10.6958 9.24521L12.0616 10.6955C18.0212 5.083 25.8125 1.99219 34 1.99219C51.6492 1.99219 66.0078 16.3508 66.0078 34C66.0078 50.9866 52.7073 64.9253 35.9735 65.9476L38.056 63.0195L35.8828 59.9638C41.758 59.5416 47.3009 57.1501 51.6593 53.1233L50.3074 51.6599C45.8553 55.7735 40.0638 58.0391 34 58.0391H32.0693L35.6113 63.0195L32.0693 68H34C43.0817 68 51.6199 64.4633 58.0416 58.0417C64.4633 51.6198 68 43.0817 68 34C68 24.9183 64.4633 16.3802 58.0416 9.95828Z" fill="black"/>
<path d="M19.2863 51.4581H14.1255V45.3882H12.1333V53.4503H19.2863V59.5201H21.2785V45.3882H19.2863V51.4581Z" fill="black"/>
<path d="M0.996094 47.3804H8.14911V51.4581H0.996094V59.5202H10.1413V57.528H2.98828V53.4503H10.1413V45.3882H0.996094V47.3804Z" fill="black"/>
<path d="M27.1616 48.4232H25.2629V45.3882H23.2708V53.4503H25.2629V50.4154H27.1616V53.4503H29.1538V45.3882H27.1616V48.4232Z" fill="black"/>
<path d="M37.9844 34C37.9844 33.2621 37.782 32.5709 37.431 31.9776L46.3226 23.086L44.914 21.6772L36.0222 30.5689C35.4291 30.2179 34.7379 30.0156 34 30.0156C33.2621 30.0156 32.571 30.2179 31.9778 30.5689L26.8268 25.418L25.4182 26.8268L30.5691 31.9776C30.2179 32.5709 30.0156 33.2621 30.0156 34C30.0156 36.197 31.803 37.9844 34 37.9844C36.197 37.9844 37.9844 36.197 37.9844 34ZM32.0078 34C32.0078 32.9015 32.9015 32.0078 34 32.0078C35.0985 32.0078 35.9922 32.9015 35.9922 34C35.9922 35.0985 35.0985 35.9922 34 35.9922C32.9015 35.9922 32.0078 35.0985 32.0078 34Z" fill="black"/>
<path d="M47.4685 19.1157L48.8769 17.7073L50.2854 19.1158L48.877 20.5242L47.4685 19.1157Z" fill="black"/>
<path d="M47.4664 48.8884L48.8749 47.48L50.2833 48.8883L48.8748 50.2968L47.4664 48.8884Z" fill="black"/>
<path d="M54.0547 33.0039H56.0469V34.9961H54.0547V33.0039Z" fill="black"/>
<path d="M17.7023 19.1149L19.1107 17.7064L20.5191 19.1148L19.1107 20.5233L17.7023 19.1149Z" fill="black"/>
<path d="M33.0039 54.0547H34.9961V56.0469H33.0039V54.0547Z" fill="black"/>
<path d="M33.0039 11.9531H34.9961V13.9453H33.0039V11.9531Z" fill="black"/>
<path d="M11.9531 33.0039H13.9453V34.9961H11.9531V33.0039Z" fill="black"/>
</svg>
