<svg width="82" height="82" viewBox="0 0 82 82" fill="none" xmlns="http://www.w3.org/2000/svg">
<rect width="82" height="82" fill="white"/>
<path d="M66.4062 30.7383C66.4062 37.0131 63.8744 45.6003 59.7254 52.9441C57.2275 57.3653 51.7812 63.0435 51.7812 68.1133H40.8125V7.17578C54.9476 7.17578 66.4062 17.3825 66.4062 30.7383Z" fill="#DBE6FD"/>
<path d="M40.8125 27.8945H51.7812V42.5195H40.8125V27.8945Z" fill="#8586EE"/>
<path d="M15.2188 30.7383C15.2188 37.0131 17.7506 45.6003 21.8996 52.9441C24.3975 57.3653 29.8438 63.0435 29.8438 68.1133H40.8125V7.17578C26.6774 7.17578 15.2188 17.3825 15.2188 30.7383Z" fill="#8586EE"/>
<path d="M50.8598 72.9882H30.7653C30.1188 72.9882 29.4988 72.7314 29.0417 72.2743C28.5846 71.8172 28.3278 71.1972 28.3278 70.5507V70.4652C28.3314 70.1539 28.3982 69.8467 28.5242 69.562C28.6501 69.2774 28.8326 69.0213 29.0606 68.8094C29.2885 68.5974 29.5572 68.434 29.8502 68.329C30.1433 68.2241 30.4546 68.1797 30.7653 68.1987H50.8598C51.1705 68.1797 51.4818 68.2241 51.7748 68.329C52.0678 68.434 52.3365 68.5974 52.5644 68.8094C52.7924 69.0213 52.9749 69.2774 53.1009 69.562C53.2268 69.8467 53.2937 70.1539 53.2973 70.4652V70.5507C53.2973 71.1972 53.0405 71.8172 52.5833 72.2743C52.1262 72.7314 51.5062 72.9882 50.8598 72.9882Z" fill="#5358A1"/>
<path d="M51.1719 72.9883H30.4531C29.1069 72.9883 28.0156 74.0796 28.0156 75.4258V75.5113C28.0156 76.8575 29.1069 77.9488 30.4531 77.9488H51.1719C52.5181 77.9488 53.6094 76.8575 53.6094 75.5113V75.4258C53.6094 74.0796 52.5181 72.9883 51.1719 72.9883Z" fill="#5358A1"/>
<path d="M38.7341 18.2836L38.1994 20.8281C37.4103 20.9719 36.6344 21.1809 35.8799 21.4531L34.1332 19.5035C32.8597 20.0524 31.6579 20.7549 30.5548 21.5954L31.3627 24.0552C30.7499 24.575 30.1809 25.1441 29.6611 25.7568L27.2012 24.9488C26.3607 26.052 25.6581 27.2537 25.1092 28.5274L27.0587 30.2741C26.7865 31.0287 26.5774 31.8045 26.4336 32.5937L23.889 33.1285C23.7037 34.5079 23.7037 35.906 23.889 37.2854L26.4336 37.8201C26.5773 38.6093 26.7863 39.3851 27.0586 40.1396L25.109 41.8863C25.6579 43.1598 26.3604 44.3616 27.2009 45.4647L29.6607 44.6569C30.1804 45.2696 30.7496 45.8387 31.3623 46.3584L30.5543 48.8183C31.6575 49.6589 32.8593 50.3615 34.1329 50.9104L35.8797 48.9608C36.6342 49.2331 37.4101 49.4422 38.1992 49.586L38.7341 52.1305C39.4234 52.2189 40.1175 52.2653 40.8125 52.2695V18.1445C40.1175 18.1487 39.4235 18.1952 38.7341 18.2836Z" fill="#302C8C"/>
<path d="M40.8125 44.957C38.2266 44.957 35.7467 43.9298 33.9182 42.1013C32.0897 40.2728 31.0625 37.7929 31.0625 35.207C31.0625 32.6212 32.0897 30.1412 33.9182 28.3127C35.7467 26.4843 38.2266 25.457 40.8125 25.457" fill="white"/>
<path d="M48.125 19.3633C49.4712 19.3633 50.5625 18.272 50.5625 16.9258C50.5625 15.5796 49.4712 14.4883 48.125 14.4883C46.7788 14.4883 45.6875 15.5796 45.6875 16.9258C45.6875 18.272 46.7788 19.3633 48.125 19.3633Z" fill="#8586EE"/>
<path d="M57.875 25.457C59.2212 25.457 60.3125 24.3657 60.3125 23.0195C60.3125 21.6733 59.2212 20.582 57.875 20.582C56.5288 20.582 55.4375 21.6733 55.4375 23.0195C55.4375 24.3657 56.5288 25.457 57.875 25.457Z" fill="#8586EE"/>
<path d="M63.9688 41.3008C65.3149 41.3008 66.4062 40.2095 66.4062 38.8633C66.4062 37.5171 65.3149 36.4258 63.9688 36.4258C62.6226 36.4258 61.5312 37.5171 61.5312 38.8633C61.5312 40.2095 62.6226 41.3008 63.9688 41.3008Z" fill="#8586EE"/>
<path d="M50.5625 55.9258C51.9087 55.9258 53 54.8345 53 53.4883C53 52.1421 51.9087 51.0508 50.5625 51.0508C49.2163 51.0508 48.125 52.1421 48.125 53.4883C48.125 54.8345 49.2163 55.9258 50.5625 55.9258Z" fill="#8586EE"/>
<path d="M53.6939 64.9879L51.4279 64.0905C51.7562 63.2735 52.1364 62.4785 52.5663 61.7101L54.7003 62.8884C54.3205 63.5661 53.9843 64.2673 53.6939 64.9879Z" fill="black"/>
<path d="M55.9397 60.8353L53.8938 59.5118C54.3508 58.8049 54.8287 58.105 55.3077 57.4171L57.3084 58.8096C56.8449 59.4761 56.3825 60.1522 55.9397 60.8353Z" fill="black"/>
<path d="M58.7325 56.7719L56.7306 55.3818C57.2108 54.6891 57.669 54.0143 58.0803 53.3621L60.1428 54.6594C59.7138 55.3425 59.2354 56.0483 58.7325 56.7719Z" fill="black"/>
<path d="M61.4212 52.4313L59.2717 51.2816C59.6526 50.5687 60.0178 49.8462 60.3673 49.1143L62.5668 50.164C62.202 50.9281 61.8201 51.6839 61.4212 52.4313Z" fill="black"/>
<path d="M63.6104 47.8527L61.3669 46.8982C61.6859 46.1496 61.9876 45.395 62.2709 44.6416L64.5525 45.4985C64.2573 46.2852 63.9433 47.07 63.6104 47.8527Z" fill="black"/>
<path d="M67.5221 33.1303L65.0929 32.9256C65.156 32.1829 65.1875 31.4605 65.1875 30.7809L65.1863 30.5571L67.6238 30.5381L67.625 30.7809C67.625 31.5295 67.5905 32.3198 67.5221 33.1303Z" fill="black"/>
<path d="M65.0357 28.2146C64.9434 27.4376 64.808 26.6664 64.6299 25.9045L67.0031 25.3499C67.2018 26.1997 67.3532 27.06 67.4566 27.9266L65.0357 28.2146Z" fill="black"/>
<path d="M63.9694 23.655C63.7063 22.9175 63.4027 22.1952 63.0601 21.4912L65.2512 20.4248C65.6338 21.2099 65.9724 22.0157 66.2652 22.8385L63.9694 23.655Z" fill="black"/>
<path d="M61.9168 19.4442C61.4968 18.7818 61.0419 18.1422 60.5541 17.528L62.4631 16.0117C63.0051 16.6945 63.5105 17.4057 63.9771 18.1421L61.9168 19.4442Z" fill="black"/>
<path d="M58.9944 15.7642C58.443 15.2037 57.8632 14.6718 57.2573 14.1706L58.8105 12.2925C59.4807 12.8469 60.122 13.4352 60.7321 14.0551L58.9944 15.7642Z" fill="black"/>
<path d="M55.3643 12.7554C54.7169 12.3198 54.0355 11.908 53.3392 11.5319L54.4985 9.38721C55.2638 9.8014 56.0124 10.2537 56.7247 10.7321L55.3643 12.7554Z" fill="black"/>
<path d="M51.204 10.5083C50.4893 10.2048 49.7425 9.92866 48.9832 9.68823L49.7211 7.36499C50.5524 7.62922 51.3725 7.93153 52.1574 8.26596L51.204 10.5083Z" fill="black"/>
<path d="M46.6908 9.07284C45.9255 8.90264 45.1388 8.76577 44.3527 8.66456L44.6645 6.24609C45.5226 6.35797 46.3819 6.50794 47.218 6.69242L46.6908 9.07284Z" fill="black"/>
<path d="M63.9688 35.2071C63.2151 35.2095 62.4806 35.445 61.8662 35.8814C61.2518 36.3179 60.7875 36.9338 60.5371 37.6446H53V32.7696H57.875C58.0351 32.7697 58.1936 32.7382 58.3414 32.677C58.4893 32.6157 58.6237 32.526 58.7369 32.4128C58.8501 32.2996 58.9398 32.1652 59.0011 32.0173C59.0623 31.8695 59.0938 31.711 59.0938 31.5509V26.4513C59.907 26.1638 60.5924 25.5981 61.0288 24.8542C61.4653 24.1102 61.6247 23.2359 61.4789 22.3858C61.333 21.5357 60.8914 20.7645 60.2319 20.2086C59.5725 19.6526 58.7377 19.3476 57.8752 19.3476C57.0127 19.3476 56.1779 19.6525 55.5184 20.2084C54.859 20.7643 54.4173 21.5355 54.2714 22.3856C54.1255 23.2357 54.2849 24.11 54.7213 24.854C55.1577 25.598 55.8431 26.1637 56.6562 26.4512V30.3321H53V27.8946C53 27.7346 52.9685 27.5761 52.9073 27.4282C52.8461 27.2803 52.7563 27.1459 52.6431 27.0328C52.5299 26.9196 52.3956 26.8298 52.2477 26.7686C52.0998 26.7074 51.9413 26.6759 51.7812 26.6759H49.3438V20.3576C50.157 20.0701 50.8424 19.5044 51.2788 18.7604C51.7153 18.0165 51.8747 17.1422 51.7289 16.2921C51.583 15.442 51.1414 14.6708 50.4819 14.1148C49.8225 13.5588 48.9877 13.2539 48.1252 13.2539C47.2627 13.2538 46.4279 13.5587 45.7684 14.1147C45.109 14.6706 44.6673 15.4418 44.5214 16.2919C44.3755 17.142 44.5349 18.0163 44.9713 18.7602C45.4077 19.5042 46.0931 20.07 46.9062 20.3575V26.6759H42.0312V7.21875C42.0313 7.05869 41.9998 6.90019 41.9386 6.7523C41.8773 6.60442 41.7876 6.47005 41.6744 6.35687C41.5612 6.24369 41.4268 6.15392 41.2789 6.09268C41.1311 6.03145 40.9726 5.99996 40.8125 6C25.7775 6 14 16.8854 14 30.7808C14 37.3816 16.6202 46.1212 20.8388 53.5872C21.5964 54.9273 22.5848 56.3365 23.631 57.829C25.8431 60.9824 28.305 64.5284 28.5727 67.6153C28.1112 67.9415 27.7366 68.3756 27.4814 68.8798C27.2262 69.3841 27.0983 69.943 27.1087 70.508C27.1122 71.3321 27.3967 72.1303 27.9153 72.7707C27.5583 73.123 27.2753 73.5433 27.0832 74.0066C26.8911 74.47 26.7938 74.9671 26.7969 75.4688C26.7979 76.4381 27.1835 77.3675 27.8689 78.0529C28.5544 78.7384 29.4838 79.1239 30.4531 79.125H51.1719C51.6584 79.122 52.1395 79.0225 52.5874 78.8323C53.0352 78.6422 53.4409 78.365 53.7809 78.017C54.1209 77.669 54.3886 77.2571 54.5683 76.8049C54.7481 76.3528 54.8364 75.8695 54.8281 75.383C54.8277 74.8925 54.7282 74.407 54.5354 73.9559C54.3426 73.5048 54.0607 73.0973 53.7064 72.7579C54.2317 72.0928 54.5171 71.2698 54.5163 70.4223C54.5154 69.9503 54.4189 69.4834 54.2327 69.0497C54.0464 68.616 53.7742 68.2245 53.4326 67.8989C53.0909 67.5732 52.6868 67.3202 52.2447 67.1549C51.8026 66.9897 51.3315 66.9157 50.86 66.9375H42.0312V43.7384H44.4688V47.3946C44.4687 47.5547 44.5002 47.7132 44.5614 47.8611C44.6227 48.009 44.7124 48.1433 44.8256 48.2565C44.9388 48.3697 45.0732 48.4595 45.2211 48.5207C45.3689 48.5819 45.5274 48.6134 45.6875 48.6134H49.3438V50.0567C48.5306 50.3442 47.8452 50.9099 47.4088 51.6539C46.9724 52.3978 46.8131 53.2721 46.9589 54.1222C47.1048 54.9722 47.5464 55.7434 48.2059 56.2993C48.8653 56.8552 49.7 57.1601 50.5625 57.1601C51.425 57.1601 52.2597 56.8552 52.9191 56.2993C53.5786 55.7434 54.0202 54.9722 54.1661 54.1222C54.3119 53.2721 54.1526 52.3978 53.7162 51.6539C53.2798 50.9099 52.5944 50.3442 51.7812 50.0567V47.3946C51.7813 47.2346 51.7498 47.0761 51.6886 46.9282C51.6273 46.7803 51.5376 46.646 51.4244 46.5328C51.3112 46.4196 51.1768 46.3298 51.0289 46.2686C50.8811 46.2074 50.7226 46.1759 50.5625 46.1759H46.9062V43.7384H51.7812C51.9413 43.7384 52.0998 43.7069 52.2477 43.6457C52.3956 43.5845 52.5299 43.4947 52.6431 43.3815C52.7563 43.2683 52.8461 43.134 52.9073 42.9861C52.9685 42.8382 53 42.6797 53 42.5196V40.0821H60.5372C60.7617 40.7123 61.1552 41.2687 61.6746 41.6904C62.1939 42.1121 62.8192 42.3829 63.4821 42.4733C64.145 42.5637 64.82 42.4701 65.4333 42.2029C66.0466 41.9356 66.5746 41.5049 66.9597 40.9578C67.3448 40.4108 67.5721 39.7684 67.6168 39.1009C67.6615 38.4333 67.5219 37.7664 67.2132 37.1728C66.9045 36.5793 66.4386 36.082 65.8664 35.7354C65.2942 35.3887 64.6378 35.206 63.9688 35.2071ZM57.875 21.8009C58.116 21.8009 58.3517 21.8724 58.5521 22.0063C58.7525 22.1402 58.9087 22.3306 59.001 22.5533C59.0932 22.776 59.1174 23.021 59.0703 23.2574C59.0233 23.4938 58.9072 23.711 58.7368 23.8814C58.5663 24.0519 58.3492 24.168 58.1128 24.215C57.8764 24.262 57.6313 24.2379 57.4086 24.1456C57.1859 24.0534 56.9956 23.8972 56.8616 23.6968C56.7277 23.4963 56.6562 23.2607 56.6562 23.0196C56.6566 22.6965 56.7851 22.3867 57.0136 22.1582C57.2421 21.9297 57.5519 21.8012 57.875 21.8009ZM25.6269 56.4294C24.6152 54.9868 23.6601 53.6253 22.9609 52.3875C18.9982 45.3737 16.4375 36.8924 16.4375 30.7808C16.4375 18.6267 26.513 9.02663 39.5938 8.46368V16.9779C39.2702 17.0021 38.9401 17.0315 38.5869 17.0747C38.3345 17.1054 38.0981 17.2143 37.9107 17.3861C37.7233 17.5579 37.5943 17.7841 37.5419 18.0328L37.1705 19.7991C36.8647 19.8717 36.5596 19.9538 36.2553 20.0454L35.0407 18.691C34.871 18.5012 34.6461 18.3693 34.3976 18.314C34.149 18.2587 33.8894 18.2827 33.6553 18.3827C32.2913 18.9709 31.0038 19.7227 29.8211 20.6215C29.6181 20.7746 29.468 20.9874 29.3919 21.23C29.3158 21.4727 29.3175 21.7331 29.3968 21.9747L29.9562 23.6791C29.7259 23.8957 29.5016 24.1206 29.2843 24.3503L27.5817 23.7909C27.3401 23.7127 27.0801 23.7114 26.8377 23.7873C26.5952 23.8632 26.3824 24.0125 26.2285 24.2146C25.3286 25.3975 24.5762 26.6857 23.988 28.0506C23.8882 28.2848 23.8642 28.5443 23.9195 28.7928C23.9748 29.0413 24.1065 29.2662 24.2962 29.436L25.6513 30.65C25.5602 30.9511 25.4787 31.253 25.4067 31.5557L23.5113 31.9342C23.235 31.9893 22.9863 32.1385 22.8076 32.3564C22.6289 32.5742 22.5313 32.8473 22.5312 33.1291V37.2852C22.5313 37.567 22.6289 37.8401 22.8076 38.058C22.9863 38.2758 23.235 38.425 23.5114 38.4802L25.4067 38.8586C25.4787 39.1609 25.5603 39.4629 25.6513 39.7644L24.2957 40.9784C24.1062 41.1483 23.9747 41.3732 23.9194 41.6216C23.8641 41.87 23.8879 42.1295 23.9874 42.3637C24.5757 43.7286 25.3281 45.0168 26.228 46.1997C26.3817 46.402 26.5945 46.5515 26.837 46.6274C27.0795 46.7033 27.3396 46.7019 27.5812 46.6234L29.2838 46.064C29.5016 46.2937 29.7253 46.5186 29.9557 46.7353L29.3962 48.4372C29.317 48.6788 29.3152 48.9391 29.3912 49.1818C29.4672 49.4244 29.6171 49.6372 29.82 49.7905C31.0027 50.6905 32.2906 51.4431 33.6554 52.0316C33.8896 52.131 34.1491 52.1547 34.3975 52.0995C34.6458 52.0442 34.8708 51.9127 35.0407 51.7233L36.2553 50.3689C36.5594 50.4606 36.8645 50.5427 37.1706 50.6153L37.5414 52.3803C37.5936 52.6293 37.7224 52.8557 37.9098 53.0277C38.0972 53.1998 38.3338 53.3088 38.5863 53.3396C38.9399 53.3829 39.2702 53.4122 39.5938 53.4365V66.9375H30.9574C30.4593 63.3458 27.9152 59.692 25.6269 56.4294ZM29.8438 35.2071C29.8475 37.9037 30.8433 40.5047 32.6414 42.5143C34.4395 44.5238 36.9142 45.8016 39.5938 46.104V50.2952L39.392 49.3359C39.3422 49.0983 39.2227 48.8811 39.0488 48.7119C38.8748 48.5427 38.6543 48.4292 38.4155 48.3861C37.693 48.2546 36.9828 48.0631 36.2922 47.8136C36.1598 47.7666 36.0203 47.7424 35.8798 47.7422C35.7085 47.7422 35.5391 47.7784 35.3827 47.8483C35.2263 47.9182 35.0865 48.0204 34.9723 48.1481L33.8261 49.4263C33.191 49.1089 32.5781 48.7491 31.9914 48.3492L32.5205 46.7389C32.5962 46.5082 32.6014 46.2601 32.5353 46.0265C32.4693 45.7928 32.335 45.5842 32.1497 45.4273C31.5877 44.9515 31.066 44.43 30.59 43.8681C30.4326 43.684 30.2242 43.5507 29.991 43.485C29.7579 43.4194 29.5105 43.4243 29.2802 43.4992L27.6705 44.0288C27.2705 43.4419 26.9104 42.8288 26.5928 42.1936L27.8722 41.0474C28.0526 40.8854 28.1806 40.6733 28.2401 40.4383C28.2996 40.2032 28.2877 39.9558 28.2061 39.7275C27.9567 39.0368 27.7653 38.3266 27.6336 37.6042C27.5901 37.3635 27.4752 37.1415 27.3038 36.967C27.1324 36.7925 26.9124 36.6736 26.6725 36.6259L24.9688 36.2855V34.1288L26.6726 33.7885C26.9125 33.7407 27.1324 33.6218 27.3038 33.4474C27.4752 33.2729 27.5902 33.0508 27.6336 32.8101C27.7654 32.0873 27.9569 31.3767 28.2061 30.6856C28.2879 30.4573 28.2998 30.2097 28.2402 29.9746C28.1806 29.7395 28.0523 29.5275 27.8716 29.3657L26.5933 28.2208C26.9113 27.5858 27.2711 26.9727 27.6705 26.3855L29.2808 26.9151C29.5111 26.9899 29.7585 26.9948 29.9916 26.9292C30.2247 26.8635 30.4332 26.7302 30.5906 26.5462C31.0678 25.9839 31.5898 25.4613 32.1515 24.9835C32.3361 24.8268 32.4697 24.6187 32.5355 24.3857C32.6012 24.1527 32.596 23.9054 32.5205 23.6754L31.992 22.0651C32.5786 21.6655 33.1914 21.3057 33.8261 20.988L34.9723 22.2663C35.1344 22.4465 35.3464 22.5745 35.5814 22.6341C35.8164 22.6936 36.0638 22.682 36.2922 22.6007C36.9827 22.3511 37.693 22.1596 38.4155 22.0282C38.6542 21.9853 38.8747 21.8721 39.0487 21.7031C39.2226 21.5341 39.3422 21.317 39.392 21.0796L39.5938 20.1204V24.3103C36.9142 24.6127 34.4395 25.8904 32.6414 27.9C30.8433 29.9096 29.8475 32.5106 29.8438 35.2071ZM39.5938 26.7732V43.641C37.564 43.3504 35.7071 42.3376 34.3639 40.7884C33.0207 39.2392 32.2813 37.2575 32.2813 35.2071C32.2813 33.1567 33.0207 31.175 34.3639 29.6258C35.7071 28.0766 37.564 27.0638 39.5938 26.7732ZM51.1719 76.6875H30.4531C30.2866 76.6847 30.1223 76.6484 29.97 76.5808C29.8178 76.5131 29.6808 76.4155 29.567 76.2938C29.4533 76.1721 29.3652 76.0287 29.3081 75.8723C29.2509 75.7158 29.2259 75.5494 29.2344 75.383C29.2347 75.0599 29.3632 74.7501 29.5917 74.5216C29.8202 74.2931 30.13 74.1646 30.4531 74.1643H51.1719C51.3384 74.1671 51.5027 74.2034 51.655 74.271C51.8072 74.3387 51.9442 74.4363 52.058 74.558C52.1717 74.6797 52.2598 74.8231 52.3169 74.9795C52.3741 75.136 52.3991 75.3024 52.3906 75.4688C52.3903 75.7919 52.2618 76.1017 52.0333 76.3302C51.8048 76.5587 51.495 76.6872 51.1719 76.6875ZM50.86 69.375C51.0164 69.3606 51.1741 69.3793 51.3228 69.43C51.4714 69.4807 51.6077 69.5621 51.7227 69.6691C51.8377 69.776 51.9289 69.906 51.9903 70.0506C52.0516 70.1951 52.0818 70.351 52.0788 70.508C52.0785 70.8312 51.95 71.141 51.7215 71.3695C51.493 71.598 51.1832 71.7265 50.86 71.7268H30.765C30.5984 71.724 30.4341 71.6877 30.2819 71.6201C30.1296 71.5524 29.9926 71.4548 29.8789 71.3331C29.7651 71.2114 29.6771 71.068 29.6199 70.9116C29.5628 70.7551 29.5377 70.5887 29.5462 70.4224C29.5527 70.2719 29.5899 70.1243 29.6557 69.9888C29.7215 69.8533 29.8144 69.7327 29.9286 69.6346C30.0428 69.5364 30.176 69.4627 30.3199 69.4181C30.4637 69.3734 30.6152 69.3588 30.765 69.375H50.86ZM50.5625 52.2696C50.8035 52.2696 51.0392 52.3411 51.2396 52.475C51.44 52.609 51.5962 52.7993 51.6885 53.022C51.7807 53.2447 51.8049 53.4897 51.7578 53.7262C51.7108 53.9626 51.5947 54.1797 51.4243 54.3502C51.2538 54.5206 51.0367 54.6367 50.8003 54.6837C50.5639 54.7308 50.3188 54.7066 50.0961 54.6144C49.8734 54.5221 49.6831 54.3659 49.5491 54.1655C49.4152 53.9651 49.3438 53.7294 49.3438 53.4884C49.3441 53.1653 49.4726 52.8555 49.7011 52.627C49.9296 52.3985 50.2394 52.27 50.5625 52.2696ZM48.125 15.7071C48.366 15.7071 48.6017 15.7786 48.8021 15.9125C49.0025 16.0465 49.1587 16.2368 49.251 16.4595C49.3432 16.6822 49.3674 16.9273 49.3203 17.1637C49.2733 17.4001 49.1572 17.6172 48.9868 17.7877C48.8163 17.9581 48.5992 18.0742 48.3628 18.1212C48.1264 18.1683 47.8813 18.1441 47.6586 18.0519C47.4359 17.9596 47.2456 17.8034 47.1116 17.603C46.9777 17.4026 46.9062 17.1669 46.9062 16.9259C46.9066 16.6028 47.0351 16.293 47.2636 16.0645C47.4921 15.836 47.8019 15.7075 48.125 15.7071ZM50.5625 41.3009H42.0312V29.1134H50.5625V41.3009ZM63.9688 40.0821C63.7277 40.0821 63.4921 40.0107 63.2916 39.8768C63.0912 39.7428 62.935 39.5525 62.8428 39.3298C62.7505 39.1071 62.7264 38.862 62.7734 38.6256C62.8204 38.3892 62.9365 38.1721 63.107 38.0016C63.2774 37.8312 63.4946 37.7151 63.731 37.6681C63.9674 37.621 64.2124 37.6452 64.4351 37.7374C64.6578 37.8297 64.8482 37.9859 64.9821 38.1863C65.116 38.3867 65.1875 38.6224 65.1875 38.8634C65.1872 39.1865 65.0587 39.4963 64.8302 39.7248C64.6017 39.9533 64.2919 40.0818 63.9688 40.0821Z" fill="black"/>
</svg>
