<svg width="97" height="64" viewBox="0 0 97 64" fill="none" xmlns="http://www.w3.org/2000/svg">
<path d="M16.0739 18.0997H45.0392C45.9196 18.0997 46.6333 17.3847 46.6333 16.5027C46.6333 15.6207 45.9196 14.9056 45.0392 14.9056H16.0739C15.1935 14.9056 14.4797 15.6207 14.4797 16.5027C14.4797 17.3847 15.1935 18.0997 16.0739 18.0997Z" fill="#1C1953"/>
<path d="M59.8396 56.0645H72.0718C72.0718 59.4385 69.3298 62.1806 65.9557 62.1806C64.2636 62.1806 62.7346 61.4976 61.6337 60.3865C60.5226 59.2856 59.8396 57.7566 59.8396 56.0645Z" fill="#AAB2BD"/>
<path d="M72.0719 51.9871C73.1931 51.9871 74.1106 52.9045 74.1106 54.0258C74.1106 54.5864 73.8863 55.0961 73.5091 55.4631C73.1422 55.8402 72.6325 56.0645 72.0719 56.0645H59.8396C58.7183 56.0645 57.8009 55.1471 57.8009 54.0258C57.8009 53.4651 58.0252 52.9554 58.4023 52.5885C58.7693 52.2113 59.279 51.9871 59.8396 51.9871H72.0719Z" fill="#CCD1D9"/>
<path d="M75.5479 51.3857C75.1809 51.7628 74.6712 51.9871 74.1106 51.9871H72.0719H59.8396H57.8009C56.6796 51.9871 55.7622 51.0697 55.7622 49.9484C55.7622 49.3877 55.9865 48.8781 56.3636 48.5111C56.7306 48.1339 57.2403 47.9097 57.8009 47.9097H66.9751H74.1106C75.2319 47.9097 76.1493 48.8271 76.1493 49.9484C76.1493 50.509 75.925 51.0187 75.5479 51.3857Z" fill="#CCD1D9"/>
<path d="M85.3235 25.4839V25.8101C85.3235 31.4064 82.8057 36.7172 78.4734 40.2645L74.1106 43.8323V47.9097H66.9751V37.7162H65.9558C65.1097 37.7162 64.3452 37.3696 63.7947 36.8191C63.2443 36.2687 62.8977 35.5042 62.8977 34.6581C62.8977 32.966 64.2636 31.6 65.9558 31.6H66.9751V25.4839H73.0912V24.4646C73.0912 23.6185 73.4378 22.854 73.9883 22.3035C74.5387 21.7531 75.3032 21.4065 76.1493 21.4065C77.8414 21.4065 79.2074 22.7724 79.2074 24.4646V25.4839H85.3235Z" fill="#8586EE"/>
<path d="M46.6084 25.4839H54.7428V24.4646C54.7428 22.7724 56.1088 21.4065 57.8009 21.4065C58.647 21.4065 59.4115 21.7531 59.9619 22.3035C60.5124 22.854 60.859 23.6185 60.859 24.4646V25.4839H66.9751V31.6H65.9557C64.2636 31.6 62.8977 32.966 62.8977 34.6581C62.8977 35.5042 63.2442 36.2687 63.7947 36.8191C64.3451 37.3696 65.1097 37.7162 65.9557 37.7162H66.9751V47.9097H57.8009V43.8323L53.4381 40.2645C51.277 38.4909 49.5645 36.2789 48.3923 33.8018C47.22 31.335 46.588 28.6031 46.588 25.8101C46.588 25.698 46.588 25.5858 46.5982 25.4839H46.6084Z" fill="#8586EE"/>
<path d="M66.9751 20.3871V25.4839H60.859V24.4645C60.859 23.6184 60.5124 22.8539 59.962 22.3035C59.4115 21.753 58.647 21.4064 57.801 21.4064C56.1088 21.4064 54.7429 22.7724 54.7429 24.4645V25.4839H46.6085H46.5983C46.7614 15.3209 55.0589 7.1355 65.2626 7.1355H66.9751V14.271H65.9558C65.1097 14.271 64.3452 14.6176 63.7948 15.168C63.2443 15.7185 62.8977 16.483 62.8977 17.329C62.8977 19.0212 64.2637 20.3871 65.9558 20.3871H66.9751Z" fill="#8586EE"/>
<path d="M95.517 3.05812V15.2904C95.517 16.4116 94.5995 17.3291 93.4783 17.3291H89.4008V16.3097C89.4008 15.4636 89.0543 14.6991 88.5038 14.1487C87.9534 13.5982 87.1888 13.2517 86.3428 13.2517C84.6507 13.2517 83.2847 14.6176 83.2847 16.3097V17.3291H77.1686V12.2323H76.1492C75.3032 12.2323 74.5387 11.8857 73.9882 11.3353C73.4378 10.7848 73.0912 10.0203 73.0912 9.17424C73.0912 7.48211 74.4571 6.11618 76.1492 6.11618H77.1686V3.05812C77.1686 1.93683 78.086 1.01941 79.2073 1.01941H93.4783C94.5995 1.01941 95.517 1.93683 95.517 3.05812Z" fill="#8586EE"/>
<path d="M93.4782 0H79.2073C77.5212 0 76.1492 1.37205 76.1492 3.05806V5.09677C73.9005 5.09677 72.0718 6.92549 72.0718 9.17418C72.0718 11.4229 73.9005 13.2516 76.1492 13.2516V18.3484H84.304V16.3097C84.304 15.1853 85.2184 14.2709 86.3427 14.2709C87.4671 14.2709 88.3814 15.1853 88.3814 16.3097V18.3484H93.4782C95.1642 18.3484 96.5363 16.9763 96.5363 15.2903V3.05806C96.5363 1.37205 95.1642 0 93.4782 0ZM94.4976 15.2903C94.4976 15.852 94.0409 16.3097 93.4782 16.3097H90.4201C90.4201 14.061 88.5914 12.2322 86.3427 12.2322C84.094 12.2322 82.2653 14.061 82.2653 16.3097H78.1879V11.2129H76.1492C75.0248 11.2129 74.1105 10.2985 74.1105 9.17418C74.1105 8.04983 75.0248 7.13547 76.1492 7.13547H78.1879V3.05806C78.1879 2.4964 78.6446 2.03871 79.2073 2.03871H93.4782C94.0409 2.03871 94.4976 2.4964 94.4976 3.05806V15.2903Z" fill="#1C1953"/>
<path d="M76.1492 20.387C73.9005 20.387 72.0718 22.2158 72.0718 24.4645H67.9944V19.3677H65.9557C64.8313 19.3677 63.917 18.4533 63.917 17.329C63.917 16.2046 64.8313 15.2903 65.9557 15.2903H67.9944V6.11609H65.2615C54.4033 6.11609 45.5686 14.9508 45.5686 25.809C45.5686 31.7396 48.2016 37.2951 52.7917 41.0504L56.7815 44.3153V47.0788C55.598 47.5008 54.7428 48.6221 54.7428 49.9493C54.7428 51.3591 55.7061 52.5374 57.0057 52.8891C56.8641 53.2408 56.7815 53.6231 56.7815 54.0257C56.7815 55.3733 57.6632 56.5068 58.8752 56.9135C59.2973 60.4487 62.3094 63.1999 65.9557 63.1999C69.6019 63.1999 72.6141 60.4487 73.0361 56.9135C74.2481 56.5068 75.1299 55.3733 75.1299 54.0257C75.1299 53.6231 75.0473 53.2408 74.9056 52.8881C76.2053 52.5354 77.1686 51.3581 77.1686 49.9483C77.1686 48.6211 76.3133 47.4998 75.1299 47.0778V44.3143L79.1196 41.0493C83.7098 37.2951 86.3427 31.7396 86.3427 25.809V24.4645H80.2266C80.2266 22.2158 78.3979 20.387 76.1492 20.387ZM65.2615 8.1548H65.9557V13.2516C63.707 13.2516 61.8783 15.0803 61.8783 17.329C61.8783 19.5777 63.707 21.4064 65.9557 21.4064V24.4645H61.8783C61.8783 22.2158 60.0495 20.387 57.8008 20.387C55.5522 20.387 53.7234 22.2158 53.7234 24.4645H47.6583C48.3474 15.3555 55.9793 8.1548 65.2615 8.1548ZM54.0822 39.4724C50.1465 36.2523 47.8163 31.5571 47.6216 26.5032H55.7621V24.4645C55.7621 23.3401 56.6765 22.4257 57.8008 22.4257C58.9252 22.4257 59.8396 23.3401 59.8396 24.4645V26.5032H65.9557V30.5806C63.707 30.5806 61.8783 32.4093 61.8783 34.658C61.8783 36.9067 63.707 38.7354 65.9557 38.7354V46.8902H58.8202V43.349L54.0822 39.4724ZM65.9557 61.1612C63.495 61.1612 61.4359 59.4069 60.9619 57.0838H70.9495C70.4755 59.4069 68.4164 61.1612 65.9557 61.1612ZM72.0718 55.0451H59.8396C59.2769 55.0451 58.8202 54.5874 58.8202 54.0257C58.8202 53.464 59.2769 53.0064 59.8396 53.0064H72.0718C72.6345 53.0064 73.0911 53.464 73.0911 54.0257C73.0911 54.5874 72.6345 55.0451 72.0718 55.0451ZM74.1105 50.9676H72.0718H59.8396H57.8008C57.2382 50.9676 56.7815 50.51 56.7815 49.9483C56.7815 49.3866 57.2382 48.9289 57.8008 48.9289H74.1105C74.6732 48.9289 75.1299 49.3866 75.1299 49.9483C75.1299 50.51 74.6732 50.9676 74.1105 50.9676ZM77.8291 39.4724L73.0911 43.349V46.8902H67.9944V36.6967H65.9557C64.8313 36.6967 63.917 35.7823 63.917 34.658C63.917 33.5336 64.8313 32.6193 65.9557 32.6193H67.9944V26.5032H74.1105V24.4645C74.1105 23.3401 75.0249 22.4257 76.1492 22.4257C77.2736 22.4257 78.1879 23.3401 78.1879 24.4645V26.5032H84.2898C84.0951 31.5571 81.7648 36.2523 77.8291 39.4724Z" fill="#1C1953"/>
<path d="M27.0431 28.853C27.0431 27.971 26.3293 27.256 25.4489 27.256H1.59423C0.713791 27.256 0 27.971 0 28.853C0 29.735 0.713791 30.45 1.59423 30.45H25.4489C26.3293 30.45 27.0431 29.735 27.0431 28.853Z" fill="#1C1953"/>
<path d="M41.5228 28.853C41.5228 27.971 40.8088 27.256 39.928 27.256H33.1096C32.2288 27.256 31.5148 27.971 31.5148 28.853C31.5148 29.735 32.2288 30.45 33.1096 30.45H39.928C40.8088 30.45 41.5228 29.735 41.5228 28.853Z" fill="#1C1953"/>
<path d="M45.465 39.6064H21.6103C20.7299 39.6064 20.0161 40.3215 20.0161 41.2035C20.0161 42.0855 20.7299 42.8005 21.6103 42.8005H45.465C46.3454 42.8005 47.0592 42.0855 47.0592 41.2035C47.0592 40.3215 46.3454 39.6064 45.465 39.6064Z" fill="#1C1953"/>
<path d="M50.1494 49.1886H36.5162C35.6356 49.1886 34.9218 49.9036 34.9218 50.7856C34.9218 51.6676 35.6356 52.3827 36.5162 52.3827H50.1494C51.03 52.3827 51.7438 51.6676 51.7438 50.7856C51.7438 49.9036 51.03 49.1886 50.1494 49.1886Z" fill="#1C1953"/>
</svg>
