<svg width="87" height="87" viewBox="0 0 87 87" fill="none" xmlns="http://www.w3.org/2000/svg">
<path d="M56.55 79.75L60.9 85.55H26.1L30.45 79.75H33.35H53.65H56.55Z" fill="#8586EE"/>
<path d="M52.2 71.05L53.65 79.75H33.35L34.8 71.05H42.05H52.2Z" fill="#302C8C"/>
<path d="M42.0499 62.35H1.44995V68.15C1.45225 68.9184 1.75852 69.6547 2.30188 70.198C2.84524 70.7414 3.58153 71.0477 4.34995 71.05H82.6499C83.4184 71.0477 84.1547 70.7414 84.698 70.198C85.2414 69.6547 85.5477 68.9184 85.5499 68.15V62.35H42.0499Z" fill="#8586EE"/>
<path d="M85.5499 21.75V62.35H1.44995V21.75C1.45225 20.9816 1.75852 20.2453 2.30188 19.7019C2.84524 19.1585 3.58153 18.8523 4.34995 18.85H82.6499C83.4184 18.8523 84.1547 19.1585 84.698 19.7019C85.2414 20.2453 85.5477 20.9816 85.5499 21.75Z" fill="#8586EE"/>
<path d="M85.55 21.75V62.35H82.65V21.75C82.6477 20.9816 82.3414 20.2453 81.7981 19.7019C81.2547 19.1585 80.5184 18.8523 79.75 18.85H82.65C83.4184 18.8523 84.1547 19.1585 84.6981 19.7019C85.2414 20.2453 85.5477 20.9816 85.55 21.75Z" fill="#2488FF"/>
<path d="M85.55 62.35V68.15C85.5477 68.9184 85.2414 69.6547 84.6981 70.198C84.1547 70.7414 83.4184 71.0477 82.65 71.05H79.75C80.5184 71.0477 81.2547 70.7414 81.7981 70.198C82.3414 69.6547 82.6477 68.9184 82.65 68.15V62.35H85.55Z" fill="#8586EE"/>
<path d="M60.9 85.55H58L53.65 79.75H56.55L60.9 85.55Z" fill="#8586EE"/>
<path d="M42.05 50.75V53.6499C42.0477 54.4184 41.7415 55.1547 41.1981 55.698C40.6547 56.2414 39.9184 56.5477 39.15 56.5499H13.05C12.2816 56.5477 11.5453 56.2414 11.0019 55.698C10.4586 55.1547 10.1523 54.4184 10.15 53.6499V4.34995C10.1523 3.58153 10.4586 2.84524 11.0019 2.30188C11.5453 1.75852 12.2816 1.45225 13.05 1.44995H39.15C39.9184 1.45225 40.6547 1.75852 41.1981 2.30188C41.7415 2.84524 42.0477 3.58153 42.05 4.34995V50.75Z" fill="#8586EE"/>
<path d="M55.5248 43.0752L57.5751 41.0249L49.9003 33.35L57.5751 25.6752L55.5248 23.6249L46.8248 32.3249C46.553 32.5968 46.4003 32.9655 46.4003 33.35C46.4003 33.7345 46.553 34.1033 46.8248 34.3752L55.5248 43.0752Z" fill="white"/>
<path d="M72.0752 43.0752L80.7752 34.3752C81.047 34.1033 81.1997 33.7345 81.1997 33.35C81.1997 32.9655 81.047 32.5968 80.7752 32.3249L72.0752 23.6249L70.0249 25.6752L77.6998 33.35L70.0249 41.0249L72.0752 43.0752Z" fill="white"/>
<path d="M46.4 55.1H49.3V58H46.4V55.1Z" fill="white"/>
<path d="M52.2 55.1H81.2V58H52.2V55.1Z" fill="white"/>
<path d="M46.4 49.3H75.4V52.2H46.4V49.3Z" fill="white"/>
<path d="M78.3 49.3H81.2V52.2H78.3V49.3Z" fill="white"/>
<path d="M58.0798 44.4617L66.7768 21.2698L69.4912 22.2877L60.7942 45.4796L58.0798 44.4617Z" fill="white"/>
<path d="M15.95 24.65H20.3V29C20.3 29.3846 20.4528 29.7534 20.7247 30.0253C20.9966 30.2973 21.3654 30.45 21.75 30.45H24.65V37.7C24.65 38.0846 24.8028 38.4534 25.0747 38.7253C25.3466 38.9973 25.7154 39.15 26.1 39.15H37.7V36.25H27.55V30.45H31.9V27.55H23.2V24.65H24.65V21.75H17.4V17.4H14.5V23.2C14.5 23.5846 14.6528 23.9534 14.9247 24.2253C15.1966 24.4973 15.5654 24.65 15.95 24.65Z" fill="white"/>
<path d="M15.95 46.4H18.85V50.75C18.85 51.1346 19.0028 51.5034 19.2747 51.7753C19.5466 52.0473 19.9154 52.2 20.3 52.2H37.7V49.3H21.75V46.4H24.65V43.5H17.4V39.15H14.5V44.95C14.5 45.3346 14.6528 45.7034 14.9247 45.9753C15.1966 46.2473 15.5654 46.4 15.95 46.4Z" fill="white"/>
<path d="M15.95 13.05H33.35V10.15H17.4V5.80005H14.5V11.6C14.5 11.9846 14.6528 12.3534 14.9247 12.6254C15.1966 12.8973 15.5654 13.05 15.95 13.05Z" fill="white"/>
<path d="M42.05 65.25H44.95V68.15H42.05V65.25Z" fill="black"/>
<path d="M82.65 17.4H43.5V4.35C43.5 3.19631 43.0417 2.08987 42.2259 1.27409C41.4101 0.458302 40.3037 0 39.15 0H13.05C11.8963 0 10.7899 0.458302 9.97408 1.27409C9.1583 2.08987 8.7 3.19631 8.7 4.35V17.4H4.35C3.19631 17.4 2.08987 17.8583 1.27409 18.6741C0.458302 19.4899 0 20.5963 0 21.75V68.15C0 69.3037 0.458302 70.4101 1.27409 71.2259C2.08987 72.0417 3.19631 72.5 4.35 72.5H33.089L32.1218 78.3H30.45C30.2249 78.3 30.0029 78.3524 29.8015 78.4531C29.6002 78.5537 29.4251 78.6999 29.29 78.88L24.94 84.68C24.7784 84.8954 24.68 85.1516 24.6559 85.4198C24.6317 85.688 24.6827 85.9576 24.8031 86.1985C24.9235 86.4393 25.1086 86.6419 25.3377 86.7834C25.5668 86.925 25.8307 87 26.1 87H60.9C61.1693 87 61.4332 86.925 61.6623 86.7834C61.8914 86.6419 62.0765 86.4393 62.1969 86.1985C62.3173 85.9576 62.3683 85.688 62.3441 85.4198C62.32 85.1516 62.2216 84.8954 62.06 84.68L57.71 78.88C57.5749 78.6999 57.3998 78.5537 57.1985 78.4531C56.9971 78.3524 56.7751 78.3 56.55 78.3H54.8782L53.911 72.5H82.65C83.8037 72.5 84.9101 72.0417 85.7259 71.2259C86.5417 70.4101 87 69.3037 87 68.15V21.75C87 20.5963 86.5417 19.4899 85.7259 18.6741C84.9101 17.8583 83.8037 17.4 82.65 17.4ZM11.6 4.35C11.6 3.96544 11.7528 3.59662 12.0247 3.3247C12.2966 3.05277 12.6654 2.9 13.05 2.9H39.15C39.5346 2.9 39.9034 3.05277 40.1753 3.3247C40.4472 3.59662 40.6 3.96544 40.6 4.35V53.65C40.6 54.0346 40.4472 54.4034 40.1753 54.6753C39.9034 54.9472 39.5346 55.1 39.15 55.1H13.05C12.6654 55.1 12.2966 54.9472 12.0247 54.6753C11.7528 54.4034 11.6 54.0346 11.6 53.65V4.35ZM4.35 20.3H8.7V53.65C8.7 54.8037 9.1583 55.9101 9.97408 56.7259C10.7899 57.5417 11.8963 58 13.05 58H39.15C40.3037 58 41.4101 57.5417 42.2259 56.7259C43.0417 55.9101 43.5 54.8037 43.5 53.65V20.3H82.65C83.0346 20.3 83.4034 20.4528 83.6753 20.7247C83.9472 20.9966 84.1 21.3654 84.1 21.75V60.9H2.9V21.75C2.9 21.3654 3.05277 20.9966 3.3247 20.7247C3.59662 20.4528 3.96544 20.3 4.35 20.3ZM58 84.1H29L31.175 81.2H55.825L58 84.1ZM51.939 78.3H35.061L36.0282 72.5H50.9719L51.939 78.3ZM82.65 69.6H4.35C3.96544 69.6 3.59662 69.4472 3.3247 69.1753C3.05277 68.9034 2.9 68.5346 2.9 68.15V63.8H84.1V68.15C84.1 68.5346 83.9472 68.9034 83.6753 69.1753C83.4034 69.4472 83.0346 69.6 82.65 69.6Z" fill="black"/>
</svg>
