<svg width="76" height="82" viewBox="0 0 76 82" fill="none" xmlns="http://www.w3.org/2000/svg">
<path d="M29.0215 78.2177V70.7982C29.0215 68.8942 27.4819 67.3486 25.578 67.3412L13.6163 67.2944C11.5662 67.2863 9.81813 65.8074 9.47041 63.787L7.4351 51.9559H2.94842C2.40358 51.9559 1.96204 51.5143 1.96204 50.9695C1.96204 47.1983 3.01707 43.5025 5.00779 40.2996L6.46748 37.951C6.6678 37.6288 6.76003 37.2509 6.73084 36.8727L6.18295 29.7826C4.99192 14.3678 17.1788 1.20288 32.6395 1.20288C51.5262 1.20288 65.0674 19.4168 59.6266 37.503L54.0989 55.8785V78.0972C54.0989 79.5072 52.9604 80.6525 51.5505 80.661L31.6008 80.7815C30.1788 80.7902 29.0215 79.6397 29.0215 78.2177Z" fill="#F0C087"/>
<path d="M36.5948 79.5015V65.8703C36.5948 63.9664 35.0552 62.4207 33.1513 62.4133L21.1896 62.3665C19.1395 62.3585 17.3914 60.8796 17.0437 58.8592L15.769 51.4494C15.3295 48.8948 13.1139 47.0279 10.5217 47.0279C9.97674 47.0279 9.53519 46.5818 9.53535 46.0368C9.53615 42.2672 10.5912 38.5732 12.5811 35.3715L14.0408 33.023C14.2411 32.7008 14.3333 32.3229 14.3042 31.9447L13.7563 24.8546C13.0979 16.3348 16.5284 8.50248 22.3375 3.20007C12.0589 7.44553 5.0915 17.9517 6.00571 29.7827L6.55359 36.8728C6.58278 37.2511 6.49056 37.6288 6.29023 37.9511L4.83055 40.2996C2.83982 43.5025 1.78479 47.1984 1.78479 50.9695C1.78479 51.5144 2.22634 51.9559 2.77117 51.9559H7.25769L9.29317 63.7872C9.64073 65.8076 11.389 67.2866 13.439 67.2946L25.4007 67.3414C27.3047 67.3488 28.8442 68.8944 28.8442 70.7984V79.1368C28.8442 80.0523 29.5892 80.7928 30.5047 80.7872L37.165 80.7471C36.8165 80.4444 36.5948 79.9993 36.5948 79.5015Z" fill="#E6AF78"/>
<path d="M67.7667 6.10413H32.7577C29.2943 6.10413 26.4867 8.91171 26.4867 12.3751V41.5682C26.4867 45.0316 29.2943 47.8392 32.7577 47.8392H34.278L37.0015 52.3899C37.5528 53.311 38.8874 53.311 39.4386 52.3899L42.1622 47.8392H67.7666C71.23 47.8392 74.0376 45.0316 74.0376 41.5682V12.3751C74.0377 8.91171 71.2301 6.10413 67.7667 6.10413Z" fill="#8586EE"/>
<path d="M37.1568 37.4076H46.8365L48.2146 38.2211C48.7447 38.534 49.349 38.699 49.9646 38.699H59.9691H63.2756C64.42 38.699 65.4238 37.8607 65.5493 36.7232C65.6535 35.7774 65.1651 34.9348 64.4089 34.5179C64.3589 34.4903 64.3268 34.439 64.3268 34.3821V34.3777C64.3268 34.3064 64.3759 34.244 64.4455 34.2286C65.4455 34.0088 66.194 33.118 66.194 32.052C66.194 31.3995 65.9137 30.8125 65.4667 30.4048C66.3647 30.0583 67.0022 29.1874 67.0022 28.1672C67.0022 27.363 66.6061 26.6519 65.9987 26.2169C66.8457 25.7933 67.4277 24.9182 67.4277 23.9068C67.4277 22.481 66.2718 21.3251 64.846 21.3251H59.5216C59.1447 21.3251 58.8941 20.9352 59.0507 20.5923L59.6826 19.2088C60.0493 18.406 60.239 17.534 60.239 16.6515V13.7745C60.239 13.3598 60.1578 12.949 60.0002 12.5655C59.5918 11.5724 58.6242 10.924 57.5504 10.924H57.545C56.8142 10.924 56.1543 11.3602 55.8676 12.0324L54.7562 14.6401L50.5708 17.0769L49.8847 17.3685C48.9413 17.7693 48.1777 18.5019 47.7378 19.4277L46.8365 21.3251H37.1568C36.1841 21.3251 35.3956 22.1137 35.3956 23.0863V35.6462C35.3955 36.619 36.1841 37.4076 37.1568 37.4076Z" fill="#F9F7F8"/>
<path d="M55.4164 51.4992C54.781 51.3078 54.1096 51.6682 53.9181 52.3045L52.9471 55.532C52.9133 55.6444 52.8961 55.7612 52.8961 55.8786V69.5712C52.8961 70.2355 53.4345 70.7741 54.099 70.7741C54.7635 70.7741 55.3019 70.2355 55.3019 69.5712V56.0555L56.2217 52.9975C56.4132 52.3614 56.0527 51.6905 55.4164 51.4992Z" fill="black"/>
<path d="M54.099 73.4945C53.4345 73.4945 52.8961 74.0331 52.8961 74.6974V80.6457C52.8961 81.31 53.4345 81.8486 54.099 81.8486C54.7635 81.8486 55.3019 81.31 55.3019 80.6457V74.6974C55.3019 74.0331 54.7635 73.4945 54.099 73.4945Z" fill="black"/>
<path d="M25.5828 66.1383L13.6211 66.0915C12.1521 66.0857 10.9051 65.0309 10.6561 63.5832L10.1344 60.5508H13.8209C15.3411 60.5508 16.77 59.9588 17.8447 58.884L19.3485 57.3802C19.8183 56.9104 19.8183 56.1488 19.3485 55.6791C18.8787 55.2094 18.117 55.2094 17.6474 55.6791L16.1435 57.1829C15.5231 57.8033 14.6984 58.1451 13.8209 58.1451H9.72044L8.62051 51.7521C8.52123 51.1748 8.02066 50.753 7.43492 50.753H3.16637C3.20583 47.2784 4.19381 43.8883 6.02961 40.9346L7.4893 38.5862C7.82723 38.0426 7.97976 37.4179 7.93036 36.7801L7.38248 29.69C6.83251 22.5726 9.20031 15.7679 14.0496 10.5294C18.8989 5.29086 25.501 2.40581 32.6397 2.40581C33.329 2.40581 34.0523 2.43484 34.7892 2.49194C35.4495 2.54246 36.0301 2.04799 36.0814 1.38559C36.1327 0.723187 35.6375 0.144669 34.9751 0.0933455C34.1766 0.0314359 33.3907 0 32.6397 0C28.6964 0 24.8894 0.808353 21.3246 2.4026C17.893 3.93735 14.8514 6.12167 12.2842 8.89493C9.71692 11.6682 7.7735 14.8692 6.50756 18.409C5.19271 22.0858 4.67995 25.9438 4.98388 29.8754L5.53177 36.9656C5.54139 37.0893 5.51172 37.2105 5.44612 37.3162L3.98643 39.6646C1.87525 43.061 0.759277 46.9703 0.759277 50.9695C0.759277 52.1766 1.74149 53.1588 2.94857 53.1588H6.42144L8.28514 63.9912C8.73262 66.5921 10.9727 68.4872 13.6118 68.4975L25.5735 68.5443C26.8115 68.5491 27.8189 69.5604 27.8189 70.7984V80.7973C27.8189 81.4616 28.3575 82.0002 29.0218 82.0002C29.6861 82.0002 30.2247 81.4616 30.2247 80.7973V70.7982C30.2245 68.2389 28.1422 66.1484 25.5828 66.1383Z" fill="black"/>
<path d="M67.7668 4.90125H32.7577C28.6366 4.90125 25.2838 8.25398 25.2838 12.3751V16.7717C25.2838 17.436 25.8224 17.9746 26.4867 17.9746C27.151 17.9746 27.6896 17.436 27.6896 16.7717V12.3751C27.6896 9.58055 29.9631 7.30706 32.7577 7.30706H67.7668C70.5613 7.30706 72.835 9.58055 72.835 12.3751V41.5684C72.835 44.363 70.5613 46.6365 67.7668 46.6365H42.1623C41.7392 46.6365 41.3474 46.8586 41.1301 47.2216L38.4065 51.7721C38.3645 51.8423 38.302 51.8778 38.2202 51.8778C38.1384 51.8778 38.0758 51.8422 38.0338 51.7721L35.3103 47.2214C35.0931 46.8584 34.7011 46.6363 34.278 46.6363H32.7577C29.9631 46.6363 27.6896 44.3628 27.6896 41.5682V21.898C27.6896 21.2337 27.151 20.6951 26.4867 20.6951C25.8224 20.6951 25.2838 21.2337 25.2838 21.898V41.5684C25.2838 45.6895 28.6366 49.0423 32.7577 49.0423H33.5961L35.9695 53.0077C36.4476 53.8066 37.289 54.2836 38.22 54.2837H38.2202C39.1512 54.2837 39.9928 53.8067 40.4709 53.0077L42.8443 49.0423H67.7668C71.8879 49.0423 75.2408 45.6895 75.2408 41.5684V12.3751C75.2406 8.25398 71.8879 4.90125 67.7668 4.90125Z" fill="black"/>
<path d="M61.4417 16.6516V13.7745C61.4417 13.2002 61.331 12.6396 61.1126 12.1078C60.5161 10.6579 59.1178 9.72107 57.5447 9.72107C56.33 9.72107 55.2372 10.4431 54.7611 11.5607L53.8059 13.8013L50.0308 15.9994L49.4141 16.2615C48.199 16.7778 47.2179 17.719 46.6511 18.9118L46.0761 20.1222H35.3954C34.7311 20.1222 34.1925 20.6608 34.1925 21.3251C34.1925 21.9894 34.7311 22.528 35.3954 22.528H46.8363C47.3008 22.528 47.7236 22.2606 47.9228 21.8412L48.824 19.944C49.1379 19.2832 49.6816 18.7618 50.3547 18.4757L51.0409 18.1841C51.0872 18.1643 51.1323 18.1417 51.1758 18.1166L55.3611 15.6798C55.585 15.5494 55.7608 15.3502 55.8624 15.1119L56.9741 12.5041C57.0716 12.2751 57.2957 12.127 57.5502 12.127C58.1387 12.127 58.6636 12.4788 58.8873 13.0226C58.9858 13.2626 59.0359 13.5155 59.0359 13.7747V16.6517C59.0359 17.3667 58.8854 18.059 58.5882 18.7093L57.9565 20.0927C57.7122 20.6277 57.756 21.2427 58.074 21.7376C58.3919 22.2326 58.9331 22.528 59.5214 22.528H64.8456C65.6058 22.528 66.2244 23.1465 66.2244 23.9069C66.2244 24.4325 65.9317 24.9054 65.4603 25.1409C65.0831 25.3293 64.8323 25.7016 64.7991 26.122C64.7659 26.5423 64.9551 26.9494 65.2977 27.1948C65.6162 27.4229 65.7989 27.7773 65.7989 28.1672C65.7989 28.6577 65.4913 29.1058 65.0335 29.2824C64.6446 29.4325 64.3612 29.773 64.2842 30.1827C64.2074 30.5923 64.3477 31.0125 64.6557 31.2933C64.8717 31.4905 64.9907 31.7598 64.9907 32.0518C64.9907 32.5299 64.6528 32.9511 64.1857 33.0538C63.5702 33.1896 63.1235 33.7463 63.1235 34.3818C63.1235 34.8764 63.3939 35.3324 63.8279 35.5712C64.1496 35.7484 64.3533 36.0856 64.3598 36.4509C64.3644 36.7173 64.261 36.972 64.0682 37.1683C63.8637 37.3765 63.5785 37.496 63.2861 37.496H59.2375C58.573 37.496 58.0346 38.0346 58.0346 38.6989C58.0346 39.3632 58.573 39.9018 59.2375 39.9018H63.2861C64.2197 39.9018 65.1304 39.5201 65.7843 38.8543C66.4331 38.1939 66.7816 37.3252 66.7652 36.4084C66.7539 35.767 66.5616 35.1521 66.2267 34.6267C66.9481 33.9891 67.3965 33.0579 67.3965 32.0518C67.3965 31.5933 67.304 31.1435 67.1301 30.728C67.8012 30.0624 68.2047 29.1425 68.2047 28.1672C68.2047 27.529 68.0337 26.9103 67.7224 26.3701C68.3 25.6979 68.6301 24.8323 68.6301 23.9069C68.6301 21.8199 66.9324 20.1222 64.8454 20.1222H60.5874L60.7764 19.7087C61.2179 18.7425 61.4417 17.714 61.4417 16.6516Z" fill="black"/>
<path d="M35.3954 38.6105H46.5078L47.6031 39.257C48.318 39.6789 49.1347 39.902 49.9647 39.902H54.1113C54.7758 39.902 55.3142 39.3634 55.3142 38.6991C55.3142 38.0347 54.7758 37.4962 54.1113 37.4962H49.9647C49.5645 37.4962 49.1708 37.3887 48.8259 37.1853L47.4479 36.3718C47.2626 36.2625 47.0514 36.2047 46.8363 36.2047H35.3954C34.7311 36.2047 34.1925 36.7433 34.1925 37.4076C34.1925 38.0719 34.7311 38.6105 35.3954 38.6105Z" fill="black"/>
</svg>
