<svg id="Layer_1" data-name="Layer 1" xmlns="http://www.w3.org/2000/svg" viewBox="0 0 144.23 111.5"><defs><style>.cls-1,.cls-4{fill:#f40051;}.cls-2{fill:#22201e;}.cls-3{fill:#fff;}.cls-4{font-size:25.67px;font-family:CandyShopPersonalUse, Candy Shop Personal Use;}</style></defs><title>ix clibano</title><path class="cls-1" d="M817.94,1117.1a74.73,74.73,0,0,1-29.29.35,45.48,45.48,0,0,1-15.11-5.75c-5.07-2.8-9.75-6.47-9.63-12.91a11.75,11.75,0,0,1,5.94-10c12.52-7.82,26.37-9.36,40.84-7.58a58.17,58.17,0,0,1,9.55,1.92,55.84,55.84,0,0,1,6.12,2.17c-4.42-.41-8.1-.62-10.72-.72-9.37-.37-17.44-.64-26.95,1.65a37.33,37.33,0,0,0-12.93,5.87c-6.32,4.22-6.42,10.33-.74,15.25,7,6,15.54,8,23.63,9.12A87.75,87.75,0,0,0,817.94,1117.1Z" transform="translate(-738.13 -1061.8)"/><path class="cls-1" d="M759.27,1133.38c13.08,25.37,70.54,29.18,86.82-.72-1,5.57-4.32,9.75-8.62,13.21-6.6,5.33-14.3,8.24-22.57,9.66-16.33,2.82-31.68.33-45.67-8.88A22.72,22.72,0,0,1,759.27,1133.38Z" transform="translate(-738.13 -1061.8)"/><path class="cls-2" d="M840.26,1117.85a11.65,11.65,0,0,1,1.29-3.38c-.46-.28-1.3-.56-2.12-1-.27.43-.53.87-.79,1.3l1.08.12a34.1,34.1,0,0,0-2.14,2.77c-2.29,3.74-5.14,5.87-9.84,4.19-.88-.31-2.52.39-3.3,1.15-2.58,2.52-5.24,2.67-8.73,2a19.73,19.73,0,0,0-10.06.71c-3.83,1.42-7,1.52-10.55-.45-2.88-1.63-5.85-2.17-9.11-.57-4.5,2.21-5.36,1.92-8.16-2.17-1.5-2.19-3.16-3.5-6-3s-4.9-.78-5.88-3.62a7.82,7.82,0,0,0-1-1.61c0,4.08,0,7.9,0,11.72,0,4.46,2.13,7.58,5.56,10.32,17.3,13.82,44.34,12.6,61.9,2.81,5.1-2.84,8.38-7,7.86-13.32A48.93,48.93,0,0,1,840.26,1117.85Zm-67.89,11.85c-.61,0-1.91-1.34-1.79-1.75a3.37,3.37,0,0,1,2-2c.56-.15,1.44.86,2.8,1.77C774,1128.68,773.2,1129.66,772.37,1129.7Zm7.91,7.93c-.6,0-1.95-1.27-1.84-1.68a3.31,3.31,0,0,1,1.9-2.08c.58-.16,1.48.81,2.88,1.68C781.86,1136.57,781.11,1137.56,780.28,1137.63Z" transform="translate(-738.13 -1061.8)"/><path class="cls-3" d="M797,1131.72c-1.35,1-2.11,2-2.94,2.08-.6,0-1.94-1.27-1.83-1.68a3.28,3.28,0,0,1,1.9-2.08C794.7,1129.88,795.61,1130.85,797,1131.72Z" transform="translate(-738.13 -1061.8)"/><path class="cls-3" d="M815.18,1131.52c-1.38,1-2.16,2-3,2-.62,0-1.92-1.34-1.8-1.75a3.36,3.36,0,0,1,2-2C812.94,1129.6,813.82,1130.61,815.18,1131.52Z" transform="translate(-738.13 -1061.8)"/><path class="cls-3" d="M825.34,1139.37c-1.36,1-2.11,2-2.94,2.09-.6,0-1.95-1.27-1.84-1.68a3.31,3.31,0,0,1,1.9-2.08C823,1137.53,823.94,1138.51,825.34,1139.37Z" transform="translate(-738.13 -1061.8)"/><path class="cls-3" d="M836.83,1131.72c-1.36,1-2.11,2-2.94,2.08-.61,0-1.95-1.27-1.84-1.68A3.28,3.28,0,0,1,834,1130C834.52,1129.88,835.43,1130.85,836.83,1131.72Z" transform="translate(-738.13 -1061.8)"/><path class="cls-3" d="M806.19,1141.67c-1.35,1-2.11,2-2.94,2.08-.6.06-1.94-1.26-1.83-1.68a3.26,3.26,0,0,1,1.9-2.07C803.89,1139.83,804.8,1140.81,806.19,1141.67Z" transform="translate(-738.13 -1061.8)"/><text class="cls-4" transform="translate(77.02 51.74)">libano</text><text class="cls-4" transform="translate(0 51.74)">ix</text><path class="cls-2" d="M759.87,1076.44c.07-.18.16-.26.25-.25a.31.31,0,0,1,.26.18,5.86,5.86,0,0,1,.35-1.24,6.38,6.38,0,0,1,.55-1.11,5.48,5.48,0,0,1,.71-.92,4.62,4.62,0,0,1,.82-.68,4.46,4.46,0,0,1,1.29-.58,2.45,2.45,0,0,1,1,0,1.66,1.66,0,0,1,.8.38,2.35,2.35,0,0,1,.57.71,5.35,5.35,0,0,1,.44,1.06,11.57,11.57,0,0,1,.29,1.16,8.94,8.94,0,0,1,.14,1.13,8.79,8.79,0,0,1,0,1,15.08,15.08,0,0,1-.29,2.25,13.72,13.72,0,0,1-.62,2.18,10.54,10.54,0,0,1-.91,1.91,5.31,5.31,0,0,1-1.21,1.42,4,4,0,0,1-1.12.67,2.14,2.14,0,0,1-1,.15,1.93,1.93,0,0,1-.84-.27,3.38,3.38,0,0,1-.72-.6,4.51,4.51,0,0,1-.59-.82,9.1,9.1,0,0,1-.48-.93,5.56,5.56,0,0,1-.42-1.41,9.15,9.15,0,0,1-.1-1.68,10.55,10.55,0,0,1,.2-1.82A10.77,10.77,0,0,1,759.87,1076.44Zm.35.49-.1-.13a11.38,11.38,0,0,0-.44,1.6,11.89,11.89,0,0,0-.19,1.66,10.18,10.18,0,0,0,.09,1.58,5.83,5.83,0,0,0,.4,1.38c0,.09.09.19.14.29s.1.2.15.29a6.31,6.31,0,0,0,.38.64l-.14-.24a1.34,1.34,0,0,1-.13-.23c-.06-.1-.1-.2-.15-.3s-.09-.19-.14-.3a5.78,5.78,0,0,1-.39-1.35,8.71,8.71,0,0,1-.11-1.55,11.47,11.47,0,0,1,.18-1.62,11.81,11.81,0,0,1,.41-1.58Zm6-2.47a5.74,5.74,0,0,1,.39,1.28,5.9,5.9,0,0,1,.07,1.4,11.26,11.26,0,0,1-.21,1.52,10,10,0,0,1-.47,1.59,7.8,7.8,0,0,1-.79,1.48,5,5,0,0,1-1.17,1.21,3.62,3.62,0,0,1-1,.55,2.59,2.59,0,0,1-.93.12,1.9,1.9,0,0,1-.81-.27,2.22,2.22,0,0,1-.64-.62,2.32,2.32,0,0,0,.64.71,1.78,1.78,0,0,0,.82.33,2.34,2.34,0,0,0,1-.09,3.77,3.77,0,0,0,1.06-.56,4.56,4.56,0,0,0,1.16-1.2,7.88,7.88,0,0,0,.79-1.49,9,9,0,0,0,.47-1.59,10.84,10.84,0,0,0,.21-1.52,5.62,5.62,0,0,0-.09-1.49A5.89,5.89,0,0,0,766.27,1074.46Zm-2.44,4.4a.38.38,0,0,1,.25.2,1.39,1.39,0,0,1,.17.39,2.1,2.1,0,0,1,.06.51,3.19,3.19,0,0,1,0,.54,2.18,2.18,0,0,1-.17.51,1.05,1.05,0,0,1-.29.39,1.68,1.68,0,0,1-.69.37,1.22,1.22,0,0,1-.63,0,1.51,1.51,0,0,1-.57-.33,4.16,4.16,0,0,1-.49-.53,3.94,3.94,0,0,1-.39-.61,6,6,0,0,1-.28-.58,5.47,5.47,0,0,1-.29-.83,4.75,4.75,0,0,1-.14-.84,5.93,5.93,0,0,0-.1,2,6.94,6.94,0,0,0,.59,2.07,2.23,2.23,0,0,0,.52.73,1.48,1.48,0,0,0,.72.38,1.62,1.62,0,0,0,.87,0,3,3,0,0,0,1-.5,4.67,4.67,0,0,0,1-1.06,7.39,7.39,0,0,0,.75-1.35,9.4,9.4,0,0,0,.48-1.53,10,10,0,0,0,.23-1.59,5.46,5.46,0,0,0-.17-1.75,5.14,5.14,0,0,0-.61-1.41,1.13,1.13,0,0,0-.33-.36,1.78,1.78,0,0,0-.46-.22,1.32,1.32,0,0,0-.53-.05,1.7,1.7,0,0,0-.57.14,3,3,0,0,0-.8.57,5.17,5.17,0,0,0-.69.88,6.36,6.36,0,0,0-.84,2.28,4.12,4.12,0,0,0,0,1.16,3.14,3.14,0,0,0,.29,1,1.22,1.22,0,0,0,.51.56,1,1,0,0,0,.65.1,1.22,1.22,0,0,0,.6-.37A2,2,0,0,0,763.83,1078.86Zm-3.19-1.8c0,.35,0,.52.06.87a3.6,3.6,0,0,0,.13.82,5.24,5.24,0,0,0,.26.76,6.08,6.08,0,0,0,.44.84l-.18-.33-.16-.34a5.29,5.29,0,0,1-.27-.76,3.6,3.6,0,0,1-.13-.82l0-.87c0-.28.07-.41.11-.68a7.37,7.37,0,0,1,.29-1.12,6.49,6.49,0,0,1,.54-1.09,5.85,5.85,0,0,1,.59-.77,3.37,3.37,0,0,1,.77-.65,2.82,2.82,0,0,1,1.92-.57,1.73,1.73,0,0,1,1.22,1l.06.11a.37.37,0,0,1,0,.11,1,1,0,0,0-.08-.21,1.14,1.14,0,0,1-.1-.19,1.72,1.72,0,0,0-1.24-1,2.86,2.86,0,0,0-1.92.57,4,4,0,0,0-.77.65,6.21,6.21,0,0,0-.58.77,6.56,6.56,0,0,0-.55,1.09,5.68,5.68,0,0,0-.29,1.11C760.71,1076.65,760.68,1076.78,760.64,1077.06Zm3.27,2.85a.77.77,0,0,0,0-.25l-.07.1-.07.1a1.63,1.63,0,0,1-.78.55,1.23,1.23,0,0,1-.91,0,1.55,1.55,0,0,1-.62-.54,1.31,1.31,0,0,0,.26.37,1.53,1.53,0,0,0,.38.29,1.36,1.36,0,0,0,.46.13,1.24,1.24,0,0,0,.53-.06,1.72,1.72,0,0,0,.43-.21,2.65,2.65,0,0,0,.34-.33.18.18,0,0,1,0-.07Z" transform="translate(-738.13 -1061.8)"/><path class="cls-2" d="M771.37,1076.11a1.33,1.33,0,0,1-.49-.09,1.6,1.6,0,0,1-.42-.23,1.24,1.24,0,0,1-.35-.49,1,1,0,0,1-.06-.75,1.4,1.4,0,0,1,.39-.61,1.06,1.06,0,0,1,.59-.29.53.53,0,0,1,.52.26,1.57,1.57,0,0,1,.14.29,2.52,2.52,0,0,1,.14.33c0,.11.07.22.1.32l.07.26a.78.78,0,0,0,.3,0,1.08,1.08,0,0,0,.39-.17,2.91,2.91,0,0,0,.47-.43,4.86,4.86,0,0,0,.55-.78.48.48,0,0,1,.2-.22.24.24,0,0,1,.2,0,.17.17,0,0,1,.1.14.4.4,0,0,1-.08.25,5,5,0,0,1-.48.87,4.1,4.1,0,0,1-.51.61,3.35,3.35,0,0,1-.52.39,1.82,1.82,0,0,1-.45.19c0,.3,0,.63,0,1a6.44,6.44,0,0,1-.17,1.13,4.25,4.25,0,0,1-.42,1.07,2.2,2.2,0,0,1-.8.83.93.93,0,0,1-.9,0,2.23,2.23,0,0,1-.79-.67,5.09,5.09,0,0,1-.62-1.08,5.91,5.91,0,0,1-.36-1.21,3.49,3.49,0,0,1-.07-1c0-.31.13-.5.3-.59l1.07-.57c.06,0,.1,0,.12,0a.15.15,0,0,1,.06.09v.15q0,.09,0,.15a6.67,6.67,0,0,0,0,.92,5.45,5.45,0,0,0,.13.95,1.84,1.84,0,0,0,.31.69.42.42,0,0,0,.5.17.64.64,0,0,0,.36-.28,2.59,2.59,0,0,0,.25-.5q.1-.29.18-.57C771.29,1076.41,771.33,1076.25,771.37,1076.11Zm-2.92-.4a.76.76,0,0,0-.12.34,3.68,3.68,0,0,0,0,.47,3,3,0,0,0,.07.45,1,1,0,0,0,.11.31c0-.07,0-.17-.07-.31s0-.27,0-.42a2.6,2.6,0,0,1,0-.4.49.49,0,0,1,.09-.28l.62-.33a.45.45,0,0,0,0-.11.34.34,0,0,1,0-.1C768.86,1075.48,768.72,1075.55,768.45,1075.71Zm2.09,2.77a1.35,1.35,0,0,0,.56-.4,3,3,0,0,0,.37-.62,3,3,0,0,0,.21-.69,2.11,2.11,0,0,0,0-.6,2.74,2.74,0,0,1-.11.56,2.94,2.94,0,0,1-.24.62,2.43,2.43,0,0,1-.37.57,1.29,1.29,0,0,1-.49.39.66.66,0,0,1-.48,0,.88.88,0,0,1-.36-.24,1.44,1.44,0,0,1-.25-.4,3,3,0,0,1-.17-.44,2.26,2.26,0,0,0,.1.46,1.51,1.51,0,0,0,.25.47.94.94,0,0,0,.4.31A.74.74,0,0,0,770.54,1078.48Zm2.25-3.21a1.56,1.56,0,0,1-.92.2l-.15,0c0-.1-.06-.24-.1-.4a4,4,0,0,0-.15-.49,1.53,1.53,0,0,0-.22-.4.35.35,0,0,0-.27-.14.41.41,0,0,0-.27.12l-.2.21a.81.81,0,0,0-.11.71.61.61,0,0,1,0-.26,1.08,1.08,0,0,1,.11-.28,1.1,1.1,0,0,1,.2-.23.52.52,0,0,1,.26-.1.3.3,0,0,1,.26.15,1.86,1.86,0,0,1,.19.4c0,.15.1.31.14.47s.07.31.09.42a1.44,1.44,0,0,0,.6,0A1.4,1.4,0,0,0,772.79,1075.27Z" transform="translate(-738.13 -1061.8)"/><path class="cls-2" d="M776.18,1072.39a1.21,1.21,0,0,1,.17.76,2.32,2.32,0,0,1-.26.89,3.12,3.12,0,0,1-.61.82,2.92,2.92,0,0,1-.9.61,1.15,1.15,0,0,0,.72-.06,3.31,3.31,0,0,0,1.23-1,8.12,8.12,0,0,0,1.27-2.11.21.21,0,0,1,.18-.11c.1,0,.14,0,.13.11a16.82,16.82,0,0,1-.75,2.53,10.09,10.09,0,0,1-.78,1.58,3.58,3.58,0,0,1-.69.84,3,3,0,0,1-.48.33,1.19,1.19,0,0,1-1.44-.24,2.35,2.35,0,0,1-.46-.72,4.12,4.12,0,0,1-.29-2,4.08,4.08,0,0,1,.23-1.06,2.84,2.84,0,0,1,.51-.9,2,2,0,0,1,.81-.61,1.53,1.53,0,0,1,.58-.13,1.44,1.44,0,0,1,.4.07.77.77,0,0,1,.27.19C776.08,1072.27,776.14,1072.33,776.18,1072.39Zm-.21.71a1.15,1.15,0,0,0,0-.26.87.87,0,0,0-.1-.24.74.74,0,0,0-.39-.31,1,1,0,0,0-.59.09,1.69,1.69,0,0,0-.63.5,2.88,2.88,0,0,0-.4.7,3.19,3.19,0,0,0-.22.77,2.93,2.93,0,0,0-.06.69,1.34,1.34,0,0,0,0,.28l0,.29h0a.69.69,0,0,1,0-.2,1.28,1.28,0,0,1,0-.19,6.45,6.45,0,0,1,.07-.69,3.68,3.68,0,0,1,.21-.77,2.94,2.94,0,0,1,.4-.71,1.5,1.5,0,0,1,.62-.5,1,1,0,0,1,.6-.08.67.67,0,0,1,.39.31,1.09,1.09,0,0,1,.08.15A1.13,1.13,0,0,1,776,1073.1Zm-1.56,2.72a1.5,1.5,0,0,0,.93.07,2.31,2.31,0,0,0,.84-.39,2.83,2.83,0,0,0,.68-.7,3.29,3.29,0,0,0,.45-.81,5.2,5.2,0,0,1-.5.68,5.53,5.53,0,0,1-.65.62,2.23,2.23,0,0,1-.77.45,1.72,1.72,0,0,1-.5.11A1.27,1.27,0,0,1,774.41,1075.82Zm.82-2.46a.51.51,0,0,0-.32.12l-.25.19a1.54,1.54,0,0,0-.52.78,1,1,0,0,0,.05.73,2.11,2.11,0,0,0,.59-.49,4,4,0,0,0,.43-.6,1.49,1.49,0,0,0,.18-.51C775.4,1073.44,775.35,1073.36,775.23,1073.36Zm.52.2a.78.78,0,0,1,0,.22,1.43,1.43,0,0,1-.08.22,2.21,2.21,0,0,1-.18.34,1.85,1.85,0,0,1-.23.34,1.89,1.89,0,0,0,.46-.53A.68.68,0,0,0,775.75,1073.56Z" transform="translate(-738.13 -1061.8)"/><path class="cls-2" d="M777,1071.83a1.71,1.71,0,0,1,.4-.48,1.39,1.39,0,0,1,.5-.28.89.89,0,0,1,.51,0,.86.86,0,0,1,.46.29,1.94,1.94,0,0,1,.35.68,8.9,8.9,0,0,1,.27,1c.12-.39.25-.78.4-1.15a6.91,6.91,0,0,1,.5-1,3.91,3.91,0,0,1,.63-.79,1.84,1.84,0,0,1,.79-.44.47.47,0,0,1,.43.06.75.75,0,0,1,.22.37,1.84,1.84,0,0,1,.07.55c0,.22,0,.43,0,.65s0,.42,0,.62a2.42,2.42,0,0,0,0,.48q0,.2.09.24s.15,0,.26-.12a1.91,1.91,0,0,0,.31-.4c.1-.16.2-.32.3-.5s.2-.35.29-.53.2-.36.3-.52.23-.25.33-.22.13.12.07.28a6.47,6.47,0,0,0-.31.77l-.31.91c-.11.31-.22.63-.34.94a7.83,7.83,0,0,1-.39.87,3.1,3.1,0,0,1-.48.67,1.27,1.27,0,0,1-.61.36.75.75,0,0,1-.56,0,.73.73,0,0,1-.32-.37,1.91,1.91,0,0,1-.13-.59,5.48,5.48,0,0,1,0-.7,6.78,6.78,0,0,1,.07-.68c0-.22,0-.39.07-.53a.6.6,0,0,0,0-.35.15.15,0,0,0-.17,0,.79.79,0,0,0-.25.17,1.33,1.33,0,0,0-.23.3l-.21.34a1.63,1.63,0,0,0-.16.37,5.35,5.35,0,0,0-.16.66c-.06.28-.14.68-.22,1.21h0a1.13,1.13,0,0,1,0,.3,1.33,1.33,0,0,1-.1.34,1.11,1.11,0,0,1-.17.3.53.53,0,0,1-.23.19l-.39.14-.42.16-.2.06a.12.12,0,0,1-.11,0,.24.24,0,0,1,0-.12c0-.06,0-.14,0-.25s0-.53,0-.84,0-.63-.07-.95-.06-.62-.1-.92-.08-.56-.13-.78a.41.41,0,0,0-.18-.3.9.9,0,0,0-.28-.11l-.21,0S777,1071.92,777,1071.83Zm2.1,1.42c-.09-.36-.18-.7-.28-1a2.15,2.15,0,0,0-.38-.71.56.56,0,0,0-.28-.17.57.57,0,0,0-.29,0,.72.72,0,0,0-.27.15,1.14,1.14,0,0,0-.24.25l.11,0a1.08,1.08,0,0,1,.48-.28.48.48,0,0,1,.5.2,1.18,1.18,0,0,1,.22.36c.07.15.13.31.19.47s.11.3.15.44A1.44,1.44,0,0,0,779.14,1073.25Zm1-1.2a5.69,5.69,0,0,0,.32-.55c.1-.2.21-.4.33-.59a2.47,2.47,0,0,1,.44-.52,1.11,1.11,0,0,1,.6-.32s.08,0,.11.1.06.14.09.23.05.18.06.26a.66.66,0,0,1,0,.17s0-.11,0-.22,0-.22,0-.34a1.71,1.71,0,0,0-.08-.29.14.14,0,0,0-.18-.08,1.4,1.4,0,0,0-.56.3,3.56,3.56,0,0,0-.48.54,5.38,5.38,0,0,0-.38.66C780.32,1071.63,780.23,1071.85,780.15,1072.05Zm3.26.16a3.13,3.13,0,0,1-.36.44,1.15,1.15,0,0,1-.29.2.42.42,0,0,1-.35,0,.38.38,0,0,1-.3-.26,1.07,1.07,0,0,1-.05-.4,1,1,0,0,0,0,.51.41.41,0,0,0,.33.31.57.57,0,0,0,.34,0,1.15,1.15,0,0,0,.29-.2,1.58,1.58,0,0,0,.22-.29A2.7,2.7,0,0,0,783.41,1072.21Z" transform="translate(-738.13 -1061.8)"/><path class="cls-2" d="M787.83,1071.22a6.44,6.44,0,0,0,1,.5,4.86,4.86,0,0,0,.94.25,4.63,4.63,0,0,0,.91,0,7.34,7.34,0,0,0,.92-.09,4.71,4.71,0,0,0,1.45-.5,5.64,5.64,0,0,0,1.25-.93,7.8,7.8,0,0,0,1-1.24,8.29,8.29,0,0,0,.78-1.43,7.57,7.57,0,0,0,.45-1.5,5.15,5.15,0,0,0,.09-1.45,2.77,2.77,0,0,0-.24-.92,1.59,1.59,0,0,0-.55-.68,2.07,2.07,0,0,0-.93-.37,4,4,0,0,0-1.41,0,8.78,8.78,0,0,0-3.63,1.48,4.9,4.9,0,0,0-1.13,1.08,1.57,1.57,0,0,0-.38,1,.85.85,0,0,0,.33.57,2,2,0,0,0,.91.31,6.17,6.17,0,0,1-.53.69,3.12,3.12,0,0,1-.51.47,2.21,2.21,0,0,1-.5.3,3.6,3.6,0,0,1-.5.16,1.22,1.22,0,0,1-.76,0,1,1,0,0,1-.46-.36,1.15,1.15,0,0,1-.21-.52,1.52,1.52,0,0,1,0-.51,3.09,3.09,0,0,1,.42-1.31,5.77,5.77,0,0,1,1-1.27,9.55,9.55,0,0,1,1.4-1.15,12.54,12.54,0,0,1,1.68-1,13.27,13.27,0,0,1,1.81-.7,12.61,12.61,0,0,1,1.77-.39,8.13,8.13,0,0,1,2.37,0,4.17,4.17,0,0,1,1.61.58,2.56,2.56,0,0,1,.91,1,3.16,3.16,0,0,1,.28,1.3,5.67,5.67,0,0,1-.26,1.6,9,9,0,0,1-.7,1.7,12.14,12.14,0,0,1-1.09,1.66,10.9,10.9,0,0,1-1.4,1.48,8.89,8.89,0,0,1-1.67,1.16,6.75,6.75,0,0,1-1.93.7,10.61,10.61,0,0,1-1.1.14,6.32,6.32,0,0,1-1.23,0,6,6,0,0,1-1.21-.22,3.05,3.05,0,0,1-1-.53.7.7,0,0,1-.21-.35,1.14,1.14,0,0,1-.08-.47.78.78,0,0,1,.08-.37C787.61,1071.18,787.7,1071.16,787.83,1071.22Zm11.07-6.47a3.27,3.27,0,0,0-.13-.87,2.11,2.11,0,0,0-.47-.8,2.4,2.4,0,0,0-.82-.58,4.16,4.16,0,0,0-1-.3,6.9,6.9,0,0,0-1.13-.09,10.52,10.52,0,0,0-1.14.09,11,11,0,0,0-2.26.55,12.24,12.24,0,0,0-2.06,1,11.43,11.43,0,0,0-1.18.78,7.32,7.32,0,0,0-1.05.94,6.33,6.33,0,0,0-.78,1.07,2.86,2.86,0,0,0-.36,1.14,2.05,2.05,0,0,0,0,.56,1.21,1.21,0,0,0,0-.19v-.18a3,3,0,0,1,.36-1.14,6,6,0,0,1,.78-1.07,8,8,0,0,1,1.05-.94,13.21,13.21,0,0,1,1.17-.78A12.48,12.48,0,0,1,792,1063a11.76,11.76,0,0,1,2.27-.56,10.36,10.36,0,0,1,1.13-.08,5.91,5.91,0,0,1,1.12.08,4.83,4.83,0,0,1,1,.31,2.4,2.4,0,0,1,.81.58,1.72,1.72,0,0,1,.44.71,3.09,3.09,0,0,1,.16.78Zm-1.88.33a5.91,5.91,0,0,1-.18,1.55,8.4,8.4,0,0,1-.52,1.51,9.56,9.56,0,0,1-.76,1.33,8.68,8.68,0,0,1-1,1.23,6.9,6.9,0,0,1-1.31,1,4.7,4.7,0,0,1-1.58.54,8.07,8.07,0,0,1-1,.1,5,5,0,0,1-1-.07,5,5,0,0,1-.92-.24,5.57,5.57,0,0,1-.91-.41l0,.18a5.41,5.41,0,0,0,1.81.67,6.29,6.29,0,0,0,2,0,4.63,4.63,0,0,0,1.57-.53,6.2,6.2,0,0,0,1.3-1,7.54,7.54,0,0,0,1-1.22,8.73,8.73,0,0,0,.76-1.34,8.21,8.21,0,0,0,.56-1.6A5.47,5.47,0,0,0,797,1065.08Zm-8,2.54a2.53,2.53,0,0,1-.64-.31,1,1,0,0,1-.37-.52.93.93,0,0,0,.29.6,1.55,1.55,0,0,0,.61.36A.52.52,0,0,0,789,1067.62Zm3.82-3.26a1,1,0,0,1,.38-.25,1.72,1.72,0,0,1,.48-.13,1,1,0,0,1,.4,0c.1,0,.15.08.12.15-.25.78-.48,1.46-.7,2s-.44,1.13-.65,1.61-.42.93-.63,1.34-.41.82-.63,1.24a.8.8,0,0,1-.34.31,4.17,4.17,0,0,1-.6.27,3.94,3.94,0,0,1-.69.21,3.44,3.44,0,0,1-.64.11.88.88,0,0,1-.42,0c-.1,0-.12-.1-.07-.21s.34-.61.62-1.08.6-1,1-1.63l1.17-1.94Zm.28.15c-.11.2-.23.38-.35.57s-.23.37-.34.57q-.53.82-1,1.65c-.34.54-.67,1.09-1,1.65l-.59,1c-.19.33-.38.66-.56,1h.14l.51-.9c.18-.3.36-.6.53-.9.33-.56.67-1.11,1-1.65l1-1.65c.12-.19.23-.39.35-.57l.34-.57a.36.36,0,0,1,.12-.08l.14-.06.1,0a.46.46,0,0,0,.15,0,.53.53,0,0,0,0-.11.19.19,0,0,1,0-.1l-.19,0-.16,0-.13.06A.31.31,0,0,0,793.13,1064.51Z" transform="translate(-738.13 -1061.8)"/><path class="cls-2" d="M802.62,1067.8a1.27,1.27,0,0,1-.16.77,2.46,2.46,0,0,1-.6.7,3.19,3.19,0,0,1-.89.49,2.72,2.72,0,0,1-1.06.18,1.2,1.2,0,0,0,.67.25,3.23,3.23,0,0,0,1.5-.36,8.15,8.15,0,0,0,2-1.39.19.19,0,0,1,.21,0c.09,0,.11.09.07.16a17.52,17.52,0,0,1-1.72,2,9.81,9.81,0,0,1-1.35,1.11,3.72,3.72,0,0,1-1,.48,2.41,2.41,0,0,1-.57.1,1.17,1.17,0,0,1-.77-.22,1.15,1.15,0,0,1-.42-.59,2.27,2.27,0,0,1-.12-.85,4.4,4.4,0,0,1,.15-1,4.75,4.75,0,0,1,.42-1,4.32,4.32,0,0,1,.65-.86,2.83,2.83,0,0,1,.82-.61,2.14,2.14,0,0,1,1-.23,1.78,1.78,0,0,1,.58.13,1.27,1.27,0,0,1,.33.23.72.72,0,0,1,.16.28A2,2,0,0,1,802.62,1067.8Zm-.48.56a1,1,0,0,0,.08-.25.57.57,0,0,0,0-.26.69.69,0,0,0-.22-.44.94.94,0,0,0-.57-.16,1.53,1.53,0,0,0-.77.2,2.51,2.51,0,0,0-.65.47,2.9,2.9,0,0,0-.51.6,3.49,3.49,0,0,0-.34.61,1.09,1.09,0,0,0-.1.25l-.09.28h0l.06-.2.07-.18a5.44,5.44,0,0,1,.34-.59,3.24,3.24,0,0,1,.51-.61,2.81,2.81,0,0,1,.65-.48,1.53,1.53,0,0,1,.77-.2,1,1,0,0,1,.57.17.72.72,0,0,1,.23.45,1,1,0,0,1,0,.17A1,1,0,0,1,802.14,1068.36Zm-2.53,1.84a1.48,1.48,0,0,0,.81.44,2.2,2.2,0,0,0,.92,0,3.11,3.11,0,0,0,.9-.35,3.63,3.63,0,0,0,.75-.55,7.92,7.92,0,0,1-.74.41,5.18,5.18,0,0,1-.84.29,2.44,2.44,0,0,1-.88.1,1.94,1.94,0,0,1-.49-.11A1.59,1.59,0,0,1,799.61,1070.2Zm1.75-1.9a.49.49,0,0,0-.34,0l-.29.07a1.46,1.46,0,0,0-.8.5,1,1,0,0,0-.25.68,2.21,2.21,0,0,0,.74-.2,3.29,3.29,0,0,0,.62-.38,1.36,1.36,0,0,0,.38-.38C801.49,1068.43,801.47,1068.34,801.36,1068.3Zm.39.39a.76.76,0,0,1-.12.19l-.16.17-.3.23a2,2,0,0,1-.35.21,1.82,1.82,0,0,0,.63-.29A.69.69,0,0,0,801.75,1068.69Z" transform="translate(-738.13 -1061.8)"/><path class="cls-2" d="M809.63,1065.36a6.69,6.69,0,0,1-1,1.13,12.33,12.33,0,0,1-1.17.88c-.41.26-.84.51-1.28.75l-1.33.74a1.39,1.39,0,0,0,.25,1.1,1.32,1.32,0,0,0,.83.43,1.17,1.17,0,0,0,.55-.11,3.84,3.84,0,0,0,.63-.33c.22-.14.44-.29.66-.46l.62-.48c.16-.12.3-.15.39-.09s.08.17,0,.29-.31.33-.49.55l-.59.7c-.21.24-.43.48-.67.72a5.24,5.24,0,0,1-.72.63,3.42,3.42,0,0,1-.76.43,1.7,1.7,0,0,1-.8.12,1.55,1.55,0,0,1-1.11-.53,2,2,0,0,1-.41-1.19,4.69,4.69,0,0,1,.26-1.68,9,9,0,0,1,.9-2c.14-.21.31-.47.53-.77a9.45,9.45,0,0,1,.75-.91,11.5,11.5,0,0,1,.93-.91,7.5,7.5,0,0,1,1.05-.78,4.77,4.77,0,0,1,1.12-.49,2.58,2.58,0,0,1,1.1-.07.65.65,0,0,1,.48.28.82.82,0,0,1,.1.53,2.33,2.33,0,0,1-.23.71A4.77,4.77,0,0,1,809.63,1065.36Zm.06-.83c0-.09.09-.19.12-.28s.07-.19.1-.29a.91.91,0,0,0,0-.33.33.33,0,0,0-.23-.28,1.74,1.74,0,0,0-.92.06,4.66,4.66,0,0,0-.92.4,5.7,5.7,0,0,0-.81.54,7.61,7.61,0,0,0-.61.52q-.44.42-.84.87a11.16,11.16,0,0,0-.75,1,8.74,8.74,0,0,0-.61,1,7.3,7.3,0,0,0-.42,1.06,8.91,8.91,0,0,1,1-1.92,12.66,12.66,0,0,1,1.55-1.81c.15-.15.34-.32.58-.52a6.64,6.64,0,0,1,.8-.55,4.58,4.58,0,0,1,.91-.4,2,2,0,0,1,.93-.07.19.19,0,0,1,.14.16,1,1,0,0,1,0,.3c0,.11,0,.22,0,.33S809.7,1064.47,809.69,1064.53Zm-5.27,4.28a1.53,1.53,0,0,0,0,.7,1.61,1.61,0,0,0,.24.62,1.51,1.51,0,0,0,.48.46,1.57,1.57,0,0,0,.7.23,1.54,1.54,0,0,0,.94-.21,3.4,3.4,0,0,0,.76-.58l-.39.24a3.29,3.29,0,0,1-.42.21,2.16,2.16,0,0,1-.43.14,1,1,0,0,1-.41,0,1.61,1.61,0,0,1-.69-.23,1.43,1.43,0,0,1-.45-.43,1.58,1.58,0,0,1-.24-.57A2.09,2.09,0,0,1,804.42,1068.81Zm1.44-2.17c-.17.24-.33.47-.46.69a4.52,4.52,0,0,0-.32.61c.5-.36,1-.73,1.42-1.1a14.05,14.05,0,0,0,1.15-1,4.51,4.51,0,0,0,.7-.82c.15-.23.17-.39.06-.47s-.16,0-.33.09a5,5,0,0,0-.62.41q-.36.29-.78.69A9.69,9.69,0,0,0,805.86,1066.64Zm2.88-1.6a6.55,6.55,0,0,1-.67.74c-.29.28-.6.56-.93.86s-.65.57-1,.83-.58.49-.8.65q.39-.24.9-.63c.33-.26.67-.54,1-.82s.63-.58.9-.87A4.39,4.39,0,0,0,808.74,1065Z" transform="translate(-738.13 -1061.8)"/><path class="cls-2" d="M808,1068.79c.06-.13.08-.24,0-.31a.67.67,0,0,0-.17-.2,1.08,1.08,0,0,1-.15-.13s0-.08.09-.13a2,2,0,0,1,.59-.23,1.74,1.74,0,0,1,.6,0,1,1,0,0,1,.49.23.84.84,0,0,1,.29.47.73.73,0,0,1,0,.41,4.11,4.11,0,0,1-.21.42l-.28.41a1.75,1.75,0,0,0-.23.42,1.66,1.66,0,0,0-.17.58q0,.16.15.15a.93.93,0,0,0,.37-.18c.16-.1.33-.23.53-.37l.59-.46c.21-.15.41-.31.59-.43s.32-.12.4-.06.07.16,0,.29l-.62.6-.69.68-.71.67c-.24.21-.47.41-.69.57a3.69,3.69,0,0,1-.64.38,1,1,0,0,1-.55.09.79.79,0,0,1-.83-.86,2.22,2.22,0,0,1,.15-.76q.17-.42.36-.84l.42-.78C807.78,1069.17,807.9,1069,808,1068.79Zm1.26.2a1.12,1.12,0,0,0,.12-.35.43.43,0,0,0-.09-.34.57.57,0,0,0-.47-.25,1.47,1.47,0,0,0-.59.1l0,0,0,0a1.47,1.47,0,0,1,.47,0,.56.56,0,0,1,.38.17.52.52,0,0,1,.14.31A.8.8,0,0,1,809.25,1069Zm.37,1.9-.2.13-.24.1a.67.67,0,0,1-.24,0,.44.44,0,0,1-.24-.07.49.49,0,0,1-.21-.22.6.6,0,0,1,0-.3,1.73,1.73,0,0,1,.07-.31,1.5,1.5,0,0,0,.08-.27l-.14.31a1.54,1.54,0,0,0-.1.35.62.62,0,0,0,0,.33.43.43,0,0,0,.23.27.56.56,0,0,0,.3.06.9.9,0,0,0,.28-.08.78.78,0,0,0,.24-.16Zm0-5.14a1.92,1.92,0,0,1,.46-.33,2.1,2.1,0,0,1,.53-.19,2.25,2.25,0,0,1,.51,0,1.14,1.14,0,0,1,.43.13.59.59,0,0,1,.27.27.7.7,0,0,1,.06.35,1.16,1.16,0,0,1-.15.4,1.41,1.41,0,0,1-.35.39,2.55,2.55,0,0,1-.47.31,2,2,0,0,1-.51.17,1.65,1.65,0,0,1-.49,0,1.08,1.08,0,0,1-.42-.11.65.65,0,0,1-.26-.26.61.61,0,0,1-.07-.35.82.82,0,0,1,.13-.4A1.32,1.32,0,0,1,809.59,1065.75Zm0,.63a1.48,1.48,0,0,1,.25-.31,1.52,1.52,0,0,1,.37-.26,1.38,1.38,0,0,1,.46-.15.92.92,0,0,1,.29,0,.67.67,0,0,1,.31.07l0,0,0,0a.3.3,0,0,1,.06.23.81.81,0,0,1-.05.21.83.83,0,0,0,.12-.26.88.88,0,0,0,0-.17.22.22,0,0,0-.09-.17s0,0-.06,0a.53.53,0,0,0-.28-.07l-.31,0a1.58,1.58,0,0,0-.72.33A1.21,1.21,0,0,0,809.55,1066.38Z" transform="translate(-738.13 -1061.8)"/><path class="cls-2" d="M813.35,1068.3a2.21,2.21,0,0,1,.6.24,1.64,1.64,0,0,1,.4.28.8.8,0,0,1,.18.3.25.25,0,0,1-.07.24l-.43.37-.43.33a.68.68,0,0,1-.21.13s-.06,0-.07-.14a.53.53,0,0,0-.14-.29.72.72,0,0,0-.27-.15,1.7,1.7,0,0,0-.31-.06h-.26a1.56,1.56,0,0,0-.8.28,1.07,1.07,0,0,0-.41.53.67.67,0,0,0,.07.57,1,1,0,0,0,.65.41,3.23,3.23,0,0,0,1.55-.07,8.1,8.1,0,0,0,2.27-1,.2.2,0,0,1,.21,0c.08,0,.1.1,0,.17a18.21,18.21,0,0,1-2.08,1.63,9.7,9.7,0,0,1-1.54.83,3.57,3.57,0,0,1-1,.3,3.29,3.29,0,0,1-.58,0,1.23,1.23,0,0,1-.72-.36,1.2,1.2,0,0,1-.31-.66,2.31,2.31,0,0,1,0-.86,4.16,4.16,0,0,1,.93-1.84,4.59,4.59,0,0,1,.8-.73,3,3,0,0,1,.93-.44A2.16,2.16,0,0,1,813.35,1068.3Zm-.1.34a1.72,1.72,0,0,0-.81,0,2.77,2.77,0,0,0-.74.34,3.37,3.37,0,0,0-.61.51,4.54,4.54,0,0,0-.44.53,3.62,3.62,0,0,0-.22.32c-.06.12-.12.23-.18.36l.15-.27.16-.26a3.86,3.86,0,0,1,.45-.53,3,3,0,0,1,.61-.5,2.79,2.79,0,0,1,.74-.35,1.6,1.6,0,0,1,.81,0,1.77,1.77,0,0,1,.37.12,1.6,1.6,0,0,1,.34.2.22.22,0,0,0,.07.07l.07.09.06,0,.06,0a.33.33,0,0,0-.08-.11l-.1-.1a1.27,1.27,0,0,0-.34-.2Zm.78,3,.15-.12.15-.11a2.86,2.86,0,0,1-.41.15,3.17,3.17,0,0,1-.41.12,5.63,5.63,0,0,1-.87.15,2.79,2.79,0,0,1-.91-.08,1.79,1.79,0,0,1-.61-.28,1.05,1.05,0,0,1-.37-.49.76.76,0,0,1-.06-.36,1.09,1.09,0,0,1,.07-.35,1.88,1.88,0,0,0-.14.42.93.93,0,0,0,0,.44,1,1,0,0,0,.39.49,2,2,0,0,0,.6.28,2.46,2.46,0,0,0,.9.08,5.63,5.63,0,0,0,.87-.15l.31-.09Zm-.57-2a.13.13,0,0,1,0,.07l0,0Z" transform="translate(-738.13 -1061.8)"/><path class="cls-2" d="M817,1074.67c-.35-.11-.58-.28-.64-.54a1.51,1.51,0,0,1,.11-.89c-.18.13-.35.24-.52.34a3.15,3.15,0,0,1-.52.26,2,2,0,0,1-.52.13,1.72,1.72,0,0,1-.54-.06.8.8,0,0,1-.5-.35.92.92,0,0,1-.12-.57,2.16,2.16,0,0,1,.17-.7,4.16,4.16,0,0,1,.4-.71,4.31,4.31,0,0,1,.51-.62,3.75,3.75,0,0,1,.54-.43,5.52,5.52,0,0,1,.66-.38,3.79,3.79,0,0,1,.78-.28,3.42,3.42,0,0,1,.84-.13,2.52,2.52,0,0,1,.83.1l.28.09a1.3,1.3,0,0,1,.25.1,1.53,1.53,0,0,1,.22.16,1.17,1.17,0,0,1,.19.27.12.12,0,0,0,0,.07.08.08,0,0,1,0,.07.26.26,0,0,1-.09.12,1.63,1.63,0,0,1-.27.19l.16.06a.92.92,0,0,1,.28.13s.06.08,0,.12a.17.17,0,0,1-.09.1.42.42,0,0,1-.12.08,3.24,3.24,0,0,0-.51.43,2,2,0,0,0-.37.47,1.07,1.07,0,0,0-.23.55.2.2,0,0,0,.19.19,1.21,1.21,0,0,0,.48-.08c.2-.06.42-.15.66-.24l.74-.32.69-.32c.19-.08.33-.07.41,0s0,.17-.09.27l-.72.49-.8.55-.81.55q-.4.25-.78.45a4.23,4.23,0,0,1-.71.27A1.17,1.17,0,0,1,817,1074.67Zm-.16-2.09a2.36,2.36,0,0,0,.35-.16,1.24,1.24,0,0,0,.27-.17,2.4,2.4,0,0,0,.24-.22l.28-.33,0,0a4,4,0,0,1-.44.36,2.65,2.65,0,0,1-.52.29,2,2,0,0,1-.6.15,1.69,1.69,0,0,1-.66-.08,1,1,0,0,1-.65-.5.79.79,0,0,1,.05-.7,1.14,1.14,0,0,0-.18.39.73.73,0,0,0,0,.39.61.61,0,0,0,.22.33,1.17,1.17,0,0,0,.46.24,2,2,0,0,0,.59.08A1.62,1.62,0,0,0,816.79,1072.58Zm-1-.41.24,0h.37a2.25,2.25,0,0,0,.44-.12,1.65,1.65,0,0,0,.49-.28l.15-.17c0-.06.13-.12.16-.16a.42.42,0,0,0-.08-.44.79.79,0,0,0-.38-.26,1.6,1.6,0,0,0-.56-.07,1.86,1.86,0,0,0-.48.09,1.28,1.28,0,0,0-.38.21,1.64,1.64,0,0,0-.26.27.71.71,0,0,0-.15.5C815.39,1072,815.54,1072.09,815.8,1072.17Zm.3-1.7a4.47,4.47,0,0,1,1-.28,2.48,2.48,0,0,1,1.09.08c.14,0,.27.07.37.11a.55.55,0,0,1,.28.21l.06,0,.06,0a.58.58,0,0,0-.28-.28,3.79,3.79,0,0,0-.4-.13,2,2,0,0,0-.55-.09,2.86,2.86,0,0,0-.58.06,3.83,3.83,0,0,0-.58.16A4.09,4.09,0,0,0,816.1,1070.47Zm2.76.83a.18.18,0,0,1,.07,0l.08-.06-.61-.23-.2.11Zm.62,1.88.14-.09.14-.09-.31.11a2.09,2.09,0,0,1-.3.11l-.27.06a1.37,1.37,0,0,1-.28,0,.87.87,0,0,1-.28,0,.53.53,0,0,1-.25-.12.51.51,0,0,1-.18-.26.76.76,0,0,1,0-.3c0-.09.06-.19.1-.28l.13-.25,0,0a.24.24,0,0,0-.06.09.41.41,0,0,1-.05.09l-.13.25a1,1,0,0,0-.11.28.71.71,0,0,0,0,.29.43.43,0,0,0,.17.26.6.6,0,0,0,.25.13.86.86,0,0,0,.28,0,1.35,1.35,0,0,0,.28,0l.27-.08.19-.07a.6.6,0,0,1,.19-.06Z" transform="translate(-738.13 -1061.8)"/><path class="cls-2" d="M823.35,1071.3a2.67,2.67,0,0,1,.56.33,1.92,1.92,0,0,1,.35.35.63.63,0,0,1,.13.33.22.22,0,0,1-.11.22,4.64,4.64,0,0,1-.48.29l-.49.26a.63.63,0,0,1-.23.09s-.05,0-.05-.15a.46.46,0,0,0-.09-.31.88.88,0,0,0-.24-.19,1.15,1.15,0,0,0-.31-.11l-.26,0a1.62,1.62,0,0,0-.84.15,1,1,0,0,0-.49.45.66.66,0,0,0,0,.58,1,1,0,0,0,.58.51,3.5,3.5,0,0,0,1.56.2,8.53,8.53,0,0,0,2.43-.6.21.21,0,0,1,.21,0c.08.06.08.12,0,.18a17.42,17.42,0,0,1-2.35,1.25,10,10,0,0,1-1.67.57,3.64,3.64,0,0,1-1.1.11,2.86,2.86,0,0,1-.58-.1,1.16,1.16,0,0,1-.87-1.18,2.49,2.49,0,0,1,.18-.84,4.06,4.06,0,0,1,.49-.88,4.17,4.17,0,0,1,.74-.78,4,4,0,0,1,.91-.59,2.93,2.93,0,0,1,1-.28A2.22,2.22,0,0,1,823.35,1071.3Zm-.16.32a1.75,1.75,0,0,0-.82-.09,3,3,0,0,0-.79.22,3.85,3.85,0,0,0-.69.39,5.34,5.34,0,0,0-.53.45c-.09.1-.18.19-.26.29a2.43,2.43,0,0,0-.24.32l.19-.24.2-.23a5.34,5.34,0,0,1,.53-.45,3.16,3.16,0,0,1,.7-.39,3,3,0,0,1,.79-.22,1.58,1.58,0,0,1,.81.09,3.13,3.13,0,0,1,.36.19,1.05,1.05,0,0,1,.3.25l.06.08a.27.27,0,0,1,.06.1l.07,0,.07,0a.4.4,0,0,0-.07-.12.81.81,0,0,0-.08-.12,1.61,1.61,0,0,0-.31-.25Zm.31,3.06.17-.1.17-.08-.43.08-.43.05a5.41,5.41,0,0,1-.9,0,2.92,2.92,0,0,1-.89-.23,2.1,2.1,0,0,1-.57-.38,1.19,1.19,0,0,1-.3-.55,1.09,1.09,0,0,1,0-.36,1,1,0,0,1,.13-.33,1.07,1.07,0,0,0-.2.38.87.87,0,0,0,0,.45,1,1,0,0,0,.31.54,2,2,0,0,0,.56.38,2.44,2.44,0,0,0,.89.23,4.41,4.41,0,0,0,.89,0l.32,0Zm-.25-2.1a.15.15,0,0,1,0,.08l0,0Z" transform="translate(-738.13 -1061.8)"/><path class="cls-2" d="M830.08,1075.07c-.26.21-.6.51-1,.9s-.91.83-1.44,1.29a11.24,11.24,0,0,0,1.44-.26,13.39,13.39,0,0,0,1.6-.52c.22,0,.36,0,.42.08s0,.17-.15.25a7.94,7.94,0,0,1-1.19.66,9.19,9.19,0,0,1-1.13.42,9.48,9.48,0,0,1-1.1.24c-.36.06-.71.1-1,.13-.51.41-1,.81-1.55,1.19a11.88,11.88,0,0,1-1.55.94,5.86,5.86,0,0,1-1.47.51,2.31,2.31,0,0,1-1.33-.12.93.93,0,0,1-.51-.48,1,1,0,0,1,0-.75,1.86,1.86,0,0,1,.58-.83,3.47,3.47,0,0,1,1.32-.68,11.91,11.91,0,0,1,1.81-.42q.84-.12,1.62-.18l.92-.87a5.81,5.81,0,0,1-1.59.58,2.14,2.14,0,0,1-1.36-.16.76.76,0,0,1-.5-.63,1.55,1.55,0,0,1,.3-.88,4.79,4.79,0,0,1,.91-1,9.31,9.31,0,0,1,1.33-1c.18-.1.26-.2.25-.29a.5.5,0,0,0-.11-.26l-.17-.18c-.05-.06,0-.09.08-.12a2.1,2.1,0,0,1,.66,0,1.51,1.51,0,0,1,.59.16,1,1,0,0,1,.41.35.7.7,0,0,1,.09.52.78.78,0,0,1-.25.39,3.91,3.91,0,0,1-.48.4l-.56.38a6,6,0,0,0-.5.35,1,1,0,0,0-.29.28c-.06.08,0,.15.07.2a.94.94,0,0,0,.49.11,3.53,3.53,0,0,0,.73-.09,6.46,6.46,0,0,0,.87-.3,5.69,5.69,0,0,0,.94-.5l.47-.36c.15-.11.31-.2.46-.29a.37.37,0,0,1,.4,0l.53.34.24.17c.05,0,.07.07.06.1s0,.06-.08.09Zm-2.38,2.52c-.91.07-1.75.15-2.53.2a19.81,19.81,0,0,0-2.24.31,8.42,8.42,0,0,0-1.42.43,2.5,2.5,0,0,0-1,.81,2,2,0,0,1,.66-.52,4.42,4.42,0,0,1,.79-.33,13,13,0,0,1,2.3-.46c1-.12,2.1-.23,3.37-.32a5.71,5.71,0,0,0,.86-.15l.33-.09.32-.12a5.63,5.63,0,0,1-.69.14Zm-3.09,1c-.17.13-.39.28-.68.48s-.59.38-.89.57a6.51,6.51,0,0,1-.89.43.93.93,0,0,1-.68.06.36.36,0,0,1-.24-.28.56.56,0,0,1,.07-.36.92.92,0,0,0-.13.21.38.38,0,0,0,0,.44.51.51,0,0,0,.24.14,1.06,1.06,0,0,0,.69,0,5.08,5.08,0,0,0,.87-.44,9.78,9.78,0,0,0,.88-.6A8.74,8.74,0,0,0,824.61,1078.61Zm-3,1.24.3-.09c.18-.07.39-.16.63-.28a6.69,6.69,0,0,0,.77-.42,7.44,7.44,0,0,0,.77-.53l.06,0c-.28,0-.54.11-.79.18a4.63,4.63,0,0,0-.75.29,3.32,3.32,0,0,0-.88.58C821.58,1079.71,821.55,1079.81,821.66,1079.85Zm8-4.93.06-.06.06-.07,0,0-.24-.14-.21-.12-.68.43c-.23.15-.46.3-.7.44s-.49.26-.73.37a3.63,3.63,0,0,1-.75.24,3.4,3.4,0,0,1-.45.08,3,3,0,0,1-.52,0,1.21,1.21,0,0,1-.47-.12.82.82,0,0,1-.36-.33.32.32,0,0,1,0-.23.4.4,0,0,1,.09-.21,1.06,1.06,0,0,0-.17.26.4.4,0,0,0,0,.32.63.63,0,0,0,.32.3,1.62,1.62,0,0,0,.47.12h.53a3.74,3.74,0,0,0,.52-.09,3.45,3.45,0,0,0,.82-.25,6.16,6.16,0,0,0,.68-.34c.21-.13.43-.26.64-.41s.45-.29.72-.44a.8.8,0,0,1,.19.11Zm-3.1-1.08a.55.55,0,0,0,.22-.29.35.35,0,0,0-.13-.38.9.9,0,0,0-.35-.18,1.93,1.93,0,0,0-.41-.06v.07a.06.06,0,0,0,0,0v0a.87.87,0,0,1,.62.25.42.42,0,0,1,.11.28A.46.46,0,0,1,826.55,1073.84Z" transform="translate(-738.13 -1061.8)"/><path class="cls-2" d="M753.25,1148.53c.15,0,.25,0,.3.1s0,.17-.09.25a7.12,7.12,0,0,1-1.73.2,7.73,7.73,0,0,1-1.68-.21,6.8,6.8,0,0,1-1.47-.57,3.81,3.81,0,0,1-1.09-.86,3,3,0,0,1-.74-1.34,2.26,2.26,0,0,1,.1-1.19,2.74,2.74,0,0,1,.66-1,5.54,5.54,0,0,1,1-.77,4.86,4.86,0,0,1,1.17-.52,8.65,8.65,0,0,1,1.38-.29,9.12,9.12,0,0,1,1.48-.06,7.47,7.47,0,0,1,1.44.16,5.81,5.81,0,0,1,1.3.41,3.63,3.63,0,0,1,1,.69,2.6,2.6,0,0,1,.52.66,1.67,1.67,0,0,1,.23.67,1.18,1.18,0,0,1-.1.62,1.24,1.24,0,0,1-.47.5,2,2,0,0,1-.72.28,4.72,4.72,0,0,1-.8.1,1,1,0,0,1-.49-.11.42.42,0,0,1-.23-.23c0-.08,0-.16.1-.23a1,1,0,0,1,.52-.1.69.69,0,0,0,.43-.14.65.65,0,0,0,.24-.35.89.89,0,0,0,0-.46,1.08,1.08,0,0,0-.27-.47,3,3,0,0,0-1.06-.76,4.26,4.26,0,0,0-1.44-.39,5.29,5.29,0,0,0-1.66.13,5.05,5.05,0,0,0-1.72.8,2.31,2.31,0,0,0-.54.54,1.71,1.71,0,0,0-.27.66,1.65,1.65,0,0,0,.08.75,2.18,2.18,0,0,0,.49.78,5,5,0,0,0,.92.78,6.31,6.31,0,0,0,1.09.57,5.71,5.71,0,0,0,1.1.32A3.49,3.49,0,0,0,753.25,1148.53Zm3.38-3a.8.8,0,0,0,.19-.42,1,1,0,0,0-.06-.46,2,2,0,0,0-.23-.47,2.86,2.86,0,0,0-.36-.41,3.13,3.13,0,0,0-.92-.63,5.36,5.36,0,0,0-1.09-.36,9,9,0,0,0-1.14-.17,9.59,9.59,0,0,0-1.06,0l-.84.06-.87.15a5.85,5.85,0,0,0-.84.26,4.13,4.13,0,0,0-.76.37l-.15.1-.14.1c-.13.09-.25.19-.38.3a4.4,4.4,0,0,0-.38.37l.33-.3a3.59,3.59,0,0,1,.33-.25.71.71,0,0,1,.14-.1l.14-.1a4.49,4.49,0,0,1,.76-.38,8.29,8.29,0,0,1,.85-.25c.28-.06.57-.11.86-.15s.58-.06.85-.07a9.71,9.71,0,0,1,1.06,0,7.5,7.5,0,0,1,1.14.18,5.8,5.8,0,0,1,1.09.36,3.42,3.42,0,0,1,.92.63,3.09,3.09,0,0,1,.33.39,2.25,2.25,0,0,1,.24.42,1.27,1.27,0,0,1,.09.42A.79.79,0,0,1,756.63,1145.54Zm-4.41,3.24a4.32,4.32,0,0,1-.87-.23,7.34,7.34,0,0,1-.86-.39,6.87,6.87,0,0,1-.81-.51,5.16,5.16,0,0,1-.69-.63,2.72,2.72,0,0,1-.5-.75,2.05,2.05,0,0,1-.18-.74,2,2,0,0,1,.11-.68,2.36,2.36,0,0,1,.35-.59,1.77,1.77,0,0,0-.41.61,1.71,1.71,0,0,0-.15.71,2,2,0,0,0,.16.77,2.51,2.51,0,0,0,.52.79,6.35,6.35,0,0,0,.71.63,5.28,5.28,0,0,0,.84.55,4,4,0,0,0,.89.36A2.52,2.52,0,0,0,752.22,1148.78Zm3.36-3.06a.89.89,0,0,1-.3.22,1,1,0,0,1-.38.08h-.13l-.16,0,.17,0h.35a1,1,0,0,0,.25-.14A.74.74,0,0,0,755.58,1145.72Z" transform="translate(-738.13 -1061.8)"/><path class="cls-2" d="M752.76,1152.35a.78.78,0,0,1-.28-.68,1.31,1.31,0,0,1,.36-.67,4.28,4.28,0,0,1-.48.07,2.17,2.17,0,0,1-.44,0,1.32,1.32,0,0,1-.4-.11,1.17,1.17,0,0,1-.35-.28.72.72,0,0,1-.23-.5,1.07,1.07,0,0,1,.13-.5,2,2,0,0,1,.38-.46,2.83,2.83,0,0,1,.52-.39,4.18,4.18,0,0,1,.56-.28,2.47,2.47,0,0,1,.5-.13c.17,0,.36,0,.56-.06a4,4,0,0,1,.6.05,2.41,2.41,0,0,1,.58.17,1.91,1.91,0,0,1,.49.33l.15.15a1,1,0,0,1,.13.16.56.56,0,0,1,.09.19.7.7,0,0,1,0,.27s0,0,0,.06a.08.08,0,0,1,0,.07.15.15,0,0,1-.09.08.7.7,0,0,1-.23.07l.08.1a.85.85,0,0,1,.15.18.14.14,0,0,1,0,.11.15.15,0,0,1-.09.06l-.1,0a2.28,2.28,0,0,0-.47.2,2,2,0,0,0-.39.27,1,1,0,0,0-.32.38.17.17,0,0,0,.07.21.77.77,0,0,0,.35.09h.53l.59-.06.55-.09c.15,0,.24,0,.27.1s0,.15-.13.21l-.61.23-.7.24-.72.22a4.53,4.53,0,0,1-.67.12,2.22,2.22,0,0,1-.58,0A.76.76,0,0,1,752.76,1152.35Zm.54-1.75a1.33,1.33,0,0,0,.29,0,.86.86,0,0,0,.23,0,1.54,1.54,0,0,0,.24-.1l.29-.17h0l-.41.14a1.74,1.74,0,0,1-.45.06,1.2,1.2,0,0,1-.45-.09,1.09,1.09,0,0,1-.41-.31.86.86,0,0,1-.27-.65.81.81,0,0,1,.29-.53,1.2,1.2,0,0,0-.26.24.76.76,0,0,0-.13.31.71.71,0,0,0,0,.35,1.17,1.17,0,0,0,.23.37,1.76,1.76,0,0,0,.37.29A1.2,1.2,0,0,0,753.3,1150.6Zm-.53-.7a1.16,1.16,0,0,0,.15.13.69.69,0,0,0,.24.14,1.61,1.61,0,0,0,.33.06,1.14,1.14,0,0,0,.43-.06l.15-.09.16-.07a.45.45,0,0,0,.09-.39.65.65,0,0,0-.17-.32,1.29,1.29,0,0,0-.34-.25,1.07,1.07,0,0,0-.34-.09.69.69,0,0,0-.32,0,1,1,0,0,0-.26.12.66.66,0,0,0-.28.34A.48.48,0,0,0,752.77,1149.9Zm.79-1.23a3.06,3.06,0,0,1,.76.14,1.59,1.59,0,0,1,.69.4l.2.2a.42.42,0,0,1,.11.25h.1a.54.54,0,0,0-.09-.31l-.22-.22a1.28,1.28,0,0,0-.32-.24,3,3,0,0,0-.39-.14,3,3,0,0,0-.43-.06Zm1.52,1.56.07,0,.07,0c-.13-.15-.2-.22-.34-.36l-.16,0ZM755,1152l.12,0,.12,0h-.47l-.21,0-.21,0a.69.69,0,0,1-.19-.1.47.47,0,0,1-.14-.17.56.56,0,0,1,0-.28.85.85,0,0,1,.09-.24,1,1,0,0,1,.16-.2l.16-.16,0,0a.18.18,0,0,0-.07,0l-.06.06-.17.15a.75.75,0,0,0-.15.2.64.64,0,0,0-.1.24.5.5,0,0,0,0,.26.43.43,0,0,0,.13.19.52.52,0,0,0,.19.11l.21,0,.21,0h.29Z" transform="translate(-738.13 -1061.8)"/><path class="cls-2" d="M760.81,1151.24a5.16,5.16,0,0,1-.74.44,6.12,6.12,0,0,1-1,.36,7.81,7.81,0,0,1-1.09.23,5,5,0,0,1-1.09,0l-.41.42-.4.41.93-.33a8.9,8.9,0,0,1,.9-.26,3.9,3.9,0,0,1,.81-.1,1.23,1.23,0,0,1,.67.15.35.35,0,0,1,.2.31.88.88,0,0,1-.08.46,1.88,1.88,0,0,1-.34.49,1.69,1.69,0,0,1-1.31.47,2.07,2.07,0,0,1-.89-.31.18.18,0,0,0,0,.23.67.67,0,0,0,.24.28,2.44,2.44,0,0,0,.49.28,3.79,3.79,0,0,0,.67.2,1.61,1.61,0,0,0,.37,0l.43-.09.44-.11c.15,0,.29-.09.42-.11s.25,0,.28.07,0,.15-.12.22a5.34,5.34,0,0,0-.58.25l-.67.33c-.23.1-.47.21-.71.3a3.27,3.27,0,0,1-.7.21,1.68,1.68,0,0,1-.63,0,.94.94,0,0,1-.52-.25,1.36,1.36,0,0,1-.37-.58,1.23,1.23,0,0,1,0-.6,1.27,1.27,0,0,1,.23-.55,1.43,1.43,0,0,1,.44-.41,3.45,3.45,0,0,0,.84.06,1,1,0,0,0,.4-.1.22.22,0,0,0,.11-.16.2.2,0,0,0,0-.11.35.35,0,0,0-.21-.1.88.88,0,0,0-.28,0l-.38,0a4.21,4.21,0,0,0-.46.13,6.25,6.25,0,0,0-.63.25c-.24.1-.53.24-.87.4l-.12.11a.26.26,0,0,1-.14.07.16.16,0,0,1-.1,0l-.09-.06-.07-.07-.26-.23-.26-.27a.32.32,0,0,1-.1-.16.31.31,0,0,1,0-.13l.12-.14.17-.15.6-.57c.22-.21.46-.42.71-.63s.51-.43.79-.65.54-.41.82-.59a6.81,6.81,0,0,1,.66-.39c.26-.14.53-.28.82-.41a7,7,0,0,1,.9-.36,4.27,4.27,0,0,1,.87-.22,2.14,2.14,0,0,1,.76,0,1,1,0,0,1,.56.33.44.44,0,0,1,.05.32,1.5,1.5,0,0,1-.17.45,2.55,2.55,0,0,1-.36.49A3.42,3.42,0,0,1,760.81,1151.24Zm.2-.53a1.45,1.45,0,0,0,.22-.21l.18-.25.06-.1c0-.05,0-.1.08-.16l.06-.16s0-.08,0-.1a.68.68,0,0,0-.4-.21,2.28,2.28,0,0,0-.59,0,3.5,3.5,0,0,0-.72.14c-.26.07-.52.17-.79.27l-.81.36c-.26.14-.51.29-.74.44l-.54.36-.45.32-.34.27a1.25,1.25,0,0,0-.2.19,7.61,7.61,0,0,1,.68-.47l.9-.58a8.74,8.74,0,0,1,1.13-.61,8,8,0,0,1,1.14-.42,3.81,3.81,0,0,1,1-.17.88.88,0,0,1,.64.17s0,.08,0,.16a2,2,0,0,1-.12.26,2.75,2.75,0,0,1-.17.29A1.72,1.72,0,0,1,761,1150.71Zm-2.62.23a4.48,4.48,0,0,0-.42.36l-.44.4a3.9,3.9,0,0,0,1-.3,6.27,6.27,0,0,0,.9-.48,4.26,4.26,0,0,0,.64-.47c.17-.14.24-.23.24-.27s-.06,0-.19,0a3,3,0,0,0-.49.14,5.17,5.17,0,0,0-.63.27A3.58,3.58,0,0,0,758.39,1150.94Zm1.87-.29a5.14,5.14,0,0,1-.9.65,6.05,6.05,0,0,1-1,.48l-.4.12a3.89,3.89,0,0,1-.54.11,4.26,4.26,0,0,0,.78-.14,4.21,4.21,0,0,0,.75-.27,3.85,3.85,0,0,0,.71-.41A4.08,4.08,0,0,0,760.26,1150.65Zm-1.5,4.59h-.4a3.41,3.41,0,0,1-.59-.15,2.66,2.66,0,0,1-.56-.28l-.19-.15a1.57,1.57,0,0,1-.18-.19,1,1,0,0,1-.13-.23.52.52,0,0,1,0-.25v0a.38.38,0,0,0-.08.27.71.71,0,0,0,.09.28,1.33,1.33,0,0,0,.19.24,1,1,0,0,0,.21.17,3.55,3.55,0,0,0,.76.33A1.68,1.68,0,0,0,758.76,1155.24Zm.18-1.6.22-.22a1.22,1.22,0,0,0,.17-.29.75.75,0,0,0,0-.15.19.19,0,0,0,0-.15c0-.06-.09-.1-.2-.11a2.22,2.22,0,0,0-.37,0l-.4,0-.26,0-.31.07-.29.08.37,0,.37,0,.37,0a1.73,1.73,0,0,1,.38,0l.18.06c.06,0,.08.09,0,.18A1.1,1.1,0,0,1,758.94,1153.64Zm-1.23.31a.21.21,0,0,0,.19,0c.06,0,.1-.06.13-.15a.55.55,0,0,1-.14.09A.48.48,0,0,1,757.71,1154Z" transform="translate(-738.13 -1061.8)"/><path class="cls-2" d="M762.22,1155.63a1.13,1.13,0,0,1-.4.52,1.61,1.61,0,0,1-.64.28,1.76,1.76,0,0,1-1.47-.39.93.93,0,0,0,.31.5,2,2,0,0,0,1.07.42,4.09,4.09,0,0,0,1.78-.26.14.14,0,0,1,.14.06c0,.06,0,.11,0,.15a8,8,0,0,1-1.83.85,5,5,0,0,1-1.31.24,2.31,2.31,0,0,1-.83-.12,2,2,0,0,1-.41-.22,1,1,0,0,1-.38-.56,1.2,1.2,0,0,1,0-.65,2.27,2.27,0,0,1,.32-.67,3.22,3.22,0,0,1,.54-.63,4.83,4.83,0,0,1,.68-.51,3.45,3.45,0,0,1,.75-.32,1.87,1.87,0,0,1,.73-.08,1.16,1.16,0,0,1,.65.25,1.08,1.08,0,0,1,.28.34,1,1,0,0,1,.1.31.81.81,0,0,1,0,.27A2.18,2.18,0,0,1,762.22,1155.63Zm-.51.23a.78.78,0,0,0,.15-.16.69.69,0,0,0,.1-.19.75.75,0,0,0,0-.43.75.75,0,0,0-.26-.36,1,1,0,0,0-.53-.18,1.84,1.84,0,0,0-.57,0,2.69,2.69,0,0,0-.56.21,2.8,2.8,0,0,0-.46.28,1.09,1.09,0,0,0-.17.13l-.18.16h0l.12-.12.12-.09a4.68,4.68,0,0,1,.46-.27,2.69,2.69,0,0,1,.56-.21,1.91,1.91,0,0,1,.58-.06.93.93,0,0,1,.52.18.7.7,0,0,1,.26.37.73.73,0,0,1,0,.43.91.91,0,0,1-.07.14A.31.31,0,0,1,761.71,1155.86Zm-2.28.22a1.38,1.38,0,0,0,.3.72,1.52,1.52,0,0,0,.58.43,1.86,1.86,0,0,0,.7.14,2.17,2.17,0,0,0,.69-.11,3.35,3.35,0,0,1-.63,0,4.27,4.27,0,0,1-.64-.16,1.52,1.52,0,0,1-.59-.34,1.65,1.65,0,0,1-.26-.32A1.31,1.31,0,0,1,759.43,1156.08Zm1.84-.6a.37.37,0,0,0-.18-.17l-.21-.08a.91.91,0,0,0-.67,0,.82.82,0,0,0-.45.38,1.42,1.42,0,0,0,.53.2,2.38,2.38,0,0,0,.53,0,1.05,1.05,0,0,0,.38-.13C761.29,1155.64,761.32,1155.56,761.27,1155.48Zm.08.47-.15.09-.17,0-.28.05h-.29a1.09,1.09,0,0,0,.5.06A.53.53,0,0,0,761.35,1156Z" transform="translate(-738.13 -1061.8)"/><path class="cls-2" d="M764.47,1156.24c.13.07.2.14.22.22a.32.32,0,0,1-.05.23.63.63,0,0,1-.23.19.59.59,0,0,1-.29.07c-.17,0-.26,0-.26.1a.49.49,0,0,0,.12.25c.07.11.17.24.28.4a1.61,1.61,0,0,1,.26.48,1.06,1.06,0,0,1,0,.56,1.28,1.28,0,0,1-.44.61l-.1.07-.11.07a5.84,5.84,0,0,0,1-.18,5,5,0,0,0,1-.41.28.28,0,0,1,.19,0,.21.21,0,0,1,.13.09.14.14,0,0,1,0,.14c0,.05-.06.09-.14.13a6.79,6.79,0,0,1-1.2.62,4.71,4.71,0,0,1-1.3.34,3.77,3.77,0,0,1-1.3-.08,2.59,2.59,0,0,1-1.15-.62.89.89,0,0,1-.35-.64.9.9,0,0,1,.19-.6,1.29,1.29,0,0,1,.51-.41,1.18,1.18,0,0,1,.66-.1c.13,0,.21.07.22.11s0,.08-.05.1a.19.19,0,0,0-.12.17.22.22,0,0,0,.1.15.48.48,0,0,0,.22.08.33.33,0,0,0,.24,0c.11-.07.17-.14.16-.23a.6.6,0,0,0-.07-.27c-.06-.1-.12-.21-.2-.32a1.8,1.8,0,0,1-.17-.34.7.7,0,0,1,0-.35.59.59,0,0,1,.27-.31,2.05,2.05,0,0,1,.51-.26,2.33,2.33,0,0,1,.5-.1,1.61,1.61,0,0,1,.44,0A1,1,0,0,1,764.47,1156.24Zm-1.56,2.23a.76.76,0,0,1-.33.14.7.7,0,0,1-.29,0,.8.8,0,0,1-.26-.16.48.48,0,0,1-.15-.28.38.38,0,0,1,0-.15h-.13l-.17,0a.81.81,0,0,0-.2.11.89.89,0,0,0-.21.22l.11-.08.11-.08a.67.67,0,0,1,.18-.07l.22,0a.22.22,0,0,0,0,.16.51.51,0,0,0,.15.28.72.72,0,0,0,.27.15.71.71,0,0,0,.52,0l.1-.07A.39.39,0,0,0,762.91,1158.47Zm1.45-2a.9.9,0,0,0-.33-.09h-.33a1.52,1.52,0,0,0-.47.1,1.68,1.68,0,0,0-.42.22l-.08.06-.07.07.06,0a2.13,2.13,0,0,1,.42-.23,1.51,1.51,0,0,1,.47-.09h.32a.9.9,0,0,1,.33.09h0l.07,0,.06,0ZM764,1159a.87.87,0,0,0,.22-.32.49.49,0,0,0,0-.38.93.93,0,0,1,0-.13l-.05-.11a2.2,2.2,0,0,0-.17-.25l-.19-.24a2.2,2.2,0,0,1-.19-.3.4.4,0,0,1,0-.32l0,0,0,0-.08.08a.31.31,0,0,0,0,.1.47.47,0,0,0,0,.33,1.64,1.64,0,0,0,.2.29l.18.25a1.45,1.45,0,0,1,.17.26,1.17,1.17,0,0,0,0,.11.28.28,0,0,1,0,.11.65.65,0,0,1,0,.34A.72.72,0,0,1,764,1159Zm-1.34.9a4.82,4.82,0,0,0,.76,0,5.23,5.23,0,0,0,.77-.15h-.16l-.14,0-1.19.1Z" transform="translate(-738.13 -1061.8)"/><path class="cls-2" d="M768.16,1164.07a.68.68,0,0,1-.4-.57,1.55,1.55,0,0,1,.22-.75l-.44.22a2.25,2.25,0,0,1-.42.13,1.08,1.08,0,0,1-.4,0,1,1,0,0,1-.38-.16.62.62,0,0,1-.31-.41.9.9,0,0,1,0-.51,1.89,1.89,0,0,1,.26-.56,4.45,4.45,0,0,1,.42-.53,3.9,3.9,0,0,1,.48-.44,2.54,2.54,0,0,1,.45-.27,4.25,4.25,0,0,1,.52-.23,2.77,2.77,0,0,1,.57-.13,2.26,2.26,0,0,1,.58,0,1.38,1.38,0,0,1,.53.17l.17.1a.42.42,0,0,1,.15.11.64.64,0,0,1,.13.15.81.81,0,0,1,.09.25.14.14,0,0,0,0,.06.08.08,0,0,1,0,.07.22.22,0,0,1-.07.1l-.21.14.1.06a.84.84,0,0,1,.18.13.14.14,0,0,1,0,.11.28.28,0,0,1-.07.09l-.09,0a2.94,2.94,0,0,0-.41.34,2.37,2.37,0,0,0-.32.37,1.26,1.26,0,0,0-.23.46c0,.1,0,.16.11.19a.75.75,0,0,0,.35,0,4.72,4.72,0,0,0,.5-.16l.54-.24.51-.25c.13-.06.23-.05.28,0s0,.15-.09.24l-.54.4c-.2.15-.4.3-.61.44s-.42.29-.64.42a4.52,4.52,0,0,1-.61.32,1.86,1.86,0,0,1-.55.16A.69.69,0,0,1,768.16,1164.07Zm.18-1.84.27-.09a1.05,1.05,0,0,0,.21-.12,1.51,1.51,0,0,0,.2-.17l.24-.25h0a2.42,2.42,0,0,1-.36.27,2.17,2.17,0,0,1-.41.19,1.13,1.13,0,0,1-.45,0,.93.93,0,0,1-.45-.17.72.72,0,0,1-.37-.54.89.89,0,0,1,.17-.6,1.17,1.17,0,0,0-.2.31.68.68,0,0,0-.06.34.62.62,0,0,0,.09.32.89.89,0,0,0,.29.29,1.16,1.16,0,0,0,.4.16A1.09,1.09,0,0,0,768.34,1162.23Zm-.64-.51.17.08a.83.83,0,0,0,.25.06,1.23,1.23,0,0,0,.72-.22l.13-.14.13-.11a.43.43,0,0,0,0-.4.58.58,0,0,0-.22-.26.75.75,0,0,0-.36-.13.82.82,0,0,0-.35,0,.81.81,0,0,0-.29.12,1.11,1.11,0,0,0-.23.19.79.79,0,0,0-.2.41A.44.44,0,0,0,767.7,1161.72Zm.51-1.42a3,3,0,0,1,.75-.09,1.3,1.3,0,0,1,.73.18l.22.13a.33.33,0,0,1,.16.21l0,0,0,0a.39.39,0,0,0-.15-.27,1.25,1.25,0,0,0-.24-.15,1.4,1.4,0,0,0-.36-.13,1.7,1.7,0,0,0-.39,0,3.07,3.07,0,0,0-.42.07Zm1.74,1,.06,0,.06,0-.38-.24-.15.07Zm.22,1.69.1-.07.11-.07-.22.07a.88.88,0,0,1-.23.07l-.2,0-.21,0a.43.43,0,0,1-.19,0,.36.36,0,0,1-.17-.13.38.38,0,0,1-.09-.25.73.73,0,0,1,0-.25.88.88,0,0,1,.11-.24,1.76,1.76,0,0,1,.12-.2l0,0-.05.06a.35.35,0,0,1,0,.08l-.12.2a1,1,0,0,0-.12.23,1.17,1.17,0,0,0,0,.26.48.48,0,0,0,.09.24.46.46,0,0,0,.17.14.45.45,0,0,0,.19,0h.21l.21,0,.13,0a.43.43,0,0,1,.14,0Z" transform="translate(-738.13 -1061.8)"/><path class="cls-2" d="M771.39,1161.28a1,1,0,0,1,.42-.06.64.64,0,0,1,.37.1.6.6,0,0,1,.25.27.89.89,0,0,1,.08.45,2.29,2.29,0,0,1-.17.66q-.15.39-.36.81l.77-.54a5.7,5.7,0,0,1,.74-.42,2.55,2.55,0,0,1,.68-.22,1,1,0,0,1,.6.09.35.35,0,0,1,.19.27.72.72,0,0,1-.05.37,1.55,1.55,0,0,1-.21.43,3.52,3.52,0,0,1-.3.45l-.3.42a2.67,2.67,0,0,0-.22.34.38.38,0,0,0-.06.22s.09.08.2.06a1.52,1.52,0,0,0,.35-.13l.39-.2.4-.24.38-.24c.13-.07.23-.07.28,0s0,.14-.08.24-.32.25-.5.41l-.57.51-.62.5a3.67,3.67,0,0,1-.63.4,1.83,1.83,0,0,1-.59.21.78.78,0,0,1-.54-.1.63.63,0,0,1-.31-.34.79.79,0,0,1,0-.43,1.8,1.8,0,0,1,.22-.47c.11-.16.23-.32.35-.47l.37-.43c.12-.13.22-.23.29-.32s.15-.19.15-.25a.11.11,0,0,0-.06-.13.44.44,0,0,0-.21,0,1.45,1.45,0,0,0-.26.07l-.28.12a1.68,1.68,0,0,0-.26.16l-.42.34-.73.67h0a1.35,1.35,0,0,1-.17.17,1.88,1.88,0,0,1-.23.16.9.9,0,0,1-.25.08.35.35,0,0,1-.23,0l-.28-.15-.31-.18-.14-.09a.09.09,0,0,1,0-.08.19.19,0,0,1,0-.1l.13-.16c.14-.15.29-.32.46-.53s.32-.41.47-.63l.44-.65c.13-.21.25-.4.34-.57a.48.48,0,0,0,.07-.31.69.69,0,0,0-.07-.23l-.07-.16S771.32,1161.31,771.39,1161.28Zm.27,2.17c.14-.29.26-.57.36-.82a2.08,2.08,0,0,0,.18-.69.54.54,0,0,0-.05-.27.28.28,0,0,0-.14-.16.34.34,0,0,0-.2-.06.6.6,0,0,0-.23,0l0,.09a.59.59,0,0,1,.37.09c.1.07.14.21.13.42a1.41,1.41,0,0,1-.07.36l-.15.42c0,.14-.1.27-.15.38A1.25,1.25,0,0,0,771.66,1163.45Zm1.11-.22a2.06,2.06,0,0,0,.42-.21l.45-.22a1.68,1.68,0,0,1,.46-.13.71.71,0,0,1,.46.08.18.18,0,0,1,0,.13,1.6,1.6,0,0,1,0,.21l-.09.22-.06.13a.93.93,0,0,1,.1-.15,2,2,0,0,0,.14-.25,2,2,0,0,0,.09-.25.13.13,0,0,0-.06-.15.72.72,0,0,0-.42-.08,2,2,0,0,0-.49.13,4.66,4.66,0,0,0-.5.25A4.4,4.4,0,0,0,772.77,1163.23Zm1.66,1.86a1.42,1.42,0,0,1-.4.12.7.7,0,0,1-.25,0,.37.37,0,0,1-.21-.17.38.38,0,0,1,0-.34,1.2,1.2,0,0,1,.16-.32,1.1,1.1,0,0,0-.23.37.47.47,0,0,0,0,.4.37.37,0,0,0,.22.15.7.7,0,0,0,.25,0,1.14,1.14,0,0,0,.26-.09Z" transform="translate(-738.13 -1061.8)"/><path class="cls-2" d="M780.15,1161a.35.35,0,0,1,.18.11.89.89,0,0,1,.16.21,1.07,1.07,0,0,1,.09.27.53.53,0,0,1,0,.28,2.8,2.8,0,0,1-.33.69,7.37,7.37,0,0,1-.58.82c-.22.29-.47.58-.72.88l-.74.85c-.23.28-.43.53-.6.76a1.61,1.61,0,0,0-.32.6.11.11,0,0,0,.06.14.5.5,0,0,0,.34-.05,3.12,3.12,0,0,0,.49-.24l.56-.35.5-.34c.13-.08.23-.09.28,0s0,.15-.06.25l-.49.48-.56.52-.59.51a5.48,5.48,0,0,1-.57.4,2,2,0,0,1-.53.23.6.6,0,0,1-.42,0,.93.93,0,0,1-.31-.21.81.81,0,0,1-.13-.3.94.94,0,0,1,0-.37,2.07,2.07,0,0,1,.14-.42l-.41.29a2.58,2.58,0,0,1-.41.2,1.4,1.4,0,0,1-.4.07.82.82,0,0,1-.4-.1.57.57,0,0,1-.34-.36,1,1,0,0,1,0-.52,2.63,2.63,0,0,1,.21-.59,3.5,3.5,0,0,1,.36-.58,5.34,5.34,0,0,1,.43-.5,3.3,3.3,0,0,1,.41-.34c.15-.09.31-.2.49-.29a3.83,3.83,0,0,1,.56-.22,2.71,2.71,0,0,1,.57-.09,1.32,1.32,0,0,1,.53.1l.15.06a.52.52,0,0,1,.13.06c.22-.33.46-.67.7-1s.47-.66.68-.94a7.08,7.08,0,0,1,.56-.69C780,1161.09,780.08,1161,780.15,1161Zm-3.82,5.09,0-.06a1.23,1.23,0,0,1-.42.07,1.08,1.08,0,0,1-.45-.12.76.76,0,0,1-.43-.49.84.84,0,0,1,.12-.61,1,1,0,0,0-.16.33.66.66,0,0,0,0,.34.8.8,0,0,0,.13.32.76.76,0,0,0,.3.25,1.12,1.12,0,0,0,.8,0Zm-.72-.37.19.06a.7.7,0,0,0,.29,0,1.13,1.13,0,0,0,.36-.11,1.42,1.42,0,0,0,.4-.33h0l0,0,0-.08a.49.49,0,0,0,.06-.22.5.5,0,0,0,0-.21.33.33,0,0,0-.11-.15.41.41,0,0,0-.14-.1.9.9,0,0,0-.38-.08.88.88,0,0,0-.33.06.71.71,0,0,0-.28.16,1.45,1.45,0,0,0-.21.22.75.75,0,0,0-.15.43A.41.41,0,0,0,775.61,1165.76Zm.33-1.47.35-.11a2.87,2.87,0,0,1,.38-.08,1.7,1.7,0,0,1,.39,0,1.06,1.06,0,0,1,.35.09l.13,0,.13.06.19.09.12-.16c.08-.13.16-.26.24-.37l.25-.36c.17-.24.34-.47.5-.71s.34-.47.52-.7l.1-.13.16-.18a1.54,1.54,0,0,1,.17-.19l.13-.13a.38.38,0,0,1,.11.11,1.15,1.15,0,0,1,.08.14s0,.06,0,.08a.29.29,0,0,1,0,.09v0s0,0,0,0l-.06.14-.07.15a1.57,1.57,0,0,0,.12-.21,2,2,0,0,0,.08-.22v-.06a.38.38,0,0,0,0-.1s0-.06,0-.09a.66.66,0,0,0-.08-.13.44.44,0,0,0-.1-.12l-.14.13c-.06.07-.12.13-.17.2s-.11.13-.16.19l-.1.13c-.18.23-.35.46-.52.7s-.34.47-.5.71l-.24.35-.25.36-.12.19-.19-.1-.13-.07-.13,0a.86.86,0,0,0-.36-.07,2.69,2.69,0,0,0-.4,0,2.64,2.64,0,0,0-.4.12Zm2.11,2.54.05,0,.06,0,.06-.08.08-.07-.18.11a.66.66,0,0,1-.19.09,2.2,2.2,0,0,1-.34.13.47.47,0,0,1-.35,0,.32.32,0,0,1-.19-.17.49.49,0,0,1,0-.27v-.08a1.64,1.64,0,0,1,.14-.32,2,2,0,0,0-.21.46v.07a.54.54,0,0,0,.06.25.35.35,0,0,0,.2.18.49.49,0,0,0,.36,0l.33-.12Z" transform="translate(-738.13 -1061.8)"/><path class="cls-2" d="M786.91,1168c.12-.1.21-.13.29-.09s.08.14,0,.27a8.92,8.92,0,0,1-1.34,1.2,8.41,8.41,0,0,1-1.47.83,5.41,5.41,0,0,1-1.43.4,3.09,3.09,0,0,1-1.23-.06,2,2,0,0,1-1.13-.7,1.91,1.91,0,0,1-.39-1.06,3.35,3.35,0,0,1,.15-1.23,8.54,8.54,0,0,1,.49-1.25,8,8,0,0,1,.75-1.15,11.56,11.56,0,0,1,1-1.09,12,12,0,0,1,1.18-.95,8.45,8.45,0,0,1,1.25-.73,5.16,5.16,0,0,1,1.23-.43,2.9,2.9,0,0,1,1.13,0,2,2,0,0,1,.69.26,1.27,1.27,0,0,1,.46.43,1.09,1.09,0,0,1,.16.59,1.5,1.5,0,0,1-.18.71,2.73,2.73,0,0,1-.49.67,4,4,0,0,1-.62.56,1,1,0,0,1-.44.21.35.35,0,0,1-.28-.06c-.06-.06-.06-.14,0-.26a1,1,0,0,1,.38-.39.86.86,0,0,0,.3-.39.84.84,0,0,0,.06-.44.77.77,0,0,0-.18-.39.88.88,0,0,0-.41-.24,2.58,2.58,0,0,0-1.18,0,4,4,0,0,0-1.33.55,5.73,5.73,0,0,0-1.31,1.11,6.56,6.56,0,0,0-1.09,1.73,2.89,2.89,0,0,0-.23.78,1.71,1.71,0,0,0,0,.72,1.3,1.3,0,0,0,.35.58,1.53,1.53,0,0,0,.72.37,3.64,3.64,0,0,0,1.06.11A5.13,5.13,0,0,0,785,1169a5.84,5.84,0,0,0,1-.38A3.8,3.8,0,0,0,786.91,1168Zm1.58-4.57a.86.86,0,0,0,0-.48.92.92,0,0,0-.23-.36,1.32,1.32,0,0,0-.38-.25,1.9,1.9,0,0,0-.46-.15,2.47,2.47,0,0,0-1,0,4.68,4.68,0,0,0-1,.34,9.49,9.49,0,0,0-1,.54c-.32.21-.62.42-.88.62l-.67.57c-.22.21-.43.43-.64.66a8.06,8.06,0,0,0-.59.72,5.39,5.39,0,0,0-.47.78l-.08.17-.08.18c-.07.15-.13.31-.19.48s-.12.35-.17.54l.15-.45c.06-.15.11-.29.17-.41a.89.89,0,0,1,.08-.17,1.42,1.42,0,0,1,.08-.18,6.46,6.46,0,0,1,.47-.78,8.06,8.06,0,0,1,.59-.72c.21-.23.42-.45.65-.66s.44-.39.66-.57.56-.41.88-.61a7.49,7.49,0,0,1,1-.54,5.26,5.26,0,0,1,1-.34,2.3,2.3,0,0,1,1,0,1.64,1.64,0,0,1,.43.13,1.07,1.07,0,0,1,.36.21.93.93,0,0,1,.25.31A.75.75,0,0,1,788.49,1163.45Zm-2.33,5.41a4.88,4.88,0,0,1-.81.32,6.28,6.28,0,0,1-.86.19,5,5,0,0,1-.86,0,3.12,3.12,0,0,1-.82-.11,1.74,1.74,0,0,1-.71-.34,1.58,1.58,0,0,1-.43-.51,1.74,1.74,0,0,1-.18-.65,2.55,2.55,0,0,1,0-.72,2.7,2.7,0,0,0-.1.78,1.7,1.7,0,0,0,.16.68,1.56,1.56,0,0,0,.44.56,1.66,1.66,0,0,0,.74.36,5.06,5.06,0,0,0,.83.11,3.88,3.88,0,0,0,.9,0,4.36,4.36,0,0,0,.88-.22A2.69,2.69,0,0,0,786.16,1168.86Zm1.54-4.63a1.12,1.12,0,0,1-.16.37,1.28,1.28,0,0,1-.28.29l-.1.09a.69.69,0,0,0-.13.11l.16-.06.14-.09.07-.06s.05,0,.08-.06a1.17,1.17,0,0,0,.15-.27A.88.88,0,0,0,787.7,1164.23Z" transform="translate(-738.13 -1061.8)"/><path class="cls-2" d="M790.65,1165.35a8.49,8.49,0,0,1-.47.79,8.65,8.65,0,0,1-.7.84,9,9,0,0,1-.86.78,6.19,6.19,0,0,1-.92.62c-.15.46-.23.7-.39,1.16.24-.29.49-.57.74-.86a9,9,0,0,1,.73-.76,3,3,0,0,1,.71-.5,1,1,0,0,1,.68-.11.29.29,0,0,1,.23.21.73.73,0,0,1,0,.37,1.92,1.92,0,0,1-.13.48c-.06.17-.13.35-.2.52l-.22.48c-.06.16-.11.29-.14.39a.32.32,0,0,0,0,.23s.1,0,.2,0a1.84,1.84,0,0,0,.32-.22l.34-.3.33-.34.33-.33c.11-.1.21-.13.27-.08s0,.14,0,.26-.26.33-.41.54l-.45.64c-.16.22-.33.43-.5.65a4.76,4.76,0,0,1-.53.56,2.36,2.36,0,0,1-.54.35.82.82,0,0,1-.53,0,.57.57,0,0,1-.37-.25.81.81,0,0,1-.07-.42,2.2,2.2,0,0,1,.13-.52,5.38,5.38,0,0,1,.24-.55c.1-.19.19-.36.28-.51l.23-.39a.54.54,0,0,0,.09-.29.13.13,0,0,0-.09-.11.38.38,0,0,0-.19,0,1.16,1.16,0,0,0-.24.14l-.31.25a4.1,4.1,0,0,0-.35.36c-.13.15-.28.33-.45.56s-.37.5-.6.82l-.06.17a.48.48,0,0,1-.09.13.2.2,0,0,1-.09,0h-.1l-.09,0-.3-.07-.32-.09a.21.21,0,0,1-.14-.09.19.19,0,0,1,0-.13,1.8,1.8,0,0,1,0-.19,1.85,1.85,0,0,0,.09-.23c.09-.24.19-.52.31-.82s.24-.62.37-.94.29-.66.44-1,.32-.65.49-1,.25-.44.42-.71.36-.53.56-.81.41-.54.63-.79a6,6,0,0,1,.67-.67,2.29,2.29,0,0,1,.66-.39.83.83,0,0,1,.6,0,.34.34,0,0,1,.16.25,1.54,1.54,0,0,1,0,.49,2.53,2.53,0,0,1-.13.63A3.47,3.47,0,0,1,790.65,1165.35Zm0-.57a2.83,2.83,0,0,0,.11-.31l.06-.32V1164c0-.06,0-.12,0-.19s0-.12,0-.17,0-.08,0-.09a.59.59,0,0,0-.43,0,2.8,2.8,0,0,0-.51.3,5.18,5.18,0,0,0-.57.52c-.19.2-.38.42-.58.66s-.37.49-.55.76a8.21,8.21,0,0,0-.48.78c-.12.22-.22.42-.33.61l-.27.52c-.08.16-.14.3-.19.42s-.08.22-.1.28c.09-.21.23-.47.4-.78l.57-1a10.07,10.07,0,0,1,.74-1.14,10.82,10.82,0,0,1,.83-1,4.08,4.08,0,0,1,.77-.67.85.85,0,0,1,.61-.19s0,.06,0,.15a1.6,1.6,0,0,1,0,.3c0,.11,0,.23,0,.34A2.84,2.84,0,0,1,790.63,1164.78Zm-2.19,1.6q-.12.24-.24.54l-.22.6a5,5,0,0,0,.77-.82,7.87,7.87,0,0,0,.6-.91,5.92,5.92,0,0,0,.38-.76c.09-.21.13-.34.11-.37s-.07,0-.17.08a2.86,2.86,0,0,0-.37.39,4.88,4.88,0,0,0-.45.58A6,6,0,0,0,788.44,1166.38Zm1.52-1.26a7.61,7.61,0,0,1-.53,1.07,8.1,8.1,0,0,1-.72,1l-.29.33a4.56,4.56,0,0,1-.43.38,4.53,4.53,0,0,0,.62-.54,5,5,0,0,0,.55-.65,6.13,6.13,0,0,0,.46-.74A4.56,4.56,0,0,0,790,1165.12Zm-1.57,3.55.08-.06.08,0,.22-.21.23-.21.23-.18a1.35,1.35,0,0,1,.26-.15l.27-.1a.66.66,0,0,1,.28,0s.06,0,.06.11a1,1,0,0,1,0,.23,1.55,1.55,0,0,1-.07.23c0,.08,0,.14,0,.17l.08-.19a2.14,2.14,0,0,0,.09-.27.91.91,0,0,0,0-.27.14.14,0,0,0-.08-.15.53.53,0,0,0-.28,0,1.31,1.31,0,0,0-.28.09,2.26,2.26,0,0,0-.26.16l-.23.17-.33.32Zm1.56,1.71a.55.55,0,0,0,.22-.14,1.2,1.2,0,0,0,.18-.2l-.17.11-.18.09a.71.71,0,0,1-.24.06.3.3,0,0,1-.22-.1.37.37,0,0,1-.12-.31,2.25,2.25,0,0,1,.09-.35v0c0,.06,0,.12-.07.19a1.6,1.6,0,0,0,0,.21.44.44,0,0,0,0,.2.34.34,0,0,0,.09.18.32.32,0,0,0,.22.1A.61.61,0,0,0,790,1170.38Z" transform="translate(-738.13 -1061.8)"/><path class="cls-2" d="M790.23,1170.23a3.57,3.57,0,0,1,.23-.51,3.77,3.77,0,0,1,.34-.54,2.83,2.83,0,0,1,.43-.48c.16-.14.42-.23.5-.31s.15-.28.23-.37a.83.83,0,0,1,.26-.21.72.72,0,0,1,.29-.06,1.15,1.15,0,0,1,.31,0,.85.85,0,0,1,.43.25,1.22,1.22,0,0,1,.23.42,2.19,2.19,0,0,1,.07.53,2.94,2.94,0,0,1,0,.59h.24a1.28,1.28,0,0,0,.3-.07,2.31,2.31,0,0,0,.37-.17,4.35,4.35,0,0,0,.49-.3.26.26,0,0,1,.19-.09.12.12,0,0,1,.12.06.24.24,0,0,1,0,.15.33.33,0,0,1-.12.17,2.79,2.79,0,0,1-.42.35,3.37,3.37,0,0,1-.45.25,2.69,2.69,0,0,1-.45.16,3.83,3.83,0,0,1-.42.08l0,.1a3.88,3.88,0,0,1-.36.7,3.16,3.16,0,0,1-.53.62,2.21,2.21,0,0,1-.69.41,1.52,1.52,0,0,1-.79.09.93.93,0,0,1-.51-.23,1,1,0,0,1-.28-.43,1.54,1.54,0,0,1-.07-.57A2,2,0,0,1,790.23,1170.23Zm1.3-1.43a3.27,3.27,0,0,0-.33.32,4,4,0,0,0-.29.39,3.38,3.38,0,0,0-.24.41,3.09,3.09,0,0,0-.17.39v0a3.61,3.61,0,0,1,.35-.67,2.72,2.72,0,0,1,.49-.6.43.43,0,0,1,0-.07.1.1,0,0,0,0,0Zm1.1,1.49a2.76,2.76,0,0,1-.25.21l-.28.16a1.9,1.9,0,0,1-.28.1.46.46,0,0,1-.22,0,.5.5,0,0,1-.38-.17.51.51,0,0,1-.15-.23.76.76,0,0,1-.05-.27,1,1,0,0,1,0-.29,1.57,1.57,0,0,1,.08-.29,2.58,2.58,0,0,0-.12.42,1.1,1.1,0,0,0,0,.44.67.67,0,0,0,.17.36.53.53,0,0,0,.39.18l.21,0a1.06,1.06,0,0,0,.26-.1,1.77,1.77,0,0,0,.29-.19A2.68,2.68,0,0,0,792.63,1170.29Zm-.08-.24a1.57,1.57,0,0,1-.62-.34,1,1,0,0,1-.31-.59,1.86,1.86,0,0,0-.25.43,1.59,1.59,0,0,0-.1.46.69.69,0,0,0,.06.36.3.3,0,0,0,.27.16,1,1,0,0,0,.47-.11A1.63,1.63,0,0,0,792.55,1170.05Zm-.62-1.4a.93.93,0,0,1,.31-.42.58.58,0,0,1,.48,0,.57.57,0,0,1,.34.24,1.34,1.34,0,0,1,.15.44,2.41,2.41,0,0,1,0,.54c0,.19,0,.38-.06.55.05-.24.09-.46.12-.68a2.14,2.14,0,0,0,0-.57,1.1,1.1,0,0,0-.16-.43.6.6,0,0,0-.34-.23.61.61,0,0,0-.53.06A.85.85,0,0,0,791.93,1168.65Z" transform="translate(-738.13 -1061.8)"/><path class="cls-2" d="M795.91,1168a1,1,0,0,1,.4.12.86.86,0,0,1,.28.19.65.65,0,0,1,.15.23.32.32,0,0,1,0,.22c-.07.12-.15.25-.25.39l-.25.36c-.06.08-.1.13-.13.14s0,0-.06-.11a.39.39,0,0,0-.12-.24.44.44,0,0,0-.19-.1.74.74,0,0,0-.21,0,.61.61,0,0,0-.17,0,1,1,0,0,0-.51.33,1,1,0,0,0-.25.51.67.67,0,0,0,.08.5.66.66,0,0,0,.48.29,1.77,1.77,0,0,0,1.07-.25,4.72,4.72,0,0,0,1.4-1.24.12.12,0,0,1,.14,0,.09.09,0,0,1,0,.14,10.2,10.2,0,0,1-1.2,1.79,6.47,6.47,0,0,1-1,1,2.32,2.32,0,0,1-.75.37,1.29,1.29,0,0,1-.43.05.78.78,0,0,1-.55-.26,1.16,1.16,0,0,1-.26-.57,2.42,2.42,0,0,1,0-.76,3.82,3.82,0,0,1,.2-.86,5.23,5.23,0,0,1,.37-.84,3.88,3.88,0,0,1,.5-.71,2.19,2.19,0,0,1,.58-.49A1,1,0,0,1,795.91,1168Zm0,.31a.84.84,0,0,0-.52.14,2.07,2.07,0,0,0-.46.38,3.19,3.19,0,0,0-.39.5q-.16.29-.27.51a2.88,2.88,0,0,0-.13.31,3,3,0,0,0-.11.32l.09-.24.1-.25a5.13,5.13,0,0,1,.27-.5,4,4,0,0,1,.39-.51,2.12,2.12,0,0,1,.47-.38.91.91,0,0,1,.52-.14,1.17,1.17,0,0,1,.25.07.68.68,0,0,1,.24.12l0,0,.06.07,0-.06,0,0a.33.33,0,0,0-.06-.08l-.07-.07a.7.7,0,0,0-.24-.13A.9.9,0,0,0,795.87,1168.31Zm.81,2.48.09-.13.08-.11-.26.19-.27.17a2.62,2.62,0,0,1-.59.25,1.43,1.43,0,0,1-.65,0,1.11,1.11,0,0,1-.45-.19.82.82,0,0,1-.29-.39.91.91,0,0,1-.06-.32,1.63,1.63,0,0,1,0-.31,2.32,2.32,0,0,0-.07.38.86.86,0,0,0,0,.39.84.84,0,0,0,.3.39,1.15,1.15,0,0,0,.45.2,1.39,1.39,0,0,0,.64,0,2.38,2.38,0,0,0,.59-.25l.21-.13Zm-.6-1.68s0,0,0,.05v0Z" transform="translate(-738.13 -1061.8)"/><path class="cls-2" d="M796.76,1171a5,5,0,0,1,.19-.52,6.36,6.36,0,0,1,.3-.58,4.15,4.15,0,0,1,.39-.52c.15-.16.4-.27.48-.36s.12-.29.19-.4a1.07,1.07,0,0,1,.25-.23.71.71,0,0,1,.28-.09h.31a.79.79,0,0,1,.44.21,1,1,0,0,1,.27.4,1.65,1.65,0,0,1,.11.52,2.91,2.91,0,0,1,0,.59l.24,0a1,1,0,0,0,.29-.09l.36-.21a5,5,0,0,0,.45-.36.32.32,0,0,1,.19-.1.1.1,0,0,1,.12,0,.17.17,0,0,1,0,.15.44.44,0,0,1-.11.18,2.79,2.79,0,0,1-.82.68,4.39,4.39,0,0,1-.44.21l-.41.12,0,.1a3.83,3.83,0,0,1-.3.74,3,3,0,0,1-.49.67,2.33,2.33,0,0,1-.65.48,1.62,1.62,0,0,1-.78.17,1,1,0,0,1-.53-.17,1.06,1.06,0,0,1-.31-.41,1.4,1.4,0,0,1-.11-.56A2.39,2.39,0,0,1,796.76,1171Zm1.19-1.55a2,2,0,0,0-.3.35,3,3,0,0,0-.27.42,4.14,4.14,0,0,0-.2.43,3.34,3.34,0,0,0-.14.41v0a3.67,3.67,0,0,1,.29-.71,2.6,2.6,0,0,1,.45-.64.24.24,0,0,1,0-.07.16.16,0,0,0,0-.07Zm1.2,1.36a1,1,0,0,1-.23.24l-.27.19-.26.13-.22.06a.57.57,0,0,1-.4-.13.6.6,0,0,1-.16-.22.77.77,0,0,1-.07-.26,1.4,1.4,0,0,1,0-.29c0-.1,0-.2.05-.3a1.83,1.83,0,0,0-.08.43,1.27,1.27,0,0,0,0,.44.69.69,0,0,0,.2.34.51.51,0,0,0,.4.13.59.59,0,0,0,.21,0,.81.81,0,0,0,.25-.12,1.66,1.66,0,0,0,.27-.23A2.07,2.07,0,0,0,799.15,1170.82Zm-.09-.22a1.49,1.49,0,0,1-.64-.28.9.9,0,0,1-.36-.55,1.85,1.85,0,0,0-.21.45,1.32,1.32,0,0,0-.07.46.64.64,0,0,0,.09.36.29.29,0,0,0,.28.14.93.93,0,0,0,.46-.17A1.9,1.9,0,0,0,799.06,1170.6Zm-.73-1.34a1,1,0,0,1,.27-.44.66.66,0,0,1,.84.11,1.14,1.14,0,0,1,.18.42,2.29,2.29,0,0,1,.06.54,5.12,5.12,0,0,1,0,.56,6.2,6.2,0,0,0,.07-.69,2.09,2.09,0,0,0-.05-.58.93.93,0,0,0-.19-.4.59.59,0,0,0-.36-.2.62.62,0,0,0-.52.12A.9.9,0,0,0,798.33,1169.26Z" transform="translate(-738.13 -1061.8)"/><path class="cls-2" d="M804.35,1166.13a5.79,5.79,0,0,1-.51,1.15,6.27,6.27,0,0,1-.65.94,8.18,8.18,0,0,1-.76.8l-.83.78a1.47,1.47,0,0,0,.23,1,.79.79,0,0,0,.61.3.64.64,0,0,0,.38-.15,2.17,2.17,0,0,0,.4-.36,5.15,5.15,0,0,0,.4-.5l.36-.51c.09-.13.18-.17.25-.13s.07.13,0,.25l-.26.56c-.1.22-.2.46-.32.7s-.25.48-.39.72a4.64,4.64,0,0,1-.45.65,2.46,2.46,0,0,1-.52.46,1.14,1.14,0,0,1-.58.17,1,1,0,0,1-.85-.4,2,2,0,0,1-.35-1,5.92,5.92,0,0,1,.13-1.5,12.06,12.06,0,0,1,.53-1.81c.08-.2.17-.44.3-.72s.25-.56.41-.86.33-.6.51-.9a7,7,0,0,1,.55-.8,3.15,3.15,0,0,1,.6-.57,1.1,1.1,0,0,1,.61-.23.34.34,0,0,1,.31.17.93.93,0,0,1,.12.45,3.09,3.09,0,0,1,0,.65A5,5,0,0,1,804.35,1166.13Zm-.07-.73a2.51,2.51,0,0,0,0-.27,2.45,2.45,0,0,1,0-.27,1,1,0,0,0,0-.3.24.24,0,0,0-.16-.21.82.82,0,0,0-.52.2,3.06,3.06,0,0,0-.49.47,4.73,4.73,0,0,0-.43.57l-.33.53c-.15.27-.3.55-.45.85s-.29.59-.42.9a9.33,9.33,0,0,0-.34.93,8.08,8.08,0,0,0-.24,1,12.37,12.37,0,0,1,.59-1.78c.24-.57.53-1.14.85-1.73.08-.15.18-.32.31-.52a4.83,4.83,0,0,1,.43-.58,2.7,2.7,0,0,1,.49-.47.87.87,0,0,1,.52-.2.16.16,0,0,1,.1.12,1.5,1.5,0,0,1,0,.26c0,.1,0,.19,0,.29S804.28,1165.34,804.28,1165.4Zm-2.95,4.38a1.84,1.84,0,0,0,0,.62,1.4,1.4,0,0,0,.2.54,1.27,1.27,0,0,0,.36.37.9.9,0,0,0,.52.13.91.91,0,0,0,.64-.28,2.51,2.51,0,0,0,.46-.61c-.07.09-.16.17-.24.26a1.55,1.55,0,0,1-.27.24,1.22,1.22,0,0,1-.29.17.58.58,0,0,1-.28.07.8.8,0,0,1-.51-.14,1,1,0,0,1-.34-.35,1.48,1.48,0,0,1-.2-.48A2.48,2.48,0,0,1,801.33,1169.78Zm.82-2c-.1.23-.18.45-.25.65a5.12,5.12,0,0,0-.17.57,12.44,12.44,0,0,0,.84-1.11,9.63,9.63,0,0,0,.63-1,4.36,4.36,0,0,0,.34-.82c.07-.23.06-.37,0-.42s-.1,0-.19.12a4.51,4.51,0,0,0-.33.44c-.13.19-.27.43-.42.7A9.69,9.69,0,0,0,802.15,1167.74Zm1.63-1.75a6,6,0,0,1-.33.74c-.14.28-.31.58-.49.87s-.37.58-.55.85-.34.48-.48.65c.16-.17.34-.39.54-.65a8.81,8.81,0,0,0,.57-.84,9.27,9.27,0,0,0,.47-.87A4.37,4.37,0,0,0,803.78,1166Z" transform="translate(-738.13 -1061.8)"/><path class="cls-2" d="M805.73,1172.74a.53.53,0,0,1-.57-.26,1.5,1.5,0,0,1-.13-.77l-.28.43a3.81,3.81,0,0,1-.3.36,1.25,1.25,0,0,1-.34.24.86.86,0,0,1-.39.09.52.52,0,0,1-.43-.18,1,1,0,0,1-.19-.47,2.69,2.69,0,0,1,0-.64,5.63,5.63,0,0,1,.14-.69,6.38,6.38,0,0,1,.22-.66,3.47,3.47,0,0,1,.27-.49,4.06,4.06,0,0,1,.78-1,3.91,3.91,0,0,1,.49-.34,1.33,1.33,0,0,1,.52-.15l.19,0h.17l.18.07a.81.81,0,0,1,.17.16l0,0a.07.07,0,0,1,0,0,.37.37,0,0,1,0,.13,1.31,1.31,0,0,1-.12.24h.11a.35.35,0,0,1,.2,0,.08.08,0,0,1,.06.08.27.27,0,0,1,0,.12l0,.1a3.74,3.74,0,0,0-.21.52,2.49,2.49,0,0,0-.11.51,1.33,1.33,0,0,0,0,.53c0,.09.09.12.17.1a.81.81,0,0,0,.29-.22c.11-.12.23-.27.35-.43a5.32,5.32,0,0,0,.37-.52c.12-.18.23-.36.33-.5s.18-.18.25-.15.07.12,0,.26l-.29.66c-.11.24-.22.49-.34.73s-.24.49-.37.73a4.35,4.35,0,0,1-.39.64,2.56,2.56,0,0,1-.4.45A.64.64,0,0,1,805.73,1172.74Zm-.61-1.7a1.77,1.77,0,0,0,.19-.23,1.34,1.34,0,0,0,.13-.23,1.28,1.28,0,0,0,.1-.26c0-.1.07-.22.1-.35h0a3.49,3.49,0,0,1-.2.44,2.33,2.33,0,0,1-.27.4,1.31,1.31,0,0,1-.36.3.89.89,0,0,1-.46.1.59.59,0,0,1-.54-.25.91.91,0,0,1-.1-.62,1.78,1.78,0,0,0,0,.39.9.9,0,0,0,.09.33.5.5,0,0,0,.21.22.68.68,0,0,0,.36.08,1.25,1.25,0,0,0,.42-.08A1.15,1.15,0,0,0,805.12,1171Zm-.75-.08.17,0a.5.5,0,0,0,.24-.1,1.22,1.22,0,0,0,.26-.22,1.48,1.48,0,0,0,.26-.38,1.33,1.33,0,0,0,.05-.19c0-.06.06-.13.07-.18a.42.42,0,0,0-.16-.35.44.44,0,0,0-.29-.1,1.06,1.06,0,0,0-.37.09,1.54,1.54,0,0,0-.29.21,1.05,1.05,0,0,0-.2.27,1.45,1.45,0,0,0-.11.31.72.72,0,0,0,0,.46A.34.34,0,0,0,804.37,1171Zm-.16-1.52a3,3,0,0,1,.6-.51,1.26,1.26,0,0,1,.69-.26l.25,0a.32.32,0,0,1,.22.09l0,0a.08.08,0,0,1,0,0,.33.33,0,0,0-.23-.15h-.27a1.19,1.19,0,0,0-.36.09,2.39,2.39,0,0,0-.34.21,3.08,3.08,0,0,0-.33.3A2.88,2.88,0,0,0,804.21,1169.44Zm1.91-.1,0-.06,0-.08h-.43l-.1.14Zm.89,1.35.06-.12.06-.13-.16.2a1.35,1.35,0,0,1-.16.19l-.15.15-.17.13a.46.46,0,0,1-.19.08.25.25,0,0,1-.19,0,.35.35,0,0,1-.18-.16.73.73,0,0,1-.08-.25,1.22,1.22,0,0,1,0-.27,1.66,1.66,0,0,1,0-.24v0a.28.28,0,0,0,0,.09s0,.06,0,.09l0,.24a.81.81,0,0,0,0,.27.72.72,0,0,0,.07.25.38.38,0,0,0,.17.16.49.49,0,0,0,.2,0,.62.62,0,0,0,.19-.07,1.09,1.09,0,0,0,.17-.13l.16-.16a1.25,1.25,0,0,0,.09-.12l.11-.11Z" transform="translate(-738.13 -1061.8)"/><path class="cls-2" d="M807.62,1167.21s0,0,0,0a.88.88,0,0,1,.06-.17l.09-.18c0-.06.06-.1.08-.11l.18-.06.41-.14c.1-.29.19-.54.26-.77s.14-.43.18-.59l.06-.15a.3.3,0,0,1,.13-.12l.37-.14.38-.12s.08,0,.09,0a.2.2,0,0,1,0,.13c0,.15-.08.34-.15.58s-.14.49-.23.79l.53-.2.26-.1.12,0,.07,0s.07,0,.06.1a1,1,0,0,1-.11.28,1.53,1.53,0,0,1-.19.3.46.46,0,0,1-.19.17l-.76.2c-.09.3-.18.61-.28.93s-.18.62-.27.92-.15.58-.21.84a6.19,6.19,0,0,0-.12.68,1.27,1.27,0,0,0,0,.45c0,.11.09.16.18.14a.65.65,0,0,0,.34-.2,4.91,4.91,0,0,0,.38-.46c.13-.18.26-.37.39-.58s.25-.4.37-.58.18-.19.25-.15.07.12,0,.25l-.45,1.09c-.17.39-.34.76-.53,1.1a4.47,4.47,0,0,1-.61.89,1.09,1.09,0,0,1-.66.41.73.73,0,0,1-.64-.16,1.11,1.11,0,0,1-.26-.63,3.58,3.58,0,0,1,0-1,9.51,9.51,0,0,1,.24-1.18c.1-.42.22-.84.35-1.28l.4-1.25Zm.4,1.4c.17-.54.35-1.09.53-1.63s.38-1.12.58-1.73l.19-.08.2-.06,0-.15a2.32,2.32,0,0,0-.44.16l0,0v0c-.13.44-.28.89-.43,1.33s-.29.89-.43,1.34-.28.91-.4,1.37-.23.94-.31,1.44a9.81,9.81,0,0,1,.22-1C807.82,1169.28,807.92,1168.94,808,1168.61Zm1.59,1.47-.16.23-.17.22-.3.31a.75.75,0,0,1-.37.18.4.4,0,0,1-.27,0,.59.59,0,0,1-.15-.17.79.79,0,0,1-.06-.22.69.69,0,0,1,0-.25c0-.09,0-.17,0-.26a1.89,1.89,0,0,0,0,.43.92.92,0,0,0,0,.3.76.76,0,0,0,.08.2.39.39,0,0,0,.41.16.56.56,0,0,0,.19-.07,1.09,1.09,0,0,0,.22-.18l.26-.33C809.37,1170.45,809.48,1170.29,809.61,1170.08Zm.28-3.74.09,0,.07-.08.09-.13s0,0,0,0l-.06,0c-.84.29-1.26.43-2.11.69C808.71,1166.65,809.1,1166.55,809.89,1166.34Z" transform="translate(-738.13 -1061.8)"/><path class="cls-2" d="M812.07,1168a1.5,1.5,0,0,1,0,.7,2.18,2.18,0,0,1-.31.7,2.43,2.43,0,0,1-.55.56,1.72,1.72,0,0,1-.72.28.68.68,0,0,0,.5.13,1.89,1.89,0,0,0,1-.51,5.24,5.24,0,0,0,1.14-1.56.11.11,0,0,1,.13-.06c.07,0,.09,0,.08.12a10.82,10.82,0,0,1-.85,2,6.7,6.7,0,0,1-.81,1.19,2.64,2.64,0,0,1-.66.55,1.5,1.5,0,0,1-.41.15.73.73,0,0,1-.59-.12,1,1,0,0,1-.36-.49,2.64,2.64,0,0,1-.14-.75,4.39,4.39,0,0,1,0-.88,4.8,4.8,0,0,1,.21-.91,5.18,5.18,0,0,1,.35-.82,2.37,2.37,0,0,1,.48-.62,1.21,1.21,0,0,1,.61-.32.81.81,0,0,1,.39,0,.7.7,0,0,1,.24.15,1.07,1.07,0,0,1,.15.22Zm-.23.56a1.64,1.64,0,0,0,0-.23,1.57,1.57,0,0,0,0-.23.67.67,0,0,0-.2-.35.53.53,0,0,0-.39-.07.93.93,0,0,0-.48.27,2.59,2.59,0,0,0-.38.48,3.19,3.19,0,0,0-.28.59,4,4,0,0,0-.18.56,1.69,1.69,0,0,0,0,.24c0,.08,0,.16,0,.25h0a1.1,1.1,0,0,1,0-.18c0-.06,0-.11,0-.16s.11-.36.18-.56a4,4,0,0,1,.28-.59,2.37,2.37,0,0,1,.38-.49.93.93,0,0,1,.48-.27.55.55,0,0,1,.4.08.75.75,0,0,1,.21.35.77.77,0,0,1,0,.15Zm-1.52,1.93a1,1,0,0,0,.62.31,1.35,1.35,0,0,0,.65-.13,2,2,0,0,0,.58-.44,2.51,2.51,0,0,0,.43-.61,3.44,3.44,0,0,1-.44.48,3.85,3.85,0,0,1-.55.39,1.4,1.4,0,0,1-.61.19.87.87,0,0,1-.36,0A.86.86,0,0,1,810.32,1170.48Zm1-1.88a.31.31,0,0,0-.23,0l-.19.1a1.15,1.15,0,0,0-.48.52,1,1,0,0,0-.1.63,1.3,1.3,0,0,0,.48-.25,2.5,2.5,0,0,0,.39-.41,1.21,1.21,0,0,0,.2-.39C811.41,1168.71,811.39,1168.63,811.31,1168.6Zm.31.3a.64.64,0,0,1-.06.18,1.3,1.3,0,0,1-.08.17l-.18.25a1.45,1.45,0,0,1-.21.22,1.14,1.14,0,0,0,.39-.33A.65.65,0,0,0,811.62,1168.9Z" transform="translate(-738.13 -1061.8)"/><path class="cls-2" d="M814,1166.71c.13,0,.23,0,.28,0a.26.26,0,0,1,.09.21.59.59,0,0,1-.06.31.77.77,0,0,1-.17.29c-.12.13-.17.22-.13.27a.38.38,0,0,0,.23.1l.42.07a1.21,1.21,0,0,1,.46.17.86.86,0,0,1,.33.41,1.45,1.45,0,0,1,0,.79l0,.13a.74.74,0,0,1,0,.14,6.3,6.3,0,0,0,.59-.87,6.77,6.77,0,0,0,.51-1.08.41.41,0,0,1,.12-.18.2.2,0,0,1,.14,0,.18.18,0,0,1,.09.1.34.34,0,0,1,0,.21,11.21,11.21,0,0,1-.52,1.39,6.55,6.55,0,0,1-.77,1.25,4.34,4.34,0,0,1-1,.94,2.38,2.38,0,0,1-1.18.42.67.67,0,0,1-.61-.21,1,1,0,0,1-.2-.59,1.85,1.85,0,0,1,.15-.71,1.35,1.35,0,0,1,.41-.57c.12-.09.19-.12.22-.09a.08.08,0,0,1,0,.11.26.26,0,0,0,0,.22.17.17,0,0,0,.16,0,.5.5,0,0,0,.2-.11.37.37,0,0,0,.15-.22c.05-.14.05-.23,0-.3a.46.46,0,0,0-.21-.14,1.5,1.5,0,0,0-.32-.09,1,1,0,0,1-.31-.13.54.54,0,0,1-.21-.24.75.75,0,0,1,0-.44,2.49,2.49,0,0,1,.22-.58,3.67,3.67,0,0,1,.3-.46,2.05,2.05,0,0,1,.33-.33A1.36,1.36,0,0,1,814,1166.71Zm.12,2.87a1.21,1.21,0,0,1-.17.36.73.73,0,0,1-.22.21.65.65,0,0,1-.27.08.35.35,0,0,1-.27-.1l-.09-.1-.09.09a1.12,1.12,0,0,0-.1.16,1,1,0,0,0-.08.23,1.06,1.06,0,0,0,0,.33.83.83,0,0,1,0-.15.74.74,0,0,1,0-.14.88.88,0,0,1,.09-.2l.13-.19a.21.21,0,0,0,.1.12.3.3,0,0,0,.25.09.65.65,0,0,0,.29-.09,1.12,1.12,0,0,0,.2-.18.79.79,0,0,0,.15-.25l0-.13S814.16,1169.63,814.16,1169.58Zm-.07-2.61a1,1,0,0,0-.29.19l-.24.25a3,3,0,0,0-.28.44,2.22,2.22,0,0,0-.18.49.43.43,0,0,0,0,.11s0,.07,0,.11l0-.06a2.72,2.72,0,0,1,.19-.5,1.77,1.77,0,0,1,.28-.43,1.88,1.88,0,0,1,.24-.25.88.88,0,0,1,.29-.18h0a.32.32,0,0,0,0-.09.31.31,0,0,1,0-.08Zm1.16,2.13a1.4,1.4,0,0,0,0-.41.47.47,0,0,0-.21-.29l-.1-.07-.1,0-.26,0-.27,0a1.73,1.73,0,0,1-.31-.07.32.32,0,0,1-.21-.21.43.43,0,0,0,0-.05v0a.36.36,0,0,0,0,.11s0,.08,0,.12a.4.4,0,0,0,.22.22l.31.07.27,0,.27.06.09,0,.1,0a.58.58,0,0,1,.19.25A.85.85,0,0,1,815.25,1169.1Zm-.47,1.71a3.88,3.88,0,0,0,.55-.59,5.7,5.7,0,0,0,.47-.7,1.13,1.13,0,0,0-.1.13l-.09.12-.81,1Z" transform="translate(-738.13 -1061.8)"/><path class="cls-2" d="M821.52,1166.32a.33.33,0,0,0,.2,0,.53.53,0,0,0,.27-.11,2,2,0,0,0,.35-.32,3.65,3.65,0,0,0,.42-.62.35.35,0,0,1,.16-.16.12.12,0,0,1,.13,0,.23.23,0,0,1,.06.13.35.35,0,0,1-.07.21,3.59,3.59,0,0,1-.38.71,3,3,0,0,1-.41.48,1.15,1.15,0,0,1-.39.27.71.71,0,0,1-.32.08,3.78,3.78,0,0,1-.08.83,4.53,4.53,0,0,1-.29,1,3.44,3.44,0,0,1-.47.82,1.17,1.17,0,0,1-.6.44.91.91,0,0,1-.89-.14,1.8,1.8,0,0,1-.51-.93,6.19,6.19,0,0,1-.14-1.52,13.54,13.54,0,0,1,.16-1.92q0-.32.12-.78c.06-.31.13-.63.2-1s.16-.68.26-1a7.88,7.88,0,0,1,.35-.91,2.82,2.82,0,0,1,.43-.69.93.93,0,0,1,.55-.32.27.27,0,0,1,.32.17,1.58,1.58,0,0,1,.14.56,5.06,5.06,0,0,1,0,.78q0,.42-.09.81a5.56,5.56,0,0,1-.21.88c-.1.32-.22.64-.35,1s-.29.64-.46,1a8.55,8.55,0,0,0-.51.86,1.51,1.51,0,0,0,.34,1,.53.53,0,0,0,.61.17.79.79,0,0,0,.54-.46,1.25,1.25,0,0,0,.1-.29,1.12,1.12,0,0,0,0-.25.59.59,0,0,1-.29-.1.92.92,0,0,1-.22-.22,1,1,0,0,1-.17-.28.88.88,0,0,1-.09-.29,1.19,1.19,0,0,1,.06-.59,1.6,1.6,0,0,1,.28-.48.81.81,0,0,1,.38-.23.28.28,0,0,1,.32.15.93.93,0,0,1,.06.21,3.33,3.33,0,0,1,.05.37c0,.13,0,.27,0,.4S821.52,1166.24,821.52,1166.32Zm-.67-4.39a1.36,1.36,0,0,0,0-.18l0-.24a.71.71,0,0,0-.06-.22c0-.07-.06-.11-.11-.12a.77.77,0,0,0-.46.3,2.8,2.8,0,0,0-.36.61c-.1.23-.19.46-.27.7s-.13.43-.17.58c-.09.37-.18.74-.25,1.11s-.14.76-.18,1.14-.07.58-.1.89a7.11,7.11,0,0,0-.06.92c0-.28,0-.56.05-.85s.07-.55.11-.81.11-.76.18-1.13.16-.75.25-1.11c0-.16.1-.35.18-.59s.17-.47.27-.7a3.93,3.93,0,0,1,.36-.61.77.77,0,0,1,.47-.3s.06,0,.08.07a.85.85,0,0,1,.06.17,1.52,1.52,0,0,1,0,.21C820.84,1161.84,820.84,1161.89,820.85,1161.93Zm-1.66,5.13c0,.14,0,.28.07.44a2.16,2.16,0,0,0,.14.43,1.69,1.69,0,0,0,.23.36.73.73,0,0,0,.35.21.45.45,0,0,0,.23,0,1,1,0,0,0,.25,0,1.22,1.22,0,0,0,.71-.61h0a.51.51,0,0,1,0-.13l0-.13s0,.05,0,.07a.08.08,0,0,0,0,.06,1.22,1.22,0,0,1-.71.59.8.8,0,0,1-.48,0,1,1,0,0,1-.35-.22,1.09,1.09,0,0,1-.22-.36,2,2,0,0,1-.14-.43,3.83,3.83,0,0,1-.07-.43h0Zm1.14-3.9s0,0,0,.07c0,.18,0,.37-.05.57l-.09.55a4.83,4.83,0,0,1-.24.86c-.11.3-.22.57-.34.82l-.2.43.2-.34c.06-.11.12-.22.18-.35a5.87,5.87,0,0,0,.24-.63c.06-.23.12-.44.16-.64l.09-.56c0-.2,0-.39,0-.58a.31.31,0,0,0,0-.1A.31.31,0,0,1,820.33,1163.16Zm-.88,1.73c0,.18,0,.37,0,.54s0,.33,0,.47c.12-.26.24-.54.34-.83a5.73,5.73,0,0,0,.21-.77,9.85,9.85,0,0,0,.14-1,.85.85,0,0,0,0-.39s-.08,0-.15.12a3.45,3.45,0,0,0-.19.47,5.13,5.13,0,0,0-.18.68A5.23,5.23,0,0,0,819.45,1164.89Zm2.53,1.67a1,1,0,0,1-.3.08.63.63,0,0,1-.3-.05l-.13-.07v-.17c0-.09,0-.18,0-.29l0-.28,0-.2,0-.2a.34.34,0,0,0,0-.09.29.29,0,0,0,0-.1l0,0-.1,0-.1.07-.08.09-.07.08a1.48,1.48,0,0,0-.15.31.74.74,0,0,0,0,.36.88.88,0,0,1,.06-.27,2.1,2.1,0,0,1,.13-.26l.06-.08.08-.08.1-.07a.13.13,0,0,1,.1,0l0,0h0a.17.17,0,0,1,0,.1s0,.08,0,.11a1.25,1.25,0,0,0,0,.19c0,.06,0,.13,0,.19a3.86,3.86,0,0,1,0,.58v.18l.14.06h.16a.42.42,0,0,0,.21-.06Z" transform="translate(-738.13 -1061.8)"/><path class="cls-2" d="M825.4,1163.8q0,.43,0,1.2c0,.51,0,1.07,0,1.7a8.14,8.14,0,0,0,.51-1.07,9,9,0,0,0,.4-1.34c.07-.16.14-.23.21-.22s.1.1.08.25a6.7,6.7,0,0,1-.14,1.16,7,7,0,0,1-.27,1,7.3,7.3,0,0,1-.38.85,7.49,7.49,0,0,1-.45.73c0,.58-.09,1.15-.18,1.72a9.38,9.38,0,0,1-.38,1.56,4.73,4.73,0,0,1-.63,1.23,1.89,1.89,0,0,1-.91.71.69.69,0,0,1-.58,0,.84.84,0,0,1-.38-.52,2,2,0,0,1,0-.9,3.93,3.93,0,0,1,.48-1.21q.44-.75.84-1.32l.77-1.07c0-.44,0-.67,0-1.12a4.72,4.72,0,0,1-.52,1.32,1.46,1.46,0,0,1-.82.69.49.49,0,0,1-.58-.16,1.56,1.56,0,0,1-.24-.78,5.35,5.35,0,0,1,0-1.19,10,10,0,0,1,.22-1.39c0-.17,0-.29,0-.35a.3.3,0,0,0-.17-.11l-.17,0s0,0,0-.12a1.65,1.65,0,0,1,.29-.39,1,1,0,0,1,.35-.22.45.45,0,0,1,.34,0,.57.57,0,0,1,.29.3.86.86,0,0,1,.08.4,3.4,3.4,0,0,1,0,.53c0,.2-.05.39-.08.58s-.06.37-.08.52a1.51,1.51,0,0,0,0,.36c0,.09.06.12.13.1a.67.67,0,0,0,.3-.22,2.1,2.1,0,0,0,.31-.48,5,5,0,0,0,.27-.72,4.58,4.58,0,0,0,.17-.88l0-.51c0-.16,0-.32,0-.46a.25.25,0,0,1,.18-.23l.39-.11a.54.54,0,0,1,.18,0s.06,0,.07,0,0,0,0,.11A1.19,1.19,0,0,0,825.4,1163.8Zm.26,3c-.39.62-.77,1.18-1.15,1.69s-.73,1-1.08,1.53a11,11,0,0,0-.62,1.1,2.58,2.58,0,0,0-.27,1.14,2.34,2.34,0,0,1,.16-.72,5.37,5.37,0,0,1,.33-.68,17,17,0,0,1,1.09-1.64c.47-.66,1-1.41,1.55-2.26a3.92,3.92,0,0,0,.32-.65,2,2,0,0,0,.1-.26c0-.08,0-.17.08-.27-.07.18-.15.35-.23.52S825.76,1166.68,825.66,1166.84Zm-1,2.56c0,.18-.07.42-.13.72s-.13.61-.22.91a4.85,4.85,0,0,1-.31.82.82.82,0,0,1-.39.44.28.28,0,0,1-.29,0,.61.61,0,0,1-.14-.29.83.83,0,0,0,0,.22.37.37,0,0,0,.08.18.24.24,0,0,0,.16.09.34.34,0,0,0,.23,0,.87.87,0,0,0,.4-.44,4.76,4.76,0,0,0,.29-.81,7.18,7.18,0,0,0,.2-.92A7.68,7.68,0,0,0,824.63,1169.4Zm-1.09,2.57s.07-.09.15-.24.15-.33.24-.55.16-.47.24-.74a7.73,7.73,0,0,0,.16-.81v-.07c-.12.2-.24.4-.35.6a6.21,6.21,0,0,0-.29.63,4.71,4.71,0,0,0-.24.9C823.43,1171.92,823.46,1172,823.54,1172Zm1.6-8a.56.56,0,0,1,0-.07.17.17,0,0,1,0-.07s0,0,0,0l-.17.06-.15.05c0,.22,0,.45-.07.68s-.05.48-.09.71a6.78,6.78,0,0,1-.15.68,2.67,2.67,0,0,1-.23.6,2.74,2.74,0,0,1-.18.32,2.6,2.6,0,0,1-.25.31.72.72,0,0,1-.3.2.41.41,0,0,1-.34,0,.29.29,0,0,1-.13-.14.41.41,0,0,1,0-.19.86.86,0,0,0,0,.28.3.3,0,0,0,.15.21.32.32,0,0,0,.3,0,.79.79,0,0,0,.3-.2,2.86,2.86,0,0,0,.27-.31,3.35,3.35,0,0,0,.21-.36,3.54,3.54,0,0,0,.27-.66c.06-.21.1-.42.14-.62s0-.43.07-.65,0-.46.09-.71l.13-.06Zm-1.9,1.15a.6.6,0,0,0,0-.32.26.26,0,0,0-.24-.18.4.4,0,0,0-.25.07,1.86,1.86,0,0,0-.22.19l0,0,0,0,0,0a.42.42,0,0,1,.4-.18.29.29,0,0,1,.18.12A.58.58,0,0,1,823.24,1165.11Z" transform="translate(-738.13 -1061.8)"/><path class="cls-2" d="M832.07,1158.22a1.4,1.4,0,0,1-.24.49c-.1.11-.19.16-.26.15s-.12-.07-.15-.19a1.59,1.59,0,0,1,.1-.6,1,1,0,0,0,.05-.57.67.67,0,0,0-.23-.4.6.6,0,0,0-.43-.14,1.1,1.1,0,0,0-.57.19,4,4,0,0,0-.77.59,4.48,4.48,0,0,0-.65.79,3.64,3.64,0,0,0-.43.89,1.7,1.7,0,0,0,0,.86,1.29,1.29,0,0,0,.17.43.6.6,0,0,0,.34.26,1.31,1.31,0,0,0,.61,0,4,4,0,0,0,1-.27,4.55,4.55,0,0,1,.86-.24,1.08,1.08,0,0,1,.63.09,1.21,1.21,0,0,1,.47.54,5.16,5.16,0,0,1,.33,1.11,4.49,4.49,0,0,1,.05,1.22,3.68,3.68,0,0,1-.32,1.21,3.76,3.76,0,0,1-1.9,1.9,2.42,2.42,0,0,1-.73.21,1.8,1.8,0,0,1-.58,0,1.17,1.17,0,0,1-.42-.2,1.66,1.66,0,0,1-.3-.29,1.4,1.4,0,0,1-.18-.3,1.78,1.78,0,0,1-.1-.21.82.82,0,0,1-.08-.49.53.53,0,0,1,.14-.32l.61-.56.06,0,.11,0a.15.15,0,0,1,.13,0s.07.08.09.18a.71.71,0,0,0,.11.28.89.89,0,0,0,.26.25,1.18,1.18,0,0,0,.38.16,1.12,1.12,0,0,0,.5,0,1.82,1.82,0,0,0,.56-.34,4.1,4.1,0,0,0,.56-.61,3.33,3.33,0,0,0,.4-.74,1.52,1.52,0,0,0,.11-.73c0-.23-.13-.36-.29-.39a1.29,1.29,0,0,0-.58,0,5.72,5.72,0,0,0-.72.21,3.7,3.7,0,0,1-.71.18,3.11,3.11,0,0,1-1,0,1.14,1.14,0,0,1-.58-.29,1.32,1.32,0,0,1-.33-.58,5.64,5.64,0,0,1-.23-.84,4.27,4.27,0,0,1,.09-1.62,6.32,6.32,0,0,1,.51-1.52,6,6,0,0,1,.82-1.28,3.67,3.67,0,0,1,1-.87,2.62,2.62,0,0,1,.71-.28,1.34,1.34,0,0,1,.63,0,.88.88,0,0,1,.49.31,1.37,1.37,0,0,1,.25.68,3.83,3.83,0,0,1,0,.88A6.85,6.85,0,0,1,832.07,1158.22Zm.43,4.43a1.62,1.62,0,0,1,0,.44,2.26,2.26,0,0,1-.11.43,2.6,2.6,0,0,1-.19.42,4,4,0,0,1-.24.37,2.5,2.5,0,0,1-.26.33,3.11,3.11,0,0,1-.31.32c-.11.09-.22.18-.34.26a2,2,0,0,1-.36.18,1.58,1.58,0,0,1-.57,0,1.13,1.13,0,0,1-.52-.19,1.24,1.24,0,0,1-.28-.28.85.85,0,0,1-.18-.37l-.59.54a.09.09,0,0,0,0,.06.18.18,0,0,0,0,.06.49.49,0,0,0,0,.24v-.08a.64.64,0,0,0,0-.07l0-.06.59-.53a1,1,0,0,0,.17.37,1.27,1.27,0,0,0,.3.27,1,1,0,0,0,.51.2,1.12,1.12,0,0,0,.57-.06,2,2,0,0,0,.36-.17,4.11,4.11,0,0,0,.35-.27c.11-.1.21-.2.31-.31l.25-.33a3.57,3.57,0,0,0,.25-.38,4.08,4.08,0,0,0,.19-.42,2.26,2.26,0,0,0,.11-.43,1.3,1.3,0,0,0,0-.44.29.29,0,0,1,0-.09.19.19,0,0,1,0-.08Zm-4.44-1.67a.43.43,0,0,1,0,0,.64.64,0,0,0,0,.07,4.78,4.78,0,0,1,0-1,8,8,0,0,1,.21-1,5.15,5.15,0,0,1,.33-.87,5.68,5.68,0,0,1,.47-.84,5.14,5.14,0,0,1,.59-.72,3,3,0,0,1,.68-.52,2.16,2.16,0,0,1,.34-.16,1.66,1.66,0,0,1,.38-.11,1.21,1.21,0,0,1,.38,0,.81.81,0,0,1,.33.14.59.59,0,0,1,.22.3.82.82,0,0,0-.1-.26.55.55,0,0,0-.17-.2.68.68,0,0,0-.33-.13,1.22,1.22,0,0,0-.38,0,1.82,1.82,0,0,0-.38.11,2.53,2.53,0,0,0-.33.16,3.29,3.29,0,0,0-.69.52,5.08,5.08,0,0,0-.58.72,6.18,6.18,0,0,0-.8,1.7,6.56,6.56,0,0,0-.2,1A3.79,3.79,0,0,0,828.06,1161Zm4.39,1c0-.11-.06-.23-.09-.35a2.52,2.52,0,0,0-.13-.33,1.67,1.67,0,0,0-.18-.28.48.48,0,0,0-.23-.17.65.65,0,0,0-.29-.06,1.86,1.86,0,0,0-.33,0l-.34.09-.29.1a5.41,5.41,0,0,1-.53.19,3.16,3.16,0,0,1-.6.11,1.78,1.78,0,0,1-.57-.06.85.85,0,0,1-.44-.33,1.32,1.32,0,0,1-.2-.45.18.18,0,0,0,0,.06c0,.1,0,.19.08.29a.89.89,0,0,0,.14.25.85.85,0,0,0,.44.33,1.36,1.36,0,0,0,.57.06,2.53,2.53,0,0,0,.6-.11l.54-.17.3-.11.33-.1a1.86,1.86,0,0,1,.33,0,.73.73,0,0,1,.3.06.71.71,0,0,1,.36.38A3.07,3.07,0,0,1,832.45,1162Zm-.65-4.53a1.62,1.62,0,0,1,0,.38,2.09,2.09,0,0,1-.07.36.72.72,0,0,0,0,.14l0,.17a1,1,0,0,0,.15-.33.15.15,0,0,0,0-.07A1.27,1.27,0,0,0,831.8,1157.44Z" transform="translate(-738.13 -1061.8)"/><path class="cls-2" d="M834.81,1156.1a6.83,6.83,0,0,1,0,1,10,10,0,0,1-.12,1.18,11.11,11.11,0,0,1-.29,1.24,7.4,7.4,0,0,1-.41,1.15c.12.48.18.72.29,1.2l.15-1.21a11.28,11.28,0,0,1,.19-1.14,4.22,4.22,0,0,1,.31-.91,1.21,1.21,0,0,1,.49-.57.27.27,0,0,1,.3,0,.72.72,0,0,1,.22.28,2.17,2.17,0,0,1,.15.47c0,.18.08.36.11.55s.06.37.08.54.06.31.09.42a.32.32,0,0,0,.11.19s.1,0,.16-.15a1.52,1.52,0,0,0,.15-.4c0-.15.08-.31.11-.48s.07-.34.1-.51.05-.35.09-.5.1-.25.17-.26.12.08.12.23a7.18,7.18,0,0,0,0,.72c0,.26,0,.54,0,.83s0,.58-.06.88a5,5,0,0,1-.14.82,2.4,2.4,0,0,1-.25.67,1,1,0,0,1-.41.43.48.48,0,0,1-.42.06.52.52,0,0,1-.28-.27,1.7,1.7,0,0,1-.17-.51,3.88,3.88,0,0,1-.1-.61c0-.21,0-.41,0-.6s0-.35,0-.47a.59.59,0,0,0-.08-.29.1.1,0,0,0-.13,0,.47.47,0,0,0-.14.18,1.18,1.18,0,0,0-.12.28q-.06.19-.12.42c0,.14-.06.32-.09.53s0,.47-.07.77,0,.66-.05,1.08l0,.18a.48.48,0,0,1,0,.17.23.23,0,0,1,0,.1l-.08.06-.09,0-.28.17-.31.16a.25.25,0,0,1-.16,0,.13.13,0,0,1-.09-.09.56.56,0,0,1,0-.18c0-.07,0-.16-.05-.25-.06-.25-.13-.54-.19-.86s-.14-.67-.2-1-.12-.73-.17-1.1-.08-.75-.11-1.12,0-.52,0-.85,0-.69,0-1,0-.72.09-1.09a8.49,8.49,0,0,1,.19-1,3.41,3.41,0,0,1,.33-.79,1,1,0,0,1,.49-.44.24.24,0,0,1,.26.08,1.15,1.15,0,0,1,.28.37,2.51,2.51,0,0,1,.22.59A3.47,3.47,0,0,1,834.81,1156.1Zm-.33-.44a1.14,1.14,0,0,0-.07-.32,1.34,1.34,0,0,0-.12-.3l0-.1-.09-.16-.1-.13s-.06-.05-.08,0a.77.77,0,0,0-.33.34,2.74,2.74,0,0,0-.25.61,5.37,5.37,0,0,0-.19.81c-.05.3-.09.62-.12,1s-.05.65-.05,1a7.68,7.68,0,0,0,0,1c0,.25,0,.49,0,.71s0,.43.06.61,0,.34.06.47,0,.23.07.3c0-.24-.06-.54-.08-.91s-.05-.77-.08-1.2a11.53,11.53,0,0,1,0-1.44q0-.73.15-1.38a6.06,6.06,0,0,1,.27-1.08,1,1,0,0,1,.4-.6s.07,0,.12.08a1.25,1.25,0,0,1,.15.24l.15.31A.85.85,0,0,1,834.48,1155.66Zm-.92,2.85c0,.19.05.39.09.59s.09.42.14.64a6.79,6.79,0,0,0,.19-1.21c0-.42,0-.8,0-1.15a8,8,0,0,0-.1-.88,1,1,0,0,0-.1-.36s-.06,0-.1.19a4.34,4.34,0,0,0-.1.57c0,.23-.05.5-.06.78S833.54,1158.25,833.56,1158.51Zm.57-2.09a8.27,8.27,0,0,1,.13,1.22,11.52,11.52,0,0,1-.07,1.29c0,.15,0,.31-.07.47a4.51,4.51,0,0,1-.14.61,6.66,6.66,0,0,0,.22-.88,6.85,6.85,0,0,0,.1-.91,5.53,5.53,0,0,0,0-.91A5.17,5.17,0,0,0,834.13,1156.42Zm.6,3.93,0-.1,0-.1c0-.12.05-.23.07-.33s0-.22.07-.33.06-.2.1-.31a2.85,2.85,0,0,1,.12-.31c.05-.09.11-.18.17-.27a1.43,1.43,0,0,1,.23-.2s.07,0,.11,0a.61.61,0,0,1,.09.2c0,.08.06.16.08.23a1.66,1.66,0,0,0,0,.16l0-.2a1.4,1.4,0,0,0-.06-.28.9.9,0,0,0-.11-.24c0-.07-.09-.09-.14-.07a.63.63,0,0,0-.23.2,1.67,1.67,0,0,0-.18.28c0,.1-.09.21-.13.31s-.06.21-.09.3-.07.33-.1.5S834.75,1160.17,834.73,1160.35Zm2.17.22a1,1,0,0,0,.11-.27,1.36,1.36,0,0,0,0-.29l-.08.21a.75.75,0,0,1-.1.2.69.69,0,0,1-.16.22.27.27,0,0,1-.24.08.26.26,0,0,1-.25-.16,1.17,1.17,0,0,1-.11-.33v0a1.94,1.94,0,0,0,0,.2,1.52,1.52,0,0,0,.06.2.58.58,0,0,0,.11.15.23.23,0,0,0,.17.07.27.27,0,0,0,.23-.07A.84.84,0,0,0,836.9,1160.57Z" transform="translate(-738.13 -1061.8)"/><path class="cls-2" d="M836.85,1158.4q0-.2-.12-.24a.32.32,0,0,0-.18-.06l-.14,0s0,0,0-.14a1.85,1.85,0,0,1,.21-.45,1.07,1.07,0,0,1,.3-.3.58.58,0,0,1,.74.09.73.73,0,0,1,.18.31,2.23,2.23,0,0,1,.09.39c0,.14,0,.29,0,.44a2.33,2.33,0,0,0,.07.41,1.56,1.56,0,0,0,.19.49c0,.08.11.08.15,0a.85.85,0,0,0,.12-.32,5.33,5.33,0,0,0,.11-.55c0-.2.07-.41.1-.63s0-.43.09-.62.1-.26.17-.26.12.07.12.22,0,.47,0,.74,0,.56,0,.85,0,.57-.07.85-.07.54-.12.78a3.22,3.22,0,0,1-.2.62.84.84,0,0,1-.29.36.64.64,0,0,1-.53.14.79.79,0,0,1-.37-.32,2.3,2.3,0,0,1-.24-.63c-.06-.26-.12-.52-.16-.79a7.13,7.13,0,0,1-.11-.77C836.91,1158.77,836.88,1158.57,836.85,1158.4Zm.77-.5a1,1,0,0,0-.1-.3.37.37,0,0,0-.21-.2.33.33,0,0,0-.36.07.88.88,0,0,0-.26.36h.08a1,1,0,0,1,.23-.26.33.33,0,0,1,.28-.07.4.4,0,0,1,.22.14A.9.9,0,0,1,837.62,1157.9Zm1.11,1.12a1.94,1.94,0,0,1-.05.2,1.19,1.19,0,0,1-.08.2.61.61,0,0,1-.12.16.32.32,0,0,1-.39,0,.49.49,0,0,1-.15-.19,1.19,1.19,0,0,1-.11-.26,2,2,0,0,0-.08-.23c0,.09,0,.18.07.29a1.32,1.32,0,0,0,.1.3.79.79,0,0,0,.16.23.33.33,0,0,0,.26.07.39.39,0,0,0,.2-.13.82.82,0,0,0,.12-.2,1.05,1.05,0,0,0,.06-.24A1.85,1.85,0,0,0,838.73,1159Zm-2.45-3.57a2.34,2.34,0,0,1,.07-.45,1.46,1.46,0,0,1,.17-.38.91.91,0,0,1,.22-.28.53.53,0,0,1,.26-.13.37.37,0,0,1,.25,0,.81.81,0,0,1,.2.21,1,1,0,0,1,.12.35,1.55,1.55,0,0,1,0,.44,2.11,2.11,0,0,1-.08.45,1.38,1.38,0,0,1-.16.39,1.23,1.23,0,0,1-.22.27.48.48,0,0,1-.27.13.34.34,0,0,1-.26,0,.65.65,0,0,1-.19-.21,1,1,0,0,1-.12-.35A2.06,2.06,0,0,1,836.28,1155.45Zm.28.47a2,2,0,0,1,0-.34,2.25,2.25,0,0,1,.06-.36,1.3,1.3,0,0,1,.15-.34.88.88,0,0,1,.12-.17.28.28,0,0,1,.17-.1h.06a.27.27,0,0,1,.13.13l.09.16a1,1,0,0,0-.08-.23.42.42,0,0,0-.07-.13.2.2,0,0,0-.12-.08h0a.26.26,0,0,0-.17.09.94.94,0,0,0-.12.18,1.29,1.29,0,0,0-.19.59A1.42,1.42,0,0,0,836.56,1155.92Z" transform="translate(-738.13 -1061.8)"/><path class="cls-2" d="M840.86,1156.41a.78.78,0,0,1-.37-.06,1.08,1.08,0,0,1-.31-.19,1,1,0,0,1-.29-.41,1.13,1.13,0,0,1-.12-.64,1.29,1.29,0,0,1,.2-.54.6.6,0,0,1,.37-.26c.14,0,.27,0,.38.19a1.76,1.76,0,0,1,.14.23,2.44,2.44,0,0,1,.14.28c0,.09.08.18.11.27a2.11,2.11,0,0,1,.08.22.41.41,0,0,0,.21,0,.76.76,0,0,0,.26-.18,1.82,1.82,0,0,0,.27-.41,3.73,3.73,0,0,0,.26-.73.41.41,0,0,1,.11-.22.14.14,0,0,1,.13,0,.17.17,0,0,1,.09.11.37.37,0,0,1,0,.23,3.73,3.73,0,0,1-.2.8,2.85,2.85,0,0,1-.28.58,1.85,1.85,0,0,1-.32.39,1,1,0,0,1-.3.19c0,.26.07.56.09.89a4.8,4.8,0,0,1,0,1,3.55,3.55,0,0,1-.25,1,1.82,1.82,0,0,1-.57.78.61.61,0,0,1-.67,0,1.79,1.79,0,0,1-.61-.59,4.77,4.77,0,0,1-.47-1,6.92,6.92,0,0,1-.31-1.06,4.49,4.49,0,0,1-.1-.9.6.6,0,0,1,.16-.5l.7-.48a.07.07,0,0,1,.08,0,.19.19,0,0,1,0,.09.43.43,0,0,1,0,.12.66.66,0,0,0,0,.13c0,.23,0,.5.06.8a6.27,6.27,0,0,0,.16.82,1.67,1.67,0,0,0,.26.6.28.28,0,0,0,.37.14.46.46,0,0,0,.25-.26,1.83,1.83,0,0,0,.14-.45,2.89,2.89,0,0,0,.08-.5C840.83,1156.67,840.84,1156.53,840.86,1156.41Zm-2.09-.3a.6.6,0,0,0-.06.29,2.69,2.69,0,0,0,0,.4c0,.14,0,.27.07.4a1.39,1.39,0,0,0,.09.27,1.91,1.91,0,0,1-.06-.27c0-.12,0-.24-.05-.36s0-.24,0-.35a.49.49,0,0,1,0-.24l.41-.28v-.1a.25.25,0,0,0,0-.08Zm1.66,2.4a.92.92,0,0,0,.39-.37,2.13,2.13,0,0,0,.23-.56,2.21,2.21,0,0,0,.09-.62,2.08,2.08,0,0,0,0-.52,3,3,0,0,1,0,.49,2.66,2.66,0,0,1-.12.56,2.34,2.34,0,0,1-.23.51.85.85,0,0,1-.34.36.39.39,0,0,1-.35,0,.66.66,0,0,1-.27-.21,1.13,1.13,0,0,1-.2-.34,3.12,3.12,0,0,1-.15-.39,2.69,2.69,0,0,0,.1.41,1.36,1.36,0,0,0,.2.4.77.77,0,0,0,.3.27A.49.49,0,0,0,840.43,1158.51Zm1.34-2.93a.87.87,0,0,1-.63.24l-.11,0c0-.09-.07-.21-.11-.35s-.11-.27-.17-.4a1,1,0,0,0-.2-.33.26.26,0,0,0-.21-.12.28.28,0,0,0-.16.12.77.77,0,0,0-.11.19.86.86,0,0,0,0,.61.81.81,0,0,1,0-.22.7.7,0,0,1,.05-.25.49.49,0,0,1,.11-.2.23.23,0,0,1,.17-.1c.06,0,.12,0,.19.12a2.45,2.45,0,0,1,.18.33,3.71,3.71,0,0,1,.15.4q.08.21.12.36a.77.77,0,0,0,.42-.08A.89.89,0,0,0,841.77,1155.58Z" transform="translate(-738.13 -1061.8)"/><path class="cls-2" d="M845.27,1156.16c-.23.19-.44.26-.63.16a1.31,1.31,0,0,1-.47-.57c0,.19,0,.37,0,.55s-.06.34-.1.5a2.31,2.31,0,0,1-.18.42,1.22,1.22,0,0,1-.31.33.51.51,0,0,1-.46.13.67.67,0,0,1-.38-.26,2.47,2.47,0,0,1-.3-.54,4.87,4.87,0,0,1-.2-.68,4.37,4.37,0,0,1-.1-.7,3.84,3.84,0,0,1,0-.59c0-.2,0-.42.08-.65a5.33,5.33,0,0,1,.17-.66,3.78,3.78,0,0,1,.28-.61,1.82,1.82,0,0,1,.38-.47l.16-.14a.91.91,0,0,1,.16-.11l.18,0a.61.61,0,0,1,.23,0h.06s0,0,.06,0,0,.06,0,.12a1.26,1.26,0,0,1,0,.28l.1-.07a.56.56,0,0,1,.19-.13.1.1,0,0,1,.09,0,.2.2,0,0,1,0,.11v.13a3.17,3.17,0,0,0,.06.58,2.1,2.1,0,0,0,.13.5,1.14,1.14,0,0,0,.24.45.13.13,0,0,0,.19,0,.93.93,0,0,0,.15-.38c0-.17.08-.37.12-.59s.06-.45.08-.68,0-.46.06-.65.08-.27.15-.28.12,0,.14.19,0,.48,0,.76,0,.56,0,.84,0,.58,0,.86a6.52,6.52,0,0,1-.06.8,3.39,3.39,0,0,1-.14.64A.94.94,0,0,1,845.27,1156.16Zm-1.32-1a2.61,2.61,0,0,0,.06-.33,1.24,1.24,0,0,0,0-.27,1.5,1.5,0,0,0,0-.29l-.08-.37v0a4.1,4.1,0,0,1,0,.5,2.29,2.29,0,0,1-.05.52,2,2,0,0,1-.18.48,1.22,1.22,0,0,1-.35.4.58.58,0,0,1-.59.13.75.75,0,0,1-.38-.45,1.23,1.23,0,0,0,.15.35.58.58,0,0,0,.22.22.44.44,0,0,0,.3,0,.74.74,0,0,0,.35-.17,1.3,1.3,0,0,0,.32-.34A1.35,1.35,0,0,0,844,1155.13Zm-.7.42a.76.76,0,0,0,.14-.13.92.92,0,0,0,.17-.24,2.12,2.12,0,0,0,.13-.36,2.31,2.31,0,0,0,0-.49,1.29,1.29,0,0,1,0-.19,2,2,0,0,1,0-.2.31.31,0,0,0-.29-.19.45.45,0,0,0-.31.11,1.06,1.06,0,0,0-.28.32,1.89,1.89,0,0,0-.16.36,1.49,1.49,0,0,0,0,.36,1.66,1.66,0,0,0,0,.33.62.62,0,0,0,.22.39C842.94,1155.7,843.09,1155.68,843.25,1155.55Zm-.84-1.18a5.87,5.87,0,0,1,.29-.83,2,2,0,0,1,.49-.67l.21-.18a.36.36,0,0,1,.24-.07v-.11a.32.32,0,0,0-.28,0l-.23.19a1.18,1.18,0,0,0-.27.31,2.49,2.49,0,0,0-.2.4,4.11,4.11,0,0,0-.15.46C842.47,1154.06,842.44,1154.22,842.41,1154.37Zm1.64-1.34V1153s0,0,0-.09l-.38.3a1.09,1.09,0,0,1,0,.18Zm1.4.55v-.15a.66.66,0,0,1,0-.14c0,.1,0,.19-.06.27a2.56,2.56,0,0,1,0,.27c0,.07-.05.15-.07.23l-.09.22a.52.52,0,0,1-.12.19.34.34,0,0,1-.18.11.33.33,0,0,1-.24,0,.55.55,0,0,1-.18-.16,1.59,1.59,0,0,1-.13-.22l-.09-.23v0a.19.19,0,0,0,0,.08l0,.08.09.23a.78.78,0,0,0,.12.22.58.58,0,0,0,.18.17.3.3,0,0,0,.23,0,.5.5,0,0,0,.19-.1.8.8,0,0,0,.13-.19.85.85,0,0,0,.09-.22,2.17,2.17,0,0,0,.07-.24l0-.16a1,1,0,0,1,0-.17Z" transform="translate(-738.13 -1061.8)"/><path class="cls-2" d="M844.71,1151.5a1.69,1.69,0,0,1,.15-.48,1.23,1.23,0,0,1,.26-.35.61.61,0,0,1,.34-.14.67.67,0,0,1,.38.13,1.74,1.74,0,0,1,.42.48,8.25,8.25,0,0,1,.45.75c0-.36,0-.72,0-1.06s0-.67,0-1a3.81,3.81,0,0,1,.18-.82,1.27,1.27,0,0,1,.37-.59.29.29,0,0,1,.29-.09.65.65,0,0,1,.26.22,1.65,1.65,0,0,1,.23.42,4.81,4.81,0,0,1,.2.53c.06.18.12.35.17.51s.11.29.16.39.09.15.14.16.1-.06.14-.19a2.36,2.36,0,0,0,.08-.43q0-.24,0-.51c0-.17,0-.35,0-.53s0-.35,0-.51.06-.28.13-.3.12,0,.15.19a7.23,7.23,0,0,0,.07.72c0,.27.07.55.1.84s.06.59.08.89a6,6,0,0,1,0,.85,3.15,3.15,0,0,1-.14.73,1.18,1.18,0,0,1-.34.52.46.46,0,0,1-.74,0,1.6,1.6,0,0,1-.25-.45,5.84,5.84,0,0,1-.2-.59c-.05-.2-.1-.4-.14-.58s-.07-.34-.1-.46a.62.62,0,0,0-.12-.27.09.09,0,0,0-.13,0,.64.64,0,0,0-.12.21,2.81,2.81,0,0,0-.08.31c0,.14,0,.26,0,.35a3.44,3.44,0,0,0,0,.35c0,.14,0,.34.06.59s.08.61.15,1.08h0c0,.07,0,.16.05.26a1.61,1.61,0,0,1,0,.31,2.87,2.87,0,0,1-.05.31.49.49,0,0,1-.14.22,3.22,3.22,0,0,1-.25.23l-.28.24-.14.11s-.06,0-.08,0a.17.17,0,0,1-.06-.09s0-.12-.06-.22-.11-.45-.18-.71-.16-.53-.26-.79-.18-.52-.28-.76-.19-.45-.27-.62a.4.4,0,0,0-.2-.22l-.21,0h-.16S844.69,1151.58,844.71,1151.5Zm1.79.7a8.5,8.5,0,0,0-.45-.76,1.85,1.85,0,0,0-.44-.5.46.46,0,0,0-.23-.08.36.36,0,0,0-.2.08.72.72,0,0,0-.14.19,1.45,1.45,0,0,0-.1.25H845a.74.74,0,0,1,.25-.34c.1-.07.23-.06.39,0a1.16,1.16,0,0,1,.24.25c.08.11.17.22.25.34l.21.33A1.33,1.33,0,0,0,846.5,1152.2Zm.38-1.27a3.12,3.12,0,0,0,0-.55c0-.19,0-.38.05-.57a3,3,0,0,1,.13-.55,1,1,0,0,1,.29-.45s.06,0,.11,0l.13.16a1.45,1.45,0,0,1,.12.19l.07.12-.07-.17a1.23,1.23,0,0,0-.12-.26,1,1,0,0,0-.15-.21.09.09,0,0,0-.14,0,1.27,1.27,0,0,0-.27.41,3.28,3.28,0,0,0-.14.58c0,.21-.05.42-.06.65S846.87,1150.74,846.88,1150.93Zm2.26-.93a2.66,2.66,0,0,1-.1.49,2.1,2.1,0,0,1-.13.26.38.38,0,0,1-.24.15.27.27,0,0,1-.28-.11,1.87,1.87,0,0,1-.17-.31,1.36,1.36,0,0,0,.17.41.32.32,0,0,0,.33.14.44.44,0,0,0,.22-.16.84.84,0,0,0,.13-.27,1.55,1.55,0,0,0,.07-.31A2.8,2.8,0,0,0,849.14,1150Z" transform="translate(-738.13 -1061.8)"/><path class="cls-2" d="M850.62,1152.93c.1-.56.2-1.06.31-1.5s.22-.87.33-1.27a3.37,3.37,0,0,0-.09-.34,2.41,2.41,0,0,1-.12.67,1.4,1.4,0,0,1-.35.54.58.58,0,0,1-.45.2.77.77,0,0,1-.41-.21,1.93,1.93,0,0,1-.35-.49,4.22,4.22,0,0,1-.27-.65,5.63,5.63,0,0,1-.17-.68,3.45,3.45,0,0,1,0-.6c0-.19,0-.42,0-.65a4.13,4.13,0,0,1,.11-.69,3,3,0,0,1,.22-.66,1.93,1.93,0,0,1,.34-.53l.15-.16a.57.57,0,0,1,.14-.13l.18-.09a.6.6,0,0,1,.24,0h.05a.11.11,0,0,1,.07,0,.23.23,0,0,1,.05.12c0,.06,0,.16,0,.31l0,0a.36.36,0,0,1,.16-.12.13.13,0,0,1,.11,0,.16.16,0,0,1,.07.07l0,.1c.09.18.2.42.34.73s.29.66.45,1.06a9.86,9.86,0,0,0,.11-1.23,9,9,0,0,0-.07-1.42c0-.18,0-.28.12-.31s.13,0,.17.18a6.62,6.62,0,0,1,.29,1.12,5.77,5.77,0,0,1,.06,1,7,7,0,0,1-.09.93c-.06.3-.12.6-.2.89a14.39,14.39,0,0,1,.42,1.66,9.21,9.21,0,0,1,.19,1.69,5.47,5.47,0,0,1-.17,1.54,2.72,2.72,0,0,1-.66,1.19.74.74,0,0,1-.56.25.67.67,0,0,1-.53-.29,1.84,1.84,0,0,1-.33-.82A4.28,4.28,0,0,1,850.62,1152.93Zm.91-2.85,0,.1c-.13.46-.25.91-.35,1.36s-.2.9-.29,1.37a6.15,6.15,0,0,0-.07.88,2,2,0,0,0,.16.83,2.14,2.14,0,0,1-.1-.77,4.88,4.88,0,0,1,.06-.79c.07-.4.16-.8.25-1.19s.19-.78.29-1.17.07-.35.11-.59c-.2-.75-.31-1.13-.52-1.87v.06C851.25,1149,851.35,1149.37,851.53,1150.08Zm.53,2.18a5.16,5.16,0,0,1,.08.7,2.37,2.37,0,0,1-.09.78,1,1,0,0,1-.13.33.36.36,0,0,1-.25.19.29.29,0,0,1-.36-.22.62.62,0,0,0,.15.29.25.25,0,0,0,.25.08.35.35,0,0,0,.26-.19,1.43,1.43,0,0,0,.14-.34,2.27,2.27,0,0,0,.09-.62,3.08,3.08,0,0,0,0-.61c0-.2-.07-.41-.12-.61l-.15-.61c-.11-.49-.16-.74-.27-1.23l0,.06c.1.41.14.62.24,1,0,.17.06.33.1.49S852,1152.1,852.06,1152.26Zm-.19.78a3,3,0,0,0-.07-.64l-.21-1c0,.21-.07.42-.1.64s0,.46,0,.71a4,4,0,0,0,0,.83.69.69,0,0,0,.14.36c.06,0,.11,0,.16-.18A2.9,2.9,0,0,0,851.87,1153Zm-1-5.22a2.38,2.38,0,0,1-.1.79,1.46,1.46,0,0,1-.4.65,1.06,1.06,0,0,1-.31.21.54.54,0,0,1-.28,0,.49.49,0,0,1-.24-.14.94.94,0,0,1-.18-.25,1.4,1.4,0,0,0,.18.32.58.58,0,0,0,.25.19.44.44,0,0,0,.3,0,.82.82,0,0,0,.33-.21A1.82,1.82,0,0,0,850.86,1147.82Zm-.64,1.25.12-.13a1,1,0,0,0,.13-.23,2.55,2.55,0,0,0,.11-.33,1.48,1.48,0,0,0,0-.43l-.2-.64a.34.34,0,0,0-.29,0,.51.51,0,0,0-.25.14,1.42,1.42,0,0,0-.25.37,1.39,1.39,0,0,0-.12.38,1.59,1.59,0,0,0,0,.37,2.72,2.72,0,0,0,.07.33.61.61,0,0,0,.26.35C849.92,1149.27,850.07,1149.23,850.22,1149.07Zm-1-1.07a4.59,4.59,0,0,1,.13-.57,2.86,2.86,0,0,1,.21-.58,1.77,1.77,0,0,1,.31-.49.94.94,0,0,1,.43-.31v-.13a1,1,0,0,0-.48.29,2.2,2.2,0,0,0-.32.51,4.19,4.19,0,0,0-.19.63A5.32,5.32,0,0,0,849.25,1148Zm2.71,1c.06-.4.1-.6.16-1a6.22,6.22,0,0,0,.09-.82,4.52,4.52,0,0,0,0-.82c0,.25,0,.5,0,.74s0,.5-.09.76-.1.61-.17,1l.05.13Zm-.75-1.86c-.12-.29-.27-.59-.43-.9h0l-.37.4v.18l.42-.46,0,0A7.43,7.43,0,0,1,851.21,1147.15Z" transform="translate(-738.13 -1061.8)"/><path class="cls-2" d="M851.67,1145.28c0-.12-.11-.19-.18-.2h-.19l-.14,0s0,0,0-.13a2.11,2.11,0,0,1,.12-.51,1.51,1.51,0,0,1,.24-.4.65.65,0,0,1,.34-.21.55.55,0,0,1,.41.05.56.56,0,0,1,.24.24,2,2,0,0,1,.17.36,4.13,4.13,0,0,1,.14.42,1.88,1.88,0,0,0,.15.38,1.48,1.48,0,0,0,.29.42c.07,0,.12,0,.16,0a.92.92,0,0,0,0-.35c0-.17,0-.36,0-.57s0-.43,0-.66,0-.45,0-.64,0-.29.11-.31.13,0,.17.17.08.47.13.74.1.56.14.84.08.58.11.86a5.77,5.77,0,0,1,0,.81,3.36,3.36,0,0,1-.07.67,1,1,0,0,1-.22.46.7.7,0,0,1-.49.31.62.62,0,0,1-.43-.2,2.07,2.07,0,0,1-.38-.53c-.11-.23-.22-.47-.32-.72s-.19-.49-.27-.72S851.73,1145.43,851.67,1145.28Zm.66-.75a.92.92,0,0,0-.16-.27.37.37,0,0,0-.59.06,1.27,1.27,0,0,0-.19.45h.09a1,1,0,0,1,.17-.34.35.35,0,0,1,.51-.09A.61.61,0,0,1,852.33,1144.53Zm1.33.73a.74.74,0,0,1,0,.21c0,.08,0,.16,0,.23a.66.66,0,0,1-.09.19.29.29,0,0,1-.15.14.32.32,0,0,1-.23,0,.49.49,0,0,1-.19-.14,1.77,1.77,0,0,1-.16-.22,2.36,2.36,0,0,0-.13-.2l.13.26a1.28,1.28,0,0,0,.16.26.48.48,0,0,0,.21.17.29.29,0,0,0,.27,0,.41.41,0,0,0,.18-.19.61.61,0,0,0,.07-.24.71.71,0,0,0,0-.25A1.57,1.57,0,0,0,853.66,1145.26Zm-3.16-2.69a1.83,1.83,0,0,1,0-.47,1.43,1.43,0,0,1,.09-.43,1.25,1.25,0,0,1,.16-.35.76.76,0,0,1,.23-.21.41.41,0,0,1,.26,0,.49.49,0,0,1,.24.14,1.12,1.12,0,0,1,.2.3,1.35,1.35,0,0,1,.12.43,1.86,1.86,0,0,1,0,.47,1.83,1.83,0,0,1-.08.43,1.14,1.14,0,0,1-.17.35.6.6,0,0,1-.23.22.42.42,0,0,1-.27,0,.53.53,0,0,1-.24-.15,1,1,0,0,1-.19-.3A1.62,1.62,0,0,1,850.5,1142.57Zm.37.37a1.39,1.39,0,0,1-.1-.33,1.5,1.5,0,0,1,0-.37,1.28,1.28,0,0,1,.07-.39,1.13,1.13,0,0,1,.09-.2.3.3,0,0,1,.15-.16h0a.21.21,0,0,1,.17.07.92.92,0,0,1,.11.14.68.68,0,0,0-.12-.21l-.1-.1a.21.21,0,0,0-.14,0l0,0a.36.36,0,0,0-.15.15,1.28,1.28,0,0,0-.09.22,1.51,1.51,0,0,0-.07.64A1.42,1.42,0,0,0,850.87,1142.94Z" transform="translate(-738.13 -1061.8)"/></svg>