<?xml version="1.0" encoding="utf-8"?>
<!-- Generator: Adobe Illustrator 24.0.1, SVG Export Plug-In . SVG Version: 6.00 Build 0)  -->
<svg version="1.1" id="Layer_1" xmlns="http://www.w3.org/2000/svg" xmlns:xlink="http://www.w3.org/1999/xlink" x="0px" y="0px"
	 viewBox="0 0 1200 549" style="enable-background:new 0 0 1200 549;" xml:space="preserve">
<style type="text/css">
	.st0{fill:#91A8F6;}
	.st1{fill:#060534;}
	.st2{fill:#FF8E4B;}
	.st3{fill:#141466;}
	.st4{fill:#2C2182;}
	.st5{fill:#5454C6;}
	.st6{fill:#8C8CEA;}
	.st7{fill:#4848AA;}
	.st8{fill:#FFB079;}
	.st9{fill:#1F1F87;}
	.st10{fill:#C3C3FC;}
	.st11{fill:#FFAAA8;}
	.st12{fill:#101066;}
	.st13{fill:#090949;}
	.st14{fill:#4343A8;}
	.st15{fill:#00014A;}
	.st16{fill:#1A2E35;}
	.st17{fill:#C76668;}
	.st18{fill:#FF9090;}
	.st19{fill:#6464BC;}
	.st20{fill:#FFB27B;}
	.st21{fill:#242493;}
	.st22{fill:#18187C;}
	.st23{fill:#0A2038;}
	.st24{fill:#7373E0;}
	.st25{fill:#95A6DB;}
	.st26{fill:#6A86CE;}
	.st27{fill:#9A4A4D;}
	.st28{opacity:0.45;fill:#FFFFFF;}
	.st29{opacity:0.3;}
	.st30{opacity:0.15;}
	.st31{opacity:0.17;fill:#8C8CEA;}
	.st32{opacity:0.26;fill:#8C8CEA;}
	.st33{fill:#FFFFFF;}
</style>
<path class="st0" d="M63.8,64.1c0,0,1.3,9.6-9.8,9.3c0,0,9.6,0.1,9.3,9.1c0,0,0.9-7.1,9.7-8.6C73,73.9,65.6,75.6,63.8,64.1z"/>
<path class="st0" d="M260.8,101.6c0,0,1,7.3-7.5,7.2c0,0,7.3,0.1,7.2,6.9c0,0,0.7-5.4,7.4-6.6C267.8,109.1,262.1,110.4,260.8,101.6z
	"/>
<g>
	<path class="st0" d="M851.2,75h-20.6c-2.6,0-4.8-2.1-4.8-4.8c0-2.6,2.1-4.7,4.6-4.8c0.1-4,3.4-7.3,7.4-7.3c2.5,0,4.8,1.3,6.2,3.4
		c2.8-0.4,5.2,1.3,5.9,3.9h1.2c2.6,0,4.8,2.1,4.8,4.8S853.9,75,851.2,75z M830.7,66.9c-1.9,0-3.4,1.5-3.4,3.4c0,1.9,1.5,3.4,3.4,3.4
		h20.6c1.9,0,3.4-1.5,3.4-3.4c0-1.9-1.5-3.4-3.4-3.4h-2.4l-0.1-0.6c-0.4-2.2-2.5-3.8-4.9-3.2l-0.5,0.1l-0.3-0.5
		c-1.1-1.9-3.1-3.1-5.2-3.1c-3.3,0-6,2.7-6,6c0,0.2,0,0.3,0,0.5l0.1,0.8H830.7z"/>
</g>
<g>
	<path class="st0" d="M1080.4,147.4h-24.1c-3.1,0-5.6-2.5-5.6-5.6c0-3,2.4-5.5,5.4-5.6c0.1-4.7,3.9-8.5,8.6-8.5
		c2.9,0,5.7,1.5,7.2,3.9c3.2-0.5,6.1,1.6,7,4.6h1.4c3.1,0,5.6,2.5,5.6,5.6C1086,144.9,1083.5,147.4,1080.4,147.4z M1056.3,137.9
		c-2.2,0-3.9,1.8-3.9,3.9s1.8,3.9,3.9,3.9h24.1c2.2,0,3.9-1.8,3.9-3.9s-1.8-3.9-3.9-3.9h-2.8l-0.1-0.7c-0.4-2.6-2.9-4.5-5.7-3.8
		l-0.6,0.1l-0.3-0.5c-1.2-2.2-3.6-3.6-6.1-3.6c-3.9,0-7,3.1-7,7c0,0.2,0,0.4,0,0.6l0.1,0.9H1056.3z"/>
</g>
<g>
	<path class="st0" d="M233.3,37h-16.1c-2.1,0-3.7-1.7-3.7-3.7c0-2,1.6-3.7,3.6-3.7c0.1-3.1,2.6-5.7,5.8-5.7c2,0,3.8,1,4.8,2.6
		c2.2-0.3,4.1,1.1,4.6,3h0.9c2.1,0,3.7,1.7,3.7,3.7S235.3,37,233.3,37z M217.2,30.7c-1.4,0-2.6,1.2-2.6,2.6c0,1.4,1.2,2.6,2.6,2.6
		h16.1c1.4,0,2.6-1.2,2.6-2.6c0-1.4-1.2-2.6-2.6-2.6h-1.9l-0.1-0.5c-0.3-1.8-1.9-3-3.8-2.5l-0.4,0.1l-0.2-0.4
		c-0.8-1.5-2.4-2.4-4.1-2.4c-2.6,0-4.7,2.1-4.7,4.7c0,0.1,0,0.3,0,0.4l0.1,0.6H217.2z"/>
</g>
<g>
	<path class="st0" d="M103.9,162.5H78c-0.6,0-1.1,0.5-1.1,1.1c0,0.6,0.5,1.1,1.1,1.1h25.8c0.6,0,1.1-0.5,1.1-1.1
		C105,163,104.5,162.5,103.9,162.5z"/>
	<path class="st0" d="M69.8,162.5h-5c-0.6,0-1.1,0.5-1.1,1.1c0,0.6,0.5,1.1,1.1,1.1h5c0.6,0,1.1-0.5,1.1-1.1
		C70.9,163,70.4,162.5,69.8,162.5z"/>
	<path class="st0" d="M91.7,171.5c0,0.6-0.5,1.1-1.1,1.1h-3.2c-0.6,0-1.1-0.5-1.1-1.1c0-0.6,0.5-1.1,1.1-1.1h3.2
		C91.2,170.4,91.7,170.9,91.7,171.5z M82.9,171.5c0,0.6-0.5,1.1-1.1,1.1h-5.7c-0.6,0-1.1-0.5-1.1-1.1c0-0.6,0.5-1.1,1.1-1.1h5.7
		C82.3,170.4,82.9,170.9,82.9,171.5z M71.6,171.5c0,0.6-0.5,1.1-1.1,1.1h-5.6c-0.6,0-1.1-0.5-1.1-1.1c0-0.6,0.5-1.1,1.1-1.1h5.6
		C71,170.4,71.6,170.9,71.6,171.5z"/>
</g>
<g>
	<path class="st0" d="M584.1,54.4h-29.5c-3.8,0-6.9-3.1-6.9-6.9c0-3.7,3-6.7,6.6-6.8c0.1-5.8,4.8-10.4,10.6-10.4
		c3.6,0,6.9,1.8,8.9,4.8c4-0.6,7.5,1.9,8.5,5.6h1.7c3.8,0,6.9,3.1,6.9,6.9S587.9,54.4,584.1,54.4z M554.6,42.7
		c-2.7,0-4.8,2.2-4.8,4.8s2.2,4.8,4.8,4.8h29.5c2.7,0,4.8-2.2,4.8-4.8s-2.2-4.8-4.8-4.8h-3.4l-0.1-0.9c-0.5-3.2-3.6-5.5-7-4.7
		l-0.7,0.2l-0.4-0.7c-1.5-2.7-4.4-4.4-7.5-4.4c-4.7,0-8.6,3.8-8.6,8.6c0,0.3,0,0.5,0,0.7l0.1,1.1H554.6z"/>
</g>
<path class="st0" d="M943.5,6.1c0,0,1,7.3-7.5,7.2c0,0,7.3,0.1,7.2,6.9c0,0,0.7-5.4,7.4-6.6C950.5,13.6,944.9,14.9,943.5,6.1z"/>
<g>
	<path class="st0" d="M1154.6,43.9h-24.1c-3.1,0-5.6-2.5-5.6-5.6c0-3,2.4-5.5,5.4-5.6c0.1-4.7,3.9-8.5,8.6-8.5
		c2.9,0,5.7,1.5,7.2,3.9c3.2-0.5,6.1,1.6,7,4.6h1.4c3.1,0,5.6,2.5,5.6,5.6S1157.6,43.9,1154.6,43.9z M1130.5,34.4
		c-2.2,0-3.9,1.8-3.9,3.9s1.8,3.9,3.9,3.9h24.1c2.2,0,3.9-1.8,3.9-3.9s-1.8-3.9-3.9-3.9h-2.8l-0.1-0.7c-0.4-2.6-2.9-4.5-5.7-3.8
		l-0.6,0.1l-0.3-0.5c-1.2-2.2-3.6-3.6-6.1-3.6c-3.9,0-7,3.1-7,7c0,0.2,0,0.4,0,0.6l0.1,0.9H1130.5z"/>
</g>
<path class="st0" d="M719.4,27.6c0,0,1.8,13.2-13.5,12.9c0,0,13.2,0.1,12.9,12.5c0,0,1.2-9.7,13.3-11.9
	C732.1,41.1,721.8,43.5,719.4,27.6z"/>
<path class="st1" d="M1199.3,549H1.2c-0.7,0-1.2-0.5-1.2-1.2h0c0-0.7,0.5-1.2,1.2-1.2h1198.1c0.7,0,1.2,0.5,1.2,1.2v0
	C1200.5,548.5,1199.9,549,1199.3,549z"/>
<g>
	<g>
		<path class="st2" d="M150.1,388l2.9,2.4c0,0,8-2.9,9.8,6.6c0,0,0.5,4-2.1,4c-2.6,0-1.5-0.4-5.1-0.3c-3.6,0.1-6.6-1.8-7.2-4.7
			l-1.7-2.5L150.1,388z"/>
		<path class="st3" d="M149.7,393.1c2.3-2.4,2.1-4.2,2.1-4.2s-26.9-22.1-29.7-23.9c-1.9-1.2-21.7-18.8-31-29.5
			c-4.6-5.3-10.3-3.3-16.8-1.4l-5.4,1.5c-6.5,1.9-8.2,10.9-2.8,15.3c15,12.4,39.9,26.4,44.6,29.3c11.6,7.3,34.2,15.9,34.2,15.9
			S147.7,395.2,149.7,393.1z"/>
	</g>
	<path class="st4" d="M180.5,528.6c0,0,6.5,4.9,16.6,2.3c0,0,8.1-1.8,9.8,2.2c0,0-12.4,6.3-15.5,8c-2.4,1.3-4.8,3.3-6.6,4.9
		c-1.4,1.3-3.5,1.1-4.7-0.4c-0.5-0.7-1.2-1.5-1.9-2.4c-1.9-2.6-6.4-10.9-6.4-10.9L180.5,528.6z"/>
	<path class="st5" d="M184.3,526.1c0,0-4,9.2-13.2,7.5c0,0-18.8-15.5-31.6-31.6c-4.2-5.2-7.7-10.5-9.8-15.4
		c-8.5-19.7-31.6-49.2-46.2-64.1l36.6-13.2c0,0,11.7,23.6,27.3,52.6C158.7,482.8,172,506.4,184.3,526.1z"/>
	<g>
		<path class="st6" d="M186.5,351.8c0.2-2.3,0.3-4.5,0.2-6.7c0-1,0.5-2,1.5-2.4l10.8-5c1.2-0.5,1.7-1.9,1.3-3.1l-3.7-10.3
			c-0.4-1.2-1.6-1.8-2.8-1.5l-10.7,2.6c-1,0.3-2.1-0.2-2.7-1.1c-2.4-4-5.5-7.5-9.1-10.6c-0.9-0.7-1.1-2-0.6-3l2.9-6
			c0.6-1.1,0.2-2.5-0.9-3.2l-9.1-5.8c-1.1-0.7-2.5-0.4-3.3,0.6l-6.4,8.4c-2-0.5-4-0.9-6.1-1.1c-2.8-0.3-5.5-0.3-8.2-0.1
			c-1,0.1-2-0.5-2.4-1.4l-4-8.7c-0.6-1.2-1.9-1.8-3.2-1.3l-10.1,3.7c-1.2,0.4-1.9,1.7-1.6,3l2.2,8.9c0.3,1-0.2,2.1-1.1,2.7
			c-2.9,1.8-5.5,4-7.8,6.5c-0.8,0.8-1.9,1-2.9,0.5l-9.7-4.8c-1.1-0.6-2.5-0.2-3.2,0.9l-5.8,9.1c-0.7,1.1-0.4,2.6,0.6,3.3l9.5,7.2
			c0.8,0.6,1.1,1.6,0.9,2.6c-0.6,2.2-1,4.4-1.2,6.7c-0.1,1.2-0.2,2.4-0.2,3.6c0,1-0.6,1.9-1.5,2.3l-10.4,4.8
			c-1.2,0.5-1.7,1.9-1.3,3.1l3.7,10.1c0.4,1.2,1.7,1.9,3,1.6l8.5-2.1c1.1-0.3,2.3,0.2,2.8,1.3c2.1,4,4.8,7.7,8,10.9
			c0.8,0.8,1,1.9,0.5,2.9l-4.3,8.8c-0.6,1.2-0.2,2.6,0.9,3.3l9.1,5.8c1.1,0.7,2.5,0.4,3.3-0.6l6.3-8.3c0.6-0.8,1.7-1.2,2.8-0.9
			c2.4,0.7,5,1.2,7.6,1.5c1.4,0.2,2.8,0.2,4.2,0.3c1,0,1.8,0.6,2.2,1.4l4.1,8.9c0.6,1.2,1.9,1.8,3.2,1.3l10.1-3.7
			c1.2-0.4,1.9-1.7,1.6-3l-1.7-7.1c-0.3-1.1,0.2-2.3,1.3-2.8c5.2-2.7,9.7-6.4,13.5-10.9c0.7-0.9,2-1.1,3-0.6l7.9,3.9
			c1.1,0.6,2.5,0.2,3.2-0.9l5.8-9.1c0.7-1.1,0.4-2.6-0.6-3.4l-9.1-6.9c-0.8-0.6-1.1-1.5-0.9-2.5
			C186.1,354.3,186.3,353.1,186.5,351.8z M152.2,369.1c-22.7,8.1-41.6-15.5-28.5-35.9c2-3.1,6.4-6.6,9.8-7.9
			c22.7-8.4,41.8,15.1,29,35.6C160.4,364.1,155.8,367.8,152.2,369.1z"/>
	</g>
	<path class="st7" d="M147.5,461.9l-7.9,40.1c-4.2-5.2-7.7-10.5-9.8-15.4c-8.5-19.7-31.6-49.2-46.2-64.1l36.6-13.2
		C120.1,409.3,131.9,432.9,147.5,461.9z"/>
	<path class="st4" d="M117.6,533.9c0,0-0.4,7.3,8.5,8.3c0,0,5.4,0.1,5.4,4.8h-26.1c0,0-0.7-1.9-0.9-5.9c-0.1-3.1,3-11.2,3-11.2
		L117.6,533.9z"/>
	<path class="st5" d="M108.1,409.3c0,0,16.3,17.9,26.7,50.2c5.6,17.6-10.3,61.7-13.4,77.1c0,0-10.7,0.9-18-1.9
		c0,0-0.6-31.7,3.7-56.1c2.4-13.7-21.5-29.2-31.9-54c-7.1-16.8,1.5-16.5,12.1-16.9L108.1,409.3z"/>
	<path class="st8" d="M89.3,329.3c-9.1,5.1-27.7,0.4-27.7,0.4s7.5-8.6,4.1-22.5l7.1,3.6l7.7,3.9c0,0,0.5,2.5,0.8,6.9
		c0.1,1.1,0.2,2.4,0.2,3.8C86.3,326.8,89.3,329.3,89.3,329.3z"/>
	<path class="st9" d="M122.6,408.4c0,1.6-1.8,2.4-2.2,2.4c-3.7,0.7-13.9,4.6-23.1,5.6c-7.8,0.8-15,0-22.9-1.5
		c-1-0.2-3.5-0.9-3.7-1.9c-0.2-1.1-30.5-61.7-7-87.8c0.6-0.6,5.2,0.5,9.5,1.5c3.9,0.9,7.5,0.4,10.7-0.9l4,2.1
		c4.9,2.7,14.2,12.4,15.2,20c0.6,3.9,2.8,6.7,3.4,10.1c0.2,1.3,0.5,2.5,0.7,3.7c0.5,2.3,1,4.6,1.5,6.7c1.4,5.8,2.8,10.7,4.3,15
		c1.5,4.5,3,8.3,4.4,11.5c1.7,4.1,3.2,7.2,4.1,9.5C122.2,406,122.6,407.3,122.6,408.4z"/>
	<path class="st3" d="M121.6,404.4C78.8,384.2,64,345.6,64,345.6s34.7,12.8,43.3,16.1c0.5,2.3,1,4.6,1.5,6.7
		c1.4,5.8,2.8,10.7,4.3,15c1.5,4.5,3,8.3,4.4,11.5C119.2,399,120.7,402,121.6,404.4z"/>
	<g>
		<path class="st8" d="M146.6,392.7l3.7,1.4c0,0,7.4-5.2,12,3.3c0,0,1.7,3.7-1,4.5s-1.7,0-5.4,1.3c-3.7,1.2-7.4,0.3-8.8-2.3
			l-2.5-1.8L146.6,392.7z"/>
		<path class="st9" d="M149.6,397.9c1.4-3.6,2-5.2,2-5.2s-27.9-22.8-30.8-24.7c-1.9-1.3-21.2-15.8-30.6-27c-4.7-5.6-12-8.1-19.1-6.6
			l-5.9,1.2c-7.1,1.5-9.4,10.4-3.9,15.1c15.5,13.3,41.5,28.6,46.4,31.8c12.1,7.9,38.8,19.1,38.8,19.1S148.6,400.7,149.6,397.9z"/>
	</g>
	<path class="st2" d="M81.4,321.6c-8.9,0.5-14.7-6.9-14.7-6.9s4-2.2,6.2-3.9l7.7,3.9C80.5,314.7,81,317.2,81.4,321.6z"/>
	<path class="st8" d="M85.2,312.4c0,0-13.5,9.7-19.4,1.2c-5.9-8.5-11.6-13-3.3-19.6c8.4-6.6,12.3-4.5,15-2.1
		C80.2,294.3,88.6,309.7,85.2,312.4z"/>
	<path class="st4" d="M78.9,284.2c-0.5-3.3-1.6-5.6-1.6-5.6s-0.8,3.5-7.3,3c-6.4-0.5-16.6,0.6-20,8c-0.2,0.5-0.4,0.9-0.6,1.4
		c-0.6-1.6-0.8-4.1-0.8-4.1c-1.2,3.2,0,7.1,0,7.1h0c0,0.1,0,0.2-0.1,0.3c-1.4,1.2-2.6,4.9-2.6,4.9c0.4-1,1.5-1.7,2.4-2.1
		c0,5.7,2.3,11.3,6.3,12.9c5.9,2.4,5.9,0.6,11.8,4.5c0,0,1.6-2,0.5-3.3c-1.1-1.3-5.2-3.3-2.9-5.2c2.3-1.9,3.2,0.2,4-1.1
		c0.8-1.3-3.4-5.2,2.1-8.8C75.8,292.6,79.4,287.5,78.9,284.2z"/>
</g>
<g>
	<path class="st6" d="M812.7,418.4l-29.5-17.8c-2.4-1.5-3.8-4.3-3.6-7.1c0.3-3.7,0.5-7.3,0.5-11.1c0-6.9-0.5-13.7-1.5-20.3
		c-0.5-3.1,0.9-6.1,3.6-7.7l30.9-18.6c3.3-2,4.6-6.2,2.8-9.7l-14.5-29.6c-1.7-3.3-5.5-4.9-9-3.7l-31.2,11.3c-3,1.2-6.4,0.2-8.5-2.5
		c-8.6-11.1-18.9-20.8-30.6-28.8c-2.8-1.9-4-5.6-2.8-8.8l6.9-19c1.3-3.6-0.3-7.7-3.8-9.4l-29.4-14.4c-0.6-0.3-1.2-0.5-1.8-0.6
		c-3-0.6-6.2,0.7-7.8,3.5l-13.3,22.1l-3.2,5.4c-6.1-0.9-12.3-1.3-18.6-1.3c-8.5,0-16.8,0.8-24.8,2.3c-3,0.6-6.1-0.8-7.7-3.4
		l-15-24.9c-2.1-3.4-6.4-4.7-9.9-2.9L568,232.5l-6.5,3.2c-3.5,1.7-5.2,5.9-3.9,9.6l9.4,26.1c1.1,3,0.2,6.4-2.3,8.4
		c-7.3,6-14,12.7-19.9,20.1c-0.6,0.6-1,1.2-1.5,1.8c-0.2,0.2-0.3,0.4-0.5,0.6c-2.1,2.2-5.3,2.9-8.1,1.9l-30.8-11.2
		c-0.3-0.2-0.7-0.2-1.1-0.3c-3.3-0.7-6.8,1-8.3,4.1L480.2,326c-1.7,3.5-0.5,7.8,2.9,9.9l30.8,18.6c2.6,1.5,4,4.6,3.5,7.6
		c-1,6.6-1.5,13.4-1.5,20.4c0,3.7,0.2,7.3,0.5,11c0.2,2.9-1.2,5.8-3.7,7.3l-29.7,17.9c-3.3,2-4.5,6.1-2.8,9.6l14.4,29.2
		c1.7,3.5,5.8,5.2,9.6,3.9l24.7-9c3.3-1.2,7,0,8.9,2.9c7.6,11.5,16.9,21.7,27.6,30.3c2.6,2,3.5,5.5,2.4,8.5l-10.1,27.8
		c-1.4,3.7,0.3,7.9,3.9,9.6l29.2,14.3c3.5,1.7,7.8,0.5,9.7-2.9l0.8-1.3l15.5-25.6c1.7-2.7,4.8-4.1,7.9-3.6h0
		c7.6,1.4,15.4,2.1,23.3,2.1c4.3,0,8.4-0.2,12.6-0.6c2.9-0.3,5.7,1.1,7.2,3.6l15.2,25.3c2.1,3.5,6.5,4.7,10,3l29.1-14.3
		c0.8-0.4,1.5-1,2.1-1.6c1.9-2,2.6-5.1,1.7-7.8l-7.6-20.8c-0.9-2.6-0.4-5.4,1.3-7.5c0.5-0.5,1-1,1.6-1.4c14.7-9.8,27.2-22.4,37-37.1
		c1.6-2.5,4.6-3.7,7.5-3.2c0.4,0.1,0.8,0.2,1.2,0.3l25,9.1c3.6,1.3,7.6-0.3,9.4-3.8l0.3-0.7l14-28.5
		C817.4,424.7,816.1,420.4,812.7,418.4z M579.4,362.1c1.4-5.1,3.4-10.2,5.9-15.4c4.9-9.8,17-22,26.8-26.8c1.1-0.5,2.1-1,3.2-1.5
		c64.5-29,126.7,34.4,95.4,98.9c-4.1,8.4-13.2,18.3-22,24.5c-2.1,1.4-4.1,2.6-6,3.5c-9,4.4-18,6.9-26.7,7.9
		C606.4,458.7,565.4,413,579.4,362.1z"/>
</g>
<g>
	<path class="st4" d="M865.6,518l-6.6-4c-0.5-0.3-0.9-0.9-0.8-1.6c0.1-0.8,0.1-1.6,0.1-2.5c0-1.5-0.1-3.1-0.3-4.5
		c-0.1-0.7,0.2-1.4,0.8-1.7l6.9-4.2c0.7-0.4,1-1.4,0.6-2.2l-3.2-6.6c-0.4-0.7-1.2-1.1-2-0.8l-7,2.5c-0.7,0.3-1.4,0-1.9-0.6
		c-1.9-2.5-4.2-4.6-6.8-6.4c-0.6-0.4-0.9-1.3-0.6-2l1.5-4.2c0.3-0.8-0.1-1.7-0.8-2.1l-6.6-3.2c-0.1-0.1-0.3-0.1-0.4-0.1
		c-0.7-0.1-1.4,0.2-1.7,0.8l-3,4.9l-0.7,1.2c-1.4-0.2-2.7-0.3-4.1-0.3c-1.9,0-3.7,0.2-5.5,0.5c-0.7,0.1-1.4-0.2-1.7-0.8l-3.3-5.6
		c-0.5-0.8-1.4-1-2.2-0.6l-5,2.5l-1.4,0.7c-0.8,0.4-1.2,1.3-0.9,2.1l2.1,5.8c0.3,0.7,0.1,1.4-0.5,1.9c-1.6,1.3-3.1,2.8-4.4,4.5
		c-0.1,0.1-0.2,0.3-0.3,0.4c0,0.1-0.1,0.1-0.1,0.1c-0.5,0.5-1.2,0.7-1.8,0.4l-6.9-2.5c-0.1,0-0.2-0.1-0.2-0.1
		c-0.7-0.2-1.5,0.2-1.9,0.9l-3.2,6.5c-0.4,0.8-0.1,1.7,0.6,2.2l6.9,4.1c0.6,0.3,0.9,1,0.8,1.7c-0.2,1.5-0.3,3-0.3,4.6
		c0,0.8,0,1.6,0.1,2.4c0.1,0.7-0.3,1.3-0.8,1.6l-6.6,4c-0.7,0.4-1,1.4-0.6,2.1l3.2,6.5c0.4,0.8,1.3,1.2,2.1,0.9l5.5-2
		c0.7-0.3,1.6,0,2,0.6c1.7,2.6,3.8,4.8,6.2,6.8c0.6,0.4,0.8,1.2,0.5,1.9l-2.3,6.2c-0.3,0.8,0.1,1.8,0.9,2.2l6.5,3.2
		c0.8,0.4,1.7,0.1,2.2-0.6l0.2-0.3l3.5-5.7c0.4-0.6,1.1-0.9,1.8-0.8h0c1.7,0.3,3.4,0.5,5.2,0.5c0.9,0,1.9-0.1,2.8-0.1
		c0.6-0.1,1.3,0.2,1.6,0.8l3.4,5.6c0.5,0.8,1.4,1.1,2.2,0.7l6.5-3.2c0.2-0.1,0.3-0.2,0.5-0.4c0.4-0.5,0.6-1.1,0.4-1.7l-1.7-4.6
		c-0.2-0.6-0.1-1.2,0.3-1.7c0.1-0.1,0.2-0.2,0.4-0.3c3.3-2.2,6.1-5,8.2-8.3c0.4-0.6,1-0.8,1.7-0.7c0.1,0,0.2,0,0.3,0.1l5.6,2
		c0.8,0.3,1.7-0.1,2.1-0.8l0.1-0.2l3.1-6.4C866.7,519.4,866.4,518.4,865.6,518z M813.6,505.4c0.3-1.1,0.8-2.3,1.3-3.4
		c1.1-2.2,3.8-4.9,6-6c0.2-0.1,0.5-0.2,0.7-0.3c14.4-6.5,28.3,7.7,21.3,22.1c-0.9,1.9-2.9,4.1-4.9,5.5c-0.5,0.3-0.9,0.6-1.3,0.8
		c-2,1-4,1.5-6,1.8C819.6,527,810.4,516.8,813.6,505.4z"/>
</g>
<g>
	<path class="st10" d="M1111.8,469.1l-9.9-6c-0.8-0.5-1.3-1.4-1.2-2.4c0.1-1.2,0.2-2.5,0.2-3.7c0-2.3-0.2-4.6-0.5-6.8
		c-0.2-1,0.3-2.1,1.2-2.6l10.3-6.2c1.1-0.7,1.5-2.1,0.9-3.2l-4.9-9.9c-0.6-1.1-1.9-1.6-3-1.2l-10.4,3.8c-1,0.4-2.2,0.1-2.8-0.8
		c-2.9-3.7-6.3-7-10.2-9.6c-0.9-0.6-1.3-1.9-0.9-2.9l2.3-6.3c0.4-1.2-0.1-2.6-1.3-3.1l-9.8-4.8c-0.2-0.1-0.4-0.2-0.6-0.2
		c-1-0.2-2.1,0.2-2.6,1.2l-4.5,7.4l-1.1,1.8c-2-0.3-4.1-0.4-6.2-0.4c-2.8,0-5.6,0.3-8.3,0.8c-1,0.2-2.1-0.3-2.6-1.1l-5-8.3
		c-0.7-1.1-2.1-1.6-3.3-1l-7.6,3.7l-2.2,1.1c-1.2,0.6-1.8,2-1.3,3.2l3.2,8.7c0.4,1,0.1,2.1-0.8,2.8c-2.5,2-4.7,4.3-6.7,6.7
		c-0.2,0.2-0.3,0.4-0.5,0.6c-0.1,0.1-0.1,0.1-0.2,0.2c-0.7,0.7-1.8,1-2.7,0.6l-10.3-3.7c-0.1-0.1-0.2-0.1-0.4-0.1
		c-1.1-0.2-2.3,0.3-2.8,1.4l-4.8,9.8c-0.6,1.2-0.2,2.6,1,3.3l10.3,6.2c0.9,0.5,1.3,1.5,1.2,2.5c-0.3,2.2-0.5,4.5-0.5,6.8
		c0,1.2,0.1,2.5,0.2,3.7c0.1,1-0.4,1.9-1.2,2.4l-9.9,6c-1.1,0.7-1.5,2.1-0.9,3.2l4.8,9.8c0.6,1.2,2,1.8,3.2,1.3l8.3-3
		c1.1-0.4,2.3,0,3,1c2.5,3.8,5.7,7.3,9.2,10.1c0.9,0.7,1.2,1.8,0.8,2.9l-3.4,9.3c-0.5,1.2,0.1,2.6,1.3,3.2l9.8,4.8
		c1.2,0.6,2.6,0.2,3.2-1l0.3-0.4l5.2-8.6c0.6-0.9,1.6-1.4,2.7-1.2h0c2.5,0.5,5.1,0.7,7.8,0.7c1.4,0,2.8-0.1,4.2-0.2
		c1-0.1,1.9,0.4,2.4,1.2l5.1,8.4c0.7,1.2,2.2,1.6,3.4,1l9.7-4.8c0.3-0.1,0.5-0.3,0.7-0.5c0.6-0.7,0.9-1.7,0.6-2.6l-2.5-7
		c-0.3-0.9-0.1-1.8,0.4-2.5c0.2-0.2,0.3-0.3,0.5-0.5c4.9-3.3,9.1-7.5,12.4-12.4c0.5-0.8,1.5-1.2,2.5-1.1c0.1,0,0.3,0.1,0.4,0.1
		l8.3,3c1.2,0.4,2.6-0.1,3.1-1.3l0.1-0.2l4.7-9.5C1113.4,471.2,1112.9,469.8,1111.8,469.1z M1033.8,450.3c0.5-1.7,1.1-3.4,2-5.1
		c1.6-3.3,5.7-7.4,9-9c0.4-0.2,0.7-0.3,1.1-0.5c21.6-9.7,42.4,11.5,31.9,33.1c-1.4,2.8-4.4,6.1-7.4,8.2c-0.7,0.5-1.4,0.9-2,1.2
		c-3,1.5-6,2.3-8.9,2.6C1042.8,482.6,1029.1,467.3,1033.8,450.3z"/>
</g>
<g>
	<path class="st10" d="M562.2,189.5l-10.5-4.9c-0.9-0.4-1.4-1.3-1.5-2.2c0-1.2-0.1-2.5-0.2-3.7c-0.2-2.3-0.7-4.5-1.2-6.7
		c-0.3-1,0.1-2.1,0.9-2.7l9.6-7.3c1-0.8,1.3-2.2,0.6-3.3l-5.9-9.3c-0.7-1.1-2-1.4-3.1-0.9l-10,4.9c-1,0.5-2.1,0.3-2.9-0.5
		c-3.3-3.4-7-6.2-11.2-8.5c-1-0.5-1.5-1.7-1.3-2.8l1.6-6.6c0.3-1.2-0.4-2.5-1.6-3l-10.3-3.7c-0.2-0.1-0.4-0.1-0.6-0.1
		c-1-0.1-2,0.5-2.5,1.4l-3.6,7.8l-0.9,1.9c-2-0.1-4.1,0-6.2,0.2c-2.8,0.3-5.6,0.9-8.2,1.7c-1,0.3-2.1,0-2.7-0.9l-5.9-7.7
		c-0.8-1.1-2.3-1.3-3.4-0.6l-7.1,4.5l-2,1.3c-1.1,0.7-1.5,2.1-0.9,3.3l4.1,8.3c0.5,1,0.3,2.1-0.5,2.9c-2.2,2.3-4.2,4.7-5.9,7.4
		c-0.2,0.2-0.3,0.4-0.4,0.7c0,0.1-0.1,0.1-0.2,0.2c-0.6,0.8-1.6,1.2-2.6,0.9l-10.7-2.6c-0.1,0-0.2,0-0.4-0.1
		c-1.1-0.1-2.2,0.6-2.6,1.7l-3.7,10.3c-0.4,1.2,0.1,2.6,1.3,3.2l10.9,5.1c0.9,0.4,1.5,1.4,1.4,2.4c-0.1,2.2,0,4.5,0.2,6.8
		c0.1,1.2,0.3,2.4,0.5,3.6c0.2,1-0.2,2-1,2.5l-9.2,7c-1,0.8-1.3,2.2-0.6,3.3l5.8,9.2c0.7,1.1,2.1,1.5,3.3,0.9l7.9-3.9
		c1.1-0.5,2.3-0.3,3.1,0.6c2.9,3.5,6.4,6.6,10.3,9.1c0.9,0.6,1.4,1.7,1.1,2.8l-2.4,9.6c-0.3,1.3,0.4,2.6,1.6,3.1l10.2,3.7
		c1.2,0.4,2.6-0.1,3.1-1.3l0.2-0.5l4.2-9.1c0.5-1,1.4-1.5,2.5-1.5l0,0c2.6,0.2,5.2,0.1,7.8-0.2c1.4-0.2,2.8-0.4,4.2-0.7
		c1-0.2,1.9,0.2,2.5,0.9l6,7.8c0.8,1.1,2.3,1.3,3.4,0.6l9.2-5.8c0.3-0.2,0.5-0.4,0.7-0.6c0.6-0.7,0.7-1.8,0.3-2.7l-3.3-6.6
		c-0.4-0.8-0.3-1.8,0.2-2.5c0.1-0.2,0.3-0.4,0.5-0.5c4.5-3.8,8.2-8.4,11-13.7c0.4-0.9,1.4-1.4,2.4-1.3c0.1,0,0.3,0,0.4,0.1l8.6,2.1
		c1.2,0.3,2.5-0.4,3-1.6l0.1-0.2l3.6-10C564,191.4,563.4,190,562.2,189.5z M482.6,179.2c0.3-1.7,0.8-3.5,1.4-5.3
		c1.3-3.4,4.9-7.9,8-9.9c0.3-0.2,0.7-0.4,1-0.6c20.4-12,43.4,6.9,35.3,29.4c-1.1,3-3.7,6.6-6.4,8.9c-0.6,0.5-1.3,1-1.9,1.4
		c-2.8,1.8-5.7,3-8.6,3.6C495.1,210.3,479.8,196.6,482.6,179.2z"/>
</g>
<g>
	<g>
		<path class="st11" d="M628.8,504.2c0.6,0.7,0.7,1.5,0.4,2.3c0,0,0,0,0,0c-0.6,1.5-2.4,3.3-4.5,5c-0.3,0.2-0.5,0.4-0.7,0.6
			c-0.1,0-0.1,0.1-0.2,0.1c0,0-0.1,0.1-0.1,0.1c-2,1.8-1.2,2.3-4.8,6c-4.1,4.3-6.9,4.3-7.7,3.9c-0.7-0.3,0.7-2.6,2.2-5.1
			c0.1-0.1,0.1-0.2,0.2-0.4c0.2-0.3,0.4-0.7,0.6-1c1.8-3.1,1.3-4.5,0.9-9c-0.3-3.7-5.7-20.6-5.7-20.6l7.8-1.3c0,0,2.4,13.5,5,15.6
			c1.4,1.1,2.9,1.1,4.3,1.9c0.1,0.1,0.2,0.1,0.3,0.2C627.5,503,628.2,503.5,628.8,504.2z"/>
		<path class="st12" d="M628.8,504.2c0.6,0.7,0.7,1.5,0.4,2.3c0,0,0,0,0,0c-0.7,1.5-2.5,3.3-4.5,5c-0.3,0.2-0.5,0.4-0.7,0.6
			c-0.1,0-0.1,0.1-0.2,0.1c0,0-0.1,0.1-0.1,0.1c-2,1.8-1.2,2.3-4.8,6c-4.1,4.3-6.9,4.3-7.7,3.9c-0.7-0.3,0.7-2.6,2.2-5.1
			c0.8-0.3,4.5-1.8,7.3-5.4c2.5-3.1,4.1-7.2,5.8-9.5c0.1,0.1,0.2,0.1,0.3,0.2C627.5,503,628.2,503.5,628.8,504.2z"/>
		<path class="st11" d="M565.7,499.3c-0.5,2.4-3.9,2-7.8,1.1c-3.9-0.9-2.9,0.2-8.4-0.4c-5.5-0.6-7.1-2.7-7.3-3.5
			c-0.1-0.7,2.6-1,5.5-1.3c0.4,0,0.7-0.1,1.1-0.1c3.3-0.4,5.7-2.5,8.7-4.3c2.8-1.6,7-8.4,7-8.4l7.5,0.6c0,0-3.9,6-5.5,8.6
			c-0.9,1.5-0.8,3.6-0.7,5.1C565.8,497.6,565.8,498.5,565.7,499.3z"/>
		<path class="st12" d="M557.9,500.4c-3.9-0.9-2.9,0.2-8.4-0.4c-5.5-0.6-7.1-2.7-7.3-3.5c-0.1-0.7,2.6-1,5.5-1.3l0,0.1
			c0,0,3.3,2.3,7.9,2.4c3.7,0.1,7.7-1,10.2-0.9c0.1,0.9,0.1,1.7-0.1,2.6C565.2,501.7,561.7,501.3,557.9,500.4z"/>
		<path class="st11" d="M582.4,388.9c0,0-1.8-4.4-3.8-4.6c-2-0.2-8.2-1.2-8.7-0.3c-0.4,0.9,0,4.1,1.3,5.3c1.3,1.2,9.7,3,9.7,3
			L582.4,388.9z"/>
		<path class="st13" d="M594.5,451.2l16.2,43.6c0,0,2.5,0.2,4.9-0.4c2.2-0.6,4.7-2.3,4.7-2.3s-4-41.9-11.4-50.6
			C601.5,432.8,594.5,451.2,594.5,451.2z"/>
		<path class="st12" d="M658.6,433.6c0,0-46.6-15.7-57-12.4c-10.4,3.4-41.6,65.4-41.6,65.4s0.7,0.9,2.6,1.7c1.8,0.7,6.1,0.6,6.1,0.6
			s28.1-24.1,31.5-31.2c3.4-7,4.7-13.7,8-13.1c3.4,0.7,43.2,16.4,52.3,7c9-9.4,6.7-21.6,6.7-21.6L658.6,433.6z"/>
		<path class="st5" d="M663.7,399.9c1.4-5.9-3.4-17.3-8.4-26.8c-4.5-8.6-9.2-15.5-9.6-15.3c-11.9,7.1-13,1.2-13,1.2
			s-10.8,1.4-13.9,6.7c-4.2,7.3-8.9,29.2-13.4,28.9c-2.1-0.1-23.1-8-23.1-8s-3.5,3.3-2.8,7.3c0,0,10.4,6.9,19.1,11.4
			c4.6,2.3,8.8,4,10.8,3.5c4-0.9,10.2-10.2,13.6-15.6c0,0,0,0,0,0c4.3,24.4-1.5,29.9,1.4,32.5c3.1,2.7,7.6-1.3,17.4,3
			c6.4,2.8,15.4,6.8,21.4,7.5c3.2,0.4,5.5-0.2,6.3-2.3C671.7,427.6,661,411.2,663.7,399.9z"/>
		<path class="st14" d="M669.5,433.8c-0.8,2.1-3.1,2.7-6.3,2.3c-4.2-1.8-22.2-8.8-22-13.5c0.3-7,3.5-7.2,1.2-15.9
			c-1.8-6.9,14.8-19.8,17.5-22.6c5,9.5,5.1,9.9,3.7,15.8C661,411.2,671.7,427.6,669.5,433.8z"/>
		<path class="st14" d="M622.9,393.2c-3.4,5.4-9.6,14.7-13.6,15.6c-2,0.5-6.2-1.2-10.8-3.5c3.4,0.9,6.7,0.8,9.9,0.5
			c3.5-0.3,4.5-4.6,9.9-10.9C621.9,390.8,622.8,391.8,622.9,393.2z"/>
		<path class="st11" d="M639.6,406.6c0,0-3-2.3-5.9-1.8c-2.8,0.6-4.2,2.5-4.1,3.4c0.1,0.9,1.6,3.4,3.8,3.6c2.2,0.2,8.4-1.3,8.4-1.3
			L639.6,406.6z"/>
		<path class="st5" d="M645.7,357.9c0,0,11.6,0.7,15.6,6.3c5.7,7.9,15.5,40.1,12.8,47.5l-35.3-0.1c0,0-0.9-4,0.3-5.9
			c1.2-1.9,20.5-5.1,21.4-6c0.9-0.9-11.2-17.4-11.2-20.1C649.4,376.8,645.7,357.9,645.7,357.9z"/>
		<g id="XMLID_39_">
			<path class="st15" d="M644.6,355c0-1.6,5.4-6,8.1-10.1c2.5-3.7,5.4-13.5-2.3-17.8c0.2-6.3-3.1-8.2-8-9.9
				c-3.9-1.4-11.8-1.2-17.6,1.8c-2.1,1.1-3.5,2.4-4.5,4.4c-0.8,1.6-0.5,3.2-0.1,4.4c0.3,1.1,0,1.2-0.6,2c-0.5,0.7-0.7,1.5-0.6,2.3
				c0.2,1.8,1.9,2.2,2.1,3.1c0.2,0.9-0.9,1.4-1.5,0.8c0,0,0.2,1.5,2.1,1.4c1.9-0.1,3.6-2.7,3.6-2.7L644.6,355z"/>
			<path id="XMLID_58_" class="st11" d="M627.4,326.5c-2.4,1.1-4.7,4.8-4.7,15.1c0,8.8,2.7,11,4.1,11.7c1.4,0.7,4,0.3,6.6-0.1l0,5.1
				c0,0-2.6,3.9-1.4,7.2c10.8-1.9,12.5-7.5,12.5-7.5l0.2-11.5c0,0,2,1.3,4.1-0.2c2.3-1.7,2.9-5.1,1.3-6.9c-1.6-1.8-3.7-1.9-5.6,0.1
				c0,0-3.9,0.5-9.1-2.7C630.1,333.4,627.9,329.9,627.4,326.5z"/>
			<g id="XMLID_56_">
				<path id="XMLID_57_" class="st16" d="M627.1,338.7c0,0.7-0.5,1.2-1.1,1.3c-0.6,0-1.2-0.5-1.2-1.2c0-0.7,0.5-1.2,1.1-1.3
					C626.6,337.5,627.1,338,627.1,338.7z"/>
			</g>
			<g id="XMLID_54_">
				<path id="XMLID_55_" class="st16" d="M636.5,339.2c0,0.7-0.5,1.3-1.2,1.3c-0.7,0-1.3-0.5-1.3-1.3c0-0.7,0.5-1.3,1.2-1.3
					C635.8,337.9,636.4,338.5,636.5,339.2z"/>
			</g>
			<path id="XMLID_53_" class="st17" d="M635,346.1l-4.2,1.3c0.3,1.3,1.5,2,2.7,1.6C634.6,348.7,635.3,347.3,635,346.1z"/>
			<path class="st18" d="M632.6,349.1c0-1.1,0.9-2.1,2.1-2.1c0.1,0,0.2,0,0.3,0c-0.1,0.9-0.7,1.7-1.6,2
				C633.1,349.1,632.9,349.1,632.6,349.1z"/>
			<path id="XMLID_52_" class="st16" d="M624.1,336.5l3-1.2c-0.3-0.9-1.3-1.3-2.1-0.9C624.1,334.7,623.8,335.6,624.1,336.5z"/>
			<path id="XMLID_51_" class="st16" d="M644.5,338l0,4.9c-1.3,0-2.4-1-2.4-2.4C642.2,339.2,643.2,338.1,644.5,338z"/>
			<polygon id="XMLID_50_" class="st18" points="631.1,338 630.1,345.2 626.9,343.6 			"/>
			<path id="XMLID_49_" class="st18" d="M633.4,353.3c2.7-0.3,8.3-1.9,9.3-4.2c0,0-0.3,1.4-2,2.9c-1.7,1.5-7.2,3-7.2,3L633.4,353.3z
				"/>
		</g>
	</g>
	<g>
		<g>
			<polygon class="st6" points="628.8,395.5 586.1,395.5 593.8,422.4 636.6,422.4 			"/>
			<rect x="594" y="421.3" class="st4" width="55.9" height="1"/>
		</g>
		<path class="st4" d="M610.8,408.5c-0.3-0.9-1.3-1.7-2.2-1.7s-1.5,0.8-1.2,1.7c0.3,0.9,1.3,1.7,2.2,1.7
			C610.5,410.2,611.1,409.4,610.8,408.5z"/>
	</g>
</g>
<g>
	<g>
		<path class="st4" d="M450.9,471.5v11.4c0,2.4-1.9,4.3-4.3,4.3h-67.4c-2.4,0-4.3-1.9-4.3-4.3v-11.4c0-2.4,1.9-4.3,4.3-4.3h67.4
			C449,467.2,450.9,469.2,450.9,471.5z"/>
		<path class="st12" d="M450.9,480.8v2.1c0,2.4-1.9,4.3-4.3,4.3h-67.4c-2.4,0-4.3-1.9-4.3-4.3v-2.2h74.7
			C450.1,480.7,450.5,480.7,450.9,480.8z"/>
		<g>
			<path class="st6" d="M391.2,487.2l-3,11.5c0,0,0,0,0,0l-12.6,47.9h-1.3l7.3-39.7c0,0,0-0.1,0-0.1l3.6-19.6L391.2,487.2z"/>
		</g>
		<path class="st6" d="M391.2,487.2l-3,11.5c0,0,0,0,0,0c-0.2,0.1-5.7,2.9-6.6,8l3.6-19.6L391.2,487.2z"/>
		<g>
			<path class="st6" d="M450.9,546.6h-1.3l-10.3-39c0,0,0,0,0,0l-2.3-8.9c0,0,0,0,0,0l-3-11.5l6.1-0.1l2.1,11.2l1.5,8.4
				c0,0,0,0.1,0,0.1L450.9,546.6z"/>
		</g>
		<path class="st6" d="M430.4,502.3C430.3,502.3,430.3,502.3,430.4,502.3C430.3,502.2,430.3,502.2,430.4,502.3z"/>
		<path class="st6" d="M442,498.3c-1.1,1.6-2.7,4.7-2.8,9.2l-2.3-8.9c0,0,0,0,0,0l-3-11.5l6.1-0.1L442,498.3z"/>
	</g>
	<g id="man_10_">
		<path class="st19" d="M365.7,242.9c1.6-1.6,2.6-1,2.6-1s18.5,14.2,20.3,15.2c1.8,1,25.8,1.7,25.8,1.7s9.6-0.1,12,4.8
			c2,4.3,0.6,8-1.5,10.7c-2.5,3.2-6.7,4.6-10.7,3.4c-8.8-2.6-26.3-7.8-29.6-9.8c-7.3-4.5-20.5-22.3-20.5-22.3
			S364.5,244.2,365.7,242.9z"/>
		<g>
			<path class="st4" d="M385.7,229.1l-9.2-5.6c-0.8-0.5-1.2-1.3-1.1-2.2c0.1-1.1,0.1-2.3,0.1-3.5c0-2.2-0.2-4.3-0.5-6.3
				c-0.2-1,0.3-1.9,1.1-2.4l9.6-5.8c1-0.6,1.4-1.9,0.9-3l-4.5-9.2c-0.5-1-1.7-1.5-2.8-1.1l-9.7,3.5c-0.9,0.4-2,0-2.6-0.8
				c-2.7-3.5-5.9-6.5-9.6-9c-0.9-0.6-1.2-1.8-0.9-2.8l2.2-5.9c0.4-1.1-0.1-2.4-1.2-2.9l-9.2-4.5c-0.2-0.1-0.4-0.2-0.6-0.2
				c-0.9-0.2-1.9,0.2-2.4,1.1l-4.2,6.9l-1,1.7c-1.9-0.3-3.8-0.4-5.8-0.4c-2.6,0-5.2,0.2-7.7,0.7c-1,0.2-1.9-0.2-2.4-1.1l-4.7-7.8
				c-0.6-1.1-2-1.5-3.1-0.9l-7.1,3.5l-2,1c-1.1,0.5-1.6,1.8-1.2,3l3,8.1c0.4,0.9,0.1,2-0.7,2.6c-2.3,1.9-4.4,4-6.2,6.3
				c-0.2,0.2-0.3,0.4-0.5,0.6c0,0.1-0.1,0.1-0.2,0.2c-0.6,0.7-1.6,0.9-2.5,0.6l-9.6-3.5c-0.1,0-0.2-0.1-0.3-0.1
				c-1-0.2-2.1,0.3-2.6,1.3l-4.5,9.1c-0.5,1.1-0.2,2.4,0.9,3.1l9.6,5.8c0.8,0.5,1.2,1.4,1.1,2.4c-0.3,2.1-0.5,4.2-0.5,6.4
				c0,1.2,0,2.3,0.1,3.4c0.1,0.9-0.4,1.8-1.2,2.3l-9.3,5.6c-1,0.6-1.4,1.9-0.9,3l4.5,9.1c0.5,1.1,1.8,1.6,3,1.2l7.7-2.8
				c1-0.4,2.2,0,2.8,0.9c2.4,3.6,5.3,6.8,8.6,9.5c0.8,0.6,1.1,1.7,0.8,2.7l-3.2,8.7c-0.4,1.2,0.1,2.5,1.2,3l9.1,4.5
				c1.1,0.5,2.4,0.1,3-0.9l0.2-0.4l4.8-8c0.5-0.9,1.5-1.3,2.5-1.1h0c2.4,0.4,4.8,0.6,7.3,0.6c1.3,0,2.6-0.1,3.9-0.2
				c0.9-0.1,1.8,0.3,2.2,1.1l4.8,7.9c0.6,1.1,2,1.5,3.1,0.9l9.1-4.5c0.3-0.1,0.5-0.3,0.7-0.5c0.6-0.6,0.8-1.6,0.5-2.4l-2.4-6.5
				c-0.3-0.8-0.1-1.7,0.4-2.3c0.1-0.2,0.3-0.3,0.5-0.4c4.6-3.1,8.5-7,11.5-11.6c0.5-0.8,1.4-1.2,2.4-1c0.1,0,0.3,0.1,0.4,0.1
				l7.8,2.8c1.1,0.4,2.4-0.1,2.9-1.2l0.1-0.2l4.4-8.9C387.1,231.1,386.7,229.8,385.7,229.1z M312.8,211.5c0.4-1.6,1.1-3.2,1.9-4.8
				c1.5-3.1,5.3-6.9,8.4-8.4c0.3-0.2,0.7-0.3,1-0.5c20.2-9.1,39.6,10.7,29.8,30.9c-1.3,2.6-4.1,5.7-6.9,7.6
				c-0.6,0.4-1.3,0.8-1.9,1.1c-2.8,1.4-5.6,2.2-8.3,2.5C321.2,241.7,308.4,227.4,312.8,211.5z"/>
		</g>
		<path class="st20" d="M345.3,247.5c0,0,0-6.8-1.1-8.8c-1.1-2-3.5-4.5-5-3.7c-1.4,0.8-1.8,7.4-1.4,8.6c0.4,1.2,3.6,5.7,3.6,5.7
			L345.3,247.5z"/>
		<path class="st12" d="M429.9,467.2c1.5-1.3,0.6-8.6,0.6-8.6s-7.8-6.3-8.9-1.5c-1.1,4.8-7.4,7-11.1,7.5c-2.4,0.4-3.2,1.7-3.5,2.5
			H429.9z"/>
		<path class="st21" d="M430.8,459c-7.3,1.1-9.9-0.6-9.9-0.6c0.1-7.1-2.1-23.3-5.1-41.8c-4-24.4-9.4-52.9-12.8-70.5
			c-2-10.1-3.3-16.6-3.3-16.6l5.9-0.1l29.6-0.6c0,0-2.2,32.7-1.6,48.9c0.1,3.9,0.5,6.8,1,8.1C439.6,398,430.8,459,430.8,459z"/>
		<path class="st22" d="M433.6,377.7c-4,7.5-14.1,26.9-17.8,39c-4-24.4-9.4-52.9-12.8-70.5c0.2-6.7,1-12.5,2.7-16.7l29.6-0.6
			C435.2,328.8,433,361.5,433.6,377.7z"/>
		<path class="st12" d="M405,467.2c1.5-1.3,0.6-8.6,0.6-8.6s-7.8-6.3-8.9-1.5c-1.1,4.8-7.4,7-11.1,7.5c-2.4,0.4-3.2,1.7-3.5,2.5H405
			z"/>
		<path class="st21" d="M386.8,328.8c0,0,11.6,107.5,9.3,129.2c0,0,2.5,1.9,9.8,1.5c0,0,13.3-61.9,10.5-71.9c-2-7,5.8-56.2,5.8-56.2
			L386.8,328.8z"/>
		<path class="st20" d="M415.4,251.9c0,0-14.8,7.4-22.1,4c0,0,3.1-4,6.5-5.6c-0.1-1.3-0.1-2.5-0.1-3.6c-0.1-3.5,0.1-5.5,0.1-5.5
			l6.4-4.6l4.3-3.1c-0.2,1.9-0.3,3.7-0.2,5.4C410.9,247.4,415.4,251.9,415.4,251.9z"/>
		<path class="st11" d="M410.4,238.9c0,0-3.4,6.9-10.6,7.8c-0.1-3.5,0.1-5.5,0.1-5.5l6.4-4.6C409,237.7,410.4,238.9,410.4,238.9z"/>
		<path class="st20" d="M398.2,240.8c0,0,13.2,4.7,16-3.6c2.8-8.3,6.4-13.2-1.9-16.6c-8.3-3.4-11-0.8-12.7,1.8
			C398,224.9,394.8,239.4,398.2,240.8z"/>
		<path class="st6" d="M436.1,328.8c-2.1,4.3-47.9,4.1-50.2,1.1c-0.9-1.2-2-13.6-2.6-28c-0.3-8-0.5-16.6-0.5-24.2
			c0.1-12.5,0.8-22.5,2.5-23.2c9.8-4.3,15.9-7,28.7-6.6c4,0.1,7.5,2.4,9.3,6c3.1,6.4,7.5,17.7,7.8,31
			C431.7,305.4,438.7,323.3,436.1,328.8z"/>
		<path class="st19" d="M397.7,269.2c0,0-1.5,21.5-14.3,32.7c-0.3-8-0.5-16.6-0.5-24.2C386.7,272.5,391.8,268.8,397.7,269.2z"/>
		<path class="st6" d="M404,248.3c0,0-14.1,0.1-18.5,4.2c-3.2,2.9-23.5,19-24.8,18.8c-1.3-0.2-14.4-26.4-14.4-26.4s-6.5,0.5-7.5,3.3
			c0,0,6.1,32.7,19.3,39.8c0,0,33.3-6.3,43.1-17.3C406.2,265,404,248.3,404,248.3z"/>
		<path class="st23" d="M398.8,215.9c0,0,0.8,7.9,3.2,10.1c2.4,2.2,1.7,5.1,2,5.6c0.3,0.4,2.7-0.8,3.1-0.1c1,1.7-0.6,2.9-1.5,3.3
			c-1,0.4,2.5,7.2,5.1,7.4c4.4,0.4,11.3-11.8,11.8-15.4c0.8-4.7-1.9-12-9.5-11.6C401,215.7,398.5,213.1,398.8,215.9z"/>
	</g>
</g>
<g>
	<rect x="791.8" y="181.4" class="st6" width="14.1" height="88"/>
	<rect x="815.6" y="156.8" class="st6" width="14.1" height="112.5"/>
	<rect x="840.9" y="202.6" class="st6" width="14.1" height="66.7"/>
	<path class="st6" d="M829,140h-12c-0.7,0-1.2,0.6-1.2,1.2c0,0.7,0.6,1.2,1.2,1.2h12c0.7,0,1.2-0.6,1.2-1.2
		C830.2,140.6,829.6,140,829,140z"/>
	<path class="st6" d="M819.7,147c0.7,0,1.2-0.6,1.2-1.2c0-0.7-0.6-1.2-1.2-1.2H817c-0.7,0-1.2,0.6-1.2,1.2c0,0.7,0.6,1.2,1.2,1.2
		H819.7z"/>
	<path class="st6" d="M853.9,189.5h-12c-0.7,0-1.2,0.6-1.2,1.2l0,0c0,0.7,0.6,1.2,1.2,1.2h12c0.7,0,1.2-0.6,1.2-1.2l0,0
		C855.1,190.1,854.6,189.5,853.9,189.5z"/>
	<path class="st6" d="M841.9,196.5h2.7c0.7,0,1.2-0.6,1.2-1.2s-0.6-1.2-1.2-1.2h-2.7c-0.7,0-1.2,0.6-1.2,1.2
		S841.3,196.5,841.9,196.5z"/>
</g>
<g>
	<path d="M929.9,537.2c-1.5-4.1-4.7-4.5-4.7-4.5c-6.2,8.6-21.5,3.3-21,15c23.3-0.1,32.9,0,32.9,0c0-2.7-0.5-9-1-11.5l-1.2,0.2
		L929.9,537.2z"/>
	<path d="M964.7,537.4c-1.5-4.1-4.7-4.5-4.7-4.5c-6.2,8.6-21.5,3.3-21,15c23.3-0.1,32.9,0,32.9,0c0-2.7-0.5-9-1-11.5l-1.2,0.2
		L964.7,537.4z"/>
	<path class="st1" d="M914.4,401.4c0,0-3.8,55.1-2.2,67.4c1.5,12.3,7,28,6.4,68.5c7.6,1.9,18.6,0,18.6,0s1.6-45.8-6.4-66.3
		c3.3-19.9,13.7-65.4,13.7-65.4L914.4,401.4z"/>
	<path class="st1" d="M928.8,402.9c0,0,7.6,61.9,11.4,73.6s11,21.7,17.8,61.6c7.8,0.4,15.1,0,15.1,0s-1.1-50.6-13.2-62.2
		c-0.4-20.2,2-72.6,2-72.6L928.8,402.9z"/>
	<g id="v_3_">
		<path id="h-5_2_" class="st24" d="M964,332.7c0,0-13.3-4.6-17.7-2.5c-13.7,6.6-16.9,0-16.9,0c-4.4,0.4-17.6,2.5-17.6,2.5
			c0,14.8-1,29.6-0.7,40.8c0.2,9.7-1.7,36.3-1.7,36.3s14.6,3.8,28.4,3.9c13.8-0.1,27.9-3.8,27.9-3.8s-0.7-26.9-1.4-36.9
			C964.6,361.9,964,347.4,964,332.7z"/>
	</g>
	<g id="c_23_">
		<path id="c_24_" class="st1" d="M888.2,354.7c5.5-13.1,21.7-21.4,23.6-22l3.8,16.8c-7.8,4.6-13.5,9.6-13.5,9.6
			c1,4.7,0.8,9.2,3.5,15.1c0,0-2.3-3.2-5.2-1.3c-2.8,1.9-8-1.9-8-1.9S884.1,364.6,888.2,354.7z"/>
	</g>
	<g id="c_5_">
		<g id="c_6_">
			<g id="c_15_">
				<path id="c_22_" class="st25" d="M891.3,387.6c-0.1,0-0.2,0-0.3,0.1h-0.3c-0.6-0.1-1.1-0.5-1.3-1l-14.6-47c0-0.1,0-0.2-0.1-0.3
					c0-0.1,0-0.1,0-0.2c0,0,0-0.1,0-0.1c0,0,0-0.1,0-0.1c0.1-0.5,0.5-1,1-1.2c0.1,0,0.2,0,0.3-0.1c0.1,0,0.2,0,0.3,0h36.7l14.7,50
					L891.3,387.6L891.3,387.6z"/>
				<path id="c_16_" class="st26" d="M912.8,337.8c0.8-0.2,1.6,0.2,1.9,1l14.5,46.9l0,0.1c0.2,0.8-0.2,1.6-1,1.8l0,0
					c-0.8,0.2-1.6-0.2-1.9-1l-14.5-47C911.6,338.9,912,338,912.8,337.8z"/>
			</g>
		</g>
		<path id="c_4_" class="st17" d="M885.1,367.6c-0.1-0.1-0.3-0.1-0.4-0.2c0,0,0,0,0-0.1c0.9-1.4,0.9-3-0.1-3.7
			c-0.2-0.1-0.3-0.2-0.5-0.2c0.3-1,0-2-0.7-2.5c-0.3-0.2-0.6-0.3-0.9-0.3c0.3-1,0.1-2.1-0.7-2.6c-1-0.7-2.4-0.2-3.2,0.9
			c-0.8,1.2-0.6,2.7,0.4,3.3c0.3,0.2,0.5,0.3,0.8,0.3c-0.7,1.3-0.5,2.7,0.4,3.3c0.2,0.1,0.3,0.2,0.5,0.2c-0.3,1,0,2,0.7,2.5
			c0.3,0.2,0.6,0.3,0.9,0.3c-0.3,0.9-0.1,1.8,0.6,2.3c0.8,0.6,2,0.2,2.7-0.8C886,369.4,885.9,368.2,885.1,367.6z"/>
		<path class="st17" d="M930.2,364.7l-3.3-1.9c0,0-0.9-4.7-6.3-4.9c0.6,2,1.5,4.9,1.5,4.9s-2.6,2.1-8.9-1.5
			c-6.1-1.4-3.5,3.1-5.5,3.4c-3,0.5,2.2,6.4,8.3,7.3c7.9,1.2,8.9-0.5,8.9-0.5l4.5,1.6L930.2,364.7z"/>
		<path id="c_8_" class="st1" d="M961.1,369.7c-11.2-0.8-30.3-6.3-30.3-6.3c-3.1,4.7-2.2,10.9-2.2,10.9
			c17.4,15.2,43.5,20.2,51.5,16.5c7.3-3.3,2.2-47.9-16.2-58.1l0,0C957.7,343.3,961.1,369.7,961.1,369.7z"/>
	</g>
	<g>
		<g id="XMLID_24_">
			<g id="XMLID_32_">
				<path id="XMLID_38_" class="st16" d="M939.2,299.2c0,7.3-5.9,13.2-13.2,13.2s-13.2-5.9-13.2-13.2c0-7.3,5.9-13.2,13.2-13.2
					S939.2,291.9,939.2,299.2z"/>
				<path id="XMLID_37_" class="st16" d="M949.8,308.9c0,0-2.1,10-3,11.7c-0.9,1.6-2.6,2.1-2.6,2.1l0.1-7.1L949.8,308.9z"/>
				<path id="XMLID_36_" class="st16" d="M947.2,293.1c0,0,2.1-0.1,3.9,1.7c1.8,1.8,0.8,8.6-1.4,14.1l-4,0.5L947.2,293.1z"/>
				<path id="XMLID_35_" class="st17" d="M944.5,309.4c0.8,0.5,2-1.1,3-2.1c1-1,4.2-2.5,5.9,0.9c1.6,3.5-1.4,8.1-4,8.9
					c-4.4,1.4-5.1-1.4-5.1-1.4L944,332l0,0c-3,3.9-8.3,4.8-12,4.2c-2.9-0.5-5.1-1.8-2.3-5.1l0-4.8c0,0-4,0.6-5.9,0.3
					c-3.2-0.5-5.3-3.1-6.3-6.6c-1.6-5.6-2.2-10.2-0.8-21.3c1.5-12.1,15.6-12.3,23.2-7.5C947.4,296.1,944.5,309.4,944.5,309.4z"/>
				<path id="XMLID_34_" class="st15" d="M927.2,298.3c3.4-0.4,6.4-2,9.4-3.5c0.3,1.1,0.5,2.3,1.5,3.3c1.8,1.9,2.9,1.9,3.6,2.4
					c0.3,2.2,0.3,5,0.4,7.2c0,0.7,0,4.6,1.8,3.5c0.6-0.4,1.1-1.2,1.5-1.7c0.7-0.8,1.3-1.6,2-2.2c0.5-0.5,0.5-1.6,0.5-2.2
					c0.1-1.3,0-2.6-0.1-3.9c-0.1-1.4-0.3-2.7-0.5-4.1c-0.1-0.8,0.3-1.5,0.5-2.2c0.2-0.8,0.4-1.7,0.3-2.6c-0.1-2.7-2.2-5-4.7-6.2
					c-3.4-1.7-7.6-1.9-11.3-1.6c-2.4,0.2-4.8,0.4-7.2,0.7c-0.6,0.1-1.3,0-2,0.1c-0.7,0.1-1.5,0.6-2.2,0.9c-1.3,0.7-2.6,1.5-3.6,2.6
					c-1.3,1.3-2.2,3-2.4,4.9c-0.1,0.8-0.1,1.3,0.5,1.8c0.7,0.6,1.5,1.1,2.3,1.5C920.6,298.3,924.2,298.7,927.2,298.3z"/>
				<path id="XMLID_33_" class="st27" d="M929.6,326.3c0,0,7.2-1.5,9.8-2.8c1.7-0.9,3.1-2.5,3.5-3.5c0,0-0.5,2.1-2,4.1
					c-1.8,2.4-11.3,4.1-11.3,4.1L929.6,326.3z"/>
			</g>
			<g id="XMLID_25_">
				<path id="XMLID_31_" class="st16" d="M929.9,307.9c0,0.9,0.7,1.6,1.6,1.6c0.9,0,1.6-0.7,1.6-1.6c0-0.9-0.7-1.6-1.6-1.6
					C930.6,306.3,929.9,307,929.9,307.9z"/>
				<path id="XMLID_30_" class="st16" d="M931.4,302.6l3.2,1.8c0.5-0.9,0.1-2.1-0.7-2.6C933,301.3,931.9,301.7,931.4,302.6z"/>
				<path id="XMLID_29_" class="st27" d="M930.2,317.4l-3.6,1.3c0.4,1,1.4,1.6,2.4,1.2C930.1,319.5,930.6,318.4,930.2,317.4z"/>
				<path id="XMLID_28_" class="st16" d="M917.1,303.9l2.9-2.3c-0.6-0.8-1.7-1-2.5-0.4C916.6,301.9,916.5,303.1,917.1,303.9z"/>
				<path id="XMLID_27_" class="st16" d="M917.7,307.6c0,0.9,0.7,1.6,1.5,1.6c0.8,0,1.5-0.7,1.5-1.6c0-0.9-0.7-1.6-1.5-1.6
					C918.4,306,917.7,306.7,917.7,307.6z"/>
				<polygon id="XMLID_26_" class="st27" points="926.3,305.3 925.8,314.7 920.8,313 				"/>
			</g>
		</g>
		<g>
			<path class="st24" d="M952.8,297.9c0,2-0.3,3.9-0.8,5.7c-0.5-0.5-1-1-1.5-1.4c-2.9-2.4-6.4-4.4-10.3-5.7h0
				c-8.7-3.1-19-3.4-27-0.4c0.2-1.7,0.5-3.3,1.1-4.8c2.7-7.7,10.1-13.2,18.7-13.2C943.9,278,952.8,286.9,952.8,297.9z"/>
			<path class="st24" d="M942.4,279c-1-0.4-6.2-1.4-6.6-1.5c-2.7-0.5-6.8-0.1-10.7,3.8c-5.1,5.1-5.6,11.4-5.6,11.4l5.5,1.2h1.7
				c0.3-3.9,4.6-12.8,11.8-13.8c0.3-0.1,0.7-0.1,1-0.1c0.9-0.1,1.9,0.1,2.8,0.3c0,0,2.1,1.2,3,2C945.3,282.3,944.9,279.9,942.4,279z
				"/>
			<path class="st28" d="M942.4,279c-1-0.4-6.2-1.4-6.6-1.5c-2.7-0.5-6.8-0.1-10.7,3.8c-5.1,5.1-5.6,11.4-5.6,11.4l5.5,1.2h1.7
				c0.3-3.9,4.6-12.8,11.8-13.8c0.3-0.1,0.7-0.1,1-0.1c0.9-0.1,1.9,0.1,2.8,0.3c0,0,2.1,1.2,3,2C945.3,282.3,944.9,279.9,942.4,279z
				"/>
			<path class="st24" d="M926.6,293.9c0.3-4.6,6.2-16,15.6-13.6c0,0,2.1,1.2,3,2c0,0-0.4-2.3-2.9-3.3c-2.5-0.9-7.3-1-11.8,3.5
				c-5.1,5.1-5.6,11.4-5.6,11.4H926.6z"/>
			<path class="st29" d="M926.6,293.9c0.3-4.6,6.2-16,15.6-13.6c0,0,2.1,1.2,3,2c0,0-0.4-2.3-2.9-3.3c-2.5-0.9-7.3-1-11.8,3.5
				c-5.1,5.1-5.6,11.4-5.6,11.4H926.6z"/>
			<path class="st24" d="M940.1,294.9c-0.4-0.3-2.6-4.1-9.6-7c-4.3-1.8-12.6-1.1-16.3-0.7c-6.5,0.7-8,2.3-7.9,3.2c0,0.2,0,1.3,0,1.5
				c0,0.2,0.1,0.5,0.2,0.6c1.1,1.4,6.6,3.4,6.6,3.4c7.9-3,18.3-2.7,27,0.4V294.9z"/>
			<path class="st30" d="M940.1,294.9c-0.4-0.3-2.6-4.1-9.6-7c-4.3-1.8-12.6-1.1-16.3-0.7c-6.5,0.7-8,2.3-7.9,3.2c0,0.2,0,1.3,0,1.5
				c0,0.2,0.1,0.5,0.2,0.6c1.1,1.4,6.6,3.4,6.6,3.4c7.9-3,18.3-2.7,27,0.4V294.9z"/>
			<path class="st24" d="M940.1,296.4c-8.7-3.1-19-3.4-27-0.4c0,0-5.5-2.1-6.6-3.4c-0.6-0.8-0.3-2.9,7.7-3.8
				c3.7-0.4,12.1-1.1,16.3,0.7C937.5,292.3,939.7,296.1,940.1,296.4z"/>
			<path class="st29" d="M940.1,296.4c-8.7-3.1-19-3.4-27-0.4c0,0-5.5-2.1-6.6-3.4c-0.6-0.8-0.3-2.9,7.7-3.8
				c3.7-0.4,12.1-1.1,16.3,0.7C937.5,292.3,939.7,296.1,940.1,296.4z"/>
		</g>
	</g>
</g>
<g>
	<path class="st0" d="M934.8,123.3h-24.4c-0.6,0-1.1,0.5-1.1,1.1c0,0.6,0.5,1.1,1.1,1.1h24.4c0.6,0,1.1-0.5,1.1-1.1
		C935.9,123.7,935.4,123.3,934.8,123.3z"/>
	<path class="st0" d="M902.7,123.3h-4.8c-0.6,0-1.1,0.5-1.1,1.1c0,0.6,0.5,1.1,1.1,1.1h4.8c0.6,0,1.1-0.5,1.1-1.1
		C903.7,123.7,903.3,123.3,902.7,123.3z"/>
	<path class="st0" d="M923.4,131.8c0,0.6-0.5,1.1-1.1,1.1h-3.1c-0.6,0-1.1-0.5-1.1-1.1c0-0.6,0.5-1.1,1.1-1.1h3.1
		C922.9,130.7,923.4,131.2,923.4,131.8z M915,131.8c0,0.6-0.5,1.1-1.1,1.1h-5.3c-0.6,0-1.1-0.5-1.1-1.1c0-0.6,0.5-1.1,1.1-1.1h5.3
		C914.5,130.7,915,131.2,915,131.8z M904.3,131.8c0,0.6-0.5,1.1-1.1,1.1h-5.3c-0.6,0-1.1-0.5-1.1-1.1c0-0.6,0.5-1.1,1.1-1.1h5.3
		C903.8,130.7,904.3,131.2,904.3,131.8z"/>
</g>
<g>
	<path class="st0" d="M1167.6,208.1h-24.4c-0.6,0-1.1,0.5-1.1,1.1c0,0.6,0.5,1.1,1.1,1.1h24.4c0.6,0,1.1-0.5,1.1-1.1
		C1168.7,208.6,1168.2,208.1,1167.6,208.1z"/>
	<path class="st0" d="M1135.4,208.1h-4.8c-0.6,0-1.1,0.5-1.1,1.1c0,0.6,0.5,1.1,1.1,1.1h4.8c0.6,0,1.1-0.5,1.1-1.1
		C1136.5,208.6,1136,208.1,1135.4,208.1z"/>
	<path class="st0" d="M1156.1,216.6c0,0.6-0.5,1.1-1.1,1.1h-3.1c-0.6,0-1.1-0.5-1.1-1.1c0-0.6,0.5-1.1,1.1-1.1h3.1
		C1155.6,215.5,1156.1,216,1156.1,216.6z M1147.7,216.6c0,0.6-0.5,1.1-1.1,1.1h-5.3c-0.6,0-1.1-0.5-1.1-1.1c0-0.6,0.5-1.1,1.1-1.1
		h5.3C1147.3,215.5,1147.7,216,1147.7,216.6z M1137.1,216.6c0,0.6-0.5,1.1-1.1,1.1h-5.3c-0.6,0-1.1-0.5-1.1-1.1
		c0-0.6,0.5-1.1,1.1-1.1h5.3C1136.6,215.5,1137.1,216,1137.1,216.6z"/>
</g>
<g>
	<path class="st0" d="M402.2,122.5H386c-2.1,0-3.8-1.7-3.8-3.8c0-2,1.6-3.7,3.6-3.8c0.1-3.2,2.6-5.7,5.8-5.7c2,0,3.8,1,4.9,2.6
		c2.2-0.3,4.1,1.1,4.7,3.1h0.9c2.1,0,3.8,1.7,3.8,3.8S404.3,122.5,402.2,122.5z M386,116.1c-1.5,0-2.6,1.2-2.6,2.6
		c0,1.5,1.2,2.6,2.6,2.6h16.2c1.5,0,2.6-1.2,2.6-2.6c0-1.5-1.2-2.6-2.6-2.6h-1.9l-0.1-0.5c-0.3-1.8-2-3-3.8-2.6l-0.4,0.1l-0.2-0.4
		c-0.8-1.5-2.4-2.4-4.1-2.4c-2.6,0-4.7,2.1-4.7,4.7c0,0.1,0,0.3,0,0.4l0.1,0.6H386z"/>
</g>
<path class="st0" d="M386.4,24.8c0,0,1,7.3-7.5,7.2c0,0,7.3,0.1,7.2,6.9c0,0,0.7-5.4,7.4-6.6C393.4,32.3,387.7,33.6,386.4,24.8z"/>
<g>
	<circle class="st31" cx="667.5" cy="147.7" r="22.2"/>
	<path class="st6" d="M657.1,157c2.4,1.4,5,1.9,7.5,1.2c0.1,0,1.2-0.3,1.2-0.4c2.9-0.9,6-4.2,7-5.3c2.9-3,4.2-5.9,4.6-7.8
		c0.1-0.1,0.3-1.2,0.3-1.4c0.1-3.6-0.6-5.3-2.3-7.5c-0.8-1-2.1-1.4-2.6-0.8l-5.1,6c-0.5,0.6,0.1,1.8,1.1,2.5c1,0.6,2.3,1.2,3.6,1.5
		c-0.6,1.3-1.5,2.8-3,4.4l0,0c-1,1.2-2.3,2.4-3.6,3.3c-0.5-1.2-1.3-2.4-2-3.3c-0.8-1-2.1-1.4-2.6-0.8l-5.1,6
		C655.5,155.1,656,156.4,657.1,157z"/>
</g>
<g>
	<circle class="st32" cx="1020.5" cy="274.5" r="27.5"/>
	<path class="st6" d="M1031.4,269.5c0-6.4-4.9-11.5-11-11.5c-6.1,0-11,5.2-11,11.5c0,1.4,0.2,2.7,0.7,3.9l0,0l0.1,0.1
		c0.2,0.6,0.5,1.2,0.8,1.8l9.9,15.6l9.5-16.5l0,0C1031.1,273,1031.4,271.3,1031.4,269.5z M1020.8,274.5c-2.9,0-5.3-2.4-5.3-5.3
		c0-2.9,2.4-5.3,5.3-5.3c2.9,0,5.3,2.4,5.3,5.3C1026.1,272.1,1023.7,274.5,1020.8,274.5z"/>
</g>
<g>
	<path class="st6" d="M245.4,200.8c2.3-2.9,3.7-6.6,3.7-10.6c0-9.4-7.6-17-17-17c-9.4,0-17,7.6-17,17s7.6,17,17,17
		c2.2,0,4.2-0.4,6.1-1.1l0,0l8.4,3.2L245.4,200.8L245.4,200.8z"/>
	<g>
		<circle class="st33" cx="225.7" cy="190.9" r="1.4"/>
		<circle class="st33" cx="231.8" cy="190.9" r="1.4"/>
		<circle class="st33" cx="237.9" cy="190.9" r="1.4"/>
	</g>
</g>
</svg>
