<svg width="126" height="126" viewBox="0 0 126 126" fill="none" xmlns="http://www.w3.org/2000/svg">
<rect width="126" height="126" fill="white"/>
<path d="M79.5039 122.65H31.3603C28.6854 122.65 26.5168 120.481 26.5168 117.806V27.0001C26.5168 24.3252 28.6854 22.1566 31.3603 22.1566H79.5039C82.1789 22.1566 84.3474 24.3252 84.3474 27.0001V117.806C84.3474 120.481 82.1789 122.65 79.5039 122.65Z" fill="#CDCEFF"/>
<path d="M84.3473 27V117.806C84.3473 120.482 82.1792 122.65 79.5035 122.65H75.1207C77.7965 122.65 79.9646 120.482 79.9646 117.806V27C79.9646 24.3243 77.7965 22.1562 75.1207 22.1562H79.5035C82.1792 22.1564 84.3473 24.3245 84.3473 27Z" fill="#7373E0"/>
<path d="M79.5039 122.65H31.3603C28.6854 122.65 26.5168 120.481 26.5168 117.806V109.415H84.3476V117.806C84.3474 120.481 82.1789 122.65 79.5039 122.65Z" fill="#8586EE"/>
<path d="M79.5039 22.1566H31.3603C28.6854 22.1566 26.5168 24.3252 26.5168 27.0001V35.3914H84.3476V27.0001C84.3474 24.3252 82.1789 22.1566 79.5039 22.1566Z" fill="#8586EE"/>
<path d="M84.3477 109.414V117.806C84.3477 120.482 82.1796 122.65 79.5038 122.65H75.2526C77.9283 122.65 80.0964 120.482 80.0964 117.806V109.414H84.3477Z" fill="#302C8C"/>
<path d="M84.3477 27V35.3913H80.0964V27C80.0964 24.3243 77.9283 22.1562 75.2526 22.1562H79.5038C82.1794 22.1564 84.3477 24.3245 84.3477 27Z" fill="#302C8C"/>
<path d="M79.5039 20.6397H44.5443C43.7066 20.6397 43.0275 21.3188 43.0275 22.1565C43.0275 22.9943 43.7066 23.6734 44.5443 23.6734H79.5039C81.3381 23.6734 82.8305 25.1656 82.8305 27V33.8745H28.0337V27C28.0337 25.1656 29.5261 23.6734 31.3603 23.6734H37.5332C38.3709 23.6734 39.05 22.9943 39.05 22.1565C39.05 21.3188 38.3709 20.6397 37.5332 20.6397H31.3603C27.8531 20.6397 25 23.4928 25 27V117.806C25 121.313 27.8531 124.166 31.3603 124.166H79.5039C83.0111 124.166 85.8643 121.313 85.8643 117.806V27C85.8643 23.4928 83.0111 20.6397 79.5039 20.6397V20.6397ZM82.8305 117.806C82.8305 119.64 81.3381 121.133 79.5039 121.133H31.3603C29.5261 121.133 28.0337 119.64 28.0337 117.806V110.932H82.8307V117.806H82.8305ZM82.8305 107.898H28.0337V36.9082H82.8307V107.898H82.8305Z" fill="black"/>
<path d="M52.9872 117.549H57.8772C58.7149 117.549 59.3941 116.87 59.3941 116.032C59.3941 115.194 58.7149 114.515 57.8772 114.515H52.9872C52.1495 114.515 51.4703 115.194 51.4703 116.032C51.4703 116.87 52.1495 117.549 52.9872 117.549Z" fill="black"/>
<path d="M49.0381 30.7852C50.149 30.7852 51.0495 29.8847 51.0495 28.7739C51.0495 27.663 50.149 26.7625 49.0381 26.7625C47.9273 26.7625 47.0267 27.663 47.0267 28.7739C47.0267 29.8847 47.9273 30.7852 49.0381 30.7852Z" fill="black"/>
<path d="M63.8375 30.2908C64.6753 30.2908 65.3544 29.6116 65.3544 28.7739C65.3544 27.9362 64.6753 27.257 63.8375 27.257H55.4323C54.5946 27.257 53.9154 27.9362 53.9154 28.7739C53.9154 29.6116 54.5946 30.2908 55.4323 30.2908H63.8375Z" fill="black"/>
<path d="M41.3573 44.9853C40.517 44.9853 39.8357 44.2678 39.8357 43.3828V42.4035C39.8357 41.5184 40.517 40.8009 41.3573 40.8009C42.1976 40.8009 42.8789 41.5184 42.8789 42.4035V43.3828C42.8789 44.2678 42.1976 44.9853 41.3573 44.9853Z" fill="black"/>
<path d="M36.412 44.9853C35.5717 44.9853 34.8904 44.2982 34.8904 43.4506V41.5748C34.8904 40.7272 35.5717 40.0401 36.412 40.0401C37.2523 40.0401 37.9336 40.7272 37.9336 41.5748V43.4506C37.9336 44.2982 37.2523 44.9853 36.412 44.9853Z" fill="black"/>
<path d="M31.4668 44.9853C30.6265 44.9853 29.9452 44.2744 29.9452 43.3976V40.4867C29.9452 39.6098 30.6265 38.8989 31.4668 38.8989C32.3071 38.8989 32.9884 39.6098 32.9884 40.4867V43.3976C32.9884 44.2744 32.3071 44.9853 31.4668 44.9853Z" fill="black"/>
<path d="M58.0538 59.1619L58.0538 59.1619C58.8888 58.0613 59.8603 57.4674 60.6698 57.1427C60.4962 57.9133 60.1228 58.8614 59.3369 59.8057L59.3369 59.8057C58.4669 60.8512 57.5845 61.3174 56.9091 61.5294C57.0507 60.8936 57.3662 60.0682 58.0538 59.1619Z" fill="#4B46BB" stroke="black" stroke-width="3"/>
<path d="M66.0986 80.0709C66.6118 80.5579 67.1234 80.9357 67.5637 81.2187C67.5436 81.2655 67.5229 81.3134 67.5016 81.3623C67.1448 82.1821 66.6302 83.2632 65.9929 84.334C65.3488 85.4161 64.6169 86.4234 63.8431 87.1431C63.0572 87.8741 62.3821 88.1688 61.8231 88.1688C61.132 88.1688 60.4904 87.9409 59.5381 87.5852L59.494 87.5687C58.6151 87.2404 57.4686 86.812 56.1225 86.812C54.7518 86.812 53.4517 87.2543 52.4771 87.6037C52.3566 87.6469 52.2422 87.6884 52.1328 87.728C51.7651 87.8612 51.4536 87.9741 51.1559 88.0651C50.7669 88.1841 50.5413 88.2195 50.4178 88.2195C49.9452 88.2195 49.2225 87.9463 48.3094 87.1351C47.4234 86.3482 46.5103 85.1857 45.6832 83.7623C44.021 80.9017 42.8572 77.2516 42.8573 74.0883V74.0882C42.8573 67.9032 46.6178 65.1396 49.6532 65.1396C50.6767 65.1396 51.626 65.4337 52.5923 65.7965C52.726 65.8467 52.8684 65.9015 53.0143 65.9577C53.3527 66.088 53.7108 66.2258 54.0279 66.332C54.4886 66.4862 55.0571 66.6448 55.6459 66.6448C56.2249 66.6448 56.7963 66.457 57.2164 66.3034C57.4562 66.2157 57.7623 66.0927 58.0605 65.9729C58.2646 65.8909 58.465 65.8104 58.6378 65.7437C59.6226 65.3639 60.6595 65.0436 61.787 65.0436C63.822 65.0436 65.1877 65.7586 66.0438 66.4404C66.1592 66.5322 66.2657 66.6239 66.3636 66.7137C66.1032 66.9438 65.8261 67.2144 65.5491 67.5279C64.4301 68.7941 63.3094 70.7666 63.3094 73.5198C63.3094 76.6298 64.7119 78.7552 66.0986 80.0709Z" fill="#4B46BB" stroke="black" stroke-width="3"/>
<path d="M99.8972 25.017V20.0657L96.0849 19.1159C95.6657 17.1578 94.8953 15.3302 93.8416 13.7025L95.8655 10.3356L92.3638 6.83394L88.9969 8.85784C87.3693 7.80429 85.5416 7.03374 83.5835 6.61456L82.6338 2.80219H77.6824L76.7326 6.61448C74.7745 7.03366 72.9469 7.80413 71.3192 8.85776L67.9523 6.83386L64.4506 10.3355L66.4745 13.7024C65.421 15.3301 64.6504 17.1577 64.2312 19.1158L60.4189 20.0656V25.017L64.2312 25.9667C64.6504 27.9248 65.4209 29.7524 66.4745 31.3801L64.4506 34.747L67.9523 38.2487L71.3192 36.2248C72.9469 37.2783 74.7745 38.0489 76.7326 38.4681L77.6823 42.2804H82.6337L83.5834 38.4681C85.5416 38.049 87.3692 37.2785 88.9969 36.2249L92.3637 38.2488L95.8654 34.7471L93.8415 31.3802C94.8951 29.7525 95.6656 27.9249 96.0848 25.9668L99.8972 25.017Z" fill="#8586EE"/>
<path d="M80.1581 33.7751C86.3623 33.7751 91.3917 28.7456 91.3917 22.5414C91.3917 16.3372 86.3623 11.3078 80.1581 11.3078C73.9539 11.3078 68.9244 16.3372 68.9244 22.5414C68.9244 28.7456 73.9539 33.7751 80.1581 33.7751Z" fill="#7373E0"/>
<path d="M80.1581 27.5162C82.9057 27.5162 85.133 25.2889 85.133 22.5413C85.133 19.7937 82.9057 17.5664 80.1581 17.5664C77.4106 17.5664 75.1832 19.7937 75.1832 22.5413C75.1832 25.2889 77.4106 27.5162 80.1581 27.5162Z" fill="white"/>
<path d="M100.091 19.2872L96.7567 18.4565C96.3447 16.7747 95.6825 15.1767 94.7831 13.6939L96.5533 10.7491C96.7431 10.4333 96.6935 10.0288 96.4329 9.76831L92.9312 6.26654C92.6707 6.006 92.2661 5.95641 91.9504 6.14618L89.0056 7.91636C87.5227 7.01695 85.9249 6.3548 84.243 5.94277L83.4124 2.60846C83.3233 2.25091 83.0022 2 82.6338 2H77.6824C77.314 2 76.9929 2.25091 76.9038 2.60846L76.0731 5.94293C74.3914 6.35496 72.7933 7.01727 71.3106 7.9166L68.3657 6.14634C68.0499 5.95649 67.6454 6.00608 67.385 6.2667L63.8832 9.76839C63.6227 10.0289 63.5731 10.4334 63.7628 10.7492L65.533 13.694C64.6336 15.1768 63.9715 16.7747 63.5594 18.4566L60.225 19.2872C59.8675 19.3763 59.6166 19.6974 59.6166 20.0658V25.0172C59.6166 25.3856 59.8675 25.7067 60.225 25.7958L63.5595 26.6265C63.9715 28.3083 64.6337 29.9062 65.5332 31.3891L63.7629 34.3339C63.5731 34.6497 63.6227 35.0542 63.8833 35.3147L67.385 38.8164C67.6455 39.077 68.0501 39.1266 68.3658 38.9368L71.3106 37.1665C72.7936 38.0659 74.3914 38.7281 76.0732 39.1402L76.9039 42.4747C76.9929 42.8322 77.3141 43.0831 77.6825 43.0831H82.6339C83.0024 43.0831 83.3234 42.8322 83.4126 42.4747L84.2433 39.1402C85.9251 38.7282 87.523 38.066 89.0059 37.1665L91.9507 38.9368C92.2665 39.1266 92.6709 39.077 92.9315 38.8164L96.4333 35.3147C96.6938 35.0541 96.7434 34.6496 96.5536 34.3339L94.7834 31.3891C95.6828 29.9062 96.345 28.3083 96.757 26.6265L100.091 25.7958C100.449 25.7068 100.7 25.3856 100.7 25.0172V20.0658C100.7 19.6974 100.449 19.3763 100.091 19.2872ZM99.0948 24.3902L95.8909 25.1883C95.5935 25.2624 95.3644 25.4993 95.3003 25.799C94.9074 27.6344 94.19 29.3655 93.168 30.9444C93.0015 31.2016 92.9961 31.5312 93.1539 31.7937L94.8548 34.6232L92.2398 37.2382L89.4103 35.5373C89.1477 35.3794 88.8181 35.385 88.561 35.5515C86.982 36.5735 85.2508 37.2908 83.4155 37.6837C83.1159 37.7478 82.879 37.977 82.8049 38.2743L82.0068 41.4782H78.3094L77.5113 38.2743C77.4372 37.977 77.2003 37.7478 76.9007 37.6837C75.0653 37.2908 73.3342 36.5735 71.7553 35.5515C71.4979 35.3849 71.1684 35.3795 70.9059 35.5373L68.0764 37.2382L65.4614 34.6233L67.1623 31.7938C67.3201 31.5313 67.3147 31.2016 67.1482 30.9445C66.1262 29.3655 65.4087 27.6344 65.0159 25.799C64.9518 25.4994 64.7226 25.2625 64.4252 25.1884L61.2214 24.3902V20.6929L64.4253 19.8947C64.7227 19.8207 64.9518 19.5837 65.0159 19.2841C65.4088 17.4487 66.1262 15.7176 67.1482 14.1387C67.3147 13.8814 67.3201 13.5519 67.1623 13.2893L65.4614 10.4597L68.0763 7.84479L70.9058 9.54564C71.1685 9.70355 71.498 9.69802 71.7553 9.53152C73.3341 8.50958 75.0652 7.79215 76.9007 7.39929C77.2003 7.33518 77.4372 7.10601 77.5113 6.80864L78.3094 3.60481H82.0068L82.8049 6.80872C82.879 7.10609 83.1159 7.33526 83.4155 7.39937C85.251 7.79223 86.9821 8.50966 88.561 9.5316C88.8181 9.6981 89.1478 9.70355 89.4103 9.54572L92.2398 7.84487L94.8548 10.4598L93.1539 13.2893C92.9961 13.5519 93.0015 13.8815 93.168 14.1387C94.19 15.7176 94.9074 17.4487 95.3003 19.2841C95.3644 19.5837 95.5935 19.8207 95.8909 19.8947L99.0948 20.6929V24.3902Z" fill="black"/>
<path d="M80.1581 10.5052C78.2868 10.5052 76.4932 10.9231 74.8273 11.7474C74.4301 11.9439 74.2674 12.4252 74.4639 12.8223C74.6605 13.2195 75.1417 13.3823 75.5389 13.1857C76.9816 12.4719 78.5358 12.1101 80.1581 12.1101C85.9099 12.1101 90.5894 16.7895 90.5894 22.5413C90.5894 28.2931 85.9099 32.9725 80.1581 32.9725C74.4063 32.9725 69.7269 28.2931 69.7269 22.5413C69.7269 20.6715 70.2271 18.8376 71.1736 17.2379C71.3993 16.8565 71.273 16.3644 70.8916 16.1387C70.5103 15.9131 70.0181 16.0393 69.7924 16.4206C68.6996 18.2676 68.1221 20.3841 68.1221 22.5413C68.1221 29.178 73.5214 34.5774 80.1581 34.5774C86.7948 34.5774 92.1942 29.178 92.1942 22.5413C92.1942 15.9046 86.7948 10.5052 80.1581 10.5052Z" fill="black"/>
<path d="M80.1582 16.764C76.9725 16.764 74.3809 19.3557 74.3809 22.5413C74.3809 25.7269 76.9725 28.3186 80.1582 28.3186C83.3438 28.3186 85.9355 25.7269 85.9355 22.5413C85.9355 19.3557 83.3438 16.764 80.1582 16.764ZM80.1582 26.7138C77.8574 26.7138 75.9857 24.842 75.9857 22.5413C75.9857 20.2406 77.8574 18.3688 80.1582 18.3688C82.4589 18.3688 84.3307 20.2406 84.3307 22.5413C84.3307 24.842 82.4589 26.7138 80.1582 26.7138Z" fill="black"/>
<path d="M72.5024 15.1239C72.7134 15.1239 72.9204 15.0381 73.0697 14.8888C73.2189 14.7396 73.3048 14.5326 73.3048 14.3215C73.3048 14.1105 73.2189 13.9035 73.0697 13.7542C72.9204 13.605 72.7134 13.5191 72.5024 13.5191C72.2913 13.5191 72.0843 13.605 71.9351 13.7542C71.7858 13.9035 71.7 14.1105 71.7 14.3215C71.7 14.5326 71.7858 14.7396 71.9351 14.8888C72.0843 15.0381 72.2913 15.1239 72.5024 15.1239Z" fill="black"/>
</svg>
