<svg id="Layer_1" data-name="Layer 1" xmlns="http://www.w3.org/2000/svg" xmlns:xlink="http://www.w3.org/1999/xlink" viewBox="0 0 128.84 141.12"><defs><style>.cls-1{fill:url(#linear-gradient);}.cls-2{fill:url(#linear-gradient-2);}.cls-3{fill:url(#linear-gradient-3);}.cls-4{fill:url(#linear-gradient-4);}.cls-5{fill:url(#linear-gradient-5);}.cls-6{fill:url(#linear-gradient-6);}.cls-7{fill:url(#linear-gradient-7);}.cls-8{fill:url(#linear-gradient-8);}.cls-9{fill:url(#linear-gradient-9);}.cls-10{fill:url(#linear-gradient-10);}.cls-11{fill:url(#linear-gradient-11);}.cls-12{fill:url(#linear-gradient-12);}</style><linearGradient id="linear-gradient" x1="1498.34" y1="1615.04" x2="1470.46" y2="1566.76" gradientUnits="userSpaceOnUse"><stop offset="0" stop-color="#333"/><stop offset="0.08" stop-color="#404040"/><stop offset="0.37" stop-color="#6e6e6e"/><stop offset="0.52" stop-color="gray"/><stop offset="0.63" stop-color="#757575"/><stop offset="0.8" stop-color="#595959"/><stop offset="1" stop-color="#333"/></linearGradient><linearGradient id="linear-gradient-2" x1="1500.39" y1="1577.44" x2="1495.48" y2="1568.94" xlink:href="#linear-gradient"/><linearGradient id="linear-gradient-3" x1="1507.26" y1="1585.4" x2="1482.89" y2="1543.19" xlink:href="#linear-gradient"/><linearGradient id="linear-gradient-4" x1="81.82" y1="72.79" x2="81.79" y2="72.74" xlink:href="#linear-gradient"/><linearGradient id="linear-gradient-5" x1="1515.08" y1="1546.53" x2="1510.52" y2="1538.64" xlink:href="#linear-gradient"/><linearGradient id="linear-gradient-6" x1="1522.14" y1="1539.85" x2="1514.29" y2="1526.24" xlink:href="#linear-gradient"/><linearGradient id="linear-gradient-7" x1="1440.82" y1="1663.17" x2="1424" y2="1634.04" xlink:href="#linear-gradient"/><linearGradient id="linear-gradient-8" x1="1463.32" y1="1663.1" x2="1448.67" y2="1637.72" xlink:href="#linear-gradient"/><linearGradient id="linear-gradient-9" x1="1484.27" y1="1661.94" x2="1471.04" y2="1639.03" xlink:href="#linear-gradient"/><linearGradient id="linear-gradient-10" x1="1507.72" y1="1663.1" x2="1493.07" y2="1637.72" xlink:href="#linear-gradient"/><linearGradient id="linear-gradient-11" x1="1551.61" y1="1663.1" x2="1536.96" y2="1637.72" xlink:href="#linear-gradient"/><linearGradient id="linear-gradient-12" x1="1515.21" y1="1650.07" x2="1530.69" y2="1650.07" xlink:href="#linear-gradient"/></defs><title>rasaba BW</title><path class="cls-1" d="M1514.69,1583.18a26.31,26.31,0,0,1-3.09,5.15,25.36,25.36,0,0,1-1.86,2.1c-.26.23-.53.46-.82.68a16,16,0,0,1-7.38,3,17.54,17.54,0,0,1-8.72-1,18,18,0,0,1-8.19-6.42c-1.16-1.61-1.84-3.29-3.21-6.65-.91-2.22-1.21-3.36-2.52-6.66-.59-1.49-.47-3.1-1.78-4.29a5.18,5.18,0,0,0-2.22-1.16l-5.53-.58-15.57,26a4.42,4.42,0,0,0-.76,2.48c.07,2,1.76,3.37,2.57,4,2.86,2.32,14.28,9.26,30,18.08a5.25,5.25,0,0,0,4.14,1.53,5.13,5.13,0,0,0,3.24-1.72l8.35-13.65a4.19,4.19,0,0,0,2.87,1,4.8,4.8,0,0,0,4.38-5.16,5.24,5.24,0,0,0-2.17-4.19,19,19,0,0,0,4.54-4.15C1514.11,1587.68,1514.87,1583.26,1514.69,1583.18Zm-20.41,16.29a3.42,3.42,0,0,1-3.47,3.42,3.56,3.56,0,0,1-3.09-3.86,3.41,3.41,0,0,1,3.46-3.42A3.56,3.56,0,0,1,1494.28,1599.47Zm13,.52a3.51,3.51,0,0,1-3.2,3.77,3,3,0,0,1-2-.73,3.83,3.83,0,0,1-1.34-2.87,3.51,3.51,0,0,1,3.19-3.77,3,3,0,0,1,1.86.59A3.8,3.8,0,0,1,1507.26,1600Z" transform="translate(-1424.41 -1523.06)"/><path class="cls-2" d="M1501,1571.06a4.66,4.66,0,0,0-1.23-2,3.56,3.56,0,0,0-2.35-.79,3.33,3.33,0,0,0-2.28,1.18,3.55,3.55,0,0,0-.71,1.45,3.89,3.89,0,0,0,0,1.5c0,.2.05.42.08.66s.07.65.15,1a6.85,6.85,0,0,0,.23.92,6.53,6.53,0,0,0,.73,1.67,3.27,3.27,0,0,0,.61.75,4,4,0,0,0,.62.45,3.55,3.55,0,0,0,2.49.15,3.34,3.34,0,0,0,1.86-1.34,3.9,3.9,0,0,0,.46-2.05,7.54,7.54,0,0,0-.15-1.81A9,9,0,0,0,1501,1571.06Z" transform="translate(-1424.41 -1523.06)"/><path class="cls-3" d="M1524.2,1558.13l-5.07-21.64a4,4,0,0,0-1.57-3,3.83,3.83,0,0,0-2.27-.69l-21.65,5.07a8.3,8.3,0,0,0-3,.83,11.37,11.37,0,0,0-2.21,1.56c-1.09.81-10.6,16.57-12.33,19.71-1.65-.18-3.67-.36-6-.46-6.72-.28-10.41-.44-12.79,1.21s-2.95,4.79-1.12,6.15a3.44,3.44,0,0,0,1.57.6,4.78,4.78,0,0,1,2.18-4.2c2.38-1.64,6.07-1.49,12.79-1.21q1.08,0,2.07.12l0,.06,2.83.3a9.66,9.66,0,0,1,2.84,1,9.79,9.79,0,0,1,4.22,4.48l2.68,7.31a21.71,21.71,0,0,0,1.76,4.35c1.06,2,1.85,3.41,3.57,4.66a10.17,10.17,0,0,0,5.53,1.87,8.81,8.81,0,0,0,5.84-1.9c1.56-1.35,2-3,2.67-5.1a17.55,17.55,0,0,0,.7-4.53l.29-.86a3.24,3.24,0,0,1,2.93-1.72,3.66,3.66,0,0,1,2.84,2.69,20.54,20.54,0,0,1-.39,4.85c-.16.75-.35,1.71-.67,2.76l11.19-18.27a12.17,12.17,0,0,0,.67-3A11.89,11.89,0,0,0,1524.2,1558.13Zm-19.76,20.48a6.2,6.2,0,0,1-1.45,1.83,6.75,6.75,0,0,1-2.29,1.23,8.09,8.09,0,0,1-2.79.39,6.67,6.67,0,0,1-3.26-1,6.84,6.84,0,0,1-1.88-1.84,10.35,10.35,0,0,1-1.44-2.94,13.34,13.34,0,0,1-.5-1.66,1.84,1.84,0,0,1-.15-.47l-2.81-16.47a1.75,1.75,0,0,1,1.45-2l.36-.06a1.83,1.83,0,0,1,2.06,1.48l1.48,8.66a6.79,6.79,0,0,1,1.14-.73,6.92,6.92,0,0,1,2.29-.69,7,7,0,0,1,2.86.29,7.56,7.56,0,0,1,3.57,2.58,9.66,9.66,0,0,1,1.86,4C1505.15,1572,1506.07,1575.62,1504.44,1578.61Z" transform="translate(-1424.41 -1523.06)"/><line class="cls-4" x1="81.84" y1="72.71" x2="81.77" y2="72.82"/><path class="cls-5" d="M1513.33,1538.06a4.56,4.56,0,1,0,4,5A4.54,4.54,0,0,0,1513.33,1538.06Zm-.82,7a2.53,2.53,0,1,1,2.8-2.21A2.53,2.53,0,0,1,1512.51,1545.09Z" transform="translate(-1424.41 -1523.06)"/><path class="cls-6" d="M1525,1525.08c-2.08-3.27-6.48-2.16-8.6.46-1.93,2.4-2.62,5.52-3.69,8.41a5.63,5.63,0,0,1,1.28.33c.77-2,1.38-4.17,2.35-6.13a6.72,6.72,0,0,1,3.33-3.47,3.38,3.38,0,0,1,4.62,2.33,9.85,9.85,0,0,1-1,5.29,18.4,18.4,0,0,1-4.28,5.88c-1.48,1.45-4.39,4.87-6.47,4.63a3.12,3.12,0,0,0,2.43,1.18c3.1-1.46,5.86-5.5,7.63-7.84C1524.52,1533.54,1527,1528.27,1525,1525.08Z" transform="translate(-1424.41 -1523.06)"/><path class="cls-7" d="M1442.57,1642.44q0,6.36-5.55,8.36l5.38,8.65a2.38,2.38,0,0,1,.29.66,2.82,2.82,0,0,1,.08.65,2,2,0,0,1-1.1,1.79l-1.93,1.23a2.09,2.09,0,0,1-1.23.41,2.14,2.14,0,0,1-1.06-.27,2.28,2.28,0,0,1-.86-.88l-5.37-8.81v7.39a2.16,2.16,0,0,1-.61,1.69,2.4,2.4,0,0,1-1.67.55h-2.25a2.39,2.39,0,0,1-1.67-.55,2.16,2.16,0,0,1-.61-1.69v-25a4.67,4.67,0,0,1,1.12-3.32,4.44,4.44,0,0,1,3.42-1.21h4.54q5.68,0,8,4.53a13.65,13.65,0,0,1,.78,2.08,8.79,8.79,0,0,1,.33,2.45Zm-6.82,0v-1.27a2,2,0,0,0-2.28-2.24h-1.15a1,1,0,0,0-1.1,1.14v4.61h2.25a2,2,0,0,0,2.28-2.24Z" transform="translate(-1424.41 -1523.06)"/><path class="cls-8" d="M1465,1659.33a4.43,4.43,0,0,1-1.21,3.41,4.68,4.68,0,0,1-3.33,1.12h-4.54q-5.69,0-7.93-4.53a10.32,10.32,0,0,1,0-9.06q2.25-4.57,7.92-4.57a8,8,0,0,1,1,.08c.38.06.8.14,1.26.25v-.33a2,2,0,0,0-2.28-2.24h-4.53a2.15,2.15,0,0,1-1.69-.62,2.37,2.37,0,0,1-.55-1.67v-2.24a2.41,2.41,0,0,1,.55-1.68,2.18,2.18,0,0,1,1.69-.61h4.53q5.69,0,8,4.53a13.65,13.65,0,0,1,.78,2.08,8.79,8.79,0,0,1,.33,2.45Zm-6.82-3.43v-1.1q0-2.08-2.28-2.28a2.08,2.08,0,0,0-2.24,2.28,2.3,2.3,0,0,0,.55,1.65,2.17,2.17,0,0,0,1.69.59H1457A1,1,0,0,0,1458.15,1655.9Z" transform="translate(-1424.41 -1523.06)"/><path class="cls-9" d="M1487.13,1655.37a8.5,8.5,0,0,1-8.49,8.49h-7.35a2.22,2.22,0,0,1-1.71-.61,2.37,2.37,0,0,1-.57-1.68v-2.24a2.35,2.35,0,0,1,.57-1.67,2.22,2.22,0,0,1,1.71-.62h7.35a1.87,1.87,0,0,0,1.22-.48,1.73,1.73,0,0,0,0-2.41,1.83,1.83,0,0,0-1.22-.49h-1.14a8.51,8.51,0,0,1,0-17h6.24a2.26,2.26,0,0,1,1.71.61,2.34,2.34,0,0,1,.58,1.68v2.24a2.29,2.29,0,0,1-.58,1.67,2.22,2.22,0,0,1-1.71.62h-6.24a1.61,1.61,0,0,0-1.19.49,1.67,1.67,0,0,0-.49,1.22,1.62,1.62,0,0,0,.49,1.18,1.61,1.61,0,0,0,1.19.49h1.14a8.5,8.5,0,0,1,8.49,8.53Z" transform="translate(-1424.41 -1523.06)"/><path class="cls-10" d="M1509.37,1659.33a4.43,4.43,0,0,1-1.21,3.41,4.68,4.68,0,0,1-3.33,1.12h-4.54q-5.68,0-7.94-4.53a10.35,10.35,0,0,1,0-9.06q2.25-4.57,7.92-4.57a8,8,0,0,1,1,.08c.38.06.8.14,1.26.25v-.33a2,2,0,0,0-2.28-2.24h-4.53a2.18,2.18,0,0,1-1.7-.62,2.42,2.42,0,0,1-.55-1.67v-2.24a2.46,2.46,0,0,1,.55-1.68,2.22,2.22,0,0,1,1.7-.61h4.53q5.68,0,8,4.53a13.65,13.65,0,0,1,.78,2.08,8.79,8.79,0,0,1,.33,2.45Zm-6.82-3.43v-1.1q0-2.08-2.28-2.28a2.09,2.09,0,0,0-2.25,2.28,2.35,2.35,0,0,0,.55,1.65,2.21,2.21,0,0,0,1.7.59h1.14A1,1,0,0,0,1502.55,1655.9Z" transform="translate(-1424.41 -1523.06)"/><path class="cls-11" d="M1553.25,1659.33a4.47,4.47,0,0,1-1.2,3.41,4.72,4.72,0,0,1-3.34,1.12h-4.54q-5.68,0-7.93-4.53a12.67,12.67,0,0,1-.76-2.08,7.89,7.89,0,0,1,0-4.9,11.81,11.81,0,0,1,.76-2.08q2.23-4.57,7.91-4.57a8,8,0,0,1,1,.08c.38.06.8.14,1.27.25v-.33a2,2,0,0,0-2.29-2.24h-4.53a2.16,2.16,0,0,1-1.69-.62,2.37,2.37,0,0,1-.55-1.67v-2.24a2.41,2.41,0,0,1,.55-1.68,2.19,2.19,0,0,1,1.69-.61h4.53q5.7,0,8,4.53a13.65,13.65,0,0,1,.78,2.08,8.79,8.79,0,0,1,.33,2.45Zm-6.81-3.43v-1.1c0-1.39-.76-2.15-2.29-2.28a2.09,2.09,0,0,0-2.24,2.28,2.3,2.3,0,0,0,.55,1.65,2.19,2.19,0,0,0,1.69.59h1.14A1,1,0,0,0,1546.44,1655.9Z" transform="translate(-1424.41 -1523.06)"/><path class="cls-12" d="M1530.69,1656.05a7.58,7.58,0,0,1-.29,2.11,14.24,14.24,0,0,1-.68,1.79q-2,3.9-6.75,3.9t-6.79-3.9a12.86,12.86,0,0,1-.67-1.79,7.22,7.22,0,0,1-.3-2.11v-17.83a1.87,1.87,0,0,1,.52-1.46,2,2,0,0,1,1.43-.47h1.95a2,2,0,0,1,1.39.47,1.87,1.87,0,0,1,.52,1.46v2.17a8.33,8.33,0,0,1,2-.21q4.8,0,6.75,3.9a13.68,13.68,0,0,1,.68,1.79,7.58,7.58,0,0,1,.29,2.11Zm-5.81,0V1648a1.76,1.76,0,0,0-1.91-1.93,1.86,1.86,0,0,0-1.43.45,1.93,1.93,0,0,0-.52,1.48v8.07c0,1.17.65,1.82,2,1.93A1.78,1.78,0,0,0,1524.88,1656.05Z" transform="translate(-1424.41 -1523.06)"/></svg>