<?xml version="1.0" encoding="utf-8"?>
<!-- Generator: Adobe Illustrator 24.0.1, SVG Export Plug-In . SVG Version: 6.00 Build 0)  -->
<svg version="1.1" id="Layer_1" xmlns="http://www.w3.org/2000/svg" xmlns:xlink="http://www.w3.org/1999/xlink" x="0px" y="0px"
	 viewBox="0 0 128.8 141.1" style="enable-background:new 0 0 128.8 141.1;" xml:space="preserve">
<style type="text/css">
	.st0{fill:#FFFFFF;}
	.st1{fill:url(#SVGID_1_);}
	.st2{fill:url(#SVGID_2_);}
	.st3{fill:url(#SVGID_3_);}
	.st4{fill:none;}
	.st5{fill:url(#SVGID_4_);}
	.st6{fill:url(#SVGID_5_);}
	.st7{fill:url(#SVGID_6_);}
	.st8{fill:url(#SVGID_7_);}
	.st9{fill:url(#SVGID_8_);}
	.st10{fill:url(#SVGID_9_);}
	.st11{fill:url(#SVGID_10_);}
	.st12{fill:url(#SVGID_11_);}
</style>
<title>rasaba</title>
<path class="st0" d="M118.1,132.2H10.8c-5.9,0-10.8-4.8-10.8-10.8V14.1C0,8.1,4.8,3.3,10.8,3.3h107.3c5.9,0,10.8,4.8,10.8,10.8
	v107.3C128.8,127.3,124,132.2,118.1,132.2z"/>
<g>
	
		<linearGradient id="SVGID_1_" gradientUnits="userSpaceOnUse" x1="1496.7992" y1="-1465.7145" x2="1473.4763" y2="-1425.326" gradientTransform="matrix(1 0 0 -1 -1424.41 -1380.0601)">
		<stop  offset="0" style="stop-color:#BA912F"/>
		<stop  offset="0.14" style="stop-color:#D0AE2D"/>
		<stop  offset="0.4" style="stop-color:#F2DC2B"/>
		<stop  offset="0.52" style="stop-color:#FFEE2A"/>
		<stop  offset="0.65" style="stop-color:#FDE32F"/>
		<stop  offset="0.87" style="stop-color:#F8C73B"/>
		<stop  offset="1" style="stop-color:#F5B343"/>
	</linearGradient>
	<path class="st1" d="M86.1,59c-0.7,1.5-1.6,3-2.6,4.3c-0.5,0.6-1,1.2-1.6,1.8c-0.2,0.2-0.4,0.4-0.7,0.6c-1.8,1.3-3.9,2.2-6.2,2.5
		c-2.5,0.3-5,0.1-7.3-0.8c-2.8-1.1-5.2-2.9-6.9-5.4c-1-1.3-1.5-2.8-2.7-5.6c-0.8-1.9-1-2.8-2.1-5.6c-0.5-1.2-0.4-2.6-1.5-3.6
		c-0.5-0.5-1.2-0.8-1.9-1l-4.6-0.5l-13,21.8c-0.4,0.6-0.6,1.3-0.6,2.1c0.1,1.7,1.5,2.8,2.2,3.3c2.4,1.9,12,7.8,25.1,15.1
		c0.9,0.9,2.2,1.4,3.5,1.3c1.1-0.1,2-0.6,2.7-1.4l7-11.4c0.7,0.6,1.5,0.9,2.4,0.8c2.2-0.2,3.8-2.1,3.7-4.3c0-1.4-0.7-2.7-1.8-3.5
		c1.4-0.9,2.7-2.1,3.8-3.5C85.6,62.8,86.2,59.1,86.1,59z M69,72.6c0,1.6-1.3,2.9-2.9,2.9c0,0,0,0,0,0c-1.6-0.2-2.7-1.6-2.6-3.2
		c0-1.6,1.3-2.9,2.8-2.9c0,0,0,0,0.1,0C68,69.6,69.1,71,69,72.6L69,72.6z M79.9,73.1c0.1,1.6-1.1,3-2.7,3.2c-0.6,0-1.2-0.2-1.7-0.6
		c-0.7-0.6-1.1-1.5-1.1-2.4c-0.1-1.6,1.1-3,2.7-3.2c0.6,0,1.1,0.2,1.6,0.5C79.4,71.1,79.9,72.1,79.9,73.1L79.9,73.1z"/>
	
		<linearGradient id="SVGID_2_" gradientUnits="userSpaceOnUse" x1="1498.5426" y1="-1434.22" x2="1494.4347" y2="-1427.1088" gradientTransform="matrix(1 0 0 -1 -1424.41 -1380.0601)">
		<stop  offset="0" style="stop-color:#BA912F"/>
		<stop  offset="0.14" style="stop-color:#D0AE2D"/>
		<stop  offset="0.4" style="stop-color:#F2DC2B"/>
		<stop  offset="0.52" style="stop-color:#FFEE2A"/>
		<stop  offset="0.65" style="stop-color:#FDE32F"/>
		<stop  offset="0.87" style="stop-color:#F8C73B"/>
		<stop  offset="1" style="stop-color:#F5B343"/>
	</linearGradient>
	<path class="st2" d="M74.6,48.8c-0.2-0.6-0.5-1.2-1-1.7c-0.6-0.4-1.3-0.7-2-0.7c-0.7,0.1-1.4,0.4-1.9,1c-0.3,0.4-0.5,0.8-0.6,1.2
		c-0.1,0.4-0.1,0.8,0,1.3c0,0.2,0,0.4,0.1,0.6s0.1,0.5,0.1,0.8c0,0.3,0.1,0.5,0.2,0.8c0.1,0.5,0.3,1,0.6,1.4
		c0.1,0.2,0.3,0.4,0.5,0.6c0.2,0.1,0.3,0.3,0.5,0.4c0.7,0.3,1.4,0.3,2.1,0.1c0.6-0.2,1.2-0.6,1.6-1.1c0.3-0.5,0.4-1.1,0.4-1.7
		c0-0.5,0-1-0.1-1.5C74.9,49.8,74.8,49.3,74.6,48.8z"/>
	
		<linearGradient id="SVGID_3_" gradientUnits="userSpaceOnUse" x1="1504.2563" y1="-1440.8983" x2="1483.8495" y2="-1405.5527" gradientTransform="matrix(1 0 0 -1 -1424.41 -1380.0601)">
		<stop  offset="0" style="stop-color:#BA912F"/>
		<stop  offset="0.14" style="stop-color:#D0AE2D"/>
		<stop  offset="0.4" style="stop-color:#F2DC2B"/>
		<stop  offset="0.52" style="stop-color:#FFEE2A"/>
		<stop  offset="0.65" style="stop-color:#FDE32F"/>
		<stop  offset="0.87" style="stop-color:#F8C73B"/>
		<stop  offset="1" style="stop-color:#F5B343"/>
	</linearGradient>
	<path class="st3" d="M94,38l-4.2-18.1c0-1-0.5-1.9-1.3-2.5c-0.6-0.4-1.2-0.6-1.9-0.6l-18.1,4.2c-0.9,0.1-1.7,0.3-2.5,0.7
		c-0.7,0.4-1.3,0.8-1.9,1.3c-0.9,0.7-8.9,13.9-10.3,16.5c-1.4-0.2-3.1-0.3-5-0.4c-5.6-0.2-8.7-0.4-10.7,1c-2,1.4-2.5,4-0.9,5.1
		c0.4,0.3,0.8,0.4,1.3,0.5c-0.1-1.4,0.6-2.7,1.8-3.5c2-1.4,5.1-1.2,10.7-1c0.6,0,1.2,0,1.7,0.1v0.1l2.4,0.3c0.8,0.2,1.6,0.4,2.4,0.8
		c1.6,0.8,2.8,2.2,3.5,3.8l2.2,6.1c0.4,1.3,0.9,2.5,1.5,3.6c0.9,1.7,1.5,2.9,3,3.9c1.4,1,3,1.5,4.6,1.6c1.8,0.1,3.5-0.5,4.9-1.6
		c1.3-1.1,1.7-2.5,2.2-4.3c0.4-1.2,0.6-2.5,0.6-3.8l0.2-0.7c0.5-0.9,1.4-1.5,2.5-1.4c1.2,0.2,2.1,1.1,2.4,2.3
		c0.1,1.4-0.1,2.7-0.3,4.1c-0.1,0.6-0.3,1.4-0.6,2.3L93.6,43c0.3-0.8,0.5-1.7,0.6-2.5C94.2,39.7,94.2,38.8,94,38z M77.5,55.2
		c-0.3,0.6-0.7,1.1-1.2,1.5c-0.6,0.5-1.2,0.8-1.9,1C73.6,58,72.8,58.1,72,58c-1,0-1.9-0.3-2.7-0.8c-0.6-0.4-1.2-0.9-1.6-1.5
		c-0.5-0.8-0.9-1.6-1.2-2.5c-0.2-0.5-0.3-0.9-0.4-1.4C66,51.7,66,51.6,66,51.4l-2.4-13.8c-0.1-0.8,0.4-1.5,1.2-1.7l0.3-0.1
		c0.8-0.1,1.6,0.4,1.7,1.2l1.2,7.3c0.3-0.2,0.6-0.4,1-0.6c0.6-0.3,1.2-0.5,1.9-0.6c0.8-0.1,1.6,0,2.4,0.2c1.2,0.4,2.2,1.2,3,2.2
		c0.8,1,1.3,2.1,1.6,3.3C78.1,49.6,78.9,52.7,77.5,55.2z"/>
	<line class="st4" x1="79" y1="69.5" x2="78.9" y2="69.6"/>
	
		<linearGradient id="SVGID_4_" gradientUnits="userSpaceOnUse" x1="1510.8041" y1="-1408.3673" x2="1506.9834" y2="-1401.7563" gradientTransform="matrix(1 0 0 -1 -1424.41 -1380.0601)">
		<stop  offset="0" style="stop-color:#BA912F"/>
		<stop  offset="0.14" style="stop-color:#D0AE2D"/>
		<stop  offset="0.4" style="stop-color:#F2DC2B"/>
		<stop  offset="0.52" style="stop-color:#FFEE2A"/>
		<stop  offset="0.65" style="stop-color:#FDE32F"/>
		<stop  offset="0.87" style="stop-color:#F8C73B"/>
		<stop  offset="1" style="stop-color:#F5B343"/>
	</linearGradient>
	<path class="st5" d="M84.9,21.2c-2.1-0.2-4,1.2-4.2,3.3c-0.2,2.1,1.2,4,3.3,4.2c2.1,0.2,4-1.2,4.2-3.3c0,0,0,0,0-0.1
		C88.5,23.3,87,21.4,84.9,21.2z M84.2,27.1c-1.2-0.1-2-1.2-1.9-2.3c0.1-1.2,1.2-2,2.3-1.9c1.2,0.1,2,1.2,1.9,2.3c0,0,0,0,0,0
		C86.5,26.4,85.4,27.2,84.2,27.1C84.2,27.1,84.2,27.1,84.2,27.1L84.2,27.1z"/>
	
		<linearGradient id="SVGID_5_" gradientUnits="userSpaceOnUse" x1="1516.7386" y1="-1402.7572" x2="1510.1666" y2="-1391.3628" gradientTransform="matrix(1 0 0 -1 -1424.41 -1380.0601)">
		<stop  offset="0" style="stop-color:#BA912F"/>
		<stop  offset="0.14" style="stop-color:#D0AE2D"/>
		<stop  offset="0.4" style="stop-color:#F2DC2B"/>
		<stop  offset="0.52" style="stop-color:#FFEE2A"/>
		<stop  offset="0.65" style="stop-color:#FDE32F"/>
		<stop  offset="0.87" style="stop-color:#F8C73B"/>
		<stop  offset="1" style="stop-color:#F5B343"/>
	</linearGradient>
	<path class="st6" d="M94.7,10.3c-1.7-2.7-5.4-1.8-7.2,0.4c-1.6,2-2.2,4.6-3.1,7c0.4,0,0.7,0.1,1.1,0.3c0.6-1.7,1.2-3.5,2-5.1
		c0.5-1.3,1.5-2.3,2.8-2.9c1.4-0.6,3.1,0.1,3.7,1.5c0.1,0.1,0.1,0.3,0.2,0.5c0.1,1.5-0.2,3.1-0.8,4.4c-0.9,1.9-2.1,3.5-3.6,4.9
		c-1.2,1.2-3.7,4.1-5.4,3.9c0.5,0.6,1.2,1,2,1c2.6-1.2,4.9-4.6,6.4-6.6C94.3,17.4,96.4,13,94.7,10.3z"/>
	
		<linearGradient id="SVGID_6_" gradientUnits="userSpaceOnUse" x1="1448.6517" y1="-1506.0057" x2="1434.5693" y2="-1481.6167" gradientTransform="matrix(1 0 0 -1 -1424.41 -1380.0601)">
		<stop  offset="0" style="stop-color:#BA912F"/>
		<stop  offset="0.14" style="stop-color:#D0AE2D"/>
		<stop  offset="0.4" style="stop-color:#F2DC2B"/>
		<stop  offset="0.52" style="stop-color:#FFEE2A"/>
		<stop  offset="0.65" style="stop-color:#FDE32F"/>
		<stop  offset="0.87" style="stop-color:#F8C73B"/>
		<stop  offset="1" style="stop-color:#F5B343"/>
	</linearGradient>
	<path class="st7" d="M25.7,108.6c0,3.5-1.5,5.9-4.6,7l4.5,7.2c0.1,0.2,0.2,0.4,0.2,0.6c0,0.2,0.1,0.4,0.1,0.5
		c0,0.6-0.4,1.2-0.9,1.5l-1.6,1c-0.3,0.2-0.7,0.3-1,0.3c-0.3,0-0.6-0.1-0.9-0.2c-0.3-0.2-0.6-0.4-0.7-0.7l-4.5-7.4v6.2
		c0,0.5-0.1,1-0.5,1.4c-0.4,0.3-0.9,0.5-1.4,0.5h-1.9c-0.5,0-1-0.1-1.4-0.5c-0.4-0.4-0.6-0.9-0.5-1.4v-20.9c-0.1-1,0.3-2,0.9-2.8
		c0.8-0.7,1.8-1.1,2.9-1h3.8c3.2,0,5.4,1.3,6.7,3.8c0.3,0.6,0.5,1.1,0.7,1.7c0.2,0.7,0.3,1.4,0.3,2.1L25.7,108.6z M20,108.6v-1.1
		c0.1-0.9-0.5-1.8-1.4-1.9c-0.2,0-0.3,0-0.5,0h-1c-0.5-0.1-0.9,0.3-0.9,0.7c0,0.1,0,0.1,0,0.2v3.9h1.9c0.9,0.1,1.8-0.5,1.9-1.4
		C20,108.9,20,108.8,20,108.6z"/>
	
		<linearGradient id="SVGID_7_" gradientUnits="userSpaceOnUse" x1="1467.4934" y1="-1505.9464" x2="1455.2379" y2="-1484.7146" gradientTransform="matrix(1 0 0 -1 -1424.41 -1380.0601)">
		<stop  offset="0" style="stop-color:#BA912F"/>
		<stop  offset="0.14" style="stop-color:#D0AE2D"/>
		<stop  offset="0.4" style="stop-color:#F2DC2B"/>
		<stop  offset="0.52" style="stop-color:#FFEE2A"/>
		<stop  offset="0.65" style="stop-color:#FDE32F"/>
		<stop  offset="0.87" style="stop-color:#F8C73B"/>
		<stop  offset="1" style="stop-color:#F5B343"/>
	</linearGradient>
	<path class="st8" d="M44.5,122.7c0.1,1.1-0.3,2.1-1,2.9c-0.8,0.7-1.8,1-2.8,0.9h-3.8c-3.2,0-5.4-1.3-6.6-3.8
		c-1.2-2.4-1.2-5.2,0-7.6c1.3-2.6,3.5-3.8,6.6-3.8c0.3,0,0.6,0,0.8,0.1c0.3,0.1,0.7,0.1,1.1,0.2v-0.3c0.1-0.9-0.5-1.8-1.4-1.9
		c-0.2,0-0.3,0-0.5,0H33c-0.5,0-1-0.1-1.4-0.5c-0.3-0.4-0.5-0.9-0.5-1.4v-1.9c0-0.5,0.1-1,0.5-1.4c0.4-0.4,0.9-0.6,1.4-0.5h3.8
		c3.2,0,5.4,1.3,6.7,3.8c0.3,0.6,0.5,1.1,0.7,1.7c0.2,0.7,0.3,1.4,0.3,2.1V122.7z M38.8,119.9v-0.9c0-1.2-0.6-1.8-1.9-1.9
		c-1-0.1-1.8,0.6-1.9,1.6c0,0.1,0,0.2,0,0.3c0,0.5,0.1,1,0.5,1.4c0.4,0.4,0.9,0.5,1.4,0.5h0.9c0.5,0.1,0.9-0.2,1-0.7
		C38.7,120,38.7,120,38.8,119.9L38.8,119.9z"/>
	
		<linearGradient id="SVGID_8_" gradientUnits="userSpaceOnUse" x1="1484.9984" y1="-1504.975" x2="1473.9222" y2="-1485.7948" gradientTransform="matrix(1 0 0 -1 -1424.41 -1380.0601)">
		<stop  offset="0" style="stop-color:#BA912F"/>
		<stop  offset="0.14" style="stop-color:#D0AE2D"/>
		<stop  offset="0.4" style="stop-color:#F2DC2B"/>
		<stop  offset="0.52" style="stop-color:#FFEE2A"/>
		<stop  offset="0.65" style="stop-color:#FDE32F"/>
		<stop  offset="0.87" style="stop-color:#F8C73B"/>
		<stop  offset="1" style="stop-color:#F5B343"/>
	</linearGradient>
	<path class="st9" d="M63,119.4c0,3.9-3.2,7.1-7.1,7.1h-6.2c-0.5,0-1-0.1-1.4-0.5c-0.3-0.4-0.5-0.9-0.5-1.4v-1.9
		c0-0.5,0.1-1,0.5-1.4c0.4-0.4,0.9-0.6,1.4-0.5h6.2c0.4,0,0.7-0.1,1-0.4c0.5-0.6,0.5-1.5,0-2c-0.3-0.3-0.6-0.4-1-0.4h-1
		c-3.9-0.2-7-3.5-6.8-7.5c0.2-3.7,3.1-6.6,6.8-6.8h5.2c0.5,0,1,0.1,1.4,0.5c0.3,0.4,0.5,0.9,0.5,1.4v1.9c0,0.5-0.1,1-0.5,1.4
		c-0.4,0.4-0.9,0.6-1.4,0.5h-5.2c-0.4,0-0.7,0.1-1,0.4c-0.3,0.3-0.4,0.6-0.4,1c0,0.4,0.1,0.7,0.4,1c0.3,0.3,0.6,0.4,1,0.4h1
		C59.8,112.3,63,115.5,63,119.4C63,119.4,63,119.4,63,119.4L63,119.4z"/>
	
		<linearGradient id="SVGID_9_" gradientUnits="userSpaceOnUse" x1="1504.6343" y1="-1505.9497" x2="1492.3759" y2="-1484.7129" gradientTransform="matrix(1 0 0 -1 -1424.41 -1380.0601)">
		<stop  offset="0" style="stop-color:#BA912F"/>
		<stop  offset="0.14" style="stop-color:#D0AE2D"/>
		<stop  offset="0.4" style="stop-color:#F2DC2B"/>
		<stop  offset="0.52" style="stop-color:#FFEE2A"/>
		<stop  offset="0.65" style="stop-color:#FDE32F"/>
		<stop  offset="0.87" style="stop-color:#F8C73B"/>
		<stop  offset="1" style="stop-color:#F5B343"/>
	</linearGradient>
	<path class="st10" d="M81.6,122.7c0.1,1.1-0.3,2.1-1,2.9c-0.8,0.7-1.8,1-2.8,0.9H74c-3.2,0-5.4-1.3-6.6-3.8c-1.2-2.4-1.2-5.2,0-7.6
		c1.3-2.6,3.5-3.8,6.6-3.8c0.3,0,0.6,0,0.8,0.1c0.3,0.1,0.7,0.1,1.1,0.2v-0.3c0.1-0.9-0.5-1.8-1.4-1.9c-0.2,0-0.3,0-0.5,0h-3.8
		c-0.5,0-1-0.1-1.4-0.5c-0.3-0.4-0.5-0.9-0.5-1.4v-1.9c0-0.5,0.1-1,0.5-1.4c0.4-0.4,0.9-0.5,1.4-0.5H74c3.2,0,5.4,1.3,6.7,3.8
		c0.3,0.6,0.5,1.1,0.7,1.7c0.2,0.7,0.3,1.4,0.3,2.1L81.6,122.7z M75.9,119.9v-0.9c0-1.2-0.6-1.8-1.9-1.9c-1-0.1-1.8,0.6-1.9,1.6
		c0,0.1,0,0.2,0,0.3c0,0.5,0.1,1,0.5,1.4c0.4,0.4,0.9,0.5,1.4,0.5h1c0.5,0.1,0.9-0.2,1-0.7C75.9,120,75.9,120,75.9,119.9L75.9,119.9
		z"/>
	
		<linearGradient id="SVGID_10_" gradientUnits="userSpaceOnUse" x1="1541.3752" y1="-1505.95" x2="1529.1167" y2="-1484.7131" gradientTransform="matrix(1 0 0 -1 -1424.41 -1380.0601)">
		<stop  offset="0" style="stop-color:#BA912F"/>
		<stop  offset="0.14" style="stop-color:#D0AE2D"/>
		<stop  offset="0.4" style="stop-color:#F2DC2B"/>
		<stop  offset="0.52" style="stop-color:#FFEE2A"/>
		<stop  offset="0.65" style="stop-color:#FDE32F"/>
		<stop  offset="0.87" style="stop-color:#F8C73B"/>
		<stop  offset="1" style="stop-color:#F5B343"/>
	</linearGradient>
	<path class="st11" d="M118.4,122.7c0.1,1.1-0.3,2.1-1,2.9c-0.8,0.7-1.8,1-2.8,0.9h-3.8c-3.2,0-5.4-1.3-6.6-3.8
		c-0.3-0.6-0.5-1.1-0.6-1.7c-0.4-1.3-0.4-2.8,0-4.1c0.2-0.6,0.4-1.2,0.6-1.7c1.2-2.6,3.5-3.8,6.6-3.8c0.3,0,0.6,0,0.8,0.1
		c0.3,0.1,0.7,0.1,1.1,0.2v-0.3c0.1-0.9-0.5-1.8-1.4-1.9c-0.2,0-0.3,0-0.5,0h-3.8c-0.5,0-1-0.1-1.4-0.5c-0.3-0.4-0.5-0.9-0.5-1.4
		v-1.9c0-0.5,0.1-1,0.5-1.4c0.4-0.4,0.9-0.6,1.4-0.5h3.8c3.2,0,5.4,1.3,6.7,3.8c0.3,0.6,0.5,1.1,0.7,1.7c0.2,0.7,0.3,1.4,0.3,2.1
		L118.4,122.7z M112.6,119.9v-0.9c0-1.2-0.6-1.8-1.9-1.9c-1-0.1-1.8,0.6-1.9,1.6c0,0.1,0,0.2,0,0.3c0,0.5,0.1,1,0.5,1.4
		c0.4,0.4,0.9,0.5,1.4,0.5h1c0.5,0.1,0.9-0.2,1-0.7C112.7,120,112.7,120,112.6,119.9L112.6,119.9z"/>
	
		<linearGradient id="SVGID_11_" gradientUnits="userSpaceOnUse" x1="1510.9073" y1="-1495.0453" x2="1523.8672" y2="-1495.0453" gradientTransform="matrix(1 0 0 -1 -1424.41 -1380.0601)">
		<stop  offset="0" style="stop-color:#BA912F"/>
		<stop  offset="0.14" style="stop-color:#D0AE2D"/>
		<stop  offset="0.4" style="stop-color:#F2DC2B"/>
		<stop  offset="0.52" style="stop-color:#FFEE2A"/>
		<stop  offset="0.65" style="stop-color:#FDE32F"/>
		<stop  offset="0.87" style="stop-color:#F8C73B"/>
		<stop  offset="1" style="stop-color:#F5B343"/>
	</linearGradient>
	<path class="st12" d="M99.5,120c0,0.6-0.1,1.2-0.2,1.8c-0.2,0.5-0.3,1-0.6,1.5c-1.1,2.2-3,3.3-5.7,3.3c-2.7,0-4.5-1.1-5.7-3.3
		c-0.2-0.5-0.4-1-0.6-1.5c-0.2-0.6-0.3-1.2-0.3-1.8v-14.9c0-0.5,0.1-0.9,0.4-1.2c0.3-0.3,0.8-0.4,1.2-0.4h1.6c0.4,0,0.8,0.1,1.2,0.4
		c0.3,0.3,0.5,0.8,0.4,1.2v1.8c0.5-0.1,1.1-0.2,1.7-0.2c2.7,0,4.6,1.1,5.7,3.3c0.2,0.5,0.4,1,0.6,1.5c0.2,0.6,0.2,1.2,0.2,1.8
		L99.5,120z M94.6,120v-6.7c0.1-0.8-0.5-1.5-1.3-1.6c-0.1,0-0.2,0-0.3,0c-0.4,0-0.9,0.1-1.2,0.4c-0.3,0.3-0.5,0.8-0.4,1.2v6.8
		c0,1,0.5,1.5,1.7,1.6c0.8,0,1.5-0.6,1.6-1.4C94.6,120.1,94.6,120.1,94.6,120L94.6,120z"/>
</g>
</svg>
