<svg xmlns="http://www.w3.org/2000/svg" xmlns:xlink="http://www.w3.org/1999/xlink" viewBox="0 0 1856.5 1994.14"><defs><style>.cls-1{isolation:isolate;}.cls-2,.cls-23,.cls-44{opacity:0.5;}.cls-3{fill:url(#linear-gradient);}.cls-23,.cls-32,.cls-4,.cls-46{fill:#8255ff;}.cls-5{opacity:0.67;}.cls-30,.cls-6{fill:#0f054c;}.cls-7{opacity:0.9;}.cls-8{fill:#080344;}.cls-9{opacity:0.2;fill:url(#linear-gradient-2);}.cls-10,.cls-11,.cls-9{mix-blend-mode:lighten;}.cls-10,.cls-32{opacity:0.4;}.cls-10{fill:url(#linear-gradient-3);}.cls-11{opacity:0.6;fill:url(#linear-gradient-4);}.cls-12{fill:url(#Áåçûìÿííûé_ãðàäèåíò_24);}.cls-13{fill:url(#Áåçûìÿííûé_ãðàäèåíò_2);}.cls-14{fill:url(#Áåçûìÿííûé_ãðàäèåíò_2-2);}.cls-15{fill:#24126a;}.cls-16{opacity:0.51;}.cls-17{fill:#453c9e;}.cls-18{fill:#5761d7;}.cls-19{fill:#bcbeff;}.cls-20{fill:#e9e9fd;}.cls-21{fill:#e0e0e0;}.cls-22{fill:#f5f5f5;}.cls-24{fill:url(#Áåçûìÿííûé_ãðàäèåíò_24-2);}.cls-25{fill:url(#Áåçûìÿííûé_ãðàäèåíò_2-3);}.cls-26{fill:url(#Áåçûìÿííûé_ãðàäèåíò_2-4);}.cls-27{fill:#fff;}.cls-28,.cls-30{opacity:0.3;}.cls-29{fill:url(#Áåçûìÿííûé_ãðàäèåíò_54);}.cls-31{fill:url(#Áåçûìÿííûé_ãðàäèåíò_55);}.cls-33{fill:url(#Áåçûìÿííûé_ãðàäèåíò_54-2);}.cls-34{fill:url(#Áåçûìÿííûé_ãðàäèåíò_55-2);}.cls-35{fill:url(#Áåçûìÿííûé_ãðàäèåíò_54-3);}.cls-36{fill:url(#Áåçûìÿííûé_ãðàäèåíò_55-3);}.cls-37{fill:url(#Áåçûìÿííûé_ãðàäèåíò_54-4);}.cls-38{fill:url(#Áåçûìÿííûé_ãðàäèåíò_55-4);}.cls-39{opacity:0.11;}.cls-40{fill:url(#linear-gradient-5);}.cls-41{fill:url(#linear-gradient-6);}.cls-42{fill:url(#linear-gradient-7);}.cls-43{fill:url(#linear-gradient-8);}.cls-44{fill:url(#linear-gradient-9);}.cls-45{fill:url(#linear-gradient-11);}.cls-46{opacity:0.7;}.cls-47{fill:#ffaaa8;}.cls-48{fill:#281f6f;}.cls-49{fill:#1a2e35;}.cls-50{fill:#5956c7;}.cls-51{opacity:0.19;}.cls-52{opacity:0.15;}.cls-53{fill:#2f2c8a;}.cls-54{fill:#00014a;}.cls-55{fill:#c76668;}.cls-56{fill:#ff9090;}.cls-57{fill:none;}.cls-58{fill:#394796;}.cls-59{fill:#4653af;}</style><linearGradient id="linear-gradient" x1="288.44" y1="1358.79" x2="1827.27" y2="1358.79" gradientUnits="userSpaceOnUse"><stop offset="0" stop-color="#5761d7"/><stop offset="0" stop-color="#5761d7"/><stop offset="0.37" stop-color="#6f5aed"/><stop offset="0.71" stop-color="#7d56fa"/><stop offset="1" stop-color="#8255ff"/></linearGradient><linearGradient id="linear-gradient-2" x1="-5437.09" y1="-1666.14" x2="-4896.5" y2="-1666.14" gradientTransform="matrix(-0.87, -0.5, 0, 1.15, -3139.66, -7.83)" gradientUnits="userSpaceOnUse"><stop offset="0" stop-color="#8255ff"/><stop offset="0.01" stop-color="#7f53fa"/><stop offset="0.12" stop-color="#6440d0"/><stop offset="0.24" stop-color="#4c31ac"/><stop offset="0.36" stop-color="#39248f"/><stop offset="0.49" stop-color="#2b1a78"/><stop offset="0.63" stop-color="#201368"/><stop offset="0.79" stop-color="#1a0e5e"/><stop offset="1" stop-color="#180d5b"/></linearGradient><linearGradient id="linear-gradient-3" x1="-5405.65" y1="-1638.01" x2="-4865.06" y2="-1638.01" xlink:href="#linear-gradient-2"/><linearGradient id="linear-gradient-4" x1="-5374.21" y1="-1609.89" x2="-4833.62" y2="-1609.89" xlink:href="#linear-gradient-2"/><linearGradient id="Áåçûìÿííûé_ãðàäèåíò_24" x1="-4284.49" y1="1384.3" x2="-4284.49" y2="54.13" gradientTransform="matrix(-1, 0, 0, 1, -3059.54, 0)" gradientUnits="userSpaceOnUse"><stop offset="0" stop-color="#5761d7"/><stop offset="0.18" stop-color="#5c66d9"/><stop offset="0.39" stop-color="#6a73df"/><stop offset="0.61" stop-color="#8289e8"/><stop offset="0.85" stop-color="#a3a7f5"/><stop offset="1" stop-color="#bcbeff"/></linearGradient><linearGradient id="Áåçûìÿííûé_ãðàäèåíò_2" x1="-4464.61" y1="408.69" x2="-4464.61" y2="313.4" gradientTransform="matrix(-1, 0, 0, 1, -3059.54, 0)" gradientUnits="userSpaceOnUse"><stop offset="0" stop-color="#c0bff6"/><stop offset="0.29" stop-color="#c5c4f7"/><stop offset="0.64" stop-color="#d3d2f9"/><stop offset="1" stop-color="#e9e9fd"/></linearGradient><linearGradient id="Áåçûìÿííûé_ãðàäèåíò_2-2" x1="-5008.03" y1="-1074.62" x2="-5008.03" y2="-1977.13" gradientTransform="matrix(-0.87, -0.5, 0, 1.15, -3139.66, -7.83)" xlink:href="#Áåçûìÿííûé_ãðàäèåíò_2"/><linearGradient id="Áåçûìÿííûé_ãðàäèåíò_24-2" x1="421.57" y1="922.44" x2="879.96" y2="537.8" gradientTransform="matrix(-1, 0, 0, 1, 2162.39, 0)" xlink:href="#Áåçûìÿííûé_ãðàäèåíò_24"/><linearGradient id="Áåçûìÿííûé_ãðàäèåíò_2-3" x1="412.31" y1="807.45" x2="462.38" y2="765.43" gradientTransform="matrix(-1, 0, 0, 1, 2162.39, 0)" xlink:href="#Áåçûìÿííûé_ãðàäèåíò_2"/><linearGradient id="Áåçûìÿííûé_ãðàäèåíò_2-4" x1="623.36" y1="983.93" x2="623.36" y2="706.47" gradientTransform="matrix(-0.87, -0.5, 0, 1.15, 2074.55, 106.68)" xlink:href="#Áåçûìÿííûé_ãðàäèåíò_2"/><linearGradient id="Áåçûìÿííûé_ãðàäèåíò_54" x1="1567.69" y1="1769.07" x2="1891.34" y2="1955.93" gradientUnits="userSpaceOnUse"><stop offset="0" stop-color="#bcbeff"/><stop offset="0.23" stop-color="#aaadf8"/><stop offset="0.68" stop-color="#7c83e5"/><stop offset="1" stop-color="#5761d7"/></linearGradient><linearGradient id="Áåçûìÿííûé_ãðàäèåíò_55" x1="1527.11" y1="1839.71" x2="1935.03" y2="1839.71" gradientUnits="userSpaceOnUse"><stop offset="0" stop-color="#e9e9fd"/><stop offset="0.36" stop-color="#d3d2f9"/><stop offset="0.71" stop-color="#c5c4f7"/><stop offset="1" stop-color="#c0bff6"/></linearGradient><linearGradient id="Áåçûìÿííûé_ãðàäèåíò_54-2" x1="1567.69" y1="1585.51" x2="1891.34" y2="1772.37" xlink:href="#Áåçûìÿííûé_ãðàäèåíò_54"/><linearGradient id="Áåçûìÿííûé_ãðàäèåíò_55-2" x1="1527.11" y1="1656.14" x2="1935.03" y2="1656.14" xlink:href="#Áåçûìÿííûé_ãðàäèåíò_55"/><linearGradient id="Áåçûìÿííûé_ãðàäèåíò_54-3" x1="119.11" y1="1770.64" x2="442.77" y2="1957.5" xlink:href="#Áåçûìÿííûé_ãðàäèåíò_54"/><linearGradient id="Áåçûìÿííûé_ãðàäèåíò_55-3" x1="78.53" y1="1841.27" x2="486.45" y2="1841.27" xlink:href="#Áåçûìÿííûé_ãðàäèåíò_55"/><linearGradient id="Áåçûìÿííûé_ãðàäèåíò_54-4" x1="119.12" y1="1587.08" x2="442.77" y2="1773.94" xlink:href="#Áåçûìÿííûé_ãðàäèåíò_54"/><linearGradient id="Áåçûìÿííûé_ãðàäèåíò_55-4" x1="78.53" y1="1657.71" x2="486.45" y2="1657.71" xlink:href="#Áåçûìÿííûé_ãðàäèåíò_55"/><linearGradient id="linear-gradient-5" x1="110.23" y1="1579.67" x2="444.86" y2="1579.67" xlink:href="#linear-gradient"/><linearGradient id="linear-gradient-6" x1="110.23" y1="1522.41" x2="444.86" y2="1522.41" xlink:href="#linear-gradient"/><linearGradient id="linear-gradient-7" x1="110.23" y1="1465.15" x2="444.86" y2="1465.15" xlink:href="#linear-gradient"/><linearGradient id="linear-gradient-8" x1="110.23" y1="1407.89" x2="444.86" y2="1407.89" xlink:href="#linear-gradient"/><linearGradient id="linear-gradient-9" x1="110.23" y1="1493.78" x2="444.86" y2="1493.78" xlink:href="#linear-gradient"/><linearGradient id="linear-gradient-11" x1="110.23" y1="1450.83" x2="444.86" y2="1450.83" xlink:href="#linear-gradient"/></defs><title>security</title><g class="cls-1"><g id="Layer_1" data-name="Layer 1"><g class="cls-2"><polygon class="cls-3" points="1057.86 1803.02 288.44 1358.79 1057.84 914.57 1827.27 1358.8 1057.86 1803.02"/></g><path class="cls-4" d="M1136.4,1805.67a1.64,1.64,0,0,1-.83-.22L366.14,1361.22a1.67,1.67,0,0,1,0-2.87l769.4-444.22a1.69,1.69,0,0,1,1.66,0l769.43,444.23a1.66,1.66,0,0,1,0,2.87l-769.4,444.22A1.64,1.64,0,0,1,1136.4,1805.67ZM370.29,1359.79l766.11,442.32,766.08-442.31L1136.37,917.48Z" transform="translate(-78.53 -1)"/><g class="cls-5"><polygon class="cls-6" points="1057.86 1734.12 407.76 1358.79 1057.84 983.47 1707.94 1358.8 1057.86 1734.12"/></g><g class="cls-7"><polygon class="cls-8" points="1057.86 1654.08 546.41 1358.79 1057.85 1063.51 1569.3 1358.8 1057.86 1654.08"/></g><path class="cls-4" d="M1436.05,1451.94a24.28,24.28,0,0,1-11.89-2.81L941.41,1170.4c-3.77-2.17-5.84-5.37-5.84-9,0-4.07,2.73-8,7.49-10.73l41.19-23.78c8-4.59,19.71-5,26.74-1l482.76,278.73c3.76,2.18,5.83,5.37,5.83,9,0,4.07-2.73,8-7.48,10.73l-41.2,23.78A30.08,30.08,0,0,1,1436.05,1451.94ZM999.12,1126.43a27.07,27.07,0,0,0-13.21,3.35l-41.2,23.79c-3.71,2.13-5.83,5-5.83,7.85,0,2.38,1.48,4.55,4.18,6.11l482.76,278.72h0c5.81,3.36,16.72,2.92,23.43-1l41.19-23.79c3.71-2.13,5.83-5,5.83-7.85,0-2.38-1.48-4.55-4.17-6.12l-482.77-278.71A20.64,20.64,0,0,0,999.12,1126.43Z" transform="translate(-78.53 -1)"/><path class="cls-9" d="M1112.79,1044.58l444,256.33c6.68,3.85,12.09-.24,12.09-9.14V281.88c0-8.9-5.41-19.24-12.09-23.1l-444-256.33c-6.67-3.85-12.09.24-12.09,9.14V1021.48C1100.7,1030.38,1106.12,1040.72,1112.79,1044.58Z" transform="translate(-78.53 -1)"/><path class="cls-10" d="M1085.56,1061.33l444,256.33c6.68,3.86,12.09-.23,12.09-9.13V298.63c0-8.9-5.41-19.24-12.09-23.09l-444-256.33c-6.67-3.86-12.08.23-12.08,9.13v1009.9C1073.48,1047.14,1078.89,1057.48,1085.56,1061.33Z" transform="translate(-78.53 -1)"/><path class="cls-11" d="M1058.34,1078.09l444,256.33c6.68,3.85,12.09-.24,12.09-9.14V315.39c0-8.9-5.41-19.24-12.09-23.1L1058.34,36c-6.68-3.85-12.09.24-12.09,9.14V1055C1046.25,1063.89,1051.66,1074.23,1058.34,1078.09Z" transform="translate(-78.53 -1)"/><path class="cls-12" d="M967.32,84.44l51.55-29.68v.09c2.09-1.09,4.73-1,7.64.69l444,256.33c6.68,3.85,12.09,14.19,12.09,23.09V1344.85c0,4.91-1.68,8.28-4.28,9.74l.08,0-51.52,29.67-1.13-56.15-399.22-230.49c-6.67-3.85-12.09-14.19-12.09-23.09V111c-1,3.27-1.82,5.66-1.94,5.73C1012.11,116.94,967.32,84.44,967.32,84.44Z" transform="translate(-78.53 -1)"/><path class="cls-13" d="M1482.27,331.24l-134.15,77.45L1327.86,397l144.8-83.6C1477.43,317.31,1481.22,324.36,1482.27,331.24Z" transform="translate(-78.53 -1)"/><path class="cls-14" d="M975.3,1127.16l444,256.33c6.68,3.86,12.09-.24,12.09-9.14V364.46c0-8.9-5.41-19.24-12.09-23.1L975.3,85c-6.67-3.85-12.08.24-12.08,9.14V1104.06C963.22,1113,968.63,1123.31,975.3,1127.16Z" transform="translate(-78.53 -1)"/><polygon class="cls-15" points="884.68 1047.79 1352.84 1318.08 1352.84 418.74 884.68 148.45 884.68 1047.79"/><polygon class="cls-15" points="884.68 1047.79 1352.84 1318.08 1352.84 418.74 884.68 148.45 884.68 1047.79"/><g class="cls-16"><polygon class="cls-17" points="884.68 1043.89 1352.84 1314.18 1352.84 422.76 884.68 152.47 884.68 1043.89"/></g><path class="cls-18" d="M1160.82,237.63l84.69,49.06c2.47,1.43,4.58,1.86,5.49-.47a7.75,7.75,0,0,0,.48-2.85h0c0-4.41-2.68-9.53-6-11.43l-85.58-49.41c-.26-.15-.5-.45-.76-.38-2.7.75-3.15,1.28-3.15,5.34l.39,1.14C1156.39,233,1157.52,235.72,1160.82,237.63Z" transform="translate(-78.53 -1)"/><path class="cls-19" d="M1159.13,222.18a8,8,0,0,0-.47,2.84c0,4.41,2.68,9.53,6,11.43l85.59,49.42a5.67,5.67,0,0,0,.77.34c-.91,2.33-3,3.11-5.51,1.68l-85.58-49.41c-3.3-1.9-6-7-6-11.43C1153.93,223,1156.2,221,1159.13,222.18Z" transform="translate(-78.53 -1)"/><path class="cls-20" d="M1458.69,448.28l1-.55a4.16,4.16,0,0,1,4.12-.37v-.05l3.64,2.09-1.78.15a8.47,8.47,0,0,1,.52,3.08v58.48c0,4.77-2.91,10.32-6.49,12.39l-1,.56a6.56,6.56,0,0,1-1.33.58l.93,2-3.87-2.22h.07c-1.39-.79-2.29-2.6-2.29-5.23V460.67C1452.2,455.9,1455.1,450.35,1458.69,448.28Z" transform="translate(-78.53 -1)"/><path class="cls-19" d="M1462.37,526.17l1-.56c3.58-2.07,6.48-7.61,6.48-12.39V454.74c0-4.77-2.9-7-6.48-4.9l-1,.56c-3.58,2.07-6.49,7.61-6.49,12.39v58.48C1455.88,526,1458.79,528.24,1462.37,526.17Z" transform="translate(-78.53 -1)"/><path class="cls-20" d="M1458.69,537.54l1-.56a4.13,4.13,0,0,1,4.12-.36v-.06l3.64,2.09-1.78.15a8.51,8.51,0,0,1,.52,3.08v58.48c0,4.77-2.91,10.32-6.49,12.39l-1,.56a6.56,6.56,0,0,1-1.33.58l.93,2-3.87-2.22h.07c-1.39-.79-2.29-2.59-2.29-5.23V549.93C1452.2,545.15,1455.1,539.6,1458.69,537.54Z" transform="translate(-78.53 -1)"/><path class="cls-19" d="M1462.37,615.42l1-.56c3.58-2.06,6.48-7.61,6.48-12.39V544c0-4.77-2.9-7-6.48-4.9l-1,.56c-3.58,2.07-6.49,7.61-6.49,12.39v58.48C1455.88,615.3,1458.79,617.49,1462.37,615.42Z" transform="translate(-78.53 -1)"/><ellipse class="cls-21" cx="603.01" cy="1018.23" rx="161.54" ry="93.26"/><path class="cls-22" d="M681.54,1114.08c-41.67,0-83.33-9.15-115.06-27.47-31-17.92-48.13-41.85-48.13-67.38s17.09-49.46,48.13-67.39c63.44-36.61,166.66-36.61,230.11,0,31,17.93,48.14,41.87,48.14,67.39s-17.1,49.46-48.14,67.39h0C764.87,1104.93,723.2,1114.08,681.54,1114.08Zm0-186.44c-41.07,0-82.13,9-113.39,27.08-30,17.3-46.49,40.22-46.49,64.51s16.52,47.21,46.49,64.51c62.53,36.11,164.27,36.1,226.79,0h0c30-17.3,46.49-40.21,46.49-64.51S824.91,972,794.93,954.72C763.66,936.66,722.6,927.64,681.53,927.64Zm114.23,157.54h0Z" transform="translate(-78.53 -1)"/><path class="cls-4" d="M746,1364.15a1.66,1.66,0,0,1-.83-.22l-134.94-78.62a1.65,1.65,0,0,1,0-2.87L920.7,1105.21a1.64,1.64,0,0,1,1.66,0l50.34,29.33a1.66,1.66,0,1,1-1.67,2.86l-49.51-28.85L614.36,1283.89l132.47,77.18a1.65,1.65,0,0,1-.84,3.08Z" transform="translate(-78.53 -1)"/><path class="cls-4" d="M1246.8,1642.74a1.65,1.65,0,0,1-.83-.23l-123.36-71.88a1.66,1.66,0,0,1-.6-2.27,1.64,1.64,0,0,1,2.27-.59l122.53,71.39L1538,1471.44,1473.77,1434a1.66,1.66,0,0,1,1.67-2.86l66.73,38.87a1.66,1.66,0,0,1,0,2.87l-294.53,169.63A1.68,1.68,0,0,1,1246.8,1642.74Z" transform="translate(-78.53 -1)"/><path class="cls-4" d="M544.65,1711.81a1.54,1.54,0,0,1-1.33-.77,1.52,1.52,0,0,1,.57-2.1l141.71-81.76,57.32-50.9,153.8-88.83a1.54,1.54,0,0,1,2.11.56,1.53,1.53,0,0,1-.56,2.1l-153.55,88.66-57.32,50.9-142,81.93A1.51,1.51,0,0,1,544.65,1711.81Z" transform="translate(-78.53 -1)"/><path class="cls-4" d="M519.42,1726.44a1.54,1.54,0,0,1-.78-2.87l14.93-8.64a1.54,1.54,0,1,1,1.54,2.66l-14.92,8.64A1.47,1.47,0,0,1,519.42,1726.44Z" transform="translate(-78.53 -1)"/><path class="cls-4" d="M492.59,1741.88a1.54,1.54,0,0,1-.77-2.88l14.92-8.64a1.54,1.54,0,0,1,1.54,2.67l-14.92,8.64A1.54,1.54,0,0,1,492.59,1741.88Z" transform="translate(-78.53 -1)"/><polygon class="cls-23" points="1001.5 455.72 956 429.45 956 419.46 1001.5 445.73 1001.5 455.72"/><polygon class="cls-23" points="1024.83 469.19 1008.45 459.73 1008.45 449.74 1024.83 459.2 1024.83 469.19"/><polygon class="cls-23" points="1042.91 479.63 1031.78 473.2 1031.78 463.21 1042.91 469.63 1042.91 479.63"/><polygon class="cls-23" points="980.79 466.59 956 452.27 956 442.28 980.79 456.6 980.79 466.59"/><polygon class="cls-23" points="1018.12 488.14 987.74 470.6 987.74 460.61 1018.12 478.15 1018.12 488.14"/><polygon class="cls-23" points="1036.2 498.58 1025.07 492.15 1025.07 482.16 1036.2 488.59 1036.2 498.58"/><polygon class="cls-23" points="1053.41 508.51 1042.28 502.08 1042.28 492.09 1053.41 498.52 1053.41 508.51"/><polygon class="cls-4" points="973.94 485.45 956 475.1 956 465.11 973.94 475.46 973.94 485.45"/><polygon class="cls-4" points="987.02 493 980.89 489.46 980.89 479.47 987.02 483.01 987.02 493"/><polygon class="cls-23" points="1005.1 503.44 993.97 497.02 993.97 487.03 1005.1 493.45 1005.1 503.44"/><polygon class="cls-23" points="1022.2 536.14 956 497.92 956 487.93 1022.2 526.15 1022.2 536.14"/><polygon class="cls-23" points="1045.53 549.61 1029.15 540.15 1029.15 530.16 1045.53 539.62 1045.53 549.61"/><polygon class="cls-23" points="973.94 531.1 956 520.74 956 510.75 973.94 521.11 973.94 531.1"/><polygon class="cls-23" points="1016.03 555.4 980.89 535.11 980.89 525.12 1016.03 545.41 1016.03 555.4"/><polygon class="cls-23" points="1034.11 565.84 1022.98 559.41 1022.98 549.42 1034.11 555.85 1034.11 565.84"/><polygon class="cls-23" points="992.7 564.75 956 543.57 956 533.58 992.7 554.76 992.7 564.75"/><polygon class="cls-4" points="1026.19 584.09 999.65 568.77 999.65 558.77 1026.19 574.1 1026.19 584.09"/><polygon class="cls-23" points="1051.07 598.46 1033.14 588.1 1033.14 578.11 1051.07 588.47 1051.07 598.46"/><polygon class="cls-23" points="968.39 573.55 956 566.39 956 556.4 968.39 563.55 968.39 573.55"/><polygon class="cls-23" points="991.73 587.02 975.35 577.56 975.35 567.57 991.73 577.02 991.73 587.02"/><polygon class="cls-23" points="1025.07 606.27 998.68 591.03 998.68 581.04 1025.07 596.27 1025.07 606.27"/><polygon class="cls-23" points="993.97 611.13 956 589.21 956 579.22 993.97 601.14 993.97 611.13"/><polygon class="cls-23" points="1036.49 635.68 1000.92 615.15 1000.92 605.15 1036.49 625.69 1036.49 635.68"/><polygon class="cls-4" points="1054.57 646.12 1043.44 639.7 1043.44 629.71 1054.57 636.13 1054.57 646.12"/><polygon class="cls-23" points="1071.93 656.14 1060.8 649.72 1060.8 639.72 1071.93 646.15 1071.93 656.14"/><polygon class="cls-23" points="978.75 625.17 956 612.04 956 602.04 978.75 615.18 978.75 625.17"/><polygon class="cls-4" points="1073.88 497.51 1105.43 515.72 1105.43 505.73 1073.88 487.52 1073.88 497.51"/><polygon class="cls-23" points="1080.64 524.23 1105.43 538.55 1105.43 528.55 1080.64 514.24 1080.64 524.23"/><polygon class="cls-23" points="1087.49 551.01 1105.43 561.37 1105.43 551.38 1087.49 541.02 1087.49 551.01"/><polygon class="cls-23" points="1079.34 569.13 1105.43 584.19 1105.43 574.2 1079.34 559.14 1079.34 569.13"/><polygon class="cls-23" points="1087.49 596.66 1105.43 607.01 1105.43 597.02 1087.49 586.67 1087.49 596.66"/><polygon class="cls-23" points="1082.68 616.71 1105.43 629.84 1105.43 619.85 1082.68 606.71 1082.68 616.71"/><polygon class="cls-23" points="1093.03 645.5 1105.43 652.66 1105.43 642.67 1093.03 635.51 1093.03 645.5"/><polygon class="cls-23" points="1081.41 661.62 1105.43 675.49 1105.43 665.49 1081.41 651.63 1081.41 661.62"/><polygon class="cls-23" points="1082.68 685.17 1105.43 698.31 1105.43 688.32 1082.68 675.18 1082.68 685.17"/><polygon class="cls-23" points="995.37 634.77 985.7 629.18 985.7 619.19 995.37 624.77 995.37 634.77"/><polygon class="cls-23" points="1024.1 651.35 1002.32 638.78 1002.32 628.79 1024.1 641.36 1024.1 651.35"/><polygon class="cls-23" points="1177.92 557.18 1132.42 530.92 1132.42 520.92 1177.92 547.19 1177.92 557.18"/><polygon class="cls-23" points="1201.25 570.65 1184.87 561.2 1184.87 551.21 1201.25 560.66 1201.25 570.65"/><polygon class="cls-4" points="1219.33 581.09 1208.2 574.67 1208.2 564.67 1219.33 571.1 1219.33 581.09"/><polygon class="cls-23" points="1157.21 568.05 1132.42 553.74 1132.42 543.75 1157.21 558.06 1157.21 568.05"/><polygon class="cls-23" points="1194.54 589.6 1164.16 572.06 1164.16 562.07 1194.54 579.61 1194.54 589.6"/><polygon class="cls-4" points="1212.62 600.04 1201.49 593.62 1201.49 583.63 1212.62 590.05 1212.62 600.04"/><polygon class="cls-23" points="1229.83 609.98 1218.7 603.55 1218.7 593.56 1229.83 599.99 1229.83 609.98"/><polygon class="cls-23" points="1150.36 586.92 1132.42 576.56 1132.42 566.57 1150.36 576.93 1150.36 586.92"/><polygon class="cls-23" points="1163.44 594.47 1157.31 590.93 1157.31 580.94 1163.44 584.48 1163.44 594.47"/><polygon class="cls-23" points="1181.52 604.91 1170.39 598.48 1170.39 588.49 1181.52 594.92 1181.52 604.91"/><polygon class="cls-23" points="1198.62 637.61 1132.42 599.38 1132.42 589.39 1198.62 627.62 1198.62 637.61"/><polygon class="cls-23" points="1221.95 651.08 1205.58 641.62 1205.58 631.63 1221.95 641.09 1221.95 651.08"/><polygon class="cls-23" points="1150.36 632.56 1132.42 622.21 1132.42 612.22 1150.36 622.57 1150.36 632.56"/><polygon class="cls-23" points="1192.45 656.87 1157.31 636.58 1157.31 626.59 1192.45 646.88 1192.45 656.87"/><polygon class="cls-23" points="1210.53 667.3 1199.4 660.88 1199.4 650.89 1210.53 657.31 1210.53 667.3"/><polygon class="cls-4" points="1169.12 666.22 1132.42 645.03 1132.42 635.04 1169.12 656.23 1169.12 666.22"/><polygon class="cls-23" points="1202.61 685.55 1176.07 670.23 1176.07 660.24 1202.61 675.56 1202.61 685.55"/><polygon class="cls-23" points="1227.5 699.92 1209.56 689.57 1209.56 679.58 1227.5 689.93 1227.5 699.92"/><polygon class="cls-23" points="1144.82 675.01 1132.42 667.86 1132.42 657.86 1144.82 665.02 1144.82 675.01"/><polygon class="cls-23" points="1168.15 688.48 1151.77 679.02 1151.77 669.03 1168.15 678.49 1168.15 688.48"/><polygon class="cls-4" points="1201.49 707.73 1175.1 692.49 1175.1 682.5 1201.49 697.74 1201.49 707.73"/><polygon class="cls-23" points="1170.39 712.6 1132.42 690.68 1132.42 680.69 1170.39 702.61 1170.39 712.6"/><polygon class="cls-23" points="1212.91 737.15 1177.34 716.61 1177.34 706.62 1212.91 727.16 1212.91 737.15"/><polygon class="cls-23" points="1230.99 747.59 1219.87 741.16 1219.87 731.17 1230.99 737.6 1230.99 747.59"/><polygon class="cls-23" points="1248.35 757.61 1237.22 751.18 1237.22 741.19 1248.35 747.62 1248.35 757.61"/><polygon class="cls-23" points="1155.17 726.63 1132.42 713.5 1132.42 703.51 1155.17 716.64 1155.17 726.63"/><polygon class="cls-4" points="1250.31 598.98 1281.85 617.19 1281.85 607.2 1250.31 588.99 1250.31 598.98"/><polygon class="cls-23" points="1257.06 625.7 1281.85 640.01 1281.85 630.02 1257.06 615.71 1257.06 625.7"/><polygon class="cls-23" points="1263.91 652.48 1281.85 662.84 1281.85 652.84 1263.91 642.49 1263.91 652.48"/><polygon class="cls-23" points="1255.76 670.6 1281.85 685.66 1281.85 675.67 1255.76 660.6 1255.76 670.6"/><polygon class="cls-23" points="1263.91 698.13 1281.85 708.48 1281.85 698.49 1263.91 688.13 1263.91 698.13"/><polygon class="cls-23" points="1259.1 718.17 1281.85 731.3 1281.85 721.31 1259.1 708.18 1259.1 718.17"/><polygon class="cls-23" points="1269.46 746.97 1281.85 754.13 1281.85 744.14 1269.46 736.98 1269.46 746.97"/><polygon class="cls-23" points="1257.83 763.08 1281.85 776.95 1281.85 766.96 1257.83 753.09 1257.83 763.08"/><polygon class="cls-23" points="1259.1 786.64 1281.85 799.77 1281.85 789.78 1259.1 776.65 1259.1 786.64"/><polygon class="cls-4" points="1171.79 736.23 1162.12 730.65 1162.12 720.66 1171.79 726.24 1171.79 736.23"/><polygon class="cls-23" points="1200.52 752.82 1178.74 740.25 1178.74 730.25 1200.52 742.83 1200.52 752.82"/><polygon class="cls-23" points="1001.5 661.26 956 634.99 956 625 1001.5 651.27 1001.5 661.26"/><polygon class="cls-23" points="1024.83 674.73 1008.45 665.27 1008.45 655.28 1024.83 664.74 1024.83 674.73"/><polygon class="cls-23" points="1042.91 685.17 1031.78 678.74 1031.78 668.75 1042.91 675.18 1042.91 685.17"/><polygon class="cls-23" points="980.79 672.13 956 657.81 956 647.82 980.79 662.13 980.79 672.13"/><polygon class="cls-23" points="1018.12 693.68 987.74 676.14 987.74 666.15 1018.12 683.69 1018.12 693.68"/><polygon class="cls-23" points="1036.2 704.12 1025.07 697.69 1025.07 687.7 1036.2 694.13 1036.2 704.12"/><polygon class="cls-23" points="1053.41 714.05 1042.28 707.63 1042.28 697.63 1053.41 704.06 1053.41 714.05"/><polygon class="cls-23" points="973.94 690.99 956 680.64 956 670.65 973.94 681 973.94 690.99"/><polygon class="cls-23" points="987.02 698.54 980.89 695.01 980.89 685.01 987.02 688.55 987.02 698.54"/><polygon class="cls-23" points="1005.1 708.98 993.97 702.56 993.97 692.57 1005.1 698.99 1005.1 708.98"/><polygon class="cls-23" points="1022.2 741.68 956 703.46 956 693.47 1022.2 731.69 1022.2 741.68"/><polygon class="cls-23" points="1045.53 755.15 1029.15 745.7 1029.15 735.7 1045.53 745.16 1045.53 755.15"/><polygon class="cls-23" points="973.94 736.64 956 726.28 956 716.29 973.94 726.65 973.94 736.64"/><polygon class="cls-23" points="1016.03 760.94 980.89 740.65 980.89 730.66 1016.03 750.95 1016.03 760.94"/><polygon class="cls-23" points="1034.11 771.38 1022.98 764.95 1022.98 754.96 1034.11 761.39 1034.11 771.38"/><polygon class="cls-23" points="992.7 770.29 956 749.11 956 739.12 992.7 760.3 992.7 770.29"/><polygon class="cls-23" points="1026.19 789.63 999.65 774.31 999.65 764.32 1026.19 779.64 1026.19 789.63"/><polygon class="cls-23" points="1051.07 804 1033.14 793.64 1033.14 783.65 1051.07 794.01 1051.07 804"/><polygon class="cls-23" points="968.39 779.09 956 771.93 956 761.94 968.39 769.1 968.39 779.09"/><polygon class="cls-23" points="991.73 792.56 975.35 783.1 975.35 773.11 991.73 782.57 991.73 792.56"/><polygon class="cls-23" points="1025.07 811.81 998.68 796.57 998.68 786.58 1025.07 801.82 1025.07 811.81"/><polygon class="cls-23" points="993.97 816.67 956 794.75 956 784.76 993.97 806.68 993.97 816.67"/><polygon class="cls-23" points="1036.49 841.23 1000.92 820.69 1000.92 810.7 1036.49 831.23 1036.49 841.23"/><polygon class="cls-23" points="1054.57 851.66 1043.44 845.24 1043.44 835.25 1054.57 841.67 1054.57 851.66"/><polygon class="cls-23" points="1071.93 861.68 1060.8 855.26 1060.8 845.26 1071.93 851.69 1071.93 861.68"/><polygon class="cls-23" points="978.75 830.71 956 817.58 956 807.59 978.75 820.72 978.75 830.71"/><polygon class="cls-23" points="1073.88 703.05 1105.43 721.26 1105.43 711.27 1073.88 693.06 1073.88 703.05"/><polygon class="cls-23" points="1080.64 729.77 1105.43 744.09 1105.43 734.1 1080.64 719.78 1080.64 729.77"/><polygon class="cls-23" points="1087.49 756.55 1105.43 766.91 1105.43 756.92 1087.49 746.56 1087.49 756.55"/><polygon class="cls-23" points="1079.34 774.67 1105.43 789.73 1105.43 779.74 1079.34 764.68 1079.34 774.67"/><polygon class="cls-23" points="1087.49 802.2 1105.43 812.56 1105.43 802.57 1087.49 792.21 1087.49 802.2"/><polygon class="cls-23" points="1082.68 822.25 1105.43 835.38 1105.43 825.39 1082.68 812.25 1082.68 822.25"/><polygon class="cls-23" points="1093.03 851.05 1105.43 858.2 1105.43 848.21 1093.03 841.05 1093.03 851.05"/><polygon class="cls-23" points="1081.41 867.16 1105.43 881.02 1105.43 871.03 1081.41 857.17 1081.41 867.16"/><polygon class="cls-23" points="1082.68 890.72 1105.43 903.85 1105.43 893.86 1082.68 880.72 1082.68 890.72"/><polygon class="cls-23" points="995.37 840.31 985.7 834.72 985.7 824.73 995.37 830.32 995.37 840.31"/><polygon class="cls-23" points="1024.1 856.89 1002.32 844.32 1002.32 834.33 1024.1 846.9 1024.1 856.89"/><polygon class="cls-23" points="1042.11 933.66 1005.37 912.45 1005.37 902.46 1042.11 923.67 1042.11 933.66"/><polygon class="cls-23" points="1067.28 948.2 1052.8 939.84 1052.8 929.85 1067.28 938.2 1067.28 948.2"/><polygon class="cls-23" points="1177.92 762.72 1132.42 736.46 1132.42 726.47 1177.92 752.73 1177.92 762.72"/><polygon class="cls-23" points="1201.25 776.19 1184.87 766.74 1184.87 756.75 1201.25 766.2 1201.25 776.19"/><polygon class="cls-23" points="1219.33 786.63 1208.2 780.21 1208.2 770.22 1219.33 776.64 1219.33 786.63"/><polygon class="cls-23" points="1157.21 773.59 1132.42 759.28 1132.42 749.29 1157.21 763.6 1157.21 773.59"/><polygon class="cls-23" points="1194.54 795.14 1164.16 777.61 1164.16 767.61 1194.54 785.15 1194.54 795.14"/><polygon class="cls-23" points="1212.62 805.58 1201.49 799.16 1201.49 789.17 1212.62 795.59 1212.62 805.58"/><polygon class="cls-23" points="1229.83 815.52 1218.7 809.09 1218.7 799.1 1229.83 805.53 1229.83 815.52"/><polygon class="cls-23" points="1150.36 792.46 1132.42 782.1 1132.42 772.11 1150.36 782.47 1150.36 792.46"/><polygon class="cls-23" points="1163.44 800.01 1157.31 796.47 1157.31 786.48 1163.44 790.02 1163.44 800.01"/><polygon class="cls-23" points="1181.52 810.45 1170.39 804.02 1170.39 794.03 1181.52 800.46 1181.52 810.45"/><polygon class="cls-23" points="1198.62 843.15 1132.42 804.93 1132.42 794.93 1198.62 833.16 1198.62 843.15"/><polygon class="cls-23" points="1221.95 856.62 1205.58 847.16 1205.58 837.17 1221.95 846.63 1221.95 856.62"/><polygon class="cls-23" points="1150.36 838.1 1132.42 827.75 1132.42 817.76 1150.36 828.11 1150.36 838.1"/><polygon class="cls-23" points="1192.45 862.41 1157.31 842.12 1157.31 832.13 1192.45 852.42 1192.45 862.41"/><polygon class="cls-23" points="1210.53 872.85 1199.4 866.42 1199.4 856.43 1210.53 862.86 1210.53 872.85"/><polygon class="cls-23" points="1169.12 871.76 1132.42 850.57 1132.42 840.58 1169.12 861.77 1169.12 871.76"/><polygon class="cls-23" points="1202.61 891.1 1176.07 875.77 1176.07 865.78 1202.61 881.1 1202.61 891.1"/><polygon class="cls-23" points="1227.5 905.46 1209.56 895.11 1209.56 885.12 1227.5 895.47 1227.5 905.46"/><polygon class="cls-23" points="1144.82 880.55 1132.42 873.39 1132.42 863.4 1144.82 870.56 1144.82 880.55"/><polygon class="cls-23" points="1168.15 894.02 1151.77 884.57 1151.77 874.57 1168.15 884.03 1168.15 894.02"/><polygon class="cls-23" points="1201.49 913.27 1175.1 898.03 1175.1 888.04 1201.49 903.28 1201.49 913.27"/><polygon class="cls-23" points="1170.39 918.14 1132.42 896.22 1132.42 886.23 1170.39 908.15 1170.39 918.14"/><polygon class="cls-23" points="1212.91 942.69 1177.34 922.15 1177.34 912.16 1212.91 932.7 1212.91 942.69"/><polygon class="cls-23" points="1230.99 953.13 1219.87 946.7 1219.87 936.71 1230.99 943.14 1230.99 953.13"/><polygon class="cls-23" points="1248.35 963.15 1237.22 956.72 1237.22 946.73 1248.35 953.16 1248.35 963.15"/><polygon class="cls-23" points="1155.17 932.17 1132.42 919.04 1132.42 909.05 1155.17 922.18 1155.17 932.17"/><polygon class="cls-23" points="1250.31 804.52 1281.85 822.73 1281.85 812.74 1250.31 794.52 1250.31 804.52"/><polygon class="cls-23" points="1257.06 831.24 1281.85 845.55 1281.85 835.56 1257.06 821.25 1257.06 831.24"/><polygon class="cls-23" points="1263.91 858.02 1281.85 868.38 1281.85 858.38 1263.91 848.03 1263.91 858.02"/><polygon class="cls-23" points="1255.76 876.14 1281.85 891.2 1281.85 881.21 1255.76 866.14 1255.76 876.14"/><polygon class="cls-23" points="1263.91 903.67 1281.85 914.02 1281.85 904.03 1263.91 893.67 1263.91 903.67"/><polygon class="cls-23" points="1259.1 923.71 1281.85 936.85 1281.85 926.85 1259.1 913.72 1259.1 923.71"/><polygon class="cls-23" points="1269.46 952.51 1281.85 959.67 1281.85 949.68 1269.46 942.52 1269.46 952.51"/><polygon class="cls-23" points="1257.83 968.63 1281.85 982.49 1281.85 972.5 1257.83 958.63 1257.83 968.63"/><polygon class="cls-23" points="1259.1 992.18 1281.85 1005.31 1281.85 995.32 1259.1 982.19 1259.1 992.18"/><polygon class="cls-23" points="1171.79 941.77 1162.12 936.19 1162.12 926.2 1171.79 931.78 1171.79 941.77"/><polygon class="cls-23" points="1200.52 958.36 1178.74 945.79 1178.74 935.79 1200.52 948.37 1200.52 958.36"/><polygon class="cls-23" points="1218.53 1035.13 1181.79 1013.91 1181.79 1003.92 1218.53 1025.14 1218.53 1035.13"/><polygon class="cls-23" points="1243.7 1049.66 1229.23 1041.3 1229.23 1031.31 1243.7 1039.67 1243.7 1049.66"/><polygon class="cls-23" points="1001.5 455.72 956 429.45 956 419.46 1001.5 445.73 1001.5 455.72"/><polygon class="cls-23" points="1024.83 469.19 1008.45 459.73 1008.45 449.74 1024.83 459.2 1024.83 469.19"/><polygon class="cls-23" points="1042.91 479.63 1031.78 473.2 1031.78 463.21 1042.91 469.63 1042.91 479.63"/><polygon class="cls-23" points="980.79 466.59 956 452.27 956 442.28 980.79 456.6 980.79 466.59"/><polygon class="cls-23" points="1018.12 488.14 987.74 470.6 987.74 460.61 1018.12 478.15 1018.12 488.14"/><polygon class="cls-23" points="1036.2 498.58 1025.07 492.15 1025.07 482.16 1036.2 488.59 1036.2 498.58"/><polygon class="cls-23" points="1053.41 508.51 1042.28 502.08 1042.28 492.09 1053.41 498.52 1053.41 508.51"/><polygon class="cls-4" points="973.94 485.45 956 475.1 956 465.11 973.94 475.46 973.94 485.45"/><polygon class="cls-4" points="987.02 493 980.89 489.46 980.89 479.47 987.02 483.01 987.02 493"/><polygon class="cls-23" points="1005.1 503.44 993.97 497.02 993.97 487.03 1005.1 493.45 1005.1 503.44"/><polygon class="cls-23" points="1022.2 536.14 956 497.92 956 487.93 1022.2 526.15 1022.2 536.14"/><polygon class="cls-23" points="1045.53 549.61 1029.15 540.15 1029.15 530.16 1045.53 539.62 1045.53 549.61"/><polygon class="cls-23" points="973.94 531.1 956 520.74 956 510.75 973.94 521.11 973.94 531.1"/><polygon class="cls-23" points="1016.03 555.4 980.89 535.11 980.89 525.12 1016.03 545.41 1016.03 555.4"/><polygon class="cls-23" points="1034.11 565.84 1022.98 559.41 1022.98 549.42 1034.11 555.85 1034.11 565.84"/><polygon class="cls-23" points="992.7 564.75 956 543.57 956 533.58 992.7 554.76 992.7 564.75"/><polygon class="cls-4" points="1026.19 584.09 999.65 568.77 999.65 558.77 1026.19 574.1 1026.19 584.09"/><polygon class="cls-23" points="1051.07 598.46 1033.14 588.1 1033.14 578.11 1051.07 588.47 1051.07 598.46"/><polygon class="cls-23" points="968.39 573.55 956 566.39 956 556.4 968.39 563.55 968.39 573.55"/><polygon class="cls-23" points="991.73 587.02 975.35 577.56 975.35 567.57 991.73 577.02 991.73 587.02"/><polygon class="cls-23" points="1025.07 606.27 998.68 591.03 998.68 581.04 1025.07 596.27 1025.07 606.27"/><polygon class="cls-23" points="993.97 611.13 956 589.21 956 579.22 993.97 601.14 993.97 611.13"/><polygon class="cls-23" points="1036.49 635.68 1000.92 615.15 1000.92 605.15 1036.49 625.69 1036.49 635.68"/><polygon class="cls-4" points="1054.57 646.12 1043.44 639.7 1043.44 629.71 1054.57 636.13 1054.57 646.12"/><polygon class="cls-23" points="1071.93 656.14 1060.8 649.72 1060.8 639.72 1071.93 646.15 1071.93 656.14"/><polygon class="cls-23" points="978.75 625.17 956 612.04 956 602.04 978.75 615.18 978.75 625.17"/><polygon class="cls-4" points="1073.88 497.51 1105.43 515.72 1105.43 505.73 1073.88 487.52 1073.88 497.51"/><polygon class="cls-23" points="1080.64 524.23 1105.43 538.55 1105.43 528.55 1080.64 514.24 1080.64 524.23"/><polygon class="cls-23" points="1087.49 551.01 1105.43 561.37 1105.43 551.38 1087.49 541.02 1087.49 551.01"/><polygon class="cls-23" points="1079.34 569.13 1105.43 584.19 1105.43 574.2 1079.34 559.14 1079.34 569.13"/><polygon class="cls-23" points="1087.49 596.66 1105.43 607.01 1105.43 597.02 1087.49 586.67 1087.49 596.66"/><polygon class="cls-23" points="1082.68 616.71 1105.43 629.84 1105.43 619.85 1082.68 606.71 1082.68 616.71"/><polygon class="cls-23" points="1093.03 645.5 1105.43 652.66 1105.43 642.67 1093.03 635.51 1093.03 645.5"/><polygon class="cls-23" points="1081.41 661.62 1105.43 675.49 1105.43 665.49 1081.41 651.63 1081.41 661.62"/><polygon class="cls-23" points="1082.68 685.17 1105.43 698.31 1105.43 688.32 1082.68 675.18 1082.68 685.17"/><polygon class="cls-23" points="995.37 634.77 985.7 629.18 985.7 619.19 995.37 624.77 995.37 634.77"/><polygon class="cls-23" points="1024.1 651.35 1002.32 638.78 1002.32 628.79 1024.1 641.36 1024.1 651.35"/><polygon class="cls-23" points="1177.92 557.18 1132.42 530.92 1132.42 520.92 1177.92 547.19 1177.92 557.18"/><polygon class="cls-23" points="1201.25 570.65 1184.87 561.2 1184.87 551.21 1201.25 560.66 1201.25 570.65"/><polygon class="cls-4" points="1219.33 581.09 1208.2 574.67 1208.2 564.67 1219.33 571.1 1219.33 581.09"/><polygon class="cls-23" points="1157.21 568.05 1132.42 553.74 1132.42 543.75 1157.21 558.06 1157.21 568.05"/><polygon class="cls-23" points="1194.54 589.6 1164.16 572.06 1164.16 562.07 1194.54 579.61 1194.54 589.6"/><polygon class="cls-4" points="1212.62 600.04 1201.49 593.62 1201.49 583.63 1212.62 590.05 1212.62 600.04"/><polygon class="cls-23" points="1229.83 609.98 1218.7 603.55 1218.7 593.56 1229.83 599.99 1229.83 609.98"/><polygon class="cls-23" points="1150.36 586.92 1132.42 576.56 1132.42 566.57 1150.36 576.93 1150.36 586.92"/><polygon class="cls-23" points="1163.44 594.47 1157.31 590.93 1157.31 580.94 1163.44 584.48 1163.44 594.47"/><polygon class="cls-23" points="1181.52 604.91 1170.39 598.48 1170.39 588.49 1181.52 594.92 1181.52 604.91"/><polygon class="cls-23" points="1198.62 637.61 1132.42 599.38 1132.42 589.39 1198.62 627.62 1198.62 637.61"/><polygon class="cls-23" points="1221.95 651.08 1205.58 641.62 1205.58 631.63 1221.95 641.09 1221.95 651.08"/><polygon class="cls-23" points="1150.36 632.56 1132.42 622.21 1132.42 612.22 1150.36 622.57 1150.36 632.56"/><polygon class="cls-23" points="1192.45 656.87 1157.31 636.58 1157.31 626.59 1192.45 646.88 1192.45 656.87"/><polygon class="cls-23" points="1210.53 667.3 1199.4 660.88 1199.4 650.89 1210.53 657.31 1210.53 667.3"/><polygon class="cls-4" points="1169.12 666.22 1132.42 645.03 1132.42 635.04 1169.12 656.23 1169.12 666.22"/><polygon class="cls-23" points="1202.61 685.55 1176.07 670.23 1176.07 660.24 1202.61 675.56 1202.61 685.55"/><polygon class="cls-23" points="1227.5 699.92 1209.56 689.57 1209.56 679.58 1227.5 689.93 1227.5 699.92"/><polygon class="cls-23" points="1144.82 675.01 1132.42 667.86 1132.42 657.86 1144.82 665.02 1144.82 675.01"/><polygon class="cls-23" points="1168.15 688.48 1151.77 679.02 1151.77 669.03 1168.15 678.49 1168.15 688.48"/><polygon class="cls-4" points="1201.49 707.73 1175.1 692.49 1175.1 682.5 1201.49 697.74 1201.49 707.73"/><polygon class="cls-23" points="1170.39 712.6 1132.42 690.68 1132.42 680.69 1170.39 702.61 1170.39 712.6"/><polygon class="cls-23" points="1212.91 737.15 1177.34 716.61 1177.34 706.62 1212.91 727.16 1212.91 737.15"/><polygon class="cls-23" points="1230.99 747.59 1219.87 741.16 1219.87 731.17 1230.99 737.6 1230.99 747.59"/><polygon class="cls-23" points="1248.35 757.61 1237.22 751.18 1237.22 741.19 1248.35 747.62 1248.35 757.61"/><polygon class="cls-23" points="1155.17 726.63 1132.42 713.5 1132.42 703.51 1155.17 716.64 1155.17 726.63"/><polygon class="cls-4" points="1250.31 598.98 1281.85 617.19 1281.85 607.2 1250.31 588.99 1250.31 598.98"/><polygon class="cls-23" points="1257.06 625.7 1281.85 640.01 1281.85 630.02 1257.06 615.71 1257.06 625.7"/><polygon class="cls-23" points="1263.91 652.48 1281.85 662.84 1281.85 652.84 1263.91 642.49 1263.91 652.48"/><polygon class="cls-23" points="1255.76 670.6 1281.85 685.66 1281.85 675.67 1255.76 660.6 1255.76 670.6"/><polygon class="cls-23" points="1263.91 698.13 1281.85 708.48 1281.85 698.49 1263.91 688.13 1263.91 698.13"/><polygon class="cls-23" points="1259.1 718.17 1281.85 731.3 1281.85 721.31 1259.1 708.18 1259.1 718.17"/><polygon class="cls-23" points="1269.46 746.97 1281.85 754.13 1281.85 744.14 1269.46 736.98 1269.46 746.97"/><polygon class="cls-23" points="1257.83 763.08 1281.85 776.95 1281.85 766.96 1257.83 753.09 1257.83 763.08"/><polygon class="cls-23" points="1259.1 786.64 1281.85 799.77 1281.85 789.78 1259.1 776.65 1259.1 786.64"/><polygon class="cls-4" points="1171.79 736.23 1162.12 730.65 1162.12 720.66 1171.79 726.24 1171.79 736.23"/><polygon class="cls-23" points="1200.52 752.82 1178.74 740.25 1178.74 730.25 1200.52 742.83 1200.52 752.82"/><polygon class="cls-23" points="1001.5 661.26 956 634.99 956 625 1001.5 651.27 1001.5 661.26"/><polygon class="cls-23" points="1024.83 674.73 1008.45 665.27 1008.45 655.28 1024.83 664.74 1024.83 674.73"/><polygon class="cls-23" points="1042.91 685.17 1031.78 678.74 1031.78 668.75 1042.91 675.18 1042.91 685.17"/><polygon class="cls-23" points="980.79 672.13 956 657.81 956 647.82 980.79 662.13 980.79 672.13"/><polygon class="cls-23" points="1018.12 693.68 987.74 676.14 987.74 666.15 1018.12 683.69 1018.12 693.68"/><polygon class="cls-23" points="1036.2 704.12 1025.07 697.69 1025.07 687.7 1036.2 694.13 1036.2 704.12"/><polygon class="cls-23" points="1053.41 714.05 1042.28 707.63 1042.28 697.63 1053.41 704.06 1053.41 714.05"/><polygon class="cls-23" points="973.94 690.99 956 680.64 956 670.65 973.94 681 973.94 690.99"/><polygon class="cls-23" points="987.02 698.54 980.89 695.01 980.89 685.01 987.02 688.55 987.02 698.54"/><polygon class="cls-23" points="1005.1 708.98 993.97 702.56 993.97 692.57 1005.1 698.99 1005.1 708.98"/><polygon class="cls-23" points="1022.2 741.68 956 703.46 956 693.47 1022.2 731.69 1022.2 741.68"/><polygon class="cls-23" points="1045.53 755.15 1029.15 745.7 1029.15 735.7 1045.53 745.16 1045.53 755.15"/><polygon class="cls-23" points="973.94 736.64 956 726.28 956 716.29 973.94 726.65 973.94 736.64"/><polygon class="cls-23" points="1016.03 760.94 980.89 740.65 980.89 730.66 1016.03 750.95 1016.03 760.94"/><polygon class="cls-23" points="1034.11 771.38 1022.98 764.95 1022.98 754.96 1034.11 761.39 1034.11 771.38"/><polygon class="cls-23" points="992.7 770.29 956 749.11 956 739.12 992.7 760.3 992.7 770.29"/><polygon class="cls-23" points="1026.19 789.63 999.65 774.31 999.65 764.32 1026.19 779.64 1026.19 789.63"/><polygon class="cls-23" points="1051.07 804 1033.14 793.64 1033.14 783.65 1051.07 794.01 1051.07 804"/><polygon class="cls-23" points="968.39 779.09 956 771.93 956 761.94 968.39 769.1 968.39 779.09"/><polygon class="cls-23" points="991.73 792.56 975.35 783.1 975.35 773.11 991.73 782.57 991.73 792.56"/><polygon class="cls-23" points="1025.07 811.81 998.68 796.57 998.68 786.58 1025.07 801.82 1025.07 811.81"/><polygon class="cls-23" points="993.97 816.67 956 794.75 956 784.76 993.97 806.68 993.97 816.67"/><polygon class="cls-23" points="1036.49 841.23 1000.92 820.69 1000.92 810.7 1036.49 831.23 1036.49 841.23"/><polygon class="cls-23" points="1054.57 851.66 1043.44 845.24 1043.44 835.25 1054.57 841.67 1054.57 851.66"/><polygon class="cls-23" points="1071.93 861.68 1060.8 855.26 1060.8 845.26 1071.93 851.69 1071.93 861.68"/><polygon class="cls-23" points="978.75 830.71 956 817.58 956 807.59 978.75 820.72 978.75 830.71"/><polygon class="cls-23" points="1073.88 703.05 1105.43 721.26 1105.43 711.27 1073.88 693.06 1073.88 703.05"/><polygon class="cls-23" points="1080.64 729.77 1105.43 744.09 1105.43 734.1 1080.64 719.78 1080.64 729.77"/><polygon class="cls-23" points="1087.49 756.55 1105.43 766.91 1105.43 756.92 1087.49 746.56 1087.49 756.55"/><polygon class="cls-23" points="1079.34 774.67 1105.43 789.73 1105.43 779.74 1079.34 764.68 1079.34 774.67"/><polygon class="cls-23" points="1087.49 802.2 1105.43 812.56 1105.43 802.57 1087.49 792.21 1087.49 802.2"/><polygon class="cls-23" points="1082.68 822.25 1105.43 835.38 1105.43 825.39 1082.68 812.25 1082.68 822.25"/><polygon class="cls-23" points="1093.03 851.05 1105.43 858.2 1105.43 848.21 1093.03 841.05 1093.03 851.05"/><polygon class="cls-23" points="1081.41 867.16 1105.43 881.02 1105.43 871.03 1081.41 857.17 1081.41 867.16"/><polygon class="cls-23" points="1082.68 890.72 1105.43 903.85 1105.43 893.86 1082.68 880.72 1082.68 890.72"/><polygon class="cls-23" points="995.37 840.31 985.7 834.72 985.7 824.73 995.37 830.32 995.37 840.31"/><polygon class="cls-23" points="1024.1 856.89 1002.32 844.32 1002.32 834.33 1024.1 846.9 1024.1 856.89"/><polygon class="cls-23" points="1042.11 933.66 1005.37 912.45 1005.37 902.46 1042.11 923.67 1042.11 933.66"/><polygon class="cls-23" points="1067.28 948.2 1052.8 939.84 1052.8 929.85 1067.28 938.2 1067.28 948.2"/><polygon class="cls-23" points="1177.92 762.72 1132.42 736.46 1132.42 726.47 1177.92 752.73 1177.92 762.72"/><polygon class="cls-23" points="1201.25 776.19 1184.87 766.74 1184.87 756.75 1201.25 766.2 1201.25 776.19"/><polygon class="cls-23" points="1219.33 786.63 1208.2 780.21 1208.2 770.22 1219.33 776.64 1219.33 786.63"/><polygon class="cls-23" points="1157.21 773.59 1132.42 759.28 1132.42 749.29 1157.21 763.6 1157.21 773.59"/><polygon class="cls-23" points="1194.54 795.14 1164.16 777.61 1164.16 767.61 1194.54 785.15 1194.54 795.14"/><polygon class="cls-23" points="1212.62 805.58 1201.49 799.16 1201.49 789.17 1212.62 795.59 1212.62 805.58"/><polygon class="cls-23" points="1229.83 815.52 1218.7 809.09 1218.7 799.1 1229.83 805.53 1229.83 815.52"/><polygon class="cls-23" points="1150.36 792.46 1132.42 782.1 1132.42 772.11 1150.36 782.47 1150.36 792.46"/><polygon class="cls-23" points="1163.44 800.01 1157.31 796.47 1157.31 786.48 1163.44 790.02 1163.44 800.01"/><polygon class="cls-23" points="1181.52 810.45 1170.39 804.02 1170.39 794.03 1181.52 800.46 1181.52 810.45"/><polygon class="cls-23" points="1198.62 843.15 1132.42 804.93 1132.42 794.93 1198.62 833.16 1198.62 843.15"/><polygon class="cls-23" points="1221.95 856.62 1205.58 847.16 1205.58 837.17 1221.95 846.63 1221.95 856.62"/><polygon class="cls-23" points="1150.36 838.1 1132.42 827.75 1132.42 817.76 1150.36 828.11 1150.36 838.1"/><polygon class="cls-23" points="1192.45 862.41 1157.31 842.12 1157.31 832.13 1192.45 852.42 1192.45 862.41"/><polygon class="cls-23" points="1210.53 872.85 1199.4 866.42 1199.4 856.43 1210.53 862.86 1210.53 872.85"/><polygon class="cls-23" points="1169.12 871.76 1132.42 850.57 1132.42 840.58 1169.12 861.77 1169.12 871.76"/><polygon class="cls-23" points="1202.61 891.1 1176.07 875.77 1176.07 865.78 1202.61 881.1 1202.61 891.1"/><polygon class="cls-23" points="1227.5 905.46 1209.56 895.11 1209.56 885.12 1227.5 895.47 1227.5 905.46"/><polygon class="cls-23" points="1144.82 880.55 1132.42 873.39 1132.42 863.4 1144.82 870.56 1144.82 880.55"/><polygon class="cls-23" points="1168.15 894.02 1151.77 884.57 1151.77 874.57 1168.15 884.03 1168.15 894.02"/><polygon class="cls-23" points="1201.49 913.27 1175.1 898.03 1175.1 888.04 1201.49 903.28 1201.49 913.27"/><polygon class="cls-23" points="1170.39 918.14 1132.42 896.22 1132.42 886.23 1170.39 908.15 1170.39 918.14"/><polygon class="cls-23" points="1212.91 942.69 1177.34 922.15 1177.34 912.16 1212.91 932.7 1212.91 942.69"/><polygon class="cls-23" points="1230.99 953.13 1219.87 946.7 1219.87 936.71 1230.99 943.14 1230.99 953.13"/><polygon class="cls-23" points="1248.35 963.15 1237.22 956.72 1237.22 946.73 1248.35 953.16 1248.35 963.15"/><polygon class="cls-23" points="1155.17 932.17 1132.42 919.04 1132.42 909.05 1155.17 922.18 1155.17 932.17"/><polygon class="cls-23" points="1250.31 804.52 1281.85 822.73 1281.85 812.74 1250.31 794.52 1250.31 804.52"/><polygon class="cls-23" points="1257.06 831.24 1281.85 845.55 1281.85 835.56 1257.06 821.25 1257.06 831.24"/><polygon class="cls-23" points="1263.91 858.02 1281.85 868.38 1281.85 858.38 1263.91 848.03 1263.91 858.02"/><polygon class="cls-23" points="1255.76 876.14 1281.85 891.2 1281.85 881.21 1255.76 866.14 1255.76 876.14"/><polygon class="cls-23" points="1263.91 903.67 1281.85 914.02 1281.85 904.03 1263.91 893.67 1263.91 903.67"/><polygon class="cls-23" points="1259.1 923.71 1281.85 936.85 1281.85 926.85 1259.1 913.72 1259.1 923.71"/><polygon class="cls-23" points="1269.46 952.51 1281.85 959.67 1281.85 949.68 1269.46 942.52 1269.46 952.51"/><polygon class="cls-23" points="1257.83 968.63 1281.85 982.49 1281.85 972.5 1257.83 958.63 1257.83 968.63"/><polygon class="cls-23" points="1259.1 992.18 1281.85 1005.31 1281.85 995.32 1259.1 982.19 1259.1 992.18"/><polygon class="cls-23" points="1171.79 941.77 1162.12 936.19 1162.12 926.2 1171.79 931.78 1171.79 941.77"/><polygon class="cls-23" points="1200.52 958.36 1178.74 945.79 1178.74 935.79 1200.52 948.37 1200.52 958.36"/><polygon class="cls-23" points="1218.53 1035.13 1181.79 1013.91 1181.79 1003.92 1218.53 1025.14 1218.53 1035.13"/><polygon class="cls-23" points="1243.7 1049.66 1229.23 1041.3 1229.23 1031.31 1243.7 1039.67 1243.7 1049.66"/><path class="cls-24" d="M1287.74,476.43,1301,467h0c4.14-3.16,9.88-3.29,16.22.37l462.67,267.12c12.64,7.3,22.89,26.89,22.89,43.74v259.33c0,8.82-2.82,15.11-7.31,18.09l0,0-13.75,9.82-.76-10c-.38-.19-.75-.36-1.12-.57L1317.2,787.72c-12.64-7.3-22.89-26.89-22.89-43.75V484.65a34.13,34.13,0,0,1,.67-6.82Z" transform="translate(-78.53 -1)"/><path class="cls-25" d="M1801.57,767.84l-122.12,70.51-30.76-17.76,138.69-80.07C1794.06,747.47,1799.32,757.59,1801.57,767.84Z" transform="translate(-78.53 -1)"/><path class="cls-26" d="M1303.39,797.58l462.67,267.12c12.64,7.3,22.89-.45,22.89-17.31V788.07c0-16.86-10.25-36.45-22.89-43.75L1303.39,477.21c-12.64-7.3-22.89.44-22.89,17.3V753.84C1280.5,770.7,1290.75,790.28,1303.39,797.58Z" transform="translate(-78.53 -1)"/><path class="cls-18" d="M1346.21,634.29l377.59,217.8c2.92,1.68,5.4,2.59,7.11,0,.26-.4.12-1,.12-1.56V793.22c0-4.45-2.7-9.62-6-11.55L1344.46,562c-.3-.17-.58-.47-.88-.42-2.85.47-3,3.1-3,7.15l-.92,54.94C1339.7,628.09,1342.87,632.37,1346.21,634.29Z" transform="translate(-78.53 -1)"/><path class="cls-18" d="M1345.42,758.83l378.24,218c2.91,1.68,6.68,3.45,7.25.12a9.63,9.63,0,0,0,.12-1.57V918.09c0-4.45-2.7-9.62-6-11.54l-380.53-219.7a5.39,5.39,0,0,0-.88-.42c-2.92-1.12-3.69,2.65-3.69,6.7l-.19,54.25C1339.7,751.83,1342.08,756.9,1345.42,758.83Z" transform="translate(-78.53 -1)"/><path class="cls-27" d="M1343.57,561.58a9.5,9.5,0,0,0-.12,1.56v57.27c0,4.45,2.7,9.62,6,11.55L1730,851.65a5.71,5.71,0,0,0,.89.4c-.57,3.34-3,4.69-5.92,3l-380.53-219.7c-3.34-1.93-6-7.1-6-11.55V566.54C1338.42,562.5,1340.66,560.47,1343.57,561.58Z" transform="translate(-78.53 -1)"/><path class="cls-27" d="M1343.57,686.45a9.5,9.5,0,0,0-.12,1.56v57.28c0,4.45,2.7,9.61,6,11.54L1730,976.53a5.61,5.61,0,0,0,.89.39c-.57,3.34-3,4.7-5.92,3l-380.53-219.7c-3.34-1.92-6-7.09-6-11.54V691.41C1338.42,687.37,1340.66,685.35,1343.57,686.45Z" transform="translate(-78.53 -1)"/><path class="cls-27" d="M1622.26,766.73l-4.65,8.81-8.85-11.12,6.72-6.93-10.06-10.25,3.29-8.49,9.08,11.14-1.22-13.29L1627.7,743l-1.17,11.86,9.09-.55,3.37,12.24-9.93-1.29,6.66,14.76-8.7.93Z" transform="translate(-78.53 -1)"/><path class="cls-27" d="M1578.53,741.48l-4.66,8.8L1565,739.17l6.73-6.93L1561.68,722l3.29-8.5,9.08,11.15-1.22-13.29,11.13,6.42-1.17,11.86,9.09-.55,3.37,12.24-9.93-1.3,6.66,14.76-8.7.94Z" transform="translate(-78.53 -1)"/><path class="cls-27" d="M1534.79,716.23l-4.65,8.8-8.85-11.11L1528,707l-10.07-10.26,3.29-8.49,9.09,11.15-1.23-13.3,11.13,6.43-1.17,11.86,9.09-.55,3.37,12.24-9.93-1.3,6.66,14.76-8.7.94Z" transform="translate(-78.53 -1)"/><path class="cls-27" d="M1491.05,691l-4.65,8.8-8.85-11.11,6.72-6.93-10.07-10.26,3.3-8.49,9.08,11.14-1.23-13.29,11.13,6.43-1.17,11.85,9.1-.54,3.36,12.23-9.92-1.29,6.66,14.76-8.7.93Z" transform="translate(-78.53 -1)"/><path class="cls-27" d="M1447.31,665.72l-4.65,8.81-8.85-11.11,6.72-6.93-10.06-10.26,3.29-8.49,9.08,11.14-1.22-13.29,11.12,6.42-1.16,11.86,9.09-.55,3.36,12.24-9.92-1.29,6.66,14.76-8.7.93Z" transform="translate(-78.53 -1)"/><path class="cls-27" d="M1622.26,891.61l-4.65,8.8-8.85-11.11,6.72-6.93-10.06-10.26,3.29-8.49,9.08,11.15-1.22-13.3,11.13,6.43-1.17,11.86,9.09-.55,3.37,12.24-9.93-1.3,6.66,14.76-8.7.93Z" transform="translate(-78.53 -1)"/><path class="cls-27" d="M1578.53,866.35l-4.66,8.81L1565,864.05l6.73-6.93-10.07-10.26,3.29-8.49,9.08,11.14-1.22-13.29,11.13,6.43-1.17,11.85,9.09-.54,3.37,12.23-9.93-1.29,6.66,14.76-8.7.93Z" transform="translate(-78.53 -1)"/><path class="cls-27" d="M1534.79,841.1l-4.65,8.81-8.85-11.12,6.72-6.93-10.07-10.25,3.29-8.49,9.09,11.14L1529.09,811l11.13,6.42-1.17,11.86,9.09-.55,3.37,12.24-9.93-1.29,6.66,14.76-8.7.93Z" transform="translate(-78.53 -1)"/><path class="cls-27" d="M1491.05,815.85l-4.65,8.81-8.85-11.12,6.72-6.93-10.07-10.25,3.3-8.49,9.08,11.14-1.23-13.29,11.13,6.42L1495.31,804l9.1-.55,3.36,12.24-9.92-1.29,6.66,14.76-8.7.93Z" transform="translate(-78.53 -1)"/><path class="cls-27" d="M1447.31,790.6l-4.65,8.8-8.85-11.11,6.72-6.93-10.06-10.25,3.29-8.5,9.08,11.15-1.22-13.29,11.12,6.42-1.16,11.86,9.09-.55,3.36,12.24-9.92-1.3,6.66,14.76-8.7.94Z" transform="translate(-78.53 -1)"/><g class="cls-28"><path class="cls-29" d="M1935,1875.25v-35.54l-9.83-5.47c-2.78,16.77-22.52,27.83-39,30.12l-112.41,65.74-49.06,17.71L1568.13,1867l3.61-2.09c-13.38-6.25-20.59-20.56-27.83-33.6l-10.54,6.29-6.26,1.76v36.45h0c0,7,4.59,13.93,13.78,19.23l156.87,90.57c18.37,10.61,48.26,10.61,66.62,0l156.88-90.57c9-5.21,13.62-12,13.77-18.89,0-.31,0-.61,0-.92Z" transform="translate(-78.53 -1)"/><path class="cls-30" d="M1886.18,1864.36l-112.41,65.74-42.7,15.42v48c12.06,0,24.13-2.65,33.31-8l156.88-90.57c9-5.21,13.62-12,13.77-18.89,0-.31,0-.61,0-.92h0v-35.54l-9-5h-.94C1922,1851.22,1902.53,1862.09,1886.18,1864.36Z" transform="translate(-78.53 -1)"/><path class="cls-31" d="M1697.76,1949.51l-156.87-90.57c-18.37-10.61-18.37-27.86,0-38.47l156.87-90.57c18.36-10.6,48.25-10.6,66.62,0l156.88,90.58c18.36,10.6,18.36,27.86,0,38.46l-156.88,90.57C1746,1960.12,1716.13,1960.12,1697.76,1949.51Z" transform="translate(-78.53 -1)"/><g class="cls-28"><path class="cls-6" d="M1697.76,1949.51l-156.87-90.57c-18.37-10.61-18.37-27.86,0-38.47l156.87-90.57c18.36-10.6,48.25-10.6,66.62,0l156.88,90.58c18.36,10.6,18.36,27.86,0,38.46l-156.88,90.57C1746,1960.12,1716.13,1960.12,1697.76,1949.51Z" transform="translate(-78.53 -1)"/></g></g><path class="cls-4" d="M1731.08,1889.7c-10.72,0-21.42-2.36-29.57-7.07l-156.88-90.57c-8.15-4.7-12.63-11-12.63-17.86s4.48-13.16,12.63-17.87l156.87-90.57c16.29-9.4,42.82-9.41,59.14,0l156.87,90.58c8.14,4.7,12.63,11,12.63,17.86s-4.49,13.16-12.63,17.87l-156.87,90.56C1752.49,1887.34,1741.78,1889.7,1731.08,1889.7Zm0-228.29c-10.22,0-20.42,2.25-28.2,6.73L1546,1758.71c-7.26,4.19-11.25,9.7-11.25,15.49s4,11.29,11.25,15.48l156.88,90.57c15.56,9,40.84,9,56.38,0l156.88-90.56c7.26-4.19,11.25-9.7,11.25-15.49s-4-11.29-11.25-15.48l-156.88-90.58C1751.49,1663.66,1741.28,1661.41,1731.07,1661.41Z" transform="translate(-78.53 -1)"/><path class="cls-32" d="M1935,1739.44v-53.72l-9.83-5.47c-2.77,16.78-22.52,27.83-39,30.13l-112.41,65.73-49.06,17.71L1568.13,1713l3.61-2.09c-13.38-6.25-20.59-20.55-27.83-33.6l-10.54,6.29-6.26,1.76V1740h0c0,7,4.59,13.92,13.78,19.23l156.87,90.57c18.37,10.6,48.26,10.6,66.62,0l156.88-90.57c9-5.22,13.62-12,13.77-18.89,0-.31,0-.62,0-.92Z" transform="translate(-78.53 -1)"/><path class="cls-33" d="M1935,1691.69v-35.55l-9.83-5.46c-2.77,16.77-22.52,27.82-39,30.12l-112.41,65.74-49.06,17.71-156.58-80.81,3.61-2.09c-13.38-6.25-20.59-20.55-27.83-33.59l-10.54,6.28-6.26,1.76v36.46h0c0,7,4.59,13.92,13.78,19.23l156.87,90.57c18.37,10.6,48.26,10.6,66.62,0l156.88-90.57c9-5.22,13.62-12,13.77-18.89,0-.31,0-.61,0-.92Z" transform="translate(-78.53 -1)"/><path class="cls-30" d="M1886.18,1680.8l-112.41,65.74-42.7,15.41V1810c12.06,0,24.13-2.65,33.31-8l156.88-90.57c9-5.22,13.62-12,13.77-18.89,0-.31,0-.61,0-.92h0v-35.55l-9-5h-.94C1922,1667.66,1902.53,1678.53,1886.18,1680.8Z" transform="translate(-78.53 -1)"/><path class="cls-34" d="M1697.76,1766l-156.87-90.57c-18.37-10.61-18.37-27.86,0-38.47l156.87-90.57c18.36-10.6,48.25-10.6,66.62,0l156.88,90.57c18.36,10.61,18.36,27.86,0,38.47L1764.39,1766C1746,1776.55,1716.13,1776.55,1697.76,1766Z" transform="translate(-78.53 -1)"/><path class="cls-27" d="M1921.26,1675.38,1764.38,1766c-18.36,10.6-48.25,10.6-66.62,0l-156.87-90.57c-8.21-4.74-12.74-10.81-13.61-17-1.08,7.68,3.45,15.58,13.61,21.44l156.87,90.58c18.37,10.6,48.26,10.6,66.62,0l156.88-90.57c10.15-5.87,14.68-13.77,13.6-21.45C1934,1664.57,1929.46,1670.64,1921.26,1675.38Z" transform="translate(-78.53 -1)"/><g class="cls-28"><path class="cls-35" d="M486.45,1876.81v-35.54l-9.83-5.47c-2.77,16.78-22.52,27.83-39,30.13l-112.41,65.73-49.06,17.72-156.58-80.81,3.62-2.09c-13.39-6.25-20.6-20.55-27.83-33.6l-10.54,6.29-6.27,1.76v36.45h0c0,7,4.6,13.93,13.78,19.23l156.88,90.58c18.36,10.6,48.25,10.6,66.62,0l156.87-90.57c9-5.22,13.62-12,13.77-18.9,0-.3,0-.61,0-.91Z" transform="translate(-78.53 -1)"/><path class="cls-30" d="M437.6,1865.93l-112.41,65.73-42.7,15.42v48.06c12.07,0,24.13-2.65,33.32-8l156.87-90.57c9-5.22,13.62-12,13.77-18.9,0-.3,0-.61,0-.91h0v-35.54l-9-5h-.94C473.46,1852.78,454,1863.65,437.6,1865.93Z" transform="translate(-78.53 -1)"/><path class="cls-36" d="M249.19,1951.08,92.31,1860.5c-18.37-10.6-18.37-27.86,0-38.46l156.87-90.57c18.37-10.61,48.25-10.61,66.62,0L472.68,1822c18.37,10.61,18.37,27.86,0,38.47l-156.87,90.57C297.44,1961.68,267.55,1961.68,249.19,1951.08Z" transform="translate(-78.53 -1)"/><g class="cls-28"><path class="cls-6" d="M249.19,1951.08,92.31,1860.5c-18.37-10.6-18.37-27.86,0-38.46l156.87-90.57c18.37-10.61,48.25-10.61,66.62,0L472.68,1822c18.37,10.61,18.37,27.86,0,38.47l-156.87,90.57C297.44,1961.68,267.55,1961.68,249.19,1951.08Z" transform="translate(-78.53 -1)"/></g></g><path class="cls-4" d="M282.5,1891.26c-10.72,0-21.42-2.35-29.57-7.06L96.06,1793.63c-8.15-4.7-12.64-11.05-12.64-17.87s4.49-13.16,12.63-17.86l156.87-90.57c16.29-9.41,42.83-9.42,59.14,0l156.87,90.57c8.15,4.7,12.63,11,12.63,17.86s-4.48,13.17-12.63,17.87L312.06,1884.2C303.91,1888.91,293.2,1891.26,282.5,1891.26Zm0-228.28c-10.21,0-20.42,2.24-28.19,6.73L97.42,1760.28c-7.26,4.19-11.25,9.69-11.25,15.48s4,11.29,11.26,15.49l156.87,90.57c15.56,9,40.84,9,56.39,0l156.87-90.57c7.26-4.19,11.25-9.69,11.25-15.49s-4-11.29-11.25-15.48l-156.87-90.57C302.91,1665.22,292.7,1663,282.49,1663Z" transform="translate(-78.53 -1)"/><path class="cls-32" d="M486.45,1741v-53.72l-9.83-5.46c-2.77,16.77-22.52,27.82-39,30.12l-112.41,65.73-49.06,17.72-156.58-80.81,3.62-2.09c-13.39-6.25-20.6-20.55-27.83-33.59l-10.54,6.28-6.27,1.76v54.63h0c0,7,4.6,13.93,13.78,19.23l156.88,90.57c18.36,10.61,48.25,10.61,66.62,0l156.87-90.57c9-5.21,13.62-12,13.77-18.89,0-.3,0-.61,0-.92Z" transform="translate(-78.53 -1)"/><path class="cls-37" d="M486.45,1693.25v-35.54l-9.83-5.47c-2.77,16.78-22.52,27.83-39,30.13L325.19,1748.1l-49.06,17.71L119.55,1685l3.62-2.09c-13.39-6.25-20.6-20.55-27.83-33.6l-10.54,6.29-6.27,1.76v36.45h0c0,7,4.6,13.93,13.78,19.23l156.88,90.57c18.36,10.61,48.25,10.61,66.62,0l156.87-90.57c9-5.21,13.62-12,13.77-18.89,0-.3,0-.61,0-.92Z" transform="translate(-78.53 -1)"/><path class="cls-30" d="M437.6,1682.37,325.19,1748.1l-42.7,15.42v48.06c12.07,0,24.13-2.65,33.32-8l156.87-90.57c9-5.21,13.62-12,13.77-18.89,0-.3,0-.61,0-.92h0v-35.54l-9-5h-.94C473.46,1669.22,454,1680.09,437.6,1682.37Z" transform="translate(-78.53 -1)"/><path class="cls-38" d="M249.19,1767.51,92.31,1676.94c-18.37-10.6-18.37-27.86,0-38.46l156.87-90.57c18.37-10.61,48.25-10.61,66.62,0l156.88,90.57c18.37,10.6,18.37,27.86,0,38.46l-156.87,90.57C297.44,1778.12,267.55,1778.12,249.19,1767.51Z" transform="translate(-78.53 -1)"/><path class="cls-27" d="M472.68,1676.94l-156.87,90.57c-18.37,10.61-48.26,10.61-66.62,0L92.31,1676.94c-8.21-4.74-12.74-10.81-13.61-17-1.08,7.69,3.45,15.58,13.61,21.45l156.88,90.57c18.36,10.61,48.25,10.61,66.62,0l156.87-90.57c10.16-5.86,14.69-13.76,13.61-21.44C485.42,1666.14,480.89,1672.2,472.68,1676.94Z" transform="translate(-78.53 -1)"/><path class="cls-4" d="M280,1752.88a52.45,52.45,0,0,1-26.23-7L113.19,1665a10.14,10.14,0,0,1,0-17.56L245.5,1572.2a59.43,59.43,0,0,1,59.14,0l137.26,78.92a10.14,10.14,0,0,1,0,17.56l-135.68,77.17A52.49,52.49,0,0,1,280,1752.88Zm-5-184.33a54.91,54.91,0,0,0-27.44,7.32l-132.31,75.26a5.91,5.91,0,0,0,0,10.24l140.6,80.86a48.35,48.35,0,0,0,48.23,0l135.68-77.17a5.92,5.92,0,0,0,0-10.24L302.53,1575.9h0A55,55,0,0,0,275,1568.55Z" transform="translate(-78.53 -1)"/><g class="cls-39"><path class="cls-40" d="M303.58,1495.13a57.07,57.07,0,0,0-57,0l-132.31,75.26a8,8,0,0,0,0,13.9l140.61,80.85a50.28,50.28,0,0,0,50.33,0L440.85,1588a8,8,0,0,0,0-13.9Z" transform="translate(-78.53 -1)"/></g><g class="cls-39"><path class="cls-41" d="M303.58,1437.87a57.07,57.07,0,0,0-57,0L114.24,1513.1a8,8,0,0,0,0,13.9l140.61,80.85a50.33,50.33,0,0,0,50.33,0l135.67-77.16a8,8,0,0,0,0-13.9Z" transform="translate(-78.53 -1)"/></g><g class="cls-39"><path class="cls-42" d="M303.58,1380.61a57.07,57.07,0,0,0-57,0l-132.31,75.26a8,8,0,0,0,0,13.9l140.61,80.85a50.33,50.33,0,0,0,50.33,0l135.67-77.16a8,8,0,0,0,0-13.9Z" transform="translate(-78.53 -1)"/></g><g class="cls-39"><path class="cls-43" d="M303.58,1323.35a57.07,57.07,0,0,0-57,0l-132.31,75.26a8,8,0,0,0,0,13.9l140.61,80.85a50.33,50.33,0,0,0,50.33,0l135.67-77.16a8,8,0,0,0,0-13.9Z" transform="translate(-78.53 -1)"/></g><path class="cls-44" d="M440.85,1402.27l-137.27-78.92a57.07,57.07,0,0,0-57,0l-132.31,75.26a8,8,0,0,0-4,7v171.78a8,8,0,0,0,4,7l140.61,80.85a50.33,50.33,0,0,0,50.33,0L440.85,1588a7.92,7.92,0,0,0,4-7V1409.22h0A8,8,0,0,0,440.85,1402.27Z" transform="translate(-78.53 -1)"/><g class="cls-39"><path class="cls-43" d="M303.58,1323.35a57.07,57.07,0,0,0-57,0l-132.31,75.26a8,8,0,0,0,0,13.9l140.61,80.85a50.33,50.33,0,0,0,50.33,0l135.67-77.16a8,8,0,0,0,0-13.9Z" transform="translate(-78.53 -1)"/></g><path class="cls-45" d="M440.85,1408.26l-135.67,77.17a50.33,50.33,0,0,1-50.33,0l-140.61-80.86a7.94,7.94,0,0,1-3-3,8,8,0,0,0,3,10.91l140.61,80.85a50.33,50.33,0,0,0,50.33,0l135.67-77.16a8,8,0,0,0,3-10.9A8,8,0,0,1,440.85,1408.26Z" transform="translate(-78.53 -1)"/><polygon class="cls-46" points="199.01 1453.46 113.35 1404.01 199.01 1354.55 284.68 1404.01 199.01 1453.46"/><path class="cls-4" d="M277.55,1459.1a4.66,4.66,0,0,1-2.32-.62L189.56,1409a4.64,4.64,0,0,1,0-8l85.67-49.45a4.68,4.68,0,0,1,4.64,0L365.52,1401a4.63,4.63,0,0,1,0,8l-85.65,49.46A4.72,4.72,0,0,1,277.55,1459.1ZM201.15,1405l76.4,44.1,76.39-44.1-76.39-44.11Z" transform="translate(-78.53 -1)"/><g id="Character"><path class="cls-47" d="M748.68,976.94s4.56-95.7-.47-132.2c-4.31-31.33-10.22-45.56-11.12-52.69,0,0-4.85-73.7-5.49-136.25-.31-30.1-3.09-51.53-19.59-87.32L608.32,592c-2.16,15.89-11.84,123.46-13.57,217.48-1.5,82.3.84,154.37.84,154.37l.11,4.33c0,4.81-1.05,8.17-4.15,15.89s-8.85,19-16.43,27.19c-2.18,2.35-17.31,15.59-19.31,18.41-6.5,7.58,7,11.85,17,10.52,10.56-1.41,26.94-5.42,31.59-11.84,3.09-4.28,5.42-19.28,8.6-23.62,10.73-14.63,15.14-20.92,15.22-25.59.14-8.45-2.76-11.79-3.8-16.56.87-10,22.39-92,22.76-121,.18-13.84-.76-32.89-.76-32.89l16.7-95.82c6.45,23.92,18.15,68.55,22,91.35,4.66,27.86,20.5,109,30.46,145.85,3.73,13.85,5.56,20,6.66,29.11,0,0,.31,3.23.31,3.27.23,4.12,2,48.15,3.66,57.44,3.41,19.4,20.65,16.95,23.41,1.26,2.35-13.35-.59-54.68-.65-59.75Z" transform="translate(-78.53 -1)"/><path class="cls-48" d="M748.68,976.94c4.87.08,1.67,18.91,2.92,31,1.35,13,5.61,22.47,6.82,33.11,1.4,12.17.31,17.26-4,27.26-3.39,7.78-20.44,18.44-26.91,7.32s-7.87-23.83-7.13-35.94c.77-12.52,1.52-21.68,1.78-31.2.22-8.39-6.24-28.11.06-29.31l.31,3.27c2.27,4.52,23.86,7.65,26.42-1.05Z" transform="translate(-78.53 -1)"/><path class="cls-49" d="M629.21,989.4c1.48,6.07-.06,22.7-.06,22.7s-2.62,5.74-12,9.56L613,998.52Z" transform="translate(-78.53 -1)"/><polygon points="538.63 1020.66 517.99 1013.88 513.02 995.57 536.21 1007.31 538.63 1020.66"/><path class="cls-48" d="M595.7,968.22l-.11-4.33c-2.8,1.36-9,23.94-17.31,39.42-7.62,14.14-22.71,22-27.61,28.17-6.56,8.23,6.18,18.84,26.64,14.47,10.15-2.17,25.52-8.66,29.69-15.51s5.58-19.44,9-24.47,11.51-10.84,13.23-16.57a31.21,31.21,0,0,0-.05-15.83c-1.6-5.21-3-11.52-4.78-11l-.12,4c-1.37,2.79-6.31,6-16.64,6.6C602.71,973.45,598,972.69,595.7,968.22Z" transform="translate(-78.53 -1)"/><path class="cls-50" d="M609.56,582.19s-12.68,91.29-14.94,160.23.4,228.72.4,228.72-2.71,4.64,13,5.35,17.65-5.35,17.65-5.35,22.19-100.81,23.69-122.79,0-35.77,0-35.77l14-92s16.73,87.23,18.74,98.18S723.57,989.5,723.57,989.5s.63,3.67,15.3,0c12.24-3.06,12.24-6.12,12.24-6.12s1.65-117.38-1.24-139.55-10.17-39.17-11.19-53.67-.42-92.16-2.09-123.56c-1.87-35.26-2.7-43-18.46-86.41Z" transform="translate(-78.53 -1)"/><path class="cls-51" d="M608.83,576.68s-12.69,91.29-15,160.23.41,234.84.41,234.84-.37,5.42,15.3,6.12,15.93-7.58,15.93-7.58,21.56-105.47,23.06-127.45,0-35.77,0-35.77l14-92s16.74,87.23,18.75,98.18,41.51,173.79,41.51,173.79-2.13,5.8,12.86,3.8,16.16-4.4,16.16-4.4.17-126-2.72-148.13S739,799.15,738,784.65s-.43-92.16-2.09-123.56c-1.87-35.26-2.71-43-18.46-86.41Z" transform="translate(-78.53 -1)"/><path class="cls-52" d="M663.31,717.53l-11.64-57.62s-20.3-5.3-29.76-17.7c0,0,2.63,13.75,23.5,22.54l12.38,57.41-4.21,59.31Z" transform="translate(-78.53 -1)"/><path class="cls-47" d="M465.32,371.82c10.77-14.8,16-12,20.33,3.28a175.86,175.86,0,0,0,8.36,22,58.9,58.9,0,0,1,4-12.46c2.19-4.41,6.48-5,8.13-4.31,1.28.57-.37,5.28-.07,10.95.37,7.24,1.62,12.16.11,19.78-.56,2.84.21,10.11,1.67,12.68C516.06,438.3,545.5,479,545.5,479c5.77-3.41,24.21-13.59,48.9-25.79,21.25-10.49,23.4-12.06,38.14-12.69l.79,41.24C609.28,492.06,590,502,551,516.54c-12.18,4.54-22.06,5.36-28.35-4.13-6-9.09-24.86-40.72-38.12-64.38-7.45-13.31-14-27.08-17.61-34.2C454.3,389.1,461.46,377.12,465.32,371.82Z" transform="translate(-78.53 -1)"/><path class="cls-53" d="M680.71,440.06S714,444.31,714,444.32c-5.38,32,6.14,60.1,6.14,60.1l-10.94,49.8c.39,5.79,10.72,20.83,18.42,44.71-17.52,23.46-93.54,28.55-121.57,8,2.19-26.77,4.54-40.69,5.4-49.07l-.57-32.08c-35.13-28.83,6.1-71.29,21.71-85.25h14.62Z" transform="translate(-78.53 -1)"/><path class="cls-47" d="M903.09,485.13a4.22,4.22,0,0,0-3.52-2.41,13.09,13.09,0,0,0-4.43.48,135.22,135.22,0,0,1-26.52,3.08c-2.38,0-5.17-.21-6.41-2.23-1.5-2.44.33-5.46,1.47-8.09a16.54,16.54,0,0,0,1-9.45c-.35-1.88-2.1-5.53-4.45-2.73A73.44,73.44,0,0,1,849,475.25c-7.41,6.29-9.82,11.5-17,17.57-2.69,2.27-36.76,25.93-58.61,36.9-26.14-42.34-39-83.91-59.44-85.4-10.81,10.44-10.19,46.11,1.06,63.2,12.09,18.35,27.41,40.78,37.49,52.36,7.75,8.9,18.68,14.4,33.27,4.64,18.81-12.6,36.14-27,44.16-33.2,5.19-4,11-9.31,17.05-11.94a29.63,29.63,0,0,1,9.77-2.85q5.84-.46,11.66-.77a80.73,80.73,0,0,0,17.5-2.86c2.72-.75,5.51-1.72,7.49-3.73a15.25,15.25,0,0,0,3.08-5.3c.67-1.69,1.86-3,2.56-4.72,1-2.38,1.06-5.29-.45-7.37a12.23,12.23,0,0,0,3.54-2.57A4.17,4.17,0,0,0,903.09,485.13Z" transform="translate(-78.53 -1)"/><path class="cls-54" d="M684.12,430.49c.14-5.37,18.08-20.22,27-33.78,8.3-12.56,18-45.12-7.81-59.78.66-21-10.29-27.41-26.7-33.15-13-4.55-39.54-4-58.88,5.9-7.16,3.66-11.71,8.19-15.06,14.9-2.72,5.47-1.57,10.6-.32,14.9,1.06,3.67.16,3.91-1.93,6.81A10.55,10.55,0,0,0,598.4,354c.8,5.89,6.43,7.34,7.1,10.27a2.89,2.89,0,0,1-5,2.56s.62,5,7,4.71,12-9,12-9Z" transform="translate(-78.53 -1)"/><path class="cls-47" d="M626.37,335.18c-8.14,3.53-15.87,16-15.76,50.78.1,29.51,9.15,37,13.72,39.16s13.49,1.08,22.16-.25l0,17s-8.83,13.1-4.58,24.3c36.27-6.34,42-25.26,42-25.26l.64-38.7a12.31,12.31,0,0,0,13.77-.73c7.74-5.72,9.85-17.23,4.41-23.2s-12.43-6.46-18.74.22c0,0-13.2,1.81-30.59-9.11C635.58,358.17,628.12,346.5,626.37,335.18Z" transform="translate(-78.53 -1)"/><path class="cls-49" d="M625.6,375.94a3.92,3.92,0,1,1-4.06-3.94A4,4,0,0,1,625.6,375.94Z" transform="translate(-78.53 -1)"/><path class="cls-49" d="M656.82,377.69a4.21,4.21,0,1,1-4.36-4.22A4.28,4.28,0,0,1,656.82,377.69Z" transform="translate(-78.53 -1)"/><path class="cls-55" d="M651.8,400.75l-14.17,4.4a7.22,7.22,0,0,0,9.06,5.43A8.11,8.11,0,0,0,651.8,400.75Z" transform="translate(-78.53 -1)"/><path class="cls-56" d="M643.81,410.84a7,7,0,0,1,7-7A7.48,7.48,0,0,1,652,404a7.86,7.86,0,0,1-5.3,6.58A6.63,6.63,0,0,1,643.81,410.84Z" transform="translate(-78.53 -1)"/><path class="cls-49" d="M615.23,368.66l10.09-4a5.21,5.21,0,0,0-7-3.09A5.62,5.62,0,0,0,615.23,368.66Z" transform="translate(-78.53 -1)"/><path class="cls-49" d="M683.92,373.65l-.1,16.39a7.69,7.69,0,0,1-7.89-7.93A8.48,8.48,0,0,1,683.92,373.65Z" transform="translate(-78.53 -1)"/><polygon class="cls-56" points="560.24 372.71 557.08 396.67 546.41 391.49 560.24 372.71"/><path class="cls-56" d="M646.49,424.87c9.14-1.07,28-6.31,31-14,0,0-1.06,4.83-6.76,9.72s-24.3,10-24.3,10Z" transform="translate(-78.53 -1)"/></g><path class="cls-57" d="M297.09,1216.57c-4.58-10-13.11-23.2-24.65-28.84a20.79,20.79,0,0,0-6.44-2,20.57,20.57,0,0,0-3.3,11.74l.57,28L300.54,1247l.2-10.48C300.86,1230.37,299.64,1222.15,297.09,1216.57Z" transform="translate(-78.53 -1)"/><path class="cls-58" d="M351.38,1379.42l-.07-96.77a10.92,10.92,0,0,0-5.45-9.43l-14.72-8.53-.16,6.57-.07,0-15,7.45-15.81-10.28.42-21.4-37.27-21.58.11,5.53h0l-15,7.41-17-9.48.17-17.82a6.26,6.26,0,0,0-1.28,1l-24,14.64.11.08a6.52,6.52,0,0,1,7.06-.33L321,1288.72a10.93,10.93,0,0,1,5.44,9.44l.07,96.76a10.78,10.78,0,0,1-5.77,9.62v.11l25-15.67A10.82,10.82,0,0,0,351.38,1379.42Z" transform="translate(-78.53 -1)"/><path class="cls-18" d="M326.51,1394.92l-.07-96.76a10.93,10.93,0,0,0-5.44-9.44l-107.6-62.29a6.68,6.68,0,0,0-9.94,5.7l-.59,100.65a10.92,10.92,0,0,0,5.23,9.38l101.82,62.09a10.93,10.93,0,0,0,16.59-9.33Z" transform="translate(-78.53 -1)"/><path class="cls-59" d="M266,1185.71a14.75,14.75,0,0,0-12.68,4.49,20,20,0,0,0-5.67,14.65l.68,33.48,15-7.41h0l-.11-5.53-.57-28A20.57,20.57,0,0,1,266,1185.71Z" transform="translate(-78.53 -1)"/><path class="cls-59" d="M266.4,1166.48c24.84,3.59,43.85,28.39,49.75,55.54a41,41,0,0,1,.87,9.57l-1.09,47.07,15-7.45.07,0,.16-6.57.93-40.5a41.14,41.14,0,0,0-.87-9.58c-5.9-27.15-24.91-51.94-49.75-55.54a28.22,28.22,0,0,0-16.64,2.57,97.49,97.49,0,0,0-18.34,9.21A28.62,28.62,0,0,1,266.4,1166.48Z" transform="translate(-78.53 -1)"/><path class="cls-18" d="M231.33,1228.85l17,9.48-.68-33.48a20,20,0,0,1,5.67-14.65,14.75,14.75,0,0,1,12.68-4.49,20.79,20.79,0,0,1,6.44,2c11.54,5.64,20.07,18.79,24.65,28.84,2.55,5.58,3.77,13.8,3.65,19.93l-.2,10.48-.42,21.4,15.81,10.28,1.09-47.07a41,41,0,0,0-.87-9.57c-5.9-27.15-24.91-52-49.75-55.54a28.62,28.62,0,0,0-19.93,4.37,36.54,36.54,0,0,0-5.05,3.87,30.42,30.42,0,0,0-9.79,22.24L231.5,1211Z" transform="translate(-78.53 -1)"/><path class="cls-48" d="M255.11,1306.86s-10.47-8.25-6.35-17.45,17.45-5.4,23.16,3.49,5.71,20.93-3.81,20.62v41.24l-13.32-7.93Z" transform="translate(-78.53 -1)"/></g></g></svg>