<svg id="Layer_1" data-name="Layer 1" xmlns="http://www.w3.org/2000/svg" viewBox="0 0 898.48 831.28"><defs><style>.cls-1{font-size:46.96px;}.cls-1,.cls-2{font-family:BravAda-Arma, BravAda Arma;}.cls-2{font-size:121.19px;}</style></defs><title>The-Wolf-Pack_</title><text class="cls-1" transform="translate(93.1 492.11) rotate(85.2)"> </text><text class="cls-1" transform="matrix(0.15, 0.99, -0.99, 0.15, 95.58, 516.38)"> </text><text class="cls-1" transform="translate(99.79 541.46) rotate(76)">R</text><text class="cls-1" transform="translate(110.01 578.98) rotate(69.67)">E</text><text class="cls-1" transform="translate(123.92 614.29) rotate(63.36)">S</text><text class="cls-1" transform="matrix(0.54, 0.84, -0.84, 0.54, 142.11, 648.72)">P</text><text class="cls-1" transform="matrix(0.63, 0.77, -0.77, 0.63, 163.94, 680.82)">E</text><text class="cls-1" transform="matrix(0.71, 0.7, -0.7, 0.71, 188.49, 709.61)">C</text><text class="cls-1" transform="matrix(0.78, 0.62, -0.62, 0.78, 216.06, 735.67)">T</text><text class="cls-1" transform="translate(245.63 757.99) rotate(33.29)"> </text><text class="cls-1" transform="translate(266.25 771) rotate(29.3)"> </text><text class="cls-1" transform="translate(287.77 782.57) rotate(25.3)"> </text><text class="cls-1" transform="matrix(0.93, 0.36, -0.36, 0.93, 310.01, 792.59)"> </text><text class="cls-1" transform="translate(333.83 801.51) rotate(16.06)">R</text><text class="cls-1" transform="translate(371.4 811.46) rotate(9.75)">E</text><text class="cls-1" transform="matrix(1, 0.06, -0.06, 1, 408.89, 817.12)">P</text><text class="cls-1" transform="translate(447.74 818.68) rotate(-2.79)">R</text><text class="cls-1" transform="translate(486.47 815.97) rotate(-9.05)">E</text><text class="cls-1" transform="translate(523.82 809.24) rotate(-15.36)">S</text><text class="cls-1" transform="matrix(0.93, -0.37, 0.37, 0.93, 561.09, 798.14)">E</text><text class="cls-1" transform="translate(596.05 783.39) rotate(-28)">N</text><text class="cls-1" transform="matrix(0.83, -0.56, 0.56, 0.83, 629.96, 764.43)">T</text><text class="cls-1" transform="matrix(0.77, -0.63, 0.63, 0.77, 660.05, 742.87)"> </text><text class="cls-1" transform="translate(678.64 727.05) rotate(-43.35)"> </text><text class="cls-1" transform="matrix(0.68, -0.74, 0.74, 0.68, 696.08, 709.98)"> </text><text class="cls-1" transform="matrix(0.63, -0.78, 0.78, 0.63, 712.29, 691.77)"> </text><text class="cls-1" transform="matrix(0.55, -0.83, 0.83, 0.55, 727.88, 671.78)">R</text><text class="cls-1" transform="translate(748.73 638.87) rotate(-62.82)">O</text><text class="cls-1" transform="matrix(0.35, -0.94, 0.94, 0.35, 765.83, 603.8)">A</text><text class="cls-1" transform="translate(779.12 566.19) rotate(-75.81)">R</text><path d="M535.09,537.61c-2.71-9.52-8-13.72-17.19-13.22h0c-.79-.09-1.49-.12-2.09-.13a24.09,24.09,0,0,0-7,1l-.14,0a32.38,32.38,0,0,0-4.29.86c-4.58,1.66-9,1-13.68,0a88.16,88.16,0,0,0-15.55-1.75c-6.3-.2-10.69,3.06-13.21,8.85A35.34,35.34,0,0,0,472,575.06c8.07,6.64,17.38,8.77,27.67,8.7C522.45,583.6,542.09,562.15,535.09,537.61Zm-51.2,33.76c-3.93-.06-6.41-1.47-7.18-5.25-1.07-5.23-3.88-9-8-12.13-3-2.3-2.78-4.21.43-6.18a3.07,3.07,0,0,1,2.78-.06c6.36,5.2,11.74,11.26,15,18.89C488.29,569.75,487,571.42,483.89,571.37ZM496.76,534h0v0Zm30.61,19.34c-.79.74-1.62,1.43-2.46,2.11a15.24,15.24,0,0,0-5.64,8.81c-1.1,5.06-3.58,7.14-7.86,7.13-2.82,0-3.84-1.12-3.25-3.89a9.38,9.38,0,0,1,1.61-3.87c4.21-5.22,8.46-10.4,12.91-15.41,1.73-1.94,2.88-1.56,5,.62C529.21,550.51,528.89,552,527.37,553.37Z" transform="translate(-52.12 -45.4)"/><path d="M283.7,287.9c7.17,1.38,14.43,2.41,21.5,4.2,24.67,6.25,49.45,12.16,73.84,19.37,16.87,5,32.72,3.41,49.44-.85,21.85-5.57,44.24-9,66.43-13.27,2.46-.47,5.1-.07,7.65-.07l.92,1.6c-1.77,1.92-3.32,4.13-5.35,5.71-10.27,8-22.33,11.4-34.87,13.88-14.84,2.94-29.4,6.91-42.64,14.63a60.68,60.68,0,0,0-20.85,19.55c-9.39,14.51-16.6,16.56-32.42,9.91-.87-.37-1.71-.8-2.59-1.12q-22.1-7.94-44.2-15.83a6.34,6.34,0,0,1-3.41-2.29H380l.3-1.93-64.08-14.52L354.09,324l.17-1.9c-5.71-.83-11.43-2.32-17.15-2.37-21.23-.18-40.08-6.31-55.92-20.79-.22-.2-.7-.12-2-.3.74,2.89,1.09,5.57,2.11,8,4.05,9.55,8.16,19.07,12.52,28.47,5.08,11,9,21.95,5.76,34.37-1.13,4.29,2.23,6.92,5.76,7.87,10,2.67,20.1,4.84,30.18,7.15,5.13,1.18,10.33,2.08,15.42,3.42,1.48.39,3.86,2,3.76,2.77-.21,1.55-1.55,3.71-2.94,4.22-11.26,4.17-22.58,8.23-34,11.82-4,1.26-8.53,1.11-14.52,1.8,10.27,8.27,19.45,15.68,30.76,20.91-6.91,0-13.83.07-20.74,0s-14-.85-20.93-.43-14.06,1.93-21.68,2.34c4-2.62,8.14-5.09,12-7.92,1.73-1.27,4-3.11,4.24-4.93,1.78-13.38,6.07-24.93,21.47-30.67-6.66-2.23-11.75-3.89-16.8-5.64-4.6-1.59-7.05-5-7.5-9.73-2.17-22.84-8.08-44.84-14.87-66.65-3.95-12.69-3.93-12.69,7.77-17.85Z" transform="translate(-52.12 -45.4)"/><path d="M716.89,287.9c.14.12.26.32.42.37,10.26,2.71,11.8,3.85,7.59,16.81-7,21.72-12.85,43.76-15,66.6-.57,6.05-4,9.53-9.57,11.28-4.4,1.38-8.81,2.73-15,4.65,12.75,4.86,18.1,13.7,20.57,24.68.37,1.64.06,3.57.8,5a19.31,19.31,0,0,0,4.63,6.1c3.6,2.84,7.64,5.13,11.2,8.37-21.07-6.08-42.38-.82-62-2.41L689.87,410l-.69-1.65c-4.37-.52-8.94-.43-13.09-1.68-11-3.3-21.81-7-32.56-11-1.89-.7-3.08-3.35-4.59-5.09,1.85-1.14,3.57-2.88,5.57-3.3,10.69-2.27,21.48-4.05,32.17-6.33a78.16,78.16,0,0,0,12.87-4.15c3.38-1.38,5.71-4,4.64-8-3.07-11.54.51-21.93,5.06-32.28,5-11.38,9.73-22.88,14.53-34.35a6.31,6.31,0,0,0,.2-3.36c-19.2,22.38-47.81,26.36-72.82,38,13,5.49,26.49,4.53,38.75,6-19.58,7.26-40,14.95-60.47,22.33-7.36,2.64-14.26,1.33-19.52-4.93-9.2-11-18.4-22-27.36-33.12-3.87-4.83-2.73-7.89,3.29-9.34,3.63-.87,7.48-.76,11.19-1.31,8.16-1.2,16.43-2,24.41-3.93,29.82-7.32,59.54-15.07,89.31-22.6,3.43-.86,7-1.32,10.46-2Z" transform="translate(-52.12 -45.4)"/><path d="M408,546.61l0,0,0,.06A0,0,0,0,0,408,546.61Zm-3.16-5.9.39-.11-1-2.33C404.46,539.07,404.65,539.88,404.83,540.71ZM379,557.61v0h0Z" transform="translate(-52.12 -45.4)"/><path d="M490.42,791.58c-11.26-1.56-21.6-5.21-30.17-13-14.28-13-20-29.89-21.25-48.51-1.48-22.22-2.43-44.47-3.71-66.7-.84-14.52-1.6-29.17-7.87-42.59-8.53-18.29-13.06-37.69-17.35-57.23-1.23-5.58-2.62-11.12-4-16.67-.51-2-1-4.05-1.5-6.08l.25-.07c-.18-.83-.37-1.64-.57-2.44l1,2.33c.85,2.06,1.7,4.11,2.54,6.17l20,17.5-2.76-14c-1.53-14.93,4.74-28.37,8.85-42.15-11.3.39-22.26-1.07-31.13-9.76-9.26-9.06-12.29-9.39-24-3.63-1.69.83-3.3,1.85-5,2.64-13.18,6-26.26,12.3-39.63,17.86-4.36,1.82-9.5,1.77-14.28,2.58l-.43-1.63a274.58,274.58,0,0,0,55.21-35.62l-72.22,17.23-.58-1.65,56.17-24.82-.18-1H308.13c18.81-6.92,39.18-6.77,56.8-13.91l1.38-10.63c5.18,3.27,9,6.85,13.45,8.15s9.52.28,14.5.28c-.17,2.78-.3,4.28-.35,5.77-.48,15,13.38,29.39,27.6,25.65,10.18-2.69,14.24,2.17,19.63,7.58a7.94,7.94,0,0,0,1.52.88c5.88-4.21,9.4-9.66,10-15.39-7.35-4.61-14.55-8.08-20.43-13.09a78,78,0,0,0-24.06-14.47c-4.25-1.55-8.47-3.19-12.7-4.82l-44.1-16.95,5.3,5.62L299,439.07l.12,1.42,34.21,6.19.06,1.55c-27.31,3.58-54.95,5.73-82,16.49l26.44,13.5-.48,1.41-26.63,3.85,19.74,4.87-.06,1.46-19.42,6.62,19.23,7,0,1.38-22.25,4.8,22.54,9.89-20.2,6.86,18.87,9.91-12,6.33a68.38,68.38,0,0,0,24.41,25.69c18.18,11.09,37.36,20.55,55.37,31.88,10.21,6.42,17.86,7.69,27.27-1.42,7.27-7,17.88-8.2,27.78-9.9-4.45,3.93-9.25,7.14-13.88,10.58-14.14,10.5-15,16.08-4.86,30.4,1.42,2,2.78,4,4.21,6,1.87,2.63,3.77,5.24,5.66,7.85l-1,1.08-26.34-9.5a50.74,50.74,0,0,0,9.46,9.21c11.76,8.53,23.77,16.73,35.45,25.36a14.73,14.73,0,0,1,4.89,7c3.9,12.4,7,25.06,11.1,37.4,7.42,22.46,16.09,44.4,31.36,63,9.36,11.39,20.94,19,36,20.15,5.73.45,11.37.11,16.28-3.74A51.64,51.64,0,0,0,490.42,791.58Zm-73.06-332.7c1.12,3.09,1.35,6.33,2.75,6.95,1.73.78,4.43-.6,7.8-1.25,4.1,2.33,4.46,4.81,0,8.86-3.86,3.53-8.4,4.1-13.07,2.05s-6.74-5.83-6.67-10.78C408.3,457.44,411,456,417.36,458.88ZM379,557.59v0h0ZM399,541V541h0Zm9,5.61,0-.06,0,0h0Z" transform="translate(-52.12 -45.4)"/><path d="M423,571.61q3.56,4.38,7.12,8.75c5.28,6.5,11.55,11,20.2,12.42,5.11.83,9.8,4,14.88,5.2a137.69,137.69,0,0,0,20.94,3.43,144.63,144.63,0,0,0,22.61,0,148.44,148.44,0,0,0,21.5-3.6c4.17-1,8-4.07,12.13-4.49,12.82-1.29,20.47-9.56,27.61-18.84a5.2,5.2,0,0,1,3.21-2.3c-2.7,9.57-5.58,19.09-8.07,28.71-4.19,16.2-8.83,32.32-11.91,48.73-1.72,9.15-.86,18.82-.86,28.25,0,19.31-.79,38.55-5.77,57.31-3.69,13.87-9.65,26.6-24.05,32.38-16.8,6.75-33.91,6.58-50.71-.28-9.24-3.77-14.93-11.25-19-20.08-5.74-12.55-7.93-26-8.87-39.53s-1.4-27.18-1.16-40.75c.33-19.35-3.39-37.83-9.42-56.07C429.14,598,425.54,585,421.66,572Zm74.69,89.31-.77-.12c0-1.87,0-3.74,0-5.61-.43-12.73-1.68-14.16-14.43-16.6-9.92-1.9-17.56,1.84-20.49,11.48a98.53,98.53,0,0,0-4.28,23.8c-.58,12.59,4.83,20.69,17.18,22.07a209.74,209.74,0,0,0,45.5,0c11.59-1.26,17.16-8.41,17-19.88-.18-9.41-2.35-19-5.28-28.06-2.63-8.12-10.12-11.08-18.92-9.51-2.77.5-5.44,1.5-8.18,2.19-4.12,1.05-6.43,3.1-6.2,7.89C498.94,652.65,498.07,656.8,497.68,660.92Zm57.17-64.28c-9-2.07-15,2.45-22.05,5.78-16.91,8-35.08,11.73-53.8,5.83-6.59-2.08-13.6-3.8-19.27-7.46a27.71,27.71,0,0,0-14.58-4.92c-3.84-.15-5.69,1.17-5.12,5.21,1.27,9.12,1.43,18.57,4,27.3,2.83,9.47,7.91,18.27,12,27.37l2.53-.57c-1-14-1.77-27.9,2.87-41.34,2.91,2.68,5.09,6.14,7.93,6.81,1.91.45,4.76-3,7.32-4.84,10.2,9.71,12.55,9.83,20.79.6,3.68,1.75,3.95,9.3,10.26,6.34a118.92,118.92,0,0,0,10.48-6c3.16,1.57,6.11,4.3,8.17,3.75,2.85-.77,5-4,8.82-7.34.85,14.41,1.66,28,2.51,42.4C551,637.67,555.51,618.07,554.85,596.64ZM517.3,747.57c-3.8-1.8-6.86-.52-10.91,1.17-5.12,2.14-11.83,1-17.77.44-3.52-.33-6.89-2.28-10.47-3.56.17-.71.7-3.06,1.24-5.4,1.74-.59,3.92-1.89,3.81-3-.33-3.36-.59-7.45-2.6-9.76-2.8-3.23-7.26-2.93-11.6-1l3.06,5.67c-10.94-5-14.25-14.69-17.39-24.81C449,715.17,450.85,741,457.5,748c3.05,3.24,6.62,5,10.84,3.89a55.26,55.26,0,0,0,9.23,4.4,12.16,12.16,0,0,1,3.16,1.84c4.23,3.62,8.74,3.35,13.7,1.65a10.07,10.07,0,0,1,6.44.14c4.82,1.94,10.41,1.19,14-2.41.64-.63,1.73-1.39,2.45-1.25,4.48.88,7.38-.8,8.59-5,8,1.27,13.34-1.41,14.93-9.5,1.79-9.12,1.82-18.6,2.33-27.94.11-2-1.05-4-1.62-6l-1.4,0c-2.65,10-6.11,19.35-16.89,24.17l2.68-5.45c-7.71-2.33-13.28-.43-14.17,5.06-.55,3.43-2.27,8.33,3.85,8.77C516.16,742.56,516.65,744.73,517.3,747.57Z" transform="translate(-52.12 -45.4)"/><path d="M552,438.44c19.26-21,40.7-38.17,68.58-45.13l1.7,1.53-21.94,33.88.42,1.33L624.94,423c.24.63.47,1.25.7,1.87l-37.13,14.83c-.36-.52-.72-1-1.07-1.57l11.64-19-1.23-1.36c-4.82,3.34-10.26,6.05-14.33,10.14-8,8-15.19,16.75-22.69,25.22-3.38,3.81-6.41,8-10.07,11.48-6.92,6.61-12.83,6.35-19.75-.33-.92-.9-1.87-1.77-2.79-2.63-10.08,8.52-26.58,36.91-25.19,44.13,10.32-3.6,16.42-12.32,25.52-19.83L513,508c4.84,1.58,4.84,1.58,18.26-5.9-6.86,11.5-11.22,12.95-24,10.46a50.17,50.17,0,0,0-18.88-.09c-13.31,2.65-17,1.55-24.14-9.73l16.68,7.46,1.32-1.93-14.9-21.5c6.59,5.78,12,10.65,17.59,15.36a11,11,0,0,0,4.87,2.66c.92.16,2.3-1.45,3.2-2.49.28-.32-.2-1.44-.51-2.12-6.34-14.21-15.5-26.57-24.63-38.72-1.07.34-1.55.35-1.75.58-9.73,11.64-17.34,8.11-25.61-1.43s-15.85-19.23-24.17-28.49c-5.36-6-11.81-10.75-20.21-13q5.81,9.47,11.65,19c-10.68-.6-31-8.83-40.2-16.07,8.23,2.45,16.86,5,25.51,7.54.43.13,1-.27,1.92-.53l-22-34,1.63-1.61c28,6.88,49.52,24.13,68.87,45.09l-16.26-3.86c7.8,9.2,15.23,16.32,24.79,20.74,7.22,3.35,10.8.57,10.36-7.35-.55-10-5.2-18.4-10.47-26.53-3.38-5.22-6.85-10.37-9.35-16.54,9.86,8.72,20.18,17,29.43,26.32,7.08,7.13,6.68,11,1.83,19.7a5.41,5.41,0,0,0-.26,4.5c4.14,7,8.45,13.85,13,20.53,1,1.44,3.31,2,5,2.9.79-1.61,2.08-3.16,2.29-4.84,1.34-11,2.45-22.09,3.78-34.48.92,10.55,1.48,19.84,2.65,29.06.44,3.49,2.3,6.81,3.51,10.21,2.55-2.22,5.62-4.07,7.55-6.75a163.18,163.18,0,0,0,10.09-16.38,5.76,5.76,0,0,0-.21-4.88c-4.51-7.53-4.7-12.28,1.34-18.87,5.46-5.95,11.73-11.18,17.82-16.53a126.82,126.82,0,0,1,13.71-10.36c-3.62,5.42-7.32,10.78-10.82,16.27-5.31,8.31-10.19,16.85-10.47,27.09-.21,7.75,3.16,10.15,10.24,6.95,9.62-4.34,16.91-11.6,23.24-20.45Z" transform="translate(-52.12 -45.4)"/><path d="M443.75,380.56c13.4,8.26,26.88,16.4,40.13,24.88,3,1.9,5.25,3.23,8.49.81s6.85-2.86,10.28-.08c3.07,2.49,5.45,1.31,8.49-.66,12.79-8.26,25.84-16.14,38.79-24.15l.92,1.41c-5.21,3.67-10.63,7.09-15.58,11.08-8.07,6.52-16.3,13-23.55,20.32-4.41,4.48-7.25,4-11,.13a27.89,27.89,0,0,0-2.93-2.37c-9.47,6.54-9.15,6.16-18.42-1.77-11.66-10-23.91-19.3-35.91-28.91Z" transform="translate(-52.12 -45.4)"/><path d="M408,546.61v0l0-.06,0,0Z" transform="translate(-52.12 -45.4)"/><path d="M379,557.59v0h0Z" transform="translate(-52.12 -45.4)"/><path d="M379,557.6h0v0h0Z" transform="translate(-52.12 -45.4)"/><path d="M399,541h0v0Z" transform="translate(-52.12 -45.4)"/><path d="M404.83,540.71q.66,2.94,1.25,6.15c-.51-2-1-4.05-1.5-6.08Z" transform="translate(-52.12 -45.4)"/><path d="M408,546.61v0l0-.06,0,0Z" transform="translate(-52.12 -45.4)"/><path d="M724.89,520l.27-1.37,20.78-8.92-22.25-4.87c0-.46,0-.92,0-1.37l19.09-7-19.49-6.71c0-.48.09-1,.13-1.43l19.69-4.85-26.72-3.89c0-.51-.08-1-.11-1.54,8.39-4.29,16.79-8.56,26.17-13.35-27.3-10.62-54.86-13-82.19-16.42,0-.52.05-1,.07-1.56l34.28-6.22c0-.49,0-1,0-1.48L637,435l5.17-5.58C621.72,437.28,601.32,445,581.06,453a51.29,51.29,0,0,0-13.21,7.49c-8.19,6.66-15.76,14.11-26.73,16.42.64,7.76,4.23,13.08,11.68,18.12,2-2.64,4.25-5.24,6.15-8,2.34-3.44,4.84-3.15,8.66-2.21a28.51,28.51,0,0,0,14.3.05c12.56-3.73,17.82-13.07,18-30.5,10,1.11,19.41-.24,26.45-9.05l1.31,1.15c.32,3.19.64,6.39,1.09,10.83l56.7,11.61c-.11.66-.21,1.32-.32,2H634.77l56.68,25c-.2.59-.39,1.18-.59,1.77l-70.1-16.71c-.3.61-.59,1.22-.89,1.82L674,517.32l-.44,1.52c-9.25-2.79-18.8-4.86-27.67-8.58-10.58-4.44-20.55-10.36-30.84-15.52-11.87-5.95-14.55-5.6-24,3.59-6.75,6.57-15,9.17-24.08,9.74-2.52.15-5.05,0-6.58,0l1,3.7v0c.33,2.93,2.11,8.59,3.36,14.46a82.47,82.47,0,0,1,2,21.5,62.4,62.4,0,0,1-3,16l25.68-28.59-4.9,30.92c-2,6.93-5.13,18.14-6.91,25.14a123.88,123.88,0,0,1-4.27,13c-1.57,4.3-3.38,8.63-6.71,16.41A93.37,93.37,0,0,0,559.69,649c-2.21,26.32-3.21,52.74-4.77,79.11-1.09,18.34-6.44,35.15-18.23,49.6-2.75,3.38-5.2,7-7.79,10.53L530,789.4c2.52-1.49,5.55-2.5,7.46-4.55,6-6.46,12.42-12.78,17.17-20.13,13.46-20.8,22.43-43.9,27.58-67.85,4.07-18.94,13.33-31.57,30-40.7,9.76-5.36,18.16-13.19,27.18-19.92l-.75-1.11L610.19,645.3c5.59-8.52,10.51-15.41,14.75-22.69,4.41-7.58,3.36-12.84-3.47-18.43-5.54-4.53-11.5-8.56-17.33-12.73a15.67,15.67,0,0,0-3.42-1.37c.54-.57,1.07-1.15,1.6-1.72,13.19,2.7,25.69,7,35.79,16.48,2.79,2.62,5.12,2.76,8.44.73,5.14-3.14,10.79-5.43,16-8.46,17.77-10.29,35.73-20.32,53.05-31.34a60.44,60.44,0,0,0,21.08-23.09l-11.93-6.45,18.75-9.82Zm-139.73-53.3a17.24,17.24,0,0,1-7.28,9c-4.13,2.32-8.85,1-12.4-2.67-4-4.1-3.82-5.76.53-8.77,3.08.88,5.65,2.48,7.32,1.82,1.43-.57,1.83-3.72,2.69-5.73l-1-1.27c2.58-.57,6.82-2.34,7.44-1.49C584.22,460.1,586,464.09,585.16,466.66Z" transform="translate(-52.12 -45.4)"/><path d="M302.45,742c-9.3-7.51-17.7-17.54-26.38-26.86-1.73-1.87-.23-.31-9.16-10.82-17.14-20.16-17.69-20.41-19.74-24-4.2-7.29-4.52-10.8-10.25-20.09a61.64,61.64,0,0,1-3.85-6.83,96.67,96.67,0,0,1-4.7-12.39,44,44,0,0,0-1.71-5.13c-1-2.34-2.87-6.17-3.42-6-.87.3,1.4,11,5.37,21.47,1.86,4.9,2.31,5.08,8.14,17.24,8.22,17.16,8,18.3,11.7,23.67,1.52,2.21,4.86,6.18,11.54,14.1,4.57,5.43,7.39,8.77,11.11,12.82,7.11,7.75,8.12,7.87,15.38,15.39,0,0,19.88,20.56,29,24.78a2.9,2.9,0,0,0,2.13.35c.55-.17,1.31-.06,1.37-1.17a2.44,2.44,0,0,0-1.24-2.19C312.39,752.46,307.7,746.22,302.45,742Z" transform="translate(-52.12 -45.4)"/><path d="M274.82,270.89c.61.07,1.48-1.38,1.69-2.39,1.22-5.67,5.41-6.58,8.6-9.28,7.24-6.14,13.58-14.05,21.2-19.31,17.86-12.33,35.92-24.46,56.54-29.83,4.5-1.17,8-7,13.89-2.39,1.21.95,3.23-1.35,2.8-3.66a13.19,13.19,0,0,1,.16-6.54q5.31-.84,10.63-1.63c-3.38.14-6.75.29-10.11.5,1.16-2.19,3.26-3.52,6-4.36-2.49-2.38-4.17-2.06-5.84-1a81.89,81.89,0,0,1-11.82,6.42,121.38,121.38,0,0,0-12.78,2.2c-.37,0-.73,0-1.12-.05a3.35,3.35,0,0,0-2.82,1.05,79.48,79.48,0,0,0-11.83,4.3c-3.76,0-7,1.08-8.75,4.8-1.8,1.15-3.58,2.38-5.33,3.75,1.56-.82,3.14-1.53,4.72-2.28a17,17,0,0,0-.58,2.56,9.18,9.18,0,0,1-6.75,7.89c-3,.79-4.93,3.06-7.39,4.34-5,2.62-9.42,6.76-14.6,8.58A53.17,53.17,0,0,0,278.71,250c-2.46,2.82-6.71,2.81-7.69,7.1-2,8.87-7.45,13.63-12.37,19a8.85,8.85,0,0,0-2.33,5.67C263.16,279.79,266.69,270,274.82,270.89Z" transform="translate(-52.12 -45.4)"/><path d="M622.9,797.7c.45,1.51,1.74.67,2.47.48,11.43-3,22-8,32.42-13.45,5.93-3.13,11.11-7.41,16.63-11.16,11-7.42,20.81-16,31.09-26.15-1.91.51-2.68.53-3.22.89-8.11,5.5-15,12.64-23.25,17.91-2.21,1.41-4.74,2.47-6.6,4.24C658.92,783.3,642.38,790.4,625,796,624.13,796.22,622.29,795.71,622.9,797.7Z" transform="translate(-52.12 -45.4)"/><path d="M498.15,167.88c-7,2.07-14.06,3.9-22.11,6.11,4.24-.47,8,1.4,10.84-.36,4.51-2.75,5.59-.71,6.3,3.18.18,1,.07,2.59,1.85,2.07,3.7-1.08,7.76-1.45,10.5-4.66.56-.65,1.63-.95,1.13-2.37C505.73,169.2,500.94,167.05,498.15,167.88Z" transform="translate(-52.12 -45.4)"/><path d="M384.57,797.15c8,4.16,15.75,8.68,24.79,11.48-5.13-2.06-9.75-4.64-14.59-7C391.56,800,388.48,797.69,384.57,797.15Z" transform="translate(-52.12 -45.4)"/><path d="M369.47,788.77c-4.25-2.62-9.13-4.56-13.79-6.75C360.23,784.33,364.25,787.22,369.47,788.77Z" transform="translate(-52.12 -45.4)"/><path d="M406.35,810.11c4.79,1.25,9.78,3.21,14.44,3.88-6.42-2.36-12.81-4.32-19.22-6.57a281.31,281.31,0,0,1-32.09-13.66c-6-3-11.29-6.21-16.87-9.36s-10.5-6.23-15.26-9.49c-2.65-1.82-4.71-3.74-8.38-3.68-.57,0-1.75-.46-1.81,0s.83.85,1.49,1.28c4.68,3,8.93,6.26,15,8.62a13.53,13.53,0,0,1,2.7,1.57c5.72,4.09,12.58,7.55,19.38,11.05,6.08,3.12,12.3,6.31,18.71,8.84A195.09,195.09,0,0,0,406.35,810.11Z" transform="translate(-52.12 -45.4)"/><path d="M417.88,790.78c4.18,1.57,8.23,3.64,12.87,3.24C426.84,791.44,422,792.61,417.88,790.78Z" transform="translate(-52.12 -45.4)"/><path d="M424.57,785.57a1.15,1.15,0,0,0-.09,1,2.46,2.46,0,0,0,2.24,1.57c.8,0,1.44-.92,2.24-.63l.51,1c.13-.44.5-1,.35-1.32-.51-1.12-1.81-1.31-2.76-1.47C426.3,785.57,425.38,784.53,424.57,785.57Z" transform="translate(-52.12 -45.4)"/><path d="M679.73,240.39c-.93,1.17-12.78-9.47-38.9-24.59-13.81-8-25.43-14.72-42.07-21-10-3.74-21.47-6.88-44.52-13.17-16.73-4.56-26.88-7-26.71-7.89.22-1.19,17.26,1.11,18.38,1.26A278.86,278.86,0,0,1,593.4,185.9c21,6.72,31.5,10.08,44,17.16C663.63,218,680.93,238.89,679.73,240.39Z" transform="translate(-52.12 -45.4)"/><path d="M723.75,698.19c-.61.49-1.2,1-1.81,1.43-4.48,3.33-5.43,10.34-12.08,11.5-.83.15-.26,1.21.44,1.74,1.59,1.21.73,2-.64,2.19-2.58.25-4.24,2.22-5.86,3.6-7.82,6.7-12.35,16.5-20.93,22.6-.76.54-1.13,3-.58,3.71,1.06,1.34,2.9.7,4.25-.15,5.56-3.5,10.24-7.79,11.86-14.49.54-2.21,1.09-3.94,3.78-4.47,8.33-1.65,11.62-9.67,17.53-14.41,2.45-2,3.89-5.32,5.45-8.23C726.08,701.5,726.15,699.48,723.75,698.19Z" transform="translate(-52.12 -45.4)"/><path d="M688.36,710.11c-4.7,3.9-8.47,8.56-12.93,12.29,9.18-4.47,17.94-9.47,25.28-18.67,2.58-1.48,3.26-4.15,2.37-7.83-3.56,1.05-1.52,5.64-3.24,7.82a30.44,30.44,0,0,0-6.24,2.7c-.07-.88-6.6,3.58-5.6,3.58" transform="translate(-52.12 -45.4)"/><path d="M676.47,732.29c-4.25,3.54-7.67,7.76-11.7,11.14,8.31-4,16.24-8.58,22.89-16.91,2.34-1.35,3-3.77,2.15-7.09-3.23,1-1.38,5.1-2.94,7.08a27.07,27.07,0,0,0-5.65,2.45c-.06-.81-4.5,4.8-4.88,3.53" transform="translate(-52.12 -45.4)"/><path d="M474.51,186.46c-5.51-3.67-11.64,4.35-26.51,6.31-3.48.46-4,.08-20.34,1.43l-3.45.28c-5.77,3.83-12.56,8.63-11.94,9.82s7-1.32,9.13-2.07c9.44-3.39,25.73-7.87,55.75-12.55A7.69,7.69,0,0,0,474.51,186.46Z" transform="translate(-52.12 -45.4)"/><path d="M434.4,181.81h0a38.06,38.06,0,0,0,8.79-1.53,36.8,36.8,0,0,0,4.32-1.6,6.13,6.13,0,0,0-3.26.14,77.17,77.17,0,0,1-10.56,2l.39.54Z" transform="translate(-52.12 -45.4)"/><path d="M442,186.33l-1,.71a136.06,136.06,0,0,0,17.86-2.13c.51-.1,9.36-1.78,9.27-2.44,0-.25-1.34-.28-2.12-.31a16.84,16.84,0,0,0-4.25.39c-2.25.54-9.8,1.51-21.58,2.83" transform="translate(-52.12 -45.4)"/><path d="M235.29,334.69c-.76,1.9-1.39,3.88-2.28,5.68-10.84,22-17.16,45.64-16.91,71.63a83,83,0,0,1-.89,10.05A37.48,37.48,0,0,1,214,428.2c-2.48-34.48,2.34-66.56,20.11-94.36Z" transform="translate(-52.12 -45.4)"/><path d="M232.93,359.82c-1.89,6.1-4.12,12.06-5.54,18.35-.84,3.68-.4,7.89-.55,12.36-5-14.86,2-35.19,12.32-48.44q-1.84,6.6-3.71,13.19Z" transform="translate(-52.12 -45.4)"/><path d="M690.61,241.05c3.82,4,7.57,8.12,12.12,11.38,5,3.57,10.14,6.9,15.25,10.45-5.27-5.55-9.33-12.14-16.23-16.16-3.39-2-7.42-3.45-9.79-7-.47-.71-.28-2.52-1.84-1.5S689.84,240.24,690.61,241.05Z" transform="translate(-52.12 -45.4)"/><path d="M662.88,246a190.62,190.62,0,0,0,25.76,13.53C680.63,254.81,674.86,246.18,662.88,246Z" transform="translate(-52.12 -45.4)"/><path d="M723.15,297.78c-.45-2-2.85-3-5.67-2.85a28.36,28.36,0,0,1,2.66,3.82C721.82,301.19,723.59,299.69,723.15,297.78Z" transform="translate(-52.12 -45.4)"/><path d="M636.82,243.72c-2.7-1.61-4.2-3.4-6.73-2.77-.19.05-.42.84-.28,1.07C631.21,244.4,633.45,244.28,636.82,243.72Z" transform="translate(-52.12 -45.4)"/><path d="M746,706l21.86-23.87a13.19,13.19,0,0,1,2.46-6.62l2.42,1.3,1.39-1.52,8.27-25.19-1.25-.65c1.84-4,3.44-7.47,5.09-11l16.25-49.51h0l4.91-15v0c3.08-16.59,6.22-31.72,8.5-47,2.64-17.61,1.32-34.16,1.61-51.88a276.23,276.23,0,0,0-2.18-35.71c-6-50.87-30.93-94.31-53.52-138.67-.74-1.44-4.17-1.51-8.59-2.94,3.42,7.73,6.07,13.16,8.26,18.77,10.51,26.93,28.3,52.55,35.91,80.29a322.36,322.36,0,0,1,11.18,64.85c1,15.67-2.19,36,0,51.43,5.14,36.31-9.81,69.19-22,102.82-10.1,27.9-20.11,56.18-40.43,79.12-1.93,2.17-2,9.63-.24,10.87Z" transform="translate(-52.12 -45.4)"/><text class="cls-2" transform="matrix(0.21, -0.98, 0.98, 0.21, 118.69, 412.52)">T</text><text class="cls-2" transform="translate(137.13 335.56) rotate(-64.33)">H</text><text class="cls-2" transform="translate(173.44 265.21) rotate(-50.63)">E</text><text class="cls-2" transform="matrix(0.77, -0.64, 0.64, 0.77, 226.6, 205.73)"> </text><text class="cls-2" transform="matrix(0.9, -0.44, 0.44, 0.9, 264.17, 173.63)">W</text><text class="cls-2" transform="translate(357.35 132.12) rotate(-10.31)">O</text><text class="cls-2" transform="translate(437.75 119.95) rotate(3.49)">L</text><text class="cls-2" transform="matrix(0.95, 0.3, -0.3, 0.95, 516.59, 126.96)">F</text><text class="cls-2" transform="translate(592.12 154.06) rotate(28.64)"> </text><text class="cls-2" transform="translate(635.74 178.28) rotate(40.08)">P</text><text class="cls-2" transform="matrix(0.6, 0.8, -0.8, 0.6, 691.05, 226.18)">A</text><text class="cls-2" transform="translate(739.3 294.09) rotate(66.96)">C</text><text class="cls-2" transform="matrix(0.16, 0.99, -0.99, 0.16, 768.2, 367.8)">K</text></svg>