<svg width="109" height="98" viewBox="0 0 109 98" fill="none" xmlns="http://www.w3.org/2000/svg">
<rect x="3.50476" y="2.12128" width="102.857" height="59.4902" rx="15" fill="#8586EE"/>
<rect x="3.50476" y="58.2756" width="102.857" height="16.1235" rx="8.06176" fill="#6364CC"/>
<rect x="39.0878" y="76.623" width="30.0231" height="21.1274" rx="10" fill="#4944B8"/>
<path d="M97.1773 0.453308H12.1332C5.84256 0.453308 0.724854 5.57122 0.724854 11.8617V58.5322V65.7921C0.724854 72.0826 5.84256 77.2005 12.1332 77.2005H39.6797L36.3609 93.7944H25.6158C24.4702 93.7944 23.5416 94.723 23.5416 95.8686C23.5416 97.0142 24.4702 97.9429 25.6158 97.9429H83.6947C84.8403 97.9429 85.7689 97.0142 85.7689 95.8686C85.7689 94.723 84.8403 93.7944 83.6947 93.7944H72.9497L69.6309 77.2005H97.1773C103.468 77.2005 108.586 72.0828 108.586 65.7921V58.5322V11.8617C108.586 5.57122 103.468 0.453308 97.1773 0.453308ZM40.5914 93.7944L43.9103 77.2005H65.4003L68.7191 93.7944H40.5914ZM104.437 65.7921C104.437 69.7952 101.181 73.0521 97.1773 73.0521H12.1332C8.13017 73.0521 4.87328 69.7954 4.87328 65.7921V60.6066H104.437V65.7921H104.437ZM104.437 56.4582H4.87328V52.3097H17.3188C18.4644 52.3097 19.393 51.3811 19.393 50.2355C19.393 49.0899 18.4644 48.1613 17.3188 48.1613H4.87328V11.8617C4.87328 7.85863 8.12996 4.60174 12.1332 4.60174H97.1773C101.18 4.60174 104.437 7.85842 104.437 11.8617V56.4582Z" fill="black"/>
<path d="M54.6553 61.7505C52.3679 61.7505 50.5068 63.6115 50.5068 65.8989C50.5068 68.1863 52.3679 70.0473 54.6553 70.0473C56.9427 70.0473 58.8037 68.1863 58.8037 65.8989C58.8037 63.6115 56.9427 61.7505 54.6553 61.7505Z" fill="#302C8C"/>
<path d="M25.5743 48.9005C25.5495 48.7678 25.508 48.6372 25.4562 48.5106C25.4043 48.3861 25.3401 48.2658 25.2653 48.1537C25.1907 48.0395 25.1035 47.9338 25.0081 47.8383C24.9126 47.7429 24.8069 47.6559 24.6927 47.5811C24.5806 47.5065 24.4603 47.4421 24.3339 47.3903C24.2094 47.3384 24.0788 47.2969 23.9461 47.2721C23.6786 47.2181 23.4047 47.2181 23.1371 47.2721C23.0044 47.2969 22.8738 47.3384 22.7493 47.3903C22.6227 47.4421 22.5024 47.5063 22.3905 47.5811C22.2764 47.6557 22.1706 47.7429 22.0752 47.8383C21.9797 47.9338 21.8927 48.0395 21.818 48.1537C21.7434 48.2658 21.6789 48.3861 21.6271 48.5106C21.5753 48.6372 21.5338 48.7678 21.5089 48.9005C21.4819 49.0332 21.4674 49.1702 21.4674 49.305C21.4674 49.4398 21.4819 49.5768 21.5089 49.7095C21.5338 49.8422 21.5753 49.9728 21.6271 50.0973C21.6789 50.2239 21.7432 50.3442 21.818 50.4561C21.8925 50.5703 21.9797 50.676 22.0752 50.7714C22.1706 50.8669 22.2764 50.9539 22.3905 51.0287C22.5026 51.1032 22.6229 51.1677 22.7493 51.2195C22.8738 51.2714 23.0044 51.3129 23.1371 51.3398C23.2699 51.3668 23.4068 51.3792 23.5416 51.3792C23.6764 51.3792 23.8134 51.3668 23.9461 51.3398C24.0788 51.3129 24.2094 51.2714 24.3339 51.2195C24.4605 51.1677 24.5808 51.1035 24.6927 51.0287C24.8069 50.9541 24.9126 50.8669 25.0081 50.7714C25.1035 50.676 25.1905 50.5703 25.2653 50.4561C25.3399 50.344 25.4043 50.2237 25.4562 50.0973C25.508 49.9728 25.5495 49.8422 25.5743 49.7095C25.6013 49.5768 25.6158 49.4398 25.6158 49.305C25.6158 49.1702 25.6013 49.0332 25.5743 48.9005Z" fill="#302C8C"/>
<path d="M54.6553 28.8085L42.9796 35.7289V41.9035L54.6553 48.8239L66.3309 41.9035V35.7289L54.6553 28.8085Z" fill="#AAABFF"/>
<path d="M66.3309 42.3597V36.5922L54.6553 43.0564V48.8239L66.3309 42.3597Z" fill="#7373E0"/>
<path d="M42.9796 42.3597V36.5922L54.6553 43.0564V48.8239L42.9796 42.3597Z" fill="#8586EE"/>
<path d="M54.6553 18.8007L42.9796 25.3367V31.1682L54.6553 37.7042L66.3309 31.1682V25.3367L54.6553 18.8007Z" fill="#AAABFF"/>
<path d="M66.3309 31.2401V25.4726L54.6553 31.9367V37.7042L66.3309 31.2401Z" fill="#7373E0"/>
<path d="M42.9796 31.2401V25.4726L54.6553 31.9367V37.7042L42.9796 31.2401Z" fill="#8586EE"/>
<path d="M54.6553 7.68109L42.9796 14.6018V20.7761L54.6553 27.6965L66.3309 20.7761V14.6018L54.6553 7.68109Z" fill="#AAABFF"/>
<path d="M66.3309 20.6447V14.3529L54.6553 21.405V27.6965L66.3309 20.6447Z" fill="#7373E0"/>
<path d="M42.9796 20.6447V14.3529L54.6553 21.405V27.6965L42.9796 20.6447Z" fill="#8586EE"/>
<path d="M74.6707 16.0209C74.6707 17.249 73.5505 18.2448 72.1688 18.2448C70.7871 18.2448 69.6669 17.249 69.6669 16.0209C69.6669 14.7927 70.7871 13.7969 72.1688 13.7969C73.5505 13.7969 74.6707 14.7927 74.6707 16.0209Z" fill="#7373E0"/>
<path d="M39.0878 31.5884C39.0878 32.8165 38.092 33.8123 36.8638 33.8123C35.6357 33.8123 34.6399 32.8165 34.6399 31.5884C34.6399 30.3602 35.6357 29.3644 36.8638 29.3644C38.092 29.3644 39.0878 30.3602 39.0878 31.5884Z" fill="#7373E0"/>
<path d="M66.4791 13.9063L55.0629 7.23562C54.8107 7.08829 54.4998 7.08829 54.2475 7.23562L42.8313 13.9063C42.579 14.0539 42.4236 14.3263 42.4236 14.621V20.5728C42.4236 20.8674 42.579 21.1401 42.8313 21.2875L45.6331 22.9245L42.8313 24.5622C42.579 24.7095 42.4236 24.9819 42.4236 25.2766V31.2283C42.4236 31.523 42.579 31.7957 42.8313 31.9431L45.6331 33.5801L42.8313 35.2175C42.579 35.3648 42.4236 35.6375 42.4236 35.9322V41.8839C42.4236 42.1786 42.579 42.4513 42.8313 42.5986L54.2475 49.2693C54.3736 49.3431 54.5144 49.3799 54.6552 49.3799C54.796 49.3799 54.9368 49.3431 55.0629 49.2693L66.4791 42.5986C66.7314 42.4513 66.8869 42.1786 66.8869 41.8839V35.9322C66.8869 35.6375 66.7314 35.3648 66.4791 35.2175L63.677 33.5804L66.4791 31.9431C66.7314 31.7957 66.8869 31.523 66.8869 31.2283V25.2766C66.8869 24.9819 66.7314 24.7095 66.4791 24.5622L63.6773 22.9248L66.4791 21.2875C66.7314 21.1401 66.8869 20.8677 66.8869 20.5728V14.6213C66.8869 14.3263 66.7314 14.0539 66.4791 13.9063ZM54.6552 8.90328L64.4405 14.6213L54.6552 20.339L44.8699 14.6213L54.6552 8.90328ZM44.0545 16.0504L53.8398 21.7685V25.814L44.0545 20.0963V16.0504ZM44.0545 26.706L53.8398 32.424V36.4696L44.0545 30.7519V26.706ZM44.0545 37.3616L53.8398 43.0793V47.1252L44.0545 41.4075V37.3616ZM55.4707 47.1252V43.0796L65.256 37.3616V41.4075L55.4707 47.1252ZM64.4405 35.9322L54.6552 41.6499L44.8699 35.9322L47.264 34.533L54.2475 38.6137C54.3736 38.6875 54.5144 38.7243 54.6552 38.7243C54.796 38.7243 54.9368 38.6875 55.0629 38.6137L62.0461 34.5334L64.4405 35.9322ZM55.4707 36.4696V32.424L65.256 26.7063V30.7519L55.4707 36.4696ZM64.4405 25.2766L54.6552 30.9946L44.8699 25.2766L47.264 23.8778L54.2475 27.9581C54.3736 28.032 54.5144 28.0687 54.6552 28.0687C54.796 28.0687 54.9368 28.032 55.0629 27.9581L62.0464 23.8778L64.4405 25.2766ZM55.4707 25.8143V21.7685L65.256 16.0507V20.0963L55.4707 25.8143Z" fill="black"/>
<path d="M71.8908 28.8085C71.5985 28.8085 71.3113 28.8971 71.1046 29.0528C70.8978 29.2079 70.7788 29.4222 70.7788 29.6424C70.7788 29.8617 70.8978 30.077 71.1046 30.2321C71.3113 30.3872 71.5985 30.4764 71.8908 30.4764C72.1831 30.4764 72.4702 30.3872 72.677 30.2321C72.8837 30.077 73.0027 29.8617 73.0027 29.6424C73.0027 29.4222 72.8837 29.2072 72.677 29.0528C72.4702 28.8971 72.1831 28.8085 71.8908 28.8085Z" fill="white"/>
<path d="M75.2267 16.1157C75.2267 14.5307 73.8551 13.2409 72.1687 13.2409C70.4828 13.2409 69.1108 14.5307 69.1108 16.1157C69.1108 17.4068 70.0208 18.5016 71.2694 18.8636V26.295C71.2694 26.762 71.672 27.1405 72.1687 27.1405C72.6655 27.1405 73.0681 26.762 73.0681 26.295V18.8636C74.3167 18.5016 75.2267 17.4068 75.2267 16.1157ZM72.1687 17.2994C71.4745 17.2994 70.9096 16.7686 70.9096 16.1157C70.9096 15.463 71.4745 14.932 72.1687 14.932C72.863 14.932 73.4279 15.463 73.4279 16.1157C73.4279 16.7686 72.863 17.2994 72.1687 17.2994Z" fill="white"/>
<path d="M37.4198 44.376C36.8056 44.376 36.3079 44.7684 36.3079 45.2519V48.5039C36.3079 48.9877 36.8056 49.3798 37.4198 49.3798C38.034 49.3798 38.5318 48.9877 38.5318 48.5039V45.2519C38.5318 44.7681 38.034 44.376 37.4198 44.376Z" fill="white"/>
<path d="M36.8638 28.8085C35.3311 28.8085 34.0839 30.1382 34.0839 31.7724C34.0839 33.1035 34.9111 34.2324 36.0462 34.6052V41.8363C36.0462 42.3178 36.4122 42.7081 36.8638 42.7081C37.3154 42.7081 37.6814 42.3178 37.6814 41.8363V34.6052C38.8165 34.232 39.6437 33.1035 39.6437 31.7724C39.6437 30.1382 38.3968 28.8085 36.8638 28.8085ZM36.8638 32.9929C36.2327 32.9929 35.7191 32.4456 35.7191 31.7724C35.7191 31.0995 36.2327 30.552 36.8638 30.552C37.4949 30.552 38.0085 31.0995 38.0085 31.7724C38.0085 32.4456 37.4949 32.9929 36.8638 32.9929Z" fill="white"/>
</svg>
