<svg width="119" height="118" viewBox="0 0 119 118" fill="none" xmlns="http://www.w3.org/2000/svg">
<path d="M74.9551 100.972V93.4937H43.9473V100.972C44.076 108.729 39.6658 116.189 39.6658 116.189H79.2364C79.2364 116.189 74.8264 108.729 74.9551 100.972Z" fill="#5959BA"/>
<path d="M43.9468 93.4927H74.9555V98.1009H43.9468V93.4927Z" fill="#7373E0"/>
<path d="M113.838 93.4939H5.06378C3.51964 93.4939 2.2677 92.2422 2.2677 90.6978V23.826C2.2677 22.2818 3.51941 21.0299 5.06378 21.0299H113.838C115.382 21.0299 116.634 22.2816 116.634 23.826V90.6978C116.634 92.242 115.383 93.4939 113.838 93.4939Z" fill="#5959BA"/>
<path d="M116.634 23.8262V90.6982C116.634 92.2419 115.383 93.4932 113.837 93.4932H109.231C110.775 93.4932 112.026 92.2419 112.026 90.6982V23.8262C112.026 22.2825 110.775 21.0289 109.231 21.0289H113.837C115.383 21.0289 116.634 22.2825 116.634 23.8262Z" fill="#7373E0"/>
<path d="M116.634 80.1432V90.6985C116.634 92.2421 115.383 93.4934 113.837 93.4934H5.06493C3.51895 93.4934 2.2677 92.2421 2.2677 90.6985V80.1432H116.634Z" fill="#7373E0"/>
<path d="M116.634 80.1442V90.6994C116.634 92.2431 115.383 93.4943 113.837 93.4943H109.231C110.775 93.4943 112.026 92.2431 112.026 90.6994V80.1442H116.634Z" fill="#302C8C"/>
<path d="M11.1687 80.1433V31.819C11.1687 30.4018 12.2629 29.253 13.6127 29.253H105.289C106.639 29.253 107.733 30.4018 107.733 31.819V80.1433H11.1687Z" fill="#8686F6"/>
<path d="M107.733 31.8193V80.1433H103.125V31.8193C103.125 30.4023 102.031 29.2526 100.681 29.2526H105.289C106.639 29.2523 107.733 30.4023 107.733 31.8193Z" fill="#7373E0"/>
<path d="M97.2014 80.1441H21.7007V3.60488C21.7007 2.56824 22.5411 1.72778 23.5778 1.72778H95.3243C96.3609 1.72778 97.2014 2.56824 97.2014 3.60488V80.1441Z" fill="white"/>
<path d="M97.2016 3.6038V80.1439H92.5934V3.6038C92.5934 2.56693 91.7524 1.72601 90.7156 1.72601H95.3238C96.3607 1.72601 97.2016 2.56716 97.2016 3.6038Z" fill="#CCD1D9"/>
<path d="M50.321 14.0683C48.0978 14.0683 46.2956 15.8706 46.2956 18.0937V33.8653C46.2956 34.4412 46.2956 35.5133 44.1864 36.5755C43.6024 36.8696 42.9591 37.0126 42.2199 37.0126C42.2174 37.0126 42.2149 37.0126 42.2123 37.0126C41.4267 37.0116 40.7504 36.823 40.1448 36.436C38.5346 35.4074 38.4038 34.6708 38.4038 33.8821V18.0937C38.4038 15.8706 36.6015 14.0683 34.3784 14.0683C32.1552 14.0683 30.3529 15.8706 30.3529 18.0937V33.8819C30.3529 37.7648 32.1892 40.907 35.8106 43.2204C37.7195 44.4401 39.8699 45.0602 42.202 45.0634H42.2202C44.2184 45.0634 46.0987 44.6269 47.8082 43.7659C52.025 41.6424 54.3472 38.1263 54.3472 33.8653V18.0937C54.3465 15.8706 52.5442 14.0683 50.321 14.0683Z" fill="#8586EE"/>
<path d="M87.7308 38.7651L80.125 28.7434L86.4501 20.3551C87.7886 18.58 87.4347 16.0559 85.6596 14.7174C83.8838 13.3782 81.3601 13.7328 80.0219 15.5079L75.0673 22.0787L70.0729 15.498C68.7289 13.7273 66.2036 13.381 64.4326 14.725C62.6617 16.069 62.3156 18.5943 63.6597 20.3653L70.0301 28.7593L62.7837 38.3692C61.4452 40.1443 61.7991 42.6685 63.5745 44.007C64.3002 44.5543 65.1511 44.8187 65.995 44.8187C67.2151 44.8187 68.421 44.266 69.2122 43.2165L75.088 35.424L81.3176 43.6324C82.1094 44.6757 83.3112 45.2244 84.5272 45.2244C85.3752 45.2244 86.2302 44.9575 86.9578 44.4053C88.7288 43.0613 89.0749 40.536 87.7308 38.7651Z" fill="#8586EE"/>
<path d="M54.3452 18.0931V33.8647C54.3452 38.1273 52.0249 41.6434 47.8062 43.7655C46.0989 44.6272 44.2188 45.0628 42.2187 45.0628H42.2003C41.4653 45.0605 40.7487 45.0007 40.0529 44.8786C41.2371 44.6735 42.3661 44.3025 43.4283 43.7658C47.6471 41.6437 49.9673 38.1276 49.9673 33.865V18.0931C49.9673 16.6761 49.2369 15.432 48.1309 14.7154C48.76 14.3053 49.5111 14.0679 50.3198 14.0679C52.5434 14.0679 54.3452 15.8697 54.3452 18.0931Z" fill="#6C6CDC"/>
<path d="M86.9576 44.4052C86.2295 44.9583 85.3747 45.2254 84.5267 45.2254C83.7572 45.2254 82.9922 45.0041 82.3355 44.5756C82.4184 44.5226 82.499 44.465 82.5798 44.4052C84.3517 43.0618 84.6973 40.5365 83.354 38.7647L76.3763 29.5719C76.0047 29.0821 76.0035 28.4052 76.3736 27.9142L82.0728 20.3547C83.4115 18.5806 83.0567 16.0553 81.2825 14.7165C81.2042 14.659 81.1259 14.6037 81.0451 14.553C82.423 13.6589 84.2709 13.6681 85.6603 14.7165C87.4344 16.0553 87.7893 18.5806 86.4505 20.3547L80.1257 28.7441L87.7315 38.7647C89.0751 40.5365 88.7294 43.0618 86.9576 44.4052Z" fill="#6C6CDC"/>
<path d="M55.9949 85.0913C55.0412 85.0913 54.2679 85.8645 54.2679 86.8183C54.2679 87.772 55.0412 88.5452 55.9949 88.5452H62.9074C63.8611 88.5452 64.6344 87.772 64.6344 86.8183C64.6344 85.8645 63.8611 85.0913 62.9074 85.0913H55.9949Z" fill="black"/>
<path d="M113.839 19.3029H98.9286V3.60407C98.9286 1.61667 97.3117 0 95.3243 0H23.5778C21.5904 0 19.9738 1.61667 19.9738 3.60407V19.3029H5.06381C2.56984 19.3029 0.540771 21.332 0.540771 23.8259V90.6978C0.540771 93.1917 2.56984 95.2208 5.06381 95.2208H42.2203V100.973C42.2203 100.982 42.2203 100.992 42.2205 101.001C42.3154 106.712 39.7137 112.371 38.6367 114.462H33.1521C32.1984 114.462 31.4252 115.235 31.4252 116.189C31.4252 117.143 32.1984 117.916 33.1521 117.916H85.75C86.7038 117.916 87.477 117.143 87.477 116.189C87.477 115.235 86.7038 114.462 85.75 114.462H80.2638C79.1859 112.376 76.5865 106.733 76.6816 101.001C76.6816 100.992 76.6818 100.982 76.6818 100.973V95.2208H90.1144C91.0682 95.2208 91.8414 94.4476 91.8414 93.4939C91.8414 92.5401 91.0682 91.7669 90.1144 91.7669H5.06381C4.47434 91.7669 3.99471 91.2872 3.99471 90.6978V81.8704H114.907V90.6978C114.907 91.2872 114.428 91.7669 113.838 91.7669H98.1734C97.2196 91.7669 96.4464 92.5401 96.4464 93.4939C96.4464 94.4476 97.2196 95.2208 98.1734 95.2208H113.838C116.332 95.2208 118.361 93.1917 118.361 90.6978V23.8257C118.361 21.3317 116.333 19.3029 113.839 19.3029ZM45.6743 100.958V95.2206H73.2281V100.958C73.1427 106.33 75.0539 111.483 76.4198 114.462H42.4826C43.8485 111.483 45.7597 106.33 45.6743 100.958ZM9.44179 31.819V78.4163H3.99494V23.8257C3.99494 23.2362 4.47457 22.7566 5.06404 22.7566H19.974V27.5258H13.613C11.3129 27.526 9.44179 29.4517 9.44179 31.819ZM95.4747 78.4163H23.4277V64.9844C23.4277 64.0306 22.6545 63.2574 21.7007 63.2574C20.747 63.2574 19.9738 64.0306 19.9738 64.9844V78.4163H12.8957V31.819C12.8957 31.3564 13.2174 30.9799 13.6128 30.9799H19.9738V56.9252C19.9738 57.879 20.747 58.6522 21.7007 58.6522C22.6545 58.6522 23.4277 57.879 23.4277 56.9252V3.60407C23.4277 3.52117 23.4949 3.45393 23.5778 3.45393H95.3243C95.4072 3.45393 95.4744 3.52117 95.4744 3.60407L95.4747 78.4163ZM106.006 78.4163H98.9284V30.9799H105.289C105.685 30.9799 106.006 31.3564 106.006 31.819V78.4163ZM114.907 78.4163H109.46V31.819C109.46 29.4519 107.589 27.526 105.289 27.526H98.9284V22.7568H113.838C114.428 22.7568 114.907 23.2365 114.907 23.8259V78.4163Z" fill="black"/>
<path d="M34.8802 44.675C37.0709 46.0746 39.5334 46.7859 42.2194 46.7895C44.49 46.7895 46.6314 46.2908 48.584 45.3076C53.4136 42.8755 56.0733 38.8116 56.0733 33.8645V18.0929C56.0733 14.921 53.4928 12.3405 50.3209 12.3405C47.149 12.3405 44.5683 14.921 44.5683 18.0929V33.8645C44.5683 34.1382 44.5683 34.4486 43.4096 35.0321C43.0674 35.2043 42.6893 35.2845 42.2143 35.2845C41.7547 35.284 41.4033 35.1898 41.0743 34.9796C40.1302 34.3766 40.1302 34.19 40.1302 33.881V18.0929C40.1302 14.921 37.5496 12.3405 34.3778 12.3405C31.2059 12.3405 28.6254 14.921 28.6254 18.0929V33.881C28.6254 38.3283 30.7882 42.0609 34.8802 44.675ZM32.0793 18.0929C32.0793 16.8255 33.1104 15.7944 34.3778 15.7944C35.6451 15.7944 36.6763 16.8255 36.6763 18.0929V33.881C36.6763 35.5769 37.4117 36.7384 39.2144 37.8901C40.0929 38.4515 41.1005 38.7368 42.2194 38.7384C43.2348 38.7384 44.1322 38.5351 44.9627 38.1169C47.7049 36.7358 48.022 35.0284 48.022 33.8645V18.0929C48.022 16.8255 49.0531 15.7944 50.3205 15.7944C51.5878 15.7944 52.6189 16.8255 52.6189 18.0929V33.8645C52.6189 37.4913 50.6863 40.3816 47.0302 42.2227C45.5637 42.9614 43.9452 43.3356 42.2032 43.3356C40.2055 43.3328 38.3671 42.8042 36.7393 41.7643C33.6034 39.7608 32.0791 37.1823 32.0791 33.881L32.0793 18.0929Z" fill="black"/>
<path d="M89.1062 37.7209L82.2902 28.7399L87.8285 21.395C88.7537 20.1682 89.1456 18.6545 88.9321 17.1327C88.7187 15.6111 87.9254 14.2636 86.6988 13.3386C85.4718 12.4132 83.9573 12.0215 82.436 12.2347C80.9144 12.4482 79.5671 13.2417 78.6422 14.4683L75.0621 19.2163L71.4479 14.4538C69.53 11.9276 65.9144 11.432 63.388 13.3492C60.8615 15.2668 60.3658 18.8824 62.2834 21.4091L67.8641 28.7625L61.4043 37.3296C60.4791 38.5565 60.0872 40.07 60.3006 41.5918C60.5141 43.1136 61.3073 44.4611 62.5339 45.3858C63.54 46.1445 64.7364 46.5457 65.9943 46.5457C67.8182 46.5457 69.4936 45.7112 70.5904 44.2564L75.0918 38.2866L79.9413 44.6766C81.0387 46.1224 82.71 46.9516 84.5265 46.9516C85.7907 46.9516 86.9922 46.547 88.0012 45.7812C89.2253 44.8523 90.0144 43.5023 90.223 41.98C90.4318 40.4575 90.0353 38.9449 89.1062 37.7209ZM85.9136 43.0296C85.5104 43.3356 85.0308 43.4975 84.527 43.4975C83.8 43.4975 83.1316 43.1661 82.6929 42.5881L76.4634 34.3798C76.1369 33.9494 75.6278 33.6968 75.0878 33.6968C75.0869 33.6968 75.086 33.6968 75.0851 33.6968C74.544 33.6977 74.0346 33.9519 73.7088 34.3839L67.833 42.1764C67.3948 42.7579 66.7247 43.0913 65.9948 43.0913C65.4935 43.0913 65.0162 42.931 64.6139 42.6275C64.1237 42.258 63.8068 41.7196 63.7216 41.1117C63.6364 40.5036 63.793 39.8987 64.1626 39.4087L71.4089 29.7987C71.8743 29.1816 71.8729 28.3305 71.4057 27.7148L65.035 19.3213C64.269 18.3116 64.467 16.8667 65.4765 16.1006C66.4862 15.3343 67.9311 15.5326 68.6971 16.542L73.6913 23.1229C74.0178 23.5533 74.5267 23.8059 75.0669 23.8059H75.0697C75.6108 23.8052 76.1201 23.5508 76.4459 23.1188L81.4007 16.5478C81.7703 16.0576 82.3086 15.7407 82.9165 15.6553C83.5247 15.5699 84.1293 15.7267 84.6198 16.0967C85.11 16.4663 85.4269 17.0046 85.5121 17.6125C85.5972 18.2206 85.4407 18.8255 85.0709 19.3155L78.746 27.7038C78.2807 28.3209 78.282 29.1719 78.7492 29.7876L86.355 39.8093C87.1211 40.8188 86.9231 42.2635 85.9136 43.0296Z" fill="black"/>
<path d="M88.5497 52.218H30.3523C29.3986 52.218 28.6254 52.9912 28.6254 53.9449C28.6254 54.8987 29.3986 55.6719 30.3523 55.6719H88.5497C89.5035 55.6719 90.2767 54.8987 90.2767 53.9449C90.2767 52.9912 89.5037 52.218 88.5497 52.218Z" fill="black"/>
<path d="M88.5497 59.2278H30.3523C29.3986 59.2278 28.6254 60.0011 28.6254 60.9548C28.6254 61.9086 29.3986 62.6818 30.3523 62.6818H88.5497C89.5035 62.6818 90.2767 61.9086 90.2767 60.9548C90.2767 60.0011 89.5037 59.2278 88.5497 59.2278Z" fill="black"/>
<path d="M88.5497 66.2377H30.3523C29.3986 66.2377 28.6254 67.0109 28.6254 67.9646C28.6254 68.9184 29.3986 69.6916 30.3523 69.6916H88.5497C89.5035 69.6916 90.2767 68.9184 90.2767 67.9646C90.2767 67.0109 89.5037 66.2377 88.5497 66.2377Z" fill="black"/>
</svg>
