<svg id="Layer_1" data-name="Layer 1" xmlns="http://www.w3.org/2000/svg" viewBox="0 0 1995.22 1904.14"><defs><style>.cls-1{fill:#f5f5f5;}.cls-2{fill:#e0e0e0;}.cls-21,.cls-3,.cls-31{fill:#7373e0;}.cls-31,.cls-4{opacity:0.1;}.cls-10,.cls-13,.cls-19,.cls-22,.cls-23,.cls-29,.cls-5{fill:#fff;}.cls-6{fill:#302c8c;}.cls-29,.cls-7{opacity:0.5;}.cls-8{opacity:0.15;}.cls-9{fill:#1d1a56;}.cls-10,.cls-12{opacity:0.6;}.cls-11{fill:#e6e6e6;}.cls-13{opacity:0.8;}.cls-14,.cls-22{opacity:0.3;}.cls-15{fill:#b16668;}.cls-16{fill:#9a4a4d;}.cls-17,.cls-21,.cls-23,.cls-26{opacity:0.4;}.cls-18{fill:#00014a;}.cls-19{opacity:0.45;}.cls-20{opacity:0.2;}.cls-24{fill:#ffa8a7;}.cls-25{fill:#f28f8f;}.cls-27{isolation:isolate;}.cls-28{fill:#f0eeea;}.cls-30{fill:#fafafa;}.cls-32{fill:none;stroke:#281f6f;stroke-miterlimit:10;stroke-width:0.95px;}.cls-33{opacity:0.25;}</style></defs><title>web</title><ellipse id="Floor" class="cls-1" cx="979.04" cy="1311.41" rx="979.04" ry="592.73"/><ellipse id="Shadow" class="cls-2" cx="260.37" cy="1680.24" rx="169.3" ry="97.74"/><ellipse id="Shadow-2" data-name="Shadow" class="cls-2" cx="1757.76" cy="1113.47" rx="162.8" ry="93.99"/><g id="Plants"><path class="cls-3" d="M1849.48,1117.22c10.16-14,39.3-28.27,76.74-33.72s75.17-12.85,68.15-34.83c-7.58-23.72-41.79-27.18-76.28-15.72-37.69,12.52-67.33,47.88-69.44,71.23Z" transform="translate(0 -34.69)"/><g class="cls-4"><path d="M1849.48,1117.22c10.16-14,39.3-28.27,76.74-33.72s75.17-12.85,68.15-34.83c-7.58-23.72-41.79-27.18-76.28-15.72-37.69,12.52-67.33,47.88-69.44,71.23Z" transform="translate(0 -34.69)"/></g><path class="cls-5" d="M1847,1110.34a2.76,2.76,0,0,0,2.59-1.39c33.43-58.62,102-63.77,123.18-59a2.76,2.76,0,1,0,1.21-5.39c-22.24-5-94.21.33-129.19,61.66a2.77,2.77,0,0,0,1,3.77A2.74,2.74,0,0,0,1847,1110.34Z" transform="translate(0 -34.69)"/><path class="cls-3" d="M1849.63,1109s8.42-54.84,69.45-94.88c14.53-9.54,29.13-23.24,39.67-32.21,22.64-19.25,15.32-42.36-14.12-43.94-43.74-2.36-78.23,32.26-95.35,79.47S1849.63,1109,1849.63,1109Z" transform="translate(0 -34.69)"/><path class="cls-5" d="M1844.36,1089.64a2.77,2.77,0,0,0,2.91-2.32c14.28-88.26,85.08-128.3,103.84-131.76a2.76,2.76,0,0,0-1-5.43c-22.78,4.2-93.66,45.94-108.28,136.31a2.77,2.77,0,0,0,2.29,3.17Z" transform="translate(0 -34.69)"/></g><g id="Plants-2" data-name="Plants"><path class="cls-3" d="M162,1580.51s-2.56-20.36-35.51-48.62-56.91-28.68-73.49-51.5c-16.43-22.64,25.62-53.88,80.26-8.86,62,51.08,41.38,107.62,41.38,107.62Z" transform="translate(0 -34.69)"/><g class="cls-4"><path d="M162,1580.51s-2.56-20.36-35.51-48.62-56.91-28.68-73.49-51.5c-16.43-22.64,25.62-53.88,80.26-8.86,62,51.08,41.38,107.62,41.38,107.62Z" transform="translate(0 -34.69)"/></g><path class="cls-5" d="M171,1576.37a2,2,0,0,1-.79-.16,2.21,2.21,0,0,1-1.27-2.86c6-15.59-11.74-52.77-34.53-72.31-28.22-24.21-56.51-32.88-56.79-33a2.22,2.22,0,1,1,1.27-4.25c1.19.36,29.44,9,58.4,33.85,24.41,20.93,42.46,59.93,35.78,77.27A2.22,2.22,0,0,1,171,1576.37Z" transform="translate(0 -34.69)"/><path class="cls-3" d="M179.3,1681.07c-1-.91-1.32-3-2.42-5.81-4.61-11.79-16.1-19.62-28-23.9s-24.64-5.71-36.87-9c-8.49-2.27-17.59-6.21-21-14.29-5.13-12,4.7-27.38-2.35-38.39-2.74-4.28-7.49-6.78-12-9.1-8.51-4.34-17.06-8.62-25.54-13-6-3.11-10.05-9.91-8.19-17a15.86,15.86,0,0,1,2.69-5.31c6.88-9.31,21.83-12.6,32.82-13a105,105,0,0,1,35,5c7.09,2.24,13.84,5.12,21.24,6.3s15.25,1.44,21.7,5.64c9,5.9,12.15,17.46,14.55,28s3.83,21.51,7.37,31.48a231.2,231.2,0,0,1,9,33.31,223.07,223.07,0,0,1,4.25,34.74c-2.51,1.25-5,2.53-7.53,3.76S180.12,1681.83,179.3,1681.07Z" transform="translate(0 -34.69)"/><path class="cls-5" d="M165,1616.71a2.09,2.09,0,0,1-.69-.12c-25.41-9.5-53.35-.08-53.63,0a2,2,0,0,1-1.27-3.69c1.19-.41,29.56-10,56.27,0a2,2,0,0,1-.68,3.78Z" transform="translate(0 -34.69)"/><path class="cls-5" d="M188.62,1680.12a2,2,0,0,1-1.93-1.66c-2.71-18.35-15.29-60.58-43.48-89.09-37.59-38-80.91-36-81.31-36a1.86,1.86,0,0,1-2.06-1.85,2,2,0,0,1,1.84-2c.43,0,45.42-2.09,84.3,37.21,28.91,29.22,41.79,72.47,44.57,91.26a1.94,1.94,0,0,1-1.64,2.21A1.46,1.46,0,0,1,188.62,1680.12Z" transform="translate(0 -34.69)"/></g><g id="Window"><g id="Window-2" data-name="Window"><path class="cls-6" d="M1287.64,102.27a7.75,7.75,0,0,0-.3-1.7.4.4,0,0,0-.06-.36,6.56,6.56,0,0,0-.42-1.64,8.58,8.58,0,0,0-1.09-2.36,3.44,3.44,0,0,0-.61-1,2.89,2.89,0,0,0-.54-.66,5.78,5.78,0,0,0-1.21-1.21l-.13-.13a8.17,8.17,0,0,0-1.57-.9c-3.33-1.58-7.63-1.15-12.41,1.57L460.58,559.31c-10.18,5.87-18.47,20.22-18.47,32v883.81c0,.06,0,.1,0,.16v4a12.49,12.49,0,0,0,6.65,11.09c.26.18.53.35.78.53s.61.36,1,.54a7,7,0,0,0,1.58.55,10.6,10.6,0,0,0,2.36.3,11.87,11.87,0,0,0,6.12-1.76l.48-.28h0l17.6-10.16,790.6-455.24c10.17-5.88,18.46-20.17,18.46-32V104.57C1287.76,103.78,1287.71,103,1287.64,102.27Z" transform="translate(0 -34.69)"/><path class="cls-3" d="M1281.71,92.34c-3.33-1.58-7.63-1.15-12.41,1.57L460.58,559.31c-10.18,5.87-18.47,20.22-18.47,32v60.31l-23.55-13.81V577.89c0-11.74,8.23-26,18.4-31.9l808.79-465.4c5.26-3.09,10-3.15,13.38-1.09S1277.77,90.28,1281.71,92.34Z" transform="translate(0 -34.69)"/><path class="cls-3" d="M1287.72,104.44c-.07-11.65-8.29-16.36-18.43-10.5L460.56,559.32c-10.18,5.89-18.44,20.19-18.44,31.95l0,60.34L1287.72,165Z" transform="translate(0 -34.69)"/><g class="cls-7"><path class="cls-5" d="M1269.28,93.93,460.59,559.32a38,38,0,0,0-13,13.69l-23.44-13.58C427.46,553.75,432,548.81,437,546L1245.73,80.58c5.28-3.08,10-3.13,13.4-1.1s18.62,10.74,22.51,12.82C1278.39,90.74,1274,91.2,1269.28,93.93Z" transform="translate(0 -34.69)"/></g><path class="cls-8" d="M418.53,637.85v-60c0-6,2.19-12.59,5.61-18.45L447.65,573c-3.42,5.8-5.51,12.36-5.51,18.33v60.33Z" transform="translate(0 -34.69)"/><path class="cls-6" d="M1178.64,172.82c-5.76,3.32-10.42,13.2-10.42,22.06s4.66,13.35,10.42,10,10.42-13.2,10.42-22.07S1184.4,169.49,1178.64,172.82Z" transform="translate(0 -34.69)"/><path class="cls-6" d="M1216.16,151.11c-5.75,3.33-10.42,13.2-10.42,22.07s4.67,13.35,10.42,10,10.42-13.2,10.42-22.06S1221.92,147.79,1216.16,151.11Z" transform="translate(0 -34.69)"/><path class="cls-6" d="M1253.68,129.41c-5.75,3.32-10.42,13.2-10.42,22.06s4.67,13.35,10.42,10,10.43-13.2,10.43-22.06S1259.44,126.09,1253.68,129.41Z" transform="translate(0 -34.69)"/><path class="cls-9" d="M448.74,1490.43l-.95-.53-19.45-11.25a19.57,19.57,0,0,1-9.63-14.3,20.41,20.41,0,0,1-.18-2.7V637.78L442.1,651.6v827.65a12.12,12.12,0,0,0,5.75,10.47,3.64,3.64,0,0,0,.6.42c.06.06.06.12.12.12Z" transform="translate(0 -34.69)"/></g><g id="Code"><path class="cls-3" d="M864.92,491.08,1105,352.52c3.62-2.09,6.56-.6,6.56,3.32s-2.94,8.79-6.56,10.88L864.92,505.28c-3.62,2.09-6.55.6-6.55-3.32S861.3,493.17,864.92,491.08Z" transform="translate(0 -34.69)"/><path class="cls-3" d="M972,601.26l257.46-148.92c3.61-2.09,6.55-.61,6.55,3.31s-2.94,8.8-6.55,10.89L972,615.46c-3.62,2.09-6.55.6-6.55-3.32S968.35,603.35,972,601.26Z" transform="translate(0 -34.69)"/><path class="cls-3" d="M972,650.39l257.46-148.92c3.61-2.09,6.55-.61,6.55,3.31s-2.94,8.8-6.55,10.89L972,664.59c-3.62,2.09-6.55.61-6.55-3.32S968.35,652.48,972,650.39Z" transform="translate(0 -34.69)"/><path class="cls-3" d="M1130.39,337.85l103-59c3.62-2.09,6.55-.6,6.55,3.32s-2.93,8.79-6.55,10.88l-103,59c-3.62,2.09-6.56.61-6.56-3.32S1126.77,339.94,1130.39,337.85Z" transform="translate(0 -34.69)"/><path class="cls-3" d="M864.92,531.86,977.21,467c3.62-2.09,6.55-.6,6.55,3.32s-2.93,8.79-6.55,10.88L864.92,546.06c-3.62,2.09-6.55.61-6.55-3.31S861.3,534,864.92,531.86Z" transform="translate(0 -34.69)"/><path class="cls-10" d="M864.92,531.86,977.21,467c3.62-2.09,6.55-.6,6.55,3.32s-2.93,8.79-6.55,10.88L864.92,546.06c-3.62,2.09-6.55.61-6.55-3.31S861.3,534,864.92,531.86Z" transform="translate(0 -34.69)"/><path class="cls-3" d="M864.92,572.41l60-34.42c3.61-2.09,6.55-.61,6.55,3.32s-2.94,8.79-6.55,10.88l-60,34.42c-3.62,2.09-6.55.61-6.55-3.31S861.3,574.5,864.92,572.41Z" transform="translate(0 -34.69)"/><path class="cls-10" d="M864.92,572.41l60-34.42c3.61-2.09,6.55-.61,6.55,3.32s-2.94,8.79-6.55,10.88l-60,34.42c-3.62,2.09-6.55.61-6.55-3.31S861.3,574.5,864.92,572.41Z" transform="translate(0 -34.69)"/><path class="cls-3" d="M1002.61,452.33l77.77-44.75c3.62-2.09,6.56-.61,6.56,3.31s-2.94,8.79-6.56,10.88l-77.77,44.76c-3.62,2.09-6.55.61-6.55-3.31S999,454.42,1002.61,452.33Z" transform="translate(0 -34.69)"/><path class="cls-10" d="M1002.61,452.33l77.77-44.75c3.62-2.09,6.56-.61,6.56,3.31s-2.94,8.79-6.56,10.88l-77.77,44.76c-3.62,2.09-6.55.61-6.55-3.31S999,454.42,1002.61,452.33Z" transform="translate(0 -34.69)"/><path class="cls-11" d="M1122.87,659.5,1233.42,596c3.62-2.09,6.56-.6,6.56,3.32s-2.94,8.79-6.56,10.88L1122.87,673.7c-3.62,2.09-6.55.61-6.55-3.32S1119.25,661.59,1122.87,659.5Z" transform="translate(0 -34.69)"/><path class="cls-11" d="M1155.65,600.06l77.77-44.76c3.62-2.09,6.55-.6,6.55,3.32s-2.93,8.79-6.55,10.88l-77.77,44.76c-3.62,2.09-6.56.6-6.56-3.32S1152,602.15,1155.65,600.06Z" transform="translate(0 -34.69)"/><path class="cls-11" d="M1019.69,678.19l110.55-63.46c3.62-2.09,6.56-.6,6.56,3.32s-2.94,8.79-6.56,10.88l-110.55,63.46c-3.62,2.09-6.55.6-6.55-3.32S1016.07,680.28,1019.69,678.19Z" transform="translate(0 -34.69)"/><path class="cls-3" d="M945.91,526l129.67-75.22c3.62-2.09,6.56-.61,6.56,3.31s-2.94,8.8-6.56,10.89L945.91,540.18c-3.62,2.09-6.56.61-6.56-3.31S942.29,528.07,945.91,526Z" transform="translate(0 -34.69)"/><path class="cls-10" d="M945.91,526l129.67-75.22c3.62-2.09,6.56-.61,6.56,3.31s-2.94,8.8-6.56,10.89L945.91,540.18c-3.62,2.09-6.56.61-6.56-3.31S942.29,528.07,945.91,526Z" transform="translate(0 -34.69)"/><path class="cls-3" d="M1101,436.09l128.56-72.4c3.62-2.09,6.56-.6,6.56,3.32s-2.94,8.79-6.56,10.88L1101,450.29c-3.62,2.09-6.56.6-6.56-3.32S1097.37,438.18,1101,436.09Z" transform="translate(0 -34.69)"/><path class="cls-10" d="M1101,436.09l128.56-72.4c3.62-2.09,6.56-.6,6.56,3.32s-2.94,8.79-6.56,10.88L1101,450.29c-3.62,2.09-6.56.6-6.56-3.32S1097.37,438.18,1101,436.09Z" transform="translate(0 -34.69)"/><path class="cls-3" d="M945.91,569.52l129.67-75.23c3.62-2.09,6.56-.6,6.56,3.32s-2.94,8.79-6.56,10.88L945.91,583.72c-3.62,2.09-6.56.6-6.56-3.32S942.29,571.61,945.91,569.52Z" transform="translate(0 -34.69)"/><path class="cls-10" d="M945.91,569.52l129.67-75.23c3.62-2.09,6.56-.6,6.56,3.32s-2.94,8.79-6.56,10.88L945.91,583.72c-3.62,2.09-6.56.6-6.56-3.32S942.29,571.61,945.91,569.52Z" transform="translate(0 -34.69)"/><path class="cls-3" d="M1101,479.62l128.56-72.4c3.62-2.09,6.56-.6,6.56,3.32s-2.94,8.79-6.56,10.88L1101,493.82c-3.62,2.09-6.56.6-6.56-3.32S1097.37,481.71,1101,479.62Z" transform="translate(0 -34.69)"/><path class="cls-10" d="M1101,479.62l128.56-72.4c3.62-2.09,6.56-.6,6.56,3.32s-2.94,8.79-6.56,10.88L1101,493.82c-3.62,2.09-6.56.6-6.56-3.32S1097.37,481.71,1101,479.62Z" transform="translate(0 -34.69)"/><path class="cls-5" d="M945.91,803.35l287.51-165.26c3.62-2.09,6.56-.61,6.56,3.31s-2.94,8.8-6.56,10.89L945.91,817.55c-3.62,2.09-6.56.61-6.56-3.32S942.29,805.44,945.91,803.35Z" transform="translate(0 -34.69)"/><path class="cls-5" d="M945.91,844l287.51-165.27c3.62-2.08,6.56-.6,6.56,3.32s-2.94,8.79-6.56,10.88L945.91,858.19c-3.62,2.09-6.56.6-6.56-3.32S942.29,846.08,945.91,844Z" transform="translate(0 -34.69)"/><path class="cls-2" d="M945.91,884.62l287.51-165.26c3.62-2.09,6.56-.6,6.56,3.32s-2.94,8.79-6.56,10.88L945.91,898.82c-3.62,2.09-6.56.61-6.56-3.31S942.29,886.71,945.91,884.62Z" transform="translate(0 -34.69)"/><path class="cls-3" d="M948,937.61l157-90.42c3.62-2.09,6.56-.61,6.56,3.32s-2.94,8.79-6.56,10.88L948,951.81c-3.62,2.09-6.55.6-6.55-3.32S944.41,939.7,948,937.61Z" transform="translate(0 -34.69)"/><path class="cls-3" d="M1130.39,832l103-58.65c3.62-2.09,6.55-.6,6.55,3.32s-2.93,8.79-6.55,10.88l-103,58.65c-3.62,2.09-6.56.6-6.56-3.32S1126.77,834.13,1130.39,832Z" transform="translate(0 -34.69)"/><path class="cls-3" d="M847.53,995.36l60.67-35.07c3.62-2.09,6.56-.61,6.56,3.32s-2.94,8.79-6.56,10.88l-60.67,35.07c-3.62,2.09-6.55.61-6.55-3.31S843.91,997.45,847.53,995.36Z" transform="translate(0 -34.69)"/><path class="cls-10" d="M847.53,995.36l60.67-35.07c3.62-2.09,6.56-.61,6.56,3.32s-2.94,8.79-6.56,10.88l-60.67,35.07c-3.62,2.09-6.55.61-6.55-3.31S843.91,997.45,847.53,995.36Z" transform="translate(0 -34.69)"/><path class="cls-3" d="M847.53,1032.1,908.2,997c3.62-2.09,6.56-.61,6.56,3.32s-2.94,8.79-6.56,10.88l-60.67,35.07c-3.62,2.09-6.55.61-6.55-3.32S843.91,1034.19,847.53,1032.1Z" transform="translate(0 -34.69)"/><path class="cls-10" d="M847.53,1032.1,908.2,997c3.62-2.09,6.56-.61,6.56,3.32s-2.94,8.79-6.56,10.88l-60.67,35.07c-3.62,2.09-6.55.61-6.55-3.32S843.91,1034.19,847.53,1032.1Z" transform="translate(0 -34.69)"/><path class="cls-2" d="M1122.87,915l110.55-63.46c3.62-2.09,6.56-.6,6.56,3.32s-2.94,8.79-6.56,10.88l-110.55,63.46c-3.62,2.09-6.55.6-6.55-3.32S1119.25,917.1,1122.87,915Z" transform="translate(0 -34.69)"/><path class="cls-2" d="M1155.65,853.86l77.77-44.76c3.62-2.09,6.55-.61,6.55,3.31s-2.93,8.8-6.55,10.89l-77.77,44.76c-3.62,2.09-6.56.6-6.56-3.32S1152,856,1155.65,853.86Z" transform="translate(0 -34.69)"/><path class="cls-3" d="M945.91,1063.07,1233.42,897.8c3.62-2.09,6.56-.6,6.56,3.32s-2.94,8.79-6.56,10.88L945.91,1077.27c-3.62,2.08-6.56.6-6.56-3.32S942.29,1065.15,945.91,1063.07Z" transform="translate(0 -34.69)"/><path class="cls-3" d="M847.53,1119.48l60.67-35.07c3.62-2.09,6.56-.61,6.56,3.31s-2.94,8.8-6.56,10.89l-60.67,35.07c-3.62,2.09-6.55.6-6.55-3.32S843.91,1121.57,847.53,1119.48Z" transform="translate(0 -34.69)"/><path class="cls-10" d="M847.53,1119.48l60.67-35.07c3.62-2.09,6.56-.61,6.56,3.31s-2.94,8.8-6.56,10.89l-60.67,35.07c-3.62,2.09-6.55.6-6.55-3.32S843.91,1121.57,847.53,1119.48Z" transform="translate(0 -34.69)"/><path class="cls-3" d="M945.91,1103.2l287.51-165.26c3.62-2.09,6.56-.6,6.56,3.32s-2.94,8.79-6.56,10.88L945.91,1117.4c-3.62,2.09-6.56.61-6.56-3.31S942.29,1105.29,945.91,1103.2Z" transform="translate(0 -34.69)"/><path class="cls-3" d="M847.53,1160.11,908.2,1125c3.62-2.09,6.56-.6,6.56,3.32s-2.94,8.79-6.56,10.88l-60.67,35.07c-3.62,2.09-6.55.61-6.55-3.31S843.91,1162.2,847.53,1160.11Z" transform="translate(0 -34.69)"/><path class="cls-10" d="M847.53,1160.11,908.2,1125c3.62-2.09,6.56-.6,6.56,3.32s-2.94,8.79-6.56,10.88l-60.67,35.07c-3.62,2.09-6.55.61-6.55-3.31S843.91,1162.2,847.53,1160.11Z" transform="translate(0 -34.69)"/><path class="cls-5" d="M945.91,1144l287.51-165.26c3.62-2.09,6.56-.61,6.56,3.31s-2.94,8.8-6.56,10.89L945.91,1158.21c-3.62,2.09-6.56.6-6.56-3.32S942.29,1146.1,945.91,1144Z" transform="translate(0 -34.69)"/><path class="cls-3" d="M847.53,1200.75l60.67-35.07c3.62-2.09,6.56-.61,6.56,3.31s-2.94,8.8-6.56,10.89L847.53,1215c-3.62,2.09-6.55.61-6.55-3.32S843.91,1202.84,847.53,1200.75Z" transform="translate(0 -34.69)"/><path class="cls-10" d="M847.53,1200.75l60.67-35.07c3.62-2.09,6.56-.61,6.56,3.31s-2.94,8.8-6.56,10.89L847.53,1215c-3.62,2.09-6.55.61-6.55-3.32S843.91,1202.84,847.53,1200.75Z" transform="translate(0 -34.69)"/><g class="cls-12"><path class="cls-5" d="M753,1079.72l35.66-20.59c3.58-2.06,6.48-.39,6.48,3.74V1076a14.32,14.32,0,0,1-6.48,11.22L753,1107.79c-3.58,2.06-6.48.39-6.48-3.74v-13.11A14.29,14.29,0,0,1,753,1079.72Z" transform="translate(0 -34.69)"/><path class="cls-5" d="M753,1131.89l35.66-20.59c3.58-2.07,6.48-.39,6.48,3.74v13.11a14.32,14.32,0,0,1-6.48,11.22L753,1160c-3.58,2.07-6.48.39-6.48-3.74v-13.1A14.25,14.25,0,0,1,753,1131.89Z" transform="translate(0 -34.69)"/><path class="cls-5" d="M753,1184.05l35.66-20.59c3.58-2.06,6.48-.39,6.48,3.74v13.11a14.31,14.31,0,0,1-6.48,11.22L753,1212.12c-3.58,2.06-6.48.39-6.48-3.74v-13.11A14.29,14.29,0,0,1,753,1184.05Z" transform="translate(0 -34.69)"/><path class="cls-5" d="M753,1236.22l35.66-20.59c3.58-2.07,6.48-.39,6.48,3.74v13.11a14.32,14.32,0,0,1-6.48,11.22L753,1264.28c-3.58,2.07-6.48.39-6.48-3.74v-13.1A14.27,14.27,0,0,1,753,1236.22Z" transform="translate(0 -34.69)"/></g><path class="cls-9" d="M504.87,1167l192.84-111.33c7.15-4.13,12.95-.78,12.95,7.48v222.67c0,8.26-5.8,18.31-12.95,22.44L504.87,1419.61c-7.15,4.13-13,.78-13-7.48V1189.46C491.91,1181.2,497.71,1171.15,504.87,1167Z" transform="translate(0 -34.69)"/><path class="cls-3" d="M522.77,1367.08l17.75-10.23c3.62-2.09,6.56-.61,6.56,3.31s-2.94,8.8-6.56,10.89l-17.75,10.23c-3.62,2.09-6.55.6-6.56-3.32S519.15,1369.17,522.77,1367.08Z" transform="translate(0 -34.69)"/><path class="cls-10" d="M522.77,1367.08l17.75-10.23c3.62-2.09,6.56-.61,6.56,3.31s-2.94,8.8-6.56,10.89l-17.75,10.23c-3.62,2.09-6.55.6-6.56-3.32S519.15,1369.17,522.77,1367.08Z" transform="translate(0 -34.69)"/><path class="cls-3" d="M522.77,1184.73l17.75-10.23c3.62-2.09,6.56-.61,6.56,3.31s-2.94,8.8-6.56,10.89l-17.75,10.23c-3.62,2.09-6.55.6-6.56-3.32S519.15,1186.82,522.77,1184.73Z" transform="translate(0 -34.69)"/><path class="cls-10" d="M522.77,1184.73l17.75-10.23c3.62-2.09,6.56-.61,6.56,3.31s-2.94,8.8-6.56,10.89l-17.75,10.23c-3.62,2.09-6.55.6-6.56-3.32S519.15,1186.82,522.77,1184.73Z" transform="translate(0 -34.69)"/><path class="cls-3" d="M547.72,1206.71l17.75-10.23c3.62-2.09,6.56-.6,6.56,3.32s-2.94,8.79-6.56,10.88l-17.75,10.23c-3.62,2.09-6.55.61-6.55-3.31S544.1,1208.8,547.72,1206.71Z" transform="translate(0 -34.69)"/><path class="cls-10" d="M547.72,1206.71l17.75-10.23c3.62-2.09,6.56-.6,6.56,3.32s-2.94,8.79-6.56,10.88l-17.75,10.23c-3.62,2.09-6.55.61-6.55-3.31S544.1,1208.8,547.72,1206.71Z" transform="translate(0 -34.69)"/><path class="cls-3" d="M547.72,1243.09l17.75-10.23c3.62-2.09,6.56-.61,6.56,3.31s-2.94,8.8-6.56,10.89l-17.75,10.23c-3.62,2.09-6.55.6-6.55-3.32S544.1,1245.18,547.72,1243.09Z" transform="translate(0 -34.69)"/><path class="cls-10" d="M547.72,1243.09l17.75-10.23c3.62-2.09,6.56-.61,6.56,3.31s-2.94,8.8-6.56,10.89l-17.75,10.23c-3.62,2.09-6.55.6-6.55-3.32S544.1,1245.18,547.72,1243.09Z" transform="translate(0 -34.69)"/><path class="cls-3" d="M522.77,1294.11l17.75-10.23c3.62-2.09,6.56-.6,6.56,3.32s-2.94,8.79-6.56,10.88l-17.75,10.23c-3.62,2.09-6.55.61-6.56-3.31S519.15,1296.2,522.77,1294.11Z" transform="translate(0 -34.69)"/><path class="cls-10" d="M522.77,1294.11l17.75-10.23c3.62-2.09,6.56-.6,6.56,3.32s-2.94,8.79-6.56,10.88l-17.75,10.23c-3.62,2.09-6.55.61-6.56-3.31S519.15,1296.2,522.77,1294.11Z" transform="translate(0 -34.69)"/><path class="cls-3" d="M547.72,1316.13l17.75-10.23c3.62-2.09,6.56-.61,6.56,3.32s-2.94,8.79-6.56,10.88l-17.75,10.23c-3.62,2.09-6.55.61-6.55-3.32S544.1,1318.22,547.72,1316.13Z" transform="translate(0 -34.69)"/><path class="cls-10" d="M547.72,1316.13l17.75-10.23c3.62-2.09,6.56-.61,6.56,3.32s-2.94,8.79-6.56,10.88l-17.75,10.23c-3.62,2.09-6.55.61-6.55-3.32S544.1,1318.22,547.72,1316.13Z" transform="translate(0 -34.69)"/><path class="cls-3" d="M571.38,1156.68l108.42-62.59c3.62-2.09,6.55-.61,6.55,3.32s-2.93,8.79-6.55,10.88l-108.42,62.59c-3.62,2.09-6.55.61-6.55-3.32S567.76,1158.77,571.38,1156.68Z" transform="translate(0 -34.69)"/><path class="cls-13" d="M571.38,1156.68l108.42-62.59c3.62-2.09,6.55-.61,6.55,3.32s-2.93,8.79-6.55,10.88l-108.42,62.59c-3.62,2.09-6.55.61-6.55-3.32S567.76,1158.77,571.38,1156.68Z" transform="translate(0 -34.69)"/><path class="cls-3" d="M571.38,1339l108.42-62.59c3.62-2.09,6.55-.61,6.55,3.32s-2.93,8.79-6.55,10.88l-108.42,62.59c-3.62,2.09-6.55.6-6.55-3.32S567.76,1341.12,571.38,1339Z" transform="translate(0 -34.69)"/><path class="cls-13" d="M571.38,1339l108.42-62.59c3.62-2.09,6.55-.61,6.55,3.32s-2.93,8.79-6.55,10.88l-108.42,62.59c-3.62,2.09-6.55.6-6.55-3.32S567.76,1341.12,571.38,1339Z" transform="translate(0 -34.69)"/><path class="cls-3" d="M596.33,1178.66l83.47-48.1c3.62-2.09,6.55-.61,6.55,3.32s-2.93,8.79-6.55,10.88l-83.47,48.1c-3.62,2.09-6.55.6-6.55-3.32S592.71,1180.75,596.33,1178.66Z" transform="translate(0 -34.69)"/><path class="cls-13" d="M596.33,1178.66l83.47-48.1c3.62-2.09,6.55-.61,6.55,3.32s-2.93,8.79-6.55,10.88l-83.47,48.1c-3.62,2.09-6.55.6-6.55-3.32S592.71,1180.75,596.33,1178.66Z" transform="translate(0 -34.69)"/><path class="cls-3" d="M596.33,1215.13,679.8,1167c3.62-2.09,6.55-.61,6.55,3.32s-2.93,8.79-6.55,10.88l-83.47,48.09c-3.62,2.1-6.55.61-6.55-3.31S592.71,1217.22,596.33,1215.13Z" transform="translate(0 -34.69)"/><path class="cls-13" d="M596.33,1215.13,679.8,1167c3.62-2.09,6.55-.61,6.55,3.32s-2.93,8.79-6.55,10.88l-83.47,48.09c-3.62,2.1-6.55.61-6.55-3.31S592.71,1217.22,596.33,1215.13Z" transform="translate(0 -34.69)"/><path class="cls-3" d="M571.38,1266.09,679.8,1203.5c3.62-2.09,6.55-.61,6.55,3.32s-2.93,8.79-6.55,10.88l-108.42,62.59c-3.62,2.09-6.55.6-6.55-3.32S567.76,1268.18,571.38,1266.09Z" transform="translate(0 -34.69)"/><path class="cls-13" d="M571.38,1266.09,679.8,1203.5c3.62-2.09,6.55-.61,6.55,3.32s-2.93,8.79-6.55,10.88l-108.42,62.59c-3.62,2.09-6.55.6-6.55-3.32S567.76,1268.18,571.38,1266.09Z" transform="translate(0 -34.69)"/><path class="cls-3" d="M596.33,1288.08,679.8,1240c3.62-2.09,6.55-.61,6.55,3.32s-2.93,8.79-6.55,10.88l-83.47,48.11c-3.62,2.09-6.55.61-6.55-3.32S592.71,1290.17,596.33,1288.08Z" transform="translate(0 -34.69)"/><path class="cls-13" d="M596.33,1288.08,679.8,1240c3.62-2.09,6.55-.61,6.55,3.32s-2.93,8.79-6.55,10.88l-83.47,48.11c-3.62,2.09-6.55.61-6.55-3.32S592.71,1290.17,596.33,1288.08Z" transform="translate(0 -34.69)"/></g></g><g id="Character"><path class="cls-3" d="M1819.67,453.94c.21,1.92-6.52,5.91-6.52,5.91l1.88-11.59Z" transform="translate(0 -34.69)"/><path class="cls-14" d="M1819.67,453.94c.21,1.92-6.52,5.91-6.52,5.91l1.88-11.59Z" transform="translate(0 -34.69)"/><path class="cls-15" d="M1698.53,559.47c-8.8,20.3-22.26,55.1-33,82.7-17-3.76-53.21-13.53-65.1-17.59s-19.93-7.42-22.06-9.89c-3.78-3.34-4.31-9.76-4.75-14.16-.75-7.35,2.64-14.48,3.18-17.3.94-4.91-7-3.56-11.09,3.81-3,5.38-3.39,10.91-5.86,11.48-.84.19-8.42-4.34-9.52-5.17-4.18-3.18-11.74-8.38-17.64-6.26a6.48,6.48,0,0,0-4,4.42c-.82,3.17-.61,5.63-2.44,8.51-.78,1.22-2,2.29-2.41,3.7-.61,1.85.15,3.36-.09,5.21-.31,2.55-3.15,4.16-3.63,6.68-.35,1.82.63,3.65.57,5.51,0,1.19-.52,2.34-.55,3.53-.05,2.35,1.61,4.38,3.38,5.92,6.22,5.42,12.66,7.94,20.14,10.67,6.21,2.27,14.5,3.57,21.5,5.65,48,14.25,109.07,46.61,115.73,42.45,17.22-8.51,33-61.75,43.4-84.77s12.36-51.12,19.92-74.12C1721.51,528.41,1709,535.35,1698.53,559.47Z" transform="translate(0 -34.69)"/><path class="cls-9" d="M1749.05,530.14c-12.81-1.78-23.21-2.1-34.42,5.28s-13.2,14.47-19,27.6-23.95,56.45-23.95,56.45,14.6,19.21,48.26,22.21l25.45-66.84Z" transform="translate(0 -34.69)"/><path class="cls-16" d="M1559.85,625.32c-4-3.7-6.06-12.63-4.72-16.51s1.18-8.09-2.52-10.95c0,0,2.36,3.71.67,7.24s-5.9,2.53-5.9,2.53,4.58,2.63,2.36,6.74a5.63,5.63,0,0,1-6.49,2.84s3.49,2.7,1.74,6.34-5.85,2.69-5.85,2.69,3.51,5.72-3,6.58c0,0,5.81,1.55,5.86-4.48a7,7,0,0,0,6-2.82c1.45-2,0-6,0-6s3,.11,4-2.27C1552,617.21,1552.55,622.82,1559.85,625.32Z" transform="translate(0 -34.69)"/><rect class="cls-15" x="1823.55" y="1089.7" width="30.69" height="52.53" transform="translate(-26.69 10.52) rotate(-1.4)"/><path class="cls-15" d="M1739.94,1106.74c-10,5.85-20.26,10.34-33.45,2l2-65.82,32.69,3Z" transform="translate(0 -34.69)"/><path class="cls-3" d="M1841,726.85c.69,27.92,6.57,190.23,6.57,190.23.88,8,9,22.11,10.27,51,1.9,42-2.14,141-2.14,141a43.61,43.61,0,0,1-34.47,1.61s-24.45-139.45-30.71-180.86c-5.45-36.15-20.83-130.69-20.83-130.69l-16.74,123.71a205.82,205.82,0,0,1,2.72,44.54c-.9,19.25-13.11,115.12-13.11,115.12s-18.86,7.57-39,1.31c0,0-6.68-148.75-7.45-166.38-.88-20.09,3.67-193.2,3.67-193.2Z" transform="translate(0 -34.69)"/><path class="cls-17" d="M1841,726.85c.69,27.92,6.57,190.23,6.57,190.23.88,8,9,22.11,10.27,51,1.9,42-2.14,141-2.14,141a43.61,43.61,0,0,1-34.47,1.61s-24.45-139.45-30.71-180.86c-5.45-36.15-20.83-130.69-20.83-130.69l-16.74,123.71a205.82,205.82,0,0,1,2.72,44.54c-.9,19.25-13.11,115.12-13.11,115.12s-18.86,7.57-39,1.31c0,0-6.68-148.75-7.45-166.38-.88-20.09,3.67-193.2,3.67-193.2Z" transform="translate(0 -34.69)"/><path class="cls-9" d="M1823.83,1127.45l-.11-4.38c-1.65,0-2.63,1.66-3.16,5.63-.38,2.84-.74,5-1.58,8.72a103.21,103.21,0,0,1-5,15.83c-4.08,10.8-7.63,14.87-17.25,27.6-2.29,3-7.49,7.86-9.26,11.21s-2.2,12.54,1,14.57c11.77,7.44,29.36,7.22,41.72,3.27a25.13,25.13,0,0,0,17.57-20.74c.38-2.84.14-5.73.4-8.58.58-6.51,3.7-12.52,7.25-18,2.06-3.18,4.3-6.29,5.65-9.84,2.43-6.37.19-13.41-1.61-19.65-1.56-5.39-3.24-11.32-5.08-10.76,0,.66.08,3.34.08,3.34-2.17,2.52-8.27,5.12-15.21,5.56C1834.78,1131.5,1823.87,1130.88,1823.83,1127.45Z" transform="translate(0 -34.69)"/><path class="cls-9" d="M1706.81,1098.47c-1.74.1-4,2.51-7.76,6.75-4.51,5.14-12,10.73-19.36,14.66-12.38,6.59-36.53,16.84-47.45,22.08-6.82,3.27-6.29,11.59,1,16.16s24.53,7.56,45.08,2.43c11.2-2.79,25.59-13.54,34.88-13.21s26.64-.22,33.37-5.1,3.74-14.9,1.59-23.51c-2.34-9.4-4.82-24.08-7.93-23.36l-.19,8.57c-3.87,6.2-31.34,3.41-33.35,0Z" transform="translate(0 -34.69)"/><path class="cls-8" d="M1769.65,799.15s-19-2.48-30.39-15c0,0,2.71,12.23,18.33,20.52l-3,106Z" transform="translate(0 -34.69)"/><path class="cls-11" d="M1790.6,532.19c9,.56,28.89,2.13,37.38,3.85,8,1.62,11.24,15.22,12.87,22.41,5.22,23-3.5,103.31-3.5,103.31l5.74,79.33c-19.45,14.17-104.28,21.07-145.22-8.82,0,0,2-131.87,5.4-152.41,5.68-34.37,24-49.86,39.16-50.49Z" transform="translate(0 -34.69)"/><path class="cls-9" d="M1781.06,439.72A38.12,38.12,0,1,1,1743,401.61,38.12,38.12,0,0,1,1781.06,439.72Z" transform="translate(0 -34.69)"/><path class="cls-9" d="M1811.65,467.85s-6.18,29-8.66,33.78a13.09,13.09,0,0,1-7.59,6.12l.43-20.41Z" transform="translate(0 -34.69)"/><path class="cls-9" d="M1804.28,422.07a15.72,15.72,0,0,1,11.3,4.92c5.08,5.2,2.4,24.92-3.93,40.86L1800,469.18Z" transform="translate(0 -34.69)"/><path class="cls-15" d="M1796.52,469.19c2.34,1.4,5.67-3.09,8.54-6.1s12.27-7.12,17,2.75c4.77,10.06-4.14,23.35-11.53,25.68-12.75,4-14.66-4.18-14.66-4.18l-.94,47.37h0c-8.81,11.3-24.07,13.92-34.73,12-8.5-1.51-14.89-5.22-6.76-14.64l0-14s-11.55,1.75-17.18.88c-9.37-1.45-15.27-8.84-18.11-19-4.56-16.3-6.3-29.45-2.42-61.49,4.24-35.12,45.09-35.49,67.15-21.6S1796.52,469.19,1796.52,469.19Z" transform="translate(0 -34.69)"/><path class="cls-18" d="M1746.42,437.23c9.7-1.06,18.54-5.74,27.14-10.07.79,3.17,1.54,6.74,4.4,9.65,5.3,5.41,8.35,5.52,10.44,6.85.8,6.32.77,14.43,1.16,20.79.13,2.14.12,13.32,5.21,10.13,1.67-1.05,3.22-3.58,4.44-5a75.23,75.23,0,0,1,5.85-6.51c1.5-1.36,1.41-4.54,1.49-6.36a92.68,92.68,0,0,0-.39-11.42c-.32-3.93-1-7.83-1.32-11.74-.19-2.27,1-4.29,1.56-6.5a23.19,23.19,0,0,0,1-7.45c-.42-7.86-6.45-14.54-13.52-18-9.89-4.87-21.84-5.63-32.64-4.74-7,.58-13.86,1.18-20.9,1.88-1.86.19-3.86,0-5.65.34a26.63,26.63,0,0,0-6.24,2.56,36.36,36.36,0,0,0-10.55,7.54,25,25,0,0,0-6.84,14.08c-.26,2.3-.22,3.67,1.56,5.14a42.17,42.17,0,0,0,6.77,4.47C1727.24,437.11,1737.66,438.18,1746.42,437.23Z" transform="translate(0 -34.69)"/><path class="cls-16" d="M1753.44,518.1s20.92-4.21,28.23-8.1c4.89-2.6,8.92-7.11,10.11-10a32.89,32.89,0,0,1-5.75,11.79c-5.34,6.84-32.59,11.88-32.59,11.88Z" transform="translate(0 -34.69)"/><path class="cls-9" d="M1754.08,464.87a4.49,4.49,0,1,0,4.49-4.68A4.57,4.57,0,0,0,1754.08,464.87Z" transform="translate(0 -34.69)"/><path class="cls-9" d="M1758.57,449.67l9.28,5.12a5.56,5.56,0,0,0-2.16-7.39A5.17,5.17,0,0,0,1758.57,449.67Z" transform="translate(0 -34.69)"/><path class="cls-16" d="M1755.2,492.29l-10.37,3.9a5.44,5.44,0,0,0,7,3.44A5.81,5.81,0,0,0,1755.2,492.29Z" transform="translate(0 -34.69)"/><path class="cls-9" d="M1717,453.4l8.47-6.52a5.13,5.13,0,0,0-7.36-1.13A5.62,5.62,0,0,0,1717,453.4Z" transform="translate(0 -34.69)"/><path class="cls-9" d="M1719,464a4.34,4.34,0,1,0,4.34-4.52A4.41,4.41,0,0,0,1719,464Z" transform="translate(0 -34.69)"/><polygon class="cls-16" points="1743.67 422.66 1742.18 449.99 1727.91 445.13 1743.67 422.66"/><path class="cls-3" d="M1820.55,436a57.82,57.82,0,0,1-2.38,16.46,57.27,57.27,0,0,0-4.4-4.07,97.29,97.29,0,0,0-29.87-16.61h-.05c-25.18-8.95-55-9.92-78-1.11a55.58,55.58,0,0,1,3.09-13.94A57.48,57.48,0,0,1,1820.55,436Z" transform="translate(0 -34.69)"/><path class="cls-3" d="M1790.38,381.42c-3-1.11-17.83-4-19-4.28-7.7-1.56-19.68-.26-31,11.06a58.44,58.44,0,0,0-16.31,33l15.78,3.34h4.94c.73-11.43,13.27-37.13,34-40a20.25,20.25,0,0,1,3-.24,27.67,27.67,0,0,1,8.23.87,79.13,79.13,0,0,1,8.71,5.71A12.85,12.85,0,0,0,1790.38,381.42Z" transform="translate(0 -34.69)"/><path class="cls-19" d="M1790.38,381.42c-3-1.11-17.83-4-19-4.28-7.7-1.56-19.68-.26-31,11.06a58.44,58.44,0,0,0-16.31,33l15.78,3.34h4.94c.73-11.43,13.27-37.13,34-40a20.25,20.25,0,0,1,3-.24,27.67,27.67,0,0,1,8.23.87,79.13,79.13,0,0,1,8.71,5.71A12.85,12.85,0,0,0,1790.38,381.42Z" transform="translate(0 -34.69)"/><path class="cls-3" d="M1744.72,424.57c.88-13.3,17.89-46.26,45.21-39.44a78.87,78.87,0,0,1,8.75,5.71,13,13,0,0,0-8.3-9.42c-7.2-2.64-21.14-2.95-34.28,10.15a58.2,58.2,0,0,0-16.29,33Z" transform="translate(0 -34.69)"/><path class="cls-14" d="M1744.72,424.57c.88-13.3,17.89-46.26,45.21-39.44a78.87,78.87,0,0,1,8.75,5.71,13,13,0,0,0-8.3-9.42c-7.2-2.64-21.14-2.95-34.28,10.15a58.2,58.2,0,0,0-16.29,33Z" transform="translate(0 -34.69)"/><path class="cls-3" d="M1783.85,427.23c-1.21-.87-7.64-11.86-27.65-20.19-12.35-5.15-36.45-3.15-47.23-1.94-18.87,2.12-23,6.57-23,9.38,0,.66,0,3.75,0,4.45a2.69,2.69,0,0,0,.57,1.75c3.24,4,19.23,10,19.23,10,23-8.81,52.86-7.84,78,1.11Z" transform="translate(0 -34.69)"/><path class="cls-8" d="M1783.85,427.23c-1.21-.87-7.64-11.86-27.65-20.19-12.35-5.15-36.45-3.15-47.23-1.94-18.87,2.12-23,6.57-23,9.38,0,.66,0,3.75,0,4.45a2.69,2.69,0,0,0,.57,1.75c3.24,4,19.23,10,19.23,10,23-8.81,52.86-7.84,78,1.11Z" transform="translate(0 -34.69)"/><path class="cls-3" d="M1783.85,431.77c-25.18-8.95-55-9.92-78-1.11,0,0-16-6-19.23-10-1.74-2.22-1-8.42,22.39-11,10.78-1.21,34.88-3.2,47.23,1.94C1776.21,419.91,1782.64,430.9,1783.85,431.77Z" transform="translate(0 -34.69)"/><path class="cls-14" d="M1783.85,431.77c-25.18-8.95-55-9.92-78-1.11,0,0-16-6-19.23-10-1.74-2.22-1-8.42,22.39-11,10.78-1.21,34.88-3.2,47.23,1.94C1776.21,419.91,1782.64,430.9,1783.85,431.77Z" transform="translate(0 -34.69)"/><path class="cls-15" d="M1736.68,723.93a72.5,72.5,0,0,0,22.36-6.48c-5.5-1.08-9.81-2-12.55-3.4-5.44-2.74-5.62-7.46-4.8-9.49.64-1.57,4.42.33,11.29,0,8.78-.41,14.7-1.91,24,0,3.47.71,8.24,3.13,11.31,1.35,17.31-10,61.17-41.69,61.17-41.69l-18-61s-21.9-42.63-3.5-67.17c13.82,2.36,29.13,1,39.42,37.67,7.08,25.17,18.25,63.76,24.69,88.19,4.74,18-.34,23.27-4.87,26.37-13.4,9.15-29.39,16.68-60.59,32.19-13.15,6.54-34.92,19.06-43.43,23.48-29.53,15.37-43.87,13.88-54.12,3.92C1712.71,732,1718.94,726.15,1736.68,723.93Z" transform="translate(0 -34.69)"/><path class="cls-9" d="M1824.4,535.42c13.43.42,22,3.38,25.8,5.53s10.49,6.45,19.1,33.89,15.87,55.42,15.87,55.42-11,13.46-43,15.47l-16.41-47.21S1806.4,560,1824.4,535.42Z" transform="translate(0 -34.69)"/></g><g id="Glass"><g id="Magnifying_glass" data-name="Magnifying glass"><path class="cls-3" d="M465,1115.76h0c2.25-4.65,7.58-7.82,15.44-8.4,15.73-1.15,35.67,8.48,44.53,21.53,4.44,6.52,5.26,12.66,3,17.31h0L382.17,1479.81l0,0c-2.85,7-10.42,11.89-22,12.74-22,1.61-49.85-11.85-62.24-30.09-6.51-9.56-7.41-18.51-3.67-25.11l-.08,0Z" transform="translate(0 -34.69)"/><path class="cls-10" d="M465,1115.76h0c2.25-4.65,7.58-7.82,15.44-8.4,15.73-1.15,35.67,8.48,44.53,21.53,4.44,6.52,5.26,12.66,3,17.31h0L382.17,1479.81l0,0c-2.85,7-10.42,11.89-22,12.74-22,1.61-49.85-11.85-62.24-30.09-6.51-9.56-7.41-18.51-3.67-25.11l-.08,0Z" transform="translate(0 -34.69)"/><path class="cls-3" d="M525,1128.88c8.87,13,3.31,24.55-12.42,25.71s-35.67-8.48-44.54-21.52-3.3-24.56,12.43-25.72S516.13,1115.83,525,1128.88Z" transform="translate(0 -34.69)"/><path class="cls-3" d="M517.93,1053.42c9.51-.7,21.57,5.13,26.93,13,2.68,3.94,3.18,7.65,1.82,10.47h0l-31.13,63.27h0c-1.36,2.82-4.57,4.73-9.33,5.08-9.51.7-21.57-5.13-26.93-13-2.68-4-3.18-7.66-1.82-10.47l31.13-63.27h0C510,1055.69,513.17,1053.77,517.93,1053.42Z" transform="translate(0 -34.69)"/><path class="cls-20" d="M517.93,1053.42c9.51-.7,21.57,5.13,26.93,13,2.68,3.94,3.18,7.65,1.82,10.47h0l-31.13,63.27h0c-1.36,2.82-4.57,4.73-9.33,5.08-9.51.7-21.57-5.13-26.93-13-2.68-4-3.18-7.66-1.82-10.47l31.13-63.27h0C510,1055.69,513.17,1053.77,517.93,1053.42Z" transform="translate(0 -34.69)"/><path class="cls-8" d="M544.86,1066.44a24.32,24.32,0,0,0-2.41-3c-.14-.15-.32-.28-.46-.43a33.16,33.16,0,0,0-2.55-2.29l-.22-.16c-6.07-4.71-14.34-7.7-21.29-7.19-4.76.35-8,2.27-9.33,5.08l-10.43,21.19a112.14,112.14,0,0,0,18.46,11.11l-23.52,52a29.37,29.37,0,0,0,13.11,2.49c4.76-.35,8-2.26,9.33-5.08h0l20.92-42.53h0l10.21-20.74h0C548,1074.09,547.54,1070.38,544.86,1066.44Z" transform="translate(0 -34.69)"/><path class="cls-21" d="M497.3,1152.78,344.07,1491.27a59.8,59.8,0,0,0,16.11,1.25c11.51-.85,19.11-5.68,21.95-12.75l.05,0L528,1146.22c-2.26,4.69-7.58,7.79-15.44,8.38A45.64,45.64,0,0,1,497.3,1152.78Z" transform="translate(0 -34.69)"/><path class="cls-3" d="M934.39,629.24c-.07-2.87-.21-5.66-.44-8.45s-.34-5.52-.62-8.25c-.13-1.84-.34-3.65-.58-5.49-.47-4.73-1.16-9.44-1.94-13.9-.34-2-.71-4.12-1.12-6.17s-.79-3.85-1.2-5.72c-1.19-5.18-2.45-10.22-3.91-15.06-.75-2.32-1.47-4.6-2.25-6.85a5.44,5.44,0,0,1-.34-1.06c-.82-2.25-1.61-4.39-2.46-6.5-.95-2.46-1.94-4.91-3.06-7.23-.79-1.74-1.54-3.41-2.46-5.08a26.17,26.17,0,0,0-1.8-3.64c-.72-1.47-1.47-3-2.32-4.36a6.43,6.43,0,0,0-.58-1c-.68-1.26-1.46-2.52-2.21-3.78-.52-.85-1.06-1.6-1.54-2.38a122.39,122.39,0,0,0-12.06-16c-.75-.85-1.53-1.7-2.22-2.52s-1.26-1.33-1.9-2c-.75-.81-1.6-1.6-2.46-2.45a79.46,79.46,0,0,0-7.25-6.51c-1.2-1-2.46-2-3.72-2.93s-2.52-1.87-3.85-2.79a69.75,69.75,0,0,0-6.23-4.06l-1.67-1.05-.34-.28h-.11l-39.11-23h-.14l-.55-.34c-18.19-10.36-39.18-15.74-62.28-15.74-32.47,0-69.14,10.63-108,33-133.37,77-241.55,264.38-241.55,418.46,0,76.84,26.88,130.88,70.32,156.2l.41.2v.07l39.19,22.93c0,.07,0,.07.07.07l.44.27v-.07l.58.31c.2.1.41.24.61.34,1.88,1.09,3.75,2.08,5.73,3,2.38,1.19,4.83,2.25,7.29,3.2a64.38,64.38,0,0,0,6.64,2.46,28.05,28.05,0,0,0,3.55,1,24.3,24.3,0,0,0,3.85,1.13c1.33.41,2.59.71,3.91,1a23,23,0,0,0,2.9.61c1.67.34,3.48.71,5.25.92a3.42,3.42,0,0,0,1.19.2c2.08.34,4.19.65,6.27.86,36,3.78,77.83-6.38,122.6-32.2,133.47-77.05,241.65-264.45,241.65-418.47C934.59,636.53,934.52,632.88,934.39,629.24ZM494.15,992.77c-6.73-23.32-8.16-47.37-8.16-63.22,0-146,106.82-331.06,233.27-404.06,20.54-11.78,40.53-20.06,59.16-24.49a130.82,130.82,0,0,1,30.46-3.84,96.72,96.72,0,0,1,15.43,1.19l.42.16c25.89,30.61,29.69,79.66,29.69,105.88,0,146-106.71,331.05-233.2,404-32.17,18.56-63.11,28.37-89.65,28.37a61.69,61.69,0,0,1-16.31-2.09h0C505.24,1022.64,498.54,1007.89,494.15,992.77Z" transform="translate(0 -34.69)"/><path class="cls-10" d="M934.39,629.24c-.07-2.87-.21-5.66-.44-8.45s-.34-5.52-.62-8.25c-.13-1.84-.34-3.65-.58-5.49-.47-4.73-1.16-9.44-1.94-13.9-.34-2-.71-4.12-1.12-6.17s-.79-3.85-1.2-5.72c-1.19-5.18-2.45-10.22-3.91-15.06-.75-2.32-1.47-4.6-2.25-6.85a5.44,5.44,0,0,1-.34-1.06c-.82-2.25-1.61-4.39-2.46-6.5-.95-2.46-1.94-4.91-3.06-7.23-.79-1.74-1.54-3.41-2.46-5.08a26.17,26.17,0,0,0-1.8-3.64c-.72-1.47-1.47-3-2.32-4.36a6.43,6.43,0,0,0-.58-1c-.68-1.26-1.46-2.52-2.21-3.78-.52-.85-1.06-1.6-1.54-2.38a122.39,122.39,0,0,0-12.06-16c-.75-.85-1.53-1.7-2.22-2.52s-1.26-1.33-1.9-2c-.75-.81-1.6-1.6-2.46-2.45a79.46,79.46,0,0,0-7.25-6.51c-1.2-1-2.46-2-3.72-2.93s-2.52-1.87-3.85-2.79a69.75,69.75,0,0,0-6.23-4.06l-1.67-1.05-.34-.28h-.11l-39.11-23h-.14l-.55-.34c-18.19-10.36-39.18-15.74-62.28-15.74-32.47,0-69.14,10.63-108,33-133.37,77-241.55,264.38-241.55,418.46,0,76.84,26.88,130.88,70.32,156.2l.41.2v.07l39.19,22.93c0,.07,0,.07.07.07l.44.27v-.07l.58.31c.2.1.41.24.61.34,1.88,1.09,3.75,2.08,5.73,3,2.38,1.19,4.83,2.25,7.29,3.2a64.38,64.38,0,0,0,6.64,2.46,28.05,28.05,0,0,0,3.55,1,24.3,24.3,0,0,0,3.85,1.13c1.33.41,2.59.71,3.91,1a23,23,0,0,0,2.9.61c1.67.34,3.48.71,5.25.92a3.42,3.42,0,0,0,1.19.2c2.08.34,4.19.65,6.27.86,36,3.78,77.83-6.38,122.6-32.2,133.47-77.05,241.65-264.45,241.65-418.47C934.59,636.53,934.52,632.88,934.39,629.24ZM494.15,992.77c-6.73-23.32-8.16-47.37-8.16-63.22,0-146,106.82-331.06,233.27-404.06,20.54-11.78,40.53-20.06,59.16-24.49a130.82,130.82,0,0,1,30.46-3.84,96.72,96.72,0,0,1,15.43,1.19l.42.16c25.89,30.61,29.69,79.66,29.69,105.88,0,146-106.71,331.05-233.2,404-32.17,18.56-63.11,28.37-89.65,28.37a61.69,61.69,0,0,1-16.31-2.09h0C505.24,1022.64,498.54,1007.89,494.15,992.77Z" transform="translate(0 -34.69)"/><path class="cls-21" d="M899.85,629.88c0,77.56-30.14,166.11-77.36,243.07-2.21,3.66-4.48,7.24-6.81,10.84q-2.94,4.65-6.08,9.26c-4.42,6.58-8.91,13.08-13.62,19.44-2.21,3-4.45,6-6.75,9-2.47,3.27-5,6.5-7.55,9.71-4.86,6.13-9.88,12.09-15,17.91-3.35,3.89-6.78,7.69-10.24,11.38-27.81,29.91-58.21,55.17-89.83,73.39-6,3.49-12,6.67-17.93,9.54-21.71,10.5-42.57,16.71-61.5,18.36-3.46.34-6.87.48-10.16.48-1.76,0-3.44,0-5.11-.14-.09,0-.11,0-.2,0a77.18,77.18,0,0,1-9.59-1c-1.56-.22-3.1-.48-4.57-.82a42.8,42.8,0,0,1-4.4-1.08c-22.83-6.19-34.45-20.07-37.89-24.52a61.56,61.56,0,0,0,16.29,2.07c26.54,0,57.47-9.79,89.66-28.35,126.49-73,233.2-258,233.2-404,0-26.22-3.81-75.26-29.69-105.89l-.42-.14c33,5.28,51.73,27.7,62.29,53.61a151.59,151.59,0,0,1,7.21,22.62c.08.43.2.85.28,1.28.34,1.39.68,2.81.94,4.2s.54,2.72.79,4.08a8,8,0,0,1,.2,1.06c.29,1.47.54,2.92.77,4.34.82,5.42,1.5,10.7,2,15.75.11,1.47.25,2.86.34,4.26.11,1.05.17,2.12.22,3.15,0,.42.06.88.06,1.3.09,1.14.14,2.24.2,3.35,0,.31,0,.6,0,.94.08,1.39.11,2.78.14,4.11C899.82,625,899.85,627.52,899.85,629.88Z" transform="translate(0 -34.69)"/><path class="cls-22" d="M556,1049.88a130.82,130.82,0,0,0,30.46-3.84c18.63-4.43,38.62-12.71,59.16-24.5,126.45-73,233.27-258,233.27-404,0-15.85-1.43-39.9-8.16-63.22-5.67-19.55-15.13-38.62-30.77-51.76l-1.5-.53c-1.37-.49-2.77-.94-4.2-1.36-.84-.24-1.67-.48-2.52-.7-1.43-.36-2.9-.67-4.38-1-.86-.17-1.7-.36-2.58-.5l-.28,0,.28.09c25.88,30.63,29.69,79.67,29.69,105.89,0,146-106.71,331.06-233.2,404-32.19,18.56-63.12,28.35-89.66,28.35a61.56,61.56,0,0,1-16.29-2.07c.07.09.16.21.24.3a77.14,77.14,0,0,0,9.51,9.62A86.92,86.92,0,0,0,556,1049.88Z" transform="translate(0 -34.69)"/><path class="cls-21" d="M518.71,1073.67l-36.26-21.34c-43.46-25.4-70.33-79.42-70.33-156.12,0-68.72,21.55-144,57.17-213.15l41.32,23.76C474.92,776,451.29,850.46,451.29,919.18,451.29,994.34,476.87,1047.63,518.71,1073.67Z" transform="translate(0 -34.69)"/><path class="cls-23" d="M864.21,484.06l-.34-.29h-.12l-39.1-23h-.15l-.54-.34c-18.19-10.36-39.19-15.76-62.29-15.76-32.47,0-69.13,10.62-108,33C579.75,520.41,513.57,597,469.3,683.06l41.09,24.18c-.28.57-.6,1.14-.88,1.7,44.42-85.08,110.29-162.13,183.42-208.22C759.14,459,822,458.43,865.85,485.11Z" transform="translate(0 -34.69)"/></g></g><g id="Character-2" data-name="Character"><path class="cls-24" d="M200.25,1087.82c-25.28-2.83-35,4.59-44.42,25.53-9,20-36.54,80.36-35.15,94.45s58.95,73.92,58.95,73.92l16.42-19.94L160.44,1202l28.32-60.4Z" transform="translate(0 -34.69)"/><g id="Character-3" data-name="Character"><polygon class="cls-24" points="251.13 1033.32 246.37 1082.99 201.97 1080.23 205.53 1025.15 251.13 1033.32"/><path class="cls-9" d="M237.85,1050.74c2.27-2.78,4-5.9,6.24-8.71a110.9,110.9,0,0,1,7.68-8.26q8.16-8.38,17.1-15.94c7.58-6.4,17-12.32,20.57-22.05,2.64-7.1,1.21-16.15-5-20.54a32.5,32.5,0,0,0,3.25-13.4,19.13,19.13,0,0,0-4.57-12.79c-4.27-4.7-11-6.39-17.4-6.21s-12.53,2-18.78,3.1c-8.32,1.51-16.07-.11-24.34-.35a63,63,0,0,0-25.29,4.3A38,38,0,0,0,183.53,959a22.43,22.43,0,0,0-4.62,7c-1,2.57-.5,5.15-1,7.84-1,5.16-3.25,10-4.21,15.28a125.41,125.41,0,0,0-1.65,17.72c-1,24.52,56,40.46,54.83,57.27Z" transform="translate(0 -34.69)"/><path class="cls-25" d="M284.06,1013.52s9.83,14.6,8.55,16.15-7.53,3.19-7.53,3.19Z" transform="translate(0 -34.69)"/><path class="cls-24" d="M254,967.24c9.56,4.85,26.07,13.82,30.32,48.41,4.36,35.52-3.68,47.86-8.61,52.51-3.33,3.14-20.48,4.28-29.43,1.55-11.2-3.41-35.46-15.2-46.84-33.53-13.38-21.56-16.14-50.31-.7-61.57C220.5,958.74,245.94,963.13,254,967.24Z" transform="translate(0 -34.69)"/><path class="cls-25" d="M274.81,1068.8c-4,2.21-15.43,3.13-23.93,1.89l.25-6.38a63.12,63.12,0,0,0,11.33,3.69A40.89,40.89,0,0,0,274.81,1068.8Z" transform="translate(0 -34.69)"/><path class="cls-9" d="M258.22,966.18c3.92,1.68,7.7,3.33,11.12,6.41a15.08,15.08,0,0,1,3.93,5,11.74,11.74,0,0,1,.8,5.72,15.28,15.28,0,0,1-8.93,12.35,14.87,14.87,0,0,1,2.41,12.36c-1.3,5-5.1,8.94-8.76,12.61a1.81,1.81,0,0,1-.73.53,2,2,0,0,1-1.57-.47c-6-4-9.1-10-17.58-7.22-9.87,3.25-10.12,15.79-3.21,24.26,3.34,4.11,6,4.92,9.09,5.09,4.48.24,5.6-3.17,5.6-3.17s.75,24.45-14.84,31.54a63.85,63.85,0,0,1-30.64-1.76c-10.1-7.45-19.42-18.72-27.17-31.58-20-33.2-9.46-69,14.63-77.89,1.34-.5,2.73-.85,4.11-1.22a84.64,84.64,0,0,1,57.2,5.39C255.21,964.91,256.72,965.55,258.22,966.18Z" transform="translate(0 -34.69)"/><path class="cls-9" d="M183.53,963.39c-40.54-14.12-55,18.08-54,45.55.57,14.73,7.91,43.89-10,58.84-16.42,13.66-15,22.23-6.53,29.89s32.19,6.72,46.39-10.26c17.39-20.78,8-50.07.61-73.2-5-15.64,1.9-37.68,17-36.46Z" transform="translate(0 -34.69)"/><path class="cls-9" d="M259.48,1033.2a8.22,8.22,0,0,0,5-10.58,8.44,8.44,0,0,0-10.76-5Z" transform="translate(0 -34.69)"/><path class="cls-9" d="M247.87,1717.57a153.54,153.54,0,0,0-4.31,14.76c-1.23,5.48-3,14.64-1.17,18.82s10,7.13,21.49,8.83c9.27,1.36,16.77,5.55,28.51,10.29,8.83,3.57,16.45,6.12,32.22,5.25,15-.83,21.46-7.83,23.22-12.09s3.29-10.11-24.6-19.65c-.23-.08-33.75-11.73-45.31-25Z" transform="translate(0 -34.69)"/><path class="cls-24" d="M247.85,1718.35l5.37-.56,24.7,1c11.56,13.27,45.08,24.92,45.31,25,1.58.55,3.06,1.07,4.46,1.59,4.79,4,.54,10.64-11.07,11.44s-47.44-12-55.35-16A23.87,23.87,0,0,1,247.85,1718.35Z" transform="translate(0 -34.69)"/><path class="cls-24" d="M248.06,1707.74s-.1,6.75-.21,10.61,4.34,9.7,16.14,9.51c8.3-.14,14.12-2.25,13.93-9.08l.19-9.84Z" transform="translate(0 -34.69)"/><path class="cls-9" d="M169.48,1670.06c-1.66.16-2.12,2.48-3.41,12.08-.82,6.11-2.32,14.43,3.62,18.59,8,5.56,20.44,3.88,25-2,5.71-7.28,9.56-13.68,17.72-22.57,7.08-7.71,16.24-14.61,19.54-25.23,3.7-11.9.18-17.34-7.86-18.16-6.79-.69-15,1.79-22.6,7.84-3.21,1.89-6.11,3.56-8.32,4.19C187.05,1646.62,171.77,1669.85,169.48,1670.06Z" transform="translate(0 -34.69)"/><path class="cls-24" d="M169.44,1664.12l.07,10s6.43,13.2,25.23.5c.43-1,2.47-20.24,2.47-20.24Z" transform="translate(0 -34.69)"/><path class="cls-24" d="M193.18,1644.85c2.21-.63,5.11-2.3,8.32-4.19h0c7.53-2.25,23.23.83,15.92,11.56-7.86,11.53-15.84,17.45-22.68,22.38-8.47,4-11.31-1.21-11.31-1.21l3.43-23.34C189.33,1647.34,191.58,1645.32,193.18,1644.85Z" transform="translate(0 -34.69)"/><path class="cls-3" d="M158.59,1525.83c4.33-32.64,11.81-51.42,11.81-51.42s-5.42-44.16-9.54-86.52c-9.67-99.41-1.9-100.86,12.8-135.07,0,0,127.48-13.87,131.76,39.12,5.33,66-.15,193.63-1.73,217s-3.67,33.86-11.57,82.66c-6,37.13-12.6,118.46-12.6,118.46-16.86,9.28-32.68-2.31-32.68-2.31s-14-100.45-13.08-127.37a229.68,229.68,0,0,1,9.77-58.81s-8.71-107.54-11.14-124.65c0,0-3.73,34.16-5.31,57.5s-8.34,45.66-14.77,89c-5.58,37.63-15.16,116.23-15.16,116.23-16.86,9.28-28.42,4.69-28.42,4.69S154.26,1558.48,158.59,1525.83Z" transform="translate(0 -34.69)"/><g class="cls-26"><path d="M158.59,1525.83c4.33-32.64,11.81-51.42,11.81-51.42s-5.42-44.16-9.54-86.52c-9.67-99.41-1.9-100.86,12.8-135.07,0,0,127.48-13.87,131.76,39.12,5.33,66-.15,193.63-1.73,217s-3.67,33.86-11.57,82.66c-6,37.13-12.6,118.46-12.6,118.46-16.86,9.28-32.68-2.31-32.68-2.31s-14-100.45-13.08-127.37a229.68,229.68,0,0,1,9.77-58.81s-8.71-107.54-11.14-124.65c0,0-3.73,34.16-5.31,57.5s-8.34,45.66-14.77,89c-5.58,37.63-15.16,116.23-15.16,116.23-16.86,9.28-28.42,4.69-28.42,4.69S154.26,1558.48,158.59,1525.83Z" transform="translate(0 -34.69)"/></g><path class="cls-8" d="M232.39,1396.88l-5.21-46.51s-25.27,1-49-18.15c0,0,8,17.11,41.65,25.18l5.64,47.86,1.37,52.61Q229.08,1427.07,232.39,1396.88Z" transform="translate(0 -34.69)"/><path class="cls-6" d="M167.67,1108.35c4.32-12.82,13.13-20.31,32.58-20.53l3.47.11c1.36,7.13,24.2,13.63,44.89,6.33,2.86.52,12.73,1.63,17.24,2.23l9.9,1.45c15.07,4.93,21.73,31.1,23.17,72.57s7.65,130.18,7.65,130.18-32.39,17.36-83.52,10.64c-45.76-6-66.07-33-64.49-29.5a447.44,447.44,0,0,1,26.14-66.58C160.6,1156.05,161.26,1127.37,167.67,1108.35Z" transform="translate(0 -34.69)"/><path class="cls-9" d="M248.38,1312.85a176.93,176.93,0,0,1-25.33-1.52c-41.73-5.48-62.71-28.34-64.44-29.73.61-2.81,10.2-34.33,26.09-66.35-12.18-29.91-18-52-20-69,2,12.41,20.33,60.48,44.33,74.9,0,0-13.54,2.1-25.13,18S181.81,1309.44,248.38,1312.85Z" transform="translate(0 -34.69)"/><path class="cls-24" d="M265.85,1096.49c20,2.51,35.76,6.68,44.46,25.71,14.76,32.26,30.74,58.73,42.36,71.18,12.42,13.31,63.31,36.7,74.78,34.84s22.92-15.06,28.83-11.65-5,16.21-4.33,19.09,21.53,1.35,31.36-5.6,13.47,7.4.76,22.31-36.62,16.06-62.57,10.86-74.93-18.87-94.83-35.26c-24.14-19.88-32.34-34.94-42.61-52.76C246.85,1136.88,265.85,1096.49,265.85,1096.49Z" transform="translate(0 -34.69)"/></g></g><g class="cls-27"><path class="cls-28" d="M772.11,584.77l-.3-.18a27.92,27.92,0,0,0-2.75-1.34c-.18-.07-.37-.12-.54-.19l-.93-.33c-.47-.17-.93-.36-1.42-.5s-1.06-.25-1.59-.37c-.33-.07-.64-.16-1-.22-.17,0-.34-.09-.52-.12a29.64,29.64,0,0,0-3.31-.39h-1c-.87,0-1.73-.07-2.61,0-.3,0-.61.07-.91.1-.55,0-1.1.1-1.65.16s-1,.07-1.53.15-.91.21-1.37.3c-.74.14-1.49.29-2.25.48-.41.1-.79.14-1.2.25s-.82.31-1.23.43c-1.27.38-2.56.83-3.87,1.33-.46.18-.9.28-1.36.47-.25.11-.52.28-.78.39a66,66,0,0,0-6.9,3.43c-1.77,1-3.51,2.14-5.23,3.32-.56.39-1.1.81-1.65,1.21q-1.74,1.25-3.45,2.59c-.63.51-1.26,1-1.88,1.56q-1.56,1.31-3.09,2.7c-.63.57-1.24,1.14-1.86,1.73-.38.37-.78.71-1.16,1.08s-.77.84-1.17,1.25c-1.24,1.26-2.46,2.55-3.65,3.89-.38.42-.79.81-1.17,1.24s-.6.75-.91,1.11c-.73.86-1.43,1.73-2.14,2.61-.46.57-.94,1.11-1.39,1.69s-.71,1-1.08,1.46c-.51.68-1,1.37-1.52,2.06-.34.48-.71.94-1,1.43-.57.81-1.11,1.65-1.66,2.48-.36.53-.72,1-1.07,1.59-.14.22-.3.43-.44.66-1,1.52-1.92,3.07-2.83,4.63l-.17.31c-.19.32-.36.65-.54,1-.63,1.11-1.26,2.22-1.86,3.34-.28.53-.53,1.06-.8,1.59s-.56,1.09-.83,1.64-.5.95-.73,1.43c-.62,1.29-1.2,2.59-1.78,3.89-.1.23-.21.45-.31.68a1.08,1.08,0,0,0-.08.19q-1.07,2.43-2,4.91c-.12.31-.22.61-.34.92-.22.6-.42,1.19-.64,1.79-.29.82-.61,1.64-.88,2.46-.21.65-.39,1.29-.59,1.94s-.47,1.5-.69,2.25c-.13.47-.3.93-.42,1.39-.24.85-.41,1.68-.62,2.52s-.48,1.87-.69,2.8c-.07.33-.17.65-.24,1-.14.68-.21,1.35-.34,2-.28,1.46-.55,2.91-.75,4.36-.06.41-.16.82-.21,1.22-.12.92-.18,1.83-.27,2.74-.06.65-.14,1.29-.19,1.93-.15,2-.25,4.07-.24,6.06,0,15.13,4.71,26.32,12.47,32.72a26.22,26.22,0,0,0,3.51,2.44L708,726.21c-9.83-5.71-15.93-17.87-16-35.15,0-2,.09-4,.24-6.07,0-.64.13-1.29.19-1.93.13-1.31.29-2.63.48-3.95s.47-2.91.75-4.37c.19-1,.36-2,.59-3s.45-1.87.68-2.8c.33-1.31.66-2.61,1-3.91.22-.76.46-1.51.69-2.26.46-1.47,1-2.93,1.48-4.4.21-.6.42-1.19.64-1.79.76-2,1.56-4,2.43-6,.09-.22.2-.44.3-.66.79-1.8,1.63-3.57,2.51-5.33.27-.56.55-1.1.83-1.65.86-1.66,1.74-3.3,2.67-4.92l.53-1c1.1-1.9,2.26-3.77,3.45-5.61.34-.53.71-1.06,1.07-1.59q1.32-2,2.7-3.9.76-1.05,1.53-2.07c.8-1.07,1.63-2.11,2.46-3.14s1.42-1.76,2.14-2.62,1.38-1.57,2.08-2.35q1.78-2,3.65-3.89c.78-.79,1.55-1.57,2.33-2.33.62-.59,1.24-1.16,1.86-1.73q1.53-1.4,3.09-2.7c.63-.52,1.25-1,1.88-1.56,1.14-.9,2.29-1.75,3.45-2.59.55-.4,1.1-.82,1.65-1.2,1.73-1.18,3.47-2.31,5.23-3.33a67,67,0,0,1,6.9-3.43c.72-.31,1.43-.58,2.14-.85,1.31-.51,2.6-1,3.88-1.34.81-.24,1.62-.49,2.42-.68s1.51-.34,2.25-.48c1-.18,1.95-.34,2.91-.45.55-.06,1.1-.12,1.64-.16a34.69,34.69,0,0,1,3.52-.07h.8a31.12,31.12,0,0,1,4,.51l1,.22a27.14,27.14,0,0,1,3,.88c.31.1.62.2.92.32a25.69,25.69,0,0,1,3.59,1.71Z" transform="translate(0 -34.69)"/><ellipse class="cls-3" cx="746.8" cy="659.42" rx="77.25" ry="44.75" transform="translate(-198.56 939.08) rotate(-59.84)"/></g><path class="cls-5" d="M727.5,655c2.52-1.46,4.67-2,6.49-1.78a5.38,5.38,0,0,1,4,2.79l-2.82,3.73a4.33,4.33,0,0,0-1.56-1.7,3.66,3.66,0,0,0-2-.56,6,6,0,0,0-2.17.32,13.8,13.8,0,0,0-2.18,1,15.31,15.31,0,0,0-4.15,3.52,23.31,23.31,0,0,0-3,4.66,24.65,24.65,0,0,0-1.86,5.17,21.34,21.34,0,0,0-.58,4.91,12.43,12.43,0,0,0,.74,4.45,6.86,6.86,0,0,0,2,2.91,5.33,5.33,0,0,0,3.14,1,7.88,7.88,0,0,0,3.88-1.22,15.2,15.2,0,0,0,2.29-1.63,17.85,17.85,0,0,0,2.25-2.33,21.33,21.33,0,0,0,2-2.94,17.86,17.86,0,0,0,1.54-3.48l3,.14a21.31,21.31,0,0,1-1.89,4.35,29.59,29.59,0,0,1-2.74,3.92,28,28,0,0,1-3.26,3.35,19.89,19.89,0,0,1-3.34,2.43,10,10,0,0,1-5.33,1.61,7.22,7.22,0,0,1-4.22-1.38,8.75,8.75,0,0,1-2.76-3.78,14.77,14.77,0,0,1-1-5.53,25.39,25.39,0,0,1,.88-6.35,32.27,32.27,0,0,1,6.85-12.93A22.59,22.59,0,0,1,727.5,655Z" transform="translate(0 -34.69)"/><path class="cls-5" d="M752,640.79a14.55,14.55,0,0,1,5.2-2,8.26,8.26,0,0,1,4.11.31l-1.68,4.32a2.23,2.23,0,0,0-1.28-.48,6,6,0,0,0-1.77-.08,13.79,13.79,0,0,0-2.17.48,13.58,13.58,0,0,0-2.45,1.13,14.33,14.33,0,0,0-4.86,4.21,8.62,8.62,0,0,0-1.51,4.78,3.29,3.29,0,0,0,.44,1.94,1.86,1.86,0,0,0,1.39.7,8,8,0,0,0,2.31-.27c1-.24,2-.56,3.32-1a32.76,32.76,0,0,1,4-1,6.88,6.88,0,0,1,3,0,2.87,2.87,0,0,1,1.94,1.44,6.7,6.7,0,0,1,.66,3.31,13.34,13.34,0,0,1-.77,4.52,18,18,0,0,1-2.17,4.09,20.12,20.12,0,0,1-3.26,3.54,27,27,0,0,1-4,2.87,19.42,19.42,0,0,1-6.2,2.39,10.31,10.31,0,0,1-5.34-.33l1.7-4.45a5.18,5.18,0,0,0,1.67.57,7.27,7.27,0,0,0,2.31.07,14,14,0,0,0,2.8-.62,14.28,14.28,0,0,0,3.13-1.4,15.35,15.35,0,0,0,4.7-4,7.46,7.46,0,0,0,1.64-4.64,2.87,2.87,0,0,0-.55-2,2.07,2.07,0,0,0-1.58-.71,7.27,7.27,0,0,0-2.56.26c-1,.25-2.17.53-3.48.91a26.09,26.09,0,0,1-3.8.92,6.27,6.27,0,0,1-2.73-.06,2.83,2.83,0,0,1-1.66-1.38,6.83,6.83,0,0,1-.55-3,13.42,13.42,0,0,1,.75-4.56,16.78,16.78,0,0,1,2.08-4.2,19,19,0,0,1,3.23-3.74A24.27,24.27,0,0,1,752,640.79Z" transform="translate(0 -34.69)"/><path class="cls-5" d="M776.27,626.78a14.51,14.51,0,0,1,5.17-1.95,8.37,8.37,0,0,1,4.11.32l-1.65,4.3a2.51,2.51,0,0,0-1.28-.48,7.07,7.07,0,0,0-1.8-.06,12.2,12.2,0,0,0-2.18.48,13.15,13.15,0,0,0-2.44,1.13,14.23,14.23,0,0,0-4.83,4.19,8.37,8.37,0,0,0-1.51,4.79,3.27,3.27,0,0,0,.44,1.93,1.67,1.67,0,0,0,1.36.71,7.92,7.92,0,0,0,2.34-.28c.92-.22,2-.56,3.32-1a31.77,31.77,0,0,1,3.94-1,6.88,6.88,0,0,1,3,0,2.87,2.87,0,0,1,1.91,1.46,6.7,6.7,0,0,1,.66,3.31,12.86,12.86,0,0,1-.78,4.51,17.12,17.12,0,0,1-2.16,4.1,19.82,19.82,0,0,1-3.23,3.52,27.17,27.17,0,0,1-4.08,2.88,18.92,18.92,0,0,1-6.19,2.39,10.08,10.08,0,0,1-5.31-.34l1.7-4.45a4.48,4.48,0,0,0,1.66.57,7,7,0,0,0,2.32.07,12.85,12.85,0,0,0,2.77-.6,14.61,14.61,0,0,0,3.13-1.4,15.32,15.32,0,0,0,4.69-4,7.58,7.58,0,0,0,1.68-4.66,3.1,3.1,0,0,0-.55-2,2.21,2.21,0,0,0-1.58-.71,7.73,7.73,0,0,0-2.59.27c-1,.24-2.17.54-3.48.92a24.92,24.92,0,0,1-3.78.9,5.92,5.92,0,0,1-2.72-.06,2.7,2.7,0,0,1-1.67-1.38,6.53,6.53,0,0,1-.58-3,14.67,14.67,0,0,1,.75-4.56,18.51,18.51,0,0,1,2.11-4.22,19.38,19.38,0,0,1,3.23-3.74A23.58,23.58,0,0,1,776.27,626.78Z" transform="translate(0 -34.69)"/><g class="cls-27"><path class="cls-28" d="M619.49,784.07l-.28-.15a24.78,24.78,0,0,0-2.48-1.22l-.5-.17c-.27-.11-.55-.2-.83-.3s-.85-.32-1.29-.45-1-.22-1.44-.33c-.29-.07-.58-.15-.88-.2s-.31-.09-.47-.11a26.27,26.27,0,0,0-3-.35h-.92c-.78,0-1.56-.06-2.37,0-.26,0-.55.06-.82.08l-1.49.15c-.47.06-.91.07-1.38.14s-.83.19-1.24.27c-.68.12-1.36.26-2,.43-.37.09-.72.13-1.09.23s-.74.28-1.11.39c-1.15.34-2.32.75-3.51,1.21-.41.16-.81.24-1.22.42-.24.1-.48.25-.71.35a59.48,59.48,0,0,0-6.25,3.11c-1.6.92-3.17,1.94-4.73,3-.51.34-1,.72-1.5,1.08-1.05.76-2.09,1.53-3.12,2.35-.57.46-1.14.94-1.7,1.41-1,.79-1.88,1.61-2.8,2.45q-.86.76-1.68,1.56c-.35.34-.71.64-1,1s-.7.77-1.06,1.13q-1.69,1.71-3.31,3.53c-.35.38-.71.73-1.05,1.12s-.55.68-.83,1c-.66.77-1.3,1.56-1.94,2.35-.41.52-.85,1-1.26,1.54s-.64.88-1,1.32c-.47.62-.92,1.24-1.38,1.86-.31.44-.64.86-.95,1.29-.52.74-1,1.5-1.51,2.25l-1,1.44-.4.6q-1.32,2.07-2.56,4.19l-.16.29c-.17.28-.32.58-.48.86-.57,1-1.15,2-1.69,3-.25.47-.48,1-.72,1.43l-.76,1.49c-.21.43-.44.86-.65,1.29-.57,1.17-1.1,2.35-1.62,3.53-.09.2-.19.4-.28.61s0,.11-.07.17c-.64,1.47-1.25,3-1.82,4.45-.11.27-.2.55-.3.83-.21.54-.39,1.08-.58,1.62-.27.74-.55,1.48-.8,2.23-.2.58-.36,1.17-.54,1.75s-.42,1.36-.62,2c-.12.42-.27.84-.39,1.26-.21.77-.36,1.52-.56,2.28s-.43,1.69-.62,2.54c-.06.29-.15.59-.21.88-.13.61-.2,1.22-.32,1.83-.25,1.32-.49,2.64-.68,4,0,.37-.14.74-.18,1.1-.11.84-.17,1.66-.25,2.49,0,.58-.13,1.16-.17,1.74-.14,1.85-.22,3.68-.22,5.49,0,13.69,4.27,23.83,11.29,29.62A25.45,25.45,0,0,0,549.2,905l12.23,7.11C552.53,907,547,896,547,880.3c0-1.81.09-3.64.22-5.49.05-.58.12-1.17.18-1.75.11-1.19.26-2.38.43-3.57s.42-2.64.68-4c.17-.91.33-1.81.53-2.71s.41-1.69.62-2.54c.3-1.18.6-2.36.94-3.54.2-.68.41-1.36.62-2,.42-1.33.87-2.66,1.34-4,.19-.54.38-1.08.58-1.62.69-1.83,1.41-3.65,2.2-5.45l.27-.6c.72-1.63,1.48-3.23,2.27-4.83l.76-1.49c.77-1.5,1.57-3,2.41-4.45l.48-.87c1-1.72,2-3.41,3.12-5.08.32-.49.65-1,1-1.44.8-1.2,1.62-2.37,2.45-3.53.46-.63.92-1.26,1.39-1.88.72-1,1.47-1.91,2.22-2.84s1.29-1.59,1.94-2.37,1.25-1.42,1.88-2.12c1.08-1.21,2.19-2.39,3.31-3.53.7-.71,1.4-1.42,2.11-2.11l1.68-1.56c.92-.84,1.86-1.66,2.8-2.45.57-.47,1.13-1,1.7-1.41,1-.82,2.07-1.59,3.12-2.35.5-.36,1-.74,1.5-1.08,1.56-1.07,3.14-2.09,4.73-3a59.48,59.48,0,0,1,6.25-3.11c.65-.28,1.29-.53,1.94-.78,1.18-.45,2.35-.86,3.5-1.2.74-.22,1.48-.44,2.2-.62s1.36-.31,2-.43c.88-.17,1.76-.31,2.63-.41.49-.06,1-.11,1.48-.15,1.09-.07,2.15-.09,3.19-.06h.72a27.26,27.26,0,0,1,3.67.47c.29,0,.58.13.87.19a26.85,26.85,0,0,1,2.73.79l.84.3a24.14,24.14,0,0,1,3.25,1.54Z" transform="translate(0 -34.69)"/><ellipse class="cls-3" cx="596.58" cy="851.66" rx="69.93" ry="40.51" transform="translate(-439.52 904.85) rotate(-59.84)"/></g><path class="cls-5" d="M586.88,849.42a7.93,7.93,0,0,1,.57,3.07,14,14,0,0,1-.53,3.84,18.15,18.15,0,0,1-1.51,3.91,18.54,18.54,0,0,1-2.38,3.49A12.26,12.26,0,0,1,580,866.3l-7.65,4.42,0,10.54-3.24,1.88-.09-29.4,10.68-6.16a6.53,6.53,0,0,1,3.12-1,4,4,0,0,1,2.47.76A5.11,5.11,0,0,1,586.88,849.42Zm-3,7.51a10.24,10.24,0,0,0,.31-2.56,5.8,5.8,0,0,0-.37-2.16,3.05,3.05,0,0,0-1-1.35,2.3,2.3,0,0,0-1.48-.45,3.86,3.86,0,0,0-1.77.57l-7.26,4.19,0,12.21,7.48-4.32a6.78,6.78,0,0,0,1.82-1.5,10.55,10.55,0,0,0,1.37-2.12,12.13,12.13,0,0,0,.91-2.51" transform="translate(0 -34.69)"/><polygon class="cls-5" points="612.05 794.19 612.13 823.59 608.89 825.46 608.85 812.09 594.75 820.23 594.79 833.6 591.54 835.48 591.46 806.08 594.71 804.2 594.74 816.92 608.84 808.78 608.8 796.07 612.05 794.19"/><path class="cls-5" d="M636.05,821a8.11,8.11,0,0,1,.58,3.07,14.83,14.83,0,0,1-.53,3.84,18.72,18.72,0,0,1-1.52,3.91,18.08,18.08,0,0,1-2.38,3.49,12.22,12.22,0,0,1-3.07,2.57l-7.65,4.42,0,10.54-3.25,1.88-.08-29.4,10.67-6.17a6.65,6.65,0,0,1,3.13-1,3.94,3.94,0,0,1,2.46.76A5.11,5.11,0,0,1,636.05,821Zm-3,7.51a9.8,9.8,0,0,0,.31-2.56,5.61,5.61,0,0,0-.37-2.16,3.11,3.11,0,0,0-1-1.36,2.43,2.43,0,0,0-1.5-.44,3.86,3.86,0,0,0-1.77.57l-7.26,4.19,0,12.21,7.47-4.32a7,7,0,0,0,1.82-1.5,10.59,10.59,0,0,0,1.38-2.12,12.94,12.94,0,0,0,.9-2.51" transform="translate(0 -34.69)"/><g id="Check_Boxes" data-name="Check Boxes"><g id="Speach_Bubble" data-name="Speach Bubble"><path class="cls-3" d="M1455.56,110.91a14.73,14.73,0,0,0-6.67-11.56l-5.43-3.13a14.72,14.72,0,0,0-13.34,0l-83.3,48.17a14.76,14.76,0,0,0-6.67,11.56V247.6a14.74,14.74,0,0,0,6.67,11.55l5.43,3.14a14.72,14.72,0,0,0,13.34,0l83.3-48.18a14.73,14.73,0,0,0,6.67-11.55Z" transform="translate(0 -34.69)"/><path class="cls-20" d="M1340.15,247.6a14.74,14.74,0,0,0,6.67,11.55l5.43,3.14a14.93,14.93,0,0,0,12.2.54c-3.14,1.18-5.53-.59-5.53-4.39V166.79a13.62,13.62,0,0,1,2-6.58l-18.78-10.84a13.72,13.72,0,0,0-1.95,6.58Z" transform="translate(0 -34.69)"/><path class="cls-29" d="M1455.34,109c-.78-2.83-3.36-3.73-6.44-2l-83.31,48.19a13.16,13.16,0,0,0-4.7,5l-18.76-10.83a13.44,13.44,0,0,1,4.69-5l83.28-48.19a14.83,14.83,0,0,1,13.36,0l5.44,3.14A14.68,14.68,0,0,1,1455.34,109Z" transform="translate(0 -34.69)"/><path id="Check" class="cls-30" d="M1435,132.68a7.67,7.67,0,0,0-10,4.09L1396,205.63l-6.89-6.7a7.66,7.66,0,1,0-10.67,11l14.94,14.52a7.59,7.59,0,0,0,5.33,2.17,8,8,0,0,0,1.53-.15,7.68,7.68,0,0,0,5.53-4.54l33.28-79.2A7.66,7.66,0,0,0,1435,132.68Z" transform="translate(0 -34.69)"/></g><path class="cls-6" d="M1481.21,113.17c0,4.09,3.06,5.64,6.83,3.46L1602.6,50.49c3.77-2.18,6.83-7.26,6.83-11.35s-3.06-5.64-6.83-3.46L1488,101.82C1484.27,104,1481.21,109.08,1481.21,113.17Z" transform="translate(0 -34.69)"/><path class="cls-6" d="M1481.21,142.78c0,4.09,3.06,5.64,6.83,3.46L1602.6,80.1c3.77-2.18,6.83-7.26,6.83-11.35s-3.06-5.63-6.83-3.46L1488,131.43C1484.27,133.61,1481.21,138.7,1481.21,142.78Z" transform="translate(0 -34.69)"/><path class="cls-6" d="M1481.21,172.4c0,4.08,3.06,5.63,6.83,3.45l114.56-66.14c3.77-2.18,6.83-7.26,6.83-11.35s-3.06-5.63-6.83-3.45L1488,161.05C1484.27,163.23,1481.21,168.31,1481.21,172.4Z" transform="translate(0 -34.69)"/><g id="Speach_Bubble-2" data-name="Speach Bubble"><path class="cls-3" d="M1455.56,274.63a14.73,14.73,0,0,0-6.67-11.55l-5.43-3.14a14.79,14.79,0,0,0-13.34,0l-83.3,48.18a14.76,14.76,0,0,0-6.67,11.55v91.65a14.76,14.76,0,0,0,6.67,11.56l5.43,3.13a14.72,14.72,0,0,0,13.34,0l83.3-48.17a14.73,14.73,0,0,0,6.67-11.56Z" transform="translate(0 -34.69)"/><path class="cls-20" d="M1340.15,411.32a14.76,14.76,0,0,0,6.67,11.56l5.43,3.13a14.89,14.89,0,0,0,12.2.54c-3.14,1.19-5.53-.58-5.53-4.39V330.51a13.62,13.62,0,0,1,2-6.57L1342.1,313.1a13.71,13.71,0,0,0-1.95,6.57Z" transform="translate(0 -34.69)"/><path class="cls-29" d="M1455.34,272.74c-.78-2.84-3.36-3.74-6.44-2L1365.59,319a13.12,13.12,0,0,0-4.7,5l-18.76-10.83a13.52,13.52,0,0,1,4.69-5L1430.1,260a14.83,14.83,0,0,1,13.36,0l5.44,3.14A14.66,14.66,0,0,1,1455.34,272.74Z" transform="translate(0 -34.69)"/><path id="Check-2" data-name="Check" class="cls-30" d="M1435,296.41a7.67,7.67,0,0,0-10,4.09L1396,369.36l-6.89-6.71a7.66,7.66,0,1,0-10.67,11l14.94,14.53a7.62,7.62,0,0,0,5.33,2.16,8,8,0,0,0,1.53-.15,7.66,7.66,0,0,0,5.53-4.53l33.28-79.21A7.65,7.65,0,0,0,1435,296.41Z" transform="translate(0 -34.69)"/></g><path class="cls-6" d="M1481.21,276.9c0,4.09,3.06,5.63,6.83,3.45l114.56-66.14c3.77-2.18,6.83-7.26,6.83-11.35s-3.06-5.63-6.83-3.45L1488,265.55C1484.27,267.73,1481.21,272.81,1481.21,276.9Z" transform="translate(0 -34.69)"/><path class="cls-6" d="M1481.21,306.51c0,4.09,3.06,5.64,6.83,3.46l114.56-66.14c3.77-2.18,6.83-7.26,6.83-11.35s-3.06-5.64-6.83-3.46L1488,295.16C1484.27,297.34,1481.21,302.42,1481.21,306.51Z" transform="translate(0 -34.69)"/><path class="cls-6" d="M1481.21,336.12c0,4.09,3.06,5.64,6.83,3.46l114.56-66.14c3.77-2.18,6.83-7.26,6.83-11.35s-3.06-5.64-6.83-3.46L1488,324.77C1484.27,327,1481.21,332,1481.21,336.12Z" transform="translate(0 -34.69)"/><g id="Speach_Bubble-3" data-name="Speach Bubble"><path class="cls-11" d="M1455.56,438.36a14.73,14.73,0,0,0-6.67-11.56l-5.43-3.13a14.72,14.72,0,0,0-13.34,0l-83.3,48.18a14.73,14.73,0,0,0-6.67,11.55v91.65a14.74,14.74,0,0,0,6.67,11.55l5.43,3.14a14.72,14.72,0,0,0,13.34,0l83.3-48.18a14.72,14.72,0,0,0,6.67-11.55Z" transform="translate(0 -34.69)"/><path class="cls-2" d="M1340.15,575.05a14.74,14.74,0,0,0,6.67,11.55l5.43,3.14a14.93,14.93,0,0,0,12.2.54c-3.14,1.18-5.53-.59-5.53-4.39V494.24a13.62,13.62,0,0,1,2-6.58l-18.78-10.83a13.68,13.68,0,0,0-1.95,6.57Z" transform="translate(0 -34.69)"/><path class="cls-29" d="M1455.34,436.46c-.78-2.83-3.36-3.73-6.44-2l-83.31,48.19a13.16,13.16,0,0,0-4.7,5l-18.76-10.83a13.44,13.44,0,0,1,4.69-5l83.28-48.19a14.89,14.89,0,0,1,13.36,0l5.44,3.14A14.71,14.71,0,0,1,1455.34,436.46Z" transform="translate(0 -34.69)"/></g><path class="cls-6" d="M1481.21,440.62c0,4.09,3.06,5.64,6.83,3.46l114.56-66.14c3.77-2.18,6.83-7.26,6.83-11.35s-3.06-5.64-6.83-3.46L1488,429.27C1484.27,431.45,1481.21,436.53,1481.21,440.62Z" transform="translate(0 -34.69)"/><path class="cls-6" d="M1481.21,470.23c0,4.09,3.06,5.64,6.83,3.46l114.56-66.14c3.77-2.18,6.83-7.26,6.83-11.35s-3.06-5.63-6.83-3.45L1488,458.89C1484.27,461.06,1481.21,466.15,1481.21,470.23Z" transform="translate(0 -34.69)"/><path class="cls-6" d="M1481.21,499.85c0,4.09,3.06,5.63,6.83,3.45l114.56-66.14c3.77-2.18,6.83-7.26,6.83-11.35s-3.06-5.63-6.83-3.45L1488,488.5C1484.27,490.68,1481.21,495.76,1481.21,499.85Z" transform="translate(0 -34.69)"/></g><g id="Chart"><path class="cls-31" d="M535.78,1593.35l210.81,121.71c3.78,2.18,10.92,1.59,16-1.32l388-224c5-2.91,6-7,2.27-9.21L942,1358.81c-3.77-2.18-10.92-1.59-16,1.32l-388,224C533,1587,532,1591.17,535.78,1593.35Z" transform="translate(0 -34.69)"/><path class="cls-32" d="M535.78,1593.35l210.81,121.71c3.78,2.18,10.92,1.59,16-1.32l388-224c5-2.91,6-7,2.27-9.21L942,1358.81c-3.77-2.18-10.92-1.59-16,1.32l-388,224C533,1587,532,1591.17,535.78,1593.35Z" transform="translate(0 -34.69)"/><polygon class="cls-3" points="764.16 1641.13 680.88 1593.01 695.62 1584.52 778.88 1632.63 764.16 1641.13"/><polygon class="cls-6" points="771.95 1649.47 793.33 1637.13 798.24 1639.96 776.86 1652.31 771.95 1649.47"/><polygon class="cls-3" points="792.2 1624.94 663.9 1550.87 678.63 1542.37 806.92 1616.44 792.2 1624.94"/><polygon class="cls-6" points="799.99 1633.28 821.37 1620.94 826.28 1623.78 804.9 1636.12 799.99 1633.28"/><polygon class="cls-3" points="834.96 1600.24 695.62 1519.8 710.35 1511.31 849.68 1591.75 834.96 1600.24"/><polygon class="cls-6" points="842.77 1608.54 864.15 1596.19 869.07 1599.03 847.68 1611.38 842.77 1608.54"/><polygon class="cls-3" points="863 1584.06 747.7 1517.5 762.43 1509 877.72 1575.56 863 1584.06"/><polygon class="cls-6" points="870.81 1592.35 892.19 1580 897.1 1582.84 875.72 1595.18 870.81 1592.35"/><polygon class="cls-3" points="905.79 1559.38 841.5 1522.27 856.24 1513.78 920.51 1550.89 905.79 1559.38"/><polygon class="cls-6" points="913.5 1567.73 934.88 1555.38 939.79 1558.22 918.41 1570.57 913.5 1567.73"/><polygon class="cls-3" points="933.84 1543.2 860.85 1501.07 875.58 1492.57 948.56 1534.7 933.84 1543.2"/><polygon class="cls-6" points="941.54 1551.54 962.91 1539.19 967.83 1542.03 946.45 1554.38 941.54 1551.54"/><polygon class="cls-3" points="976.57 1518.49 888.63 1467.72 903.36 1459.23 991.29 1509.99 976.57 1518.49"/><polygon class="cls-6" points="984.58 1526.74 1005.96 1514.39 1010.87 1517.23 989.49 1529.58 984.58 1526.74"/><polygon class="cls-3" points="1004.61 1502.3 947.38 1469.27 962.12 1460.77 1019.33 1493.81 1004.61 1502.3"/><polygon class="cls-6" points="1012.62 1510.55 1033.99 1498.2 1038.91 1501.04 1017.53 1513.39 1012.62 1510.55"/><polygon class="cls-3" points="1047.38 1477.62 1022.37 1463.18 1037.1 1454.69 1062.1 1469.12 1047.38 1477.62"/><polygon class="cls-3" points="764.16 1641.13 680.88 1593.01 695.62 1584.52 778.88 1632.63 764.16 1641.13"/><polygon class="cls-3" points="834.96 1600.24 695.62 1519.8 710.35 1511.31 849.68 1591.75 834.96 1600.24"/><polygon class="cls-3" points="905.79 1559.38 841.5 1522.27 856.24 1513.78 920.51 1550.89 905.79 1559.38"/><polygon class="cls-3" points="976.57 1518.49 888.63 1467.72 903.36 1459.23 991.29 1509.99 976.57 1518.49"/><polygon class="cls-3" points="1047.38 1477.62 1022.37 1463.18 1037.1 1454.69 1062.1 1469.12 1047.38 1477.62"/><polygon class="cls-6" points="1055.36 1485.83 1076.74 1473.49 1081.65 1476.32 1060.27 1488.67 1055.36 1485.83"/><polygon class="cls-3" points="1075.42 1461.43 992.26 1412.24 1006.99 1403.74 1090.14 1452.93 1075.42 1461.43"/><polygon class="cls-6" points="1083.4 1469.64 1104.77 1457.3 1109.69 1460.13 1088.31 1472.48 1083.4 1469.64"/><polygon class="cls-3" points="811.95 1421.84 795.91 1431.1 807.97 1438.04 823.97 1428.79 811.95 1421.84"/><polygon class="cls-33" points="811.95 1421.84 795.91 1431.1 807.97 1438.04 823.97 1428.79 811.95 1421.84"/><path class="cls-6" d="M937.74,1385.86,823.12,1452c-2.31,1.33-2.77,3.22-1,4.22l2.35,1.35c1.74,1,5,.73,7.33-.61l114.59-66.16c2.31-1.33,2.78-3.22,1-4.22l-2.33-1.35C943.33,1384.26,940.05,1384.53,937.74,1385.86Z" transform="translate(0 -34.69)"/><polygon class="cls-3" points="832 1433.42 815.96 1442.68 828.01 1449.62 844.02 1440.36 832 1433.42"/><path class="cls-6" d="M957.79,1397.44,843.17,1463.6c-2.31,1.34-2.77,3.23-1,4.23l2.35,1.34c1.74,1,5,.73,7.33-.6l114.59-66.16c2.31-1.33,2.78-3.23,1-4.23l-2.33-1.34C963.38,1395.84,960.1,1396.11,957.79,1397.44Z" transform="translate(0 -34.69)"/><polygon class="cls-3" points="764.16 1641.13 680.88 1593.01 695.62 1584.52 778.88 1632.63 764.16 1641.13"/><polygon class="cls-3" points="834.96 1600.24 695.62 1519.8 710.35 1511.31 849.68 1591.75 834.96 1600.24"/><polygon class="cls-3" points="905.79 1559.38 841.5 1522.27 856.24 1513.78 920.51 1550.89 905.79 1559.38"/><polygon class="cls-3" points="976.57 1518.49 888.63 1467.72 903.36 1459.23 991.29 1509.99 976.57 1518.49"/><polygon class="cls-3" points="764.16 1641.13 680.88 1593.01 695.62 1584.52 778.88 1632.63 764.16 1641.13"/><polygon class="cls-3" points="834.96 1600.24 695.62 1519.8 710.35 1511.31 849.68 1591.75 834.96 1600.24"/><polygon class="cls-3" points="905.79 1559.38 841.5 1522.27 856.24 1513.78 920.51 1550.89 905.79 1559.38"/><polygon class="cls-3" points="976.57 1518.49 888.63 1467.72 903.36 1459.23 991.29 1509.99 976.57 1518.49"/><polygon class="cls-3" points="1047.38 1477.62 1022.37 1463.18 1037.1 1454.69 1062.1 1469.12 1047.38 1477.62"/><polygon class="cls-33" points="764.16 1641.13 680.88 1593.01 695.62 1584.52 778.88 1632.63 764.16 1641.13"/><polygon class="cls-33" points="834.96 1600.24 695.62 1519.8 710.35 1511.31 849.68 1591.75 834.96 1600.24"/><polygon class="cls-33" points="905.79 1559.38 841.5 1522.27 856.24 1513.78 920.51 1550.89 905.79 1559.38"/><polygon class="cls-33" points="976.57 1518.49 888.63 1467.72 903.36 1459.23 991.29 1509.99 976.57 1518.49"/><polygon class="cls-33" points="1047.38 1477.62 1022.37 1463.18 1037.1 1454.69 1062.1 1469.12 1047.38 1477.62"/></g><g id="Chart-2" data-name="Chart"><path class="cls-31" d="M985,1334.25,1195.8,1456c3.78,2.18,10.92,1.59,16-1.32L1502,1287.09c5-2.91,6-7,2.27-9.21l-210.81-121.71c-3.77-2.18-10.92-1.59-16,1.31L987.27,1325C982.23,1327.94,981.21,1332.07,985,1334.25Z" transform="translate(0 -34.69)"/><path class="cls-32" d="M985,1334.25,1195.8,1456c3.78,2.18,10.92,1.59,16-1.32L1502,1287.09c5-2.91,6-7,2.27-9.21l-210.81-121.71c-3.77-2.18-10.92-1.59-16,1.31L987.27,1325C982.23,1327.94,981.21,1332.07,985,1334.25Z" transform="translate(0 -34.69)"/><polygon class="cls-3" points="1347.1 1261.53 1331.07 1270.79 1343.12 1277.73 1359.13 1268.48 1347.1 1261.53"/><path class="cls-6" d="M1409.34,1263.85l-52.94,30.54c-1.39.8-1.67,1.93-.63,2.53l3.29,1.89a5,5,0,0,0,4.4-.36l52.92-30.54c1.38-.8,1.67-1.94.63-2.54l-3.27-1.89A5,5,0,0,0,1409.34,1263.85Z" transform="translate(0 -34.69)"/><polygon class="cls-3" points="1297.9 1233.14 1281.86 1242.4 1293.92 1249.34 1309.92 1240.09 1297.9 1233.14"/><polygon class="cls-33" points="1297.9 1233.14 1281.86 1242.4 1293.92 1249.34 1309.92 1240.09 1297.9 1233.14"/><path class="cls-6" d="M1360.92,1235.53l-53,30.54c-1.39.8-1.67,1.94-.63,2.54l3.29,1.88a5,5,0,0,0,4.4-.36l52.92-30.54c1.38-.8,1.67-1.93.63-2.53l-3.27-1.89A5,5,0,0,0,1360.92,1235.53Z" transform="translate(0 -34.69)"/><polygon class="cls-3" points="1248.76 1204.75 1232.72 1214.01 1244.78 1220.95 1260.79 1211.7 1248.76 1204.75"/><polygon class="cls-17" points="1248.76 1204.75 1232.72 1214.01 1244.78 1220.95 1260.79 1211.7 1248.76 1204.75"/><path class="cls-6" d="M1312.55,1207.21l-52.94,30.55c-1.39.8-1.67,1.93-.63,2.53l3.29,1.89a5,5,0,0,0,4.4-.37l52.92-30.54c1.38-.8,1.66-1.93.62-2.53l-3.26-1.89A5,5,0,0,0,1312.55,1207.21Z" transform="translate(0 -34.69)"/><path class="cls-3" d="M1263.65,1295.21c-40.74-23.52-106.79-23.52-147.53,0s-40.73,61.65,0,85.17,106.79,23.52,147.53,0S1304.38,1318.73,1263.65,1295.21ZM1243,1368.47c-29.35,17-76.94,17-106.29,0s-29.35-44.43,0-61.37,76.94-16.95,106.29,0S1272.38,1351.53,1243,1368.47Z" transform="translate(0 -34.69)"/><path class="cls-33" d="M1228.93,1300.76l12.67-15.21c-39.84-13.16-91.46-10-125.48,9.66l20.62,11.9C1161.76,1292.66,1200,1290.58,1228.93,1300.76Z" transform="translate(0 -34.69)"/><path class="cls-17" d="M1263.65,1295.21a118.79,118.79,0,0,0-22.05-9.66l-12.67,15.21a84.08,84.08,0,0,1,14.1,6.35,64.93,64.93,0,0,1,6.47,4.32l20.79-12C1268.2,1298,1266,1296.57,1263.65,1295.21Z" transform="translate(0 -34.69)"/><path class="cls-3" d="M1149.74,1361.1c22.29,12.87,58.3,12.87,80.42,0s22.13-33.74,0-46.61-58.13-12.87-80.42,0S1127.44,1348.23,1149.74,1361.1Z" transform="translate(0 -34.69)"/><path class="cls-30" d="M1175.79,1333.81a30.6,30.6,0,0,1,3.71,2.15,9,9,0,0,1,2.15,1.89,3.29,3.29,0,0,1,.79,2.09,3.64,3.64,0,0,1-.89,2.23,9.21,9.21,0,0,1-2.79,2.23,15.44,15.44,0,0,1-3.86,1.61,14.73,14.73,0,0,1-3.84.5,15.47,15.47,0,0,1-3.62-.45,16.11,16.11,0,0,1-3.3-1.23c-.72-.34-1.36-.68-1.93-1a21,21,0,0,1-1.78-1.14,8.46,8.46,0,0,1-2.14-1.91,3.54,3.54,0,0,1-.78-2.09,3.45,3.45,0,0,1,.86-2.21,9.5,9.5,0,0,1,2.79-2.24,16,16,0,0,1,3.86-1.61,14.66,14.66,0,0,1,3.84-.49,15.27,15.27,0,0,1,3.62.45A15.84,15.84,0,0,1,1175.79,1333.81Zm-6.22,7.6a7.58,7.58,0,0,0,2.42.8,3.35,3.35,0,0,0,2.13-.49c.72-.42,1-.83.86-1.23a3.61,3.61,0,0,0-1.4-1.4,23.2,23.2,0,0,0-3.22-1.86,8,8,0,0,0-2.43-.81,3.39,3.39,0,0,0-2.13.5c-.71.41-1,.82-.85,1.22a3.45,3.45,0,0,0,1.39,1.41A25.54,25.54,0,0,0,1169.57,1341.41Zm12.67-18a1.53,1.53,0,0,1,0-.8c.08-.24.35-.48.81-.75l4-2.32a2.5,2.5,0,0,1,1.12-.33,1.82,1.82,0,0,1,1,.22,1.4,1.4,0,0,1,.2.17.82.82,0,0,1,.14.26l7.63,32.31a1.47,1.47,0,0,1,0,.81,1.75,1.75,0,0,1-.81.75l-4,2.31a2.47,2.47,0,0,1-1.13.34,1.79,1.79,0,0,1-1-.23.76.76,0,0,1-.2-.17.62.62,0,0,1-.14-.25Zm33.37,7.18a31.57,31.57,0,0,1,3.72,2.15,9,9,0,0,1,2.15,1.89,3.31,3.31,0,0,1,.78,2.09,3.62,3.62,0,0,1-.88,2.23,9.43,9.43,0,0,1-2.78,2.23,15.08,15.08,0,0,1-3.87,1.61,14.79,14.79,0,0,1-3.84.5,15.27,15.27,0,0,1-3.62-.46,15.55,15.55,0,0,1-3.3-1.23c-.73-.33-1.36-.67-1.94-1s-1.17-.71-1.78-1.14a8.4,8.4,0,0,1-2.13-1.91,3.48,3.48,0,0,1-.78-2.09,3.43,3.43,0,0,1,.85-2.21A9.47,9.47,0,0,1,1201,1331a15.42,15.42,0,0,1,3.86-1.62,14.79,14.79,0,0,1,3.85-.49,15.4,15.4,0,0,1,3.62.45A17,17,0,0,1,1215.61,1330.59Zm-6.22,7.6a7.74,7.74,0,0,0,2.42.8,3.33,3.33,0,0,0,2.14-.49c.71-.42,1-.83.85-1.23a3.47,3.47,0,0,0-1.4-1.4,23.63,23.63,0,0,0-3.22-1.86,8,8,0,0,0-2.42-.81,3.38,3.38,0,0,0-2.13.5c-.72.41-1,.82-.86,1.22a3.36,3.36,0,0,0,1.4,1.4A24.28,24.28,0,0,0,1209.39,1338.19Z" transform="translate(0 -34.69)"/></g></svg>